<?xml version="1.0" encoding="utf-8"?>
<!-- Generator: Adobe Illustrator 27.3.1, SVG Export Plug-In . SVG Version: 6.00 Build 0)  -->
<svg version="1.1" xmlns="http://www.w3.org/2000/svg" xmlns:xlink="http://www.w3.org/1999/xlink" x="0px" y="0px"
	 viewBox="0 0 300 179.81" style="enable-background:new 0 0 300 179.81;" xml:space="preserve">
<style type="text/css">
	.st0{clip-path:url(#SVGID_00000074401482357477148090000012479535891944264066_);}
	.st1{fill:#FFFFFF;}
	.st2{clip-path:url(#SVGID_00000078728547867494281290000017661527233755512993_);}
	.st3{clip-path:url(#SVGID_00000067236531992896936340000016104108561003058353_);}
</style>
<g id="Layer_2">
</g>
<g id="Layer_3">
	<g>
		<g>
			<defs>
				<rect id="SVGID_1_" x="10.07" width="279.93" height="169.93"/>
			</defs>
			<clipPath id="SVGID_00000059995118746073511710000003363399659191811235_">
				<use xlink:href="#SVGID_1_"  style="overflow:visible;"/>
			</clipPath>
			<g style="clip-path:url(#SVGID_00000059995118746073511710000003363399659191811235_);">
				<g>
					<g>
						<g>
							<path class="st1" d="M145.5,116.49L145.5,116.49c-0.39-0.38-0.41-1-0.03-1.39l49.86-53.13l1.42,1.37l-49.86,53.13
								C146.51,116.86,145.89,116.87,145.5,116.49z"/>
						</g>
					</g>
					<g>
						<g>
							<path class="st1" d="M142.11,113.17L142.11,113.17c-0.39-0.38-0.41-1-0.03-1.39l49.86-53.13l1.42,1.37l-49.86,53.13
								C143.12,113.54,142.5,113.55,142.11,113.17z"/>
						</g>
					</g>
					<g>
						<g>
							<path class="st1" d="M138.89,110.02L138.89,110.02c-0.39-0.38-0.41-1-0.03-1.39l49.86-53.13l1.42,1.37L140.28,110
								C139.9,110.38,139.28,110.4,138.89,110.02z"/>
						</g>
					</g>
					<g>
						<g>
							<path class="st1" d="M135.18,106.39L135.18,106.39c-0.39-0.38-0.41-1-0.03-1.39l49.86-53.13l1.42,1.37l-49.86,53.13
								C136.2,106.75,135.58,106.77,135.18,106.39z"/>
						</g>
					</g>
					<g>
						<g>
							<path class="st1" d="M131.48,102.76L131.48,102.76c-0.39-0.38-0.41-1-0.03-1.39l49.86-53.13l1.42,1.37l-49.86,53.13
								C132.5,103.12,131.87,103.14,131.48,102.76z"/>
						</g>
					</g>
					<g>
						<g>
							<path class="st1" d="M128.14,99.49L128.14,99.49c-0.4-0.37-0.42-1-0.04-1.39l49.14-53.84l1.44,1.35l-49.14,53.84
								C129.16,99.84,128.53,99.86,128.14,99.49z"/>
						</g>
					</g>
					<g>
						<g>
							<path class="st1" d="M124.07,95.5L124.07,95.5c-0.39-0.38-0.41-1-0.03-1.39l49.86-53.13l1.42,1.37l-49.86,53.13
								C125.09,95.87,124.46,95.88,124.07,95.5z"/>
						</g>
					</g>
					<g>
						<g>
							<path class="st1" d="M120.37,91.87L120.37,91.87c-0.39-0.38-0.41-1-0.03-1.39l49.86-53.13l1.42,1.37l-49.86,53.13
								C121.38,92.24,120.76,92.25,120.37,91.87z"/>
						</g>
					</g>
					<g>
						<g>
							<path class="st1" d="M116.66,88.24L116.66,88.24c-0.39-0.38-0.41-1-0.03-1.39l49.86-53.13l1.42,1.37l-49.86,53.13
								C117.68,88.61,117.05,88.62,116.66,88.24z"/>
						</g>
					</g>
					<g>
						<g>
							<path class="st1" d="M113.27,84.92L113.27,84.92c-0.39-0.38-0.41-1-0.03-1.39L163.1,30.4l1.42,1.37L114.66,84.9
								C114.29,85.29,113.66,85.3,113.27,84.92z"/>
						</g>
					</g>
					<g>
						<g>
							<path class="st1" d="M110.05,81.77L110.05,81.77c-0.39-0.38-0.41-1-0.03-1.39l49.86-53.13l1.42,1.37l-49.86,53.13
								C111.07,82.13,110.45,82.15,110.05,81.77z"/>
						</g>
					</g>
				</g>
				<g>
					<g>
						<path class="st1" d="M93.71,81.88c-2.65,4.23-2.65,4.23-2.71,6.57c-0.23,9.77-3.03,12.52-12.87,12.51
							c-2.68,0-5.36-0.23-8.48-0.38c0.95,3.69,1.62,7.23,2.76,10.62c3.38,10.06,9.7,17.47,19.99,20.92
							c5.99,2.01,12.21,2.58,18.5,1.97c10.46-1.02,18.63,2.81,24.47,11.53c4.53,6.76,6.77,14.36,7.89,22.34
							c-57.55,0-122.49,0-180.04,0c0-9.4,3.45-23.19,7.4-28.12s11.73-6.38,18.76-5.75c5.95,0.53,11.83,0.17,17.59-1.47
							c12.72-3.62,19.69-12.71,22.6-25c1.48-6.26,1.93-12.81,2.39-19.26c0.35-4.91-1.46-9.32-4.53-13.23
							c-4.62-5.89-8.15-12.36-9.49-19.81C15.14,39.67,22,25.09,35.95,17.48c10.79-5.89,22.29-7.54,34.04-3.46
							c16.23,5.64,24.48,20.44,21.34,37.53c-0.37,2.02-0.03,3.57,1.08,5.29c1.97,3.02,3.81,6.15,5.38,9.39
							c1.78,3.67,1.16,4.59-2.77,5.13c-0.72,0.1-1.44,0.25-2.5,0.44c0.35,1.05,0.74,1.91,0.92,2.81c0.23,1.18,0.79,2.64,0.33,3.53
							 M77.16,56.97c1.74-1.08,4.13-3.07,5.69-3.95c3.26-1.83,4.48-4.65,4.15-8.26c-0.4-4.41-2.38-8.16-4.93-11.65
							c-11.96-16.35-32.88-19.53-47.82-7.27c-11.81,9.69-14.37,22.13-7.12,34.54c4.58,7.84,12.84,11.13,21.52,8.48
							c3.06-0.94,6.13-1.92,9.05-3.2c6.52-2.84,12.95-5.89,19.3-8.8L77.16,56.97z"/>
					</g>
					<g>
						<g>
							<defs>
								<path id="SVGID_00000136369065461555023740000010209732898561964691_" d="M77.16,56.97c1.74-1.08,4.13-3.07,5.69-3.95
									c3.26-1.83,4.48-4.65,4.15-8.26c-0.4-4.41-2.38-8.16-4.93-11.65c-11.96-16.35-32.88-19.53-47.82-7.27
									c-11.81,9.69-14.37,22.13-7.12,34.54c4.58,7.84,12.84,11.13,21.52,8.48c3.06-0.94,6.13-1.92,9.05-3.2
									c6.52-2.84,12.95-5.89,19.3-8.8L77.16,56.97z"/>
							</defs>
							<clipPath id="SVGID_00000054967965184469257750000011074754791206919836_">
								<use xlink:href="#SVGID_00000136369065461555023740000010209732898561964691_"  style="overflow:visible;"/>
							</clipPath>
							<g style="clip-path:url(#SVGID_00000054967965184469257750000011074754791206919836_);">
								<g>
									
										<rect x="-168.55" y="-41.46" transform="matrix(0.5177 -0.8556 0.8556 0.5177 8.2285 -66.3449)" class="st1" width="227.65" height="1.97"/>
								</g>
								<g>
									
										<rect x="-164.7" y="-39.13" transform="matrix(0.5177 -0.8556 0.8556 0.5177 8.0975 -61.9238)" class="st1" width="227.65" height="1.97"/>
								</g>
								<g>
									
										<rect x="-160.26" y="-36.45" transform="matrix(0.5177 -0.8556 0.8556 0.5177 7.944 -56.837)" class="st1" width="227.65" height="1.97"/>
								</g>
								<g>
									
										<rect x="-155.82" y="-33.76" transform="matrix(0.5177 -0.8556 0.8556 0.5177 7.7806 -51.7407)" class="st1" width="227.65" height="1.97"/>
								</g>
								<g>
									
										<rect x="-151.39" y="-31.08" transform="matrix(0.5177 -0.8556 0.8556 0.5177 7.6271 -46.6538)" class="st1" width="227.65" height="1.97"/>
								</g>
								<g>
									
										<rect x="-146.95" y="-28.39" transform="matrix(0.5177 -0.8556 0.8556 0.5177 7.4733 -41.5573)" class="st1" width="227.65" height="1.97"/>
								</g>
								<g>
									
										<rect x="-142.52" y="-25.7" transform="matrix(0.5177 -0.8556 0.8556 0.5177 7.3101 -36.4707)" class="st1" width="227.65" height="1.97"/>
								</g>
								<g>
									
										<rect x="-138.07" y="-23.02" transform="matrix(0.5177 -0.8556 0.8556 0.5177 7.1565 -31.3741)" class="st1" width="227.65" height="1.97"/>
								</g>
								<g>
									
										<rect x="-134.02" y="-20.57" transform="matrix(0.5177 -0.8556 0.8556 0.5177 7.0126 -26.7213)" class="st1" width="227.65" height="1.97"/>
								</g>
								<g>
									
										<rect x="-130.16" y="-18.22" transform="matrix(0.5177 -0.8556 0.8556 0.5177 6.8715 -22.2907)" class="st1" width="227.65" height="1.97"/>
								</g>
								<g>
									
										<rect x="-125.72" y="-15.55" transform="matrix(0.5177 -0.8556 0.8556 0.5177 6.7181 -17.2038)" class="st1" width="227.65" height="1.97"/>
								</g>
								<g>
									
										<rect x="-121.29" y="-12.87" transform="matrix(0.5177 -0.8556 0.8556 0.5177 6.5646 -12.1169)" class="st1" width="227.65" height="1.97"/>
								</g>
								<g>
									
										<rect x="-116.84" y="-10.18" transform="matrix(0.5139 -0.8579 0.8579 0.5139 6.4226 -7.0616)" class="st1" width="227.65" height="1.97"/>
								</g>
								<g>
									
										<rect x="-112.42" y="-7.49" transform="matrix(0.5177 -0.8556 0.8556 0.5177 6.2477 -1.934)" class="st1" width="227.65" height="1.97"/>
								</g>
								<g>
									
										<rect x="-107.97" y="-4.81" transform="matrix(0.5177 -0.8556 0.8556 0.5177 6.0939 3.1627)" class="st1" width="227.65" height="1.97"/>
								</g>
								<g>
									
										<rect x="-103.54" y="-2.13" transform="matrix(0.5177 -0.8556 0.8556 0.5177 5.9404 8.2497)" class="st1" width="227.65" height="1.97"/>
								</g>
								<g>
									
										<rect x="-99.47" y="0.33" transform="matrix(0.5177 -0.8556 0.8556 0.5177 5.7964 12.912)" class="st1" width="227.65" height="1.97"/>
								</g>
								<g>
									
										<rect x="-95.62" y="2.67" transform="matrix(0.5177 -0.8556 0.8556 0.5177 5.6554 17.333)" class="st1" width="227.65" height="1.97"/>
								</g>
								<g>
									
										<rect x="-91.19" y="5.34" transform="matrix(0.5177 -0.8556 0.8556 0.5177 5.5021 22.4197)" class="st1" width="227.65" height="1.97"/>
								</g>
								<g>
									
										<rect x="-86.74" y="8.03" transform="matrix(0.5177 -0.8556 0.8556 0.5177 5.3483 27.5165)" class="st1" width="227.65" height="1.97"/>
								</g>
								<g>
									
										<rect x="-82.31" y="10.72" transform="matrix(0.5177 -0.8556 0.8556 0.5177 5.1851 32.6028)" class="st1" width="227.65" height="1.97"/>
								</g>
								<g>
									
										<rect x="-77.87" y="13.4" transform="matrix(0.5177 -0.8556 0.8556 0.5177 5.0313 37.6995)" class="st1" width="227.65" height="1.97"/>
								</g>
								<g>
									
										<rect x="-73.44" y="16.08" transform="matrix(0.5177 -0.8556 0.8556 0.5177 4.878 42.7863)" class="st1" width="227.65" height="1.97"/>
								</g>
								<g>
									
										<rect x="-69" y="18.77" transform="matrix(0.5177 -0.8556 0.8556 0.5177 4.7144 47.8827)" class="st1" width="227.65" height="1.97"/>
								</g>
								<g>
									
										<rect x="-64.94" y="21.23" transform="matrix(0.5177 -0.8556 0.8556 0.5177 4.5707 52.5353)" class="st1" width="227.65" height="1.97"/>
								</g>
								<g>
									
										<rect x="-61.08" y="23.56" transform="matrix(0.5177 -0.8556 0.8556 0.5177 4.4393 56.9664)" class="st1" width="227.65" height="1.97"/>
								</g>
								<g>
									
										<rect x="-56.65" y="26.25" transform="matrix(0.5177 -0.8556 0.8556 0.5177 4.2762 62.0529)" class="st1" width="227.65" height="1.97"/>
								</g>
								<g>
									
										<rect x="-52.21" y="28.93" transform="matrix(0.5177 -0.8556 0.8556 0.5177 4.1226 67.1398)" class="st1" width="227.65" height="1.97"/>
								</g>
								<g>
									
										<rect x="-47.77" y="31.61" transform="matrix(0.5177 -0.8556 0.8556 0.5177 3.9689 72.2362)" class="st1" width="227.65" height="1.97"/>
								</g>
								<g>
									
										<rect x="-43.33" y="34.29" transform="matrix(0.5177 -0.8556 0.8556 0.5177 3.8155 77.3232)" class="st1" width="227.65" height="1.97"/>
								</g>
								<g>
									
										<rect x="-38.9" y="36.99" transform="matrix(0.5177 -0.8556 0.8556 0.5177 3.652 82.4193)" class="st1" width="227.65" height="1.97"/>
								</g>
								<g>
									
										<rect x="-34.46" y="39.67" transform="matrix(0.5177 -0.8556 0.8556 0.5177 3.4985 87.5062)" class="st1" width="227.65" height="1.97"/>
								</g>
								<g>
									
										<rect x="-30.4" y="42.12" transform="matrix(0.5177 -0.8556 0.8556 0.5177 3.3545 92.1686)" class="st1" width="227.65" height="1.97"/>
								</g>
								<g>
									
										<rect x="-26.55" y="44.46" transform="matrix(0.5177 -0.8556 0.8556 0.5177 3.2135 96.5897)" class="st1" width="227.65" height="1.97"/>
								</g>
								<g>
									
										<rect x="-22.11" y="47.14" transform="matrix(0.5177 -0.8556 0.8556 0.5177 3.0601 101.6764)" class="st1" width="227.65" height="1.97"/>
								</g>
								<g>
									
										<rect x="-17.67" y="49.82" transform="matrix(0.5177 -0.8556 0.8556 0.5177 2.9064 106.7731)" class="st1" width="227.65" height="1.97"/>
								</g>
								<g>
									
										<rect x="-13.23" y="52.5" transform="matrix(0.5177 -0.8556 0.8556 0.5177 2.7529 111.86)" class="st1" width="227.65" height="1.97"/>
								</g>
								<g>
									
										<rect x="-8.8" y="55.2" transform="matrix(0.5177 -0.8556 0.8556 0.5177 2.5894 116.9562)" class="st1" width="227.65" height="1.97"/>
								</g>
								<g>
									
										<rect x="-4.36" y="57.88" transform="matrix(0.5177 -0.8556 0.8556 0.5177 2.4359 122.0431)" class="st1" width="227.65" height="1.97"/>
								</g>
								<g>
									
										<rect x="0.08" y="60.56" transform="matrix(0.5177 -0.8556 0.8556 0.5177 2.2823 127.1397)" class="st1" width="227.65" height="1.97"/>
								</g>
								<g>
									
										<rect x="4.14" y="63.01" transform="matrix(0.5177 -0.8556 0.8556 0.5177 2.1385 131.7924)" class="st1" width="227.65" height="1.97"/>
								</g>
								<g>
									
										<rect x="8" y="65.35" transform="matrix(0.5177 -0.8556 0.8556 0.5177 1.9974 136.2231)" class="st1" width="227.65" height="1.97"/>
								</g>
								<g>
									
										<rect x="12.43" y="68.03" transform="matrix(0.5177 -0.8556 0.8556 0.5177 1.844 141.31)" class="st1" width="227.65" height="1.97"/>
								</g>
								<g>
									
										<rect x="16.86" y="70.72" transform="matrix(0.5177 -0.8556 0.8556 0.5177 1.6807 146.3963)" class="st1" width="227.65" height="1.97"/>
								</g>
								<g>
									
										<rect x="21.31" y="73.41" transform="matrix(0.5177 -0.8556 0.8556 0.5177 1.5269 151.4931)" class="st1" width="227.65" height="1.97"/>
								</g>
								<g>
									
										<rect x="25.74" y="76.09" transform="matrix(0.5177 -0.8556 0.8556 0.5177 1.3736 156.5798)" class="st1" width="227.65" height="1.97"/>
								</g>
								<g>
									
										<rect x="30.18" y="78.77" transform="matrix(0.5177 -0.8556 0.8556 0.5177 1.2197 161.6765)" class="st1" width="227.65" height="1.97"/>
								</g>
								<g>
									
										<rect x="34.61" y="81.46" transform="matrix(0.5177 -0.8556 0.8556 0.5177 1.0565 166.7628)" class="st1" width="227.65" height="1.97"/>
								</g>
								<g>
									
										<rect x="38.68" y="83.92" transform="matrix(0.5177 -0.8556 0.8556 0.5177 0.9124 171.4255)" class="st1" width="227.65" height="1.97"/>
								</g>
								<g>
									
										<rect x="42.53" y="86.25" transform="matrix(0.5177 -0.8556 0.8556 0.5177 0.7815 175.8466)" class="st1" width="227.65" height="1.97"/>
								</g>
								<g>
									
										<rect x="46.97" y="88.94" transform="matrix(0.5177 -0.8556 0.8556 0.5177 0.6178 180.943)" class="st1" width="227.65" height="1.97"/>
								</g>
								<g>
									
										<rect x="51.41" y="91.62" transform="matrix(0.5177 -0.8556 0.8556 0.5177 0.4645 186.0297)" class="st1" width="227.65" height="1.97"/>
								</g>
								<g>
									
										<rect x="55.84" y="94.3" transform="matrix(0.5177 -0.8556 0.8556 0.5177 0.3109 191.1166)" class="st1" width="227.65" height="1.97"/>
								</g>
								<g>
									
										<rect x="60.28" y="96.99" transform="matrix(0.5177 -0.8556 0.8556 0.5177 0.1474 196.2128)" class="st1" width="227.65" height="1.97"/>
								</g>
								<g>
									
										<rect x="64.71" y="99.67" transform="matrix(0.5177 -0.8556 0.8556 0.5177 -5.910901e-03 201.2997)" class="st1" width="227.65" height="1.97"/>
								</g>
								<g>
									
										<rect x="69.16" y="102.35" transform="matrix(0.5177 -0.8556 0.8556 0.5177 -0.1595 206.3963)" class="st1" width="227.65" height="1.97"/>
								</g>
							</g>
						</g>
					</g>
				</g>
				<g>
					<g>
						<path class="st1" d="M206.57,77.62c-0.46-0.89,0.09-2.35,0.33-3.53c0.18-0.9,0.57-1.76,0.92-2.81
							c-1.06-0.19-1.78-0.34-2.5-0.44c-3.93-0.54-4.55-1.46-2.77-5.13c1.57-3.24,3.41-6.37,5.38-9.39c1.12-1.71,1.45-3.26,1.08-5.29
							c-3.15-17.09,5.11-31.89,21.34-37.53c11.74-4.08,23.24-2.43,34.04,3.46c13.95,7.62,20.81,22.19,18.01,37.84
							c-1.33,7.45-4.87,13.92-9.49,19.81c-3.07,3.92-4.88,8.33-4.53,13.23c0.47,6.45,0.91,13,2.39,19.26
							c2.9,12.29,9.87,21.38,22.6,25c5.76,1.64,11.64,2,17.59,1.47c7.03-0.62,14.82,0.83,18.76,5.75c3.95,4.93,7.4,18.72,7.4,28.12
							c-57.55,0-122.49,0-180.04,0c1.12-7.98,3.36-15.58,7.89-22.34c5.84-8.72,14.01-12.55,24.47-11.53
							c6.29,0.62,12.5,0.04,18.5-1.97c10.29-3.45,16.61-10.86,19.99-20.92c1.13-3.38,1.81-6.92,2.76-10.62
							c-3.12,0.14-5.8,0.37-8.48,0.38c-9.84,0.01-12.63-2.74-12.87-12.51c-0.06-2.34-0.06-2.34-2.71-6.57 M223.3,56.36
							c6.35,2.91,12.78,5.95,19.3,8.8c2.93,1.28,5.99,2.26,9.05,3.2c8.68,2.65,16.94-0.64,21.52-8.48
							c7.25-12.4,4.69-24.85-7.12-34.54c-14.94-12.26-35.86-9.08-47.82,7.27c-2.55,3.49-4.53,7.24-4.93,11.65
							c-0.33,3.61,0.9,6.43,4.15,8.26c1.57,0.88,3.95,2.87,5.69,3.95L223.3,56.36z"/>
					</g>
					<g>
						<g>
							<defs>
								<path id="SVGID_00000038399318799588557780000017033221287433297814_" d="M223.3,56.36c6.35,2.91,12.78,5.95,19.3,8.8
									c2.93,1.28,5.99,2.26,9.05,3.2c8.68,2.65,16.94-0.64,21.52-8.48c7.25-12.4,4.69-24.85-7.12-34.54
									c-14.94-12.26-35.86-9.08-47.82,7.27c-2.55,3.49-4.53,7.24-4.93,11.65c-0.33,3.61,0.9,6.43,4.15,8.26
									c1.57,0.88,3.95,2.87,5.69,3.95L223.3,56.36z"/>
							</defs>
							<clipPath id="SVGID_00000183217529417762804730000012764162926744492169_">
								<use xlink:href="#SVGID_00000038399318799588557780000017033221287433297814_"  style="overflow:visible;"/>
							</clipPath>
							<g style="clip-path:url(#SVGID_00000183217529417762804730000012764162926744492169_);">
								<g>
									
										<rect x="354.06" y="-154.77" transform="matrix(0.8556 -0.5176 0.5176 0.8556 72.46 177.8626)" class="st1" width="1.97" height="227.64"/>
								</g>
								<g>
									
										<rect x="350.21" y="-152.44" transform="matrix(0.8556 -0.5176 0.5176 0.8556 70.6993 176.2046)" class="st1" width="1.97" height="227.64"/>
								</g>
								<g>
									
										<rect x="345.77" y="-149.75" transform="matrix(0.8556 -0.5176 0.5176 0.8556 68.666 174.2966)" class="st1" width="1.97" height="227.64"/>
								</g>
								<g>
									
										<rect x="341.33" y="-147.07" transform="matrix(0.8556 -0.5176 0.5176 0.8556 66.6361 172.3848)" class="st1" width="1.97" height="227.64"/>
								</g>
								<g>
									
										<rect x="336.89" y="-144.38" transform="matrix(0.8556 -0.5176 0.5176 0.8556 64.6029 170.4767)" class="st1" width="1.97" height="227.64"/>
								</g>
								<g>
									
										<rect x="332.46" y="-141.7" transform="matrix(0.8556 -0.5176 0.5176 0.8556 62.5773 168.5683)" class="st1" width="1.97" height="227.64"/>
								</g>
								<g>
									
										<rect x="328.02" y="-139.02" transform="matrix(0.8556 -0.5176 0.5176 0.8556 60.5477 166.6564)" class="st1" width="1.97" height="227.64"/>
								</g>
								<g>
									
										<rect x="323.58" y="-136.33" transform="matrix(0.8556 -0.5176 0.5176 0.8556 58.5142 164.7486)" class="st1" width="1.97" height="227.64"/>
								</g>
								<g>
									
										<rect x="319.52" y="-133.87" transform="matrix(0.8556 -0.5176 0.5176 0.8556 56.6555 163.0028)" class="st1" width="1.97" height="227.64"/>
								</g>
								<g>
									
										<rect x="315.67" y="-131.54" transform="matrix(0.8556 -0.5176 0.5176 0.8556 54.8947 161.3449)" class="st1" width="1.97" height="227.64"/>
								</g>
								<g>
									
										<rect x="311.23" y="-128.86" transform="matrix(0.8556 -0.5176 0.5176 0.8556 52.8651 159.433)" class="st1" width="1.97" height="227.64"/>
								</g>
								<g>
									
										<rect x="306.79" y="-126.17" transform="matrix(0.8556 -0.5176 0.5176 0.8556 50.8319 157.5248)" class="st1" width="1.97" height="227.64"/>
								</g>
								<g>
									
										<rect x="302.36" y="-123.5" transform="matrix(0.8579 -0.5138 0.5138 0.8579 48.0789 154.4832)" class="st1" width="1.97" height="227.64"/>
								</g>
								<g>
									
										<rect x="297.92" y="-120.81" transform="matrix(0.8556 -0.5176 0.5176 0.8556 46.7765 153.7047)" class="st1" width="1.97" height="227.64"/>
								</g>
								<g>
									
										<rect x="293.48" y="-118.12" transform="matrix(0.8556 -0.5176 0.5176 0.8556 44.7433 151.7966)" class="st1" width="1.97" height="227.64"/>
								</g>
								<g>
									
										<rect x="289.05" y="-115.44" transform="matrix(0.8556 -0.5176 0.5176 0.8556 42.7175 149.8884)" class="st1" width="1.97" height="227.64"/>
								</g>
								<g>
									
										<rect x="284.99" y="-112.98" transform="matrix(0.8556 -0.5176 0.5176 0.8556 40.8585 148.1428)" class="st1" width="1.97" height="227.64"/>
								</g>
								<g>
									
										<rect x="281.13" y="-110.65" transform="matrix(0.8556 -0.5176 0.5176 0.8556 39.0937 146.4814)" class="st1" width="1.97" height="227.64"/>
								</g>
								<g>
									
										<rect x="276.7" y="-107.97" transform="matrix(0.8556 -0.5176 0.5176 0.8556 37.0644 144.5769)" class="st1" width="1.97" height="227.64"/>
								</g>
								<g>
									
										<rect x="272.26" y="-105.28" transform="matrix(0.8556 -0.5176 0.5176 0.8556 35.0349 142.6649)" class="st1" width="1.97" height="227.64"/>
								</g>
								<g>
									
										<rect x="267.82" y="-102.59" transform="matrix(0.8556 -0.5176 0.5176 0.8556 33.0014 140.757)" class="st1" width="1.97" height="227.64"/>
								</g>
								<g>
									
										<rect x="263.38" y="-99.91" transform="matrix(0.8556 -0.5176 0.5176 0.8556 30.9717 138.845)" class="st1" width="1.97" height="227.64"/>
								</g>
								<g>
									
										<rect x="258.95" y="-97.24" transform="matrix(0.8556 -0.5176 0.5176 0.8556 28.9462 136.9367)" class="st1" width="1.97" height="227.64"/>
								</g>
								<g>
									
										<rect x="254.51" y="-94.54" transform="matrix(0.8556 -0.5176 0.5176 0.8556 26.913 135.0287)" class="st1" width="1.97" height="227.64"/>
								</g>
								<g>
									
										<rect x="250.45" y="-92.09" transform="matrix(0.8556 -0.5176 0.5176 0.8556 25.054 133.2831)" class="st1" width="1.97" height="227.64"/>
								</g>
								<g>
									
										<rect x="246.6" y="-89.76" transform="matrix(0.8556 -0.5176 0.5176 0.8556 23.293 131.6253)" class="st1" width="1.97" height="227.64"/>
								</g>
								<g>
									
										<rect x="242.16" y="-87.08" transform="matrix(0.8556 -0.5176 0.5176 0.8556 21.2636 129.7133)" class="st1" width="1.97" height="227.64"/>
								</g>
								<g>
									
										<rect x="237.72" y="-84.39" transform="matrix(0.8556 -0.5176 0.5176 0.8556 19.2304 127.8052)" class="st1" width="1.97" height="227.64"/>
								</g>
								<g>
									
										<rect x="233.28" y="-81.7" transform="matrix(0.8556 -0.5176 0.5176 0.8556 17.2004 125.8933)" class="st1" width="1.97" height="227.64"/>
								</g>
								<g>
									
										<rect x="228.85" y="-79.02" transform="matrix(0.8556 -0.5176 0.5176 0.8556 15.1711 123.989)" class="st1" width="1.97" height="227.64"/>
								</g>
								<g>
									
										<rect x="224.41" y="-76.34" transform="matrix(0.8556 -0.5176 0.5176 0.8556 13.1417 122.077)" class="st1" width="1.97" height="227.64"/>
								</g>
								<g>
									
										<rect x="219.96" y="-73.65" transform="matrix(0.8556 -0.5176 0.5176 0.8556 11.1121 120.165)" class="st1" width="1.97" height="227.64"/>
								</g>
								<g>
									
										<rect x="215.91" y="-71.19" transform="matrix(0.8556 -0.5176 0.5176 0.8556 9.253 118.4194)" class="st1" width="1.97" height="227.64"/>
								</g>
								<g>
									
										<rect x="212.05" y="-68.87" transform="matrix(0.8556 -0.5176 0.5176 0.8556 7.4921 116.7616)" class="st1" width="1.97" height="227.64"/>
								</g>
								<g>
									
										<rect x="207.62" y="-66.18" transform="matrix(0.8556 -0.5176 0.5176 0.8556 5.459 114.8535)" class="st1" width="1.97" height="227.64"/>
								</g>
								<g>
									
										<rect x="203.18" y="-63.5" transform="matrix(0.8556 -0.5176 0.5176 0.8556 3.4333 112.9452)" class="st1" width="1.97" height="227.64"/>
								</g>
								<g>
									
										<rect x="198.75" y="-60.81" transform="matrix(0.8556 -0.5176 0.5176 0.8556 1.4001 111.0372)" class="st1" width="1.97" height="227.64"/>
								</g>
								<g>
									
										<rect x="194.31" y="-58.13" transform="matrix(0.8556 -0.5176 0.5176 0.8556 -0.6298 109.1253)" class="st1" width="1.97" height="227.64"/>
								</g>
								<g>
									
										<rect x="189.86" y="-55.44" transform="matrix(0.8556 -0.5176 0.5176 0.8556 -2.6594 107.2133)" class="st1" width="1.97" height="227.64"/>
								</g>
								<g>
									
										<rect x="185.44" y="-52.76" transform="matrix(0.8556 -0.5176 0.5176 0.8556 -4.6886 105.309)" class="st1" width="1.97" height="227.64"/>
								</g>
								<g>
									
										<rect x="181.38" y="-50.3" transform="matrix(0.8556 -0.5176 0.5176 0.8556 -6.5473 103.5632)" class="st1" width="1.97" height="227.64"/>
								</g>
								<g>
									
										<rect x="177.52" y="-47.97" transform="matrix(0.8556 -0.5176 0.5176 0.8556 -8.3125 101.9018)" class="st1" width="1.97" height="227.64"/>
								</g>
								<g>
									
										<rect x="173.08" y="-45.29" transform="matrix(0.8556 -0.5176 0.5176 0.8556 -10.3381 99.9936)" class="st1" width="1.97" height="227.64"/>
								</g>
								<g>
									
										<rect x="168.65" y="-42.6" transform="matrix(0.8556 -0.5176 0.5176 0.8556 -12.3712 98.0855)" class="st1" width="1.97" height="227.64"/>
								</g>
								<g>
									
										<rect x="164.2" y="-39.92" transform="matrix(0.8556 -0.5176 0.5176 0.8556 -14.4009 96.1736)" class="st1" width="1.97" height="227.64"/>
								</g>
								<g>
									
										<rect x="159.77" y="-37.23" transform="matrix(0.8556 -0.5176 0.5176 0.8556 -16.4344 94.2656)" class="st1" width="1.97" height="227.64"/>
								</g>
								<g>
									
										<rect x="155.33" y="-34.55" transform="matrix(0.8556 -0.5176 0.5176 0.8556 -18.46 92.3572)" class="st1" width="1.97" height="227.64"/>
								</g>
								<g>
									
										<rect x="150.89" y="-31.87" transform="matrix(0.8556 -0.5176 0.5176 0.8556 -20.4895 90.4453)" class="st1" width="1.97" height="227.64"/>
								</g>
								<g>
									
										<rect x="146.83" y="-29.41" transform="matrix(0.8556 -0.5176 0.5176 0.8556 -22.3482 88.6996)" class="st1" width="1.97" height="227.64"/>
								</g>
								<g>
									
										<rect x="142.98" y="-27.08" transform="matrix(0.8556 -0.5176 0.5176 0.8556 -24.1094 87.0418)" class="st1" width="1.97" height="227.64"/>
								</g>
								<g>
									
										<rect x="138.54" y="-24.39" transform="matrix(0.8556 -0.5176 0.5176 0.8556 -26.1427 85.1338)" class="st1" width="1.97" height="227.64"/>
								</g>
								<g>
									
										<rect x="134.1" y="-21.71" transform="matrix(0.8556 -0.5176 0.5176 0.8556 -28.1721 83.2219)" class="st1" width="1.97" height="227.64"/>
								</g>
								<g>
									
										<rect x="129.67" y="-19.02" transform="matrix(0.8556 -0.5176 0.5176 0.8556 -30.2053 81.3138)" class="st1" width="1.97" height="227.64"/>
								</g>
								<g>
									
										<rect x="125.23" y="-16.34" transform="matrix(0.8556 -0.5176 0.5176 0.8556 -32.2314 79.4055)" class="st1" width="1.97" height="227.64"/>
								</g>
								<g>
									
										<rect x="120.79" y="-13.66" transform="matrix(0.8556 -0.5176 0.5176 0.8556 -34.2609 77.4936)" class="st1" width="1.97" height="227.64"/>
								</g>
								<g>
									
										<rect x="116.35" y="-10.97" transform="matrix(0.8556 -0.5176 0.5176 0.8556 -36.294 75.5856)" class="st1" width="1.97" height="227.64"/>
								</g>
							</g>
						</g>
					</g>
				</g>
				<g>
					<g>
						<g>
							<path class="st1" d="M197.54,79.89L197.54,79.89c-0.38,0.39-1,0.41-1.39,0.03l-53.13-49.86l1.37-1.42l53.13,49.86
								C197.9,78.87,197.92,79.5,197.54,79.89z"/>
						</g>
					</g>
					<g>
						<g>
							<path class="st1" d="M194.22,83.28L194.22,83.28c-0.38,0.39-1,0.41-1.39,0.03L139.7,33.45l1.37-1.42l53.13,49.86
								C194.58,82.26,194.6,82.89,194.22,83.28z"/>
						</g>
					</g>
					<g>
						<g>
							<path class="st1" d="M191.07,86.5L191.07,86.5c-0.38,0.39-1,0.41-1.39,0.03l-53.13-49.86l1.37-1.42l53.13,49.86
								C191.43,85.48,191.44,86.11,191.07,86.5z"/>
						</g>
					</g>
					<g>
						<g>
							<path class="st1" d="M187.44,90.2L187.44,90.2c-0.38,0.39-1,0.41-1.39,0.03l-53.13-49.86l1.37-1.42l53.12,49.86
								C187.8,89.19,187.81,89.81,187.44,90.2z"/>
						</g>
					</g>
					<g>
						<g>
							<path class="st1" d="M183.81,93.91L183.81,93.91c-0.38,0.39-1,0.41-1.39,0.03l-53.13-49.86l1.37-1.42l53.13,49.86
								C184.17,92.89,184.19,93.52,183.81,93.91z"/>
						</g>
					</g>
					<g>
						<g>
							<path class="st1" d="M180.53,97.25L180.53,97.25c-0.37,0.4-1,0.42-1.39,0.04L125.3,48.15l1.35-1.44l53.84,49.14
								C180.89,96.23,180.91,96.85,180.53,97.25z"/>
						</g>
					</g>
					<g>
						<g>
							<path class="st1" d="M176.55,101.32L176.55,101.32c-0.38,0.39-1,0.41-1.39,0.03l-53.13-49.86l1.37-1.42l53.13,49.86
								C176.91,100.3,176.93,100.92,176.55,101.32z"/>
						</g>
					</g>
					<g>
						<g>
							<path class="st1" d="M172.92,105.02L172.92,105.02c-0.38,0.39-1,0.41-1.39,0.03L118.4,55.19l1.37-1.42l53.13,49.86
								C173.29,104,173.3,104.63,172.92,105.02z"/>
						</g>
					</g>
					<g>
						<g>
							<path class="st1" d="M169.29,108.73L169.29,108.73c-0.38,0.39-1,0.41-1.39,0.03L114.77,58.9l1.37-1.42l53.13,49.86
								C169.66,107.71,169.67,108.33,169.29,108.73z"/>
						</g>
					</g>
					<g>
						<g>
							<path class="st1" d="M165.97,112.12L165.97,112.12c-0.38,0.39-1,0.41-1.39,0.03l-53.13-49.86l1.37-1.42l53.13,49.86
								C166.34,111.1,166.35,111.72,165.97,112.12z"/>
						</g>
					</g>
					<g>
						<g>
							<path class="st1" d="M162.82,115.33L162.82,115.33c-0.38,0.39-1,0.41-1.39,0.03L108.3,65.5l1.37-1.42l53.13,49.86
								C163.18,114.32,163.19,114.94,162.82,115.33z"/>
						</g>
					</g>
				</g>
			</g>
		</g>
	</g>
</g>
</svg>
