<?xml version="1.0" encoding="UTF-8"?>
<svg id="uuid-52254bfb-9eea-4338-af04-a6992cfa566f" data-name="Layer 1" xmlns="http://www.w3.org/2000/svg" viewBox="0 0 200 200">
  <defs>
    <style>
      .uuid-0db82a2c-f7cd-449e-915d-0a15167461b1 {
        fill: #fff;
      }

      .uuid-53607830-0b81-4c42-b60a-f0978c1a1c05 {
        fill: #f25353;
      }
    </style>
  </defs>
  <circle class="uuid-53607830-0b81-4c42-b60a-f0978c1a1c05" cx="101.8" cy="99.45" r="96.7"/>
  <g>
    <path class="uuid-0db82a2c-f7cd-449e-915d-0a15167461b1" d="m36.32,97.26c0,12,3.13,23.71,9.09,34.03l-9.66,35.27,36.1-9.46c9.95,5.42,21.14,8.28,32.54,8.29h.03c37.53,0,68.07-30.54,68.09-68.07,0-18.19-7.07-35.29-19.93-48.16-12.86-12.87-29.95-19.95-48.16-19.96-37.53,0-68.08,30.53-68.09,68.06m21.49,32.34l-1.35-2.14c-5.67-9.01-8.66-19.42-8.65-30.11.01-31.19,25.4-56.57,56.62-56.57,15.12,0,29.32,5.9,40.01,16.59,10.69,10.69,16.57,24.91,16.56,40.03-.01,31.2-25.4,56.58-56.59,56.58h-.02c-10.16,0-20.12-2.73-28.8-7.89l-2.07-1.23-21.42,5.62,5.72-20.88Zm46.6,35.78h0s.18,0,.18,0"/>
    <path class="uuid-0db82a2c-f7cd-449e-915d-0a15167461b1" d="m87.39,68.73c-1.27-2.83-2.62-2.89-3.83-2.94-.99-.04-2.13-.04-3.26-.04s-2.98.43-4.54,2.13c-1.56,1.7-5.96,5.82-5.96,14.19s6.1,16.46,6.95,17.6c.85,1.13,11.77,18.86,29.06,25.68,14.37,5.67,17.3,4.54,20.42,4.26,3.12-.28,10.07-4.11,11.48-8.09s1.42-7.38.99-8.09c-.43-.71-1.56-1.14-3.26-1.99-1.7-.85-10.07-4.97-11.63-5.53-1.56-.57-2.69-.85-3.83.85-1.13,1.7-4.39,5.53-5.38,6.67-.99,1.14-1.99,1.28-3.69.43-1.7-.85-7.18-2.65-13.68-8.44-5.06-4.51-8.47-10.08-9.46-11.78-.99-1.7-.11-2.62.75-3.47.76-.76,1.7-1.99,2.55-2.98.85-.99,1.13-1.7,1.7-2.84.57-1.14.28-2.13-.14-2.98-.43-.85-3.73-9.26-5.24-12.63"/>
  </g>
</svg>