<?xml version="1.0" encoding="UTF-8"?>
<svg id="uuid-dbad0ede-cc1f-4fbd-8956-be17c3255237" data-name="Layer 1" xmlns="http://www.w3.org/2000/svg" viewBox="0 0 200 200">
  <defs>
    <style>
      .uuid-573330ee-583a-4fba-a22f-a7f970297a2b {
        fill: #fff;
      }

      .uuid-71d75d67-31ee-4637-b634-45fb8fc31092 {
        fill: #f25353;
      }
    </style>
  </defs>
  <circle class="uuid-71d75d67-31ee-4637-b634-45fb8fc31092" cx="101.8" cy="99.45" r="96.7"/>
  <g>
    <path class="uuid-573330ee-583a-4fba-a22f-a7f970297a2b" d="m45.43,77.99h24.34v79.1h-24.34v-79.1Zm12.01-39.08c7.84,0,14.22,6.37,14.22,14.23s-6.37,14.22-14.22,14.22-14.22-6.37-14.22-14.22,6.35-14.23,14.22-14.23"/>
    <path class="uuid-573330ee-583a-4fba-a22f-a7f970297a2b" d="m85.21,77.99h23.4v10.76h.33c3.27-6.23,11.26-12.78,23.17-12.78,24.8,0,29.38,16.39,29.38,37.7v43.41h-24.34v-38.38c0-9.15-.16-20.93-12.82-20.93s-14.8,9.98-14.8,20.27v39.04h-24.34v-79.1Z"/>
  </g>
</svg>