<?xml version="1.0" encoding="UTF-8"?>
<svg id="uuid-da4636f2-a380-4ea8-b27e-538dc2e1f3a5" data-name="Layer 1" xmlns="http://www.w3.org/2000/svg" viewBox="0 0 200 200">
  <defs>
    <style>
      .uuid-37e44cbe-d3a9-4681-ad45-6cbfc569d415 {
        fill: #fff;
      }

      .uuid-7c4f17c4-9224-4b5e-846b-bfa388e51126 {
        fill: #f25353;
      }
    </style>
  </defs>
  <circle class="uuid-7c4f17c4-9224-4b5e-846b-bfa388e51126" cx="101.8" cy="99.45" r="96.7"/>
  <g>
    <path class="uuid-37e44cbe-d3a9-4681-ad45-6cbfc569d415" d="m137.27,38.5h-70.14c-13.84,0-25.05,11.22-25.05,25.05v70.14c0,13.84,11.22,25.05,25.05,25.05h70.14c13.84,0,25.05-11.22,25.05-25.05V63.55c0-13.84-11.22-25.05-25.05-25.05Zm0,110.23h-70.14c-8.27,0-15.03-6.76-15.03-15.03V63.55c0-8.27,6.76-15.03,15.03-15.03h70.14c8.27,0,15.03,6.76,15.03,15.03v70.14c0,8.27-6.76,15.03-15.03,15.03Z"/>
    <path class="uuid-37e44cbe-d3a9-4681-ad45-6cbfc569d415" d="m101.92,61.8c-19.34,0-35.07,15.73-35.07,35.07s15.73,35.07,35.07,35.07,35.07-15.73,35.07-35.07-15.73-35.07-35.07-35.07Zm0,60.12c-13.83,0-25.05-11.22-25.05-25.05s11.22-25.05,25.05-25.05,25.05,11.22,25.05,25.05-11.22,25.05-25.05,25.05Z"/>
    <circle class="uuid-37e44cbe-d3a9-4681-ad45-6cbfc569d415" cx="136.99" cy="61.8" r="5.01"/>
  </g>
</svg>