<?xml version="1.0" encoding="UTF-8"?>
<svg id="uuid-eed1ad9f-e9a3-48aa-9a02-7722cc77ebdb" data-name="Capa 1" xmlns="http://www.w3.org/2000/svg" viewBox="0 0 163 112">
  <defs>
    <style>
      .uuid-97630245-6a98-4d1e-8b29-189150ff9a8f {
        fill: #fff;
      }
    </style>
  </defs>
  <g id="uuid-eb40cc9b-11c7-4264-92dd-2c1769eb449e" data-name="IAZPKi">
    <path class="uuid-97630245-6a98-4d1e-8b29-189150ff9a8f" d="m82.09,9.04c20.8,0,41.59,0,62.39,0,4.64,0,7.86,2.21,9.1,6.32.28.94.4,1.96.41,2.95.02,25.79.02,51.59.01,77.38,0,5.62-3.76,9.26-9.52,9.26-15.6,0-31.19,0-46.79,0-26.03,0-52.07,0-78.1,0-3.82,0-6.91-1.37-8.6-4.94-.59-1.26-.93-2.76-.94-4.15-.05-25.91-.05-51.83-.03-77.74,0-5.36,3.77-9.07,9.21-9.08,15.48-.03,30.95,0,46.43,0,5.48,0,10.96,0,16.44,0Zm60.61,6.56H21.31c.74.65,1.29,1.14,1.85,1.62,19.1,16.49,38.21,32.97,57.31,49.46,1.24,1.07,1.8,1.07,3,.04,18.38-15.86,36.76-31.71,55.14-47.57,1.29-1.11,2.57-2.24,4.08-3.55Zm-77.21,44.62c-14.72,12.7-29.37,25.34-44.24,38.17h121.48c-14.88-12.84-29.53-25.49-44.2-38.15-.31.23-.54.39-.75.57-3.72,3.21-7.44,6.43-11.16,9.65-2.96,2.57-6.24,2.6-9.18.06-1.45-1.25-2.9-2.51-4.36-3.77-2.51-2.16-5.02-4.32-7.59-6.54ZM16.59,18v77.98c15.13-13.05,30.1-25.97,45.18-38.99-15.09-13.02-30.06-25.94-45.18-38.99Zm130.86-.03c-15.18,13.1-30.17,26.04-45.21,39.02,15.13,13.06,30.09,25.97,45.21,39.02V17.97Z"/>
  </g>
</svg>