<?xml version="1.0" encoding="UTF-8"?>
<svg id="photoshop" xmlns="http://www.w3.org/2000/svg" viewBox="0 0 30 30">
  <defs>
    <style>
      .cls-1 {
        fill: #fff;
      }
    </style>
  </defs>
  <path class="cls-1" d="m14.94,27.72c-2.8,0-5.6-.05-8.39.02-2.35.05-4.41-1.86-4.39-4.33.04-4.92.02-9.85.02-14.77,0-.59-.02-1.18,0-1.78.09-2.23,1.85-3.98,4.08-4.02,1.78-.04,3.56-.02,5.34-.03,3.77,0,7.54-.01,11.31-.01.76,0,1.52.03,2.23.35,1.53.7,2.47,1.84,2.55,3.55.07,1.42.03,2.84.03,4.26,0,.83.02,1.66.02,2.48.01,2.63.03,5.25.03,7.88,0,.85-.03,1.7-.08,2.55-.13,2.18-1.8,3.8-3.99,3.84-2.42.04-4.84.01-7.26.02-.5,0-1,0-1.49,0,0,0,0,0,0,0Zm-4.8-10.81c.66,0,1.22-.01,1.78,0,.78.02,1.5-.19,2.17-.57,1.43-.79,2.2-2.5,1.9-4.18-.29-1.61-1.64-3.05-3.22-3.18-1.63-.13-3.27-.06-4.9-.07-.04,0-.08.04-.12.07-.15.74-.11,10.99.04,11.51h2.34v-3.58Zm13.11-2.77c0-.69,0-1.27,0-1.85,0-.26-.16-.38-.38-.45-1.35-.42-2.7-.52-4.03.03-1.02.42-1.65,1.45-1.58,2.54.07,1.23.81,1.98,1.88,2.44.5.22,1.02.37,1.52.6.47.22.69.57.59.86-.15.41-.51.44-.88.47-.8.06-1.55-.13-2.3-.35-.23-.07-.48-.09-.77-.15,0,.58.02,1.05,0,1.52-.02.38.14.58.49.66.62.14,1.24.33,1.87.39,1.06.09,2.07-.12,2.96-.76,1.14-.82,1.75-2.83.13-4.07-.5-.38-1.1-.63-1.67-.92-.25-.13-.53-.2-.79-.31-.33-.14-.58-.37-.51-.76.07-.36.41-.44.71-.48.68-.1,1.32.08,1.95.29.24.08.47.18.82.31Z"/>
  <path class="cls-1" d="m10.18,11.07c.67,0,1.29-.06,1.89.01.93.11,1.55.9,1.54,1.83,0,.91-.66,1.72-1.56,1.83-.6.07-1.22.01-1.87.01v-3.69Z"/>
</svg>