<?xml version="1.0" encoding="utf-8"?>
<!-- Generator: Adobe Illustrator 27.3.1, SVG Export Plug-In . SVG Version: 6.00 Build 0)  -->
<svg version="1.1" id="Layer_1" xmlns="http://www.w3.org/2000/svg" xmlns:xlink="http://www.w3.org/1999/xlink" x="0px" y="0px"
	 viewBox="0 0 400 320" style="enable-background:new 0 0 400 320;" xml:space="preserve">
<style type="text/css">
	.st0{fill:#E75653;}
	.st1{fill:none;stroke:#000000;}
	.st2{fill:#FFFFFF;}
	.st3{fill:#F9F9F9;}
	.st4{fill:#BC4646;}
	.st5{opacity:0.63;enable-background:new    ;}
</style>
<g>
	<path class="st2" d="M46.6,288.4c0,4.2-0.6,7.6-1.8,10.3c-1.2,2.7-2.7,4.8-4.5,6.3c-1.8,1.5-3.8,2.6-5.9,3.3
		c-2.1,0.6-4.1,0.9-6,0.9H11.4v-78.1h15.1c2.1,0,4.1,0.3,6.2,0.9c2.1,0.6,4,1.7,5.7,3.1c1.7,1.4,3.1,3.3,4.2,5.7
		c1.1,2.4,1.7,5.3,1.7,8.8c0,2.8-0.4,5.2-1.1,7.3c-0.7,2.1-1.6,3.8-2.7,5.3c-1.1,1.5-2.4,2.6-3.8,3.5c-1.4,0.9-2.8,1.5-4.2,2v0.2
		c1.4,0.2,2.9,0.8,4.6,1.6c1.6,0.8,3.2,2.1,4.6,3.7c1.4,1.6,2.6,3.7,3.6,6.2C46.2,282,46.6,285,46.6,288.4z M41.8,249.9
		c0-3.2-0.4-5.8-1.3-7.9c-0.9-2.1-2-3.8-3.5-5.1c-1.4-1.3-3.1-2.2-5-2.7c-1.9-0.6-3.8-0.8-5.9-0.8H13.8V267h12.7
		c1.8,0,3.7-0.3,5.5-1c1.8-0.7,3.5-1.7,5-3c1.5-1.4,2.6-3.1,3.5-5.3C41.3,255.5,41.8,253,41.8,249.9z M44.3,288.8
		c0-3.5-0.5-6.5-1.5-9c-1-2.5-2.3-4.5-3.8-6.1s-3.2-2.7-5.1-3.4c-1.8-0.7-3.6-1-5.4-1H13.8v37.8h14c2.4,0,4.6-0.3,6.7-1
		s3.8-1.8,5.2-3.3c1.5-1.5,2.6-3.4,3.4-5.7C43.9,294.8,44.3,292,44.3,288.8z"/>
	<path class="st2" d="M61.4,309.3v-78.1h28.1v2.2H63.8v34.3H88v2.2H63.8v37.2h26.5v2.2H61.4z"/>
	<path class="st2" d="M136.2,309.3l-16.4-39.4h-12.3v39.4H105v-78.1h15.3c1.9,0,3.9,0.3,6,0.8c2.1,0.6,4.1,1.5,5.8,3
		c1.8,1.4,3.2,3.4,4.4,5.8c1.2,2.5,1.8,5.6,1.8,9.4c0,3.6-0.5,6.6-1.5,9.1s-2.3,4.5-3.8,6c-1.5,1.5-3.3,2.7-5.2,3.4
		c-1.9,0.7-3.8,1-5.6,1l16.6,39.5H136.2z M136.1,250.3c0-3.2-0.5-5.9-1.4-8.1c-0.9-2.2-2.1-3.9-3.6-5.2c-1.5-1.3-3.3-2.2-5.2-2.8
		c-2-0.6-4-0.8-6.1-0.8h-12.3v34.3h13.1c5.1,0,8.9-1.6,11.6-4.7C134.7,259.8,136.1,255.6,136.1,250.3z"/>
	<path class="st2" d="M153.5,309.3v-78.1h2.4v75.9h22.8v2.2H153.5z"/>
	<path class="st2" d="M216.1,287h-27.5l-6,22.3h-2.4l20.2-78.1h4.2l19.5,78.1h-2.4L216.1,287z M189.2,284.8h26.4l-12.8-51.9h-0.4
		L189.2,284.8z"/>
	<path class="st2" d="M270.8,309.3l-32.9-75.2h-0.2v75.2h-2.4v-78.1h4l32.7,75.1h0.2v-75.1h2.4v78.1H270.8z"/>
	<path class="st2" d="M293.3,270.1c0,5.7,0.5,11,1.5,15.7c1,4.7,2.5,8.7,4.5,12.1c2,3.4,4.4,6,7.3,7.8c2.9,1.8,6.2,2.8,10,2.8
		c5.8,0,10.5-1.8,14.2-5.3v-31.9h-13.1v-2.2h15.5v35.1c-1.8,1.8-4.2,3.4-7.1,4.6c-2.9,1.2-6.1,1.9-9.6,1.9c-4.1,0-7.8-0.9-10.9-2.8
		c-3.2-1.9-5.8-4.6-8-8.1c-2.2-3.5-3.9-7.8-5-12.8c-1.1-5-1.7-10.6-1.7-16.9c0-5.8,0.5-11.2,1.6-16.2c1.1-5,2.6-9.3,4.7-12.9
		c2.1-3.6,4.6-6.5,7.7-8.5c3-2.1,6.6-3.1,10.6-3.1c2.9,0,5.9,0.8,9,2.3c3,1.5,5.6,4.2,7.6,7.9l-2,1.2c-1.8-3.3-4.1-5.7-6.7-7.1
		c-2.6-1.4-5.2-2.1-7.9-2.1c-3.8,0-7,1-9.8,3c-2.8,2-5.1,4.8-6.9,8.2c-1.8,3.5-3.2,7.5-4.1,12.2
		C293.7,259.7,293.3,264.8,293.3,270.1z"/>
	<path class="st2" d="M379,287h-27.5l-6,22.3h-2.4l20.2-78.1h4.2l19.5,78.1h-2.4L379,287z M352,284.8h26.4l-12.8-51.9h-0.4
		L352,284.8z"/>
</g>
<g>
	<polygon class="st2" points="148.3,8.3 116.9,88.9 116.9,8.3 75.2,8.3 75.2,196.4 116.9,196.4 190.1,8.3 	"/>
	<rect x="12.5" y="8.3" class="st2" width="41.8" height="188"/>
	<polygon class="st2" points="138.6,196.4 180.4,196.4 211.7,115.8 211.7,196.4 253.5,196.4 253.5,8.3 211.7,8.3 	"/>
	<polygon class="st2" points="385.1,194.3 385.1,8.3 343.3,8.3 343.3,86.9 312.8,8.3 271,8.3 271,196.4 312.8,196.4 312.8,115.8 
		343.3,194.3 343.3,196.4 344.1,196.4 385.1,196.4 385.9,196.4 	"/>
</g>
</svg>
