<?xml version="1.0" encoding="UTF-8"?>
<svg id="github" xmlns="http://www.w3.org/2000/svg" viewBox="0 0 30 30">
  <defs>
    <style>
      .cls-1 {
        fill: #fff;
      }
    </style>
  </defs>
  <path class="cls-1" d="m12.72,20.55c-.43.42-.57.94-.72,1.47-.01.04-.05.1-.09.11-.59.19-1.19.33-1.81.18-.61-.14-1.06-.51-1.39-1.01-.28-.44-.62-.81-1.04-1.11-.4-.28-.84-.33-1.3-.28-.25.02-.32.21-.15.39.12.13.25.25.39.35.58.39.98.94,1.25,1.57.24.57.6,1.01,1.15,1.31.59.32,1.22.39,1.87.37.31,0,.61-.05.92-.08.05,0,.09,0,.2,0,0,.47,0,.92,0,1.37,0,.27,0,.53-.02.8-.03.34-.28.56-.61.5-.33-.06-.66-.17-.98-.31-3.58-1.57-5.97-4.21-6.99-7.98-.79-2.91-.44-5.73,1-8.4,1.78-3.28,4.52-5.31,8.15-6.1,2.79-.61,5.48-.22,8.03,1.12,2.66,1.4,4.56,3.47,5.63,6.27,1.08,2.83,1.07,5.68-.06,8.49-1.32,3.31-3.74,5.52-7.05,6.8-.17.06-.35.1-.53.1-.33,0-.51-.15-.52-.47-.03-.56-.03-1.12-.02-1.67.01-.8.08-1.61-.06-2.4-.09-.52-.26-1-.68-1.4.36-.06.7-.12,1.03-.18,1.38-.24,2.55-.84,3.41-1.97.54-.71.77-1.55.89-2.41.11-.81.16-1.63-.03-2.44-.17-.71-.45-1.36-.94-1.92-.09-.11-.11-.2-.08-.34.22-.92.22-1.84-.12-2.74-.08-.2-.2-.28-.41-.27-.76.04-1.43.32-2.08.67-.3.16-.58.34-.88.5-.05.03-.13.04-.19.04-.23-.04-.45-.1-.68-.13-.58-.07-1.17-.14-1.75-.2-.9-.09-1.79.03-2.67.19-.23.04-.47.1-.7.14-.08.01-.17-.03-.24-.07-.81-.52-1.66-.96-2.63-1.1-.02,0-.04,0-.06-.01-.41-.06-.49-.01-.61.38-.27.85-.31,1.7-.07,2.56.05.18.02.31-.1.45-.68.83-1.05,1.78-1.07,2.87-.01,1.1.13,2.16.61,3.16.62,1.29,1.67,2.06,3.01,2.47.55.17,1.12.24,1.68.35.03,0,.06.01.13.03Z"/>
  <path class="cls-1" d="m3.49,15.87c.07.01.09.03.09.08,0,.06-.04.06-.08.06-.05,0-.08-.03-.07-.07,0-.03.04-.05.05-.07Z"/>
  <path class="cls-1" d="m3.12,15.82c.07,0,.09.04.09.09,0,.02-.03.05-.05.05-.05,0-.1-.02-.1-.08,0-.02.04-.04.06-.06Z"/>
  <path class="cls-1" d="m3.87,15.82s.05.07.05.09c-.01.03-.04.05-.06.06-.02,0-.06-.04-.06-.05,0-.03.04-.05.07-.09Z"/>
  <path class="cls-1" d="m2.68,15.46s-.06.05-.07.05c-.03-.02-.06-.05-.08-.08.02-.01.04-.04.05-.04.03.01.06.04.1.07Z"/>
  <path class="cls-1" d="m2.73,15.69c.06-.04.11-.06.14,0,.01.02-.01.06-.02.09-.04-.03-.08-.05-.12-.08Z"/>
  <path class="cls-1" d="m2.41,15.12s.05.06.05.08c0,.02-.02.04-.03.06-.02-.02-.04-.04-.05-.06,0-.02.01-.04.03-.08Z"/>
</svg>