<?xml version="1.0" encoding="UTF-8"?>
<svg id="aftereffects" xmlns="http://www.w3.org/2000/svg" viewBox="0 0 30 30">
  <defs>
    <style>
      .cls-1 {
        fill: #fff;
      }
    </style>
  </defs>
  <path class="cls-1" d="m14.97,27.6c-2.78,0-5.57-.04-8.35.01-1.55.03-3.31-.91-3.99-2.64-.17-.43-.27-.91-.28-1.37-.03-1.58-.01-3.15-.01-4.73,0-3.93.05-7.86-.02-11.8-.04-2.07,1.76-4.19,4.17-4.19,5.66.01,11.32,0,16.98,0,1.64,0,2.91.72,3.74,2.14.34.58.51,1.21.51,1.89,0,1.25,0,2.5,0,3.74,0,3.3.02,6.59.02,9.89,0,.99-.02,1.98-.03,2.97-.04,2.25-1.71,3.96-3.97,4.07-.52.02-1.04,0-1.56,0-2.41,0-4.81,0-7.22,0Zm-5.93-18.4c-.24.83-.42,1.53-.66,2.22-.96,2.78-1.94,5.55-2.92,8.32-.09.26-.16.52-.27.85.65.03,1.21.06,1.77.07.56.01.6-.03.79-.6.19-.58.37-1.16.55-1.75.08-.24.19-.43.48-.43,1.22,0,2.45,0,3.72,0,.18.51.33.97.51,1.43.17.43.24,1.02.56,1.24.33.23.91.11,1.37.11.34,0,.68-.04,1.05-.06-.05-.21-.07-.32-.11-.43-.85-2.39-1.7-4.79-2.56-7.18-.39-1.09-.78-2.17-1.18-3.25-.09-.23-.12-.53-.47-.54-.89,0-1.78,0-2.64,0Zm9.93,7.36h5.42c.11-1.01.05-1.93-.31-2.82-.51-1.28-1.49-1.96-2.85-2.11-.37-.04-.75-.03-1.13,0-1.26.09-2.23.67-2.89,1.76-.71,1.18-.89,2.48-.68,3.81.21,1.35.92,2.42,2.2,3.01,1.5.68,3.03.51,4.55.06.12-.03.29-.16.3-.25.05-.57.18-1.14-.01-1.75-.18.04-.31.06-.45.09-.86.15-1.72.27-2.59.06-.94-.23-1.43-.78-1.57-1.86Z"/>
  <path class="cls-1" d="m9.12,15.71c.44-1.47.85-2.83,1.26-4.19h.15c.43,1.37.86,2.75,1.32,4.19h-2.73Z"/>
  <path class="cls-1" d="m22.16,14.93h-3.15c0-.87.57-1.49,1.39-1.57.87-.08,1.54.49,1.75,1.57Z"/>
</svg>