<?xml version="1.0" encoding="UTF-8"?>
<svg id="figma" xmlns="http://www.w3.org/2000/svg" viewBox="0 0 30 30">
  <defs>
    <style>
      .cls-1 {
        fill: #fff;
      }
    </style>
  </defs>
  <path class="cls-1" d="m12.08,26.6h-.93s.07,0,.1-.01c.03,0,.06,0,.09,0-1.24-.11-2.28-.62-3.1-1.56-.82-.94-1.19-2.04-1.11-3.28.08-1.24.61-2.28,1.53-3.12-1-.92-1.54-2.06-1.54-3.41,0-1.36.54-2.49,1.54-3.42-.02-.02-.04-.03-.06-.05-.43-.39-.77-.84-1.02-1.35-.3-.61-.45-1.26-.47-1.94-.01-.49.06-.96.21-1.43.25-.78.67-1.45,1.27-2,.89-.8,1.93-1.19,3.12-1.19,2.23,0,4.45,0,6.68,0,.37,0,.74.03,1.09.12.66.16,1.26.43,1.79.86.31.25.59.52.82.84.44.59.72,1.25.85,1.98.01.08.02.16.03.25.01-.02.02-.04.02-.05v1.01s-.02.06-.02.09c-.04.38-.13.75-.27,1.1-.26.66-.66,1.24-1.18,1.72-.01.01-.03.02-.05.03.86.8,1.38,1.76,1.51,2.92,0-.01.01-.03.02-.04v1s-.02.06-.02.08c-.04.36-.12.72-.25,1.06-.29.75-.74,1.39-1.36,1.9-.97.79-2.08,1.13-3.32,1.02-.59-.05-1.15-.22-1.67-.5-.05-.03-.11-.06-.17-.09,0,.02,0,.03,0,.05,0,.98,0,1.95,0,2.93,0,.29-.04.58-.1.87-.19.83-.57,1.56-1.15,2.18-.46.49-1.01.85-1.63,1.1-.42.16-.86.28-1.31.29,0,0-.02,0-.03,0,.05,0,.09.01.12.02Zm4.13-15.92s.03,0,.04,0c.77,0,1.53-.02,2.3-.01.39,0,.74-.11,1.07-.3.59-.36.96-.87,1.08-1.56.1-.56.01-1.09-.28-1.58-.28-.47-.69-.78-1.19-.98-.29-.11-.59-.13-.89-.13-.65,0-1.31,0-1.96,0-.05,0-.11,0-.17,0v4.56Zm-2.29,2.28h-.07c-.75,0-1.5,0-2.25,0-.17,0-.35.02-.52.06-.56.15-1.01.47-1.33.95-.35.52-.45,1.1-.33,1.71.1.55.4.98.82,1.33.4.32.86.48,1.37.48.75,0,1.49,0,2.24,0,.02,0,.05,0,.07,0v-4.53Zm0-2.3s0-.05,0-.07c0-1.44,0-2.87,0-4.31,0-.04,0-.08,0-.12,0-.03,0-.04-.04-.04-.06,0-.11,0-.17,0-.65,0-1.29,0-1.94,0-.16,0-.33,0-.49.03-.71.14-1.26.51-1.62,1.15-.26.48-.35,1-.24,1.54.15.7.55,1.23,1.18,1.57.26.14.54.24.84.24.8,0,1.61,0,2.41,0,.02,0,.03,0,.06,0Zm0,9.13s-.03,0-.04,0c-.77,0-1.54,0-2.31,0-.08,0-.16,0-.24,0-.47.06-.89.26-1.23.59-.64.63-.87,1.39-.64,2.26.21.81.74,1.34,1.54,1.59.48.15.95.13,1.42-.04.42-.15.75-.4,1.02-.75.29-.38.47-.8.47-1.28,0-.77,0-1.54,0-2.31,0-.02,0-.04,0-.06Zm6.82-4.57c-.01-1.31-1.04-2.2-2.13-2.27-1.41-.08-2.35,1.06-2.41,2.09-.09,1.44,1.03,2.46,2.28,2.46,1.16,0,2.25-.92,2.26-2.28Z"/>
</svg>