<?xml version="1.0" encoding="utf-8"?>
<!-- Generator: Adobe Illustrator 27.3.1, SVG Export Plug-In . SVG Version: 6.00 Build 0)  -->
<svg version="1.1" id="Layer_1" xmlns="http://www.w3.org/2000/svg" xmlns:xlink="http://www.w3.org/1999/xlink" x="0px" y="0px"
	 viewBox="0 0 216 56.5" style="enable-background:new 0 0 216 56.5;" xml:space="preserve">
<style type="text/css">
	.st0{display:none;}
	.st1{display:inline;fill:#E75653;}
	.st2{enable-background:new    ;}
	.st3{fill:#FFFFFF;}
	.st4{fill:#BC4646;}
	.st5{fill:#E75653;}
	.st6{opacity:0.63;enable-background:new    ;}
</style>
<g id="Layer_2_00000023971730210026624820000000759283790032667010_" class="st0">
	<rect x="-3" y="-7" class="st1" width="222" height="69"/>
</g>
<g id="Layer_1_00000106842877235316882290000011543060932109905086_">
	<g class="st2">
		<path class="st3" d="M42.5,42.2v-28h3.7v28H42.5z"/>
		<path class="st3" d="M61.9,14.2l-4.5,28h-4.4l-4.5-28h3.7l3,21.4l3-21.4H61.9z"/>
		<path class="st3" d="M67.2,42.2h-3.7V19c0-3.2,1.5-4.8,4.5-4.8h2.8c3,0,4.5,1.6,4.5,4.8v23.2h-3.7V31.9h-4.3V42.2z M71.5,28.5
			v-9.3c0-1.1-0.5-1.6-1.6-1.6h-1c-1.1,0-1.6,0.5-1.6,1.6v9.3H71.5z"/>
		<path class="st3" d="M86.3,27.7V14.2h3.7v28h-3.7v-5.6l-4-12.8v18.3h-3.7v-28h3.7L86.3,27.7z"/>
		<path class="st3" d="M108.5,27.8c2.1,0.6,3.1,1.6,3.1,3.2v7c0,2.8-1.4,4.2-4.2,4.2h-7.5v-28h6.4c3.3,0,5,1.7,5,5.1v5.4
			c0,1.6-0.9,2.6-2.7,3V27.8z M103.6,26h1.8c1.4,0,2.1-0.7,2.1-2v-4.4c0-1.4-0.6-2-1.7-2h-2.2V26z M103.6,38.8h2.8
			c1,0,1.5-0.4,1.5-1.2v-6.2c0-1.3-0.7-2-2.2-2h-2.1V38.8z"/>
		<path class="st3" d="M114.7,42.2v-28h9.3v3.4h-5.5v8.5h4.9v3.4h-4.9v9.3h5.5v3.4H114.7z"/>
		<path class="st3" d="M126.7,14.2h7.3c2.9,0,4.3,1.6,4.3,4.8v6.9c0,2.4-0.7,4-2.2,4.6l2.6,11.7h-3.5l-2.5-11.3h-2.3v11.3h-3.7V14.2
			z M130.4,27.7h2.5c1.1,0,1.7-0.7,1.7-2v-6c0-1.4-0.6-2-1.7-2h-2.5V27.7z"/>
		<path class="st3" d="M150.3,42.2h-8.9v-28h3.7v24.6h5.1V42.2z"/>
		<path class="st3" d="M156,42.2h-3.7V19c0-3.2,1.5-4.8,4.5-4.8h2.8c3,0,4.5,1.6,4.5,4.8v23.2h-3.7V31.9H156V42.2z M160.3,28.5v-9.3
			c0-1.1-0.5-1.6-1.6-1.6h-1c-1.1,0-1.6,0.5-1.6,1.6v9.3H160.3z"/>
		<path class="st3" d="M175.1,27.7V14.2h3.7v28h-3.7v-5.6l-4-12.8v18.3h-3.7v-28h3.7L175.1,27.7z"/>
		<path class="st3" d="M188.1,31.9v-3.4h5.7v13.6h-7.3c-2.9,0-4.3-1.6-4.3-4.7V19c0-3.2,1.4-4.8,4.3-4.8h2.6c3.2,0,4.8,1.6,4.8,4.9
			v3h-3.7v-2.5c0-1.4-0.5-2-1.6-2h-0.9c-1.1,0-1.6,0.7-1.6,2v17.2c0,1.4,0.5,2,1.6,2h2.5v-6.9H188.1z"/>
		<path class="st3" d="M200.4,42.2h-3.7V19c0-3.2,1.5-4.8,4.5-4.8h2.8c3,0,4.5,1.6,4.5,4.8v23.2h-3.7V31.9h-4.3V42.2z M204.7,28.5
			v-9.3c0-1.1-0.5-1.6-1.6-1.6h-1c-1.1,0-1.6,0.5-1.6,1.6v9.3H204.7z"/>
	</g>
	<g>
		<g>
			<path class="st3" d="M36,37c0,8.5-6.9,15.3-15.3,15.3S5.4,45.5,5.4,37s17.1-34.7,17-34C20.2,14.3,36,28.6,36,37z"/>
		</g>
		<g>
			<g>
				<path class="st4" d="M34.1,36.2c0,7.4-6,13.4-13.4,13.4s-13.4-6-13.4-13.4s15-30.4,14.9-29.8C20.3,16.3,34.1,28.9,34.1,36.2z"/>
			</g>
		</g>
		<g>
			<path class="st5" d="M22,6.6c0-0.3-3.9,8.4-4.1,11.5s0.9,6.8,0.9,9.4c0,6.5-4.7,12-10.9,13.2c1.8,5.3,6.8,9.1,12.7,9.1
				c7.4,0,13.4-6,13.4-13.4C34,28.9,20.2,16.4,22,6.6z"/>
		</g>
		<g class="st6">
			<path class="st3" d="M28.9,38.3c0.1,6.8-5.7,8.8-9.4,8.8s-6.8-3-7.1-6.6c-0.3-4.1,2.4-6,1.3-12.5c0.6,0.2,3.3,1.3,4.8,6.8
				c0.1,0.4,0.5,1.2,0.5,1.2s4.9-4.9,2.7-11.4C21.7,24.4,28.8,33.6,28.9,38.3z"/>
		</g>
	</g>
</g>
</svg>
