<?xml version="1.0" encoding="UTF-8"?>
<svg id="css" xmlns="http://www.w3.org/2000/svg" viewBox="0 0 30 30">
  <defs>
    <style>
      .cls-1 {
        fill: #fff;
      }
    </style>
  </defs>
  <path class="cls-1" d="m5.01,6.78s0-.05,0-.08c.02,0,.04,0,.06,0,.04,0,.07,0,.11,0,6.27,0,12.55,0,18.82,0v.02s-.04.05-.05.08c-.02.19-.03.37-.05.56,0,.06-.01.12-.02.18,0,.14-.01.29-.02.43,0,.09-.03.18-.04.27-.01.12-.02.23-.03.35,0,.14-.01.29-.02.43,0,.01,0,.03,0,.04-.01.09-.03.17-.04.26-.01.14-.01.29-.02.43,0,.12-.02.23-.03.35-.02.14-.03.28-.05.41,0,.05,0,.1,0,.15,0,.08-.03.16-.03.24-.01.1-.02.2-.03.29-.01.14-.03.28-.04.43,0,.08,0,.17,0,.25-.01.11-.03.23-.04.34,0,.07,0,.13,0,.2,0,.09-.03.18-.04.27-.01.11-.02.23-.03.34-.01.12-.02.24-.03.36,0,.06-.01.12-.02.19,0,.04,0,.07,0,.11-.01.16-.02.32-.03.48,0,.01,0,.03,0,.04-.01.09-.03.18-.04.28-.01.14,0,.27-.02.41-.01.14-.04.29-.06.43-.02.18-.03.36-.04.53-.03.29-.06.59-.09.88-.03.3-.05.61-.07.91-.01.17-.04.34-.05.52-.02.24-.04.48-.06.72-.02.17-.04.34-.05.51-.03.3-.05.6-.07.9-.02.23-.05.46-.07.69-.02.19-.03.38-.04.57-.02.23-.05.46-.07.69-.03.35-.06.71-.09,1.06-.03.29-.06.59-.08.88-.02.24-.04.49-.06.73-.01.17-.04.33-.05.5-.02.19-.03.38-.04.57,0,.07-.03.1-.1.11-2.37.66-4.74,1.31-7.11,1.97-.18.05-.35.1-.53.16h-.06c-.08-.03-.17-.05-.25-.08h-.03c-.09-.03-.17-.05-.26-.08,0,0-.02,0-.03,0-.09-.02-.17-.05-.26-.07h-.03c-.09-.03-.17-.05-.26-.08,0,0-.02,0-.03,0-.09-.02-.17-.05-.26-.07,0,0-.02,0-.03,0-.09-.02-.17-.05-.26-.07,0,0-.02,0-.03,0-.09-.02-.17-.05-.26-.07,0,0-.02,0-.03,0-.09-.02-.17-.05-.26-.07,0,0-.02,0-.03,0-.09-.02-.17-.05-.26-.07,0,0-.02,0-.03,0-.09-.02-.17-.05-.26-.07,0,0-.02,0-.03,0-.09-.02-.17-.05-.26-.07,0,0-.02,0-.03,0-.03-.01-.06-.02-.1-.03-.68-.19-1.37-.38-2.05-.57-.57-.16-1.13-.31-1.7-.47,0,0-.02,0-.03,0-.09-.02-.17-.05-.26-.07,0,0-.02,0-.03,0-.09-.02-.17-.05-.26-.07,0,0-.02,0-.03,0-.06-.04-.16-.02-.17-.12,0-.14-.02-.28-.03-.43,0-.05,0-.1-.01-.15,0,0,0-.02,0-.03,0-.04-.01-.07-.02-.11-.01-.1-.03-.2-.04-.3,0-.1,0-.2,0-.3,0-.04-.01-.07-.02-.11,0-.02,0-.04,0-.06,0-.04-.01-.07-.02-.11,0-.04-.02-.08-.03-.12,0-.1,0-.21,0-.31,0-.05,0-.1-.01-.15v-.03s-.01-.1-.02-.15c0,0,0-.02,0-.03,0-.04-.01-.07-.02-.11,0-.04-.02-.08-.02-.12,0-.1,0-.21,0-.31,0-.05,0-.1-.01-.15,0,0,0-.02,0-.03,0-.05,0-.1-.01-.15-.05-.06,0-.14-.02-.2-.02-.12-.05-.24-.03-.36,0-.05,0-.1-.01-.15,0,0,0-.02,0-.03,0-.05,0-.1-.01-.15-.01-.03-.03-.06-.03-.09,0-.1,0-.2,0-.3,0-.05,0-.1-.01-.15,0,0,0-.02,0-.03,0-.05,0-.1-.01-.15,0-.05-.01-.1-.01-.15,0-.02,0-.04,0-.06-.01-.12-.05-.23-.03-.35,0-.05,0-.1-.01-.15,0,0,0-.02,0-.03,0-.04-.01-.07-.02-.11,0-.14-.02-.28-.03-.43,0-.05,0-.1-.01-.15,0,0,0-.02,0-.03,0-.04-.01-.07-.02-.11-.01-.1-.03-.2-.04-.3,0-.1,0-.2,0-.3,0-.04-.01-.07-.02-.11,0-.02,0-.04,0-.06,0-.05,0-.1-.01-.15-.01-.03-.03-.06-.03-.09,0-.1,0-.2,0-.3,0-.04-.01-.07-.02-.11,0-.02,0-.04,0-.06,0-.05,0-.1-.01-.15,0,0,0-.02,0-.03,0-.05,0-.1-.01-.15-.01-.03-.03-.05-.03-.08,0-.1,0-.21,0-.31,0-.05,0-.1-.01-.15,0,0,0-.02,0-.03,0-.05,0-.1-.01-.15-.05-.06,0-.14-.02-.2-.02-.12-.05-.24-.03-.36,0-.04-.01-.07-.02-.11,0-.02,0-.04,0-.06,0-.05,0-.1-.01-.15-.01-.03-.03-.06-.03-.09,0-.1,0-.2,0-.3,0-.05,0-.1-.01-.15,0,0,0-.02,0-.03,0-.04-.01-.07-.02-.11,0-.08,0-.17-.01-.25-.01-.12-.05-.23-.03-.35,0-.04-.01-.07-.02-.11,0-.05,0-.09,0-.14-.02-.21-.04-.41-.06-.62-.01-.14-.02-.29-.04-.43-.02-.2-.04-.41-.06-.61-.03-.3-.05-.59-.07-.89-.04-.47-.09-.94-.13-1.41-.02-.23-.03-.46-.05-.68-.03-.36-.07-.72-.11-1.08-.03-.3-.05-.59-.08-.89-.02-.28-.04-.56-.07-.83-.01-.14-.03-.29-.05-.43Zm9.49,8.67s-.01,0-.02,0c-1.8,0-3.6,0-5.41,0-.04,0-.08.01-.11.02.01.11.02.21.03.32.03.33.05.66.08.98.03.31.06.63.09.94.01.12,0,.12.13.12,1.69,0,3.37,0,5.06,0,.04,0,.08,0,.13,0,0,.04.01.08.01.12,0,1.19,0,2.37,0,3.56,0,.04,0,.08-.01.12-.02,0-.05,0-.07-.01-.83-.22-1.66-.45-2.49-.67-.07-.02-.1-.05-.1-.12-.02-.26-.04-.53-.07-.79-.03-.3-.06-.61-.09-.91,0-.08-.04-.09-.1-.09-.73,0-1.46,0-2.19,0-.03,0-.06,0-.08,0,0,.03,0,.05,0,.07.04.49.08.97.13,1.46.06.7.13,1.4.19,2.1,0,.07.03.1.1.12.98.27,1.95.54,2.93.81.61.17,1.22.34,1.83.51.01.04.03.08.03.13,0,.75,0,1.49,0,2.24,0,.09,0,.1.09.07.99-.27,1.98-.55,2.96-.82,1.04-.29,2.08-.58,3.12-.86.08-.02.1-.06.11-.14.01-.22.04-.43.06-.64.02-.25.05-.51.07-.76.02-.26.05-.53.07-.79.02-.27.05-.54.07-.81.02-.2.03-.41.05-.61.02-.27.05-.54.07-.81.02-.26.05-.52.07-.79.02-.27.05-.54.07-.82.02-.21.04-.42.06-.63.02-.26.05-.52.07-.78.02-.2.04-.41.05-.61.02-.27.05-.54.07-.81.02-.21.04-.42.06-.64.01-.17.02-.34.04-.51,0-.1.02-.2.03-.3,0-.08.01-.16.02-.25,0-.09.01-.17.02-.26,0-.08.02-.17.03-.25.01-.1.02-.2.03-.3,0-.08.01-.17.02-.25,0-.08,0-.15.01-.23,0-.11.02-.21.03-.32,0-.07.01-.15.02-.22,0-.1.02-.19.03-.29,0-.08.02-.16.03-.25.01-.09.02-.18.03-.27,0-.1.02-.19.03-.29,0-.07.02-.14.02-.22,0-.08,0-.17,0-.26,0-.07.01-.14.02-.21,0-.08.02-.16.03-.24.01-.1.02-.21.03-.31,0-.08.01-.16.02-.25,0-.09.01-.18.02-.27,0-.08.02-.16.03-.25.01-.1.02-.21.03-.31,0-.08.01-.15.02-.23,0-.08,0-.17.01-.25.02-.14.03-.14-.11-.14-2.49,0-4.99,0-7.48,0q-.12,0-.12.12c0,.75,0,1.5,0,2.25,0,0,0,0-.01,0-.02,0-.05,0-.07,0-1.93,0-3.85,0-5.78,0-.03,0-.06,0-.09,0,0,.03,0,.05,0,.08.04.44.08.88.12,1.31.03.33.06.65.09.98.04,0,.08.02.12.02,1.87,0,3.74,0,5.61,0,0,0,.01,0,.02,0,0,.8,0,1.6,0,2.4Z"/>
  <path class="cls-1" d="m5.07,6.7s.09-.01.14-.01c6.2,0,12.4,0,18.59,0h.2v.02c-6.27,0-12.55,0-18.82,0-.04,0-.07,0-.11,0Z"/>
  <path class="cls-1" d="m12.38,1.42s.01.01.02.02v1.19s-.08.03-.12.03c-.53,0-1.06,0-1.59,0,0,0,0,0,0-.01h1.66c0-.4,0-.78,0-1.16,0-.01-.03-.03-.05-.04,0,0,0,0,0-.01.03,0,.05,0,.08,0Z"/>
  <path class="cls-1" d="m14.21,28.22s-.01-.05-.02-.08c.08.03.17.05.25.08h-.24Z"/>
  <path class="cls-1" d="m14.49,10.65c0-.75,0-1.5,0-2.25q0-.12.12-.12c2.49,0,4.99,0,7.48,0,.13,0,.13,0,.11.14-.01.08,0,.16-.01.25,0,.08-.01.15-.02.23,0,.1-.02.21-.03.31,0,.08-.02.16-.03.25,0,.09-.02.18-.02.27,0,.08,0,.16-.02.25,0,.1-.02.21-.03.31,0,.08-.02.16-.03.24,0,.07-.02.14-.02.21,0,.08,0,.17,0,.26,0,.07-.02.14-.02.22,0,.1-.02.19-.03.29,0,.09-.02.18-.03.27,0,.08-.02.16-.03.25,0,.1-.02.19-.03.29,0,.07-.01.15-.02.22,0,.11-.02.21-.03.32,0,.08,0,.15-.01.23,0,.09-.01.17-.02.25,0,.1-.02.2-.03.3,0,.08-.02.17-.03.25,0,.09-.01.17-.02.26,0,.08-.01.16-.02.25,0,.1-.02.2-.03.3-.01.17-.02.34-.04.51-.02.21-.04.42-.06.64-.02.27-.05.54-.07.81-.02.2-.04.41-.05.61-.02.26-.05.52-.07.78-.02.21-.04.42-.06.63-.02.27-.05.54-.07.82-.02.26-.05.52-.07.79-.02.27-.05.54-.07.81-.02.2-.03.41-.05.61-.02.27-.05.54-.07.81-.02.26-.05.53-.07.79-.02.25-.05.51-.07.76-.02.21-.04.43-.06.64,0,.08-.03.12-.11.14-1.04.29-2.08.57-3.12.86-.99.27-1.98.55-2.96.82-.09.02-.09.02-.09-.07,0-.75,0-1.49,0-2.24,0-.04-.02-.08-.03-.13,0,0,.01,0,.02,0,.02,0,.03,0,.05-.01.03,0,.06-.01.09-.02.34-.09.69-.19,1.03-.28,1.21-.33,2.41-.67,3.62-1,.06-.02.08-.04.09-.11.02-.29.05-.58.08-.87.04-.47.08-.95.13-1.42.03-.35.06-.7.09-1.05.03-.3.05-.6.08-.9.04-.43.08-.86.12-1.29.05-.5.09-1.01.14-1.51.03-.41.06-.82.1-1.23,0-.06,0-.13,0-.19.01-.1.03-.19.04-.29,0-.08.01-.16.02-.24.01-.15.03-.29.05-.44.01-.15.02-.3.03-.45,0-.06,0-.12,0-.19.01-.08.03-.17.04-.25.01-.15.02-.3.03-.45,0-.06,0-.12,0-.19.01-.08.03-.17.04-.25.01-.15.02-.3.03-.45,0-.08.02-.17.03-.25.01-.1-.01-.12-.11-.12-.02,0-.03,0-.05,0-1.87,0-3.74,0-5.61,0-.03,0-.07,0-.1,0h-.05Z"/>
  <path class="cls-1" d="m14.48,21.63s.01-.08.01-.12c0-1.19,0-2.37,0-3.56,0-.04,0-.08-.01-.12,0,0,0,0,0,0,.01,0,.02,0,.03,0,.04,0,.08,0,.12,0,.89,0,1.77,0,2.66,0,.04,0,.07,0,.12,0,0,.09-.01.16-.02.24-.03.29-.06.58-.09.87-.02.23-.03.47-.05.7-.03.39-.07.78-.1,1.16,0,.08-.03.11-.11.13-.56.15-1.11.3-1.67.45-.28.08-.57.16-.85.24-.01,0-.02,0-.03,0,0,0,0,0,0,0Z"/>
  <path class="cls-1" d="m11.32,27.34c-.08.07-.16,0-.24-.01-.12-.02-.24-.08-.36-.11-.11-.03-.23-.06-.34-.09-.07-.02-.14-.04-.21-.06-.05-.02-.1-.03-.15-.05-.12-.03-.24-.05-.36-.09-.12-.03-.24-.08-.36-.11-.11-.03-.23-.05-.34-.08-.11-.03-.23-.07-.34-.1-.12-.03-.24-.06-.35-.09-.05-.01-.09-.03-.14-.04-.12-.04-.25-.08-.37-.11-.07-.02-.14-.03-.21-.05-.05,0-.07-.03-.07-.08.57.16,1.13.31,1.7.47.68.19,1.37.38,2.05.57.03,0,.06.02.1.03Z"/>
  <path class="cls-1" d="m8.75,13.03c1.89,0,3.79,0,5.68,0,.02,0,.03,0,.05,0,0,0,0,0,0,0,0,0,0,0,0,.01-1.87,0-3.74,0-5.61,0-.04,0-.08-.01-.12-.02Z"/>
  <path class="cls-1" d="m14.48,15.46s-.08,0-.13,0c-1.76,0-3.51,0-5.27,0-.04,0-.08,0-.13,0,.04,0,.08-.02.11-.02,1.8,0,3.6,0,5.41,0,0,0,0,0,0,.01Z"/>
  <path class="cls-1" d="m14.49,15.45c0-.8,0-1.6,0-2.4.01,0,.02,0,.03,0v2.4s-.02,0-.03,0Z"/>
  <path class="cls-1" d="m14.53,13.05s-.02,0-.03,0c0,0-.01,0-.02,0,0,0,0,0,0-.01.02,0,.04,0,.06,0,.04,0,.08,0,.12,0,1.02,0,2.04,0,3.05,0,.03,0,.05,0,.08,0,0,0,.02.02.02.03-.04,0-.07-.01-.11-.02-1.06,0-2.12,0-3.18,0Z"/>
  <path class="cls-1" d="m14.49,15.45s.02,0,.03,0c1.03,0,2.05,0,3.08,0-.04,0-.07.02-.11.02-.79,0-1.59,0-2.38,0-.2,0-.41,0-.61,0-.01,0-.02,0-.03,0,0,0,0,0,0,0,0,0,0,0,0-.01,0,0,.01,0,.02,0Z"/>
  <path class="cls-1" d="m7.16,26.19c-.07.05-.15.01-.22,0-.02,0-.03-.04-.04-.07.09.02.17.05.26.07Z"/>
  <path class="cls-1" d="m7.44,26.27c-.07.05-.15.01-.22,0-.02,0-.03-.04-.04-.07.09.02.17.05.26.07Z"/>
  <path class="cls-1" d="m13.31,27.9c-.08.06-.15,0-.23,0-.01,0-.02-.04-.03-.06.09.02.17.05.26.07Z"/>
  <path class="cls-1" d="m13.6,27.98c-.08.06-.15,0-.23,0-.01,0-.02-.04-.03-.06.09.02.17.05.26.07Z"/>
  <path class="cls-1" d="m13.88,28.06c-.08.06-.15,0-.23,0-.01,0-.02-.04-.03-.06.09.02.17.05.26.07Z"/>
  <path class="cls-1" d="m14.17,28.14c-.08.06-.15,0-.23,0-.01,0-.02-.04-.03-.06l.26.07Z"/>
  <path class="cls-1" d="m12.74,27.74c-.08.06-.15,0-.23,0-.01,0-.02-.04-.03-.06.09.02.17.05.26.07Z"/>
  <path class="cls-1" d="m13.03,27.82c-.08.06-.15,0-.23,0-.01,0-.02-.04-.03-.06.09.02.17.05.26.07Z"/>
  <path class="cls-1" d="m6.88,26.11c-.06.03-.12.04-.18-.02-.04-.04-.05-.08.01-.11,0,.11.11.09.17.12Z"/>
  <path class="cls-1" d="m12.46,27.66c-.08.06-.15,0-.22-.01-.02,0-.03-.04-.04-.06.09.02.17.05.26.07Z"/>
  <path class="cls-1" d="m12.17,27.58c-.08.06-.15,0-.22-.01-.02,0-.03-.04-.04-.06.09.02.17.05.26.07Z"/>
  <path class="cls-1" d="m11.89,27.5c-.08.06-.15,0-.22-.01-.02,0-.03-.04-.04-.06.09.02.17.05.26.07Z"/>
  <path class="cls-1" d="m11.6,27.42c-.08.06-.15,0-.22-.01-.02,0-.03-.04-.04-.06.09.02.17.05.26.07Z"/>
  <path class="cls-1" d="m6.08,18.82c-.07-.01-.07-.05-.04-.1,0-.02.02-.03.03-.05,0,.05,0,.1.01.15Z"/>
  <path class="cls-1" d="m6.3,21.3c-.07-.01-.07-.05-.04-.1,0-.02.02-.03.03-.05,0,.05,0,.1.01.15Z"/>
  <path class="cls-1" d="m6.36,22.02c-.07-.01-.07-.05-.04-.1,0-.02.02-.03.03-.05,0,.05,0,.1.01.15Z"/>
  <path class="cls-1" d="m6.38,22.19c-.07-.01-.07-.05-.04-.1,0-.02.02-.03.03-.05,0,.05,0,.1.01.15Z"/>
  <path class="cls-1" d="m6.44,22.9c-.07-.01-.07-.05-.04-.1,0-.02.02-.03.03-.05,0,.05,0,.1.01.15Z"/>
  <path class="cls-1" d="m6.46,23.08c-.08-.03-.08-.04-.01-.15,0,.05,0,.1.01.15Z"/>
  <path class="cls-1" d="m5.81,15.8c-.07-.01-.07-.05-.04-.1,0-.02.02-.03.03-.05,0,.05,0,.1.01.15Z"/>
  <path class="cls-1" d="m6.52,23.79c-.07-.01-.07-.05-.04-.1,0-.02.02-.03.03-.05,0,.05,0,.1.01.15Z"/>
  <path class="cls-1" d="m6.54,23.96c-.08-.03-.08-.04-.01-.15,0,.05,0,.1.01.15Z"/>
  <path class="cls-1" d="m5.86,16.34c-.07-.01-.07-.05-.04-.1,0-.02.02-.03.03-.05,0,.05,0,.1.01.15Z"/>
  <path class="cls-1" d="m5.94,17.22c-.07-.01-.07-.05-.04-.1,0-.02.02-.03.03-.05,0,.05,0,.1.01.15Z"/>
  <path class="cls-1" d="m5.95,17.4c-.08-.03-.08-.04-.01-.15,0,.05,0,.1.01.15Z"/>
  <path class="cls-1" d="m6.68,25.56c-.08-.03-.08-.04-.01-.15,0,.05,0,.1.01.15Z"/>
  <path class="cls-1" d="m6.24,20.59c-.07-.01-.07-.05-.04-.1,0-.02.02-.03.03-.05,0,.05,0,.1.01.15Z"/>
  <path class="cls-1" d="m6.32,21.48c-.07-.01-.07-.05-.04-.1,0-.02.02-.03.03-.05,0,.05,0,.1.01.15Z"/>
  <path class="cls-1" d="m6.17,19.88c-.08-.03-.08-.04-.01-.15,0,.05,0,.1.01.15Z"/>
  <path class="cls-1" d="m6,17.93c-.07-.01-.07-.05-.04-.1,0-.02.02-.03.03-.05,0,.05,0,.1.01.15Z"/>
  <path class="cls-1" d="m6.02,18.11c-.07-.01-.07-.05-.04-.1,0-.02.02-.03.03-.05,0,.05,0,.1.01.15Z"/>
  <path class="cls-1" d="m6.22,20.42s-.05-.03-.06-.05c0-.02.02-.04.04-.06,0,.04.01.07.02.11Z"/>
  <path class="cls-1" d="m6.03,18.28s-.05-.03-.06-.05c0-.02.02-.04.04-.06,0,.04.01.07.02.11Z"/>
  <path class="cls-1" d="m6.1,18.99s-.05-.03-.06-.05c0-.02.02-.04.04-.06,0,.04.01.07.02.11Z"/>
  <path class="cls-1" d="m6.16,19.71s-.05-.03-.06-.05c0-.02.02-.04.04-.06,0,.04.01.07.02.11Z"/>
  <path class="cls-1" d="m6.67,25.38s-.05-.03-.06-.05c0-.02.02-.04.04-.06,0,.04.01.07.02.11Z"/>
  <path class="cls-1" d="m6.6,24.67s-.05-.03-.06-.05c0-.02.02-.04.04-.06,0,.04.01.07.02.11Z"/>
  <path class="cls-1" d="m5.87,16.51s-.05-.03-.06-.05c0-.02.02-.04.04-.06,0,.04.01.07.02.11Z"/>
  <path class="cls-1" d="m6.58,24.5c-.08-.03-.08-.06-.02-.11,0,.04.01.07.02.11Z"/>
  <path class="cls-1" d="m6.51,23.61s-.05-.03-.06-.05c0-.02.02-.04.04-.06,0,.04.01.07.02.11Z"/>
  <path class="cls-1" d="m5.73,14.91s-.05-.03-.06-.05c0-.02.02-.04.04-.06,0,.04.01.07.02.11Z"/>
  <path class="cls-1" d="m5.8,15.62s-.05-.03-.06-.05c0-.02.02-.04.04-.06,0,.04.01.07.02.11Z"/>
  <path class="cls-1" d="m16.38,1.44c.95,0,1.91,0,2.86,0,0,.35,0,.69,0,1.04h0c-.53,0-1.06,0-1.6,0-.03,0-.05.01-.08.02,0,.06,0,.13.01.19.04,0,.07.01.11.01.52,0,1.03,0,1.55,0,0,.03,0,.07,0,.1,0,.76,0,1.52,0,2.28h0c-.92,0-1.85,0-2.77,0-.05,0-.09,0-.09-.07,0-.34,0-.68,0-1.02h1.66v-.21s-.08-.02-.11-.02c-.51,0-1.03,0-1.54,0,0-.78,0-1.56,0-2.34Z"/>
  <path class="cls-1" d="m12.34,2.64h-1.66s-.02.04-.02.06c0,.38,0,.76,0,1.13.04,0,.08.02.11.02.52,0,1.04,0,1.56,0,0,.39,0,.79,0,1.18-.75,0-1.49,0-2.24,0-.21,0-.42,0-.62,0,0-1.2,0-2.4,0-3.6.45,0,.89,0,1.34,0,.49,0,.99,0,1.48,0,.02.01.05.03.05.04"/>
  <path class="cls-1" d="m14.59,3.93v-.08c.05,0,.08-.02.07-.07,0-.02-.03-.06-.05-.06-.04-.01-.08,0-.09.06-.53,0-1.06,0-1.6,0,0-.78,0-1.56,0-2.34.52,0,1.04,0,1.56,0v1.04c-.08,0-.16,0-.24,0-.04,0-.09.01-.13.02,0,.06,0,.12,0,.19.04,0,.07.02.11.02.52,0,1.05,0,1.57,0,0,.03,0,.07,0,.1,0,.76,0,1.52,0,2.28h0c-.95,0-1.91,0-2.86,0,0-.34,0-.67,0-1.01.13,0,.26,0,.39,0,.42,0,.83,0,1.25,0,.05,0,.09,0,.1-.07,0-.05-.02-.08-.08-.08Z"/>
  <path class="cls-1" d="m14.49,2.48v-1.04c.43,0,.86,0,1.29,0,0,.35,0,.69,0,1.04-.43,0-.86,0-1.29,0Z"/>
  <path class="cls-1" d="m14.59,3.93c.05,0,.08.02.08.08,0,.06-.05.07-.1.07-.42,0-.83,0-1.25,0-.13,0-.26,0-.39,0,0-.03,0-.05,0-.08.52,0,1.04,0,1.56,0,.03,0,.06,0,.1,0,0-.02,0-.04,0-.06Z"/>
  <path class="cls-1" d="m16.38,4c0,.34,0,.68,0,1.02,0,.08.04.07.09.07.92,0,1.85,0,2.77,0-.03,0-.05.02-.08.02-.9,0-1.8,0-2.7,0-.07,0-.1-.02-.09-.09,0-.31,0-.62,0-.93,0-.03.01-.05.02-.08Z"/>
  <path class="cls-1" d="m12.34,5.04c0-.39,0-.79,0-1.18,0,0,0-.01-.01-.02.02,0,.04.01.06.02v1.17s-.03.02-.05.03c0,0,0-.01,0-.02Z"/>
  <path class="cls-1" d="m9.48,1.44c0,1.2,0,2.4,0,3.6,0,0-.01,0-.02,0,0-1.18,0-2.36,0-3.54,0-.02.01-.04.02-.06Z"/>
  <path class="cls-1" d="m9.47,5.04s.01,0,.02,0c.21,0,.42,0,.62,0,.75,0,1.49,0,2.24,0,0,0,0,.01,0,.02-.92,0-1.85,0-2.77,0-.04,0-.07-.01-.11-.02Z"/>
  <path class="cls-1" d="m12.93,5.09c.95,0,1.91,0,2.86,0-.02,0-.04.02-.07.02-.93,0-1.85,0-2.78,0,0,0-.01,0-.02,0,0,0,0,0,0-.01Z"/>
  <path class="cls-1" d="m19.24,5.09c0-.76,0-1.52,0-2.28,0-.03,0-.07,0-.1,0,0,0,0,0-.01,0,.03.02.06.02.09,0,.74,0,1.48,0,2.22,0,.03,0,.06-.02.09Z"/>
  <path class="cls-1" d="m15.79,5.09c0-.76,0-1.52,0-2.28,0-.03,0-.07,0-.1,0,0,0-.01,0-.02,0,.03.02.07.02.1,0,.73,0,1.47,0,2.2,0,.03,0,.07-.01.1Z"/>
  <path class="cls-1" d="m12.93,1.44c0,.78,0,1.56,0,2.34,0,0,0,0,0,.01,0-.03-.02-.05-.02-.08,0-.73,0-1.46,0-2.19,0-.03.01-.05.02-.08Z"/>
  <path class="cls-1" d="m16.38,1.44c0,.78,0,1.56,0,2.34,0,0,0,0,0,.01,0-.03-.02-.06-.02-.09,0-.72,0-1.45,0-2.17,0-.03.01-.06.02-.09Z"/>
  <path class="cls-1" d="m14.49,2.48c.43,0,.86,0,1.29,0h.02s-.08.02-.12.02c-.52,0-1.05,0-1.57,0,.04,0,.09-.01.13-.02.08,0,.16,0,.24,0Z"/>
  <path class="cls-1" d="m12.33,3.84s0,.01.01.02c-.52,0-1.04,0-1.56,0-.04,0-.08-.01-.11-.02,0,0,.01,0,.02,0h1.64Z"/>
  <path class="cls-1" d="m15.79,2.69s0,.01,0,.02c-.52,0-1.05,0-1.57,0-.04,0-.07-.01-.11-.02.49,0,.98,0,1.47,0,.07,0,.14,0,.21,0Z"/>
  <path class="cls-1" d="m17.57,2.49s.05-.02.08-.02c.53,0,1.06,0,1.6,0-.04,0-.08.02-.12.02-.52,0-1.04,0-1.56,0Z"/>
  <path class="cls-1" d="m19.24,2.69s0,0,0,.01c-.52,0-1.03,0-1.55,0-.04,0-.07,0-.11-.01.37,0,.74,0,1.11,0,.18,0,.37,0,.55,0Z"/>
  <path class="cls-1" d="m12.93,3.79s0,0,0-.01c.53,0,1.06,0,1.6,0,.02,0,.04.01.06.02-.52,0-1.04,0-1.56,0-.03,0-.07,0-.1,0Z"/>
  <path class="cls-1" d="m16.38,3.79s0,0,0-.01c.51,0,1.03,0,1.54,0,.04,0,.08.01.11.02-.52,0-1.04,0-1.56,0-.03,0-.07,0-.1,0Z"/>
  <path class="cls-1" d="m10.68,3.84s-.01,0-.02,0c0-.38,0-.76,0-1.13,0-.02.01-.04.02-.06,0,0,0,0,0,.01,0,.39,0,.79,0,1.18Z"/>
  <path class="cls-1" d="m12.93,5.09s0,0,0,.01c0-.02-.01-.04-.01-.06,0-.33,0-.66,0-.99,0-.02.01-.04.02-.06,0,.03,0,.05,0,.08,0,.34,0,.67,0,1.01Z"/>
  <path class="cls-1" d="m19.24,2.48c0-.35,0-.69,0-1.04,0,.02.02.05.02.07,0,.3,0,.6,0,.89,0,.02-.01.05-.02.07Z"/>
  <path class="cls-1" d="m15.81,2.48h-.02c0-.35,0-.69,0-1.04,0,.03.02.05.02.08,0,.32,0,.64,0,.96Z"/>
  <path class="cls-1" d="m14.59,3.79s-.04-.01-.06-.02c0-.06.04-.07.09-.06.02,0,.05.04.05.06,0,.05-.02.08-.07.07,0-.02,0-.04,0-.06Z"/>
  <path class="cls-1" d="m17.82,13.06c0,.11-.01.21-.02.32,0,.15-.02.3-.03.45,0,.06,0,.13-.01.19-.02.14-.04.28-.06.42,0,.09,0,.18,0,.27,0,.06-.02.11-.03.17-.02.19-.04.38-.05.57-1.03,0-2.05,0-3.08,0v-2.4c1.06,0,2.12,0,3.18,0,.04,0,.07,0,.11.02Z"/>
</svg>