<?xml version="1.0" encoding="UTF-8"?>
<svg id="git" xmlns="http://www.w3.org/2000/svg" viewBox="0 0 30 30">
  <defs>
    <style>
      .cls-1 {
        fill: #fefefe;
      }
    </style>
  </defs>
  <path class="cls-1" d="m16.16,11.78c.33.33.62.64.93.94.4.4.79.8,1.2,1.18.14.13.18.26.15.45-.21,1.08.44,2.04,1.51,2.22,1.03.18,2.14-.66,2.06-1.79-.08-1.12-.86-1.89-1.96-1.78-.38.04-.57-.09-.8-.33-.6-.63-1.21-1.24-1.83-1.84-.24-.23-.35-.45-.31-.79.05-.46-.08-.89-.39-1.26-.44-.53-1-.77-1.69-.65-.19.03-.33,0-.47-.15-.76-.78-1.53-1.55-2.3-2.31-.11-.11-.12-.19-.01-.3.67-.66,1.33-1.33,2-1.98.47-.45,1.09-.54,1.64-.25.2.11.37.26.54.42,1.14,1.12,2.27,2.25,3.4,3.38,2.12,2.12,4.24,4.23,6.36,6.35.29.29.62.57.7,1,.09.48.05.94-.3,1.31-.96,1-1.93,2-2.91,2.98-2.37,2.36-4.76,4.72-7.14,7.07-.24.24-.5.46-.84.56-.48.14-.91.04-1.29-.26-.12-.09-.22-.2-.33-.3-3.28-3.27-6.57-6.55-9.85-9.82-.29-.28-.56-.58-.62-1-.07-.5.09-.93.45-1.29,1.85-1.84,3.69-3.67,5.53-5.51.42-.42.84-.84,1.25-1.26.13-.13.21-.14.34,0,.74.75,1.5,1.49,2.25,2.23.11.11.15.21.12.37-.15.79.05,1.46.71,1.96.05.04.09.08.15.1.19.05.2.18.2.34,0,.67,0,1.34,0,2.02,0,1.32,0,2.64,0,3.97,0,.14-.03.24-.17.32-.6.36-.94.9-.93,1.61.01.69.4,1.18.95,1.56.39.26.86.3,1.26.2.43-.1.84-.38,1.11-.79.53-.81.34-1.94-.46-2.53-.14-.1-.21-.21-.21-.38,0-1.96,0-3.91,0-5.87,0-.02.01-.04.04-.12Z"/>
</svg>