<?xml version="1.0" encoding="UTF-8"?>
<svg id="premiere" xmlns="http://www.w3.org/2000/svg" viewBox="0 0 30 30">
  <defs>
    <style>
      .cls-1 {
        fill: #fff;
      }
    </style>
  </defs>
  <path class="cls-1" d="m14.95,1.95c3.06,0,6.13.02,9.19,0,2.46-.02,4.52,2.03,4.5,4.63-.04,5.79-.02,11.57,0,17.36,0,2.56-1.96,4.6-4.53,4.58-5.22-.03-10.43,0-15.65,0-.86,0-1.72-.05-2.58,0-2.14.11-4.52-1.68-4.54-4.51-.01-1.79,0-3.59,0-5.38,0-3.97,0-7.93,0-11.9,0-2.17,1.06-3.83,2.95-4.49.54-.19,1.14-.26,1.71-.26,2.99-.02,5.97-.01,8.96-.01,0,0,0,0,0,0Zm-5.57,15.62c.74,0,1.39.01,2.03,0,1.34-.03,2.49-.51,3.32-1.56,1.07-1.36,1.32-2.88.59-4.48-.73-1.59-2.02-2.43-3.76-2.5-1.41-.06-2.83-.02-4.25-.02-.17,0-.34.06-.52.09v12.3h2.59v-3.83Zm13.79-5.88c-1.28-.05-2.25.54-3.21,1.32-.05-.42-.08-.71-.12-1.01h-2.46c.04,3.17-.04,6.28.04,9.4h2.5c0-.29,0-.54,0-.79,0-1.46.02-2.92,0-4.39-.01-.87.42-1.37,1.19-1.63.33-.11.68-.17,1.03-.23.34-.06.68-.09,1.03-.14v-2.54Z"/>
  <path class="cls-1" d="m9.41,15.25v-3.87c.56-.17,2-.15,2.46.04.76.3,1.31,1.19,1.24,1.99-.08.92-.72,1.69-1.64,1.82-.66.09-1.34.02-2.06.02Z"/>
</svg>