<?xml version="1.0" encoding="UTF-8"?>
<svg id="illustrator" xmlns="http://www.w3.org/2000/svg" viewBox="0 0 30 30">
  <defs>
    <style>
      .cls-1 {
        fill: #fff;
      }
    </style>
  </defs>
  <path class="cls-1" d="m15,2.33c3,0,5.99-.02,8.99,0,2.03.02,3.68,1.39,4.13,3.35.08.35.1.73.1,1.09,0,5.64.01,11.28,0,16.92,0,2.64-1.74,4.4-4.38,4.41-4.67.03-9.33,0-14,0-1.2,0-2.41-.03-3.61,0-2.85.08-4.49-2.27-4.48-4.44.04-4.95.02-9.9.02-14.86,0-.66.02-1.33-.01-1.99-.14-2.45,2.02-4.61,4.55-4.54,2.9.08,5.8.02,8.69.02,0,0,0,0,0,.01Zm-4.15,16.57h4.27c.34.98.67,1.92.99,2.85h2.83c-1.47-4.1-2.91-8.12-4.36-12.15h-3.17c-.2.72-.36,1.41-.59,2.07-1.12,3.14-2.25,6.27-3.38,9.4-.08.21-.14.43-.22.7h2.64c.33-.96.66-1.9.99-2.87Zm9.27-6.35v9.19h2.46c.09-3.11.01-6.15.02-9.19h-2.48Zm1.26-3.92c-.8-.02-1.46.61-1.48,1.42-.03.81.58,1.47,1.39,1.51.83.04,1.52-.62,1.53-1.45,0-.78-.65-1.46-1.43-1.48Z"/>
  <path class="cls-1" d="m14.37,16.43h-2.76c.02-.16.03-.28.06-.4.39-1.34.79-2.67,1.25-4.02.58,1.41.95,2.88,1.46,4.42Z"/>
</svg>