<?xml version="1.0" encoding="UTF-8"?>
<svg id="indesign" xmlns="http://www.w3.org/2000/svg" viewBox="0 0 30 30">
  <defs>
    <style>
      .cls-1 {
        fill: #fff;
      }
    </style>
  </defs>
  <path class="cls-1" d="m14.87,28.53c-3.01,0-6.02,0-9.03,0-1.92,0-3.25-.95-4.1-2.63-.35-.7-.4-1.45-.39-2.22,0-3.08.01-6.16.01-9.24,0-2.53,0-5.05-.02-7.58,0-1.12.18-2.15.88-3.07.92-1.21,2.12-1.83,3.65-1.83,5.19,0,10.37,0,15.56-.01.91,0,1.82-.02,2.73.01,2.69.09,4.46,1.92,4.47,4.63.01,3.94,0,7.88,0,11.82,0,1.79-.03,3.59,0,5.38.07,3.13-2.18,4.77-4.73,4.74-3.01-.03-6.02,0-9.03,0h0Zm4.14-16.36c-.33.02-.6.03-.87.04-.45.02-.91,0-1.36.05-2.12.26-3.68,2.01-3.7,4.13,0,.5,0,1.01.01,1.51.03,1.94,1.18,3.55,3.05,4.05,1.62.43,3.26.32,4.86-.21.66-.22.76-.41.76-1.13,0-3.89,0-7.78,0-11.66,0-.19-.04-.38-.07-.58h-2.67v3.79Zm-8.06,9.94v-12.61h-2.71c-.01,4.23-.02,8.42,0,12.61h2.71Z"/>
  <path class="cls-1" d="m18.95,14.52v5.22c-1.5.38-2.72-.17-3.13-1.4-.24-.73-.24-1.51-.03-2.24.26-.89.9-1.46,1.84-1.58.41-.05.84,0,1.32,0Z"/>
</svg>