<?xml version="1.0" encoding="UTF-8"?>
<svg id="html" xmlns="http://www.w3.org/2000/svg" viewBox="0 0 30 30">
  <defs>
    <style>
      .cls-1 {
        fill: #fff;
      }
    </style>
  </defs>
  <path class="cls-1" d="m19.44,2s0,.07,0,.11c0,1.04,0,2.08,0,3.12v.13h-1.12v-1.6s-.02,0-.03,0c-.25.38-.5.76-.76,1.16-.26-.4-.51-.78-.75-1.16,0,0-.02,0-.03,0,0,.13,0,.26,0,.39,0,.13,0,.27,0,.4v.4c0,.13,0,.27,0,.4-.09.03-.87.04-1.09.01,0-.02,0-.04,0-.07,0-1.08,0-2.17,0-3.25,0-.01,0-.02,0-.04.39,0,.78,0,1.17,0,.24.39.47.78.72,1.18.25-.41.48-.8.72-1.18.39,0,.78,0,1.17,0Z"/>
  <path class="cls-1" d="m11.57,2v3.36h-1.12v-1.11h-1.02c-.01.12,0,.24,0,.36,0,.13,0,.25,0,.38v.38c-.38,0-.74,0-1.12,0,0-.04,0-.08,0-.11,0-1.05,0-2.09,0-3.14,0-.04,0-.07.01-.11.37,0,.75,0,1.12,0-.01.37,0,.73,0,1.11.35,0,.69,0,1.03,0v-1.11h1.12Z"/>
  <path class="cls-1" d="m15.18,2s0,.09,0,.13c0,.28,0,.56,0,.84,0,.04,0,.09,0,.14h-.99c0,.16,0,.31,0,.45,0,.15,0,.29,0,.44v.89c0,.15,0,.3,0,.45-.1.03-.95.03-1.12,0v-2.23h-1v-1.12c1.04,0,2.08,0,3.12,0Z"/>
  <path class="cls-1" d="m21.12,2s0,.1,0,.15c0,.65,0,1.3,0,1.95v.16h1.57v1.09c-.08.02-2.48.03-2.7,0v-.14c0-1.02,0-2.05,0-3.07,0-.05,0-.1,0-.15.37,0,.75,0,1.12,0Z"/>
  <path class="cls-1" d="m8.26,24.94c-.54-6.02-1.07-12.02-1.61-18.03h17.68c-.54,6.02-1.07,12.02-1.61,18.03-.21.06-.42.12-.63.18-2.17.6-4.34,1.2-6.51,1.8-.07.02-.13.02-.2,0-2.34-.65-4.67-1.3-7.01-1.95-.04,0-.07-.02-.12-.03Zm4.6-6.54h-2.22c.1,1.16.21,2.3.31,3.46.05.01.09.03.13.04,1.43.4,2.87.8,4.3,1.2.07.02.14.02.21,0,1.43-.4,2.87-.8,4.3-1.19.04-.01.08-.03.13-.04.2-2.26.4-4.52.61-6.79-1.35,0-2.69,0-4.03,0-1.34,0-2.68,0-4.03,0-.07-.76-.13-1.51-.2-2.27.27,0,.53,0,.78,0h.77c.26,0,.51,0,.77,0,.26,0,.51,0,.77,0,.26,0,.51,0,.77,0,.26,0,.52,0,.78,0h2.3c.26,0,.51,0,.77,0,.25,0,.51,0,.77,0,.07-.74.13-1.46.2-2.19-.02,0-.03-.01-.05-.01-3.65,0-7.29,0-10.94,0-.02,0-.05,0-.07,0,0,0,0,0,0,0,0,0,0,0-.01.01.2,2.21.4,4.43.59,6.66h4.09c.17,0,.34,0,.51,0,.17,0,.34,0,.51,0,.17,0,.34,0,.51,0h1.01c.17,0,.34,0,.51,0,.17,0,.34,0,.52,0-.09.97-.17,1.92-.26,2.86-.02.01-.04.02-.05.02-.78.21-1.57.42-2.35.63-.05.01-.11,0-.15,0-.77-.21-1.54-.41-2.3-.62-.03,0-.05-.02-.08-.03-.05-.58-.1-1.16-.16-1.74Z"/>
</svg>