<?xml version="1.0" encoding="UTF-8"?>
<svg id="css" xmlns="http://www.w3.org/2000/svg" viewBox="0 0 30 30">
  <defs>
    <style>
      .cls-1 {
        fill: #fafcfc;
      }
    </style>
  </defs>
  <path class="cls-1" d="m3,3v24h24V3H3Zm13,18.86c-.11,2.33-1.49,3.47-3.48,3.47-1.8,0-2.84-.93-3.37-2.06h0l1.83-1.11c.35.63.62,1.16,1.39,1.16.64,0,1.17-.29,1.63-1.41v-7.9h2v7.86Zm5.19,3.41c-2.09,0-3.44-.94-4.1-2.24h0l1.83-1.06c.48.79,1.11,1.31,2.22,1.31.93,0,1.47-.41,1.47-1.06,0-.77-.56-1.04-1.59-1.5l-.56-.24c-1.62-.69-2.7-1.56-2.7-3.39,0-1.69,1.28-2.92,3.29-2.92,1.43,0,2.46.44,3.2,1.75l-1.75,1.13c-.39-.69-.8-.96-1.45-.96s-1.08.42-1.08.96c0,.67.42.95,1.38,1.37l.56.24c1.91.82,2.99,1.66,2.99,3.53,0,2.02-1.59,3.08-3.73,3.08Z"/>
</svg>