<?xml version="1.0" encoding="UTF-8"?>
<svg id="wordpress" xmlns="http://www.w3.org/2000/svg" viewBox="0 0 30 30">
  <defs>
    <style>
      .cls-1 {
        fill: #fff;
      }
    </style>
  </defs>
  <path class="cls-1" d="m14.94,28.51c-7.36-.04-13.31-6.04-13.2-13.43C1.84,7.75,7.8,1.94,15.07,1.99c7.32.05,13.27,6,13.16,13.43-.11,7.41-6.08,13.09-13.29,13.09Zm7.85-21.98c-3.01-2.56-6.39-3.48-10.18-2.74-3.1.61-5.5,2.32-7.27,4.94.13.05.25.05.36.05,1.1-.04,2.19-.07,3.29-.11.41-.02.62.18.57.55-.04.29-.24.41-.5.44-.38.04-.76.08-1.17.12,1.4,4.17,2.79,8.3,4.2,12.49.06-.16.1-.24.13-.33.72-2.2,1.44-4.4,2.18-6.6.14-.41.14-.77-.02-1.18-.52-1.39-1.01-2.8-1.52-4.2-.04-.1-.19-.19-.31-.21-.29-.05-.58-.05-.87-.09-.44-.06-.52-.18-.49-.6.02-.38.28-.41.57-.41.15,0,.3.01.45.02,1.1.04,2.19.09,3.29.1.78,0,1.56-.08,2.34-.11.32-.01.56.18.6.46.03.23-.2.49-.5.54-.18.03-.37.04-.56.06-.23.02-.46.04-.71.06,1.4,4.16,2.77,8.26,4.15,12.37.03,0,.06,0,.09,0,.06-.24.11-.48.19-.72.47-1.54.96-3.07,1.41-4.61.31-1.06.54-2.16.23-3.24-.25-.85-.67-1.66-1.04-2.47-.25-.54-.59-1.04-.8-1.59-.45-1.2.14-2.48,1.28-2.85.17-.06.35-.08.62-.13Zm-4.01,19.79c-1.21-3.32-2.39-6.56-3.6-9.9-.42,1.24-.81,2.39-1.2,3.53-.71,2.06-1.43,4.11-2.15,6.16-.08.22-.13.39.19.47,1.63.38,3.27.48,4.93.19.61-.11,1.21-.3,1.83-.45ZM4.29,10.6c-2.64,5.96.37,12.71,5.49,15.08-1.83-5.02-3.65-10.02-5.49-15.08Zm21.04-.67c.14,1.27-.09,2.97-.56,4.3-1.23,3.54-2.46,7.07-3.68,10.61-.04.12-.07.25-.12.42,5.66-3.37,7.04-10.56,4.36-15.34Z"/>
</svg>