<?xml version="1.0" encoding="utf-8"?>
<!-- Generator: Adobe Illustrator 27.3.1, SVG Export Plug-In . SVG Version: 6.00 Build 0)  -->
<svg version="1.1" xmlns="http://www.w3.org/2000/svg" xmlns:xlink="http://www.w3.org/1999/xlink" x="0px" y="0px"
	 viewBox="0 0 216 56.5" style="enable-background:new 0 0 216 56.5;" xml:space="preserve">
<style type="text/css">
	.st0{display:none;}
	.st1{display:inline;fill:#E75653;}
	.st2{fill:#FFFFFF;}
	.st3{font-family:'BigNoodleTitling';}
	.st4{font-size:38.9939px;}
	.st5{fill:#BC4646;}
	.st6{fill:#E75653;}
	.st7{opacity:0.63;fill:#FFFFFF;}
</style>
<g id="Layer_2" class="st0">
	<rect x="-3" y="-7" class="st1" width="222" height="69"/>
</g>
<g id="Layer_1">
	<text transform="matrix(1 0 0 1 40.7715 42.1611)" class="st2 st3 st4">Ivan Berlanga</text>
	<g>
		<path class="st2" d="M35.99,37.03c0,8.46-6.86,15.32-15.32,15.32S5.36,45.49,5.36,37.03S22.47,2.35,22.35,3.01
			C20.25,14.27,35.99,28.57,35.99,37.03z"/>
		<g>
			<path class="st5" d="M34.08,36.25c0,7.4-6,13.41-13.41,13.41s-13.41-6-13.41-13.41S22.25,5.89,22.14,6.47
				C20.3,16.33,34.08,28.85,34.08,36.25z"/>
			<g>
				<defs>
					<path id="SVGID_1_" d="M21.68,4.68h18.96v52.29l-24.56-0.25c0,0-7.43-21.05,2.99-27.8C25.57,24.71,21.45,11.52,21.68,4.68z"/>
				</defs>
				<clipPath id="SVGID_00000178171621065628590500000018377908088245235892_">
					<use xlink:href="#SVGID_1_"  style="overflow:visible;"/>
				</clipPath>
			</g>
		</g>
		<path class="st6" d="M22.05,6.56c0.05-0.28-3.88,8.39-4.14,11.48s0.85,6.81,0.85,9.43c0,6.54-4.68,11.98-10.88,13.16
			c1.79,5.29,6.8,9.11,12.7,9.11c7.4,0,13.41-6,13.41-13.41C34,28.93,20.22,16.41,22.05,6.56z"/>
		<path class="st7" d="M28.86,38.34c0.12,6.85-5.71,8.81-9.4,8.81s-6.84-2.96-7.14-6.64c-0.33-4.09,2.42-6.01,1.34-12.53
			c0.58,0.25,3.26,1.34,4.84,6.77c0.11,0.36,0.5,1.17,0.5,1.17s4.87-4.93,2.71-11.4C21.68,24.39,28.78,33.58,28.86,38.34z"/>
	</g>
</g>
</svg>
