<?xml version="1.0" encoding="utf-8"?>
<!-- Generator: Adobe Illustrator 27.3.1, SVG Export Plug-In . SVG Version: 6.00 Build 0)  -->
<svg version="1.1" id="Layer_1" xmlns="http://www.w3.org/2000/svg" xmlns:xlink="http://www.w3.org/1999/xlink" x="0px" y="0px"
	 viewBox="0 0 216 56.5" style="enable-background:new 0 0 216 56.5;" xml:space="preserve">
<style type="text/css">
	.st0{display:none;}
	.st1{display:inline;fill:#E75653;}
	.st2{enable-background:new    ;}
	.st3{fill:#FFFFFF;}
	.st4{fill:#BC4646;}
	.st5{fill:#E75653;}
	.st6{opacity:0.63;enable-background:new    ;}
</style>
<g id="Layer_2_00000023971730210026624820000000759283790032667010_" class="st0">
	<rect x="-3" y="-7" class="st1" width="222" height="69"/>
</g>
<g id="Layer_1_00000106842877235316882290000011543060932109905086_">
	<g class="st2">
		<path class="st3" d="M44.8,41.1V15.5h3.4v25.6H44.8z"/>
		<path class="st3" d="M62.6,15.5l-4.1,25.6h-4l-4.1-25.6h3.4l2.7,19.6l2.7-19.6C59.2,15.5,62.6,15.5,62.6,15.5z"/>
		<path class="st3" d="M67.4,41.1H64V19.9c0-2.9,1.4-4.4,4.1-4.4h2.6c2.7,0,4.1,1.5,4.1,4.4v21.2h-3.4v-9.4h-3.9L67.4,41.1
			L67.4,41.1z M71.4,28.6v-8.5c0-1-0.5-1.5-1.5-1.5H69c-1,0-1.5,0.5-1.5,1.5v8.5H71.4z"/>
		<path class="st3" d="M84.9,27.8V15.5h3.4v25.6h-3.4V36l-3.7-11.7V41h-3.4V15.4h3.4L84.9,27.8z"/>
		<path class="st3" d="M105.2,27.9c1.9,0.5,2.8,1.5,2.8,2.9v6.4c0,2.6-1.3,3.8-3.8,3.8h-6.9V15.5h5.9c3,0,4.6,1.6,4.6,4.7v4.9
			C107.8,26.6,107,27.5,105.2,27.9L105.2,27.9L105.2,27.9z M100.7,26.3h1.6c1.3,0,1.9-0.6,1.9-1.8v-4c0-1.3-0.5-1.8-1.6-1.8h-2
			C100.7,18.6,100.7,26.3,100.7,26.3z M100.7,38h2.6c0.9,0,1.4-0.4,1.4-1.1v-5.7c0-1.2-0.6-1.8-2-1.8h-1.9
			C100.7,29.4,100.7,38,100.7,38z"/>
		<path class="st3" d="M110.9,41.1V15.5h8.5v3.1h-5v7.8h4.5v3.1h-4.5V38h5v3.1H110.9z"/>
		<path class="st3" d="M121.9,15.5h6.7c2.7,0,3.9,1.5,3.9,4.4v6.3c0,2.2-0.6,3.7-2,4.2l2.4,10.7h-3.2l-2.3-10.3h-2.1v10.3h-3.4
			L121.9,15.5L121.9,15.5z M125.3,27.8h2.3c1,0,1.6-0.6,1.6-1.8v-5.5c0-1.3-0.5-1.8-1.6-1.8h-2.3V27.8z"/>
		<path class="st3" d="M143.5,41.1h-8.1V15.5h3.4V38h4.7L143.5,41.1L143.5,41.1z"/>
		<path class="st3" d="M148.7,41.1h-3.4V19.9c0-2.9,1.4-4.4,4.1-4.4h2.6c2.7,0,4.1,1.5,4.1,4.4v21.2h-3.4v-9.4h-4V41.1z M152.7,28.6
			v-8.5c0-1-0.5-1.5-1.5-1.5h-0.9c-1,0-1.5,0.5-1.5,1.5v8.5H152.7z"/>
		<path class="st3" d="M166.2,27.8V15.5h3.4v25.6h-3.4V36l-3.7-11.7V41h-3.4V15.4h3.4L166.2,27.8z"/>
		<path class="st3" d="M178.1,31.7v-3.1h5.2V41h-6.7c-2.7,0-3.9-1.5-3.9-4.3V19.9c0-2.9,1.3-4.4,3.9-4.4h2.4c2.9,0,4.4,1.5,4.4,4.5
			v2.7H180v-2.3c0-1.3-0.5-1.8-1.5-1.8h-0.8c-1,0-1.5,0.6-1.5,1.8v15.7c0,1.3,0.5,1.8,1.5,1.8h2.3v-6.3
			C180,31.7,178.1,31.7,178.1,31.7z"/>
		<path class="st3" d="M189.4,41.1H186V19.9c0-2.9,1.4-4.4,4.1-4.4h2.6c2.7,0,4.1,1.5,4.1,4.4v21.2h-3.4v-9.4h-3.9L189.4,41.1
			L189.4,41.1z M193.3,28.6v-8.5c0-1-0.5-1.5-1.5-1.5h-0.9c-1,0-1.5,0.5-1.5,1.5v8.5H193.3z"/>
	</g>
	<g>
		<g>
			<path class="st3" d="M36,37c0,8.5-6.9,15.3-15.3,15.3S5.4,45.5,5.4,37s17.1-34.7,17-34C20.2,14.3,36,28.6,36,37z"/>
		</g>
		<g>
			<g>
				<path class="st4" d="M34.1,36.2c0,7.4-6,13.4-13.4,13.4s-13.4-6-13.4-13.4s15-30.4,14.9-29.8C20.3,16.3,34.1,28.9,34.1,36.2z"/>
			</g>
		</g>
		<g>
			<path class="st5" d="M22,6.6c0-0.3-3.9,8.4-4.1,11.5s0.9,6.8,0.9,9.4c0,6.5-4.7,12-10.9,13.2c1.8,5.3,6.8,9.1,12.7,9.1
				c7.4,0,13.4-6,13.4-13.4C34,28.9,20.2,16.4,22,6.6z"/>
		</g>
		<g class="st6">
			<path class="st3" d="M28.9,38.3c0.1,6.8-5.7,8.8-9.4,8.8s-6.8-3-7.1-6.6c-0.3-4.1,2.4-6,1.3-12.5c0.6,0.2,3.3,1.3,4.8,6.8
				C18.6,35.2,19,36,19,36s4.9-4.9,2.7-11.4C21.7,24.4,28.8,33.6,28.9,38.3z"/>
		</g>
	</g>
</g>
</svg>
