<?xml version="1.0" encoding="utf-8"?>
<!-- Generator: Adobe Illustrator 27.3.1, SVG Export Plug-In . SVG Version: 6.00 Build 0)  -->
<svg version="1.1" xmlns="http://www.w3.org/2000/svg" xmlns:xlink="http://www.w3.org/1999/xlink" x="0px" y="0px"
	 viewBox="0 0 41.1 56.5" style="enable-background:new 0 0 41.1 56.5;" xml:space="preserve">
<style type="text/css">
	.st0{display:none;}
	.st1{display:inline;fill:#E75653;}
	.st2{fill:#FFFFFF;}
	.st3{fill:#BC4646;}
	.st4{fill:#E75653;}
	.st5{opacity:0.63;enable-background:new    ;}
</style>
<g id="Layer_2">
</g>
<g id="Layer_1">
	<g id="Layer_2_00000023971730210026624820000000759283790032667010_" class="st0">
		<rect x="-3" y="-7" class="st1" width="222" height="69"/>
	</g>
	<g id="Layer_1_00000106842877235316882290000011543060932109905086_">
		<g>
			<g>
				<path class="st2" d="M36,37c0,8.5-6.9,15.3-15.3,15.3S5.4,45.5,5.4,37s17.1-34.7,17-34C20.2,14.3,36,28.6,36,37z"/>
			</g>
			<g>
				<g>
					<path class="st3" d="M34.1,36.2c0,7.4-6,13.4-13.4,13.4s-13.4-6-13.4-13.4s15-30.4,14.9-29.8C20.3,16.3,34.1,28.9,34.1,36.2z"
						/>
				</g>
			</g>
			<g>
				<path class="st4" d="M22,6.6c0-0.3-3.9,8.4-4.1,11.5s0.9,6.8,0.9,9.4c0,6.5-4.7,12-10.9,13.2c1.8,5.3,6.8,9.1,12.7,9.1
					c7.4,0,13.4-6,13.4-13.4C34,28.9,20.2,16.4,22,6.6z"/>
			</g>
			<g class="st5">
				<path class="st2" d="M28.9,38.3c0.1,6.8-5.7,8.8-9.4,8.8s-6.8-3-7.1-6.6c-0.3-4.1,2.4-6,1.3-12.5c0.6,0.2,3.3,1.3,4.8,6.8
					C18.6,35.2,19,36,19,36s4.9-4.9,2.7-11.4C21.7,24.4,28.8,33.6,28.9,38.3z"/>
			</g>
		</g>
	</g>
</g>
</svg>
