<?xml version="1.0" encoding="UTF-8"?>
<svg id="woo" xmlns="http://www.w3.org/2000/svg" viewBox="0 0 30 30">
  <defs>
    <style>
      .cls-1 {
        fill: #fff;
      }
    </style>
  </defs>
  <path class="cls-1" d="m18.21,20.87c.36.89.72,1.76,1.1,2.69-.16-.09-.28-.15-.4-.22-1.35-.75-2.71-1.49-4.05-2.24-.27-.15-.55-.23-.86-.23-3.48.03-6.95.06-10.43.05-1.06,0-1.91-.47-2.4-1.45-.15-.31-.25-.68-.25-1.02-.03-3-.04-6-.05-8.99,0-1.26,1.01-2.37,2.26-2.48.3-.03.61-.04.91-.04,7.39-.04,14.78-.08,22.17-.12.99,0,1.84.32,2.39,1.2.27.42.4.88.41,1.38.02,2.93.06,5.87.04,8.8,0,1.31-.84,2.37-2.27,2.57-.18.02-.36.04-.54.04-2.63.01-5.27.03-7.9.04-.03,0-.07.01-.11.02Zm-13.01-5.1s-.05-.02-.07-.02c0-.03-.02-.05-.03-.08-.21-.98-.43-1.95-.61-2.93-.19-.96-.33-1.94-.51-2.9-.13-.69-.44-.94-1.08-.87-.44.04-.82.36-.85.74-.02.22-.02.45.01.67.23,1.36.44,2.73.73,4.08.26,1.23.59,2.44.92,3.66.11.41.29.8.5,1.17.25.44.64.51,1.02.18.27-.23.54-.5.71-.81.71-1.32,1.38-2.66,2.06-4,.04-.08.08-.15.15-.28.15.42.27.78.4,1.14.44,1.25,1.06,2.4,1.91,3.41.2.23.45.44.72.59.48.27,1.01.05,1.16-.48.07-.24.04-.5.05-.75.04-.77.06-1.53.11-2.3.07-1.19.26-2.36.51-3.52.18-.85.35-1.7.75-2.48.11-.22.16-.45.14-.69-.02-.38-.32-.73-.73-.85-.39-.12-.84.02-1.04.34-.15.23-.29.47-.39.73-.55,1.39-.86,2.83-1.03,4.31-.05.41-.11.82-.17,1.28-.04-.07-.06-.09-.06-.12-.42-1.13-.74-2.3-.97-3.48-.05-.26-.15-.52-.26-.75-.16-.31-.51-.44-.85-.36-.38.09-.6.37-.77.69-.65,1.23-1.29,2.47-1.93,3.7-.17.33-.34.65-.5.98Zm22.42-2.31c0-.8-.17-1.56-.39-2.1-.74-1.75-2.55-2.04-3.65-1.59-.96.39-1.59,1.15-2.03,2.06-.34.71-.52,1.49-.59,2.28-.09.98.07,1.91.55,2.77.56,1,1.45,1.43,2.56,1.44.85,0,1.56-.37,2.11-1.01.97-1.13,1.43-2.47,1.45-3.85Zm-7.23.22c0-1.12-.12-1.65-.4-2.29-.68-1.58-2.43-2.11-3.79-1.53-.58.25-1.02.68-1.38,1.2-1.09,1.59-1.4,3.33-.84,5.17.7,2.29,3.37,2.88,4.98,1.1,1-1.11,1.41-2.48,1.44-3.65Z"/>
  <path class="cls-1" d="m25.64,13.21c.01-.33-.12-.82-.4-1.28-.2-.34-.57-.48-.92-.29-.24.13-.47.32-.64.53-.57.72-.79,1.57-.75,2.48.02.43.13.85.37,1.21.26.4.65.5,1.05.26.2-.12.4-.28.54-.46.51-.66.74-1.42.75-2.46Z"/>
  <path class="cls-1" d="m15.7,14.52c0,.51.13,1,.36,1.37.27.43.63.53,1.07.29.1-.05.19-.13.28-.2.75-.62,1.32-2.29.83-3.54-.14-.37-.31-.73-.74-.8-.44-.07-.75.2-1,.53-.53.7-.8,1.48-.8,2.36Z"/>
  <path class="cls-1" d="m25.64,13.21c0,1.04-.24,1.8-.75,2.46-.14.18-.34.34-.54.46-.4.24-.79.13-1.05-.26-.24-.37-.35-.78-.37-1.21-.04-.91.18-1.76.75-2.48.17-.21.4-.4.64-.53.34-.18.71-.05.92.29.27.46.41.95.4,1.28Z"/>
  <path class="cls-1" d="m15.7,14.52c0-.88.27-1.66.8-2.36.25-.33.56-.6,1-.53.43.07.6.44.74.8.49,1.26-.07,2.92-.83,3.54-.09.07-.18.15-.28.2-.45.24-.81.14-1.07-.29-.23-.37-.36-.86-.36-1.37Z"/>
</svg>