<?xml version="1.0" standalone="no"?>
<!DOCTYPE svg PUBLIC "-//W3C//DTD SVG 20010904//EN"
 "http://www.w3.org/TR/2001/REC-SVG-20010904/DTD/svg10.dtd">
<svg version="1.0" xmlns="http://www.w3.org/2000/svg"
 width="912.000000pt" height="912.000000pt" viewBox="0 0 912.000000 912.000000"
 preserveAspectRatio="xMidYMid meet">
<metadata>
Created by potrace 1.14, written by Peter Selinger 2001-2017
</metadata>
<g transform="translate(0.000000,912.000000) scale(0.100000,-0.100000)"
fill="#000000" stroke="none">
<path d="M4817 8588 c-15 -24 -47 -72 -72 -108 -50 -71 -65 -94 -170 -255 -40
-60 -72 -114 -73 -119 0 -5 -4 -12 -9 -15 -12 -8 -123 -179 -123 -189 0 -4
-11 -20 -25 -36 -14 -16 -25 -33 -25 -38 0 -5 -5 -14 -10 -21 -20 -22 -200
-318 -200 -328 0 -5 -4 -9 -9 -9 -5 0 -13 -10 -17 -22 -3 -12 -11 -26 -16 -32
-17 -20 -188 -308 -188 -317 0 -5 -3 -9 -8 -9 -4 0 -13 -15 -21 -32 -8 -18
-17 -35 -20 -38 -10 -8 -42 -64 -48 -82 -3 -10 -9 -18 -14 -18 -5 0 -9 -5 -9
-11 0 -6 -21 -46 -46 -88 -25 -42 -50 -83 -54 -91 -5 -8 -23 -40 -41 -70 -18
-30 -43 -75 -57 -100 -14 -25 -47 -83 -74 -129 -26 -46 -48 -85 -48 -87 0 -1
-22 -41 -50 -89 -27 -48 -50 -88 -50 -90 0 -1 -25 -46 -55 -99 -30 -53 -51
-96 -47 -96 4 0 2 -4 -4 -8 -6 -4 -41 -65 -79 -137 -37 -71 -80 -152 -95 -180
-15 -27 -69 -133 -120 -235 -50 -102 -96 -192 -100 -200 -13 -22 -64 -124 -65
-130 0 -3 -7 -16 -15 -30 -8 -14 -15 -27 -15 -30 -1 -3 -23 -50 -49 -105 -26
-55 -66 -140 -88 -190 -22 -49 -48 -108 -58 -130 -10 -22 -32 -74 -49 -115
-18 -41 -36 -84 -41 -95 -5 -11 -28 -67 -50 -125 -22 -58 -45 -114 -50 -125
-16 -36 -122 -347 -126 -370 -1 -5 -11 -41 -22 -80 -22 -73 -41 -151 -57 -235
-13 -66 -16 -82 -23 -138 -5 -34 -8 -95 -8 -136 1 -42 -3 -76 -7 -76 -5 0 -5
-4 -2 -10 3 -5 8 -40 10 -77 6 -92 14 -184 20 -213 3 -13 7 -40 10 -60 3 -20
8 -47 10 -60 3 -14 10 -47 15 -74 19 -93 104 -362 121 -381 5 -5 9 -15 9 -23
0 -12 104 -230 133 -277 12 -19 51 -83 72 -116 119 -192 338 -434 525 -583 47
-37 93 -74 103 -82 9 -8 20 -14 23 -14 5 0 64 -40 74 -50 10 -11 128 -80 205
-120 133 -70 392 -173 488 -195 12 -2 51 -12 87 -20 63 -15 73 -17 135 -28
200 -36 380 -46 600 -33 50 3 104 7 120 10 17 3 50 8 75 11 103 14 171 28 285
59 33 9 67 19 75 21 41 10 197 68 229 84 20 11 38 19 41 19 10 -1 163 74 224
109 51 30 205 129 241 155 117 86 337 290 423 392 52 61 172 225 172 234 0 6
4 12 9 14 9 3 33 41 72 113 12 22 27 43 33 47 6 4 7 8 3 8 -5 0 1 13 12 29 11
15 18 31 14 35 -3 3 -1 6 5 6 7 0 12 5 12 10 0 6 18 48 40 95 40 85 135 355
144 410 2 17 5 31 6 33 4 4 10 30 25 117 3 17 8 39 10 51 3 11 7 40 9 65 3 24
5 44 6 44 5 0 12 132 13 250 1 167 -6 239 -38 365 -8 30 -16 66 -19 80 -5 24
-49 157 -63 190 -3 8 -7 17 -7 20 -5 20 -42 109 -52 125 -7 11 -13 23 -14 27
-2 24 -127 284 -198 413 -55 98 -99 180 -121 220 -9 17 -19 32 -22 35 -3 3
-12 16 -19 30 -20 41 -184 315 -191 320 -3 3 -9 15 -13 28 -4 12 -12 22 -17
22 -5 0 -9 4 -9 10 0 5 -31 59 -70 121 -38 61 -70 113 -70 114 0 2 -13 24 -30
48 -16 25 -30 50 -30 56 0 6 -3 11 -8 11 -4 0 -22 26 -40 58 -42 73 -56 96
-63 102 -3 3 -20 32 -39 65 -19 33 -36 62 -40 65 -5 4 -135 221 -164 274 -6
11 -15 25 -19 30 -13 18 -77 128 -113 194 -43 79 -66 115 -79 124 -5 4 -7 8
-3 8 3 0 -25 57 -63 128 -134 243 -349 699 -349 737 0 8 -4 15 -10 15 -5 0 -9
3 -8 8 1 4 -4 20 -10 35 -7 16 -12 33 -12 38 0 5 -4 17 -9 27 -19 33 -93 261
-117 357 -4 17 -8 32 -9 35 -4 15 -16 68 -20 88 -2 13 -6 31 -9 40 -5 17 -10
40 -21 116 -4 21 -9 48 -11 60 -19 93 -26 475 -11 571 22 132 19 141 -26 73z"/>
</g>
</svg>
