<?xml version="1.0" encoding="UTF-8"?>
<svg id="Layer_1" data-name="Layer 1" xmlns="http://www.w3.org/2000/svg" viewBox="0 0 296 329">
  <defs>
    <style>
      .cls-1 {
        letter-spacing: -.08em;
      }

      .cls-2 {
        letter-spacing: -.04em;
      }

      .cls-3 {
        letter-spacing: -.02em;
      }

      .cls-4 {
        letter-spacing: -.03em;
      }

      .cls-5 {
        letter-spacing: 0em;
      }

      .cls-6 {
        letter-spacing: -.01em;
      }

      .cls-7 {
        fill: #00476b;
      }

      .cls-8 {
        fill: #fbfbfd;
      }

      .cls-9 {
        fill: #fed0ac;
      }

      .cls-10 {
        fill: #800952;
      }

      .cls-11 {
        fill: #98daf8;
      }

      .cls-12 {
        fill: #991763;
      }

      .cls-13 {
        fill: #dfdfde;
      }

      .cls-14 {
        fill: #808184;
      }

      .cls-15 {
        fill: #606364;
      }

      .cls-16 {
        fill: #4e5252;
      }

      .cls-17 {
        fill: rgba(101, 171, 181, .63);
      }

      .cls-18 {
        fill: rgba(79, 136, 144, .59);
      }

      .cls-19 {
        fill: rgba(88, 91, 92, .55);
      }

      .cls-20 {
        letter-spacing: -.01em;
      }

      .cls-21 {
        font-family: PTSans-Regular, 'PT Sans';
        font-size: 7.82px;
      }

      .cls-21, .cls-22 {
        fill: #fff;
      }

      .cls-23 {
        letter-spacing: -.01em;
      }

      .cls-22 {
        font-family: Montserrat-Bold, Montserrat;
        font-size: 13.46px;
        font-weight: 700;
      }

      .cls-24 {
        letter-spacing: .04em;
      }

      .cls-25 {
        letter-spacing: -.02em;
      }
    </style>
  </defs>
  <ellipse class="cls-14" cx="71.93" cy="300.67" rx="49.09" ry="7.09"/>
  <g>
    <path class="cls-10" d="m97.35,180.67s5.62,4.8,7.85,4.63,3.64-4.05,3.64-5.22-6.46-6.35-6.46-6.35l-4.03-3.29h-3.73l2.72,10.23Z"/>
    <g>
      <rect class="cls-13" x="110.83" y="157.44" width="1.1" height="23" transform="translate(215.25 -4.71) rotate(64.28)"/>
      <rect class="cls-15" x="110.35" y="156.46" width="1.1" height="23" transform="translate(214.09 -4.84) rotate(64.28)"/>
    </g>
    <polygon class="cls-15" points="121.02 162.47 127.64 162.96 127.64 163.66 121.5 163.46 121.02 162.47"/>
    <polygon class="cls-13" points="127.64 164.37 121.97 164.45 121.5 163.46 127.64 163.66 127.64 164.37"/>
    <polygon class="cls-13" points="101.25 174.43 115.8 170.44 127.64 164.37 122.39 163.46 100.78 173.44 101.25 174.43"/>
    <path class="cls-9" d="m103.67,172.97l2.29,1.35.94-2.88,5.17-2.29s.94,1.35,1,1.29,2.35-2.76,2.35-2.76c0,0,1.59-.94,1.76-.47s-3.29,7.17-4.47,8.11-4.52,4.47-5.52,4.52-3.11-.94-3.23-1.97-1.12-4.67-1.12-4.67l.82-.24Z"/>
    <path class="cls-7" d="m56.97,289.37s.44,3.76,3.5,7.29,2.82,4.7,2.82,4.7c0,0-8.93,1.88-11.52,0s-3.06-3.1-3.06-6.01-1.21-5.99-1.21-5.99l9.46.02Z"/>
    <path class="cls-12" d="m97.35,212.15s2.25,3.17,0,11.63c-2.25,8.46-8.87,51.11-8.87,51.11v20.45h-14.87l2.06-56.05,4.2-30.26,17.49,3.12Z"/>
    <polygon class="cls-7" points="49.89 286.32 46.13 297.83 48.95 297.83 51.53 295.35 49.89 286.32"/>
    <path class="cls-10" d="m90.27,210.27s-15.61,39.5-16.68,41.32-8.41,17.68-8.41,17.68l-6.05,22.56-11.63-2.47s3.17-24.21,5.64-29.55,9.52-21.56,9.52-21.56v-8.46l1.67-3.53v-6.7l.86-9.29h25.09Z"/>
    <path class="cls-7" d="m82.05,301.77c-.24,0-9.09.07-9.09.07l.64-7.82,14.87-.43s0,2.94,3.45,3.56,8.93.71,9.56,2.12,0,2.19,0,2.19l-16.29,1.1-2.43-3.6-.71,2.82Z"/>
    <rect x="93.77" y="119.7" width="1.5" height="18.22" rx=".75" ry=".75" transform="translate(-65.23 131.35) rotate(-54.64)"/>
    <path class="cls-10" d="m63.02,135.36s3.75-3.58,4.07-4.68,2.74-1.33,2.74-1.33l13.94,3.45.33,3.21s11.35,13.16,12.44,16.14c1.1,2.98,2.43,7.99,2,10.89s1.29,21.93,1.06,25.69.71,26.48.71,26.48c-1.72-.24-36.5-.16-37.68-.55-1.8-.78-1.72-.16-1.49-2.35s5.95-19.27,5.56-24.21c-.39-4.94,1.18-12.22-.86-16.61s-8.3-13.4-8.54-17.86-1.98-14.17,1.24-16.33c3.22-2.16,4.48-1.95,4.48-1.95Z"/>
    <path class="cls-12" d="m92.19,215.11c.54-3.88,2.44-44.68,2.44-44.68l-10.52-34.43,13.25,18.58,1,4.26s1.23,22.45,1.23,27.07c0,6.61.72,29.28.72,29.28l-8.12-.09Z"/>
    <path class="cls-9" d="m93.25,140.95s3.13-3.6,3.68-4.86c0,0,1.72-2.12,1.57-3.13s-1.02-3.6-1.02-3.6c0,0,1.27.39,1.03,0s-.91-2.43-2.61-2.51c-1.7-.08-5.39,1.96-5.62,2.51s-.54,5.56-.66,6.89-1.14,4.7-1.14,4.7l3.84,1.1.94-1.1Z"/>
    <polygon class="cls-8" points="76.35 132.22 84.88 148.7 83.77 132.8 81.58 134.52 76.35 132.22"/>
    <polygon class="cls-7" points="80.99 138.83 82.52 150.09 86.98 148 83.34 137.46 80.99 138.83"/>
    <path class="cls-10" d="m83.91,173.44l-.18.25c-2.6,3.62-6.86,3.62-9.46,0l-11.73-11.11c-5.93-8.19-6.79-20.62-4.19-24.24l.18-.25c2.6-3.62,10.78-3.17,15.06,3.97l8.42,20.5c2.6,3.62,4.49,7.27,1.89,10.9Z"/>
    <path class="cls-10" d="m93.98,143.99l.19.23c2.35,2.75,4.34,4.65,2.37,7.93l-12.89,21.7c-1.97,3.28-5.51,3.72-7.86.97l-.19-.23c-2.35-2.75-2.67-7.68-.7-10.96l12.91-22.78c1.97-3.28,3.82.39,6.17,3.14Z"/>
    <path class="cls-9" d="m69.83,129.35l11.75,5.17c1.01.72,3.85-4.31,4.54-5.17.99-1.24,3.69-.16,3.49-1.49-.2-1.33-.51-7.68-.51-7.68,0,0,1.18-.08,1.18-1.02s-3.29-3.68-3.29-3.68c0,0-.16-2.82,0-3.06s-3.29-5.01-3.29-5.01c0,0-11.36-2.9-13.87,1.02s-4.45,6.76-4.62,8.85.71,4.3.71,4.3l3.91,7.76Z"/>
    <path class="cls-16" d="m76.1,110.39s-1.49,5.56,0,8.07l1.41,2.04-2.07,1.25-4.3-2.84s-1.7-1.47-2.32.64c-.63,2.12,3.37,6.97,3.37,6.97l-2.46,1.68s-6.24-8.81-5.3-13.43c0,0,3.6-9.32,13.08-9.71,9.48-.39,9.48,2.19,9.48,2.19l-2.88,1.1-8,2.04Z"/>
    <path class="cls-8" d="m76.35,132.22l-6.52-2.87s-.89,1.27-.31,2.43c.86,1.72,11.1,8.68,11.1,8.68l.96-5.94-5.23-2.3Z"/>
    <path class="cls-7" d="m82.23,134.44s.97-.04,1.35.46.61,3.76.61,3.76c0,0-1.29,1.79-2.43,1.79s-1.9-.52-1.9-.52c0,0,.27-3.22.76-4.05s1.61-1.45,1.61-1.45Z"/>
  </g>
  <g>
    <path class="cls-11" d="m159.2,62.41s-16.32,7.01-20.05,10.59c-3.74,3.59-6.59,7.53-6.59,7.53,0,0-.01-8.9,5.35-16.45s20.01-10.92,20.01-10.92l1.29,9.24Z"/>
    <path class="cls-11" d="m201.85,22.39c31.62,0,78.97,35.61,68.29,56.52-14.4,28.2-35.37,37.4-66.99,37.4s-57.26-7.53-57.26-42.52c0-40.79,24.34-51.4,55.97-51.4Z"/>
  </g>
  <path class="cls-18" d="m211.93,100.86c-30.55,0-56.06,0-60.42,29.72-6.51-1.12-15.36-2.93-19.05-5,0,0,3.32,7.25,6.79,8.87,2.64,1.23,7.4,3.34,11.6,5.19,0,.41,0,.81,0,1.23.14,22.09,27.34,40.01,61.07,40.01s61.07-8.7,61.07-30.79-27.34-49.22-61.07-49.22Z"/>
  <text class="cls-21" transform="translate(167.73 77.98)"><tspan x="0" y="0">Optimizing pro</tspan><tspan class="cls-3" x="49.99" y="0">c</tspan><tspan x="53.34" y="0">esses </tspan><tspan class="cls-23" x="73.24" y="0">f</tspan><tspan x="75.65" y="0">or </tspan><tspan x="0" y="9.38">ef</tspan><tspan class="cls-23" x="6.47" y="9.38">fe</tspan><tspan x="12.76" y="9.38">cti</tspan><tspan class="cls-23" x="21.03" y="9.38">v</tspan><tspan x="24.71" y="9.38">e organization</tspan></text>
  <text class="cls-22" transform="translate(167.73 66.22)"><tspan x="0" y="0">What</tspan></text>
  <path class="cls-17" d="m211.49,149.8c-27.53,0-50.4,23.24-57.22,42.91-7.03.42-19.33.67-21.71-2.59,0,0-2.07,13.56,13.32,13.1,2.45-.07,4.54-.2,6.32-.37-.01.32-.02.63-.02.95,0,20.61,26.75,37.32,59.74,37.32s59.74-16.71,59.74-37.32-27.19-54-60.18-54Z"/>
  <text class="cls-21" transform="translate(167.73 139.74)"><tspan x="0" y="0">Hammer &amp; Cham</tspan><tspan class="cls-20" x="57.96" y="0">p</tspan><tspan class="cls-2" x="62.09" y="0">y</tspan><tspan x="65.45" y="0"> </tspan><tspan x="0" y="9.38">Approach + Mathera Matri</tspan><tspan class="cls-4" x="86.73" y="9.38">x</tspan><tspan x="90.52" y="9.38"> </tspan><tspan x="0" y="18.76">Methode </tspan></text>
  <text class="cls-22" transform="translate(167.73 127.98)"><tspan x="0" y="0">H</tspan><tspan class="cls-6" x="10.87" y="0">o</tspan><tspan x="19.48" y="0">w</tspan></text>
  <path class="cls-19" d="m211.49,210.27c-27.53,0-50.4,23.24-57.22,42.91-7.03.42-19.33.67-21.71-2.59,0,0-2.07,13.56,13.32,13.1,2.45-.07,4.54-.2,6.32-.37-.01.32-.02.63-.02.95,0,20.61,26.75,37.32,59.74,37.32s59.74-16.71,59.74-37.32-27.19-54-60.18-54Z"/>
  <text class="cls-21" transform="translate(167.73 263.95)"><tspan x="0" y="0">Bet</tspan><tspan class="cls-23" x="11.19" y="0">t</tspan><tspan x="13.75" y="0">er analysis</tspan><tspan class="cls-1" x="49.1" y="0">,</tspan><tspan x="50.02" y="0"> </tspan><tspan x="0" y="9.38">impr</tspan><tspan class="cls-20" x="15.33" y="9.38">o</tspan><tspan class="cls-23" x="19.43" y="9.38">v</tspan><tspan x="23.11" y="9.38">ements and sp</tspan><tspan class="cls-23" x="71.67" y="9.38">e</tspan><tspan x="75.56" y="9.38">cif</tspan><tspan class="cls-2" x="83.67" y="9.38">y</tspan><tspan x="87.03" y="9.38"> </tspan><tspan class="cls-3" x="0" y="18.76">c</tspan><tspan x="3.35" y="18.76">osts and benefits</tspan></text>
  <text class="cls-22" transform="translate(167.73 250.19)"><tspan x="0" y="0">Resu</tspan><tspan class="cls-24" x="34.77" y="0">l</tspan><tspan x="39.34" y="0">t </tspan></text>
  <text class="cls-21" transform="translate(167.73 203.49)"><tspan class="cls-25" x="0" y="0">C</tspan><tspan x="4.33" y="0">rea</tspan><tspan class="cls-23" x="14.84" y="0">t</tspan><tspan x="17.4" y="0">e the reall</tspan><tspan class="cls-2" x="51.52" y="0">y</tspan><tspan x="54.88" y="0" xml:space="preserve"> n</tspan><tspan class="cls-23" x="61.24" y="0">e</tspan><tspan class="cls-3" x="65.13" y="0">c</tspan><tspan x="68.47" y="0">essar</tspan><tspan class="cls-2" x="85.56" y="0">y</tspan><tspan x="88.92" y="0"> </tspan><tspan x="0" y="9.38">pro</tspan><tspan class="cls-3" x="11.08" y="9.38">c</tspan><tspan x="14.42" y="9.38">esses and pro</tspan><tspan class="cls-3" x="59.85" y="9.38">c</tspan><tspan x="63.2" y="9.38">ess </tspan><tspan x="0" y="18.76">s</tspan><tspan class="cls-23" x="3.29" y="18.76">t</tspan><tspan x="5.86" y="18.76">eps</tspan><tspan class="cls-1" x="17.35" y="18.76">.</tspan></text>
  <text class="cls-22" transform="translate(167.73 189.72)"><tspan x="0" y="0">G</tspan><tspan class="cls-5" x="10.38" y="0">o</tspan><tspan x="19.07" y="0">al </tspan></text>
</svg>