<?xml version="1.0" encoding="utf-8"?>
<!-- Generator: Adobe Illustrator 27.3.1, SVG Export Plug-In . SVG Version: 6.00 Build 0)  -->
<svg version="1.1" xmlns="http://www.w3.org/2000/svg" xmlns:xlink="http://www.w3.org/1999/xlink" x="0px" y="0px"
	 viewBox="0 0 636 976" style="enable-background:new 0 0 636 976;" xml:space="preserve">
<style type="text/css">
	.st0{fill:#3F3239;}
	.st1{fill:#A83D75;}
	.st2{fill:#FFFFFF;}
	.st3{clip-path:url(#SVGID_00000116204788195358167220000014400084610821311397_);}
	.st4{fill:#0D8F2F;}
	.st5{fill:#FFC285;}
	.st6{fill:#FF7D52;}
	.st7{fill:#330424;}
	.st8{fill:#170210;}
	.st9{fill:#821F0E;}
	.st10{fill:#B51610;}
	.st11{fill:#064517;}
	.st12{fill:#4A0907;}
	.st13{fill:#F5DB16;}
	.st14{fill:#8C205E;}
	.st15{clip-path:url(#SVGID_00000009551758534496695650000008486692063971334563_);}
	.st16{fill:#F9F9F9;}
	.st17{clip-path:url(#SVGID_00000121987037208388373290000000759220528108956055_);}
	.st18{fill:#990033;}
	.st19{fill:#611956;}
	.st20{fill:#2D1759;}
	.st21{fill:#5A2EB3;}
	.st22{fill:#FCA67E;}
	.st23{fill:#FFB0AD;}
	.st24{opacity:0.22;}
	.st25{fill:#FF4E47;}
	.st26{fill:#8F4643;}
	.st27{fill:#FF7D78;}
	.st28{clip-path:url(#SVGID_00000176008830099126198720000001859994227713198251_);}
	.st29{fill:#521C1A;}
	.st30{fill:#B5003C;}
	.st31{fill:#B83F3B;}
	.st32{fill:#FFA080;}
	.st33{fill:#291514;}
	.st34{fill:#073C54;}
	.st35{fill:#52001B;}
	.st36{fill:#57001D;}
	.st37{clip-path:url(#SVGID_00000176027073367932368840000002576764459203324324_);}
	.st38{fill:#AD1233;}
	.st39{fill:#EB1035;}
	.st40{fill:#020202;}
	.st41{fill:#F7F5F6;}
	.st42{fill-rule:evenodd;clip-rule:evenodd;fill:#FFFFFF;}
	.st43{clip-path:url(#SVGID_00000129207449277736649330000004933045320802392705_);}
	.st44{clip-path:url(#SVGID_00000065071897563755477410000006361646768707521212_);}
	.st45{clip-path:url(#SVGID_00000106117541558120559350000005602353168007453350_);}
	.st46{clip-path:url(#SVGID_00000000920656871681575260000012769042095950017930_);}
	.st47{clip-path:url(#SVGID_00000049900957039293955380000007138175912091991449_);}
	.st48{clip-path:url(#SVGID_00000052070708328997316730000000872430333128018561_);}
</style>
<g id="fondo">
</g>
<g id="Layer_3">
</g>
<g id="Layer_1">
	<g>
		<defs>
			<rect id="SVGID_00000018920948717987897230000000169578981431638966_" y="-4" width="638" height="981"/>
		</defs>
		<clipPath id="SVGID_00000109751431931896190710000011783014076657883538_">
			<use xlink:href="#SVGID_00000018920948717987897230000000169578981431638966_"  style="overflow:visible;"/>
		</clipPath>
		<g style="clip-path:url(#SVGID_00000109751431931896190710000011783014076657883538_);">
			<rect y="-4" class="st0" width="638" height="1832"/>
			<g>
				<polygon class="st1" points="638,635 -2,722 -2,402 638,315 				"/>
			</g>
			<g>
				<path class="st2" d="M37.7,478.7h9.4c3.7,0,5.5,2,5.5,6.1v8.8c0,3.1-0.9,5.1-2.8,6l3.3,14.9h-4.5l-3.1-14.5h-2.9v14.5h-4.8
					V478.7z M42.5,496h3.1c1.4,0,2.1-0.9,2.1-2.6v-7.8c0-1.7-0.7-2.6-2.1-2.6h-3.1V496z"/>
				<path class="st2" d="M56.6,514.6v-35.9h11.9v4.3h-7.1v10.9h6.3v4.3h-6.3v11.9h7.1v4.3H56.6z"/>
				<path class="st2" d="M81.2,488.3v-3.1c0-1.4-0.7-2.2-2.1-2.2h-0.8c-1.4,0-2,0.7-2,2.2v5.9c0,0.7,0.1,1.1,0.4,1.3
					c0.3,0.2,0.7,0.5,1.3,0.9l4.5,2.4c1,0.6,1.7,1,2.1,1.3c0.4,0.3,0.7,0.7,1,1.2c0.2,0.5,0.3,1.3,0.3,2.6v7.6c0,4-1.9,6-5.8,6h-2.9
					c-3.8,0-5.7-2.2-5.7-6.6v-1.8h4.8v1.9c0,1.4,0.7,2.1,2.1,2.1h0.9c1.3,0,1.9-0.7,1.9-2.1V502c0-0.7-0.1-1.1-0.4-1.3
					c-0.3-0.2-0.7-0.5-1.3-0.9l-4.5-2.5c-1-0.5-1.7-1-2.2-1.3c-0.5-0.4-0.8-0.8-1-1.4c-0.2-0.6-0.3-1.3-0.3-2.3v-7.3
					c0-4.1,1.9-6.1,5.7-6.1h3c3.8,0,5.7,2,5.7,6.1v3.5H81.2z"/>
				<path class="st2" d="M90,478.7h8.7c3.9,0,5.8,2,5.8,6.1v10.6c0,4.1-1.9,6.1-5.7,6.1h-4v13H90V478.7z M94.8,497.2h3
					c1.3,0,1.9-0.7,1.9-2.1v-10c0-1.4-0.7-2.1-2.1-2.1h-2.8V497.2z"/>
				<path class="st2" d="M113.9,514.6c-3.9,0-5.8-2-5.8-6.1v-23.6c0-4.1,1.9-6.1,5.7-6.1h4.6c3.8,0,5.7,2,5.7,6.1v23.6
					c0,4.1-1.9,6.1-5.8,6.1H113.9z M115,510.2h2.4c1.3,0,1.9-0.7,1.9-2.1v-23c0-1.4-0.7-2.1-2.1-2.1H115c-1.4,0-2.1,0.7-2.1,2.1v23
					C112.9,509.5,113.6,510.2,115,510.2z"/>
				<path class="st2" d="M138.4,496v-17.3h4.8v35.9h-4.8v-7.1l-5.1-16.3v23.5h-4.8v-35.9h4.8L138.4,496z"/>
				<path class="st2" d="M156.9,488.3v-3.1c0-1.4-0.7-2.2-2.1-2.2H154c-1.4,0-2,0.7-2,2.2v5.9c0,0.7,0.1,1.1,0.4,1.3
					c0.3,0.2,0.7,0.5,1.3,0.9l4.5,2.4c1,0.6,1.7,1,2.1,1.3c0.4,0.3,0.7,0.7,1,1.2c0.2,0.5,0.3,1.3,0.3,2.6v7.6c0,4-1.9,6-5.8,6h-2.9
					c-3.8,0-5.7-2.2-5.7-6.6v-1.8h4.8v1.9c0,1.4,0.7,2.1,2.1,2.1h0.9c1.3,0,1.9-0.7,1.9-2.1V502c0-0.7-0.1-1.1-0.4-1.3
					c-0.3-0.2-0.7-0.5-1.3-0.9l-4.5-2.5c-1-0.5-1.7-1-2.2-1.3c-0.5-0.4-0.8-0.8-1-1.4c-0.2-0.6-0.3-1.3-0.3-2.3v-7.3
					c0-4.1,1.9-6.1,5.7-6.1h3c3.8,0,5.7,2,5.7,6.1v3.5H156.9z"/>
				<path class="st2" d="M165.7,514.6v-35.9h4.8v35.9H165.7z"/>
				<path class="st2" d="M190.5,478.7l-5.8,35.9H179l-5.8-35.9h4.7l3.9,27.4l3.9-27.4H190.5z"/>
				<path class="st2" d="M192.8,514.6v-35.9h11.9v4.3h-7.1v10.9h6.3v4.3h-6.3v11.9h7.1v4.3H192.8z"/>
				<path class="st2" d="M225.3,488.3v-3.1c0-1.4-0.7-2.2-2.1-2.2h-0.8c-1.4,0-2,0.7-2,2.2v5.9c0,0.7,0.1,1.1,0.4,1.3
					c0.3,0.2,0.7,0.5,1.3,0.9l4.5,2.4c1,0.6,1.7,1,2.1,1.3c0.4,0.3,0.7,0.7,1,1.2c0.2,0.5,0.3,1.3,0.3,2.6v7.6c0,4-1.9,6-5.8,6h-2.9
					c-3.8,0-5.7-2.2-5.7-6.6v-1.8h4.8v1.9c0,1.4,0.7,2.1,2.1,2.1h0.9c1.3,0,1.9-0.7,1.9-2.1V502c0-0.7-0.1-1.1-0.4-1.3
					c-0.3-0.2-0.7-0.5-1.3-0.9l-4.5-2.5c-1-0.5-1.7-1-2.2-1.3c-0.5-0.4-0.8-0.8-1-1.4c-0.2-0.6-0.3-1.3-0.3-2.3v-7.3
					c0-4.1,1.9-6.1,5.7-6.1h3c3.8,0,5.7,2,5.7,6.1v3.5H225.3z"/>
				<path class="st2" d="M244.8,514.6v-16.3h-5.9v16.3h-4.8v-35.9h4.8v15.2h5.9v-15.2h4.8v35.9H244.8z"/>
				<path class="st2" d="M258.6,514.6h-4.8v-29.7c0-4.1,1.9-6.1,5.7-6.1h3.6c3.8,0,5.7,2,5.7,6.1v29.7h-4.8v-13.1h-5.5V514.6z
					 M264.1,497.1v-11.9c0-1.4-0.7-2.1-2.1-2.1h-1.3c-1.4,0-2.1,0.7-2.1,2.1v11.9H264.1z"/>
				<path class="st2" d="M273.2,514.6v-35.9h8.3c4.5,0,6.7,2.3,6.7,6.9v23.8c0,3.5-1.9,5.2-5.7,5.2H273.2z M278,510.2h3.6
					c1.3,0,1.9-0.5,1.9-1.6v-23c0-1.7-0.7-2.6-2.1-2.6H278V510.2z"/>
				<path class="st2" d="M298.1,514.6c-3.9,0-5.8-2-5.8-6.1v-23.6c0-4.1,1.9-6.1,5.7-6.1h4.6c3.8,0,5.7,2,5.7,6.1v23.6
					c0,4.1-1.9,6.1-5.8,6.1H298.1z M299.2,510.2h2.4c1.3,0,1.9-0.7,1.9-2.1v-23c0-1.4-0.7-2.1-2.1-2.1h-2.2c-1.4,0-2.1,0.7-2.1,2.1
					v23C297.1,509.5,297.8,510.2,299.2,510.2z"/>
				<path class="st2" d="M337.7,478.7l-5.3,35.9h-5.2l-3-20.8l-2.9,20.8h-5.2l-5.3-35.9h4.7l3.4,26.9l3.4-26.9h3.8l3.4,26.9
					l3.4-26.9H337.7z"/>
				<path class="st2" d="M38.6,542.9V553h-1.5v-10.1h-1.5v-1.4h4.5v1.4H38.6z"/>
				<path class="st2" d="M46,541.5v9.3c0,1.5-0.6,2.2-1.9,2.2h-1.3c-1.2,0-1.8-0.7-1.8-2.2v-9.3h1.5v9.3c0,0.5,0.2,0.8,0.7,0.8h0.6
					c0.4,0,0.6-0.2,0.6-0.8v-9.3H46z"/>
				<path class="st2" d="M58,541.5L56.3,553h-1.7l-0.9-6.7l-0.9,6.7h-1.7l-1.7-11.5h1.5l1.1,8.6l1.1-8.6h1.2l1.1,8.6l1.1-8.6H58z"/>
				<path class="st2" d="M58.7,553v-11.5h3.8v1.4h-2.3v3.5h2v1.4h-2v3.8h2.3v1.4H58.7z"/>
				<path class="st2" d="M67.2,547.1c0.8,0.2,1.3,0.7,1.3,1.3v2.9c0,1.1-0.6,1.7-1.7,1.7h-3.1v-11.5h2.6c1.4,0,2,0.7,2,2.1v2.2
					C68.3,546.5,67.9,546.9,67.2,547.1L67.2,547.1z M65.2,546.3h0.7c0.6,0,0.9-0.3,0.9-0.8v-1.8c0-0.6-0.2-0.8-0.7-0.8h-0.9V546.3z
					 M65.2,551.6h1.2c0.4,0,0.6-0.2,0.6-0.5v-2.5c0-0.5-0.3-0.8-0.9-0.8h-0.8V551.6z"/>
				<path class="st2" d="M72.3,541.5h3c1.2,0,1.8,0.7,1.8,2v2.8c0,1-0.3,1.6-0.9,1.9l1.1,4.8h-1.5l-1-4.6h-0.9v4.6h-1.5V541.5z
					 M73.9,547h1c0.5,0,0.7-0.3,0.7-0.8v-2.5c0-0.6-0.2-0.8-0.7-0.8h-1V547z"/>
				<path class="st2" d="M78.4,553v-11.5h3.8v1.4h-2.3v3.5h2v1.4h-2v3.8h2.3v1.4H78.4z"/>
				<path class="st2" d="M87.9,550.3v0.7c0,1.3-0.6,2-1.8,2h-1c-1.2,0-1.8-0.7-1.8-2v-7.6c0-1.3,0.6-2,1.8-2h1c1.2,0,1.8,0.7,1.8,2
					v1.3h-1.5v-1.2c0-0.4-0.2-0.7-0.7-0.7h-0.3c-0.4,0-0.6,0.2-0.6,0.7v7.4c0,0.4,0.2,0.7,0.6,0.7h0.4c0.4,0,0.6-0.2,0.6-0.7v-0.6
					H87.9z"/>
				<path class="st2" d="M89.1,553v-11.5h1.5V553H89.1z"/>
				<path class="st2" d="M95.6,547.1c0.8,0.2,1.3,0.7,1.3,1.3v2.9c0,1.1-0.6,1.7-1.7,1.7H92v-11.5h2.6c1.4,0,2,0.7,2,2.1v2.2
					C96.7,546.5,96.3,546.9,95.6,547.1L95.6,547.1z M93.6,546.3h0.7c0.6,0,0.9-0.3,0.9-0.8v-1.8c0-0.6-0.2-0.8-0.7-0.8h-0.9V546.3z
					 M93.6,551.6h1.2c0.4,0,0.6-0.2,0.6-0.5v-2.5c0-0.5-0.3-0.8-0.9-0.8h-0.8V551.6z"/>
				<path class="st2" d="M98.2,553v-11.5h3.8v1.4h-2.3v3.5h2v1.4h-2v3.8h2.3v1.4H98.2z"/>
				<path class="st2" d="M108.7,548.3l1.4-6.8h1.7V553h-1.5l0.2-7.5l-1.2,5.4h-1.2l-1.2-5.4l0.2,7.5h-1.5v-11.5h1.7L108.7,548.3z"/>
				<path class="st2" d="M114.8,553h-1.5v-9.5c0-1.3,0.6-2,1.8-2h1.2c1.2,0,1.8,0.7,1.8,2v9.5h-1.5v-4.2h-1.8V553z M115.7,540.8
					h-1.1l0.7-1.9h1.4L115.7,540.8z M116.5,547.4v-3.8c0-0.4-0.2-0.7-0.7-0.7h-0.4c-0.4,0-0.7,0.2-0.7,0.7v3.8H116.5z"/>
				<path class="st2" d="M122.4,544.6v-1c0-0.5-0.2-0.7-0.7-0.7h-0.2c-0.4,0-0.7,0.2-0.7,0.7v1.9c0,0.2,0,0.4,0.1,0.4
					c0.1,0.1,0.2,0.2,0.4,0.3l1.5,0.8c0.3,0.2,0.5,0.3,0.7,0.4s0.2,0.2,0.3,0.4s0.1,0.4,0.1,0.8v2.4c0,1.3-0.6,1.9-1.9,1.9h-0.9
					c-1.2,0-1.8-0.7-1.8-2.1v-0.6h1.5v0.6c0,0.4,0.2,0.7,0.7,0.7h0.3c0.4,0,0.6-0.2,0.6-0.7v-2c0-0.2,0-0.4-0.1-0.4
					c-0.1-0.1-0.2-0.2-0.4-0.3l-1.5-0.8c-0.3-0.2-0.6-0.3-0.7-0.4c-0.1-0.1-0.2-0.3-0.3-0.5c-0.1-0.2-0.1-0.4-0.1-0.7v-2.4
					c0-1.3,0.6-2,1.8-2h1c1.2,0,1.8,0.7,1.8,2v1.1H122.4z"/>
				<path class="st2" d="M132.7,541.5l-1.9,11.5H129l-1.9-11.5h1.5l1.2,8.8l1.2-8.8H132.7z"/>
				<path class="st2" d="M133.6,553v-11.5h1.5V553H133.6z"/>
				<path class="st2" d="M139.5,544.6v-1c0-0.5-0.2-0.7-0.7-0.7h-0.2c-0.4,0-0.7,0.2-0.7,0.7v1.9c0,0.2,0,0.4,0.1,0.4
					c0.1,0.1,0.2,0.2,0.4,0.3l1.5,0.8c0.3,0.2,0.5,0.3,0.7,0.4s0.2,0.2,0.3,0.4s0.1,0.4,0.1,0.8v2.4c0,1.3-0.6,1.9-1.9,1.9h-0.9
					c-1.2,0-1.8-0.7-1.8-2.1v-0.6h1.5v0.6c0,0.4,0.2,0.7,0.7,0.7h0.3c0.4,0,0.6-0.2,0.6-0.7v-2c0-0.2,0-0.4-0.1-0.4
					c-0.1-0.1-0.2-0.2-0.4-0.3l-1.5-0.8c-0.3-0.2-0.6-0.3-0.7-0.4c-0.1-0.1-0.2-0.3-0.3-0.5c-0.1-0.2-0.1-0.4-0.1-0.7v-2.4
					c0-1.3,0.6-2,1.8-2h1c1.2,0,1.8,0.7,1.8,2v1.1H139.5z"/>
				<path class="st2" d="M142.3,553v-11.5h1.5V553H142.3z"/>
				<path class="st2" d="M147.8,542.9V553h-1.5v-10.1h-1.5v-1.4h4.5v1.4H147.8z"/>
				<path class="st2" d="M151.6,553H150v-9.5c0-1.3,0.6-2,1.8-2h1.2c1.2,0,1.8,0.7,1.8,2v9.5h-1.5v-4.2h-1.8V553z M153.3,547.4v-3.8
					c0-0.4-0.2-0.7-0.7-0.7h-0.4c-0.4,0-0.7,0.2-0.7,0.7v3.8H153.3z"/>
				<path class="st2" d="M159.2,544.6v-1c0-0.5-0.2-0.7-0.7-0.7h-0.2c-0.4,0-0.7,0.2-0.7,0.7v1.9c0,0.2,0,0.4,0.1,0.4
					c0.1,0.1,0.2,0.2,0.4,0.3l1.5,0.8c0.3,0.2,0.5,0.3,0.7,0.4s0.2,0.2,0.3,0.4s0.1,0.4,0.1,0.8v2.4c0,1.3-0.6,1.9-1.9,1.9h-0.9
					c-1.2,0-1.8-0.7-1.8-2.1v-0.6h1.5v0.6c0,0.4,0.2,0.7,0.7,0.7h0.3c0.4,0,0.6-0.2,0.6-0.7v-2c0-0.2,0-0.4-0.1-0.4
					c-0.1-0.1-0.2-0.2-0.4-0.3l-1.5-0.8c-0.3-0.2-0.6-0.3-0.7-0.4c-0.1-0.1-0.2-0.3-0.3-0.5c-0.1-0.2-0.1-0.4-0.1-0.7v-2.4
					c0-1.3,0.6-2,1.8-2h1c1.2,0,1.8,0.7,1.8,2v1.1H159.2z"/>
				<path class="st2" d="M164.5,553v-11.5h2.7c1.4,0,2.2,0.7,2.2,2.2v7.6c0,1.1-0.6,1.7-1.8,1.7H164.5z M166.1,551.6h1.2
					c0.4,0,0.6-0.2,0.6-0.5v-7.4c0-0.6-0.2-0.8-0.7-0.8h-1.1V551.6z"/>
				<path class="st2" d="M170.7,553v-11.5h3.8v1.4h-2.3v3.5h2v1.4h-2v3.8h2.3v1.4H170.7z"/>
				<path class="st2" d="M183.2,541.5v9.3c0,1.5-0.6,2.2-1.9,2.2H180c-1.2,0-1.8-0.7-1.8-2.2v-9.3h1.5v9.3c0,0.5,0.2,0.8,0.7,0.8
					h0.6c0.4,0,0.6-0.2,0.6-0.8v-9.3H183.2z"/>
				<path class="st2" d="M187.6,544.6v-1c0-0.5-0.2-0.7-0.7-0.7h-0.2c-0.4,0-0.7,0.2-0.7,0.7v1.9c0,0.2,0,0.4,0.1,0.4
					c0.1,0.1,0.2,0.2,0.4,0.3l1.5,0.8c0.3,0.2,0.5,0.3,0.7,0.4s0.2,0.2,0.3,0.4s0.1,0.4,0.1,0.8v2.4c0,1.3-0.6,1.9-1.9,1.9h-0.9
					c-1.2,0-1.8-0.7-1.8-2.1v-0.6h1.5v0.6c0,0.4,0.2,0.7,0.7,0.7h0.3c0.4,0,0.6-0.2,0.6-0.7v-2c0-0.2,0-0.4-0.1-0.4
					c-0.1-0.1-0.2-0.2-0.4-0.3l-1.5-0.8c-0.3-0.2-0.6-0.3-0.7-0.4c-0.1-0.1-0.2-0.3-0.3-0.5c-0.1-0.2-0.1-0.4-0.1-0.7v-2.4
					c0-1.3,0.6-2,1.8-2h1c1.2,0,1.8,0.7,1.8,2v1.1H187.6z"/>
				<path class="st2" d="M195.4,541.5v9.3c0,1.5-0.6,2.2-1.9,2.2h-1.3c-1.2,0-1.8-0.7-1.8-2.2v-9.3h1.5v9.3c0,0.5,0.2,0.8,0.7,0.8
					h0.6c0.4,0,0.6-0.2,0.6-0.8v-9.3H195.4z"/>
				<path class="st2" d="M198.3,553h-1.5v-9.5c0-1.3,0.6-2,1.8-2h1.2c1.2,0,1.8,0.7,1.8,2v9.5H200v-4.2h-1.8V553z M200,547.4v-3.8
					c0-0.4-0.2-0.7-0.7-0.7H199c-0.4,0-0.7,0.2-0.7,0.7v3.8H200z"/>
				<path class="st2" d="M202.9,541.5h3c1.2,0,1.8,0.7,1.8,2v2.8c0,1-0.3,1.6-0.9,1.9l1.1,4.8h-1.5l-1-4.6h-0.9v4.6h-1.5V541.5z
					 M204.5,547h1c0.5,0,0.7-0.3,0.7-0.8v-2.5c0-0.6-0.2-0.8-0.7-0.8h-1V547z"/>
				<path class="st2" d="M209,553v-11.5h1.5V553H209z"/>
				<path class="st2" d="M213.7,553c-1.2,0-1.9-0.7-1.9-2v-7.6c0-1.3,0.6-2,1.8-2h1.5c1.2,0,1.8,0.7,1.8,2v7.6c0,1.3-0.6,2-1.9,2
					H213.7z M214.1,551.6h0.8c0.4,0,0.6-0.2,0.6-0.7v-7.4c0-0.4-0.2-0.7-0.7-0.7h-0.7c-0.4,0-0.7,0.2-0.7,0.7v7.4
					C213.4,551.4,213.6,551.6,214.1,551.6z"/>
				<path class="st2" d="M221.3,544.6v-1c0-0.5-0.2-0.7-0.7-0.7h-0.2c-0.4,0-0.7,0.2-0.7,0.7v1.9c0,0.2,0,0.4,0.1,0.4
					c0.1,0.1,0.2,0.2,0.4,0.3l1.5,0.8c0.3,0.2,0.5,0.3,0.7,0.4s0.2,0.2,0.3,0.4s0.1,0.4,0.1,0.8v2.4c0,1.3-0.6,1.9-1.9,1.9h-0.9
					c-1.2,0-1.8-0.7-1.8-2.1v-0.6h1.5v0.6c0,0.4,0.2,0.7,0.7,0.7h0.3c0.4,0,0.6-0.2,0.6-0.7v-2c0-0.2,0-0.4-0.1-0.4
					c-0.1-0.1-0.2-0.2-0.4-0.3l-1.5-0.8c-0.3-0.2-0.6-0.3-0.7-0.4c-0.1-0.1-0.2-0.3-0.3-0.5c-0.1-0.2-0.1-0.4-0.1-0.7v-2.4
					c0-1.3,0.6-2,1.8-2h1c1.2,0,1.8,0.7,1.8,2v1.1H221.3z"/>
				<path class="st2" d="M226.7,553v-11.5h2.7c1.4,0,2.2,0.7,2.2,2.2v7.6c0,1.1-0.6,1.7-1.8,1.7H226.7z M228.2,551.6h1.2
					c0.4,0,0.6-0.2,0.6-0.5v-7.4c0-0.6-0.2-0.8-0.7-0.8h-1.1V551.6z"/>
				<path class="st2" d="M232.9,553v-11.5h3.8v1.4h-2.3v3.5h2v1.4h-2v3.8h2.3v1.4H232.9z"/>
				<path class="st2" d="M242.8,542.9V553h-1.5v-10.1h-1.5v-1.4h4.5v1.4H242.8z"/>
				<path class="st2" d="M246.6,553h-1.5v-9.5c0-1.3,0.6-2,1.8-2h1.2c1.2,0,1.8,0.7,1.8,2v9.5h-1.5v-4.2h-1.8V553z M248.4,547.4
					v-3.8c0-0.4-0.2-0.7-0.7-0.7h-0.4c-0.4,0-0.7,0.2-0.7,0.7v3.8H248.4z"/>
				<path class="st2" d="M254.9,547.1c0.8,0.2,1.3,0.7,1.3,1.3v2.9c0,1.1-0.6,1.7-1.7,1.7h-3.1v-11.5h2.6c1.4,0,2,0.7,2,2.1v2.2
					C256,546.5,255.6,546.9,254.9,547.1L254.9,547.1z M252.8,546.3h0.7c0.6,0,0.9-0.3,0.9-0.8v-1.8c0-0.6-0.2-0.8-0.7-0.8h-0.9
					V546.3z M252.8,551.6h1.2c0.4,0,0.6-0.2,0.6-0.5v-2.5c0-0.5-0.3-0.8-0.9-0.8h-0.8V551.6z"/>
				<path class="st2" d="M261,553h-3.6v-11.5h1.5v10.1h2.1V553z"/>
				<path class="st2" d="M261.9,553v-11.5h3.8v1.4h-2.3v3.5h2v1.4h-2v3.8h2.3v1.4H261.9z"/>
				<path class="st2" d="M269.3,542.9V553h-1.5v-10.1h-1.5v-1.4h4.5v1.4H269.3z"/>
				<path class="st2" d="M274.6,544.6v-1c0-0.5-0.2-0.7-0.7-0.7h-0.2c-0.4,0-0.7,0.2-0.7,0.7v1.9c0,0.2,0,0.4,0.1,0.4
					c0.1,0.1,0.2,0.2,0.4,0.3l1.5,0.8c0.3,0.2,0.5,0.3,0.7,0.4s0.2,0.2,0.3,0.4s0.1,0.4,0.1,0.8v2.4c0,1.3-0.6,1.9-1.9,1.9h-0.9
					c-1.2,0-1.8-0.7-1.8-2.1v-0.6h1.5v0.6c0,0.4,0.2,0.7,0.7,0.7h0.3c0.4,0,0.6-0.2,0.6-0.7v-2c0-0.2,0-0.4-0.1-0.4
					c-0.1-0.1-0.2-0.2-0.4-0.3l-1.5-0.8c-0.3-0.2-0.6-0.3-0.7-0.4c-0.1-0.1-0.2-0.3-0.3-0.5c-0.1-0.2-0.1-0.4-0.1-0.7v-2.4
					c0-1.3,0.6-2,1.8-2h1c1.2,0,1.8,0.7,1.8,2v1.1H274.6z"/>
				<path class="st2" d="M282.8,553h-1.5v-4.2l-1.9-7.3h1.5l1.2,5h0l1-5h1.5l-1.9,7.3V553z"/>
				<path class="st2" d="M291.2,548.3l1.4-6.8h1.7V553h-1.5l0.2-7.5l-1.2,5.4h-1.2l-1.2-5.4l0.2,7.5h-1.5v-11.5h1.7L291.2,548.3z"/>
				<path class="st2" d="M297.6,553c-1.2,0-1.9-0.7-1.9-2v-7.6c0-1.3,0.6-2,1.8-2h1.5c1.2,0,1.8,0.7,1.8,2v7.6c0,1.3-0.6,2-1.9,2
					H297.6z M297.9,551.6h0.8c0.4,0,0.6-0.2,0.6-0.7v-7.4c0-0.4-0.2-0.7-0.7-0.7h-0.7c-0.4,0-0.7,0.2-0.7,0.7v7.4
					C297.2,551.4,297.5,551.6,297.9,551.6z M298.5,540.8h-1.1l0.7-1.9h1.4L298.5,540.8z"/>
				<path class="st2" d="M305.8,547.1c0.8,0.2,1.3,0.7,1.3,1.3v2.9c0,1.1-0.6,1.7-1.7,1.7h-3.1v-11.5h2.6c1.4,0,2,0.7,2,2.1v2.2
					C306.9,546.5,306.5,546.9,305.8,547.1L305.8,547.1z M303.8,546.3h0.7c0.6,0,0.9-0.3,0.9-0.8v-1.8c0-0.6-0.2-0.8-0.7-0.8h-0.9
					V546.3z M303.8,551.6h1.2c0.4,0,0.6-0.2,0.6-0.5v-2.5c0-0.5-0.3-0.8-0.9-0.8h-0.8V551.6z"/>
				<path class="st2" d="M308.3,553v-11.5h1.5V553H308.3z"/>
				<path class="st2" d="M315,553h-3.6v-11.5h1.5v10.1h2.1V553z"/>
				<path class="st2" d="M315.8,553v-11.5h3.8v1.4h-2.3v3.5h2v1.4h-2v3.8h2.3v1.4H315.8z"/>
				<path class="st2" d="M323.7,544.6v-1c0-0.5-0.2-0.7-0.7-0.7h-0.2c-0.4,0-0.7,0.2-0.7,0.7v1.9c0,0.2,0,0.4,0.1,0.4
					c0.1,0.1,0.2,0.2,0.4,0.3l1.5,0.8c0.3,0.2,0.5,0.3,0.7,0.4c0.1,0.1,0.2,0.2,0.3,0.4s0.1,0.4,0.1,0.8v2.4c0,1.3-0.6,1.9-1.9,1.9
					h-0.9c-1.2,0-1.8-0.7-1.8-2.1v-0.6h1.5v0.6c0,0.4,0.2,0.7,0.7,0.7h0.3c0.4,0,0.6-0.2,0.6-0.7v-2c0-0.2,0-0.4-0.1-0.4
					c-0.1-0.1-0.2-0.2-0.4-0.3l-1.5-0.8c-0.3-0.2-0.6-0.3-0.7-0.4s-0.2-0.3-0.3-0.5c-0.1-0.2-0.1-0.4-0.1-0.7v-2.4
					c0-1.3,0.6-2,1.8-2h1c1.2,0,1.8,0.7,1.8,2v1.1H323.7z"/>
				<path class="st2" d="M327.7,551v2h-1.6v-2H327.7z"/>
				<path class="st2" d="M36.2,572.2v-11.5H40v1.4h-2.3v3.5h2v1.4h-2v3.8H40v1.4H36.2z"/>
				<path class="st2" d="M44.7,572.2h-3.6v-11.5h1.5v10.1h2.1V572.2z"/>
				<path class="st2" d="M49.3,572.2h-3.6v-11.5h1.5v10.1h2.1V572.2z"/>
				<path class="st2" d="M51.6,572.2h-1.5v-9.5c0-1.3,0.6-2,1.8-2h1.2c1.2,0,1.8,0.7,1.8,2v9.5h-1.5V568h-1.8V572.2z M53.4,566.6
					v-3.8c0-0.4-0.2-0.7-0.7-0.7h-0.4c-0.4,0-0.7,0.2-0.7,0.7v3.8H53.4z"/>
				<path class="st2" d="M61.8,563.8v-1c0-0.5-0.2-0.7-0.7-0.7h-0.2c-0.4,0-0.7,0.2-0.7,0.7v1.9c0,0.2,0,0.4,0.1,0.4
					c0.1,0.1,0.2,0.2,0.4,0.3l1.5,0.8c0.3,0.2,0.5,0.3,0.7,0.4c0.1,0.1,0.2,0.2,0.3,0.4s0.1,0.4,0.1,0.8v2.4c0,1.3-0.6,1.9-1.9,1.9
					h-0.9c-1.2,0-1.8-0.7-1.8-2.1v-0.6h1.5v0.6c0,0.4,0.2,0.7,0.7,0.7h0.3c0.4,0,0.6-0.2,0.6-0.7v-2c0-0.2,0-0.4-0.1-0.4
					c-0.1-0.1-0.2-0.2-0.4-0.3l-1.5-0.8c-0.3-0.2-0.6-0.3-0.7-0.4c-0.1-0.1-0.2-0.3-0.3-0.5c-0.1-0.2-0.1-0.4-0.1-0.7v-2.4
					c0-1.3,0.6-2,1.8-2h1c1.2,0,1.8,0.7,1.8,2v1.1H61.8z"/>
				<path class="st2" d="M64.6,572.2v-11.5h3.8v1.4h-2.3v3.5h2v1.4h-2v3.8h2.3v1.4H64.6z"/>
				<path class="st2" d="M75.7,572.2h-3.6v-11.5h1.5v10.1h2.1V572.2z"/>
				<path class="st2" d="M78.4,572.2c-1.2,0-1.9-0.7-1.9-2v-7.6c0-1.3,0.6-2,1.8-2h1.5c1.2,0,1.8,0.7,1.8,2v7.6c0,1.3-0.6,2-1.9,2
					H78.4z M78.7,570.8h0.8c0.4,0,0.6-0.2,0.6-0.7v-7.4c0-0.4-0.2-0.7-0.7-0.7h-0.7c-0.4,0-0.7,0.2-0.7,0.7v7.4
					C78,570.6,78.3,570.8,78.7,570.8z"/>
				<path class="st2" d="M85.6,560.7h2.8c1.2,0,1.9,0.7,1.9,2v3.4c0,1.3-0.6,2-1.8,2h-1.3v4.2h-1.5V560.7z M87.1,566.6h1
					c0.4,0,0.6-0.2,0.6-0.7v-3.2c0-0.4-0.2-0.7-0.7-0.7h-0.9V566.6z"/>
				<path class="st2" d="M93.2,572.2c-1.2,0-1.9-0.7-1.9-2v-7.6c0-1.3,0.6-2,1.8-2h1.5c1.2,0,1.8,0.7,1.8,2v7.6c0,1.3-0.6,2-1.9,2
					H93.2z M93.6,570.8h0.8c0.4,0,0.6-0.2,0.6-0.7v-7.4c0-0.4-0.2-0.7-0.7-0.7h-0.7c-0.4,0-0.7,0.2-0.7,0.7v7.4
					C92.9,570.6,93.1,570.8,93.6,570.8z"/>
				<path class="st2" d="M101.1,566.3v-5.6h1.5v11.5h-1.5v-2.3l-1.6-5.2v7.5h-1.5v-11.5h1.5L101.1,566.3z"/>
				<path class="st2" d="M104,572.2v-11.5h3.8v1.4h-2.3v3.5h2v1.4h-2v3.8h2.3v1.4H104z"/>
				<path class="st2" d="M115.1,565.6v1.4h-2v5.2h-1.5v-11.5h3.8v1.4h-2.3v3.5H115.1z"/>
				<path class="st2" d="M117.8,572.2h-1.5v-9.5c0-1.3,0.6-2,1.8-2h1.2c1.2,0,1.8,0.7,1.8,2v9.5h-1.5V568h-1.8V572.2z M118.7,560
					h-1.1l0.7-1.9h1.4L118.7,560z M119.6,566.6v-3.8c0-0.4-0.2-0.7-0.7-0.7h-0.4c-0.4,0-0.7,0.2-0.7,0.7v3.8H119.6z"/>
				<path class="st2" d="M127.1,569.5v0.7c0,1.3-0.6,2-1.8,2h-1c-1.2,0-1.8-0.7-1.8-2v-7.6c0-1.3,0.6-2,1.8-2h1c1.2,0,1.8,0.7,1.8,2
					v1.3h-1.5v-1.2c0-0.4-0.2-0.7-0.7-0.7h-0.3c-0.4,0-0.6,0.2-0.6,0.7v7.4c0,0.4,0.2,0.7,0.6,0.7h0.4c0.4,0,0.6-0.2,0.6-0.7v-0.6
					H127.1z"/>
				<path class="st2" d="M128.3,572.2v-11.5h1.5v11.5H128.3z"/>
				<path class="st2" d="M134.9,572.2h-3.6v-11.5h1.5v10.1h2.1V572.2z"/>
				<path class="st2" d="M137.2,570.2v2h-1.6v-2H137.2z"/>
				<path class="st2" d="M144.6,572.2h-3.6v-11.5h1.5v10.1h2.1V572.2z"/>
				<path class="st2" d="M146.9,572.2h-1.5v-9.5c0-1.3,0.6-2,1.8-2h1.2c1.2,0,1.8,0.7,1.8,2v9.5h-1.5V568h-1.8V572.2z M148.7,566.6
					v-3.8c0-0.4-0.2-0.7-0.7-0.7h-0.4c-0.4,0-0.7,0.2-0.7,0.7v3.8H148.7z"/>
				<path class="st2" d="M155.6,572.2H154v-9.5c0-1.3,0.6-2,1.8-2h1.2c1.2,0,1.8,0.7,1.8,2v9.5h-1.5V568h-1.8V572.2z M157.3,566.6
					v-3.8c0-0.4-0.2-0.7-0.7-0.7h-0.4c-0.4,0-0.7,0.2-0.7,0.7v3.8H157.3z"/>
				<path class="st2" d="M160.2,572.2v-11.5h2.7c1.4,0,2.2,0.7,2.2,2.2v7.6c0,1.1-0.6,1.7-1.8,1.7H160.2z M161.8,570.8h1.2
					c0.4,0,0.6-0.2,0.6-0.5v-7.4c0-0.6-0.2-0.8-0.7-0.8h-1.1V570.8z"/>
				<path class="st2" d="M167.9,572.2h-1.5v-9.5c0-1.3,0.6-2,1.8-2h1.2c1.2,0,1.8,0.7,1.8,2v9.5h-1.5V568h-1.8V572.2z M169.6,566.6
					v-3.8c0-0.4-0.2-0.7-0.7-0.7h-0.4c-0.4,0-0.7,0.2-0.7,0.7v3.8H169.6z"/>
				<path class="st2" d="M172.5,560.7h2.8c1.2,0,1.9,0.7,1.9,2v3.4c0,1.3-0.6,2-1.8,2h-1.3v4.2h-1.5V560.7z M174.1,566.6h1
					c0.4,0,0.6-0.2,0.6-0.7v-3.2c0-0.4-0.2-0.7-0.7-0.7h-0.9V566.6z"/>
				<path class="st2" d="M180.9,562.1v10.1h-1.5v-10.1h-1.5v-1.4h4.5v1.4H180.9z"/>
				<path class="st2" d="M184.7,572.2h-1.5v-9.5c0-1.3,0.6-2,1.8-2h1.2c1.2,0,1.8,0.7,1.8,2v9.5h-1.5V568h-1.8V572.2z M186.4,566.6
					v-3.8c0-0.4-0.2-0.7-0.7-0.7h-0.4c-0.4,0-0.7,0.2-0.7,0.7v3.8H186.4z"/>
				<path class="st2" d="M191.9,572.2v-11.5h2.7c1.4,0,2.2,0.7,2.2,2.2v7.6c0,1.1-0.6,1.7-1.8,1.7H191.9z M193.4,570.8h1.2
					c0.4,0,0.6-0.2,0.6-0.5v-7.4c0-0.6-0.2-0.8-0.7-0.8h-1.1V570.8z"/>
				<path class="st2" d="M198.1,572.2v-11.5h3.8v1.4h-2.3v3.5h2v1.4h-2v3.8h2.3v1.4H198.1z"/>
				<path class="st2" d="M208.7,567.5l1.4-6.8h1.7v11.5h-1.5l0.2-7.5l-1.2,5.4h-1.2l-1.2-5.4l0.2,7.5h-1.5v-11.5h1.7L208.7,567.5z"
					/>
				<path class="st2" d="M214.7,572.2h-1.5v-9.5c0-1.3,0.6-2,1.8-2h1.2c1.2,0,1.8,0.7,1.8,2v9.5h-1.5V568h-1.8V572.2z M216.4,566.6
					v-3.8c0-0.4-0.2-0.7-0.7-0.7h-0.4c-0.4,0-0.7,0.2-0.7,0.7v3.8H216.4z"/>
				<path class="st2" d="M222.5,566.3v-5.6h1.5v11.5h-1.5v-2.3l-1.6-5.2v7.5h-1.5v-11.5h1.5L222.5,566.3z"/>
				<path class="st2" d="M225.5,572.2v-11.5h3.8v1.4H227v3.5h2v1.4h-2v3.8h2.3v1.4H225.5z"/>
				<path class="st2" d="M230.4,560.7h3c1.2,0,1.8,0.7,1.8,2v2.8c0,1-0.3,1.6-0.9,1.9l1.1,4.8h-1.5l-1-4.6h-0.9v4.6h-1.5V560.7z
					 M231.9,566.2h1c0.5,0,0.7-0.3,0.7-0.8v-2.5c0-0.6-0.2-0.8-0.7-0.8h-1V566.2z"/>
				<path class="st2" d="M237.9,572.2h-1.5v-9.5c0-1.3,0.6-2,1.8-2h1.2c1.2,0,1.8,0.7,1.8,2v9.5h-1.5V568h-1.8V572.2z M239.7,566.6
					v-3.8c0-0.4-0.2-0.7-0.7-0.7h-0.4c-0.4,0-0.7,0.2-0.7,0.7v3.8H239.7z"/>
				<path class="st2" d="M246.6,572.2H245v-9.5c0-1.3,0.6-2,1.8-2h1.2c1.2,0,1.8,0.7,1.8,2v9.5h-1.5V568h-1.8V572.2z M248.3,566.6
					v-3.8c0-0.4-0.2-0.7-0.7-0.7h-0.4c-0.4,0-0.7,0.2-0.7,0.7v3.8H248.3z"/>
				<path class="st2" d="M256.2,560.7v9.3c0,1.5-0.6,2.2-1.9,2.2h-1.3c-1.2,0-1.8-0.7-1.8-2.2v-9.3h1.5v9.3c0,0.5,0.2,0.8,0.7,0.8
					h0.6c0.4,0,0.6-0.3,0.6-0.8v-9.3H256.2z"/>
				<path class="st2" d="M260.1,562.1v10.1h-1.5v-10.1h-1.5v-1.4h4.5v1.4H260.1z"/>
				<path class="st2" d="M264.2,572.2c-1.2,0-1.9-0.7-1.9-2v-7.6c0-1.3,0.6-2,1.8-2h1.5c1.2,0,1.8,0.7,1.8,2v7.6c0,1.3-0.6,2-1.9,2
					H264.2z M264.6,570.8h0.8c0.4,0,0.6-0.2,0.6-0.7v-7.4c0-0.4-0.2-0.7-0.7-0.7h-0.7c-0.4,0-0.7,0.2-0.7,0.7v7.4
					C263.9,570.6,264.2,570.8,264.6,570.8z"/>
				<path class="st2" d="M272,567.5l1.4-6.8h1.7v11.5h-1.5l0.2-7.5l-1.2,5.4h-1.2l-1.2-5.4l0.2,7.5h-1.5v-11.5h1.7L272,567.5z"/>
				<path class="st2" d="M278,572.2h-1.5v-9.5c0-1.3,0.6-2,1.8-2h1.2c1.2,0,1.8,0.7,1.8,2v9.5h-1.5V568H278V572.2z M278.9,560h-1.1
					l0.7-1.9h1.4L278.9,560z M279.8,566.6v-3.8c0-0.4-0.2-0.7-0.7-0.7h-0.4c-0.4,0-0.7,0.2-0.7,0.7v3.8H279.8z"/>
				<path class="st2" d="M285.1,562.1v10.1h-1.5v-10.1h-1.5v-1.4h4.5v1.4H285.1z"/>
				<path class="st2" d="M287.5,572.2v-11.5h1.5v11.5H287.5z"/>
				<path class="st2" d="M295.1,569.5v0.7c0,1.3-0.6,2-1.8,2h-1c-1.2,0-1.8-0.7-1.8-2v-7.6c0-1.3,0.6-2,1.8-2h1c1.2,0,1.8,0.7,1.8,2
					v1.3h-1.5v-1.2c0-0.4-0.2-0.7-0.7-0.7h-0.3c-0.4,0-0.6,0.2-0.6,0.7v7.4c0,0.4,0.2,0.7,0.6,0.7h0.4c0.4,0,0.6-0.2,0.6-0.7v-0.6
					H295.1z"/>
				<path class="st2" d="M297.7,572.2h-1.5v-9.5c0-1.3,0.6-2,1.8-2h1.2c1.2,0,1.8,0.7,1.8,2v9.5h-1.5V568h-1.8V572.2z M299.5,566.6
					v-3.8c0-0.4-0.2-0.7-0.7-0.7h-0.4c-0.4,0-0.7,0.2-0.7,0.7v3.8H299.5z"/>
				<path class="st2" d="M306.4,572.2h-1.5v-9.5c0-1.3,0.6-2,1.8-2h1.2c1.2,0,1.8,0.7,1.8,2v9.5h-1.5V568h-1.8V572.2z M308.1,566.6
					v-3.8c0-0.4-0.2-0.7-0.7-0.7h-0.4c-0.4,0-0.7,0.2-0.7,0.7v3.8H308.1z"/>
				<path class="st2" d="M40.8,588.7v0.7c0,1.3-0.6,2-1.8,2h-1c-1.2,0-1.8-0.7-1.8-2v-7.6c0-1.3,0.6-2,1.8-2h1c1.2,0,1.8,0.7,1.8,2
					v1.3h-1.5V582c0-0.4-0.2-0.7-0.7-0.7h-0.3c-0.4,0-0.6,0.2-0.6,0.7v7.4c0,0.4,0.2,0.7,0.6,0.7h0.4c0.4,0,0.6-0.2,0.6-0.7v-0.6
					H40.8z"/>
				<path class="st2" d="M47,579.9v9.3c0,1.5-0.6,2.2-1.9,2.2h-1.3c-1.2,0-1.8-0.7-1.8-2.2v-9.3h1.5v9.3c0,0.5,0.2,0.8,0.7,0.8h0.6
					c0.4,0,0.6-0.2,0.6-0.8v-9.3H47z"/>
				<path class="st2" d="M49.9,591.4h-1.5v-9.5c0-1.3,0.6-2,1.8-2h1.2c1.2,0,1.8,0.7,1.8,2v9.5h-1.5v-4.2h-1.8V591.4z M51.6,585.8
					V582c0-0.4-0.2-0.7-0.7-0.7h-0.4c-0.4,0-0.7,0.2-0.7,0.7v3.8H51.6z"/>
				<path class="st2" d="M58.2,591.4h-3.6v-11.5h1.5V590h2.1V591.4z"/>
				<path class="st2" d="M65,591.4h-4.2c-1.2,0-1.9-0.6-1.9-1.9v-7.6c0-1.3,0.6-2,1.8-2h1.5c1.2,0,1.8,0.7,1.8,2v8.1H65V591.4z
					 M62.6,590v-8c0-0.4-0.2-0.7-0.7-0.7h-0.7c-0.4,0-0.7,0.2-0.7,0.7v7.4c0,0.4,0.2,0.7,0.7,0.7H62.6z"/>
				<path class="st2" d="M70.7,579.9v9.3c0,1.5-0.6,2.2-1.9,2.2h-1.3c-1.2,0-1.8-0.7-1.8-2.2v-9.3h1.5v9.3c0,0.5,0.2,0.8,0.7,0.8
					h0.6c0.4,0,0.6-0.2,0.6-0.8v-9.3H70.7z"/>
				<path class="st2" d="M72.2,591.4v-11.5h1.5v11.5H72.2z"/>
				<path class="st2" d="M75.1,591.4v-11.5h3.8v1.4h-2.3v3.5h2v1.4h-2v3.8h2.3v1.4H75.1z"/>
				<path class="st2" d="M80,579.9h3c1.2,0,1.8,0.7,1.8,2v2.8c0,1-0.3,1.6-0.9,1.9l1.1,4.8h-1.5l-1-4.6h-0.9v4.6H80V579.9z
					 M81.6,585.4h1c0.5,0,0.7-0.3,0.7-0.8v-2.5c0-0.6-0.2-0.8-0.7-0.8h-1V585.4z"/>
				<path class="st2" d="M88.7,591.4v-11.5h2.7c1.4,0,2.2,0.7,2.2,2.2v7.6c0,1.1-0.6,1.7-1.8,1.7H88.7z M90.2,590h1.2
					c0.4,0,0.6-0.2,0.6-0.5v-7.4c0-0.6-0.2-0.8-0.7-0.8h-1.1V590z"/>
				<path class="st2" d="M94.8,591.4v-11.5h1.5v11.5H94.8z"/>
				<path class="st2" d="M100.8,583v-1c0-0.5-0.2-0.7-0.7-0.7h-0.2c-0.4,0-0.7,0.2-0.7,0.7v1.9c0,0.2,0,0.4,0.1,0.4
					c0.1,0.1,0.2,0.2,0.4,0.3l1.5,0.8c0.3,0.2,0.5,0.3,0.7,0.4s0.2,0.2,0.3,0.4c0.1,0.1,0.1,0.4,0.1,0.8v2.4c0,1.3-0.6,1.9-1.9,1.9
					h-0.9c-1.2,0-1.8-0.7-1.8-2.1v-0.6h1.5v0.6c0,0.4,0.2,0.7,0.7,0.7h0.3c0.4,0,0.6-0.2,0.6-0.7v-2c0-0.2,0-0.4-0.1-0.4
					c-0.1-0.1-0.2-0.2-0.4-0.3l-1.5-0.8c-0.3-0.2-0.6-0.3-0.7-0.4c-0.1-0.1-0.2-0.3-0.3-0.5c-0.1-0.2-0.1-0.4-0.1-0.7v-2.4
					c0-1.3,0.6-2,1.8-2h1c1.2,0,1.8,0.7,1.8,2v1.1H100.8z"/>
				<path class="st2" d="M103.6,579.9h2.8c1.2,0,1.9,0.7,1.9,2v3.4c0,1.3-0.6,2-1.8,2h-1.3v4.2h-1.5V579.9z M105.1,585.8h1
					c0.4,0,0.6-0.2,0.6-0.7V582c0-0.4-0.2-0.7-0.7-0.7h-0.9V585.8z"/>
				<path class="st2" d="M111.2,591.4c-1.2,0-1.9-0.7-1.9-2v-7.6c0-1.3,0.6-2,1.8-2h1.5c1.2,0,1.8,0.7,1.8,2v7.6c0,1.3-0.6,2-1.9,2
					H111.2z M111.6,590h0.8c0.4,0,0.6-0.2,0.6-0.7V582c0-0.4-0.2-0.7-0.7-0.7h-0.7c-0.4,0-0.7,0.2-0.7,0.7v7.4
					C110.9,589.8,111.1,590,111.6,590z"/>
				<path class="st2" d="M118.8,583v-1c0-0.5-0.2-0.7-0.7-0.7h-0.2c-0.4,0-0.7,0.2-0.7,0.7v1.9c0,0.2,0,0.4,0.1,0.4
					c0.1,0.1,0.2,0.2,0.4,0.3l1.5,0.8c0.3,0.2,0.5,0.3,0.7,0.4s0.2,0.2,0.3,0.4c0.1,0.1,0.1,0.4,0.1,0.8v2.4c0,1.3-0.6,1.9-1.9,1.9
					h-0.9c-1.2,0-1.8-0.7-1.8-2.1v-0.6h1.5v0.6c0,0.4,0.2,0.7,0.7,0.7h0.3c0.4,0,0.6-0.2,0.6-0.7v-2c0-0.2,0-0.4-0.1-0.4
					c-0.1-0.1-0.2-0.2-0.4-0.3l-1.5-0.8c-0.3-0.2-0.6-0.3-0.7-0.4c-0.1-0.1-0.2-0.3-0.3-0.5c-0.1-0.2-0.1-0.4-0.1-0.7v-2.4
					c0-1.3,0.6-2,1.8-2h1c1.2,0,1.8,0.7,1.8,2v1.1H118.8z"/>
				<path class="st2" d="M121.6,591.4v-11.5h1.5v11.5H121.6z"/>
				<path class="st2" d="M127.1,581.3v10.1h-1.5v-10.1h-1.5v-1.4h4.5v1.4H127.1z"/>
				<path class="st2" d="M129.4,591.4v-11.5h1.5v11.5H129.4z"/>
				<path class="st2" d="M137.4,579.9l-1.9,11.5h-1.8l-1.9-11.5h1.5l1.2,8.8l1.2-8.8H137.4z"/>
				<path class="st2" d="M139.9,591.4c-1.2,0-1.9-0.7-1.9-2v-7.6c0-1.3,0.6-2,1.8-2h1.5c1.2,0,1.8,0.7,1.8,2v7.6c0,1.3-0.6,2-1.9,2
					H139.9z M140.2,590h0.8c0.4,0,0.6-0.2,0.6-0.7V582c0-0.4-0.2-0.7-0.7-0.7h-0.7c-0.4,0-0.7,0.2-0.7,0.7v7.4
					C139.5,589.8,139.8,590,140.2,590z"/>
				<path class="st2" d="M144.1,593.3l0.7-1.9h-0.8v-2h1.7v2l-0.8,1.9H144.1z"/>
				<path class="st2" d="M154.2,588.7v0.7c0,1.3-0.6,2-1.8,2h-1c-1.2,0-1.8-0.7-1.8-2v-7.6c0-1.3,0.6-2,1.8-2h1c1.2,0,1.8,0.7,1.8,2
					v1.3h-1.5V582c0-0.4-0.2-0.7-0.7-0.7h-0.3c-0.4,0-0.6,0.2-0.6,0.7v7.4c0,0.4,0.2,0.7,0.6,0.7h0.4c0.4,0,0.6-0.2,0.6-0.7v-0.6
					H154.2z"/>
				<path class="st2" d="M157.2,591.4c-1.2,0-1.9-0.7-1.9-2v-7.6c0-1.3,0.6-2,1.8-2h1.5c1.2,0,1.8,0.7,1.8,2v7.6c0,1.3-0.6,2-1.9,2
					H157.2z M157.5,590h0.8c0.4,0,0.6-0.2,0.6-0.7V582c0-0.4-0.2-0.7-0.7-0.7h-0.7c-0.4,0-0.7,0.2-0.7,0.7v7.4
					C156.8,589.8,157.1,590,157.5,590z"/>
				<path class="st2" d="M165,585.5v-5.6h1.5v11.5H165v-2.3l-1.6-5.2v7.5h-1.5v-11.5h1.5L165,585.5z"/>
				<path class="st2" d="M172.9,587.2v-1.4h2.3v5.6h-3c-1.2,0-1.8-0.6-1.8-1.9v-7.6c0-1.3,0.6-2,1.8-2h1.1c1.3,0,2,0.7,2,2v1.2h-1.5
					v-1c0-0.6-0.2-0.8-0.7-0.8h-0.4c-0.4,0-0.7,0.3-0.7,0.8v7c0,0.6,0.2,0.8,0.7,0.8h1v-2.8H172.9z"/>
				<path class="st2" d="M176.5,579.9h3c1.2,0,1.8,0.7,1.8,2v2.8c0,1-0.3,1.6-0.9,1.9l1.1,4.8H180l-1-4.6H178v4.6h-1.5V579.9z
					 M178,585.4h1c0.5,0,0.7-0.3,0.7-0.8v-2.5c0-0.6-0.2-0.8-0.7-0.8h-1V585.4z"/>
				<path class="st2" d="M184,591.4h-1.5v-9.5c0-1.3,0.6-2,1.8-2h1.2c1.2,0,1.8,0.7,1.8,2v9.5h-1.5v-4.2H184V591.4z M185.8,585.8
					V582c0-0.4-0.2-0.7-0.7-0.7h-0.4c-0.4,0-0.7,0.2-0.7,0.7v3.8H185.8z"/>
				<path class="st2" d="M193.2,588.7v0.7c0,1.3-0.6,2-1.8,2h-1c-1.2,0-1.8-0.7-1.8-2v-7.6c0-1.3,0.6-2,1.8-2h1c1.2,0,1.8,0.7,1.8,2
					v1.3h-1.5V582c0-0.4-0.2-0.7-0.7-0.7h-0.3c-0.4,0-0.6,0.2-0.6,0.7v7.4c0,0.4,0.2,0.7,0.6,0.7h0.4c0.4,0,0.6-0.2,0.6-0.7v-0.6
					H193.2z"/>
				<path class="st2" d="M194.4,591.4v-11.5h1.5v11.5H194.4z"/>
				<path class="st2" d="M198.9,591.4h-1.5v-9.5c0-1.3,0.6-2,1.8-2h1.2c1.2,0,1.8,0.7,1.8,2v9.5h-1.5v-4.2h-1.8V591.4z M200.6,585.8
					V582c0-0.4-0.2-0.7-0.7-0.7h-0.4c-0.4,0-0.7,0.2-0.7,0.7v3.8H200.6z"/>
				<path class="st2" d="M209,591.4h-1.5v-4.2l-1.9-7.3h1.5l1.2,5h0l1-5h1.5l-1.9,7.3V591.4z"/>
				<path class="st2" d="M217.4,586.7l1.4-6.8h1.7v11.5H219l0.2-7.5l-1.2,5.4h-1.2l-1.2-5.4l0.2,7.5h-1.5v-11.5h1.7L217.4,586.7z"/>
				<path class="st2" d="M223.4,591.4h-1.5v-9.5c0-1.3,0.6-2,1.8-2h1.2c1.2,0,1.8,0.7,1.8,2v9.5h-1.5v-4.2h-1.8V591.4z M225.1,585.8
					V582c0-0.4-0.2-0.7-0.7-0.7h-0.4c-0.4,0-0.7,0.2-0.7,0.7v3.8H225.1z"/>
				<path class="st2" d="M228,591.4v-11.5h3.8v1.4h-2.3v3.5h2v1.4h-2v3.8h2.3v1.4H228z"/>
				<path class="st2" d="M235.9,583v-1c0-0.5-0.2-0.7-0.7-0.7H235c-0.4,0-0.7,0.2-0.7,0.7v1.9c0,0.2,0,0.4,0.1,0.4
					c0.1,0.1,0.2,0.2,0.4,0.3l1.5,0.8c0.3,0.2,0.5,0.3,0.7,0.4s0.2,0.2,0.3,0.4c0.1,0.1,0.1,0.4,0.1,0.8v2.4c0,1.3-0.6,1.9-1.9,1.9
					h-0.9c-1.2,0-1.8-0.7-1.8-2.1v-0.6h1.5v0.6c0,0.4,0.2,0.7,0.7,0.7h0.3c0.4,0,0.6-0.2,0.6-0.7v-2c0-0.2,0-0.4-0.1-0.4
					c-0.1-0.1-0.2-0.2-0.4-0.3l-1.5-0.8c-0.3-0.2-0.6-0.3-0.7-0.4c-0.1-0.1-0.2-0.3-0.3-0.5c-0.1-0.2-0.1-0.4-0.1-0.7v-2.4
					c0-1.3,0.6-2,1.8-2h1c1.2,0,1.8,0.7,1.8,2v1.1H235.9z"/>
				<path class="st2" d="M241.2,581.3v10.1h-1.5v-10.1h-1.5v-1.4h4.5v1.4H241.2z"/>
				<path class="st2" d="M243.5,579.9h3c1.2,0,1.8,0.7,1.8,2v2.8c0,1-0.3,1.6-0.9,1.9l1.1,4.8H247l-1-4.6H245v4.6h-1.5V579.9z
					 M245,585.4h1c0.5,0,0.7-0.3,0.7-0.8v-2.5c0-0.6-0.2-0.8-0.7-0.8h-1V585.4z"/>
				<path class="st2" d="M250.4,579.2h-1.1l0.7-1.9h1.4L250.4,579.2z M249.6,591.4v-11.5h1.5v11.5H249.6z"/>
				<path class="st2" d="M254,591.4h-1.5v-9.5c0-1.3,0.6-2,1.8-2h1.2c1.2,0,1.8,0.7,1.8,2v9.5h-1.5v-4.2H254V591.4z M255.8,585.8
					V582c0-0.4-0.2-0.7-0.7-0.7h-0.4c-0.4,0-0.7,0.2-0.7,0.7v3.8H255.8z"/>
				<path class="st2" d="M260,589.4v2h-1.6v-2H260z"/>
				<path class="st2" d="M37.6,629.8h-1.5v-9.5c0-1.3,0.6-2,1.8-2h1.2c1.2,0,1.8,0.7,1.8,2v9.5h-1.5v-4.2h-1.8V629.8z M39.4,624.2
					v-3.8c0-0.4-0.2-0.7-0.7-0.7h-0.4c-0.4,0-0.7,0.2-0.7,0.7v3.8H39.4z"/>
				<path class="st2" d="M42.3,618.3h3c1.2,0,1.8,0.7,1.8,2v2.8c0,1-0.3,1.6-0.9,1.9l1.1,4.8h-1.5l-1-4.6h-0.9v4.6h-1.5V618.3z
					 M43.8,623.8h1c0.5,0,0.7-0.3,0.7-0.8v-2.5c0-0.6-0.2-0.8-0.7-0.8h-1V623.8z"/>
				<path class="st2" d="M51.5,625.1l1.4-6.8h1.7v11.5h-1.5l0.2-7.5l-1.2,5.4h-1.2l-1.2-5.4l0.2,7.5h-1.5v-11.5H50L51.5,625.1z"/>
				<path class="st2" d="M57.5,629.8h-1.5v-9.5c0-1.3,0.6-2,1.8-2h1.2c1.2,0,1.8,0.7,1.8,2v9.5h-1.5v-4.2h-1.8V629.8z M59.2,624.2
					v-3.8c0-0.4-0.2-0.7-0.7-0.7h-0.4c-0.4,0-0.7,0.2-0.7,0.7v3.8H59.2z"/>
				<path class="st2" d="M65.1,621.4v-1c0-0.5-0.2-0.7-0.7-0.7h-0.2c-0.4,0-0.7,0.2-0.7,0.7v1.9c0,0.2,0,0.4,0.1,0.4
					c0.1,0.1,0.2,0.2,0.4,0.3l1.5,0.8c0.3,0.2,0.5,0.3,0.7,0.4c0.1,0.1,0.2,0.2,0.3,0.4s0.1,0.4,0.1,0.8v2.4c0,1.3-0.6,1.9-1.9,1.9
					h-0.9c-1.2,0-1.8-0.7-1.8-2.1v-0.6h1.5v0.6c0,0.4,0.2,0.7,0.7,0.7h0.3c0.4,0,0.6-0.2,0.6-0.7v-2c0-0.2,0-0.4-0.1-0.4
					c-0.1-0.1-0.2-0.2-0.4-0.3l-1.5-0.8c-0.3-0.2-0.6-0.3-0.7-0.4c-0.1-0.1-0.2-0.3-0.3-0.5c-0.1-0.2-0.1-0.4-0.1-0.7v-2.4
					c0-1.3,0.6-2,1.8-2h1c1.2,0,1.8,0.7,1.8,2v1.1H65.1z"/>
				<path class="st2" d="M69.3,621.5v2h-1.6v-2H69.3z M69.3,627.8v2h-1.6v-2H69.3z"/>
				<path class="st2" d="M77.6,627.1v0.7c0,1.3-0.6,2-1.8,2h-1c-1.2,0-1.8-0.7-1.8-2v-7.6c0-1.3,0.6-2,1.8-2h1c1.2,0,1.8,0.7,1.8,2
					v1.3h-1.5v-1.2c0-0.4-0.2-0.7-0.7-0.7h-0.3c-0.4,0-0.6,0.2-0.6,0.7v7.4c0,0.4,0.2,0.7,0.6,0.7h0.4c0.4,0,0.6-0.2,0.6-0.7v-0.6
					H77.6z"/>
				<path class="st2" d="M81.8,621.4v-1c0-0.5-0.2-0.7-0.7-0.7h-0.2c-0.4,0-0.7,0.2-0.7,0.7v1.9c0,0.2,0,0.4,0.1,0.4
					c0.1,0.1,0.2,0.2,0.4,0.3l1.5,0.8c0.3,0.2,0.5,0.3,0.7,0.4c0.1,0.1,0.2,0.2,0.3,0.4s0.1,0.4,0.1,0.8v2.4c0,1.3-0.6,1.9-1.9,1.9
					h-0.9c-1.2,0-1.8-0.7-1.8-2.1v-0.6h1.5v0.6c0,0.4,0.2,0.7,0.7,0.7h0.3c0.4,0,0.6-0.2,0.6-0.7v-2c0-0.2,0-0.4-0.1-0.4
					c-0.1-0.1-0.2-0.2-0.4-0.3l-1.5-0.8c-0.3-0.2-0.6-0.3-0.7-0.4c-0.1-0.1-0.2-0.3-0.3-0.5c-0.1-0.2-0.1-0.4-0.1-0.7v-2.4
					c0-1.3,0.6-2,1.8-2h1c1.2,0,1.8,0.7,1.8,2v1.1H81.8z"/>
				<path class="st2" d="M87.5,621.4v-1c0-0.5-0.2-0.7-0.7-0.7h-0.2c-0.4,0-0.7,0.2-0.7,0.7v1.9c0,0.2,0,0.4,0.1,0.4
					c0.1,0.1,0.2,0.2,0.4,0.3l1.5,0.8c0.3,0.2,0.5,0.3,0.7,0.4c0.1,0.1,0.2,0.2,0.3,0.4s0.1,0.4,0.1,0.8v2.4c0,1.3-0.6,1.9-1.9,1.9
					h-0.9c-1.2,0-1.8-0.7-1.8-2.1v-0.6h1.5v0.6c0,0.4,0.2,0.7,0.7,0.7h0.3c0.4,0,0.6-0.2,0.6-0.7v-2c0-0.2,0-0.4-0.1-0.4
					c-0.1-0.1-0.2-0.2-0.4-0.3l-1.5-0.8c-0.3-0.2-0.6-0.3-0.7-0.4c-0.1-0.1-0.2-0.3-0.3-0.5c-0.1-0.2-0.1-0.4-0.1-0.7v-2.4
					c0-1.3,0.6-2,1.8-2h1c1.2,0,1.8,0.7,1.8,2v1.1H87.5z"/>
				<path class="st2" d="M89.9,631.7l0.7-1.9h-0.8v-2h1.7v2l-0.8,1.9H89.9z"/>
				<path class="st2" d="M95.4,629.8v-11.5h3.8v1.4h-2.3v3.5h2v1.4h-2v3.8h2.3v1.4H95.4z"/>
				<path class="st2" d="M104,629.8h-3.6v-11.5h1.5v10.1h2.1V629.8z"/>
				<path class="st2" d="M104.8,629.8v-11.5h3.8v1.4h-2.3v3.5h2v1.4h-2v3.8h2.3v1.4H104.8z"/>
				<path class="st2" d="M112.9,625.1l1.4-6.8h1.7v11.5h-1.5l0.2-7.5l-1.2,5.4h-1.2l-1.2-5.4l0.2,7.5h-1.5v-11.5h1.7L112.9,625.1z"
					/>
				<path class="st2" d="M117.4,629.8v-11.5h3.8v1.4H119v3.5h2v1.4h-2v3.8h2.3v1.4H117.4z"/>
				<path class="st2" d="M125.5,623.9v-5.6h1.5v11.5h-1.5v-2.3l-1.6-5.2v7.5h-1.5v-11.5h1.5L125.5,623.9z"/>
				<path class="st2" d="M131,619.7v10.1h-1.5v-10.1h-1.5v-1.4h4.5v1.4H131z"/>
				<path class="st2" d="M135.1,629.8c-1.2,0-1.9-0.7-1.9-2v-7.6c0-1.3,0.6-2,1.8-2h1.5c1.2,0,1.8,0.7,1.8,2v7.6c0,1.3-0.6,2-1.9,2
					H135.1z M135.4,628.4h0.8c0.4,0,0.6-0.2,0.6-0.7v-7.4c0-0.4-0.2-0.7-0.7-0.7h-0.7c-0.4,0-0.7,0.2-0.7,0.7v7.4
					C134.8,628.2,135,628.4,135.4,628.4z"/>
				<path class="st2" d="M139.7,618.3h3c1.2,0,1.8,0.7,1.8,2v2.8c0,1-0.3,1.6-0.9,1.9l1.1,4.8h-1.5l-1-4.6h-0.9v4.6h-1.5V618.3z
					 M141.3,623.8h1c0.5,0,0.7-0.3,0.7-0.8v-2.5c0-0.6-0.2-0.8-0.7-0.8h-1V623.8z"/>
				<path class="st2" d="M36.2,649v-11.5H40v1.4h-2.3v3.5h2v1.4h-2v3.8H40v1.4H36.2z"/>
				<path class="st2" d="M44.3,643.1v-5.6h1.5V649h-1.5v-2.3l-1.6-5.2v7.5h-1.5v-11.5h1.5L44.3,643.1z"/>
				<path class="st2" d="M47.3,649v-11.5h3.8v1.4h-2.3v3.5h2v1.4h-2v3.8h2.3v1.4H47.3z"/>
				<path class="st2" d="M55.3,644.3l1.4-6.8h1.7V649h-1.5l0.2-7.5l-1.2,5.4h-1.2l-1.2-5.4l0.2,7.5h-1.5v-11.5h1.7L55.3,644.3z"/>
				<path class="st2" d="M59.9,649v-11.5h1.5V649H59.9z"/>
				<path class="st2" d="M65.2,644.8v-1.4h2.3v5.6h-3c-1.2,0-1.8-0.6-1.8-1.9v-7.6c0-1.3,0.6-2,1.8-2h1.1c1.3,0,2,0.7,2,2v1.2H66v-1
					c0-0.6-0.2-0.8-0.7-0.8H65c-0.4,0-0.7,0.3-0.7,0.8v7c0,0.6,0.2,0.8,0.7,0.8h1v-2.8H65.2z"/>
				<path class="st2" d="M70.6,649c-1.2,0-1.9-0.7-1.9-2v-7.6c0-1.3,0.6-2,1.8-2H72c1.2,0,1.8,0.7,1.8,2v7.6c0,1.3-0.6,2-1.9,2H70.6
					z M70.9,647.6h0.8c0.4,0,0.6-0.2,0.6-0.7v-7.4c0-0.4-0.2-0.7-0.7-0.7h-0.7c-0.4,0-0.7,0.2-0.7,0.7v7.4
					C70.2,647.4,70.5,647.6,70.9,647.6z"/>
				<path class="st2" d="M78.2,640.6v-1c0-0.5-0.2-0.7-0.7-0.7h-0.2c-0.4,0-0.7,0.2-0.7,0.7v1.9c0,0.2,0,0.4,0.1,0.4
					c0.1,0.1,0.2,0.2,0.4,0.3l1.5,0.8c0.3,0.2,0.5,0.3,0.7,0.4s0.2,0.2,0.3,0.4s0.1,0.4,0.1,0.8v2.4c0,1.3-0.6,1.9-1.9,1.9h-0.9
					c-1.2,0-1.8-0.7-1.8-2.1v-0.6h1.5v0.6c0,0.4,0.2,0.7,0.7,0.7h0.3c0.4,0,0.6-0.2,0.6-0.7v-2c0-0.2,0-0.4-0.1-0.4
					c-0.1-0.1-0.2-0.2-0.4-0.3l-1.5-0.8c-0.3-0.2-0.6-0.3-0.7-0.4c-0.1-0.1-0.2-0.3-0.3-0.5c-0.1-0.2-0.1-0.4-0.1-0.7v-2.4
					c0-1.3,0.6-2,1.8-2h1c1.2,0,1.8,0.7,1.8,2v1.1H78.2z"/>
				<path class="st2" d="M82.3,640.8v2h-1.6v-2H82.3z M82.3,647v2h-1.6v-2H82.3z"/>
				<path class="st2" d="M90.7,646.3v0.7c0,1.3-0.6,2-1.8,2h-1c-1.2,0-1.8-0.7-1.8-2v-7.6c0-1.3,0.6-2,1.8-2h1c1.2,0,1.8,0.7,1.8,2
					v1.3h-1.5v-1.2c0-0.4-0.2-0.7-0.7-0.7h-0.3c-0.4,0-0.6,0.2-0.6,0.7v7.4c0,0.4,0.2,0.7,0.6,0.7h0.4c0.4,0,0.6-0.2,0.6-0.7v-0.6
					H90.7z"/>
				<path class="st2" d="M91.9,637.5h3c1.2,0,1.8,0.7,1.8,2v2.8c0,1-0.3,1.6-0.9,1.9l1.1,4.8h-1.5l-1-4.6h-0.9v4.6h-1.5V637.5z
					 M93.4,643h1c0.5,0,0.7-0.3,0.7-0.8v-2.5c0-0.6-0.2-0.8-0.7-0.8h-1V643z"/>
				<path class="st2" d="M97.9,649v-11.5h3.8v1.4h-2.3v3.5h2v1.4h-2v3.8h2.3v1.4H97.9z"/>
				<path class="st2" d="M102.8,649v-11.5h3.8v1.4h-2.3v3.5h2v1.4h-2v3.8h2.3v1.4H102.8z"/>
				<path class="st2" d="M107.8,637.5h3c1.2,0,1.8,0.7,1.8,2v2.8c0,1-0.3,1.6-0.9,1.9l1.1,4.8h-1.5l-1-4.6h-0.9v4.6h-1.5V637.5z
					 M109.3,643h1c0.5,0,0.7-0.3,0.7-0.8v-2.5c0-0.6-0.2-0.8-0.7-0.8h-1V643z"/>
				<path class="st2" d="M122.3,649h-4.2c-1.2,0-1.9-0.6-1.9-1.9v-7.6c0-1.3,0.6-2,1.8-2h1.5c1.2,0,1.8,0.7,1.8,2v8.1h0.9V649z
					 M119.9,647.6v-8c0-0.4-0.2-0.7-0.7-0.7h-0.7c-0.4,0-0.7,0.2-0.7,0.7v7.4c0,0.4,0.2,0.7,0.7,0.7H119.9z"/>
				<path class="st2" d="M128,637.5v9.3c0,1.5-0.6,2.2-1.9,2.2h-1.3c-1.2,0-1.8-0.7-1.8-2.2v-9.3h1.5v9.3c0,0.5,0.2,0.8,0.7,0.8h0.6
					c0.4,0,0.6-0.2,0.6-0.8v-9.3H128z"/>
				<path class="st2" d="M129.5,649v-11.5h3.8v1.4H131v3.5h2v1.4h-2v3.8h2.3v1.4H129.5z"/>
				<path class="st2" d="M139.4,638.9V649h-1.5v-10.1h-1.5v-1.4h4.5v1.4H139.4z"/>
				<path class="st2" d="M143.5,649c-1.2,0-1.9-0.7-1.9-2v-7.6c0-1.3,0.6-2,1.8-2h1.5c1.2,0,1.8,0.7,1.8,2v7.6c0,1.3-0.6,2-1.9,2
					H143.5z M143.9,647.6h0.8c0.4,0,0.6-0.2,0.6-0.7v-7.4c0-0.4-0.2-0.7-0.7-0.7h-0.7c-0.4,0-0.7,0.2-0.7,0.7v7.4
					C143.2,647.4,143.4,647.6,143.9,647.6z"/>
				<path class="st2" d="M148.2,649v-11.5h2.7c1.4,0,2.2,0.7,2.2,2.2v7.6c0,1.1-0.6,1.7-1.8,1.7H148.2z M149.7,647.6h1.2
					c0.4,0,0.6-0.2,0.6-0.5v-7.4c0-0.6-0.2-0.8-0.7-0.8h-1.1V647.6z"/>
				<path class="st2" d="M156.1,649c-1.2,0-1.9-0.7-1.9-2v-7.6c0-1.3,0.6-2,1.8-2h1.5c1.2,0,1.8,0.7,1.8,2v7.6c0,1.3-0.6,2-1.9,2
					H156.1z M156.5,647.6h0.8c0.4,0,0.6-0.2,0.6-0.7v-7.4c0-0.4-0.2-0.7-0.7-0.7h-0.7c-0.4,0-0.7,0.2-0.7,0.7v7.4
					C155.8,647.4,156,647.6,156.5,647.6z"/>
				<path class="st2" d="M163.4,649v-11.5h3.8v1.4h-2.3v3.5h2v1.4h-2v3.8h2.3v1.4H163.4z"/>
				<path class="st2" d="M171.9,649h-3.6v-11.5h1.5v10.1h2.1V649z"/>
				<path class="st2" d="M178.5,644.3l1.4-6.8h1.7V649h-1.5l0.2-7.5l-1.2,5.4h-1.2l-1.2-5.4l0.2,7.5h-1.5v-11.5h1.7L178.5,644.3z"/>
				<path class="st2" d="M188,637.5v9.3c0,1.5-0.6,2.2-1.9,2.2h-1.3c-1.2,0-1.8-0.7-1.8-2.2v-9.3h1.5v9.3c0,0.5,0.2,0.8,0.7,0.8h0.6
					c0.4,0,0.6-0.2,0.6-0.8v-9.3H188z"/>
				<path class="st2" d="M192.6,643.1v-5.6h1.5V649h-1.5v-2.3l-1.6-5.2v7.5h-1.5v-11.5h1.5L192.6,643.1z"/>
				<path class="st2" d="M195.6,649v-11.5h2.7c1.4,0,2.2,0.7,2.2,2.2v7.6c0,1.1-0.6,1.7-1.8,1.7H195.6z M197.2,647.6h1.2
					c0.4,0,0.6-0.2,0.6-0.5v-7.4c0-0.6-0.2-0.8-0.7-0.8h-1.1V647.6z"/>
				<path class="st2" d="M203.6,649c-1.2,0-1.9-0.7-1.9-2v-7.6c0-1.3,0.6-2,1.8-2h1.5c1.2,0,1.8,0.7,1.8,2v7.6c0,1.3-0.6,2-1.9,2
					H203.6z M204,647.6h0.8c0.4,0,0.6-0.2,0.6-0.7v-7.4c0-0.4-0.2-0.7-0.7-0.7h-0.7c-0.4,0-0.7,0.2-0.7,0.7v7.4
					C203.3,647.4,203.5,647.6,204,647.6z"/>
				<path class="st2" d="M214,643.1v-5.6h1.5V649H214v-2.3l-1.6-5.2v7.5h-1.5v-11.5h1.5L214,643.1z"/>
				<path class="st2" d="M218.4,649h-1.5v-9.5c0-1.3,0.6-2,1.8-2h1.2c1.2,0,1.8,0.7,1.8,2v9.5h-1.5v-4.2h-1.8V649z M220.2,643.4
					v-3.8c0-0.4-0.2-0.7-0.7-0.7h-0.4c-0.4,0-0.7,0.2-0.7,0.7v3.8H220.2z"/>
				<path class="st2" d="M227.9,637.5L226,649h-1.8l-1.9-11.5h1.5l1.2,8.8l1.2-8.8H227.9z"/>
				<path class="st2" d="M228.6,649v-11.5h3.8v1.4h-2.3v3.5h2v1.4h-2v3.8h2.3v1.4H228.6z"/>
				<path class="st2" d="M235.9,644.8v-1.4h2.3v5.6h-3c-1.2,0-1.8-0.6-1.8-1.9v-7.6c0-1.3,0.6-2,1.8-2h1.1c1.3,0,2,0.7,2,2v1.2h-1.5
					v-1c0-0.6-0.2-0.8-0.7-0.8h-0.4c-0.4,0-0.7,0.3-0.7,0.8v7c0,0.6,0.2,0.8,0.7,0.8h1v-2.8H235.9z"/>
				<path class="st2" d="M240.9,649h-1.5v-9.5c0-1.3,0.6-2,1.8-2h1.2c1.2,0,1.8,0.7,1.8,2v9.5h-1.5v-4.2h-1.8V649z M242.7,643.4
					v-3.8c0-0.4-0.2-0.7-0.7-0.7h-0.4c-0.4,0-0.7,0.2-0.7,0.7v3.8H242.7z"/>
				<path class="st2" d="M252.7,646.3v0.7c0,1.3-0.6,2-1.8,2h-1c-1.2,0-1.8-0.7-1.8-2v-7.6c0-1.3,0.6-2,1.8-2h1c1.2,0,1.8,0.7,1.8,2
					v1.3h-1.5v-1.2c0-0.4-0.2-0.7-0.7-0.7h-0.3c-0.4,0-0.6,0.2-0.6,0.7v7.4c0,0.4,0.2,0.7,0.6,0.7h0.4c0.4,0,0.6-0.2,0.6-0.7v-0.6
					H252.7z"/>
				<path class="st2" d="M255.7,649c-1.2,0-1.9-0.7-1.9-2v-7.6c0-1.3,0.6-2,1.8-2h1.5c1.2,0,1.8,0.7,1.8,2v7.6c0,1.3-0.6,2-1.9,2
					H255.7z M256.1,647.6h0.8c0.4,0,0.6-0.2,0.6-0.7v-7.4c0-0.4-0.2-0.7-0.7-0.7h-0.7c-0.4,0-0.7,0.2-0.7,0.7v7.4
					C255.4,647.4,255.6,647.6,256.1,647.6z"/>
				<path class="st2" d="M263.6,643.1v-5.6h1.5V649h-1.5v-2.3l-1.6-5.2v7.5h-1.5v-11.5h1.5L263.6,643.1z"/>
				<path class="st2" d="M270.9,649c-1.2,0-1.9-0.7-1.9-2v-7.6c0-1.3,0.6-2,1.8-2h1.5c1.2,0,1.8,0.7,1.8,2v7.6c0,1.3-0.6,2-1.9,2
					H270.9z M271.2,647.6h0.8c0.4,0,0.6-0.2,0.6-0.7v-7.4c0-0.4-0.2-0.7-0.7-0.7h-0.7c-0.4,0-0.7,0.2-0.7,0.7v7.4
					C270.6,647.4,270.8,647.6,271.2,647.6z"/>
				<path class="st2" d="M275.5,637.5h3c1.2,0,1.8,0.7,1.8,2v2.8c0,1-0.3,1.6-0.9,1.9l1.1,4.8H279l-1-4.6h-0.9v4.6h-1.5V637.5z
					 M277.1,643h1c0.5,0,0.7-0.3,0.7-0.8v-2.5c0-0.6-0.2-0.8-0.7-0.8h-1V643z"/>
				<path class="st2" d="M281.6,649v-11.5h2.7c1.4,0,2.2,0.7,2.2,2.2v7.6c0,1.1-0.6,1.7-1.8,1.7H281.6z M283.1,647.6h1.2
					c0.4,0,0.6-0.2,0.6-0.5v-7.4c0-0.6-0.2-0.8-0.7-0.8h-1.1V647.6z"/>
				<path class="st2" d="M287.8,649v-11.5h3.8v1.4h-2.3v3.5h2v1.4h-2v3.8h2.3v1.4H287.8z"/>
				<path class="st2" d="M295.9,643.1v-5.6h1.5V649h-1.5v-2.3l-1.6-5.2v7.5h-1.5v-11.5h1.5L295.9,643.1z"/>
				<path class="st2" d="M300.3,649h-1.5v-9.5c0-1.3,0.6-2,1.8-2h1.2c1.2,0,1.8,0.7,1.8,2v9.5h-1.5v-4.2h-1.8V649z M302.1,643.4
					v-3.8c0-0.4-0.2-0.7-0.7-0.7H301c-0.4,0-0.7,0.2-0.7,0.7v3.8H302.1z"/>
				<path class="st2" d="M305,649v-11.5h2.7c1.4,0,2.2,0.7,2.2,2.2v7.6c0,1.1-0.6,1.7-1.8,1.7H305z M306.5,647.6h1.2
					c0.4,0,0.6-0.2,0.6-0.5v-7.4c0-0.6-0.2-0.8-0.7-0.8h-1.1V647.6z"/>
				<path class="st2" d="M312.9,649c-1.2,0-1.9-0.7-1.9-2v-7.6c0-1.3,0.6-2,1.8-2h1.5c1.2,0,1.8,0.7,1.8,2v7.6c0,1.3-0.6,2-1.9,2
					H312.9z M313.3,647.6h0.8c0.4,0,0.6-0.2,0.6-0.7v-7.4c0-0.4-0.2-0.7-0.7-0.7h-0.7c-0.4,0-0.7,0.2-0.7,0.7v7.4
					C312.6,647.4,312.8,647.6,313.3,647.6z"/>
				<path class="st2" d="M317.6,637.5h3c1.2,0,1.8,0.7,1.8,2v2.8c0,1-0.3,1.6-0.9,1.9l1.1,4.8H321l-1-4.6h-0.9v4.6h-1.5V637.5z
					 M319.1,643h1c0.5,0,0.7-0.3,0.7-0.8v-2.5c0-0.6-0.2-0.8-0.7-0.8h-1V643z"/>
			</g>
			<g>
				<defs>
					<rect id="SVGID_00000007408830318439116370000006126663691914501808_" x="329.2" y="306" width="329.9" height="405.4"/>
				</defs>
				<clipPath id="SVGID_00000143611808020913610990000007442730441750903981_">
					<use xlink:href="#SVGID_00000007408830318439116370000006126663691914501808_"  style="overflow:visible;"/>
				</clipPath>
				<g style="clip-path:url(#SVGID_00000143611808020913610990000007442730441750903981_);">
					<g>
						<path class="st4" d="M500.4,417c0,0-5.6,51.6,0,57.5c5.6,5.9,48.1,8.1,54.3,18.8c6.2,10.7-11.3,123.3-11.3,123.3l-45.5-16.7
							l-6.6,25.4h-39.9l-16.6-41.6c0,0-42.9,14.5-70.1,7c0,0,38.2-92.9,60.3-100.8c22.1-7.9,25-4.4,33.9-13.1s16.4-25.3,18.5-46.6
							c0,0,13.8-17,15.8-18.3C495.3,410.6,500.4,417,500.4,417z"/>
					</g>
					<g>
						<path d="M411.2,389.8c0,0,0.3,31.7,3,45.5c2.8,13.8,3.8,15.6,3.8,15.6l20.7-12.4L411.2,389.8z"/>
					</g>
					<g>
						<path class="st5" d="M472.7,332.2c0,0-31.6-3.5-46.4,11.8c-14.8,15.3-22,48.1-6.9,72.3c15.1,24.2,36.3,32.8,36.3,32.8
							s29.6-25.4,34.6-31.6c4.9-6.2,5.2-19.3,5.2-19.3s12.1-6.9,11.1-18.8c0,0,1-14.1-8.9-9.1c-9.9,4.9-8.4,7.7-8.4,7.7L472.7,332.2
							z"/>
					</g>
					<g>
						<polygon class="st6" points="439.7,408.1 446.2,420.3 438.1,422.7 						"/>
					</g>
					<g>
						<path class="st7" d="M437.1,395.3l39.2-24c0,0,6.9,16.1,5.5,20.3c-1.4,4.2-20.5,24.8-28.6,27.4l-1.8,0.8l-11.6-11.7l-1.5,13.3
							c0,0-11.3-3.7-16.4-6.8c-5.1-3.1-7-12.7-8.5-16.1c-1.5-3.3-2.1-8.6-2.1-8.6L437.1,395.3z"/>
					</g>
					<g>
						<path class="st2" d="M472.3,382.8c0,0-2.5,15.2-10.2,17.7c-7.7,2.5-11.6,0.7-11.6,0.7L472.3,382.8z"/>
					</g>
					<g>
						<path class="st2" d="M432.5,404.8l-14.5-2.9c0,0,3.7,5.4,8.3,6.6C431,409.6,432.5,404.8,432.5,404.8z"/>
					</g>
					<g>
						<path class="st8" d="M472.9,382.4l-23.1,20.1c0,0,2.6-8.6,7.1-14.1C461.5,382.8,470,381.9,472.9,382.4z"/>
					</g>
					<g>
						<path class="st8" d="M416.1,401.9l17.9,3.9c0,0-11.6-8-15.2-8.3c-3.6-0.3-6,3.3-6,3.3L416.1,401.9z"/>
					</g>
					<g>
						<path class="st8" d="M419.7,401.9c0,0,1.9,0.4,4.6,2.6c2.6,2.2,2.2,4,2.2,4s-4.4-0.4-8.3-6.2L419.7,401.9z"/>
					</g>
					<g>
						<path class="st8" d="M451.7,399.8c0,0,3.3-1.1,6.8-0.6c3.5,0.5,3.6,1.4,3.6,1.4s-6.1,3.4-11.6,1L451.7,399.8z"/>
					</g>
					<g>
						<path class="st8" d="M445.5,429.4l29.5-17.4c0,0,0.8,14.4-8.9,18.7C456.4,435,447.7,432.1,445.5,429.4z"/>
					</g>
					<g>
						<path class="st2" d="M449.1,427.8c0,0,6.8,2.2,7.1,2.3c0.3,0.1,10.7-4.1,13.9-7.6c3.2-3.5,3.5-8.5,3.5-8.5L449.1,427.8z"/>
					</g>
					<g>
						<path class="st2" d="M456,430.5l-0.6,1.8c0,0,6.8-0.6,10.5-2.2c3.7-1.7,7.1-8.1,7.1-8.1l-1.4-0.7H471L456,430.5z"/>
					</g>
					<g>
						<path class="st9" d="M421.2,350.5c0,0,15.5,28.1,40.9,29.5c25.3,1.4,30.1-3.6,30.1-3.6s6.1-9.1,11.5-6.2
							c5.4,2.8,4,17.2-1.5,22.3c-5.5,5.1-8.3,5.1-8.3,5.1l-2.3,46.9l24.8-19.8c0,0-1.1-60.4-7.3-71.7c-6.2-11.3-27.3-28.3-53.8-23.2
							C423.5,335.9,421.2,350.5,421.2,350.5z"/>
					</g>
					<g>
						<path class="st10" d="M577.2,940.3c-2.6-55.2-23.7-51.9-27.6-63.1c-3.9-11.2,11.8-57.2,6.4-132.1s-64.7-119.8-64.7-119.8
							h-39.9c0,0-29.4,37.7-41.8,67.3c-12.5,29.6-5.9,68.4-2.6,111.7c1.9,25.3,3.2,89.1,4.1,145.1c3.3-4.9,7.2-9.4,12.3-13
							c5.4,14.5,14.6,29,26.6,40c2.3-5.9,4.7-11.4,6.9-16.3c17.7-39.4-0.7-45.3-7.2-71.6c-6.6-26.3,28.3-138.7,28.3-138.7
							s25.6,74.3,33.5,103.2c5.1,18.7,19.9,78.1,29.6,125.5c2.8-10.9,3.8-22.2,8.5-31.6c4.3,17,13.7,30.6,25.5,42.2
							C576.9,971.7,577.9,954.6,577.2,940.3z"/>
					</g>
					<g>
						<path class="st4" d="M423.4,936.3c-5.1,3.7-9,8.2-12.3,13c0.7,40.2,1.2,76.4,1.8,91.5c1.3,36.1-18.4,28.9-40.1,31.5
							c-21.7,2.6-35.5,17.1-35.5,17.1l80.2-2c0,0,0,0-0.7-6.6c-0.6-5.7,16.9-63.7,33.2-104.6C438,965.3,428.8,950.8,423.4,936.3z"/>
					</g>
					<g>
						<path class="st4" d="M541.1,978.4c5.3,25.8,9.1,48.1,9.1,58.5c0,29.6-23,44-38.8,44.7s-28.3,12.5-28.3,12.5l74.9-3.3
							c0,0,11.9-52.2,17-101.8c-11.8-11.5-21.3-25.1-25.5-42.2C544.9,956.3,543.9,967.5,541.1,978.4z"/>
					</g>
					<g>
						<path class="st10" d="M492.6,555.4l-9.8,36c0,0-45.2-32.8-54.2-34.1c-9-1.3-29.9,0.5-30.7,0.5c-0.8,0,4.5-12.7,15.6-14.3
							c11.1-1.6,14.8,0.3,36.5,2.6C471.7,548.5,492.6,555.4,492.6,555.4z"/>
					</g>
					<g>
						<polygon class="st11" points="483.7,588.2 504.5,601.8 506.3,602.9 482.8,591.4 						"/>
					</g>
					<g>
						<path class="st11" d="M541.8,489c0,0-12.7,4-16.1,14c-3.4,10-4.3,65.2-4.3,65.2s-2.8-58,0.9-66.5
							C525.9,493.3,536.5,490.4,541.8,489z"/>
					</g>
					<g>
						<polygon class="st11" points="492,557.7 534.3,570.4 492.6,555.4 						"/>
					</g>
					<g>
						<path class="st11" d="M430.9,490.7c0,0-10.6,10.3-11.7,19.5c-1.1,9.2,2.3,32.7,2.3,32.7s-5.1-24.7-5.1-27.7
							C416.4,512.3,418.9,498.7,430.9,490.7z"/>
					</g>
					<g>
						<polygon class="st10" points="449.1,483 461.4,525.8 510.5,478.4 522.4,481 458.8,541.4 442.1,484.8 						"/>
					</g>
					<g>
						<path class="st12" d="M482.8,739.8l-48.3-34.9C434.5,704.9,470,739.4,482.8,739.8z"/>
					</g>
					<g>
						<path class="st13" d="M535.9,484.1c0,0-14.3,7.5-19.4,13.5c-5.1,6-8.2,10.1-11.3,8.1c-3.1-2.1,1.7-17.9,3.5-21.6
							c1.9-3.7,2.9-5.6,2.9-5.6l22.7,5.2"/>
					</g>
					<g>
						<path class="st13" d="M446.8,483.6c0,0-8.1,23.8-12.2,22.6C430.4,505,426,489,426,489L446.8,483.6z"/>
					</g>
				</g>
			</g>
			<g>
				<polygon class="st14" points="638,977 -2,1064 -2,744 638,657 				"/>
			</g>
			<g>
				<path class="st2" d="M400.5,798.9V763h8.3c4.5,0,6.7,2.3,6.7,6.9v23.8c0,3.5-1.9,5.2-5.7,5.2H400.5z M405.3,794.5h3.6
					c1.3,0,1.9-0.5,1.9-1.6v-23c0-1.7-0.7-2.6-2.2-2.6h-3.3V794.5z"/>
				<path class="st2" d="M419.9,798.9V763h11.9v4.3h-7.1v10.9h6.3v4.3h-6.3v11.9h7.1v4.3H419.9z"/>
				<path class="st2" d="M444.4,772.6v-3.1c0-1.4-0.7-2.1-2.1-2.1h-0.8c-1.4,0-2,0.7-2,2.1v5.9c0,0.7,0.1,1.1,0.4,1.4
					c0.3,0.2,0.7,0.5,1.3,0.9l4.5,2.5c1,0.6,1.7,1,2.1,1.3c0.4,0.3,0.7,0.7,1,1.2c0.2,0.4,0.3,1.3,0.3,2.6v7.7c0,4-1.9,6-5.8,6h-2.9
					c-3.8,0-5.8-2.2-5.8-6.6v-1.8h4.8v2c0,1.4,0.7,2.1,2.1,2.1h0.9c1.3,0,1.9-0.7,1.9-2.1v-6.1c0-0.7-0.1-1.1-0.4-1.3
					c-0.3-0.2-0.7-0.5-1.3-0.9l-4.5-2.5c-1-0.5-1.7-1-2.2-1.3c-0.5-0.4-0.8-0.8-1-1.4c-0.2-0.6-0.3-1.3-0.3-2.3v-7.3
					c0-4.1,1.9-6.1,5.8-6.1h3c3.8,0,5.7,2,5.7,6.1v3.5H444.4z"/>
				<path class="st2" d="M453.2,798.9V763h4.8v35.9H453.2z"/>
				<path class="st2" d="M469.9,785.7v-4.3h7.3v17.5h-9.4c-3.7,0-5.5-2-5.5-6v-23.7c0-4.1,1.8-6.1,5.5-6.1h3.3
					c4.1,0,6.1,2.1,6.1,6.2v3.9h-4.8v-3.2c0-1.7-0.7-2.6-2-2.6h-1.2c-1.4,0-2.1,0.9-2.1,2.6v22c0,1.7,0.7,2.6,2.1,2.6h3.2v-8.8
					H469.9z"/>
				<path class="st2" d="M491.1,780.3V763h4.8v35.9h-4.8v-7.1l-5.1-16.3v23.5h-4.8V763h4.8L491.1,780.3z"/>
				<path class="st2" d="M527,798.9h-13c-3.9,0-5.8-2-5.8-6v-23.7c0-4.1,1.9-6.1,5.7-6.1h4.6c3.8,0,5.8,2,5.8,6.1v25.4h2.8V798.9z
					 M519.4,794.5v-25.1c0-1.4-0.7-2.1-2.1-2.1H515c-1.4,0-2.1,0.7-2.1,2.1v23c0,1.4,0.7,2.1,2.1,2.1H519.4z"/>
				<path class="st2" d="M544.8,763v29.1c0,4.5-1.9,6.8-5.8,6.8h-4c-3.8,0-5.7-2.3-5.7-6.8v-29h4.8v29.2c0,1.6,0.7,2.3,2.1,2.3h2
					c1.3,0,2-0.8,2-2.3V763H544.8z"/>
				<path class="st2" d="M549.3,798.9V763h11.9v4.3h-7.1v10.9h6.3v4.3h-6.3v11.9h7.1v4.3H549.3z"/>
				<path class="st2" d="M564.7,798.9V763h11.9v4.3h-7.1v10.9h6.3v4.3h-6.3v11.9h7.1v4.3H564.7z"/>
				<path class="st2" d="M590,780.3V763h4.8v35.9H590v-7.1l-5.1-16.3v23.5H580V763h4.8L590,780.3z"/>
				<path class="st2" d="M326.1,832.5v-5.2h-1.9v5.2h-1.5V821h1.5v4.9h1.9V821h1.5v11.5H326.1z"/>
				<path class="st2" d="M330.5,832.5H329V823c0-1.3,0.6-2,1.8-2h1.2c1.2,0,1.8,0.7,1.8,2v9.5h-1.5v-4.2h-1.8V832.5z M332.3,826.9
					v-3.8c0-0.4-0.2-0.7-0.7-0.7h-0.4c-0.4,0-0.7,0.2-0.7,0.7v3.8H332.3z"/>
				<path class="st2" d="M339.8,829.8v0.7c0,1.3-0.6,2-1.8,2h-1c-1.2,0-1.8-0.7-1.8-2V823c0-1.3,0.6-2,1.8-2h1c1.2,0,1.8,0.7,1.8,2
					v1.3h-1.5v-1.2c0-0.4-0.2-0.7-0.7-0.7h-0.3c-0.4,0-0.6,0.2-0.6,0.7v7.4c0,0.4,0.2,0.7,0.6,0.7h0.4c0.4,0,0.6-0.2,0.6-0.7v-0.6
					H339.8z"/>
				<path class="st2" d="M341,832.5V821h3.8v1.4h-2.3v3.5h2v1.4h-2v3.8h2.3v1.4H341z"/>
				<path class="st2" d="M349.9,832.5h-1.5V823c0-1.3,0.6-2,1.8-2h1.2c1.2,0,1.8,0.7,1.8,2v9.5h-1.5v-4.2h-1.8V832.5z M351.7,826.9
					v-3.8c0-0.4-0.2-0.7-0.7-0.7h-0.4c-0.4,0-0.7,0.2-0.7,0.7v3.8H351.7z"/>
				<path class="st2" d="M359.6,822.4v10.1H358v-10.1h-1.5V821h4.5v1.4H359.6z"/>
				<path class="st2" d="M366.9,821v9.3c0,1.5-0.6,2.2-1.9,2.2h-1.3c-1.2,0-1.8-0.7-1.8-2.2V821h1.5v9.3c0,0.5,0.2,0.8,0.7,0.8h0.6
					c0.4,0,0.6-0.3,0.6-0.8V821H366.9z"/>
				<path class="st2" d="M371.3,824.1v-1c0-0.5-0.2-0.7-0.7-0.7h-0.2c-0.4,0-0.7,0.2-0.7,0.7v1.9c0,0.2,0,0.4,0.1,0.4
					c0.1,0.1,0.2,0.2,0.4,0.3l1.5,0.8c0.3,0.2,0.5,0.3,0.7,0.4c0.1,0.1,0.2,0.2,0.3,0.4c0.1,0.1,0.1,0.4,0.1,0.8v2.4
					c0,1.3-0.6,1.9-1.9,1.9H370c-1.2,0-1.8-0.7-1.8-2.1v-0.6h1.5v0.6c0,0.4,0.2,0.7,0.7,0.7h0.3c0.4,0,0.6-0.2,0.6-0.7v-2
					c0-0.2,0-0.4-0.1-0.4s-0.2-0.2-0.4-0.3l-1.5-0.8c-0.3-0.2-0.6-0.3-0.7-0.4s-0.2-0.3-0.3-0.5s-0.1-0.4-0.1-0.7V823
					c0-1.3,0.6-2,1.8-2h1c1.2,0,1.8,0.7,1.8,2v1.1H371.3z"/>
				<path class="st2" d="M381.7,821v9.3c0,1.5-0.6,2.2-1.9,2.2h-1.3c-1.2,0-1.8-0.7-1.8-2.2V821h1.5v9.3c0,0.5,0.2,0.8,0.7,0.8h0.6
					c0.4,0,0.6-0.3,0.6-0.8V821H381.7z"/>
				<path class="st2" d="M386,824.1v-1c0-0.5-0.2-0.7-0.7-0.7h-0.2c-0.4,0-0.7,0.2-0.7,0.7v1.9c0,0.2,0,0.4,0.1,0.4
					c0.1,0.1,0.2,0.2,0.4,0.3l1.5,0.8c0.3,0.2,0.5,0.3,0.7,0.4c0.1,0.1,0.2,0.2,0.3,0.4c0.1,0.1,0.1,0.4,0.1,0.8v2.4
					c0,1.3-0.6,1.9-1.9,1.9h-0.9c-1.2,0-1.8-0.7-1.8-2.1v-0.6h1.5v0.6c0,0.4,0.2,0.7,0.7,0.7h0.3c0.4,0,0.6-0.2,0.6-0.7v-2
					c0-0.2,0-0.4-0.1-0.4c-0.1-0.1-0.2-0.2-0.4-0.3l-1.5-0.8c-0.3-0.2-0.6-0.3-0.7-0.4c-0.1-0.1-0.2-0.3-0.3-0.5
					c-0.1-0.2-0.1-0.4-0.1-0.7V823c0-1.3,0.6-2,1.8-2h1c1.2,0,1.8,0.7,1.8,2v1.1H386z"/>
				<path class="st2" d="M393.9,821v9.3c0,1.5-0.6,2.2-1.9,2.2h-1.3c-1.2,0-1.8-0.7-1.8-2.2V821h1.5v9.3c0,0.5,0.2,0.8,0.7,0.8h0.6
					c0.4,0,0.6-0.3,0.6-0.8V821H393.9z"/>
				<path class="st2" d="M396.7,832.5h-1.5V823c0-1.3,0.6-2,1.8-2h1.2c1.2,0,1.8,0.7,1.8,2v9.5h-1.5v-4.2h-1.8V832.5z M398.5,826.9
					v-3.8c0-0.4-0.2-0.7-0.7-0.7h-0.4c-0.4,0-0.7,0.2-0.7,0.7v3.8H398.5z"/>
				<path class="st2" d="M401.4,821h3c1.2,0,1.8,0.7,1.8,2v2.8c0,1-0.3,1.6-0.9,1.9l1.1,4.8h-1.5l-1-4.6h-0.9v4.6h-1.5V821z
					 M402.9,826.5h1c0.5,0,0.7-0.3,0.7-0.8v-2.5c0-0.6-0.2-0.8-0.7-0.8h-1V826.5z"/>
				<path class="st2" d="M407.5,832.5V821h1.5v11.5H407.5z"/>
				<path class="st2" d="M412.2,832.5c-1.2,0-1.9-0.7-1.9-2V823c0-1.3,0.6-2,1.8-2h1.5c1.2,0,1.8,0.7,1.8,2v7.6c0,1.3-0.6,2-1.9,2
					H412.2z M412.6,831.1h0.8c0.4,0,0.6-0.2,0.6-0.7v-7.4c0-0.4-0.2-0.7-0.7-0.7h-0.7c-0.4,0-0.7,0.2-0.7,0.7v7.4
					C411.9,830.9,412.1,831.1,412.6,831.1z"/>
				<path class="st2" d="M419.8,824.1v-1c0-0.5-0.2-0.7-0.7-0.7h-0.2c-0.4,0-0.7,0.2-0.7,0.7v1.9c0,0.2,0,0.4,0.1,0.4
					c0.1,0.1,0.2,0.2,0.4,0.3l1.5,0.8c0.3,0.2,0.5,0.3,0.7,0.4c0.1,0.1,0.2,0.2,0.3,0.4c0.1,0.1,0.1,0.4,0.1,0.8v2.4
					c0,1.3-0.6,1.9-1.9,1.9h-0.9c-1.2,0-1.8-0.7-1.8-2.1v-0.6h1.5v0.6c0,0.4,0.2,0.7,0.7,0.7h0.3c0.4,0,0.6-0.2,0.6-0.7v-2
					c0-0.2,0-0.4-0.1-0.4s-0.2-0.2-0.4-0.3l-1.5-0.8c-0.3-0.2-0.6-0.3-0.7-0.4s-0.2-0.3-0.3-0.5s-0.1-0.4-0.1-0.7V823
					c0-1.3,0.6-2,1.8-2h1c1.2,0,1.8,0.7,1.8,2v1.1H419.8z"/>
				<path class="st2" d="M428.1,824.1v-1c0-0.5-0.2-0.7-0.7-0.7h-0.2c-0.4,0-0.7,0.2-0.7,0.7v1.9c0,0.2,0,0.4,0.1,0.4
					c0.1,0.1,0.2,0.2,0.4,0.3l1.5,0.8c0.3,0.2,0.5,0.3,0.7,0.4c0.1,0.1,0.2,0.2,0.3,0.4c0.1,0.1,0.1,0.4,0.1,0.8v2.4
					c0,1.3-0.6,1.9-1.9,1.9h-0.9c-1.2,0-1.8-0.7-1.8-2.1v-0.6h1.5v0.6c0,0.4,0.2,0.7,0.7,0.7h0.3c0.4,0,0.6-0.2,0.6-0.7v-2
					c0-0.2,0-0.4-0.1-0.4c-0.1-0.1-0.2-0.2-0.4-0.3l-1.5-0.8c-0.3-0.2-0.6-0.3-0.7-0.4c-0.1-0.1-0.2-0.3-0.3-0.5
					c-0.1-0.2-0.1-0.4-0.1-0.7V823c0-1.3,0.6-2,1.8-2h1c1.2,0,1.8,0.7,1.8,2v1.1H428.1z"/>
				<path class="st2" d="M430.9,832.5V821h3.8v1.4h-2.3v3.5h2v1.4h-2v3.8h2.3v1.4H430.9z"/>
				<path class="st2" d="M439,826.6V821h1.5v11.5H439v-2.3l-1.6-5.2v7.5h-1.5V821h1.5L439,826.6z"/>
				<path class="st2" d="M444.5,822.4v10.1h-1.5v-10.1h-1.5V821h4.5v1.4H444.5z"/>
				<path class="st2" d="M446.8,832.5V821h1.5v11.5H446.8z"/>
				<path class="st2" d="M449.8,821h3c1.2,0,1.8,0.7,1.8,2v2.8c0,1-0.3,1.6-0.9,1.9l1.1,4.8h-1.5l-1-4.6h-0.9v4.6h-1.5V821z
					 M451.3,826.5h1c0.5,0,0.7-0.3,0.7-0.8v-2.5c0-0.6-0.2-0.8-0.7-0.8h-1V826.5z"/>
				<path class="st2" d="M458.8,824.1v-1c0-0.5-0.2-0.7-0.7-0.7h-0.2c-0.4,0-0.7,0.2-0.7,0.7v1.9c0,0.2,0,0.4,0.1,0.4
					c0.1,0.1,0.2,0.2,0.4,0.3l1.5,0.8c0.3,0.2,0.5,0.3,0.7,0.4c0.1,0.1,0.2,0.2,0.3,0.4c0.1,0.1,0.1,0.4,0.1,0.8v2.4
					c0,1.3-0.6,1.9-1.9,1.9h-0.9c-1.2,0-1.8-0.7-1.8-2.1v-0.6h1.5v0.6c0,0.4,0.2,0.7,0.7,0.7h0.3c0.4,0,0.6-0.2,0.6-0.7v-2
					c0-0.2,0-0.4-0.1-0.4s-0.2-0.2-0.4-0.3l-1.5-0.8c-0.3-0.2-0.6-0.3-0.7-0.4s-0.2-0.3-0.3-0.5s-0.1-0.4-0.1-0.7V823
					c0-1.3,0.6-2,1.8-2h1c1.2,0,1.8,0.7,1.8,2v1.1H458.8z"/>
				<path class="st2" d="M461.6,832.5V821h3.8v1.4h-2.3v3.5h2v1.4h-2v3.8h2.3v1.4H461.6z"/>
				<path class="st2" d="M473.7,829.8v0.7c0,1.3-0.6,2-1.8,2h-1c-1.2,0-1.8-0.7-1.8-2V823c0-1.3,0.6-2,1.8-2h1c1.2,0,1.8,0.7,1.8,2
					v1.3h-1.5v-1.2c0-0.4-0.2-0.7-0.7-0.7h-0.3c-0.4,0-0.6,0.2-0.6,0.7v7.4c0,0.4,0.2,0.7,0.6,0.7h0.4c0.4,0,0.6-0.2,0.6-0.7v-0.6
					H473.7z"/>
				<path class="st2" d="M476.6,832.5c-1.2,0-1.9-0.7-1.9-2V823c0-1.3,0.6-2,1.8-2h1.5c1.2,0,1.8,0.7,1.8,2v7.6c0,1.3-0.6,2-1.9,2
					H476.6z M477,831.1h0.8c0.4,0,0.6-0.2,0.6-0.7v-7.4c0-0.4-0.2-0.7-0.7-0.7H477c-0.4,0-0.7,0.2-0.7,0.7v7.4
					C476.3,830.9,476.5,831.1,477,831.1z M477.5,820.3h-1.1l0.7-1.9h1.4L477.5,820.3z"/>
				<path class="st2" d="M484.4,827.8l1.4-6.8h1.7v11.5H486l0.2-7.5l-1.2,5.4h-1.2l-1.2-5.4l0.2,7.5h-1.5V821h1.7L484.4,827.8z"/>
				<path class="st2" d="M490.7,832.5c-1.2,0-1.9-0.7-1.9-2V823c0-1.3,0.6-2,1.8-2h1.5c1.2,0,1.8,0.7,1.8,2v7.6c0,1.3-0.6,2-1.9,2
					H490.7z M491.1,831.1h0.8c0.4,0,0.6-0.2,0.6-0.7v-7.4c0-0.4-0.2-0.7-0.7-0.7h-0.7c-0.4,0-0.7,0.2-0.7,0.7v7.4
					C490.4,830.9,490.7,831.1,491.1,831.1z"/>
				<path class="st2" d="M495.4,832.5V821h2.7c1.4,0,2.2,0.7,2.2,2.2v7.6c0,1.1-0.6,1.7-1.8,1.7H495.4z M496.9,831.1h1.2
					c0.4,0,0.6-0.2,0.6-0.5v-7.4c0-0.6-0.2-0.8-0.7-0.8h-1.1V831.1z"/>
				<path class="st2" d="M503.4,832.5c-1.2,0-1.9-0.7-1.9-2V823c0-1.3,0.6-2,1.8-2h1.5c1.2,0,1.8,0.7,1.8,2v7.6c0,1.3-0.6,2-1.9,2
					H503.4z M503.7,831.1h0.8c0.4,0,0.6-0.2,0.6-0.7v-7.4c0-0.4-0.2-0.7-0.7-0.7h-0.7c-0.4,0-0.7,0.2-0.7,0.7v7.4
					C503,830.9,503.3,831.1,503.7,831.1z"/>
				<path class="st2" d="M511,824.1v-1c0-0.5-0.2-0.7-0.7-0.7h-0.2c-0.4,0-0.7,0.2-0.7,0.7v1.9c0,0.2,0,0.4,0.1,0.4
					c0.1,0.1,0.2,0.2,0.4,0.3l1.5,0.8c0.3,0.2,0.5,0.3,0.7,0.4c0.1,0.1,0.2,0.2,0.3,0.4c0.1,0.1,0.1,0.4,0.1,0.8v2.4
					c0,1.3-0.6,1.9-1.9,1.9h-0.9c-1.2,0-1.8-0.7-1.8-2.1v-0.6h1.5v0.6c0,0.4,0.2,0.7,0.7,0.7h0.3c0.4,0,0.6-0.2,0.6-0.7v-2
					c0-0.2,0-0.4-0.1-0.4c-0.1-0.1-0.2-0.2-0.4-0.3l-1.5-0.8c-0.3-0.2-0.6-0.3-0.7-0.4c-0.1-0.1-0.2-0.3-0.3-0.5
					c-0.1-0.2-0.1-0.4-0.1-0.7V823c0-1.3,0.6-2,1.8-2h1c1.2,0,1.8,0.7,1.8,2v1.1H511z"/>
				<path class="st2" d="M519.2,832.5h-1.5v-4.2l-1.9-7.3h1.5l1.2,5h0l1-5h1.5l-1.9,7.3V832.5z"/>
				<path class="st2" d="M527.4,824.1v-1c0-0.5-0.2-0.7-0.7-0.7h-0.2c-0.4,0-0.7,0.2-0.7,0.7v1.9c0,0.2,0,0.4,0.1,0.4
					c0.1,0.1,0.2,0.2,0.4,0.3l1.5,0.8c0.3,0.2,0.5,0.3,0.7,0.4c0.1,0.1,0.2,0.2,0.3,0.4c0.1,0.1,0.1,0.4,0.1,0.8v2.4
					c0,1.3-0.6,1.9-1.9,1.9h-0.9c-1.2,0-1.8-0.7-1.8-2.1v-0.6h1.5v0.6c0,0.4,0.2,0.7,0.7,0.7h0.3c0.4,0,0.6-0.2,0.6-0.7v-2
					c0-0.2,0-0.4-0.1-0.4c-0.1-0.1-0.2-0.2-0.4-0.3l-1.5-0.8c-0.3-0.2-0.6-0.3-0.7-0.4c-0.1-0.1-0.2-0.3-0.3-0.5
					c-0.1-0.2-0.1-0.4-0.1-0.7V823c0-1.3,0.6-2,1.8-2h1c1.2,0,1.8,0.7,1.8,2v1.1H527.4z"/>
				<path class="st2" d="M531.7,832.5h-1.5V823c0-1.3,0.6-2,1.8-2h1.2c1.2,0,1.8,0.7,1.8,2v9.5h-1.5v-4.2h-1.8V832.5z M533.5,826.9
					v-3.8c0-0.4-0.2-0.7-0.7-0.7h-0.4c-0.4,0-0.7,0.2-0.7,0.7v3.8H533.5z"/>
				<path class="st2" d="M538.8,822.4v10.1h-1.5v-10.1h-1.5V821h4.5v1.4H538.8z"/>
				<path class="st2" d="M541.2,832.5V821h1.5v11.5H541.2z"/>
				<path class="st2" d="M547.1,824.1v-1c0-0.5-0.2-0.7-0.7-0.7h-0.2c-0.4,0-0.7,0.2-0.7,0.7v1.9c0,0.2,0,0.4,0.1,0.4
					c0.1,0.1,0.2,0.2,0.4,0.3l1.5,0.8c0.3,0.2,0.5,0.3,0.7,0.4c0.1,0.1,0.2,0.2,0.3,0.4c0.1,0.1,0.1,0.4,0.1,0.8v2.4
					c0,1.3-0.6,1.9-1.9,1.9h-0.9c-1.2,0-1.8-0.7-1.8-2.1v-0.6h1.5v0.6c0,0.4,0.2,0.7,0.7,0.7h0.3c0.4,0,0.6-0.2,0.6-0.7v-2
					c0-0.2,0-0.4-0.1-0.4s-0.2-0.2-0.4-0.3l-1.5-0.8c-0.3-0.2-0.6-0.3-0.7-0.4s-0.2-0.3-0.3-0.5s-0.1-0.4-0.1-0.7V823
					c0-1.3,0.6-2,1.8-2h1c1.2,0,1.8,0.7,1.8,2v1.1H547.1z"/>
				<path class="st2" d="M553.5,825.9v1.4h-2v5.2h-1.5V821h3.8v1.4h-2.3v3.5H553.5z"/>
				<path class="st2" d="M554.8,832.5V821h3.8v1.4h-2.3v3.5h2v1.4h-2v3.8h2.3v1.4H554.8z"/>
				<path class="st2" d="M564.3,829.8v0.7c0,1.3-0.6,2-1.8,2h-1c-1.2,0-1.8-0.7-1.8-2V823c0-1.3,0.6-2,1.8-2h1c1.2,0,1.8,0.7,1.8,2
					v1.3h-1.5v-1.2c0-0.4-0.2-0.7-0.7-0.7h-0.3c-0.4,0-0.6,0.2-0.6,0.7v7.4c0,0.4,0.2,0.7,0.6,0.7h0.4c0.4,0,0.6-0.2,0.6-0.7v-0.6
					H564.3z"/>
				<path class="st2" d="M568.9,832.5v-5.2H567v5.2h-1.5V821h1.5v4.9h1.9V821h1.5v11.5H568.9z"/>
				<path class="st2" d="M573.6,832.5c-1.2,0-1.9-0.7-1.9-2V823c0-1.3,0.6-2,1.8-2h1.5c1.2,0,1.8,0.7,1.8,2v7.6c0,1.3-0.6,2-1.9,2
					H573.6z M574,831.1h0.8c0.4,0,0.6-0.2,0.6-0.7v-7.4c0-0.4-0.2-0.7-0.7-0.7H574c-0.4,0-0.7,0.2-0.7,0.7v7.4
					C573.3,830.9,573.5,831.1,574,831.1z"/>
				<path class="st2" d="M581.2,824.1v-1c0-0.5-0.2-0.7-0.7-0.7h-0.2c-0.4,0-0.7,0.2-0.7,0.7v1.9c0,0.2,0,0.4,0.1,0.4
					c0.1,0.1,0.2,0.2,0.4,0.3l1.5,0.8c0.3,0.2,0.5,0.3,0.7,0.4c0.1,0.1,0.2,0.2,0.3,0.4c0.1,0.1,0.1,0.4,0.1,0.8v2.4
					c0,1.3-0.6,1.9-1.9,1.9H580c-1.2,0-1.8-0.7-1.8-2.1v-0.6h1.5v0.6c0,0.4,0.2,0.7,0.7,0.7h0.3c0.4,0,0.6-0.2,0.6-0.7v-2
					c0-0.2,0-0.4-0.1-0.4c-0.1-0.1-0.2-0.2-0.4-0.3l-1.5-0.8c-0.3-0.2-0.6-0.3-0.7-0.4c-0.1-0.1-0.2-0.3-0.3-0.5
					c-0.1-0.2-0.1-0.4-0.1-0.7V823c0-1.3,0.6-2,1.8-2h1c1.2,0,1.8,0.7,1.8,2v1.1H581.2z"/>
				<path class="st2" d="M586.6,832.5V821h2.7c1.4,0,2.2,0.7,2.2,2.2v7.6c0,1.1-0.6,1.7-1.8,1.7H586.6z M588.2,831.1h1.2
					c0.4,0,0.6-0.2,0.6-0.5v-7.4c0-0.6-0.2-0.8-0.7-0.8h-1.1V831.1z"/>
				<path class="st2" d="M592.8,832.5V821h3.8v1.4h-2.3v3.5h2v1.4h-2v3.8h2.3v1.4H592.8z"/>
				<path class="st2" d="M306.6,845.8v-5.6h1.5v11.5h-1.5v-2.3l-1.6-5.2v7.5h-1.5v-11.5h1.5L306.6,845.8z"/>
				<path class="st2" d="M311,851.7h-1.5v-9.5c0-1.3,0.6-2,1.8-2h1.2c1.2,0,1.8,0.7,1.8,2v9.5h-1.5v-4.2H311V851.7z M312.8,846.1
					v-3.8c0-0.4-0.2-0.7-0.7-0.7h-0.4c-0.4,0-0.7,0.2-0.7,0.7v3.8H312.8z"/>
				<path class="st2" d="M320.5,840.2l-1.9,11.5h-1.8l-1.9-11.5h1.5l1.2,8.8l1.2-8.8H320.5z"/>
				<path class="st2" d="M321.2,851.7v-11.5h3.8v1.4h-2.3v3.5h2v1.4h-2v3.8h2.3v1.4H321.2z"/>
				<path class="st2" d="M328.5,847.5v-1.4h2.3v5.6h-3c-1.2,0-1.8-0.6-1.8-1.9v-7.6c0-1.3,0.6-2,1.8-2h1.1c1.3,0,2,0.7,2,2v1.2h-1.5
					v-1c0-0.6-0.2-0.8-0.7-0.8h-0.4c-0.4,0-0.7,0.3-0.7,0.8v7c0,0.6,0.2,0.8,0.7,0.8h1v-2.8H328.5z"/>
				<path class="st2" d="M333.5,851.7H332v-9.5c0-1.3,0.6-2,1.8-2h1.2c1.2,0,1.8,0.7,1.8,2v9.5h-1.5v-4.2h-1.8V851.7z M335.3,846.1
					v-3.8c0-0.4-0.2-0.7-0.7-0.7h-0.4c-0.4,0-0.7,0.2-0.7,0.7v3.8H335.3z"/>
				<path class="st2" d="M338.2,840.2h3c1.2,0,1.8,0.7,1.8,2v2.8c0,1-0.3,1.6-0.9,1.9l1.1,4.8h-1.5l-1-4.6h-0.9v4.6h-1.5V840.2z
					 M339.7,845.7h1c0.5,0,0.7-0.3,0.7-0.8v-2.5c0-0.6-0.2-0.8-0.7-0.8h-1V845.7z"/>
				<path class="st2" d="M346.8,840.2h2.8c1.2,0,1.9,0.7,1.9,2v3.4c0,1.3-0.6,2-1.8,2h-1.3v4.2h-1.5V840.2z M348.3,846.1h1
					c0.4,0,0.6-0.2,0.6-0.7v-3.2c0-0.4-0.2-0.7-0.7-0.7h-0.9V846.1z"/>
				<path class="st2" d="M354.4,851.7c-1.2,0-1.9-0.7-1.9-2v-7.6c0-1.3,0.6-2,1.8-2h1.5c1.2,0,1.8,0.7,1.8,2v7.6c0,1.3-0.6,2-1.9,2
					H354.4z M354.8,850.3h0.8c0.4,0,0.6-0.2,0.6-0.7v-7.4c0-0.4-0.2-0.7-0.7-0.7h-0.7c-0.4,0-0.7,0.2-0.7,0.7v7.4
					C354.1,850.1,354.3,850.3,354.8,850.3z"/>
				<path class="st2" d="M359.1,840.2h3c1.2,0,1.8,0.7,1.8,2v2.8c0,1-0.3,1.6-0.9,1.9l1.1,4.8h-1.5l-1-4.6h-0.9v4.6h-1.5V840.2z
					 M360.6,845.7h1c0.5,0,0.7-0.3,0.7-0.8v-2.5c0-0.6-0.2-0.8-0.7-0.8h-1V845.7z"/>
				<path class="st2" d="M370.1,841.6v10.1h-1.5v-10.1h-1.5v-1.4h4.5v1.4H370.1z"/>
				<path class="st2" d="M377.5,840.2v9.3c0,1.5-0.6,2.2-1.9,2.2h-1.3c-1.2,0-1.8-0.7-1.8-2.2v-9.3h1.5v9.3c0,0.5,0.2,0.8,0.7,0.8
					h0.6c0.4,0,0.6-0.3,0.6-0.8v-9.3H377.5z"/>
				<path class="st2" d="M381.5,840.2h2.8c1.2,0,1.9,0.7,1.9,2v3.4c0,1.3-0.6,2-1.8,2H383v4.2h-1.5V840.2z M383,846.1h1
					c0.4,0,0.6-0.2,0.6-0.7v-3.2c0-0.4-0.2-0.7-0.7-0.7H383V846.1z"/>
				<path class="st2" d="M388.8,851.7h-1.5v-9.5c0-1.3,0.6-2,1.8-2h1.2c1.2,0,1.8,0.7,1.8,2v9.5h-1.5v-4.2h-1.8V851.7z M389.7,839.5
					h-1.1l0.7-1.9h1.4L389.7,839.5z M390.6,846.1v-3.8c0-0.4-0.2-0.7-0.7-0.7h-0.4c-0.4,0-0.7,0.2-0.7,0.7v3.8H390.6z"/>
				<path class="st2" d="M395.8,847.5v-1.4h2.3v5.6h-3c-1.2,0-1.8-0.6-1.8-1.9v-7.6c0-1.3,0.6-2,1.8-2h1.1c1.3,0,2,0.7,2,2v1.2h-1.5
					v-1c0-0.6-0.2-0.8-0.7-0.8h-0.4c-0.4,0-0.7,0.3-0.7,0.8v7c0,0.6,0.2,0.8,0.7,0.8h1v-2.8H395.8z"/>
				<path class="st2" d="M399.4,851.7v-11.5h1.5v11.5H399.4z"/>
				<path class="st2" d="M405.6,845.8v-5.6h1.5v11.5h-1.5v-2.3l-1.6-5.2v7.5h-1.5v-11.5h1.5L405.6,845.8z"/>
				<path class="st2" d="M410,851.7h-1.5v-9.5c0-1.3,0.6-2,1.8-2h1.2c1.2,0,1.8,0.7,1.8,2v9.5h-1.5v-4.2H410V851.7z M411.8,846.1
					v-3.8c0-0.4-0.2-0.7-0.7-0.7h-0.4c-0.4,0-0.7,0.2-0.7,0.7v3.8H411.8z"/>
				<path class="st2" d="M416,849.7v2h-1.6v-2H416z"/>
				<path class="st2" d="M422.8,843.3v-1c0-0.5-0.2-0.7-0.7-0.7h-0.2c-0.4,0-0.7,0.2-0.7,0.7v1.9c0,0.2,0,0.4,0.1,0.4
					c0.1,0.1,0.2,0.2,0.4,0.3l1.5,0.8c0.3,0.2,0.5,0.3,0.7,0.4c0.1,0.1,0.2,0.2,0.3,0.4c0.1,0.1,0.1,0.4,0.1,0.8v2.4
					c0,1.3-0.6,1.9-1.9,1.9h-0.9c-1.2,0-1.8-0.7-1.8-2.1V849h1.5v0.6c0,0.4,0.2,0.7,0.7,0.7h0.3c0.4,0,0.6-0.2,0.6-0.7v-2
					c0-0.2,0-0.4-0.1-0.4c-0.1-0.1-0.2-0.2-0.4-0.3l-1.5-0.8c-0.3-0.2-0.6-0.3-0.7-0.4c-0.1-0.1-0.2-0.3-0.3-0.5
					c-0.1-0.2-0.1-0.4-0.1-0.7v-2.4c0-1.3,0.6-2,1.8-2h1c1.2,0,1.8,0.7,1.8,2v1.1H422.8z"/>
				<path class="st2" d="M425.6,851.7v-11.5h3.8v1.4h-2.3v3.5h2v1.4h-2v3.8h2.3v1.4H425.6z"/>
				<path class="st2" d="M439,851.7h-4.2c-1.2,0-1.9-0.6-1.9-1.9v-7.6c0-1.3,0.6-2,1.8-2h1.5c1.2,0,1.8,0.7,1.8,2v8.1h0.9V851.7z
					 M436.6,850.3v-8c0-0.4-0.2-0.7-0.7-0.7h-0.7c-0.4,0-0.7,0.2-0.7,0.7v7.4c0,0.4,0.2,0.7,0.7,0.7H436.6z"/>
				<path class="st2" d="M444.7,840.2v9.3c0,1.5-0.6,2.2-1.9,2.2h-1.3c-1.2,0-1.8-0.7-1.8-2.2v-9.3h1.5v9.3c0,0.5,0.2,0.8,0.7,0.8
					h0.6c0.4,0,0.6-0.3,0.6-0.8v-9.3H444.7z"/>
				<path class="st2" d="M446.1,851.7v-11.5h3.8v1.4h-2.3v3.5h2v1.4h-2v3.8h2.3v1.4H446.1z"/>
				<path class="st2" d="M451.1,851.7v-11.5h2.7c1.4,0,2.2,0.7,2.2,2.2v7.6c0,1.1-0.6,1.7-1.8,1.7H451.1z M452.6,850.3h1.2
					c0.4,0,0.6-0.2,0.6-0.5v-7.4c0-0.6-0.2-0.8-0.7-0.8h-1.1V850.3z"/>
				<path class="st2" d="M458.7,851.7h-1.5v-9.5c0-1.3,0.6-2,1.8-2h1.2c1.2,0,1.8,0.7,1.8,2v9.5h-1.5v-4.2h-1.8V851.7z M460.5,846.1
					v-3.8c0-0.4-0.2-0.7-0.7-0.7h-0.4c-0.4,0-0.7,0.2-0.7,0.7v3.8H460.5z"/>
				<path class="st2" d="M466.5,845.8v-5.6h1.5v11.5h-1.5v-2.3l-1.6-5.2v7.5h-1.5v-11.5h1.5L466.5,845.8z"/>
				<path class="st2" d="M473.5,851.7H472v-9.5c0-1.3,0.6-2,1.8-2h1.2c1.2,0,1.8,0.7,1.8,2v9.5h-1.5v-4.2h-1.8V851.7z M475.3,846.1
					v-3.8c0-0.4-0.2-0.7-0.7-0.7h-0.4c-0.4,0-0.7,0.2-0.7,0.7v3.8H475.3z"/>
				<path class="st2" d="M480.6,841.6v10.1h-1.5v-10.1h-1.5v-1.4h4.5v1.4H480.6z"/>
				<path class="st2" d="M484.8,851.7c-1.2,0-1.9-0.7-1.9-2v-7.6c0-1.3,0.6-2,1.8-2h1.5c1.2,0,1.8,0.7,1.8,2v7.6c0,1.3-0.6,2-1.9,2
					H484.8z M485.1,850.3h0.8c0.4,0,0.6-0.2,0.6-0.7v-7.4c0-0.4-0.2-0.7-0.7-0.7h-0.7c-0.4,0-0.7,0.2-0.7,0.7v7.4
					C484.4,850.1,484.7,850.3,485.1,850.3z M485.6,839.5h-1.1l0.7-1.9h1.4L485.6,839.5z"/>
				<path class="st2" d="M492.6,845.8v-5.6h1.5v11.5h-1.5v-2.3l-1.6-5.2v7.5h-1.5v-11.5h1.5L492.6,845.8z"/>
				<path class="st2" d="M495.6,851.7v-11.5h1.5v11.5H495.6z"/>
				<path class="st2" d="M501,841.6v10.1h-1.5v-10.1H498v-1.4h4.5v1.4H501z"/>
				<path class="st2" d="M505.1,851.7c-1.2,0-1.9-0.7-1.9-2v-7.6c0-1.3,0.6-2,1.8-2h1.5c1.2,0,1.8,0.7,1.8,2v7.6c0,1.3-0.6,2-1.9,2
					H505.1z M505.5,850.3h0.8c0.4,0,0.6-0.2,0.6-0.7v-7.4c0-0.4-0.2-0.7-0.7-0.7h-0.7c-0.4,0-0.7,0.2-0.7,0.7v7.4
					C504.8,850.1,505,850.3,505.5,850.3z"/>
				<path class="st2" d="M512.7,843.3v-1c0-0.5-0.2-0.7-0.7-0.7h-0.2c-0.4,0-0.7,0.2-0.7,0.7v1.9c0,0.2,0,0.4,0.1,0.4
					c0.1,0.1,0.2,0.2,0.4,0.3l1.5,0.8c0.3,0.2,0.5,0.3,0.7,0.4c0.1,0.1,0.2,0.2,0.3,0.4c0.1,0.1,0.1,0.4,0.1,0.8v2.4
					c0,1.3-0.6,1.9-1.9,1.9h-0.9c-1.2,0-1.8-0.7-1.8-2.1V849h1.5v0.6c0,0.4,0.2,0.7,0.7,0.7h0.3c0.4,0,0.6-0.2,0.6-0.7v-2
					c0-0.2,0-0.4-0.1-0.4c-0.1-0.1-0.2-0.2-0.4-0.3l-1.5-0.8c-0.3-0.2-0.6-0.3-0.7-0.4c-0.1-0.1-0.2-0.3-0.3-0.5
					c-0.1-0.2-0.1-0.4-0.1-0.7v-2.4c0-1.3,0.6-2,1.8-2h1c1.2,0,1.8,0.7,1.8,2v1.1H512.7z"/>
				<path class="st2" d="M518.1,840.2h2.8c1.2,0,1.9,0.7,1.9,2v3.4c0,1.3-0.6,2-1.8,2h-1.3v4.2h-1.5V840.2z M519.6,846.1h1
					c0.4,0,0.6-0.2,0.6-0.7v-3.2c0-0.4-0.2-0.7-0.7-0.7h-0.9V846.1z"/>
				<path class="st2" d="M525.8,851.7c-1.2,0-1.9-0.7-1.9-2v-7.6c0-1.3,0.6-2,1.8-2h1.5c1.2,0,1.8,0.7,1.8,2v7.6c0,1.3-0.6,2-1.9,2
					H525.8z M526.1,850.3h0.8c0.4,0,0.6-0.2,0.6-0.7v-7.4c0-0.4-0.2-0.7-0.7-0.7h-0.7c-0.4,0-0.7,0.2-0.7,0.7v7.4
					C525.4,850.1,525.7,850.3,526.1,850.3z"/>
				<path class="st2" d="M530.4,840.2h3c1.2,0,1.8,0.7,1.8,2v2.8c0,1-0.3,1.6-0.9,1.9l1.1,4.8h-1.5l-1-4.6h-0.9v4.6h-1.5V840.2z
					 M531.9,845.7h1c0.5,0,0.7-0.3,0.7-0.8v-2.5c0-0.6-0.2-0.8-0.7-0.8h-1V845.7z"/>
				<path class="st2" d="M542,843.3v-1c0-0.5-0.2-0.7-0.7-0.7H541c-0.4,0-0.7,0.2-0.7,0.7v1.9c0,0.2,0,0.4,0.1,0.4
					c0.1,0.1,0.2,0.2,0.4,0.3l1.5,0.8c0.3,0.2,0.5,0.3,0.7,0.4c0.1,0.1,0.2,0.2,0.3,0.4c0.1,0.1,0.1,0.4,0.1,0.8v2.4
					c0,1.3-0.6,1.9-1.9,1.9h-0.9c-1.2,0-1.8-0.7-1.8-2.1V849h1.5v0.6c0,0.4,0.2,0.7,0.7,0.7h0.3c0.4,0,0.6-0.2,0.6-0.7v-2
					c0-0.2,0-0.4-0.1-0.4c-0.1-0.1-0.2-0.2-0.4-0.3l-1.5-0.8c-0.3-0.2-0.6-0.3-0.7-0.4c-0.1-0.1-0.2-0.3-0.3-0.5
					c-0.1-0.2-0.1-0.4-0.1-0.7v-2.4c0-1.3,0.6-2,1.8-2h1c1.2,0,1.8,0.7,1.8,2v1.1H542z"/>
				<path class="st2" d="M549.8,840.2v9.3c0,1.5-0.6,2.2-1.9,2.2h-1.3c-1.2,0-1.8-0.7-1.8-2.2v-9.3h1.5v9.3c0,0.5,0.2,0.8,0.7,0.8
					h0.6c0.4,0,0.6-0.3,0.6-0.8v-9.3H549.8z"/>
				<path class="st2" d="M557.3,845.8c0.8,0.2,1.3,0.7,1.3,1.3v2.9c0,1.1-0.6,1.7-1.7,1.7h-3.1v-11.5h2.6c1.4,0,2,0.7,2,2.1v2.2
					C558.4,845.2,558.1,845.6,557.3,845.8L557.3,845.8z M555.3,845.1h0.7c0.6,0,0.9-0.3,0.9-0.8v-1.8c0-0.6-0.2-0.8-0.7-0.8h-0.9
					V845.1z M555.3,850.3h1.2c0.4,0,0.6-0.2,0.6-0.5v-2.5c0-0.5-0.3-0.8-0.9-0.8h-0.8V850.3z"/>
				<path class="st2" d="M559.9,851.7v-11.5h3.8v1.4h-2.3v3.5h2v1.4h-2v3.8h2.3v1.4H559.9z"/>
				<path class="st2" d="M568.4,851.7h-3.6v-11.5h1.5v10.1h2.1V851.7z"/>
				<path class="st2" d="M573,851.7h-3.6v-11.5h1.5v10.1h2.1V851.7z"/>
				<path class="st2" d="M573.8,851.7v-11.5h3.8v1.4h-2.3v3.5h2v1.4h-2v3.8h2.3v1.4H573.8z"/>
				<path class="st2" d="M580,850.3h2.6v1.4h-4.3l-0.1-0.5l2.4-9.5h-2.2v-1.4h3.5l0.3,0.7L580,850.3z"/>
				<path class="st2" d="M584.9,851.7h-1.5v-9.5c0-1.3,0.6-2,1.8-2h1.2c1.2,0,1.8,0.7,1.8,2v9.5h-1.5v-4.2h-1.8V851.7z M586.7,846.1
					v-3.8c0-0.4-0.2-0.7-0.7-0.7h-0.4c-0.4,0-0.7,0.2-0.7,0.7v3.8H586.7z"/>
				<path class="st2" d="M595,851.7h-1.5v-4.2l-1.9-7.3h1.5l1.2,5h0l1-5h1.5l-1.9,7.3V851.7z"/>
				<path class="st2" d="M510.7,859.4l-1.9,11.5H507l-1.9-11.5h1.5l1.2,8.8l1.2-8.8H510.7z"/>
				<path class="st2" d="M516.6,859.4v9.3c0,1.5-0.6,2.2-1.9,2.2h-1.3c-1.2,0-1.8-0.7-1.8-2.2v-9.3h1.5v9.3c0,0.5,0.2,0.8,0.7,0.8
					h0.6c0.4,0,0.6-0.2,0.6-0.8v-9.3H516.6z"/>
				<path class="st2" d="M518,870.9v-11.5h3.8v1.4h-2.3v3.5h2v1.4h-2v3.8h2.3v1.4H518z"/>
				<path class="st2" d="M526.6,870.9h-3.6v-11.5h1.5v10.1h2.1V870.9z"/>
				<path class="st2" d="M531.8,859.4l-1.9,11.5h-1.8l-1.9-11.5h1.5l1.2,8.8l1.2-8.8H531.8z"/>
				<path class="st2" d="M532.5,870.9v-11.5h3.8v1.4h-2.3v3.5h2v1.4h-2v3.8h2.3v1.4H532.5z"/>
				<path class="st2" d="M540.6,865v-5.6h1.5v11.5h-1.5v-2.3l-1.6-5.2v7.5h-1.5v-11.5h1.5L540.6,865z"/>
				<path class="st2" d="M547.6,870.9h-1.5v-9.5c0-1.3,0.6-2,1.8-2h1.2c1.2,0,1.8,0.7,1.8,2v9.5h-1.5v-4.2h-1.8V870.9z M549.4,865.3
					v-3.8c0-0.4-0.2-0.7-0.7-0.7h-0.4c-0.4,0-0.7,0.2-0.7,0.7v3.8H549.4z"/>
				<path class="st2" d="M554.8,859.4h2.8c1.2,0,1.9,0.7,1.9,2v3.4c0,1.3-0.6,2-1.8,2h-1.3v4.2h-1.5V859.4z M556.4,865.3h1
					c0.4,0,0.6-0.2,0.6-0.7v-3.2c0-0.4-0.2-0.7-0.7-0.7h-0.9V865.3z"/>
				<path class="st2" d="M562.5,870.9c-1.2,0-1.9-0.7-1.9-2v-7.6c0-1.3,0.6-2,1.8-2h1.5c1.2,0,1.8,0.7,1.8,2v7.6c0,1.3-0.6,2-1.9,2
					H562.5z M562.8,869.5h0.8c0.4,0,0.6-0.2,0.6-0.7v-7.4c0-0.4-0.2-0.7-0.7-0.7h-0.7c-0.4,0-0.7,0.2-0.7,0.7v7.4
					C562.2,869.3,562.4,869.5,562.8,869.5z"/>
				<path class="st2" d="M567.1,859.4h3c1.2,0,1.8,0.7,1.8,2v2.8c0,1-0.3,1.6-0.9,1.9l1.1,4.8h-1.5l-1-4.6h-0.9v4.6h-1.5V859.4z
					 M568.7,864.9h1c0.5,0,0.7-0.3,0.7-0.8v-2.5c0-0.6-0.2-0.8-0.7-0.8h-1V864.9z"/>
				<path class="st2" d="M578.9,866.2l1.4-6.8h1.7v11.5h-1.5l0.2-7.5l-1.2,5.4h-1.2l-1.2-5.4l0.2,7.5h-1.5v-11.5h1.7L578.9,866.2z"
					/>
				<path class="st2" d="M584.9,870.9h-1.5v-9.5c0-1.3,0.6-2,1.8-2h1.2c1.2,0,1.8,0.7,1.8,2v9.5h-1.5v-4.2h-1.8V870.9z M585.8,858.7
					h-1.1l0.7-1.9h1.4L585.8,858.7z M586.6,865.3v-3.8c0-0.4-0.2-0.7-0.7-0.7h-0.4c-0.4,0-0.7,0.2-0.7,0.7v3.8H586.6z"/>
				<path class="st2" d="M592.5,862.5v-1c0-0.5-0.2-0.7-0.7-0.7h-0.2c-0.4,0-0.7,0.2-0.7,0.7v1.9c0,0.2,0,0.4,0.1,0.4
					c0.1,0.1,0.2,0.2,0.4,0.3l1.5,0.8c0.3,0.2,0.5,0.3,0.7,0.4s0.2,0.2,0.3,0.4c0.1,0.1,0.1,0.4,0.1,0.8v2.4c0,1.3-0.6,1.9-1.9,1.9
					h-0.9c-1.2,0-1.8-0.7-1.8-2.1v-0.6h1.5v0.6c0,0.4,0.2,0.7,0.7,0.7h0.3c0.4,0,0.6-0.2,0.6-0.7v-2c0-0.2,0-0.4-0.1-0.4
					c-0.1-0.1-0.2-0.2-0.4-0.3l-1.5-0.8c-0.3-0.2-0.6-0.3-0.7-0.4c-0.1-0.1-0.2-0.3-0.3-0.5c-0.1-0.2-0.1-0.4-0.1-0.7v-2.4
					c0-1.3,0.6-2,1.8-2h1c1.2,0,1.8,0.7,1.8,2v1.1H592.5z"/>
				<path class="st2" d="M596.5,868.9v2h-1.6v-2H596.5z"/>
				<path class="st2" d="M471.1,909.3h-1.5v-9.5c0-1.3,0.6-2,1.8-2h1.2c1.2,0,1.8,0.7,1.8,2v9.5h-1.5v-4.2h-1.8V909.3z M472.9,903.7
					v-3.8c0-0.4-0.2-0.7-0.7-0.7h-0.4c-0.4,0-0.7,0.2-0.7,0.7v3.8H472.9z"/>
				<path class="st2" d="M475.8,897.8h3c1.2,0,1.8,0.7,1.8,2v2.8c0,1-0.3,1.6-0.9,1.9l1.1,4.8h-1.5l-1-4.6h-0.9v4.6h-1.5V897.8z
					 M477.3,903.3h1c0.5,0,0.7-0.3,0.7-0.8V900c0-0.6-0.2-0.8-0.7-0.8h-1V903.3z"/>
				<path class="st2" d="M485,904.6l1.4-6.8h1.7v11.5h-1.5l0.2-7.5l-1.2,5.4h-1.2l-1.2-5.4l0.2,7.5h-1.5v-11.5h1.7L485,904.6z"/>
				<path class="st2" d="M491,909.3h-1.5v-9.5c0-1.3,0.6-2,1.8-2h1.2c1.2,0,1.8,0.7,1.8,2v9.5h-1.5v-4.2H491V909.3z M492.7,903.7
					v-3.8c0-0.4-0.2-0.7-0.7-0.7h-0.4c-0.4,0-0.7,0.2-0.7,0.7v3.8H492.7z"/>
				<path class="st2" d="M498.6,900.9v-1c0-0.5-0.2-0.7-0.7-0.7h-0.2c-0.4,0-0.7,0.2-0.7,0.7v1.9c0,0.2,0,0.4,0.1,0.4
					s0.2,0.2,0.4,0.3l1.5,0.8c0.3,0.2,0.5,0.3,0.7,0.4s0.2,0.2,0.3,0.4c0.1,0.1,0.1,0.4,0.1,0.8v2.4c0,1.3-0.6,1.9-1.9,1.9h-0.9
					c-1.2,0-1.8-0.7-1.8-2.1v-0.6h1.5v0.6c0,0.4,0.2,0.7,0.7,0.7h0.3c0.4,0,0.6-0.2,0.6-0.7v-2c0-0.2,0-0.4-0.1-0.4
					c-0.1-0.1-0.2-0.2-0.4-0.3l-1.5-0.8c-0.3-0.2-0.6-0.3-0.7-0.4c-0.1-0.1-0.2-0.3-0.3-0.5c-0.1-0.2-0.1-0.4-0.1-0.7v-2.4
					c0-1.3,0.6-2,1.8-2h1c1.2,0,1.8,0.7,1.8,2v1.1H498.6z"/>
				<path class="st2" d="M502.7,901.1v2h-1.6v-2H502.7z M502.7,907.3v2h-1.6v-2H502.7z"/>
				<path class="st2" d="M506.5,909.3v-11.5h2.7c1.4,0,2.2,0.7,2.2,2.2v7.6c0,1.1-0.6,1.7-1.8,1.7H506.5z M508,907.9h1.2
					c0.4,0,0.6-0.2,0.6-0.5V900c0-0.6-0.2-0.8-0.7-0.8H508V907.9z"/>
				<path class="st2" d="M512.7,909.3v-11.5h1.5v11.5H512.7z"/>
				<path class="st2" d="M518.6,900.9v-1c0-0.5-0.2-0.7-0.7-0.7h-0.2c-0.4,0-0.7,0.2-0.7,0.7v1.9c0,0.2,0,0.4,0.1,0.4
					c0.1,0.1,0.2,0.2,0.4,0.3l1.5,0.8c0.3,0.2,0.5,0.3,0.7,0.4c0.1,0.1,0.2,0.2,0.3,0.4c0.1,0.1,0.1,0.4,0.1,0.8v2.4
					c0,1.3-0.6,1.9-1.9,1.9h-0.9c-1.2,0-1.8-0.7-1.8-2.1v-0.6h1.5v0.6c0,0.4,0.2,0.7,0.7,0.7h0.3c0.4,0,0.6-0.2,0.6-0.7v-2
					c0-0.2,0-0.4-0.1-0.4c-0.1-0.1-0.2-0.2-0.4-0.3l-1.5-0.8c-0.3-0.2-0.6-0.3-0.7-0.4s-0.2-0.3-0.3-0.5s-0.1-0.4-0.1-0.7v-2.4
					c0-1.3,0.6-2,1.8-2h1c1.2,0,1.8,0.7,1.8,2v1.1H518.6z"/>
				<path class="st2" d="M521.4,909.3v-11.5h3.8v1.4H523v3.5h2v1.4h-2v3.8h2.3v1.4H521.4z"/>
				<path class="st2" d="M529.5,903.4v-5.6h1.5v11.5h-1.5V907l-1.6-5.2v7.5h-1.5v-11.5h1.5L529.5,903.4z M530.6,895.5
					c0,0.5-0.1,0.8-0.4,1.1c-0.2,0.2-0.5,0.4-0.8,0.4c-0.1,0-0.2,0-0.3,0c-0.1,0-0.2-0.1-0.3-0.1s-0.2-0.1-0.2-0.1s-0.1-0.1-0.2-0.1
					c-0.2,0-0.3,0.1-0.4,0.4h-0.8c0-0.5,0.1-0.8,0.3-1c0.2-0.2,0.5-0.3,0.8-0.4c0.1,0,0.2,0,0.3,0c0.1,0,0.2,0.1,0.3,0.1
					c0.1,0,0.2,0.1,0.3,0.1s0.2,0,0.3,0c0.1,0,0.2-0.1,0.3-0.1c0.1-0.1,0.1-0.2,0.1-0.3H530.6z"/>
				<path class="st2" d="M534.6,909.3c-1.2,0-1.9-0.7-1.9-2v-7.6c0-1.3,0.6-2,1.8-2h1.5c1.2,0,1.8,0.7,1.8,2v7.6c0,1.3-0.6,2-1.9,2
					H534.6z M535,907.9h0.8c0.4,0,0.6-0.2,0.6-0.7v-7.4c0-0.4-0.2-0.7-0.7-0.7H535c-0.4,0-0.7,0.2-0.7,0.7v7.4
					C534.3,907.7,534.5,907.9,535,907.9z"/>
				<path class="st2" d="M538.9,911.2l0.7-1.9h-0.8v-2h1.7v2l-0.8,1.9H538.9z"/>
				<path class="st2" d="M549.3,897.8v9.3c0,1.5-0.6,2.2-1.9,2.2h-1.3c-1.2,0-1.8-0.7-1.8-2.2v-9.3h1.5v9.3c0,0.5,0.2,0.8,0.7,0.8
					h0.6c0.4,0,0.6-0.2,0.6-0.8v-9.3H549.3z"/>
				<path class="st2" d="M553.7,900.9v-1c0-0.5-0.2-0.7-0.7-0.7h-0.2c-0.4,0-0.7,0.2-0.7,0.7v1.9c0,0.2,0,0.4,0.1,0.4
					c0.1,0.1,0.2,0.2,0.4,0.3l1.5,0.8c0.3,0.2,0.5,0.3,0.7,0.4c0.1,0.1,0.2,0.2,0.3,0.4c0.1,0.1,0.1,0.4,0.1,0.8v2.4
					c0,1.3-0.6,1.9-1.9,1.9h-0.9c-1.2,0-1.8-0.7-1.8-2.1v-0.6h1.5v0.6c0,0.4,0.2,0.7,0.7,0.7h0.3c0.4,0,0.6-0.2,0.6-0.7v-2
					c0-0.2,0-0.4-0.1-0.4c-0.1-0.1-0.2-0.2-0.4-0.3l-1.5-0.8c-0.3-0.2-0.6-0.3-0.7-0.4c-0.1-0.1-0.2-0.3-0.3-0.5
					c-0.1-0.2-0.1-0.4-0.1-0.7v-2.4c0-1.3,0.6-2,1.8-2h1c1.2,0,1.8,0.7,1.8,2v1.1H553.7z"/>
				<path class="st2" d="M558,909.3h-1.5v-9.5c0-1.3,0.6-2,1.8-2h1.2c1.2,0,1.8,0.7,1.8,2v9.5h-1.5v-4.2H558V909.3z M559.7,903.7
					v-3.8c0-0.4-0.2-0.7-0.7-0.7h-0.4c-0.4,0-0.7,0.2-0.7,0.7v3.8H559.7z"/>
				<path class="st2" d="M566.2,903.4c0.8,0.2,1.3,0.7,1.3,1.3v2.9c0,1.1-0.6,1.7-1.7,1.7h-3.1v-11.5h2.6c1.4,0,2,0.7,2,2.1v2.2
					C567.3,902.8,566.9,903.2,566.2,903.4L566.2,903.4z M564.2,902.7h0.7c0.6,0,0.9-0.3,0.9-0.8V900c0-0.6-0.2-0.8-0.7-0.8h-0.9
					V902.7z M564.2,907.9h1.2c0.4,0,0.6-0.2,0.6-0.5v-2.5c0-0.5-0.3-0.8-0.9-0.8h-0.8V907.9z"/>
				<path class="st2" d="M568.7,909.3v-11.5h1.5v11.5H568.7z"/>
				<path class="st2" d="M575.4,909.3h-3.6v-11.5h1.5v10.1h2.1V909.3z"/>
				<path class="st2" d="M576.2,909.3v-11.5h1.5v11.5H576.2z"/>
				<path class="st2" d="M579.2,909.3v-11.5h2.7c1.4,0,2.2,0.7,2.2,2.2v7.6c0,1.1-0.6,1.7-1.8,1.7H579.2z M580.8,907.9h1.2
					c0.4,0,0.6-0.2,0.6-0.5V900c0-0.6-0.2-0.8-0.7-0.8h-1.1V907.9z"/>
				<path class="st2" d="M586.9,909.3h-1.5v-9.5c0-1.3,0.6-2,1.8-2h1.2c1.2,0,1.8,0.7,1.8,2v9.5h-1.5v-4.2h-1.8V909.3z M588.6,903.7
					v-3.8c0-0.4-0.2-0.7-0.7-0.7h-0.4c-0.4,0-0.7,0.2-0.7,0.7v3.8H588.6z"/>
				<path class="st2" d="M591.5,909.3v-11.5h2.7c1.4,0,2.2,0.7,2.2,2.2v7.6c0,1.1-0.6,1.7-1.8,1.7H591.5z M593.1,907.9h1.2
					c0.4,0,0.6-0.2,0.6-0.5V900c0-0.6-0.2-0.8-0.7-0.8h-1.1V907.9z"/>
				<path class="st2" d="M492.8,928.5V917h3.8v1.4h-2.3v3.5h2v1.4h-2v3.8h2.3v1.4H492.8z"/>
				<path class="st2" d="M500.9,922.6V917h1.5v11.5h-1.5v-2.3l-1.6-5.2v7.5h-1.5V917h1.5L500.9,922.6z"/>
				<path class="st2" d="M503.9,928.5V917h3.8v1.4h-2.3v3.5h2v1.4h-2v3.8h2.3v1.4H503.9z"/>
				<path class="st2" d="M511.9,923.8l1.4-6.8h1.7v11.5h-1.5l0.2-7.5l-1.2,5.4h-1.2l-1.2-5.4l0.2,7.5h-1.5V917h1.7L511.9,923.8z"/>
				<path class="st2" d="M516.5,928.5V917h1.5v11.5H516.5z"/>
				<path class="st2" d="M521.8,924.3v-1.4h2.3v5.6h-3c-1.2,0-1.8-0.6-1.8-1.9V919c0-1.3,0.6-2,1.8-2h1.1c1.3,0,2,0.7,2,2v1.2h-1.5
					v-1c0-0.6-0.2-0.8-0.7-0.8h-0.4c-0.4,0-0.7,0.3-0.7,0.8v7c0,0.6,0.2,0.8,0.7,0.8h1v-2.8H521.8z"/>
				<path class="st2" d="M527.2,928.5c-1.2,0-1.9-0.7-1.9-2V919c0-1.3,0.6-2,1.8-2h1.5c1.2,0,1.8,0.7,1.8,2v7.6c0,1.3-0.6,2-1.9,2
					H527.2z M527.5,927.1h0.8c0.4,0,0.6-0.2,0.6-0.7v-7.4c0-0.4-0.2-0.7-0.7-0.7h-0.7c-0.4,0-0.7,0.2-0.7,0.7v7.4
					C526.8,926.9,527.1,927.1,527.5,927.1z"/>
				<path class="st2" d="M534.8,920.1v-1c0-0.5-0.2-0.7-0.7-0.7h-0.2c-0.4,0-0.7,0.2-0.7,0.7v1.9c0,0.2,0,0.4,0.1,0.4
					c0.1,0.1,0.2,0.2,0.4,0.3l1.5,0.8c0.3,0.2,0.5,0.3,0.7,0.4c0.1,0.1,0.2,0.2,0.3,0.4c0.1,0.1,0.1,0.4,0.1,0.8v2.4
					c0,1.3-0.6,1.9-1.9,1.9h-0.9c-1.2,0-1.8-0.7-1.8-2.1v-0.6h1.5v0.6c0,0.4,0.2,0.7,0.7,0.7h0.3c0.4,0,0.6-0.2,0.6-0.7v-2
					c0-0.2,0-0.4-0.1-0.4s-0.2-0.2-0.4-0.3l-1.5-0.8c-0.3-0.2-0.6-0.3-0.7-0.4s-0.2-0.3-0.3-0.5s-0.1-0.4-0.1-0.7V919
					c0-1.3,0.6-2,1.8-2h1c1.2,0,1.8,0.7,1.8,2v1.1H534.8z"/>
				<path class="st2" d="M538.9,920.3v2h-1.6v-2H538.9z M538.9,926.5v2h-1.6v-2H538.9z"/>
				<path class="st2" d="M547.3,925.8v0.7c0,1.3-0.6,2-1.8,2h-1c-1.2,0-1.8-0.7-1.8-2V919c0-1.3,0.6-2,1.8-2h1c1.2,0,1.8,0.7,1.8,2
					v1.3h-1.5v-1.2c0-0.4-0.2-0.7-0.7-0.7h-0.3c-0.4,0-0.6,0.2-0.6,0.7v7.4c0,0.4,0.2,0.7,0.6,0.7h0.4c0.4,0,0.6-0.2,0.6-0.7v-0.6
					H547.3z"/>
				<path class="st2" d="M550.3,928.5c-1.2,0-1.9-0.7-1.9-2V919c0-1.3,0.6-2,1.8-2h1.5c1.2,0,1.8,0.7,1.8,2v7.6c0,1.3-0.6,2-1.9,2
					H550.3z M550.6,927.1h0.8c0.4,0,0.6-0.2,0.6-0.7v-7.4c0-0.4-0.2-0.7-0.7-0.7h-0.7c-0.4,0-0.7,0.2-0.7,0.7v7.4
					C549.9,926.9,550.2,927.1,550.6,927.1z"/>
				<path class="st2" d="M558,923.8l1.4-6.8h1.7v11.5h-1.5l0.2-7.5l-1.2,5.4h-1.2l-1.2-5.4l0.2,7.5h-1.5V917h1.7L558,923.8z"/>
				<path class="st2" d="M562.6,928.5V917h1.5v11.5H562.6z"/>
				<path class="st2" d="M570.2,925.8v0.7c0,1.3-0.6,2-1.8,2h-1c-1.2,0-1.8-0.7-1.8-2V919c0-1.3,0.6-2,1.8-2h1c1.2,0,1.8,0.7,1.8,2
					v1.3h-1.5v-1.2c0-0.4-0.2-0.7-0.7-0.7h-0.3c-0.4,0-0.6,0.2-0.6,0.7v7.4c0,0.4,0.2,0.7,0.6,0.7h0.4c0.4,0,0.6-0.2,0.6-0.7v-0.6
					H570.2z"/>
				<path class="st2" d="M576.9,920.1v-1c0-0.5-0.2-0.7-0.7-0.7H576c-0.4,0-0.7,0.2-0.7,0.7v1.9c0,0.2,0,0.4,0.1,0.4
					c0.1,0.1,0.2,0.2,0.4,0.3l1.5,0.8c0.3,0.2,0.5,0.3,0.7,0.4c0.1,0.1,0.2,0.2,0.3,0.4c0.1,0.1,0.1,0.4,0.1,0.8v2.4
					c0,1.3-0.6,1.9-1.9,1.9h-0.9c-1.2,0-1.8-0.7-1.8-2.1v-0.6h1.5v0.6c0,0.4,0.2,0.7,0.7,0.7h0.3c0.4,0,0.6-0.2,0.6-0.7v-2
					c0-0.2,0-0.4-0.1-0.4s-0.2-0.2-0.4-0.3l-1.5-0.8c-0.3-0.2-0.6-0.3-0.7-0.4s-0.2-0.3-0.3-0.5s-0.1-0.4-0.1-0.7V919
					c0-1.3,0.6-2,1.8-2h1c1.2,0,1.8,0.7,1.8,2v1.1H576.9z"/>
				<path class="st2" d="M581.1,928.5h-1.5V919c0-1.3,0.6-2,1.8-2h1.2c1.2,0,1.8,0.7,1.8,2v9.5h-1.5v-4.2h-1.8V928.5z M582.9,922.9
					v-3.8c0-0.4-0.2-0.7-0.7-0.7h-0.4c-0.4,0-0.7,0.2-0.7,0.7v3.8H582.9z"/>
				<path class="st2" d="M589,922.6V917h1.5v11.5H589v-2.3l-1.6-5.2v7.5h-1.5V917h1.5L589,922.6z"/>
				<path class="st2" d="M594.9,920.1v-1c0-0.5-0.2-0.7-0.7-0.7H594c-0.4,0-0.7,0.2-0.7,0.7v1.9c0,0.2,0,0.4,0.1,0.4
					c0.1,0.1,0.2,0.2,0.4,0.3l1.5,0.8c0.3,0.2,0.5,0.3,0.7,0.4c0.1,0.1,0.2,0.2,0.3,0.4c0.1,0.1,0.1,0.4,0.1,0.8v2.4
					c0,1.3-0.6,1.9-1.9,1.9h-0.9c-1.2,0-1.8-0.7-1.8-2.1v-0.6h1.5v0.6c0,0.4,0.2,0.7,0.7,0.7h0.3c0.4,0,0.6-0.2,0.6-0.7v-2
					c0-0.2,0-0.4-0.1-0.4s-0.2-0.2-0.4-0.3l-1.5-0.8c-0.3-0.2-0.6-0.3-0.7-0.4s-0.2-0.3-0.3-0.5s-0.1-0.4-0.1-0.7V919
					c0-1.3,0.6-2,1.8-2h1c1.2,0,1.8,0.7,1.8,2v1.1H594.9z"/>
			</g>
			<g>
				<g>
					<path class="st16" d="M77.3,203.3v10H62.8v37.5h-11v-82.6h27.4v10H62.8v25.1H77.3z"/>
					<path class="st16" d="M97.1,250.8H86v-68.4c0-9.4,4.4-14.1,13.2-14.1h8.3c8.8,0,13.2,4.7,13.2,14.1v68.4h-11v-30.2H97.1V250.8z
						 M109.7,210.5V183c0-3.2-1.6-4.8-4.8-4.8h-3c-3.2,0-4.8,1.6-4.8,4.8v27.5H109.7z"/>
					<path class="st16" d="M153.4,208.1v-39.9h11v82.6h-11v-16.4l-11.8-37.6v54h-11v-82.6h11L153.4,208.1z"/>
					<path class="st16" d="M192.4,178.2v72.6h-11v-72.6h-10.6v-10H203v10H192.4z"/>
					<path class="st16" d="M219.8,250.8h-11v-68.4c0-9.4,4.4-14.1,13.2-14.1h8.3c8.8,0,13.2,4.7,13.2,14.1v68.4h-11v-30.2h-12.6
						V250.8z M232.4,210.5V183c0-3.2-1.6-4.8-4.8-4.8h-3c-3.2,0-4.8,1.6-4.8,4.8v27.5H232.4z"/>
					<path class="st16" d="M274.4,190.4v-7.2c0-3.3-1.6-4.9-4.8-4.9h-1.7c-3.1,0-4.7,1.6-4.7,4.9v13.7c0,1.5,0.3,2.6,0.9,3.1
						c0.6,0.5,1.6,1.2,3,2.1l10.5,5.6c2.3,1.3,3.9,2.3,4.9,3c1,0.7,1.7,1.6,2.2,2.6c0.5,1,0.8,3,0.8,5.9v17.6
						c0,9.3-4.4,13.9-13.3,13.9h-6.8c-8.8,0-13.2-5.1-13.2-15.2v-4.1h11v4.5c0,3.2,1.6,4.8,4.9,4.8h2c2.9,0,4.4-1.6,4.4-4.8v-14
						c0-1.5-0.3-2.6-0.9-3.1c-0.6-0.5-1.6-1.2-3-2.1l-10.5-5.9c-2.3-1.2-4-2.3-5-3.1c-1-0.8-1.8-1.9-2.2-3.3
						c-0.5-1.3-0.7-3.1-0.7-5.2v-16.9c0-9.4,4.4-14.1,13.2-14.1h6.9c8.8,0,13.2,4.7,13.2,14.1v8H274.4z"/>
					<path class="st16" d="M312.2,178.2v72.6h-11v-72.6h-10.6v-10h32.2v10H312.2z"/>
					<path class="st16" d="M329.1,250.8v-82.6h11v82.6H329.1z"/>
					<path class="st16" d="M383.5,231.5v5.3c0,9.4-4.4,14-13.2,14h-7.1c-8.8,0-13.2-4.7-13.2-14v-54.5c0-9.4,4.4-14,13.2-14h7.1
						c8.8,0,13.2,4.7,13.2,14v9.3h-11V183c0-3.2-1.6-4.8-4.9-4.8h-2.2c-2.9,0-4.4,1.6-4.4,4.8v52.9c0,3.2,1.5,4.8,4.4,4.8h2.8
						c2.9,0,4.4-1.6,4.4-4.8v-4.5H383.5z"/>
					<path class="st16" d="M436.1,203.3v10h-14.5v37.5h-11v-82.6h27.4v10h-16.3v25.1H436.1z"/>
					<path class="st16" d="M458.2,250.8c-8.9,0-13.3-4.7-13.3-14v-54.4c0-9.4,4.4-14.1,13.2-14.1h10.6c8.8,0,13.2,4.7,13.2,14.1
						v54.4c0,9.4-4.4,14-13.3,14H458.2z M460.8,240.8h5.6c2.9,0,4.4-1.6,4.4-4.8V183c0-3.2-1.6-4.8-4.9-4.8h-5.2
						c-3.2,0-4.8,1.6-4.8,4.8v52.9C455.9,239.2,457.5,240.8,460.8,240.8z"/>
					<path class="st16" d="M527.5,168.2v66.9c0,10.4-4.4,15.6-13.3,15.6h-9.3c-8.8,0-13.2-5.3-13.2-15.8v-66.8h11v67.2
						c0,3.6,1.6,5.4,4.8,5.4h4.5c3,0,4.5-1.8,4.5-5.4v-67.2H527.5z"/>
					<path class="st16" d="M537.9,168.2h21.6c8.4,0,12.7,4.7,12.7,14.1v20.4c0,7.2-2.2,11.8-6.6,13.7l7.7,34.4h-10.5l-7.2-33.4h-6.7
						v33.4h-11V168.2z M548.9,208h7.2c3.3,0,4.9-2,4.9-6v-17.8c0-4-1.6-6-4.9-6h-7.2V208z"/>
				</g>
				<g>
					<path class="st16" d="M208.6,82.9l-8.7,58.7h-8.5l-4.8-34l-4.7,34h-8.5l-8.7-58.7h7.8l5.6,44l5.6-44h6.1l5.6,44l5.6-44H208.6z"
						/>
					<path class="st16" d="M212.2,141.6V82.9h19.5V90h-11.6v17.8h10.3v7.1h-10.3v19.5h11.6v7.1H212.2z"/>
					<path class="st16" d="M255.6,111.4c4.3,1.2,6.5,3.4,6.5,6.7v14.7c0,5.8-3,8.7-8.9,8.7h-15.8V82.9h13.4c7,0,10.5,3.5,10.5,10.6
						v11.3c0,3.4-1.9,5.4-5.6,6.2V111.4z M245.2,107.7h3.7c3,0,4.5-1.4,4.5-4.2v-9.2c0-2.8-1.2-4.2-3.5-4.2h-4.7V107.7z
						 M245.2,134.5h5.9c2.1,0,3.1-0.8,3.1-2.5v-13c0-2.8-1.6-4.2-4.7-4.2h-4.3V134.5z"/>
					<path class="st16" d="M294.1,90v51.6h-7.8V90h-7.5v-7.1h22.9V90H294.1z"/>
					<path class="st16" d="M306.1,82.9h15.4c6,0,9,3.4,9,10.1v14.5c0,5.1-1.6,8.4-4.7,9.7l5.5,24.4h-7.4l-5.1-23.7H314v23.7h-7.8
						V82.9z M314,111.2h5.1c2.3,0,3.5-1.4,3.5-4.2V94.3c0-2.8-1.2-4.2-3.5-4.2H314V111.2z"/>
					<path class="st16" d="M344.5,141.6h-7.8V93c0-6.7,3.1-10.1,9.4-10.1h5.9c6.3,0,9.4,3.4,9.4,10.1v48.6h-7.8v-21.5h-9V141.6z
						 M353.5,113V93.5c0-2.3-1.1-3.4-3.4-3.4h-2.1c-2.3,0-3.4,1.1-3.4,3.4V113H353.5z"/>
					<path class="st16" d="M386.4,107.8v7.1h-10.3v26.6h-7.8V82.9h19.4V90h-11.6v17.8H386.4z"/>
					<path class="st16" d="M411.2,107.8v7.1h-10.3v26.6H393V82.9h19.4V90h-11.6v17.8H411.2z"/>
					<path class="st16" d="M417.8,141.6V82.9h7.8v58.7H417.8z"/>
					<path class="st16" d="M456.4,127.9v3.8c0,6.6-3.1,10-9.4,10H442c-6.3,0-9.4-3.3-9.4-10V92.9c0-6.6,3.1-10,9.4-10h5.1
						c6.3,0,9.4,3.3,9.4,10v6.6h-7.8v-6c0-2.3-1.2-3.4-3.5-3.4h-1.6c-2.1,0-3.1,1.1-3.1,3.4v37.6c0,2.3,1,3.4,3.1,3.4h2
						c2.1,0,3.1-1.1,3.1-3.4v-3.2H456.4z"/>
				</g>
			</g>
			<g>
				<defs>
					<rect id="SVGID_00000119804793299605308260000005560472763146080425_" x="-14" y="667" width="368.6" height="430"/>
				</defs>
				<clipPath id="SVGID_00000072979221190726711060000004449916473634975884_">
					<use xlink:href="#SVGID_00000119804793299605308260000005560472763146080425_"  style="overflow:visible;"/>
				</clipPath>
				<g style="clip-path:url(#SVGID_00000072979221190726711060000004449916473634975884_);">
					<g>
						<g>
							<path class="st20" d="M140.1,847.3c0,0-30.6,73.3-35.4,91.6c0,0,35.2-1.8,65.8-12.8c30.6-11,31.3-14,31.3-14L140.1,847.3z"/>
						</g>
						<g>
							<path class="st21" d="M200.4,834.7c0,0,28.2-0.9,31.3,0.8c3.1,1.8,7.1,6.7,7.3,13.4c0.2,6.8,7.5,57,7.5,57l13.3-30l12.8,7.8
								l-29.4,90.6l-22.4-67.3c0,0-20.3,34.4-13.8,62.6l-51,4.7c0,0,12-19.8,8.9-30.8s-33.8-78-33.8-78l19.2-24.5L200.4,834.7z"/>
						</g>
						<g>
							<path class="st22" d="M185.1,790.1c0,0,1,40.5,5,42.3c4,1.8,10.3,2.4,10.3,2.4s-21.3,16.3-33.7,14c-12.4-2.3-17-5.4-17-5.4
								l8.6-80.8L185.1,790.1z"/>
						</g>
						<g>
							<path class="st23" d="M156.3,749.3c0,0-3.8-6.5-9.6-6.1c-5.8,0.4-7.3,7.4-2.2,15.3c5.1,7.8,8.8,10.1,14.3,7.2
								c0,0,14.3,29.2,31.5,30.6c17.1,1.4,28.8-25.2,29-26.6l4,0c0,0-0.6-2-0.7-3.1c-0.2-1.1,0.3-6.4,0.3-6.4s6.1-6.1,6-11.9
								l-10.9,0.6c0,0-5.1-0.7-5.7-2.7c-0.6-2-3.1-19.7-4.8-23.2c-1.6-3.5-5.1-7.7-10.6-10.8c-5.5-3.1-13.9-10.5-38.2-5.6
								L156.3,749.3z"/>
						</g>
						<g class="st24">
							<path class="st25" d="M217.6,749c0,0-1.6,3.7-1.9,5.1c-0.3,1.4,0.1,2.5,1.9,3.6c1.8,1.2,5.2,2.6,5.2,2.6s3.4-3.5,5-7.3
								c1.6-3.9,1-4.5,1-4.5L217.6,749z"/>
						</g>
						<g>
							<path class="st19" d="M206.4,764.5c0,0,15.9,1.6,16,2.2c0.1,0.6,2.2,2.3,0.7,3.1s-5,0.9-5,0.9L206.4,764.5z"/>
						</g>
						<g>
							<path class="st26" d="M221.7,758c0,0-1.3-1.8-2.8-1.8c-1.5,0-1.5,0.3-1.5,0.3s1.9,0.4,2.6,0.8
								C220.8,757.7,221.7,758,221.7,758z"/>
						</g>
						<g>
							<path class="st27" d="M158.8,765.7c0,0-3.3,3-8,0c-4.6-3-8.8-10.6-9.8-13.9c-1.1-3.3,1.1-8.6,6.2-8.7
								c5.1-0.1,8.5,4.2,9.3,7.6C157.4,754.1,158.8,765.7,158.8,765.7z"/>
						</g>
						<g>
							<path class="st26" d="M155.1,757.3c0,0-2.6-7.7-8.5-7.7C146.6,749.6,153.3,753.3,155.1,757.3z"/>
						</g>
						<g>
							<path class="st19" d="M179.5,740.3c0,0,9.1,17.1,15.4,18.7c6.2,1.6,15.9-9.3,15.9-9.3l3.8-1.2c0,0-2.3-1.3-2.5-2.1
								c-0.2-0.7-1.8-9.9-1.8-9.9s-14.6-6.4-26-6.1s-8.3,0-8.3,0L179.5,740.3z"/>
						</g>
						<g>
							<path class="st2" d="M204.1,747.5l-14.3-5c0,0,2.4-5.8,7.8-4.9C203,738.4,204.1,746,204.1,747.5z"/>
						</g>
						<g>
							<path d="M202.6,741.7c0,0-1.8-1.9-3.2-1.1c-1.4,0.8,0.6,5,1,5.6l3.7,1.3C204.1,747.5,204.1,743.9,202.6,741.7z"/>
						</g>
						<g>
							<path d="M191.4,733.1c0,0,4.9-1.4,8,0.3c3.1,1.7,5.1,3.4,5.1,3.4s-2.1-4.9-4.9-5.6C196.8,730.5,192.5,732.2,191.4,733.1z"/>
						</g>
						<g>
							<path d="M204.1,747.5c0,0,0.2-6.8-2.6-9.6c-2.8-2.8-7.1-1.4-9.6,0.5c-2.5,1.8-2.9,3.6-2.9,3.6l-2.5-0.9l3.3,1.8
								c0,0,2.9-4.4,6.2-5.1c3.4-0.7,5.6,1.9,6.2,3.4C202.9,742.7,204.1,747.5,204.1,747.5z"/>
						</g>
						<g>
							<path d="M196.8,712.3c0,0-1,19.7-12.5,28.1c-11.5,8.4-29.2,10.3-29.2,10.3s-5.1-8.2-9.4-7.3c-4.3,0.8-6.1,6.2-3,11.7
								c3.1,5.6,7.4,12.1,10.5,11.9c3.1-0.2,5.6-1.3,5.6-1.3l4.1,146.4l-13.2-11.3l-4.3-45l0.3,42.5L109,863.4l2.4-103.1
								c0,0,0.9-27.6,12.2-40.4S179.6,694.3,196.8,712.3z"/>
						</g>
						<g>
							<path d="M155.1,750.7c0,0,7.8,2.7,18.4,0s22.6-23.4,23.3-38.4c0,0,0.8,32.3-23.1,41.2C173.7,753.5,159.1,753.2,155.1,750.7z"
								/>
						</g>
						<g>
							<polygon points="168.6,747.8 168.6,832.4 164.8,825.6 166.7,748.4 							"/>
						</g>
						<g>
							<path class="st20" d="M224.9,919.8c0.3,0.6-12.6-45.3-12.6-45.3S217.5,905,224.9,919.8z"/>
						</g>
						<g>
							<path class="st19" d="M257.7,877c0.4,0.3,20.9,14.4,20.9,14.4l9.2-62.5l-11-11.9l-1.9,11.3l-6.7-6l-3.4,12.1l6.9,5.9
								L257.7,877z"/>
						</g>
						<g>
							<polygon class="st18" points="205.9,952.9 212.3,989.9 139.5,984.4 164.4,954.6 							"/>
						</g>
					</g>
					<g>
						<polygon class="st20" points="164.4,954.6 205.9,952.9 206.9,958.8 160.9,958.8 						"/>
					</g>
					<g>
						<path class="st20" d="M175.1,928.5l21.7-19.1C196.8,909.3,182.2,931.8,175.1,928.5z"/>
					</g>
					<g>
						<polygon class="st20" points="257.7,877 271.6,886.6 270.1,891.4 						"/>
					</g>
				</g>
			</g>
			<g>
				<g>
					<circle class="st14" cx="80" cy="412" r="41"/>
					<path class="st41" d="M80,455.5c-24,0-43.5-19.5-43.5-43.5S56,368.5,80,368.5s43.5,19.5,43.5,43.5S104,455.5,80,455.5z
						 M80,373.5c-21.2,0-38.5,17.3-38.5,38.5s17.3,38.5,38.5,38.5s38.5-17.3,38.5-38.5S101.2,373.5,80,373.5z"/>
				</g>
				<g>
					<g>
						<path class="st16" d="M60.8,392.7c-2.1,0-3.7,1.8-3.7,3.9v16.2h-2c-2,0-3.6,1.6-3.6,3.6V431c0,2,1.6,3.6,3.6,3.6h8.8
							c2,0,3.6-1.6,3.6-3.6v-4.2h8.2v5.8h-3c-0.5,0-1,0.4-1,1c0,0.5,0.4,1,1,1h18.9c0.5,0,1-0.4,1-1c0-0.5-0.4-1-1-1c0,0,0,0,0,0h-3
							v-5.8h14.9c2.1,0,3.7-1.8,3.7-3.9v-26.4c0-2.1-1.6-3.9-3.7-3.9H60.8z M60.8,394.6h42.7c1,0,1.8,0.8,1.8,1.9v21.1H67.5v-1.4
							c0-2-1.6-3.6-3.6-3.6H59v-16.2C59,395.5,59.8,394.6,60.8,394.6z M55.1,414.7h8.8c0.9,0,1.6,0.7,1.6,1.7V431
							c0,0.9-0.7,1.7-1.6,1.7h-8.8c-0.9,0-1.7-0.7-1.7-1.7v-14.7C53.4,415.4,54.1,414.7,55.1,414.7z M67.5,419.6h37.8v3.4
							c0,1.1-0.8,1.9-1.8,1.9H87.6H76.6h-9.1V419.6z M77.6,426.9h9v5.8h-9V426.9z M59.5,428.8c-0.7,0-1.2,0.5-1.2,1.2
							c0,0.7,0.5,1.2,1.2,1.2c0.7,0,1.2-0.5,1.2-1.2C60.7,429.4,60.2,428.8,59.5,428.8C59.5,428.8,59.5,428.8,59.5,428.8z"/>
					</g>
				</g>
			</g>
			<g>
				<g>
					<circle class="st1" cx="555.5" cy="703.5" r="41"/>
					<path class="st41" d="M555.5,747c-24,0-43.5-19.5-43.5-43.5s19.5-43.5,43.5-43.5s43.5,19.5,43.5,43.5S579.5,747,555.5,747z
						 M555.5,665c-21.2,0-38.5,17.3-38.5,38.5s17.3,38.5,38.5,38.5s38.5-17.3,38.5-38.5S576.7,665,555.5,665z"/>
				</g>
				<g>
					<g>
						<path class="st2" d="M582.5,691.3c0-0.3-0.1-0.5-0.3-0.7l-10.8-11.1c-0.4-0.4-1-0.4-1.4,0L554.9,695l-2.1-2.2
							c-1.1-1.2-2.7-1.5-4.1-1.2c0.1-0.8,0.1-1.6-0.1-2.4c-0.5-2.3-2.2-4.2-4.4-5l-10.8-3.7c-0.4-0.1-0.8,0-1,0.3
							c-0.3,0.3-0.4,0.7-0.2,1.1l3.6,11.1c0.7,2.3,2.5,4,4.8,4.5c0.5,0.1,1,0.2,1.6,0.2c0.3,0,0.5,0,0.8-0.1
							c-0.1,0.3-0.1,0.7-0.1,1.1c0,1.2,0.5,2.3,1.3,3.2l2.1,2.2L531,719.5c-0.4,0.4-0.4,1.1,0,1.5l10.8,11.1
							c0.2,0.2,0.5,0.3,0.7,0.3c0.3,0,0.5-0.1,0.7-0.3l15.5-16l12.1,10c0.8,0.7,1.9,1.1,2.8,1.1c1,0,2-0.4,2.7-1.1
							c1.4-1.5,1.4-3.9,0-5.7l-9.7-12.4l11.2-11.5l4.3-4.5C582.4,691.9,582.5,691.6,582.5,691.3L582.5,691.3z M570.7,681.7l0.7,0.7
							L557,697.2l-0.7-0.7C556.3,696.5,570.7,681.7,570.7,681.7z M554.7,709.9L549,704l5.9-6.1l5.7,5.9L554.7,709.9z M540.9,695.4
							c-1.6-0.4-2.8-1.6-3.3-3.1l-2.9-9.1l8.8,3c1.5,0.5,2.7,1.8,3.1,3.4c0.4,1.6-0.1,3.3-1.2,4.4l-0.1,0.1
							C544.1,695.3,542.5,695.8,540.9,695.4L540.9,695.4z M544.7,698.7c0-0.6,0.2-1.2,0.7-1.7l2.6-2.7c0.5-0.5,1.1-0.7,1.7-0.7
							s1.2,0.2,1.7,0.7l2.1,2.2l-5.9,6.1l-2.1-2.2C545,699.9,544.7,699.3,544.7,698.7L544.7,698.7z M547.5,705.5l0.7,0.7L533.9,721
							l-0.7-0.7C533.2,720.3,547.5,705.5,547.5,705.5z M555.5,716.6l-1.4-1.5c-0.4-0.4-1-0.4-1.4,0s-0.4,1.1,0,1.5l1.4,1.5l-2.9,3
							l-1.4-1.5c-0.4-0.4-1-0.4-1.4,0c-0.4,0.4-0.4,1.1,0,1.5l1.4,1.5l-2.9,3l-1.4-1.5c-0.4-0.4-1-0.4-1.4,0c-0.4,0.4-0.4,1.1,0,1.5
							l1.4,1.5l-2.9,3l-7.2-7.4l14.4-14.8l4.3,4.4c0,0,0,0,0,0c0,0,0,0,0,0l3.2,2.6L555.5,716.6L555.5,716.6z M574.9,724.7
							c-0.7,0.7-1.9,0.7-2.8-0.1l-16-13.3l5.8-5.9l12.9,16.4C575.6,722.7,575.6,724,574.9,724.7L574.9,724.7z M577.2,694.3l-1.4-1.5
							c-0.4-0.4-1-0.4-1.4,0c-0.4,0.4-0.4,1.1,0,1.5l1.4,1.5l-2.9,3l-1.4-1.5c-0.4-0.4-1-0.4-1.4,0s-0.4,1.1,0,1.5l1.4,1.5l-2.9,3
							l-1.4-1.5c-0.4-0.4-1-0.4-1.4,0c-0.4,0.4-0.4,1.1,0,1.5l1.4,1.5l-1.7,1.7l-2.6-3.3c0,0,0,0-0.1-0.1c0,0,0,0,0,0l-4.3-4.4
							l14.4-14.8l7.2,7.4L577.2,694.3L577.2,694.3z"/>
					</g>
				</g>
			</g>
			<g>
				<g>
					<circle class="st16" cx="57.1" cy="131.4" r="6.6"/>
				</g>
				<g>
					<circle class="st16" cx="79.3" cy="112.8" r="6.6"/>
				</g>
				<g>
					<circle class="st16" cx="112.1" cy="122.4" r="6.6"/>
				</g>
				<g>
					<circle class="st16" cx="140.9" cy="91.6" r="6.6"/>
				</g>
				<g>
					<line class="st14" x1="57.1" y1="131.4" x2="79.3" y2="112.8"/>
					
						<rect x="53.7" y="119.6" transform="matrix(0.7654 -0.6435 0.6435 0.7654 -62.575 72.5388)" class="st41" width="29" height="5"/>
				</g>
				<g>
					
						<rect x="95.2" y="101.1" transform="matrix(0.3686 -0.9296 0.9296 0.3686 -46.8661 164.5977)" class="st41" width="5" height="31.5"/>
				</g>
				<g>
					
						<rect x="105.7" y="104.7" transform="matrix(0.6828 -0.7306 0.7306 0.6828 -38.1186 126.6248)" class="st41" width="42.1" height="5"/>
				</g>
			</g>
			<g>
				<g>
					<circle class="st16" cx="478.1" cy="135.4" r="6.6"/>
				</g>
				<g>
					<circle class="st16" cx="500.3" cy="116.8" r="6.6"/>
				</g>
				<g>
					<circle class="st16" cx="533.1" cy="126.4" r="6.6"/>
				</g>
				<g>
					<circle class="st16" cx="561.9" cy="95.6" r="6.6"/>
				</g>
				<g>
					<line class="st14" x1="478.1" y1="135.4" x2="500.3" y2="116.8"/>
					
						<rect x="474.7" y="123.6" transform="matrix(0.7653 -0.6437 0.6437 0.7653 33.6448 344.4755)" class="st41" width="29" height="5"/>
				</g>
				<g>
					
						<rect x="516.2" y="105.1" transform="matrix(0.3686 -0.9296 0.9296 0.3686 215.2212 558.4748)" class="st41" width="5" height="31.5"/>
				</g>
				<g>
					
						<rect x="526.7" y="108.7" transform="matrix(0.6829 -0.7305 0.7305 0.6829 92.4664 435.4267)" class="st41" width="42.1" height="5"/>
				</g>
			</g>
			<g>
				<rect x="34.4" y="60.5" class="st41" width="554" height="5"/>
			</g>
			<g>
				<rect x="34.4" y="273" class="st41" width="554" height="5"/>
			</g>
		</g>
	</g>
</g>
</svg>
