<?xml version="1.0" encoding="UTF-8"?>
<svg id="Layer_1" data-name="Layer 1" xmlns="http://www.w3.org/2000/svg" viewBox="0 0 289 367">
  <defs>
    <style>
      .cls-1 {
        font-size: 10.32px;
      }

      .cls-1, .cls-2 {
        fill: #fff;
        font-family: Lato-Bold, Lato;
        font-weight: 700;
      }

      .cls-3 {
        fill: #f79e64;
      }

      .cls-4 {
        fill: #00476b;
      }

      .cls-5 {
        fill: #002b48;
      }

      .cls-6 {
        fill: #fbfbfd;
      }

      .cls-7 {
        fill: #fed0ac;
      }

      .cls-8 {
        fill: #800952;
      }

      .cls-9 {
        fill: #740149;
      }

      .cls-10 {
        fill: #991763;
      }

      .cls-11 {
        fill: #4e5252;
      }

      .cls-12 {
        letter-spacing: 0em;
      }

      .cls-13 {
        fill: #3d708a;
        stroke: #fff;
        stroke-miterlimit: 10;
        stroke-width: 8px;
      }

      .cls-2 {
        font-size: 18.24px;
      }

      .cls-14 {
        letter-spacing: -.03em;
      }
    </style>
  </defs>
  <g>
    <circle class="cls-4" cx="145.98" cy="213.77" r="91.4"/>
    <text class="cls-2" transform="translate(126.55 196.31)"><tspan x="0" y="0" xml:space="preserve">Our  </tspan><tspan x="-26.07" y="21.89">Consulting </tspan><tspan x="-20.29" y="43.78">Approach</tspan></text>
    <circle class="cls-13" cx="226.3" cy="308.87" r="51.7"/>
    <circle class="cls-13" cx="66.58" cy="110.37" r="51.7"/>
    <text class="cls-1" transform="translate(54.86 115.15)"><tspan x="0" y="0">Agile</tspan></text>
    <path class="cls-9" d="m126.03,90.05h-5.43l5.43,24.97s13.75,8.28,14.83,8.63c1.09.34,24.56-11.51,24.56-11.51v-23.58l-39.4,1.5Z"/>
    <path class="cls-7" d="m95.02,81.38c-.52,0-.31.81-.58-2.18-.28-3.06-.86-4.67-2.02-6.04l-1.78-1.81c.43-1.82.91-3.47.91-3.47-.65-1-.61-1.48-.61-1.48-1.09-.96-1.82-.56-1.82-.56,0,0,.26-.61-.35-.96s-1.82.09-1.82,0,.22-.96-.39-1-1.13-.04-1.74.56-3.87,4.95-3.87,4.95l-1.26,5.86,1.26,1.22s-.04,1.61.56,1.91,1.74.35,1.74.35l11.16,5.21.61-2.56Z"/>
    <path class="cls-7" d="m198.25,83.4c.52,0,.31.81.58-2.18.28-3.06.86-4.67,2.02-6.04l1.78-1.81c-.43-1.82-.91-3.47-.91-3.47.65-1,.61-1.48.61-1.48,1.09-.96,1.82-.56,1.82-.56,0,0-.26-.61.35-.96s1.82.09,1.82,0-.22-.96.39-1,1.13-.04,1.74.56,3.87,4.95,3.87,4.95l1.26,5.86-1.26,1.22s.04,1.61-.56,1.91-1.74.35-1.74.35l-11.16,5.21-.61-2.56Z"/>
    <path class="cls-10" d="m152.69,42.56l15.46,6.08s13.72,27.97,17.02,28.14,15.46-1.22,15.46-1.22l2.26,13.03s-22.93,1.56-24.32,0c-2.61-3.47-11.99-16.85-11.99-16.85,0,0-.87,11.64,0,15.11s2.61,7.64,2.61,7.64c0,0-10.52,16.28-24.71,3.37-13.24,15.63-21.32-6.14-21.32-6.14,0,0,1.91-.88,2.43-5.22.52-4.34-1.74-16.5-1.74-16.5,0,0-9.73,17.2-13.03,18.07-13.72-.69-21.71-2.61-21.71-2.61l5.73-9.55s7.47,3.13,11.64-.35c0,0,13.03-27.79,14.59-28.14,5.04-1.56,15.98-4.86,15.98-4.86h15.63Z"/>
    <path class="cls-8" d="m152.69,42.56s-6.08,16.48-8.21,28.9c-2.67,15.57,4.18,34.64-10.89,34.64-10.89,0-10.43-14.37-10.43-14.37,0,0,1.91-.88,2.43-5.22.52-4.34-1.74-16.5-1.74-16.5,0,0-9.73,17.2-13.03,18.07-13.72-.69-21.71-2.61-21.71-2.61l5.73-9.55s7.47,3.13,11.64-.35c0,0,13.03-27.79,14.59-28.14,5.04-1.56,15.98-4.86,15.98-4.86h15.63Z"/>
    <polygon class="cls-6" points="137.26 43.2 143.44 90.05 154.24 43.2 137.26 43.2"/>
    <path class="cls-4" d="m146.4,56.67c1.31-.27,1.67-.97,1.67-2.32,0-1.82-.36-3.3-3.3-3.3-3.3,0-3.3,1.48-3.3,3.3,0,1.23.26,1.91,1.23,2.23l-1.83,13.96,2.57,19.5,4.67-20.24-1.71-13.13Z"/>
    <path class="cls-5" d="m151.73,121.33s-8.09,7.89-11.74,8.28-5.86,1.04-5.86,1.04c0,0,2.66-4.25,2.08-7.56-.57-3.31-3.91-2.21,1.04-3.78,4.95-1.56,9.84-4.3,9.84-4.3l4.63,6.31Z"/>
    <path class="cls-5" d="m129.31,118.01s-.07,0,1.72-1.17c1.8-1.17,4.66-1.17,4.66-1.17,0,0,1.95-1.43,3.13-.65,1.17.78,5.85,3.26,2.14,3.78-3.71.52-3.45-.52-2.8,1.69.65,2.21,1.13,6.89,0,8.21s-6.38,1.95-6.38,1.95c-4.17.52-7.3,2.61-9.38,1.56-2.08-1.04-4.43-2.48-4.43-2.48,0,0-2.21-2.48.78-6.9,0,0,1.95-3.52,3.26-4.56s.65-1.56,1.3-1.04,0,0,0,0c0,0,4.56,2.08,4.95,2.08l1.04-1.3Z"/>
    <polygon class="cls-7" points="137.26 43.68 137.26 36.22 155.18 35.19 154.24 43.68 144.33 51.98 137.26 43.68"/>
    <polygon class="cls-3" points="137.26 43.2 137.26 35.74 140.68 38.96 140.21 47.15 137.26 43.2"/>
    <path class="cls-3" d="m145.75,43.2c-6.25,0-10.86-4.75-11.07-14.46-.16-7.55,1.76-10.45,7.98-11.02"/>
    <g>
      <path class="cls-11" d="m133.61,30.02s0,.05,0,.07c.03-.29.1-.52.18-.7-.11.19-.18.39-.18.62Z"/>
      <path class="cls-11" d="m133.89,29.23s.02-.03.03-.05c-.01.01-.02.03-.03.05Z"/>
      <path class="cls-7" d="m157.23,33.81c.32-.51.61-1.25.77-2.09.16-.85.21-1.54.12-2.05-.1-.5-.35-.81-.79-.88-.02,0-.04,0-.06,0-.14,0-.27.02-.41.08,0-.05,0-.1,0-.15,0,0,0,0,0,0,.02-.44.01-.86,0-1.28-.17-7.34-4.42-10.66-14.2-9.76-5.74.53-7.69,3.03-7.96,9.31-.02.55-.04,1.12-.04,1.73-.29.06-.54.2-.72.45-.01.02-.02.03-.03.05-.03.05-.07.1-.1.17-.08.18-.15.41-.18.7-.04.32-.05.71-.01,1.19.11,1.46.71,2.49,1.48,2.99.17.11.81.21.99.26,1.71,4.98,5.53,8.71,10.13,8.71,4.91,0,8.24-2.71,9.84-8.75.04.02.08.05.12.06.06.01.11,0,.17,0,.29-.04.6-.3.88-.74Z"/>
      <path class="cls-11" d="m143.68,18.11c8.27-.14,12.59,6.21,12.75,13.55.04-.19.51-4.64.57-5.03.37-2.29.28-5.24-.75-7.35-.65-1.31-1.57-2.1-3.06-2.3-1.03-.14-1.6-1.89-2.24-2.69-.53-.67-.93-.98-3.01-1.13-.98-.07-10.45-.42-10.44.29,0,.54,1.54,1.21,1.14,1.82-.13.2-1.95,1.49-2.96,3.1-.46.74-.82,1.36-.99,2.78-.18,1.42-.18,3.65-.07,5.04.03.34.04,5.25.05,5.47.03-.59.08-1.19.15-1.79.71-5.78,3.64-11.67,8.86-11.76Z"/>
    </g>
    <path class="cls-10" d="m143.48,126.19l-1.52-2.21c-1.92-2.77-1.23-6.6,1.54-8.52l35.07-28.39c2.77-1.92,10.04-1.29,11.96,1.47l3.01,3.18c1.92,2.77.68,6.46-4.23,12.17l-37.3,23.83c-2.77,1.92-6.6,1.23-8.52-1.54Z"/>
    <path class="cls-8" d="m147.12,121.79l-7.36,5.34c-2,1.68-3.79-.48-7.88-4l-30.7-26.4c-1.01-.87-1.3-4.75.89-7.31l3.91-4.55c2.2-2.55,6.08-2.85,8.63-.65l32.02,31.07c2.55,2.2,2.68,3.94.49,6.49Z"/>
    <path class="cls-5" d="m143.47,124.44s8.09,7.89,11.74,8.28c3.65.39,5.86,1.04,5.86,1.04,0,0-2.66-4.25-2.08-7.56.57-3.31,3.91-2.21-1.04-3.78-4.95-1.56-9.84-4.3-9.84-4.3l-4.63,6.31Z"/>
    <path class="cls-4" d="m165.9,121.12s.07,0-1.72-1.17-4.66-1.17-4.66-1.17c0,0-1.95-1.43-3.13-.65-1.17.78-5.85,3.26-2.14,3.78,3.71.52,3.45-.52,2.8,1.69-.65,2.21-1.13,6.89,0,8.21s6.38,1.95,6.38,1.95c4.17.52,7.3,2.61,9.38,1.56,2.08-1.04,4.43-2.48,4.43-2.48,0,0,2.21-2.48-.78-6.9,0,0-1.95-3.52-3.26-4.56s-.65-1.56-1.3-1.04,0,0,0,0c0,0-4.56,2.08-4.95,2.08l-1.04-1.3Z"/>
  </g>
  <text class="cls-1" transform="translate(205.94 305.17)"><tspan x="0" y="0">Industry </tspan><tspan class="cls-14" x="1.52" y="12.38">F</tspan><tspan class="cls-12" x="6.99" y="12.38">ocused</tspan></text>
</svg>