<?xml version="1.0" encoding="UTF-8"?>
<svg id="Layer_1" data-name="Layer 1" xmlns="http://www.w3.org/2000/svg" xmlns:xlink="http://www.w3.org/1999/xlink" viewBox="0 0 422 268">
  <defs>
    <style>
      .cls-1 {
        fill: none;
      }

      .cls-2 {
        clip-path: url(#clippath);
      }

      .cls-3 {
        fill: #f79e64;
      }

      .cls-4 {
        fill: #00476b;
      }

      .cls-5 {
        fill: #002b48;
      }

      .cls-6 {
        fill: #e6e7e8;
      }

      .cls-7 {
        fill: #fff;
      }

      .cls-8 {
        fill: #f1f1f2;
      }

      .cls-9 {
        fill: #fed0ac;
      }

      .cls-10 {
        fill: #740149;
      }

      .cls-11 {
        fill: #991763;
      }

      .cls-12 {
        fill: #a6a8ab;
      }

      .cls-13 {
        fill: #bbbdbf;
      }

      .cls-14 {
        fill: #a36941;
      }

      .cls-15 {
        fill: #6d6e70;
      }

      .cls-16 {
        fill: #58595b;
      }
    </style>
    <clipPath id="clippath">
      <path class="cls-1" d="m329,43c-15.86-7.18-39.37,7.71-57,12C233.7,11.87,208.77,1.01,144,25,32.91,66.15,30.21-22.11,30.21,75.17s-16.32,184.83,99.71,184.83c32.99,0,64.2-6.38,91.98-17.74,2.61,1.62,5.34,3.09,8.18,4.38,50.69,22.95,118.54-17.54,151.55-90.45,33-72.9-1.94-90.24-52.64-113.19Z"/>
    </clipPath>
  </defs>
  <g class="cls-2">
    <g>
      <polygon class="cls-8" points="-9.93 243.78 326.6 173.11 389.57 208.74 389.57 264.6 -9.93 264.6 -9.93 243.78"/>
      <g>
        <polygon class="cls-5" points="173.03 134.71 210.52 194.02 178.35 204.09 159.61 174.43 168.28 139.18 173.03 134.71"/>
        <path class="cls-5" d="m113.72,101.97s-36.58,5.76-43.01,16.11c-6.43,10.35-7.91,16.07-6.51,28.38s2.31,40.01-.25,56.23c-2.55,16.23-5.91,26.58-5.91,26.58l101.27-18.46s15.66-55.39,13.7-76.1c-1.95-20.7-12.3-30.21-18.46-31.33-6.15-1.12-40.85-1.4-40.85-1.4Z"/>
        <path class="cls-6" d="m135.17,185.9s.26-19.3-10.64-44.2c-10.9-24.9-15.68-39.02-15.68-39.02l8.99-5.74s-2.43,9.51,3.55,16.79c5.98,7.27,12.86,16.79,15.98,15.67s7.52-8.11,7.52-8.11c0,0,6.11,21.82,6.11,37.49s-1.82,31.33-1.82,31.33l-14.01-4.2Z"/>
        <path class="cls-4" d="m86.31,115.68s9.51.84,13.43,17.07c3.92,16.23,14.55,47,14.55,47,3.64.56,58.74,5.6,58.74,5.6,0,0-5.03,5.88-5.03,13.15s5.2,16.51,5.2,16.51c0,0-70.66,1.12-77.1-5.88-6.43-6.99-28.72-41.57-31.29-55.89-2.57-14.33.23-34.75,9.18-36.99,8.95-2.24,12.31-.56,12.31-.56Z"/>
        <path class="cls-10" d="m146.6,186.32s-.21-21.19-1.76-35.04c-.76-6.78-1.91-11.17-2.89-13.88,1.99-1.43,2-1.44,2-1.44l-2.63-7.52-4.09.25s-7.69,6.01-4.62,7.69c.48.26.95.52,1.42.76.31.16.63.32.94.47.56,4.71,1.89,14.75,4.29,27.45,3.36,17.78,2.06,19.15,2.06,19.15l5.28,2.1Z"/>
        <path class="cls-9" d="m150.3,43.68c-11.15-.96-21.6,10.67-25.88,27.36-.44-.37-.91-.59-1.4-.59-2.32,0-4.2,4.51-4.2,10.07,0,4.6,1.29,8.47,3.05,9.67l-3.32,6.75s-3.01.56-1.47,7.83c1.54,7.27,15.11,27.28,18.04,26.44,2.15-.61,5.86-5.19,7.71-7.6.19.02.38.05.57.07,13.38,1.15,21.52-16.61,27.67-37.91,7.33-25.39-7.4-40.93-20.78-42.09Z"/>
        <path class="cls-14" d="m129.95,80.52s-1.28,11.38-2.74,14.18c-1.46,2.8-3.03,7.27-3.03,7.27,0,0,2.83,15.67,16.68,21.75,7.14,3.14,12.89-3.41,12.89-3.41,0,0-7.29,4.59-9.53-2.96-2.24-7.55-3.22-9.59,2.1-9.09,5.32.5,14.97,2.52,14.97,2.52l1.21-2.56s-11.72-3.83-15.61-2.53c-3.89,1.3-5.46-2.04-7.98-3.72s-8.23-5.88-7.33-8.95,2.01-12.5,2.01-12.5c0,0,4.48-14.91,12.03-16.59,7.55-1.68,9.79,1.12,13.99,4.2,4.2,3.08,15.39,5.6,18.18,5.32,2.8-.28,1.4-5.88,1.4-5.88,0,0-2.52-11.19-9.51-16.23-6.99-5.04-19.19-11.75-30.07-6.01-11.95,6.29-15.19,25.71-15.19,25.71,0,0,4.42-1.88,4.98,3.8l.56,5.68Z"/>
        <path class="cls-8" d="m111.29,101.46s4.95,19.11,11.66,25.83c6.71,6.71,9.65,9.09,9.65,9.09l4.62-7.69s-10.65-6.3-14.84-15.81c-4.19-9.51-4.65-11.95-4.24-14.37l.41-2.42-7.26,5.36Z"/>
        <polygon class="cls-8" points="141.31 128.44 143.94 135.96 143.94 126.01 141.31 128.44"/>
        <path class="cls-9" d="m170.52,186.32l14.55-2.73s12.52,6.71,13.78,7.76c1.26,1.05,9.02,9.65,14.69,11.33s7.97,4.2,6.5,6.5-4.62,1.68-4.62,1.68c0,0,.21,2.31-1.47,2.94-1.68.63-4.83,1.25-4.83,1.25,0,0-1.68,1.47-3.78,1.68-2.1.21,0,1.47-2.94,1.26-2.94-.21-13.22-5.25-20.35-7.55-7.13-2.31-14.27-3.15-14.27-3.15,0,0-3.99-8.6-2.94-12.8,1.05-4.2,5.67-8.18,5.67-8.18Z"/>
      </g>
      <g>
        <g>
          <polygon class="cls-6" points="203.81 147.8 220.17 223.97 274.31 251.66 353.62 227.11 303.26 199.73 289.42 132.15 203.81 147.8"/>
          <polygon class="cls-12" points="207.8 151.79 222.69 216.41 298.02 198.79 286.48 138.36 207.8 151.79"/>
        </g>
        <polygon class="cls-16" points="234.02 221.66 258.99 232.15 309.98 218.3 289.21 206.97 234.02 221.66"/>
      </g>
      <path class="cls-3" d="m226.12,184.64s-9.23-.21-17.83-2.1c-8.6-1.89-11.7-5.04-15.71-4.41-4.01.63-9.26,2.65-10.72,3.21-1.47,2.03-2.52,7.91-3.36,8.75s-1.47,3.15,0,3.15,7.97-1.47,8.18-3.78,4.93-2.32,4.93-2.32c0,0,7.48,4.55,9.41,7.43,1.93,2.88,15.04,9.51,15.04,9.51l3.45,1.67h7.46l-.84-21.11Z"/>
      <path class="cls-3" d="m174.61,208.48s-1.3,1.48,1.22,1.9c2.52.42,4.34-.95,4.34-.95,0,0-.84,4.31.7,4.87,1.54.56,5.85-2.16,5.85-2.16,0,0-.87.08,0,2.24s.87,3.14,2.83,2.16c1.96-.98,3.03-2.03,3.03-2.03,0,0,2.56,3.34,3.96,3.52,1.4.19,5.88-.02,5.88-.02,0,0-17.35-8.46-18.46-8.74-1.12-.28,3.08.42-1.12-.28-4.2-.7-8.22-.5-8.22-.5Z"/>
      <path class="cls-3" d="m327.16,69.34c-16.16,0-33.9,15-35.66,38.65-.36,4.81,3.34,2.38.47,15.77-1.4,6.53,6.67,14.64,8.22,19.76,2.92,9.64-.42,13.86,12.06,17.16.67,1.25,1.38,2.65,2.12,4.22,3.99,8.52,1.81,11.22,1.81,11.22,0,0,3.63-2.33,10.42-7.48,6.8-5.15,22.94-10.44,31.28-16.61-.92-2.08-1.85-13.38-2.4-21.34,1.28-3.39,2.34-6.93,3.12-10.58,5.16-23.97,3.26-50.77-31.45-50.77Z"/>
      <path class="cls-15" d="m300.41,83.85s8.66-14.92,21.21-14.51c12.56.41,11.39.37,14.66.74,3.26.36,21.4,4.62,23.54,18.49,1.57,10.19.73,24.35-1.2,31.55-1.94,7.2-3.12,11.08-2.77,15.33.35,4.25-7.61,6-18.26,5.62-10.12-.36-13.42-3.18-19.58-14.42-6.17-11.24-14.87-7.62-14.87-7.62l-.36,3.7s-5.08-.44-4.71-5.52c.36-5.08,1.16-4.2-.02-13.29-1.18-9.09,1.55-8.62,3-13.7s-.62-6.37-.62-6.37Z"/>
      <ellipse class="cls-3" cx="307.84" cy="123.76" rx="5.08" ry="11.68"/>
      <path class="cls-11" d="m314.79,186.32s-72.47-3.78-80.57-2.73c-8.1,1.05-13.76-.07-13.76-.07l3.68,34.5s26.86-.29,52.46,5.59c25.6,5.88,47.73-22.81,47.73-22.81l-9.54-14.49Z"/>
      <path class="cls-10" d="m357.89,151.29s16.68,3.48,23.94,16.61c7.25,13.13,13.78,23.51,17.77,43.89,3.99,20.38,4.35,48.34,4.35,48.34h-122.94s-6.53-35.58,0-46.82c6.53-11.24,25.39-26.16,26.84-25.96,1.45.21-2.08-4.48,8.34-11.97,10.42-7.48,41.71-24.09,41.71-24.09Z"/>
      <g>
        <ellipse class="cls-13" cx="63.9" cy="252.72" rx="11.93" ry="3.18"/>
        <ellipse class="cls-7" cx="63.9" cy="249.9" rx="17.96" ry="4.8"/>
        <ellipse class="cls-13" cx="63.9" cy="248.29" rx="11.93" ry="3.18"/>
        <path class="cls-7" d="m77.33,224.69h-26.86l3.09,11.23,1.17,11.83s3.46,2.16,9.17,2.16,8.91-2.04,8.91-2.04l1.39-11.39,3.12-11.78Z"/>
        <path class="cls-13" d="m76.38,226.01c.61-.41.95-.85.95-1.32,0-1.98-6.01-3.59-13.43-3.59s-13.43,1.61-13.43,3.59c0,.47.35.91.95,1.32,1.97-1.33,6.81-2.26,12.47-2.26s10.5.94,12.47,2.26Z"/>
        <path class="cls-14" d="m76.38,226.01c-1.97-1.33-6.81-2.26-12.47-2.26s-10.5.94-12.47,2.26c1.97,1.33,6.81,2.26,12.47,2.26s10.5-.94,12.47-2.26Z"/>
      </g>
    </g>
  </g>
</svg>