<?xml version="1.0" encoding="UTF-8"?>
<svg id="Layer_1" data-name="Layer 1" xmlns="http://www.w3.org/2000/svg" viewBox="0 0 269 432">
  <defs>
    <style>
      .cls-1, .cls-2 {
        fill: #f79e64;
      }

      .cls-3, .cls-4 {
        fill: #00476b;
      }

      .cls-5 {
        fill: #fbfbfd;
      }

      .cls-6 {
        fill: #fed0ac;
      }

      .cls-7 {
        fill: #808184;
      }

      .cls-8 {
        fill: #4e5252;
      }

      .cls-2, .cls-9, .cls-10, .cls-4 {
        fill-rule: evenodd;
      }

      .cls-9 {
        fill: #800952;
      }

      .cls-10 {
        fill: #991763;
      }
    </style>
  </defs>
  <ellipse class="cls-7" cx="133.9" cy="404.15" rx="96.1" ry="14.69"/>
  <g>
    <path class="cls-5" d="m154.09,66.95l7.49,5.82-30.04,58.4-17.45-1.59,9.18-45.26,2.54-3.96c-.02-8.79.79-11.85.79-11.85l15.79-3.02h8.99l2.72,1.44Z"/>
    <path class="cls-10" d="m183.45,325.97c-.12-2.55-2.41-29.3-4.06-31.01.07-.45.11-.9.11-1.37l-3.16-58.44c0-5.21-4.26-9.48-9.48-9.48h-18.95c-5.21,0-9.48,4.26-9.48,9.48l12.64,58.44c0,2.69,1.15,5.13,2.97,6.86-.16.79-.23,1.6-.19,2.44l6.7,80.73c.27,5.57,2.31,9.89,7.87,9.62l5-.4c10.03,1.05,9.9-5.05,9.62-10.61l.41-56.25Z"/>
    <path class="cls-9" d="m176.34,235.16s7.9-14.21,7.9-18.95,3.16-26.85-7.9-34.75c-11.06-7.9-58.44-3.16-63.18-3.16s-12.47,36.71-12.47,36.71l1.27,15.18,27,34.98,13.71-13.18,33.67-16.83Z"/>
    <path class="cls-4" d="m135.28,382.04s1.58,4.74,1.58,7.9v11.06l-52.12,3.16s-1.58-3.16,0-4.74,22.11-7.9,23.69-9.48c1.58-1.58,6.32-6.32,7.9-6.32s18.95-1.58,18.95-1.58Z"/>
    <path class="cls-4" d="m162.92,389.15s-7.11,10.27-10.27,11.85c-3.16,1.58-7.9,3.16-7.9,6.32v3.16s9.48,4.74,20.53,1.58c11.06-3.16,6.32-4.74,9.48-4.74s5.53-.79,7.11-2.37.79-18.16.79-18.16c0,0-.35,4.1-8.69,3.95-8.34-.15-11.06-1.58-11.06-1.58Z"/>
    <path class="cls-9" d="m138.44,235.16c0-5.21-4.26-9.48-9.48-9.48h-18.95c-5.21,0-8.04-.71-8.04,4.5l6.47,63.41c0,1.92.58,3.72,1.58,5.22l3.16,78.49c0,5.57-1.58,9.48,6.97,9.48h8.17c8.55,0,6.97-3.9,6.97-9.48l3.16-81.47c0-.39-.03-.76-.07-1.14.04-.36.07-.72.07-1.09v-58.44Z"/>
    <polygon class="cls-6" points="126.59 68.53 126.59 56.04 156.6 54.32 155.02 68.53 132.91 79.59 126.59 68.53"/>
    <polygon class="cls-1" points="126.59 68.53 126.59 56.04 132.33 61.43 130.75 75.64 132.91 79.59 126.59 68.53"/>
    <path class="cls-1" d="m140.8,68.53c-10.47,0-18.17-7.95-18.52-24.2-.27-12.64,2.94-17.49,13.35-18.44"/>
    <g>
      <path class="cls-8" d="m120.49,46.47s0,.08,0,.13c.06-.48.16-.86.31-1.17-.18.31-.31.66-.31,1.04Z"/>
      <path class="cls-8" d="m120.96,45.14s.03-.06.05-.08c-.02.03-.03.06-.05.08Z"/>
      <path class="cls-6" d="m160.02,52.81c.54-.86,1.01-2.09,1.28-3.49.27-1.42.36-2.58.19-3.43-.17-.85-.59-1.36-1.33-1.48-.03,0-.06,0-.1,0-.23-.01-.46.03-.68.14,0-.09.01-.17.02-.25,0,0,0,0,0-.02.03-.74.02-1.44,0-2.14-.28-12.29-7.4-17.83-23.77-16.33-9.6.88-12.86,5.07-13.33,15.59-.04.92-.07,1.88-.07,2.9-.49.11-.9.33-1.21.76-.02.03-.03.06-.05.08-.06.09-.12.17-.16.28-.14.31-.25.69-.31,1.17-.07.54-.08,1.19-.02,1.99.18,2.44,1.2,4.17,2.47,5,.29.19,1.35.35,1.66.44,2.86,8.33,9.25,14.58,16.96,14.58,8.23,0,13.79-4.53,16.46-14.64.07.03.13.08.21.1.09.02.19,0,.28-.02.49-.07,1.01-.5,1.47-1.24Z"/>
      <path class="cls-8" d="m137.34,26.53c13.84-.24,21.06,10.39,21.35,22.68.07-.32.86-7.76.96-8.42.62-3.83.48-8.77-1.26-12.31-1.08-2.2-2.63-3.51-5.12-3.85-1.73-.23-2.68-3.16-3.76-4.5-.89-1.12-1.55-1.63-5.04-1.89-1.64-.12-17.49-.7-17.47.48.01.91,2.57,2.03,1.9,3.05-.22.33-3.26,2.49-4.96,5.2-.78,1.24-1.37,2.27-1.66,4.65-.29,2.38-.29,6.1-.12,8.44.04.57.06,8.79.09,9.16.04-.99.13-2,.25-3,1.19-9.67,6.09-19.53,14.82-19.68Z"/>
    </g>
    <g>
      <path class="cls-3" d="m131.17,137.78l-8.6-1.1c-2.21-.28-3.79-2.35-3.5-4.6,0,0,6.72-35.4,9.53-45.57l8.6,1.1c-2.75,16.52-1.49,46.6-1.49,46.6-.29,2.24-2.33,3.85-4.54,3.57Z"/>
      <path class="cls-3" d="m127.71,87.28c-.52-.68-.39-1.65.29-2.17l3.73-4.51c.68-.52,1.65-.39,2.17.29l4.62,5.63c.52.68.39,1.65-.29,2.17l-10.52-1.4Z"/>
    </g>
    <path class="cls-10" d="m158.97,70.9s23.69,11.06,28.43,14.21c4.74,15.79-11.06,61.6-11.06,61.6,0,20.53,12.64,74.23,12.64,74.23l-45.8,3.16s-11.06,0-15.79-9.48-6.32-58.44-6.32-58.44c0,0,4.74-41.06,12.64-55.28,7.9-14.21,25.27-30.01,25.27-30.01Z"/>
    <path class="cls-9" d="m125.8,80.38l-3.95,101.08s-7.11,31.59-10.27,37.91c-3.16,6.32-12.64,6.32-12.64,6.32,0,0,7.9-47.38,7.9-55.28s-6.32-67.91-6.32-67.91c0,0-3.16-6.32,3.16-9.48,6.32-3.16,22.11-12.64,22.11-12.64Z"/>
    <path class="cls-9" d="m144.81,131.68l-.4-1.32c-1.64-5.46-7.45-8.58-12.91-6.94l-21.92,6.59,10.71-21.91c2.64-5.4.38-11.97-5.01-14.61l-1.31-.64c-5.4-2.64-11.97-.38-14.61,5.01l-21.67,44.32c-2.64,5.4-.38,11.97,5.01,14.61l1.31.64c1.45.71,2.99,1.06,4.52,1.09,1.37.16,2.78.06,4.18-.36l45.14-13.56c5.46-1.64,8.58-7.45,6.94-12.91Z"/>
    <path class="cls-2" d="m112.54,123.96s-8.77.4-11.85,3.07c-3.08,2.67-6.34,6.52-6.34,6.52l15.71-1.63s-.21-1.14.86-3.16,1.61-4.79,1.61-4.79Z"/>
    <path class="cls-10" d="m186.55,84.4l-2.29-1.43c-4.81-3-11.19,3.22-14.19,8.03l-19.98,32.02h-33.39c-5.42,0-9.86,4.44-9.86,9.86v2.38c0,5.42,6.77,5.55,12.2,5.55l39.54,4.32c4.27,0,7.91-2.75,9.28-6.57l21.98-35.24c3-4.81,1.52-15.93-3.29-18.93Z"/>
  </g>
</svg>