<?xml version="1.0" encoding="utf-8"?>
<!-- Generator: Adobe Illustrator 27.3.1, SVG Export Plug-In . SVG Version: 6.00 Build 0)  -->
<svg version="1.1" xmlns="http://www.w3.org/2000/svg" xmlns:xlink="http://www.w3.org/1999/xlink" x="0px" y="0px"
	 viewBox="0 0 636 794" style="enable-background:new 0 0 636 794;" xml:space="preserve">
<style type="text/css">
	.st0{fill:#3F3239;}
	.st1{fill:#A83D75;}
	.st2{fill:#FFFFFF;}
	.st3{clip-path:url(#SVGID_00000003078940106440068600000001849625196706575760_);}
	.st4{fill:#0D8F2F;}
	.st5{fill:#FFC285;}
	.st6{fill:#FF7D52;}
	.st7{fill:#330424;}
	.st8{fill:#170210;}
	.st9{fill:#821F0E;}
	.st10{fill:#B51610;}
	.st11{fill:#064517;}
	.st12{fill:#4A0907;}
	.st13{fill:#F5DB16;}
	.st14{fill:#8C205E;}
	.st15{fill:#F9F9F9;}
	.st16{clip-path:url(#SVGID_00000139265615698578264150000001274378126449271694_);}
	.st17{fill:#990033;}
	.st18{fill:#611956;}
	.st19{fill:#2D1759;}
	.st20{fill:#5A2EB3;}
	.st21{fill:#FCA67E;}
	.st22{fill:#FFB0AD;}
	.st23{opacity:0.22;}
	.st24{fill:#FF4E47;}
	.st25{fill:#8F4643;}
	.st26{fill:#FF7D78;}
	.st27{clip-path:url(#SVGID_00000021837460514710693720000001302163750380350646_);}
	.st28{fill:#521C1A;}
	.st29{fill:#B5003C;}
	.st30{fill:#B83F3B;}
	.st31{fill:#FFA080;}
	.st32{fill:#291514;}
	.st33{fill:#073C54;}
	.st34{fill:#52001B;}
	.st35{fill:#57001D;}
	.st36{clip-path:url(#SVGID_00000078013120535831703790000010540644157589498538_);}
	.st37{fill:#AD1233;}
	.st38{fill:#EB1035;}
	.st39{fill:#020202;}
	.st40{fill:#F7F5F6;}
	.st41{fill-rule:evenodd;clip-rule:evenodd;fill:#FFFFFF;}
	.st42{clip-path:url(#SVGID_00000069384075073064391730000017964769539760056203_);}
	.st43{clip-path:url(#SVGID_00000028291266277498890350000005936539957221137311_);}
	.st44{clip-path:url(#SVGID_00000046315115229471029220000016889581237101289396_);}
	.st45{clip-path:url(#SVGID_00000119806203071252880900000007389498436089313727_);}
	.st46{clip-path:url(#SVGID_00000050642569097038521870000003008120785154616733_);}
	.st47{clip-path:url(#SVGID_00000083081143287830368450000013276824598657999019_);}
	.st48{clip-path:url(#SVGID_00000094610265572062185960000009089439607924322985_);}
	.st49{clip-path:url(#SVGID_00000062903320006942052130000016138348751433444780_);}
</style>
<g id="fondo">
</g>
<g id="Layer_3">
</g>
<g id="Layer_1">
	<g>
		<defs>
			<rect id="SVGID_00000121254217228251396930000011940278328397254318_" x="-2" width="640" height="794"/>
		</defs>
		<clipPath id="SVGID_00000029046466244375031750000005289621389999046284_">
			<use xlink:href="#SVGID_00000121254217228251396930000011940278328397254318_"  style="overflow:visible;"/>
		</clipPath>
		<g style="clip-path:url(#SVGID_00000029046466244375031750000005289621389999046284_);">
			<rect y="-1035" class="st0" width="638" height="1832"/>
			<g>
				<defs>
					<rect id="SVGID_00000109735512288338868820000013755512725430142636_" x="329.2" y="-725" width="329.9" height="405.4"/>
				</defs>
				<clipPath id="SVGID_00000165206449600020187260000003925655492602669967_">
					<use xlink:href="#SVGID_00000109735512288338868820000013755512725430142636_"  style="overflow:visible;"/>
				</clipPath>
				<g style="clip-path:url(#SVGID_00000165206449600020187260000003925655492602669967_);">
					<g>
						<path class="st4" d="M423.4-94.7c-5.1,3.7-9,8.2-12.3,13c0.7,40.2,1.2,76.4,1.8,91.5c1.3,36.1-18.4,28.9-40.1,31.5
							c-21.7,2.6-35.5,17.1-35.5,17.1l80.2-2c0,0,0,0-0.7-6.6c-0.6-5.7,16.9-63.7,33.2-104.6C438-65.7,428.8-80.2,423.4-94.7z"/>
					</g>
					<g>
						<path class="st4" d="M541.1-52.6c5.3,25.8,9.1,48.1,9.1,58.5c0,29.6-23,44-38.8,44.7s-28.3,12.5-28.3,12.5l74.9-3.3
							c0,0,11.9-52.2,17-101.8c-11.8-11.5-21.3-25.1-25.5-42.2C544.9-74.7,543.9-63.5,541.1-52.6z"/>
					</g>
				</g>
			</g>
			<g>
				<polygon class="st14" points="638,-54 -2,33 -2,-287 638,-374 				"/>
			</g>
			<g>
				<defs>
					<rect id="SVGID_00000062153836219999822440000007605352206662456456_" x="-14" y="-364" width="368.6" height="430"/>
				</defs>
				<clipPath id="SVGID_00000117670079084443378270000005859188381979945659_">
					<use xlink:href="#SVGID_00000062153836219999822440000007605352206662456456_"  style="overflow:visible;"/>
				</clipPath>
				<g style="clip-path:url(#SVGID_00000117670079084443378270000005859188381979945659_);">
					<g>
						<g>
							<path class="st17" d="M57.4,218.7c-20.5,30.8-30.3,139.3-30.3,139.3l84.1-162c-10.2-2.1-20.4-4.4-30.8-7.1
								C74.9,195.1,67.4,203.7,57.4,218.7z"/>
						</g>
						<g>
							<path class="st18" d="M101.8,74.1c0,0-8.7,89.3-11.2,99.6c-1.3,5.3-4.6,8.9-10.3,15.3c10.4,2.6,20.6,4.9,30.8,7.1l55.2-106.4
								L101.8,74.1z"/>
						</g>
						<g>
							<path class="st18" d="M241.1,73l-57.5,4.1c0,0,56.4,61.5,60.7,84.3c1.7,8.7,3.8,21.4,8,36c17.5,3.1,35.3,4.9,52.8,4.9
								C281.5,158.4,257.3,111.2,241.1,73z"/>
						</g>
						<g>
							<path class="st17" d="M305.2,202.3c-17.5,0.1-35.3-1.7-52.8-4.9c6.9,23.7,19.2,52.5,44,77.9c40.1,41.2,85.7,62.4,85.7,62.4
								S344.2,274.4,305.2,202.3z"/>
						</g>
						<g>
							<path class="st20" d="M212.3-41.1l45.4,125.6c0,0-101.7,18.7-155.9-10.4c0,0,12.1-84.1,17.3-93.9
								c5.2-9.8,20.4-26.8,20.4-26.8L212.3-41.1z"/>
						</g>
						<g>
							<polygon class="st17" points="382.2,337.7 404.9,337.7 365.7,309.8 							"/>
						</g>
						<g>
							<polygon class="st17" points="46.9,320 80.3,358.1 27.1,358.1 							"/>
						</g>
						<g>
							<polyline class="st17" points="351.2,320 356.7,337.7 404.9,337.7 361,312.6 351.2,318.2 							"/>
						</g>
					</g>
					<g>
						<path class="st19" d="M123.4,20.1c0,0,33.9,33.6,69.6,38.7C193,58.8,150.2,42.3,123.4,20.1z"/>
					</g>
					<g>
						<path class="st19" d="M252.4,197.4c0,0,40.5,3.6,52.8,4.9C305.2,202.3,274.6,206.6,252.4,197.4z"/>
					</g>
					<g>
						<path class="st19" d="M78.6,189.1l32.6,7.1C111.2,196.1,81.6,194.3,78.6,189.1z"/>
					</g>
					<g>
						<path class="st19" d="M242.9,152.2c0,0,8.5,10.9,18.4,8C261.4,160.2,248.8,159.3,242.9,152.2z"/>
					</g>
					<g>
						<path class="st19" d="M98.3,152.2c0,0-3.1,18.8,3.6,31.1C101.8,183.3,96.1,154,98.3,152.2z"/>
					</g>
				</g>
			</g>
			<g>
				<polygon class="st1" points="638,289 -2,376 -2,56 638,-31 				"/>
			</g>
			<g>
				<path class="st2" d="M50.8,141.9v4.3h-6.3v16.3h-4.8v-35.9h11.9v4.3h-7.1v10.9H50.8z"/>
				<path class="st2" d="M59.4,162.6h-4.8v-29.7c0-4.1,1.9-6.2,5.7-6.2H64c3.8,0,5.7,2.1,5.7,6.2v29.7h-4.8v-13.1h-5.5V162.6z
					 M64.9,145.1v-11.9c0-1.4-0.7-2.1-2.1-2.1h-1.3c-1.4,0-2.1,0.7-2.1,2.1v11.9H64.9z"/>
				<path class="st2" d="M83.2,136.3v-3.1c0-1.4-0.7-2.2-2.1-2.2h-0.8c-1.4,0-2,0.7-2,2.2v5.9c0,0.7,0.1,1.1,0.4,1.3
					c0.3,0.2,0.7,0.5,1.3,0.9l4.5,2.4c1,0.6,1.7,1,2.1,1.3c0.4,0.3,0.7,0.7,1,1.2c0.2,0.5,0.3,1.3,0.3,2.6v7.6c0,4-1.9,6-5.8,6h-2.9
					c-3.8,0-5.7-2.2-5.7-6.6v-1.8h4.8v1.9c0,1.4,0.7,2.1,2.1,2.1h0.9c1.3,0,1.9-0.7,1.9-2.1V150c0-0.7-0.1-1.1-0.4-1.4
					c-0.3-0.2-0.7-0.5-1.3-0.9l-4.5-2.5c-1-0.5-1.7-1-2.2-1.3c-0.5-0.4-0.8-0.8-1-1.4c-0.2-0.6-0.3-1.3-0.3-2.3v-7.3
					c0-4.1,1.9-6.2,5.7-6.2h3c3.8,0,5.7,2.1,5.7,6.2v3.5H83.2z"/>
				<path class="st2" d="M99.6,131v31.5h-4.8V131h-4.6v-4.3h14v4.3H99.6z"/>
				<path class="st2" d="M107,162.6v-35.9h11.9v4.3h-7.1v10.9h6.3v4.3h-6.3v11.9h7.1v4.3H107z"/>
				<path class="st2" d="M122.3,126.7h9.4c3.7,0,5.5,2.1,5.5,6.2v8.8c0,3.1-0.9,5.1-2.8,6l3.3,14.9h-4.5l-3.1-14.5h-2.9v14.5h-4.8
					V126.7z M127.1,144h3.1c1.4,0,2.1-0.9,2.1-2.6v-7.8c0-1.7-0.7-2.6-2.1-2.6h-3.1V144z"/>
				<path class="st2" d="M149.2,162.6v-35.9h8.3c4.5,0,6.7,2.3,6.7,6.9v23.8c0,3.5-1.9,5.2-5.7,5.2H149.2z M154,158.2h3.6
					c1.3,0,1.9-0.5,1.9-1.6v-23c0-1.7-0.7-2.6-2.1-2.6H154V158.2z"/>
				<path class="st2" d="M173.1,162.6h-4.8v-29.7c0-4.1,1.9-6.2,5.7-6.2h3.6c3.8,0,5.7,2.1,5.7,6.2v29.7h-4.8v-13.1h-5.5V162.6z
					 M178.6,145.1v-11.9c0-1.4-0.7-2.1-2.1-2.1h-1.3c-1.4,0-2.1,0.7-2.1,2.1v11.9H178.6z"/>
				<path class="st2" d="M197.6,144v-17.3h4.8v35.9h-4.8v-7.1l-5.1-16.3v23.5h-4.8v-35.9h4.8L197.6,144z"/>
				<path class="st2" d="M221.2,154.2v2.3c0,4.1-1.9,6.1-5.7,6.1h-3.1c-3.8,0-5.7-2-5.7-6.1v-23.7c0-4.1,1.9-6.1,5.7-6.1h3.1
					c3.8,0,5.7,2,5.7,6.1v4h-4.8v-3.7c0-1.4-0.7-2.1-2.1-2.1h-1c-1.3,0-1.9,0.7-1.9,2.1v23c0,1.4,0.6,2.1,1.9,2.1h1.2
					c1.3,0,1.9-0.7,1.9-2.1v-1.9H221.2z"/>
				<path class="st2" d="M225,162.6v-35.9h11.9v4.3h-7.1v10.9h6.3v4.3h-6.3v11.9h7.1v4.3H225z"/>
				<path class="st2" d="M240.3,126.7h9.4c3.7,0,5.5,2.1,5.5,6.2v8.8c0,3.1-0.9,5.1-2.8,6l3.3,14.9h-4.5l-3.1-14.5h-2.9v14.5h-4.8
					V126.7z M245.1,144h3.1c1.4,0,2.1-0.9,2.1-2.6v-7.8c0-1.7-0.7-2.6-2.1-2.6h-3.1V144z"/>
				<path class="st2" d="M38.2,184.7H41c1.2,0,1.9,0.7,1.9,2v3.4c0,1.3-0.6,2-1.8,2h-1.3v4.2h-1.5V184.7z M39.7,190.6h1
					c0.4,0,0.6-0.2,0.6-0.7v-3.2c0-0.4-0.2-0.7-0.7-0.7h-0.9V190.6z"/>
				<path class="st2" d="M45.5,196.2H44v-9.5c0-1.3,0.6-2,1.8-2H47c1.2,0,1.8,0.7,1.8,2v9.5h-1.5V192h-1.8V196.2z M47.3,190.6v-3.8
					c0-0.4-0.2-0.7-0.7-0.7h-0.4c-0.4,0-0.7,0.2-0.7,0.7v3.8H47.3z"/>
				<path class="st2" d="M50.2,184.7h3c1.2,0,1.8,0.7,1.8,2v2.8c0,1-0.3,1.6-0.9,1.9l1.1,4.8h-1.5l-1-4.6h-0.9v4.6h-1.5V184.7z
					 M51.7,190.2h1c0.5,0,0.7-0.3,0.7-0.8v-2.5c0-0.6-0.2-0.8-0.7-0.8h-1V190.2z"/>
				<path class="st2" d="M57.7,196.2h-1.5v-9.5c0-1.3,0.6-2,1.8-2h1.2c1.2,0,1.8,0.7,1.8,2v9.5h-1.5V192h-1.8V196.2z M59.4,190.6
					v-3.8c0-0.4-0.2-0.7-0.7-0.7h-0.4c-0.4,0-0.7,0.2-0.7,0.7v3.8H59.4z"/>
				<path class="st2" d="M68.5,196.2h-3.6v-11.5h1.5v10.1h2.1V196.2z"/>
				<path class="st2" d="M71.2,196.2c-1.2,0-1.9-0.7-1.9-2v-7.6c0-1.3,0.6-2,1.8-2h1.5c1.2,0,1.8,0.7,1.8,2v7.6c0,1.3-0.6,2-1.9,2
					H71.2z M71.6,194.8h0.8c0.4,0,0.6-0.2,0.6-0.7v-7.4c0-0.4-0.2-0.7-0.7-0.7h-0.7c-0.4,0-0.7,0.2-0.7,0.7v7.4
					C70.9,194.6,71.1,194.8,71.6,194.8z"/>
				<path class="st2" d="M78.8,187.8v-1c0-0.5-0.2-0.7-0.7-0.7h-0.2c-0.4,0-0.7,0.2-0.7,0.7v1.9c0,0.2,0,0.4,0.1,0.4
					c0.1,0.1,0.2,0.2,0.4,0.3l1.5,0.8c0.3,0.2,0.5,0.3,0.7,0.4s0.2,0.2,0.3,0.4c0.1,0.1,0.1,0.4,0.1,0.8v2.4c0,1.3-0.6,1.9-1.9,1.9
					h-0.9c-1.2,0-1.8-0.7-1.8-2.1v-0.6h1.5v0.6c0,0.4,0.2,0.7,0.7,0.7h0.3c0.4,0,0.6-0.2,0.6-0.7v-2c0-0.2,0-0.4-0.1-0.4
					c-0.1-0.1-0.2-0.2-0.4-0.3l-1.5-0.8c-0.3-0.2-0.6-0.3-0.7-0.4c-0.1-0.1-0.2-0.3-0.3-0.5c-0.1-0.2-0.1-0.4-0.1-0.7v-2.4
					c0-1.3,0.6-2,1.8-2h1c1.2,0,1.8,0.7,1.8,2v1.1H78.8z"/>
				<path class="st2" d="M87.3,191.5l1.4-6.8h1.7v11.5h-1.5l0.2-7.5l-1.2,5.4h-1.2l-1.2-5.4l0.2,7.5h-1.5v-11.5h1.7L87.3,191.5z"/>
				<path class="st2" d="M93.3,196.2h-1.5v-9.5c0-1.3,0.6-2,1.8-2h1.2c1.2,0,1.8,0.7,1.8,2v9.5h-1.5V192h-1.8V196.2z M94.2,184h-1.1
					l0.7-1.9h1.4L94.2,184z M95.1,190.6v-3.8c0-0.4-0.2-0.7-0.7-0.7H94c-0.4,0-0.7,0.2-0.7,0.7v3.8H95.1z"/>
				<path class="st2" d="M100.9,187.8v-1c0-0.5-0.2-0.7-0.7-0.7H100c-0.4,0-0.7,0.2-0.7,0.7v1.9c0,0.2,0,0.4,0.1,0.4
					c0.1,0.1,0.2,0.2,0.4,0.3l1.5,0.8c0.3,0.2,0.5,0.3,0.7,0.4s0.2,0.2,0.3,0.4c0.1,0.1,0.1,0.4,0.1,0.8v2.4c0,1.3-0.6,1.9-1.9,1.9
					h-0.9c-1.2,0-1.8-0.7-1.8-2.1v-0.6h1.5v0.6c0,0.4,0.2,0.7,0.7,0.7h0.3c0.4,0,0.6-0.2,0.6-0.7v-2c0-0.2,0-0.4-0.1-0.4
					c-0.1-0.1-0.2-0.2-0.4-0.3l-1.5-0.8c-0.3-0.2-0.6-0.3-0.7-0.4c-0.1-0.1-0.2-0.3-0.3-0.5c-0.1-0.2-0.1-0.4-0.1-0.7v-2.4
					c0-1.3,0.6-2,1.8-2h1c1.2,0,1.8,0.7,1.8,2v1.1H100.9z"/>
				<path class="st2" d="M106.3,196.2v-11.5h1.5v11.5H106.3z"/>
				<path class="st2" d="M112.4,191.5l1.4-6.8h1.7v11.5H114l0.2-7.5l-1.2,5.4h-1.2l-1.2-5.4l0.2,7.5h-1.5v-11.5h1.7L112.4,191.5z"/>
				<path class="st2" d="M116.9,184.7h2.8c1.2,0,1.9,0.7,1.9,2v3.4c0,1.3-0.6,2-1.8,2h-1.3v4.2h-1.5V184.7z M118.5,190.6h1
					c0.4,0,0.6-0.2,0.6-0.7v-3.2c0-0.4-0.2-0.7-0.7-0.7h-0.9V190.6z"/>
				<path class="st2" d="M124.3,196.2h-1.5v-9.5c0-1.3,0.6-2,1.8-2h1.2c1.2,0,1.8,0.7,1.8,2v9.5H126V192h-1.8V196.2z M126,190.6
					v-3.8c0-0.4-0.2-0.7-0.7-0.7h-0.4c-0.4,0-0.7,0.2-0.7,0.7v3.8H126z"/>
				<path class="st2" d="M133.5,193.5v0.7c0,1.3-0.6,2-1.8,2h-1c-1.2,0-1.8-0.7-1.8-2v-7.6c0-1.3,0.6-2,1.8-2h1c1.2,0,1.8,0.7,1.8,2
					v1.3H132v-1.2c0-0.4-0.2-0.7-0.7-0.7H131c-0.4,0-0.6,0.2-0.6,0.7v7.4c0,0.4,0.2,0.7,0.6,0.7h0.4c0.4,0,0.6-0.2,0.6-0.7v-0.6
					H133.5z"/>
				<path class="st2" d="M134.7,196.2v-11.5h1.5v11.5H134.7z"/>
				<path class="st2" d="M137.7,196.2v-11.5h3.8v1.4h-2.3v3.5h2v1.4h-2v3.8h2.3v1.4H137.7z"/>
				<path class="st2" d="M145.8,190.3v-5.6h1.5v11.5h-1.5v-2.3l-1.6-5.2v7.5h-1.5v-11.5h1.5L145.8,190.3z"/>
				<path class="st2" d="M151.2,186.1v10.1h-1.5v-10.1h-1.5v-1.4h4.5v1.4H151.2z"/>
				<path class="st2" d="M153.6,196.2v-11.5h3.8v1.4h-2.3v3.5h2v1.4h-2v3.8h2.3v1.4H153.6z"/>
				<path class="st2" d="M161.4,187.8v-1c0-0.5-0.2-0.7-0.7-0.7h-0.2c-0.4,0-0.7,0.2-0.7,0.7v1.9c0,0.2,0,0.4,0.1,0.4
					c0.1,0.1,0.2,0.2,0.4,0.3l1.5,0.8c0.3,0.2,0.5,0.3,0.7,0.4s0.2,0.2,0.3,0.4c0.1,0.1,0.1,0.4,0.1,0.8v2.4c0,1.3-0.6,1.9-1.9,1.9
					h-0.9c-1.2,0-1.8-0.7-1.8-2.1v-0.6h1.5v0.6c0,0.4,0.2,0.7,0.7,0.7h0.3c0.4,0,0.6-0.2,0.6-0.7v-2c0-0.2,0-0.4-0.1-0.4
					c-0.1-0.1-0.2-0.2-0.4-0.3l-1.5-0.8c-0.3-0.2-0.6-0.3-0.7-0.4c-0.1-0.1-0.2-0.3-0.3-0.5c-0.1-0.2-0.1-0.4-0.1-0.7v-2.4
					c0-1.3,0.6-2,1.8-2h1c1.2,0,1.8,0.7,1.8,2v1.1H161.4z"/>
				<path class="st2" d="M163.8,198.1l0.7-1.9h-0.8v-2h1.7v2l-0.8,1.9H163.8z"/>
				<path class="st2" d="M169.3,196.2v-11.5h3.8v1.4h-2.3v3.5h2v1.4h-2v3.8h2.3v1.4H169.3z"/>
				<path class="st2" d="M177.9,196.2h-3.6v-11.5h1.5v10.1h2.1V196.2z"/>
				<path class="st2" d="M182.4,196.2h-3.6v-11.5h1.5v10.1h2.1V196.2z"/>
				<path class="st2" d="M184.7,196.2h-1.5v-9.5c0-1.3,0.6-2,1.8-2h1.2c1.2,0,1.8,0.7,1.8,2v9.5h-1.5V192h-1.8V196.2z M186.5,190.6
					v-3.8c0-0.4-0.2-0.7-0.7-0.7h-0.4c-0.4,0-0.7,0.2-0.7,0.7v3.8H186.5z"/>
				<path class="st2" d="M196.5,193.5v0.7c0,1.3-0.6,2-1.8,2h-1c-1.2,0-1.8-0.7-1.8-2v-7.6c0-1.3,0.6-2,1.8-2h1c1.2,0,1.8,0.7,1.8,2
					v1.3H195v-1.2c0-0.4-0.2-0.7-0.7-0.7H194c-0.4,0-0.6,0.2-0.6,0.7v7.4c0,0.4,0.2,0.7,0.6,0.7h0.4c0.4,0,0.6-0.2,0.6-0.7v-0.6
					H196.5z"/>
				<path class="st2" d="M199.5,196.2c-1.2,0-1.9-0.7-1.9-2v-7.6c0-1.3,0.6-2,1.8-2h1.5c1.2,0,1.8,0.7,1.8,2v7.6c0,1.3-0.6,2-1.9,2
					H199.5z M199.9,194.8h0.8c0.4,0,0.6-0.2,0.6-0.7v-7.4c0-0.4-0.2-0.7-0.7-0.7h-0.7c-0.4,0-0.7,0.2-0.7,0.7v7.4
					C199.2,194.6,199.4,194.8,199.9,194.8z"/>
				<path class="st2" d="M207.4,190.3v-5.6h1.5v11.5h-1.5v-2.3l-1.6-5.2v7.5h-1.5v-11.5h1.5L207.4,190.3z"/>
				<path class="st2" d="M213.3,187.8v-1c0-0.5-0.2-0.7-0.7-0.7h-0.2c-0.4,0-0.7,0.2-0.7,0.7v1.9c0,0.2,0,0.4,0.1,0.4
					c0.1,0.1,0.2,0.2,0.4,0.3l1.5,0.8c0.3,0.2,0.5,0.3,0.7,0.4s0.2,0.2,0.3,0.4c0.1,0.1,0.1,0.4,0.1,0.8v2.4c0,1.3-0.6,1.9-1.9,1.9
					H212c-1.2,0-1.8-0.7-1.8-2.1v-0.6h1.5v0.6c0,0.4,0.2,0.7,0.7,0.7h0.3c0.4,0,0.6-0.2,0.6-0.7v-2c0-0.2,0-0.4-0.1-0.4
					c-0.1-0.1-0.2-0.2-0.4-0.3l-1.5-0.8c-0.3-0.2-0.6-0.3-0.7-0.4c-0.1-0.1-0.2-0.3-0.3-0.5c-0.1-0.2-0.1-0.4-0.1-0.7v-2.4
					c0-1.3,0.6-2,1.8-2h1c1.2,0,1.8,0.7,1.8,2v1.1H213.3z"/>
				<path class="st2" d="M216.1,196.2v-11.5h1.5v11.5H216.1z"/>
				<path class="st2" d="M221.4,192v-1.4h2.3v5.6h-3c-1.2,0-1.8-0.6-1.8-1.9v-7.6c0-1.3,0.6-2,1.8-2h1.1c1.3,0,2,0.7,2,2v1.2h-1.5
					v-1c0-0.6-0.2-0.8-0.7-0.8h-0.4c-0.4,0-0.7,0.3-0.7,0.8v7c0,0.6,0.2,0.8,0.7,0.8h1V192H221.4z"/>
				<path class="st2" d="M230,184.7v9.3c0,1.5-0.6,2.2-1.9,2.2h-1.3c-1.2,0-1.8-0.7-1.8-2.2v-9.3h1.5v9.3c0,0.5,0.2,0.8,0.7,0.8h0.6
					c0.4,0,0.6-0.2,0.6-0.8v-9.3H230z"/>
				<path class="st2" d="M231.4,196.2v-11.5h3.8v1.4H233v3.5h2v1.4h-2v3.8h2.3v1.4H231.4z"/>
				<path class="st2" d="M244.9,196.2h-4.2c-1.2,0-1.9-0.6-1.9-1.9v-7.6c0-1.3,0.6-2,1.8-2h1.5c1.2,0,1.8,0.7,1.8,2v8.1h0.9V196.2z
					 M242.5,194.8v-8c0-0.4-0.2-0.7-0.7-0.7H241c-0.4,0-0.7,0.2-0.7,0.7v7.4c0,0.4,0.2,0.7,0.7,0.7H242.5z"/>
				<path class="st2" d="M250.6,184.7v9.3c0,1.5-0.6,2.2-1.9,2.2h-1.3c-1.2,0-1.8-0.7-1.8-2.2v-9.3h1.5v9.3c0,0.5,0.2,0.8,0.7,0.8
					h0.6c0.4,0,0.6-0.2,0.6-0.8v-9.3H250.6z"/>
				<path class="st2" d="M252,196.2v-11.5h3.8v1.4h-2.3v3.5h2v1.4h-2v3.8h2.3v1.4H252z"/>
				<path class="st2" d="M261.9,186.1v10.1h-1.5v-10.1h-1.5v-1.4h4.5v1.4H261.9z"/>
				<path class="st2" d="M269.3,184.7v9.3c0,1.5-0.6,2.2-1.9,2.2h-1.3c-1.2,0-1.8-0.7-1.8-2.2v-9.3h1.5v9.3c0,0.5,0.2,0.8,0.7,0.8
					h0.6c0.4,0,0.6-0.2,0.6-0.8v-9.3H269.3z"/>
				<path class="st2" d="M273.3,184.7h2.8c1.2,0,1.9,0.7,1.9,2v3.4c0,1.3-0.6,2-1.8,2h-1.3v4.2h-1.5V184.7z M274.8,190.6h1
					c0.4,0,0.6-0.2,0.6-0.7v-3.2c0-0.4-0.2-0.7-0.7-0.7h-0.9V190.6z"/>
				<path class="st2" d="M280.6,196.2h-1.5v-9.5c0-1.3,0.6-2,1.8-2h1.2c1.2,0,1.8,0.7,1.8,2v9.5h-1.5V192h-1.8V196.2z M281.5,184
					h-1.1l0.7-1.9h1.4L281.5,184z M282.4,190.6v-3.8c0-0.4-0.2-0.7-0.7-0.7h-0.4c-0.4,0-0.7,0.2-0.7,0.7v3.8H282.4z"/>
				<path class="st2" d="M287.6,192v-1.4h2.3v5.6h-3c-1.2,0-1.8-0.6-1.8-1.9v-7.6c0-1.3,0.6-2,1.8-2h1.1c1.3,0,2,0.7,2,2v1.2h-1.5
					v-1c0-0.6-0.2-0.8-0.7-0.8h-0.4c-0.4,0-0.7,0.3-0.7,0.8v7c0,0.6,0.2,0.8,0.7,0.8h1V192H287.6z"/>
				<path class="st2" d="M291.2,196.2v-11.5h1.5v11.5H291.2z"/>
				<path class="st2" d="M297.4,190.3v-5.6h1.5v11.5h-1.5v-2.3l-1.6-5.2v7.5h-1.5v-11.5h1.5L297.4,190.3z"/>
				<path class="st2" d="M301.8,196.2h-1.5v-9.5c0-1.3,0.6-2,1.8-2h1.2c1.2,0,1.8,0.7,1.8,2v9.5h-1.5V192h-1.8V196.2z M303.6,190.6
					v-3.8c0-0.4-0.2-0.7-0.7-0.7h-0.4c-0.4,0-0.7,0.2-0.7,0.7v3.8H303.6z"/>
				<path class="st2" d="M42.8,212.7v0.7c0,1.3-0.6,2-1.8,2h-1c-1.2,0-1.8-0.7-1.8-2v-7.6c0-1.3,0.6-2,1.8-2h1c1.2,0,1.8,0.7,1.8,2
					v1.3h-1.5V206c0-0.4-0.2-0.7-0.7-0.7h-0.3c-0.4,0-0.6,0.2-0.6,0.7v7.4c0,0.4,0.2,0.7,0.6,0.7h0.4c0.4,0,0.6-0.2,0.6-0.7v-0.6
					H42.8z"/>
				<path class="st2" d="M45.4,215.4h-1.5v-9.5c0-1.3,0.6-2,1.8-2h1.2c1.2,0,1.8,0.7,1.8,2v9.5h-1.5v-4.2h-1.8V215.4z M47.2,209.8
					V206c0-0.4-0.2-0.7-0.7-0.7h-0.4c-0.4,0-0.7,0.2-0.7,0.7v3.8H47.2z"/>
				<path class="st2" d="M50.1,203.9h3c1.2,0,1.8,0.7,1.8,2v2.8c0,1-0.3,1.6-0.9,1.9l1.1,4.8h-1.5l-1-4.6h-0.9v4.6h-1.5V203.9z
					 M51.6,209.4h1c0.5,0,0.7-0.3,0.7-0.8v-2.5c0-0.6-0.2-0.8-0.7-0.8h-1V209.4z"/>
				<path class="st2" d="M58.5,211.2v-1.4h2.3v5.6h-3c-1.2,0-1.8-0.6-1.8-1.9v-7.6c0-1.3,0.6-2,1.8-2h1.1c1.3,0,2,0.7,2,2v1.2h-1.5
					v-1c0-0.6-0.2-0.8-0.7-0.8h-0.4c-0.4,0-0.7,0.3-0.7,0.8v7c0,0.6,0.2,0.8,0.7,0.8h1v-2.8H58.5z"/>
				<path class="st2" d="M67.1,203.9v9.3c0,1.5-0.6,2.2-1.9,2.2h-1.3c-1.2,0-1.8-0.7-1.8-2.2v-9.3h1.5v9.3c0,0.5,0.2,0.8,0.7,0.8
					h0.6c0.4,0,0.6-0.2,0.6-0.8v-9.3H67.1z"/>
				<path class="st2" d="M68.5,215.4v-11.5h3.8v1.4h-2.3v3.5h2v1.4h-2v3.8h2.3v1.4H68.5z"/>
				<path class="st2" d="M76,215.4v-11.5h3.8v1.4h-2.3v3.5h2v1.4h-2v3.8h2.3v1.4H76z"/>
				<path class="st2" d="M84.1,209.5v-5.6h1.5v11.5h-1.5v-2.3l-1.6-5.2v7.5h-1.5v-11.5h1.5L84.1,209.5z"/>
				<path class="st2" d="M92.7,210.7l1.4-6.8h1.7v11.5h-1.5l0.2-7.5l-1.2,5.4h-1.2l-1.2-5.4l0.2,7.5h-1.5v-11.5h1.7L92.7,210.7z"/>
				<path class="st2" d="M97.3,215.4v-11.5h3.8v1.4h-2.3v3.5h2v1.4h-2v3.8h2.3v1.4H97.3z"/>
				<path class="st2" d="M105.4,209.5v-5.6h1.5v11.5h-1.5v-2.3l-1.6-5.2v7.5h-1.5v-11.5h1.5L105.4,209.5z"/>
				<path class="st2" d="M110.2,215.4c-1.2,0-1.9-0.7-1.9-2v-7.6c0-1.3,0.6-2,1.8-2h1.5c1.2,0,1.8,0.7,1.8,2v7.6c0,1.3-0.6,2-1.9,2
					H110.2z M110.5,214h0.8c0.4,0,0.6-0.2,0.6-0.7V206c0-0.4-0.2-0.7-0.7-0.7h-0.7c-0.4,0-0.7,0.2-0.7,0.7v7.4
					C109.8,213.8,110.1,214,110.5,214z"/>
				<path class="st2" d="M117.8,207v-1c0-0.5-0.2-0.7-0.7-0.7h-0.2c-0.4,0-0.7,0.2-0.7,0.7v1.9c0,0.2,0,0.4,0.1,0.4
					c0.1,0.1,0.2,0.2,0.4,0.3l1.5,0.8c0.3,0.2,0.5,0.3,0.7,0.4s0.2,0.2,0.3,0.4s0.1,0.4,0.1,0.8v2.4c0,1.3-0.6,1.9-1.9,1.9h-0.9
					c-1.2,0-1.8-0.7-1.8-2.1v-0.6h1.5v0.6c0,0.4,0.2,0.7,0.7,0.7h0.3c0.4,0,0.6-0.2,0.6-0.7v-2c0-0.2,0-0.4-0.1-0.4
					c-0.1-0.1-0.2-0.2-0.4-0.3l-1.5-0.8c-0.3-0.2-0.6-0.3-0.7-0.4c-0.1-0.1-0.2-0.3-0.3-0.5c-0.1-0.2-0.1-0.4-0.1-0.7v-2.4
					c0-1.3,0.6-2,1.8-2h1c1.2,0,1.8,0.7,1.8,2v1.1H117.8z"/>
				<path class="st2" d="M123.1,215.4v-11.5h2.7c1.4,0,2.2,0.7,2.2,2.2v7.6c0,1.1-0.6,1.7-1.8,1.7H123.1z M124.7,214h1.2
					c0.4,0,0.6-0.2,0.6-0.5v-7.4c0-0.6-0.2-0.8-0.7-0.8h-1.1V214z"/>
				<path class="st2" d="M129.3,215.4v-11.5h3.8v1.4h-2.3v3.5h2v1.4h-2v3.8h2.3v1.4H129.3z"/>
				<path class="st2" d="M141.1,214v1.4h-4.1v-3.5c0-0.2,0-0.4,0-0.5c0-0.1,0.1-0.2,0.2-0.4s0.2-0.3,0.4-0.5l1.6-1.5
					c0.1-0.1,0.2-0.2,0.3-0.3c0.1-0.1,0.1-0.2,0.1-0.2c0-0.1,0-0.1,0-0.2s0-0.1,0-0.3V206c0-0.4-0.2-0.7-0.7-0.7h-0.1
					c-0.4,0-0.7,0.2-0.7,0.7v1.2h-1.5v-1.3c0-1.3,0.6-2,1.8-2h0.8c1.2,0,1.8,0.7,1.8,2v2.8c0,0.2,0,0.4-0.1,0.6s-0.2,0.4-0.5,0.6
					l-1.7,1.6c-0.2,0.2-0.3,0.3-0.4,0.4c0,0.1-0.1,0.2-0.1,0.2c0,0.1,0,0.2,0,0.3v1.7H141.1z"/>
				<path class="st2" d="M148.2,207v-1c0-0.5-0.2-0.7-0.7-0.7h-0.2c-0.4,0-0.7,0.2-0.7,0.7v1.9c0,0.2,0,0.4,0.1,0.4
					c0.1,0.1,0.2,0.2,0.4,0.3l1.5,0.8c0.3,0.2,0.5,0.3,0.7,0.4s0.2,0.2,0.3,0.4s0.1,0.4,0.1,0.8v2.4c0,1.3-0.6,1.9-1.9,1.9h-0.9
					c-1.2,0-1.8-0.7-1.8-2.1v-0.6h1.5v0.6c0,0.4,0.2,0.7,0.7,0.7h0.3c0.4,0,0.6-0.2,0.6-0.7v-2c0-0.2,0-0.4-0.1-0.4
					c-0.1-0.1-0.2-0.2-0.4-0.3l-1.5-0.8c-0.3-0.2-0.6-0.3-0.7-0.4c-0.1-0.1-0.2-0.3-0.3-0.5c-0.1-0.2-0.1-0.4-0.1-0.7v-2.4
					c0-1.3,0.6-2,1.8-2h1c1.2,0,1.8,0.7,1.8,2v1.1H148.2z"/>
				<path class="st2" d="M151,215.4v-11.5h3.8v1.4h-2.3v3.5h2v1.4h-2v3.8h2.3v1.4H151z"/>
				<path class="st2" d="M158.3,211.2v-1.4h2.3v5.6h-3c-1.2,0-1.8-0.6-1.8-1.9v-7.6c0-1.3,0.6-2,1.8-2h1.1c1.3,0,2,0.7,2,2v1.2h-1.5
					v-1c0-0.6-0.2-0.8-0.7-0.8h-0.4c-0.4,0-0.7,0.3-0.7,0.8v7c0,0.6,0.2,0.8,0.7,0.8h1v-2.8H158.3z"/>
				<path class="st2" d="M166.9,203.9v9.3c0,1.5-0.6,2.2-1.9,2.2h-1.3c-1.2,0-1.8-0.7-1.8-2.2v-9.3h1.5v9.3c0,0.5,0.2,0.8,0.7,0.8
					h0.6c0.4,0,0.6-0.2,0.6-0.8v-9.3H166.9z"/>
				<path class="st2" d="M171.5,209.5v-5.6h1.5v11.5h-1.5v-2.3l-1.6-5.2v7.5h-1.5v-11.5h1.5L171.5,209.5z"/>
				<path class="st2" d="M174.5,215.4v-11.5h2.7c1.4,0,2.2,0.7,2.2,2.2v7.6c0,1.1-0.6,1.7-1.8,1.7H174.5z M176,214h1.2
					c0.4,0,0.6-0.2,0.6-0.5v-7.4c0-0.6-0.2-0.8-0.7-0.8H176V214z"/>
				<path class="st2" d="M182.4,215.4c-1.2,0-1.9-0.7-1.9-2v-7.6c0-1.3,0.6-2,1.8-2h1.5c1.2,0,1.8,0.7,1.8,2v7.6c0,1.3-0.6,2-1.9,2
					H182.4z M182.8,214h0.8c0.4,0,0.6-0.2,0.6-0.7V206c0-0.4-0.2-0.7-0.7-0.7h-0.7c-0.4,0-0.7,0.2-0.7,0.7v7.4
					C182.1,213.8,182.4,214,182.8,214z"/>
				<path class="st2" d="M190,207v-1c0-0.5-0.2-0.7-0.7-0.7h-0.2c-0.4,0-0.7,0.2-0.7,0.7v1.9c0,0.2,0,0.4,0.1,0.4
					c0.1,0.1,0.2,0.2,0.4,0.3l1.5,0.8c0.3,0.2,0.5,0.3,0.7,0.4s0.2,0.2,0.3,0.4s0.1,0.4,0.1,0.8v2.4c0,1.3-0.6,1.9-1.9,1.9h-0.9
					c-1.2,0-1.8-0.7-1.8-2.1v-0.6h1.5v0.6c0,0.4,0.2,0.7,0.7,0.7h0.3c0.4,0,0.6-0.2,0.6-0.7v-2c0-0.2,0-0.4-0.1-0.4
					c-0.1-0.1-0.2-0.2-0.4-0.3l-1.5-0.8c-0.3-0.2-0.6-0.3-0.7-0.4c-0.1-0.1-0.2-0.3-0.3-0.5c-0.1-0.2-0.1-0.4-0.1-0.7v-2.4
					c0-1.3,0.6-2,1.8-2h1c1.2,0,1.8,0.7,1.8,2v1.1H190z"/>
				<path class="st2" d="M194.1,213.4v2h-1.6v-2H194.1z"/>
				<path class="st2" d="M39.6,253.8h-1.5v-9.5c0-1.3,0.6-2,1.8-2h1.2c1.2,0,1.8,0.7,1.8,2v9.5h-1.5v-4.2h-1.8V253.8z M41.4,248.2
					v-3.8c0-0.4-0.2-0.7-0.7-0.7h-0.4c-0.4,0-0.7,0.2-0.7,0.7v3.8H41.4z"/>
				<path class="st2" d="M44.3,242.3h3c1.2,0,1.8,0.7,1.8,2v2.8c0,1-0.3,1.6-0.9,1.9l1.1,4.8h-1.5l-1-4.6h-0.9v4.6h-1.5V242.3z
					 M45.8,247.8h1c0.5,0,0.7-0.3,0.7-0.8v-2.5c0-0.6-0.2-0.8-0.7-0.8h-1V247.8z"/>
				<path class="st2" d="M53.5,249.1l1.4-6.8h1.7v11.5h-1.5l0.2-7.5l-1.2,5.4h-1.2l-1.2-5.4l0.2,7.5h-1.5v-11.5H52L53.5,249.1z"/>
				<path class="st2" d="M59.5,253.8h-1.5v-9.5c0-1.3,0.6-2,1.8-2h1.2c1.2,0,1.8,0.7,1.8,2v9.5h-1.5v-4.2h-1.8V253.8z M61.2,248.2
					v-3.8c0-0.4-0.2-0.7-0.7-0.7h-0.4c-0.4,0-0.7,0.2-0.7,0.7v3.8H61.2z"/>
				<path class="st2" d="M67.1,245.4v-1c0-0.5-0.2-0.7-0.7-0.7h-0.2c-0.4,0-0.7,0.2-0.7,0.7v1.9c0,0.2,0,0.4,0.1,0.4
					c0.1,0.1,0.2,0.2,0.4,0.3l1.5,0.8c0.3,0.2,0.5,0.3,0.7,0.4s0.2,0.2,0.3,0.4s0.1,0.4,0.1,0.8v2.4c0,1.3-0.6,1.9-1.9,1.9h-0.9
					c-1.2,0-1.8-0.7-1.8-2.1v-0.6h1.5v0.6c0,0.4,0.2,0.7,0.7,0.7h0.3c0.4,0,0.6-0.2,0.6-0.7v-2c0-0.2,0-0.4-0.1-0.4
					c-0.1-0.1-0.2-0.2-0.4-0.3l-1.5-0.8c-0.3-0.2-0.6-0.3-0.7-0.4c-0.1-0.1-0.2-0.3-0.3-0.5c-0.1-0.2-0.1-0.4-0.1-0.7v-2.4
					c0-1.3,0.6-2,1.8-2h1c1.2,0,1.8,0.7,1.8,2v1.1H67.1z"/>
				<path class="st2" d="M71.3,245.6v2h-1.6v-2H71.3z M71.3,251.8v2h-1.6v-2H71.3z"/>
				<path class="st2" d="M76.8,253.8c-1.2,0-1.9-0.7-1.9-2v-7.6c0-1.3,0.6-2,1.8-2h1.5c1.2,0,1.8,0.7,1.8,2v7.6c0,1.3-0.6,2-1.9,2
					H76.8z M77.2,252.4h0.8c0.4,0,0.6-0.2,0.6-0.7v-7.4c0-0.4-0.2-0.7-0.7-0.7h-0.7c-0.4,0-0.7,0.2-0.7,0.7v7.4
					C76.5,252.2,76.7,252.4,77.2,252.4z"/>
				<path class="st2" d="M81.5,242.3h2.8c1.2,0,1.9,0.7,1.9,2v3.4c0,1.3-0.6,2-1.8,2H83v4.2h-1.5V242.3z M83,248.2h1
					c0.4,0,0.6-0.2,0.6-0.7v-3.2c0-0.4-0.2-0.7-0.7-0.7H83V248.2z"/>
				<path class="st2" d="M89.8,243.7v10.1h-1.5v-10.1h-1.5v-1.4h4.5v1.4H89.8z"/>
				<path class="st2" d="M92.1,253.8v-11.5h1.5v11.5H92.1z"/>
				<path class="st2" d="M98.2,249.1l1.4-6.8h1.7v11.5h-1.5l0.2-7.5l-1.2,5.4h-1.2l-1.2-5.4l0.2,7.5h-1.5v-11.5h1.7L98.2,249.1z"/>
				<path class="st2" d="M102.8,253.8v-11.5h1.5v11.5H102.8z"/>
				<path class="st2" d="M107,252.4h2.6v1.4h-4.3l-0.1-0.5l2.4-9.5h-2.2v-1.4h3.5l0.3,0.7L107,252.4z"/>
				<path class="st2" d="M111.9,253.8h-1.5v-9.5c0-1.3,0.6-2,1.8-2h1.2c1.2,0,1.8,0.7,1.8,2v9.5h-1.5v-4.2h-1.8V253.8z M113.7,248.2
					v-3.8c0-0.4-0.2-0.7-0.7-0.7h-0.4c-0.4,0-0.7,0.2-0.7,0.7v3.8H113.7z"/>
				<path class="st2" d="M121.1,251.1v0.7c0,1.3-0.6,2-1.8,2h-1c-1.2,0-1.8-0.7-1.8-2v-7.6c0-1.3,0.6-2,1.8-2h1c1.2,0,1.8,0.7,1.8,2
					v1.3h-1.5v-1.2c0-0.4-0.2-0.7-0.7-0.7h-0.3c-0.4,0-0.6,0.2-0.6,0.7v7.4c0,0.4,0.2,0.7,0.6,0.7h0.4c0.4,0,0.6-0.2,0.6-0.7v-0.6
					H121.1z"/>
				<path class="st2" d="M122.3,253.8v-11.5h1.5v11.5H122.3z"/>
				<path class="st2" d="M127.1,253.8c-1.2,0-1.9-0.7-1.9-2v-7.6c0-1.3,0.6-2,1.8-2h1.5c1.2,0,1.8,0.7,1.8,2v7.6c0,1.3-0.6,2-1.9,2
					H127.1z M127.5,252.4h0.8c0.4,0,0.6-0.2,0.6-0.7v-7.4c0-0.4-0.2-0.7-0.7-0.7h-0.7c-0.4,0-0.7,0.2-0.7,0.7v7.4
					C126.8,252.2,127,252.4,127.5,252.4z M128,241.6h-1.1l0.7-1.9h1.4L128,241.6z"/>
				<path class="st2" d="M134.9,247.9v-5.6h1.5v11.5h-1.5v-2.3l-1.6-5.2v7.5h-1.5v-11.5h1.5L134.9,247.9z"/>
				<path class="st2" d="M140.5,253.8v-11.5h2.7c1.4,0,2.2,0.7,2.2,2.2v7.6c0,1.1-0.6,1.7-1.8,1.7H140.5z M142,252.4h1.2
					c0.4,0,0.6-0.2,0.6-0.5v-7.4c0-0.6-0.2-0.8-0.7-0.8H142V252.4z"/>
				<path class="st2" d="M146.7,253.8v-11.5h3.8v1.4h-2.3v3.5h2v1.4h-2v3.8h2.3v1.4H146.7z"/>
				<path class="st2" d="M154.1,242.3h2.8c1.2,0,1.9,0.7,1.9,2v3.4c0,1.3-0.6,2-1.8,2h-1.3v4.2h-1.5V242.3z M155.7,248.2h1
					c0.4,0,0.6-0.2,0.6-0.7v-3.2c0-0.4-0.2-0.7-0.7-0.7h-0.9V248.2z"/>
				<path class="st2" d="M163.7,253.8H160v-11.5h1.5v10.1h2.1V253.8z"/>
				<path class="st2" d="M169.5,242.3v9.3c0,1.5-0.6,2.2-1.9,2.2h-1.3c-1.2,0-1.8-0.7-1.8-2.2v-9.3h1.5v9.3c0,0.5,0.2,0.8,0.7,0.8
					h0.6c0.4,0,0.6-0.2,0.6-0.8v-9.3H169.5z"/>
				<path class="st2" d="M173.3,249.6v-1.4h2.3v5.6h-3c-1.2,0-1.8-0.6-1.8-1.9v-7.6c0-1.3,0.6-2,1.8-2h1.1c1.3,0,2,0.7,2,2v1.2h-1.5
					v-1c0-0.6-0.2-0.8-0.7-0.8h-0.4c-0.4,0-0.7,0.3-0.7,0.8v7c0,0.6,0.2,0.8,0.7,0.8h1v-2.8H173.3z"/>
				<path class="st2" d="M176.9,253.8v-11.5h1.5v11.5H176.9z"/>
				<path class="st2" d="M183.1,247.9v-5.6h1.5v11.5h-1.5v-2.3l-1.6-5.2v7.5h-1.5v-11.5h1.5L183.1,247.9z"/>
				<path class="st2" d="M189,245.4v-1c0-0.5-0.2-0.7-0.7-0.7h-0.2c-0.4,0-0.7,0.2-0.7,0.7v1.9c0,0.2,0,0.4,0.1,0.4
					c0.1,0.1,0.2,0.2,0.4,0.3l1.5,0.8c0.3,0.2,0.5,0.3,0.7,0.4s0.2,0.2,0.3,0.4s0.1,0.4,0.1,0.8v2.4c0,1.3-0.6,1.9-1.9,1.9h-0.9
					c-1.2,0-1.8-0.7-1.8-2.1v-0.6h1.5v0.6c0,0.4,0.2,0.7,0.7,0.7h0.3c0.4,0,0.6-0.2,0.6-0.7v-2c0-0.2,0-0.4-0.1-0.4
					c-0.1-0.1-0.2-0.2-0.4-0.3l-1.5-0.8c-0.3-0.2-0.6-0.3-0.7-0.4c-0.1-0.1-0.2-0.3-0.3-0.5c-0.1-0.2-0.1-0.4-0.1-0.7v-2.4
					c0-1.3,0.6-2,1.8-2h1c1.2,0,1.8,0.7,1.8,2v1.1H189z"/>
				<path class="st2" d="M191.4,255.7l0.7-1.9h-0.8v-2h1.7v2l-0.8,1.9H191.4z"/>
				<path class="st2" d="M201.5,251.1v0.7c0,1.3-0.6,2-1.8,2h-1c-1.2,0-1.8-0.7-1.8-2v-7.6c0-1.3,0.6-2,1.8-2h1c1.2,0,1.8,0.7,1.8,2
					v1.3h-1.5v-1.2c0-0.4-0.2-0.7-0.7-0.7H199c-0.4,0-0.6,0.2-0.6,0.7v7.4c0,0.4,0.2,0.7,0.6,0.7h0.4c0.4,0,0.6-0.2,0.6-0.7v-0.6
					H201.5z"/>
				<path class="st2" d="M204.5,253.8c-1.2,0-1.9-0.7-1.9-2v-7.6c0-1.3,0.6-2,1.8-2h1.5c1.2,0,1.8,0.7,1.8,2v7.6c0,1.3-0.6,2-1.9,2
					H204.5z M204.8,252.4h0.8c0.4,0,0.6-0.2,0.6-0.7v-7.4c0-0.4-0.2-0.7-0.7-0.7h-0.7c-0.4,0-0.7,0.2-0.7,0.7v7.4
					C204.1,252.2,204.4,252.4,204.8,252.4z M205.3,241.6h-1.1l0.7-1.9h1.4L205.3,241.6z"/>
				<path class="st2" d="M209.1,253.8v-11.5h2.7c1.4,0,2.2,0.7,2.2,2.2v7.6c0,1.1-0.6,1.7-1.8,1.7H209.1z M210.6,252.4h1.2
					c0.4,0,0.6-0.2,0.6-0.5v-7.4c0-0.6-0.2-0.8-0.7-0.8h-1.1V252.4z"/>
				<path class="st2" d="M215.3,253.8v-11.5h1.5v11.5H215.3z"/>
				<path class="st2" d="M220.6,249.6v-1.4h2.3v5.6h-3c-1.2,0-1.8-0.6-1.8-1.9v-7.6c0-1.3,0.6-2,1.8-2h1.1c1.3,0,2,0.7,2,2v1.2h-1.5
					v-1c0-0.6-0.2-0.8-0.7-0.8h-0.4c-0.4,0-0.7,0.3-0.7,0.8v7c0,0.6,0.2,0.8,0.7,0.8h1v-2.8H220.6z"/>
				<path class="st2" d="M226,253.8c-1.2,0-1.9-0.7-1.9-2v-7.6c0-1.3,0.6-2,1.8-2h1.5c1.2,0,1.8,0.7,1.8,2v7.6c0,1.3-0.6,2-1.9,2
					H226z M226.4,252.4h0.8c0.4,0,0.6-0.2,0.6-0.7v-7.4c0-0.4-0.2-0.7-0.7-0.7h-0.7c-0.4,0-0.7,0.2-0.7,0.7v7.4
					C225.7,252.2,225.9,252.4,226.4,252.4z"/>
				<path class="st2" d="M233.2,253.8v-11.5h3.8v1.4h-2.3v3.5h2v1.4h-2v3.8h2.3v1.4H233.2z"/>
				<path class="st2" d="M240.7,253.8v-11.5h1.5v11.5H240.7z"/>
				<path class="st2" d="M246.8,249.1l1.4-6.8h1.7v11.5h-1.5l0.2-7.5l-1.2,5.4h-1.2l-1.2-5.4l0.2,7.5h-1.5v-11.5h1.7L246.8,249.1z"
					/>
				<path class="st2" d="M252.8,253.8h-1.5v-9.5c0-1.3,0.6-2,1.8-2h1.2c1.2,0,1.8,0.7,1.8,2v9.5h-1.5v-4.2h-1.8V253.8z M253.7,241.6
					h-1.1l0.7-1.9h1.4L253.7,241.6z M254.6,248.2v-3.8c0-0.4-0.2-0.7-0.7-0.7h-0.4c-0.4,0-0.7,0.2-0.7,0.7v3.8H254.6z"/>
				<path class="st2" d="M259.8,249.6v-1.4h2.3v5.6h-3c-1.2,0-1.8-0.6-1.8-1.9v-7.6c0-1.3,0.6-2,1.8-2h1.1c1.3,0,2,0.7,2,2v1.2h-1.5
					v-1c0-0.6-0.2-0.8-0.7-0.8h-0.4c-0.4,0-0.7,0.3-0.7,0.8v7c0,0.6,0.2,0.8,0.7,0.8h1v-2.8H259.8z"/>
				<path class="st2" d="M263.4,253.8v-11.5h3.8v1.4h-2.3v3.5h2v1.4h-2v3.8h2.3v1.4H263.4z"/>
				<path class="st2" d="M271.5,247.9v-5.6h1.5v11.5h-1.5v-2.3l-1.6-5.2v7.5h-1.5v-11.5h1.5L271.5,247.9z"/>
				<path class="st2" d="M274.5,253.8v-11.5h3.8v1.4H276v3.5h2v1.4h-2v3.8h2.3v1.4H274.5z"/>
				<path class="st2" d="M282.3,245.4v-1c0-0.5-0.2-0.7-0.7-0.7h-0.2c-0.4,0-0.7,0.2-0.7,0.7v1.9c0,0.2,0,0.4,0.1,0.4
					c0.1,0.1,0.2,0.2,0.4,0.3l1.5,0.8c0.3,0.2,0.5,0.3,0.7,0.4s0.2,0.2,0.3,0.4s0.1,0.4,0.1,0.8v2.4c0,1.3-0.6,1.9-1.9,1.9h-0.9
					c-1.2,0-1.8-0.7-1.8-2.1v-0.6h1.5v0.6c0,0.4,0.2,0.7,0.7,0.7h0.3c0.4,0,0.6-0.2,0.6-0.7v-2c0-0.2,0-0.4-0.1-0.4
					c-0.1-0.1-0.2-0.2-0.4-0.3l-1.5-0.8c-0.3-0.2-0.6-0.3-0.7-0.4c-0.1-0.1-0.2-0.3-0.3-0.5c-0.1-0.2-0.1-0.4-0.1-0.7v-2.4
					c0-1.3,0.6-2,1.8-2h1c1.2,0,1.8,0.7,1.8,2v1.1H282.3z"/>
				<path class="st2" d="M38.2,273v-11.5H42v1.4h-2.3v3.5h2v1.4h-2v3.8H42v1.4H38.2z"/>
				<path class="st2" d="M46.3,267.1v-5.6h1.5V273h-1.5v-2.3l-1.6-5.2v7.5h-1.5v-11.5h1.5L46.3,267.1z"/>
				<path class="st2" d="M49.3,273v-11.5h3.8v1.4h-2.3v3.5h2v1.4h-2v3.8h2.3v1.4H49.3z"/>
				<path class="st2" d="M57.3,268.3l1.4-6.8h1.7V273h-1.5l0.2-7.5l-1.2,5.4h-1.2l-1.2-5.4l0.2,7.5h-1.5v-11.5h1.7L57.3,268.3z"/>
				<path class="st2" d="M61.9,273v-11.5h1.5V273H61.9z"/>
				<path class="st2" d="M67.2,268.8v-1.4h2.3v5.6h-3c-1.2,0-1.8-0.6-1.8-1.9v-7.6c0-1.3,0.6-2,1.8-2h1.1c1.3,0,2,0.7,2,2v1.2H68v-1
					c0-0.6-0.2-0.8-0.7-0.8H67c-0.4,0-0.7,0.3-0.7,0.8v7c0,0.6,0.2,0.8,0.7,0.8h1v-2.8H67.2z"/>
				<path class="st2" d="M72.6,273c-1.2,0-1.9-0.7-1.9-2v-7.6c0-1.3,0.6-2,1.8-2H74c1.2,0,1.8,0.7,1.8,2v7.6c0,1.3-0.6,2-1.9,2H72.6
					z M72.9,271.6h0.8c0.4,0,0.6-0.2,0.6-0.7v-7.4c0-0.4-0.2-0.7-0.7-0.7h-0.7c-0.4,0-0.7,0.2-0.7,0.7v7.4
					C72.2,271.4,72.5,271.6,72.9,271.6z"/>
				<path class="st2" d="M80.2,264.6v-1c0-0.5-0.2-0.7-0.7-0.7h-0.2c-0.4,0-0.7,0.2-0.7,0.7v1.9c0,0.2,0,0.4,0.1,0.4
					c0.1,0.1,0.2,0.2,0.4,0.3l1.5,0.8c0.3,0.2,0.5,0.3,0.7,0.4c0.1,0.1,0.2,0.2,0.3,0.4c0.1,0.1,0.1,0.4,0.1,0.8v2.4
					c0,1.3-0.6,1.9-1.9,1.9h-0.9c-1.2,0-1.8-0.7-1.8-2.1v-0.6h1.5v0.6c0,0.4,0.2,0.7,0.7,0.7h0.3c0.4,0,0.6-0.2,0.6-0.7v-2
					c0-0.2,0-0.4-0.1-0.4c-0.1-0.1-0.2-0.2-0.4-0.3l-1.5-0.8c-0.3-0.2-0.6-0.3-0.7-0.4c-0.1-0.1-0.2-0.3-0.3-0.5
					c-0.1-0.2-0.1-0.4-0.1-0.7v-2.4c0-1.3,0.6-2,1.8-2h1c1.2,0,1.8,0.7,1.8,2v1.1H80.2z"/>
				<path class="st2" d="M84.3,264.8v2h-1.6v-2H84.3z M84.3,271v2h-1.6v-2H84.3z"/>
				<path class="st2" d="M88.1,261.5h2.8c1.2,0,1.9,0.7,1.9,2v3.4c0,1.3-0.6,2-1.8,2h-1.3v4.2h-1.5V261.5z M89.6,267.4h1
					c0.4,0,0.6-0.2,0.6-0.7v-3.2c0-0.4-0.2-0.7-0.7-0.7h-0.9V267.4z"/>
				<path class="st2" d="M97.6,273H94v-11.5h1.5v10.1h2.1V273z"/>
				<path class="st2" d="M103.5,261.5v9.3c0,1.5-0.6,2.2-1.9,2.2h-1.3c-1.2,0-1.8-0.7-1.8-2.2v-9.3h1.5v9.3c0,0.5,0.2,0.8,0.7,0.8
					h0.6c0.4,0,0.6-0.3,0.6-0.8v-9.3H103.5z"/>
				<path class="st2" d="M107.3,268.8v-1.4h2.3v5.6h-3c-1.2,0-1.8-0.6-1.8-1.9v-7.6c0-1.3,0.6-2,1.8-2h1.1c1.3,0,2,0.7,2,2v1.2h-1.5
					v-1c0-0.6-0.2-0.8-0.7-0.8h-0.4c-0.4,0-0.7,0.3-0.7,0.8v7c0,0.6,0.2,0.8,0.7,0.8h1v-2.8H107.3z"/>
				<path class="st2" d="M110.9,273v-11.5h1.5V273H110.9z"/>
				<path class="st2" d="M117,267.1v-5.6h1.5V273H117v-2.3l-1.6-5.2v7.5h-1.5v-11.5h1.5L117,267.1z"/>
				<path class="st2" d="M123,264.6v-1c0-0.5-0.2-0.7-0.7-0.7H122c-0.4,0-0.7,0.2-0.7,0.7v1.9c0,0.2,0,0.4,0.1,0.4
					c0.1,0.1,0.2,0.2,0.4,0.3l1.5,0.8c0.3,0.2,0.5,0.3,0.7,0.4c0.1,0.1,0.2,0.2,0.3,0.4c0.1,0.1,0.1,0.4,0.1,0.8v2.4
					c0,1.3-0.6,1.9-1.9,1.9h-0.9c-1.2,0-1.8-0.7-1.8-2.1v-0.6h1.5v0.6c0,0.4,0.2,0.7,0.7,0.7h0.3c0.4,0,0.6-0.2,0.6-0.7v-2
					c0-0.2,0-0.4-0.1-0.4c-0.1-0.1-0.2-0.2-0.4-0.3l-1.5-0.8c-0.3-0.2-0.6-0.3-0.7-0.4c-0.1-0.1-0.2-0.3-0.3-0.5
					c-0.1-0.2-0.1-0.4-0.1-0.7v-2.4c0-1.3,0.6-2,1.8-2h1c1.2,0,1.8,0.7,1.8,2v1.1H123z"/>
				<path class="st2" d="M128.3,261.5h2.8c1.2,0,1.9,0.7,1.9,2v3.4c0,1.3-0.6,2-1.8,2h-1.3v4.2h-1.5V261.5z M129.9,267.4h1
					c0.4,0,0.6-0.2,0.6-0.7v-3.2c0-0.4-0.2-0.7-0.7-0.7h-0.9V267.4z"/>
				<path class="st2" d="M134.2,273v-11.5h3.8v1.4h-2.3v3.5h2v1.4h-2v3.8h2.3v1.4H134.2z"/>
				<path class="st2" d="M142.1,264.6v-1c0-0.5-0.2-0.7-0.7-0.7h-0.2c-0.4,0-0.7,0.2-0.7,0.7v1.9c0,0.2,0,0.4,0.1,0.4
					c0.1,0.1,0.2,0.2,0.4,0.3l1.5,0.8c0.3,0.2,0.5,0.3,0.7,0.4c0.1,0.1,0.2,0.2,0.3,0.4c0.1,0.1,0.1,0.4,0.1,0.8v2.4
					c0,1.3-0.6,1.9-1.9,1.9h-0.9c-1.2,0-1.8-0.7-1.8-2.1v-0.6h1.5v0.6c0,0.4,0.2,0.7,0.7,0.7h0.3c0.4,0,0.6-0.2,0.6-0.7v-2
					c0-0.2,0-0.4-0.1-0.4c-0.1-0.1-0.2-0.2-0.4-0.3l-1.5-0.8c-0.3-0.2-0.6-0.3-0.7-0.4c-0.1-0.1-0.2-0.3-0.3-0.5
					c-0.1-0.2-0.1-0.4-0.1-0.7v-2.4c0-1.3,0.6-2,1.8-2h1c1.2,0,1.8,0.7,1.8,2v1.1H142.1z"/>
				<path class="st2" d="M146.3,273h-1.5v-9.5c0-1.3,0.6-2,1.8-2h1.2c1.2,0,1.8,0.7,1.8,2v9.5h-1.5v-4.2h-1.8V273z M148.1,267.4
					v-3.8c0-0.4-0.2-0.7-0.7-0.7H147c-0.4,0-0.7,0.2-0.7,0.7v3.8H148.1z"/>
				<path class="st2" d="M151,273v-11.5h2.7c1.4,0,2.2,0.7,2.2,2.2v7.6c0,1.1-0.6,1.7-1.8,1.7H151z M152.5,271.6h1.2
					c0.4,0,0.6-0.2,0.6-0.5v-7.4c0-0.6-0.2-0.8-0.7-0.8h-1.1V271.6z"/>
				<path class="st2" d="M159,273c-1.2,0-1.9-0.7-1.9-2v-7.6c0-1.3,0.6-2,1.8-2h1.5c1.2,0,1.8,0.7,1.8,2v7.6c0,1.3-0.6,2-1.9,2H159z
					 M159.3,271.6h0.8c0.4,0,0.6-0.2,0.6-0.7v-7.4c0-0.4-0.2-0.7-0.7-0.7h-0.7c-0.4,0-0.7,0.2-0.7,0.7v7.4
					C158.6,271.4,158.9,271.6,159.3,271.6z"/>
				<path class="st2" d="M166.6,264.6v-1c0-0.5-0.2-0.7-0.7-0.7h-0.2c-0.4,0-0.7,0.2-0.7,0.7v1.9c0,0.2,0,0.4,0.1,0.4
					c0.1,0.1,0.2,0.2,0.4,0.3l1.5,0.8c0.3,0.2,0.5,0.3,0.7,0.4c0.1,0.1,0.2,0.2,0.3,0.4c0.1,0.1,0.1,0.4,0.1,0.8v2.4
					c0,1.3-0.6,1.9-1.9,1.9h-0.9c-1.2,0-1.8-0.7-1.8-2.1v-0.6h1.5v0.6c0,0.4,0.2,0.7,0.7,0.7h0.3c0.4,0,0.6-0.2,0.6-0.7v-2
					c0-0.2,0-0.4-0.1-0.4c-0.1-0.1-0.2-0.2-0.4-0.3l-1.5-0.8c-0.3-0.2-0.6-0.3-0.7-0.4c-0.1-0.1-0.2-0.3-0.3-0.5
					c-0.1-0.2-0.1-0.4-0.1-0.7v-2.4c0-1.3,0.6-2,1.8-2h1c1.2,0,1.8,0.7,1.8,2v1.1H166.6z"/>
			</g>
			<g>
				<defs>
					<rect id="SVGID_00000151530268126965777500000007308346704865898135_" x="228.4" width="386.1" height="358.5"/>
				</defs>
				<clipPath id="SVGID_00000176011040122142052990000009042402217665825690_">
					<use xlink:href="#SVGID_00000151530268126965777500000007308346704865898135_"  style="overflow:visible;"/>
				</clipPath>
				<g style="clip-path:url(#SVGID_00000176011040122142052990000009042402217665825690_);">
					<g>
						<path class="st28" d="M371.1,127.8c0,0-4.8,29.6-20.7,38c-15.9,8.3-53.9,29.7-44.9,66.2c9,36.5,53.6,34.7,53.6,34.7L403.4,156
							L371.1,127.8z"/>
					</g>
					<g>
						<path class="st29" d="M363.2,308.3c0,0-18.4,23.4-21.5,45.3c-3.1,21.8-24,123.8-24,123.8l-41.8,28.1l3.7,53
							c0,0,78-40.5,83.6-51.1c5.6-10.6,58.6-121.6,77.3-126c18.7-4.4,105.4,13.1,105.4,13.1l-7.5,97.9l44.9-18.1l31.2-99.2
							l-172.7-81.1L363.2,308.3z"/>
					</g>
					<g>
						<path class="st29" d="M454.8,166.1c0,0,30.7-8.3,40.8-7.5c10.1,0.8,12.8,8.9,14.8,17.7c1.9,8.8,26.8,82.6,26.8,82.6l20.2-59
							l21.7,5.4L548,318.7l-61.7-101.7c0,0-41.2,87.9-54.4,98.5c-13.2,10.6-68.6-7.2-68.6-7.2l-9.4-97.2c0,0,4.6-13.2,12.2-19.8
							s18-15,18-15L454.8,166.1z"/>
					</g>
					<g>
						<path class="st30" d="M398.5,155.5c0,0-12.9,20.2-18.2,24.6c0,0,45,14.6,60.6,16.9l13.8-31l-8.8-5.8L398.5,155.5z"/>
					</g>
					<g>
						<path class="st31" d="M384.3,134.2c0,0-8.4-11.5-12-11.4c-3.6,0.2,1.1,21.1,6,22.9c4.9,1.8,7.1,1.9,7.1,1.9
							s32.9,21.7,53.5,23.7c0,0,36.7-14,39.9-46.6c3.2-32.7-22.8-51.1-39.1-50.5s-57.9,19.4-59.7,27.2S384.3,134.2,384.3,134.2z"/>
					</g>
					<g>
						<path class="st32" d="M436.1,126.7l37.7-25.8c0,0,4.3,15.2,0.8,24.4c-3.5,9.1-11.1,20.6-19.2,18.8c-8.1-1.8-15.9-6.9-15.9-6.9
							s-8.8,13.4-20.4,14.3c-11.6,0.9-22.3-8.2-28.5-15.6c-6.3-7.3-10.2-16.3-10.2-16.3L436.1,126.7z"/>
					</g>
					<g>
						<path class="st2" d="M464.2,125.7c0,0-0.3-8.1-6.6-6.9c-6.3,1.2-9.8,15.5-9.3,16.8c0.5,1.3,5.7,2.4,10.5,0
							C463.6,133.1,464.5,127.9,464.2,125.7z"/>
					</g>
					<g>
						<path class="st2" d="M428.1,137.7c0,0-8.7-10.7-18-9c-9.3,1.7,0,14.4,7.2,14.4C424.5,143.2,428.1,137.7,428.1,137.7z"/>
					</g>
					<g>
						<path class="st32" d="M463.6,119c0,0-1.6-0.9-2.3,0.3c-0.7,1.2-0.4,11.1,1.2,12.1c1.6,1.1,3.3-1,3.9-4.2
							C466.9,124.2,465.5,119.8,463.6,119z"/>
					</g>
					<g>
						<path class="st32" d="M425.5,133c0,0-3.5-2.1-4.7-0.9c-1.2,1.2,1.1,6.2,3.9,7.2c2.8,1,4.7,0.7,4.8-0.8
							C429.7,136.9,426.4,133.5,425.5,133z"/>
					</g>
					<g>
						<path class="st30" d="M436.9,127.8c0,0,3.7,13.5,5.6,15.7c1.9,2.2,3.4,3.3,3.4,3.3s-2.9,3.2-6.3,2.6c-3.4-0.5-3.7-1.1-3.7-1.1
							s2.5-5.9,2.3-8C438,138.3,436.9,127.8,436.9,127.8z"/>
					</g>
					<g>
						<path class="st30" d="M384.3,134.2c0,0-8.7-12.3-12.1-11.9c-3.4,0.4,1,15.3,3.1,20.1c2.2,4.8,7.5,5.5,10.2,4.3
							C388.1,145.5,384.3,134.2,384.3,134.2z"/>
					</g>
					<g>
						<path class="st28" d="M382.6,133.2c0,0,17.5,1.1,35.8-15.4c18.3-16.4,24.7-40.4,24.7-40.4s6.6,0.4,16.6,9.6
							c10,9.3,20.2,25,20.2,25s-5.4-25.7-14.6-32.9c-9.3-7.1-20-9.1-27.9-7.5c-7.8,1.6-48.4,17.5-67.3,29.2l2.2,21.9
							C372.3,122.9,379.7,128.4,382.6,133.2z"/>
					</g>
					<g>
						<path class="st30" d="M428.1,153.1c0,0,3.3,5.7,9.1,5.5l2.8-3.6C440,155.1,431.5,153.8,428.1,153.1z"/>
					</g>
					<g>
						<polygon class="st13" points="380.3,179.3 440.9,197.1 454.8,166.1 461.6,164.4 444.5,205.6 374.5,184.1 						"/>
					</g>
					<g>
						<polygon class="st13" points="548.9,200.5 582.5,208.7 585,149.5 589.8,149.5 594.1,126.3 568.7,119.2 567.2,131.9 
							556.8,130.2 559.9,144.9 566.4,145.2 						"/>
					</g>
					<g>
						<path class="st13" d="M587.1,476.1c0,0-35.3,103.4-26.8,110.2c8.5,6.8,30.2,10.2,39.6,21.3l-61.7-3l0.2-112.4l49.1-23.4
							L587.1,476.1z"/>
					</g>
					<g>
						<path class="st13" d="M275.9,498.9l9.9,59.5c0,0-91.1,33.3-99.3,40.3c-8.3,7,19.9,11.6,25.7,23.6h-60c0,0,6.6-19,28.6-41
							C202.5,559.3,275.9,498.9,275.9,498.9z"/>
					</g>
					<g>
						<path class="st33" d="M327.8,427.1c0,0,89.6-8.9,138.6-23.6c49-14.8,90.1-55.7,90.1-55.7l-98.6-48.4L407.9,339l-45.8-29.4
							C362.2,309.6,320.7,366.2,327.8,427.1z"/>
					</g>
					<g>
						<path class="st34" d="M353.3,208.5c0,0,14.6-17.6,25.3-7.3c10.7,10.2,24.8,116.2,24.8,116.2l42.6-17.9l1.5,23.1l-54.7,38.1
							l-41.6-99.2C351.2,261.4,342.4,217.2,353.3,208.5z"/>
					</g>
					<g>
						<polygon class="st13" points="431.4,300.3 439.1,330.9 482.7,300.7 486.5,304.5 498.6,293.9 494.2,272.8 483.7,278.1 
							482.5,272.8 471.6,277.8 474.5,281.9 						"/>
					</g>
					<g>
						<path class="st35" d="M428.1,281.9c0,0,24.1-13.6,33.5-23.6L428.1,281.9z"/>
					</g>
				</g>
			</g>
			<g>
				<polygon class="st14" points="640,638 0,725 0,405 640,318 				"/>
			</g>
			<g>
				<path class="st2" d="M380.6,433.2v2.3c0,4.1-1.9,6.1-5.7,6.1h-3.1c-3.8,0-5.8-2-5.8-6.1v-23.7c0-4.1,1.9-6.1,5.8-6.1h3.1
					c3.8,0,5.7,2,5.7,6.1v4h-4.8v-3.7c0-1.4-0.7-2.1-2.1-2.1h-1c-1.3,0-1.9,0.7-1.9,2.1v23c0,1.4,0.6,2.1,1.9,2.1h1.2
					c1.3,0,1.9-0.7,1.9-2.1v-1.9H380.6z"/>
				<path class="st2" d="M389.9,441.6c-3.9,0-5.8-2-5.8-6.1v-23.6c0-4.1,1.9-6.2,5.7-6.2h4.6c3.8,0,5.8,2.1,5.8,6.2v23.6
					c0,4.1-1.9,6.1-5.8,6.1H389.9z M391,437.2h2.5c1.3,0,1.9-0.7,1.9-2.1v-23c0-1.4-0.7-2.1-2.1-2.1H391c-1.4,0-2.1,0.7-2.1,2.1v23
					C388.9,436.5,389.6,437.2,391,437.2z"/>
				<path class="st2" d="M414.4,423v-17.3h4.8v35.9h-4.8v-7.1l-5.2-16.3v23.5h-4.8v-35.9h4.8L414.4,423z"/>
				<path class="st2" d="M431.3,410v31.5h-4.8V410h-4.6v-4.3h14v4.3H431.3z"/>
				<path class="st2" d="M438.7,441.6v-35.9h11.9v4.3h-7.1v10.9h6.3v4.3h-6.3v11.9h7.1v4.3H438.7z"/>
				<path class="st2" d="M464,423v-17.3h4.8v35.9H464v-7.1l-5.2-16.3v23.5H454v-35.9h4.8L464,423z"/>
				<path class="st2" d="M480.9,410v31.5h-4.8V410h-4.6v-4.3h14v4.3H480.9z"/>
				<path class="st2" d="M507.4,423.1c2.6,0.7,4,2.1,4,4.1v9c0,3.6-1.8,5.3-5.5,5.3h-9.6v-35.9h8.2c4.3,0,6.4,2.2,6.4,6.5v6.9
					c0,2.1-1.2,3.3-3.5,3.8V423.1z M501.1,420.8h2.2c1.8,0,2.7-0.9,2.7-2.6v-5.6c0-1.7-0.7-2.6-2.1-2.6h-2.9V420.8z M501.1,437.2
					h3.6c1.3,0,1.9-0.5,1.9-1.5v-7.9c0-1.7-0.9-2.5-2.8-2.5h-2.6V437.2z"/>
				<path class="st2" d="M515.4,441.6v-35.9h11.9v4.3h-7.1v10.9h6.3v4.3h-6.3v11.9h7.1v4.3H515.4z"/>
				<path class="st2" d="M535.3,441.6h-4.8v-29.7c0-4.1,1.9-6.2,5.7-6.2h3.6c3.8,0,5.8,2.1,5.8,6.2v29.7h-4.8v-13.1h-5.5V441.6z
					 M540.8,424.1v-11.9c0-1.4-0.7-2.1-2.1-2.1h-1.3c-1.4,0-2.1,0.7-2.1,2.1v11.9H540.8z"/>
				<path class="st2" d="M559,415.3v-3.1c0-1.4-0.7-2.2-2.1-2.2h-0.8c-1.4,0-2,0.7-2,2.2v5.9c0,0.7,0.1,1.1,0.4,1.3
					c0.3,0.2,0.7,0.5,1.3,0.9l4.5,2.4c1,0.6,1.7,1,2.1,1.3c0.4,0.3,0.7,0.7,1,1.2c0.2,0.5,0.3,1.3,0.3,2.6v7.6c0,4-1.9,6-5.8,6h-3
					c-3.8,0-5.7-2.2-5.7-6.6v-1.8h4.8v1.9c0,1.4,0.7,2.1,2.1,2.1h0.9c1.3,0,1.9-0.7,1.9-2.1V429c0-0.7-0.1-1.1-0.4-1.4
					c-0.3-0.2-0.7-0.5-1.3-0.9l-4.5-2.5c-1-0.5-1.7-1-2.2-1.3c-0.4-0.4-0.8-0.8-1-1.4c-0.2-0.6-0.3-1.3-0.3-2.3v-7.3
					c0-4.1,1.9-6.2,5.7-6.2h3c3.8,0,5.8,2.1,5.8,6.2v3.5H559z"/>
				<path class="st2" d="M575.5,410v31.5h-4.8V410h-4.6v-4.3h14v4.3H575.5z"/>
				<path class="st2" d="M368.4,475.2h-3.6v-11.5h1.5v10.1h2.1V475.2z"/>
				<path class="st2" d="M369.2,475.2v-11.5h3.8v1.4h-2.3v3.5h2v1.4h-2v3.8h2.3v1.4H369.2z"/>
				<path class="st2" d="M377.1,466.8v-1c0-0.5-0.2-0.7-0.7-0.7h-0.2c-0.4,0-0.7,0.2-0.7,0.7v1.9c0,0.2,0,0.4,0.1,0.4
					c0.1,0.1,0.2,0.2,0.4,0.3l1.5,0.8c0.3,0.2,0.5,0.3,0.7,0.4c0.1,0.1,0.2,0.2,0.3,0.4c0.1,0.1,0.1,0.4,0.1,0.8v2.4
					c0,1.3-0.6,1.9-1.9,1.9h-0.9c-1.2,0-1.8-0.7-1.8-2.1v-0.6h1.5v0.6c0,0.4,0.2,0.7,0.7,0.7h0.3c0.4,0,0.6-0.2,0.6-0.7v-2
					c0-0.2,0-0.4-0.1-0.4c-0.1-0.1-0.2-0.2-0.4-0.3l-1.5-0.8c-0.3-0.2-0.6-0.3-0.7-0.4s-0.2-0.3-0.3-0.5s-0.1-0.4-0.1-0.7v-2.4
					c0-1.3,0.6-2,1.8-2h1c1.2,0,1.8,0.7,1.8,2v1.1H377.1z"/>
				<path class="st2" d="M382.5,475.2v-11.5h2.7c1.4,0,2.2,0.7,2.2,2.2v7.6c0,1.1-0.6,1.7-1.8,1.7H382.5z M384,473.8h1.2
					c0.4,0,0.6-0.2,0.6-0.5v-7.4c0-0.6-0.2-0.8-0.7-0.8H384V473.8z"/>
				<path class="st2" d="M390.1,475.2h-1.5v-9.5c0-1.3,0.6-2,1.8-2h1.2c1.2,0,1.8,0.7,1.8,2v9.5h-1.5V471h-1.8V475.2z M391.9,469.6
					v-3.8c0-0.4-0.2-0.7-0.7-0.7h-0.4c-0.4,0-0.7,0.2-0.7,0.7v3.8H391.9z"/>
				<path class="st2" d="M398.8,475.2h-1.5v-9.5c0-1.3,0.6-2,1.8-2h1.2c1.2,0,1.8,0.7,1.8,2v9.5h-1.5V471h-1.8V475.2z M400.6,469.6
					v-3.8c0-0.4-0.2-0.7-0.7-0.7h-0.4c-0.4,0-0.7,0.2-0.7,0.7v3.8H400.6z"/>
				<path class="st2" d="M408.5,465.1v10.1h-1.5v-10.1h-1.5v-1.4h4.5v1.4H408.5z"/>
				<path class="st2" d="M415.8,463.7v9.3c0,1.5-0.6,2.2-1.9,2.2h-1.3c-1.2,0-1.8-0.7-1.8-2.2v-9.3h1.5v9.3c0,0.5,0.2,0.8,0.7,0.8
					h0.6c0.4,0,0.6-0.2,0.6-0.8v-9.3H415.8z"/>
				<path class="st2" d="M420.2,466.8v-1c0-0.5-0.2-0.7-0.7-0.7h-0.2c-0.4,0-0.7,0.2-0.7,0.7v1.9c0,0.2,0,0.4,0.1,0.4
					c0.1,0.1,0.2,0.2,0.4,0.3l1.5,0.8c0.3,0.2,0.5,0.3,0.7,0.4c0.1,0.1,0.2,0.2,0.3,0.4c0.1,0.1,0.1,0.4,0.1,0.8v2.4
					c0,1.3-0.6,1.9-1.9,1.9h-0.9c-1.2,0-1.8-0.7-1.8-2.1v-0.6h1.5v0.6c0,0.4,0.2,0.7,0.7,0.7h0.3c0.4,0,0.6-0.2,0.6-0.7v-2
					c0-0.2,0-0.4-0.1-0.4c-0.1-0.1-0.2-0.2-0.4-0.3l-1.5-0.8c-0.3-0.2-0.6-0.3-0.7-0.4s-0.2-0.3-0.3-0.5s-0.1-0.4-0.1-0.7v-2.4
					c0-1.3,0.6-2,1.8-2h1c1.2,0,1.8,0.7,1.8,2v1.1H420.2z"/>
				<path class="st2" d="M430.5,463.7l-1.9,11.5h-1.8l-1.9-11.5h1.5l1.2,8.8l1.2-8.8H430.5z"/>
				<path class="st2" d="M431.4,475.2v-11.5h1.5v11.5H431.4z"/>
				<path class="st2" d="M437.3,466.8v-1c0-0.5-0.2-0.7-0.7-0.7h-0.2c-0.4,0-0.7,0.2-0.7,0.7v1.9c0,0.2,0,0.4,0.1,0.4
					c0.1,0.1,0.2,0.2,0.4,0.3l1.5,0.8c0.3,0.2,0.5,0.3,0.7,0.4c0.1,0.1,0.2,0.2,0.3,0.4c0.1,0.1,0.1,0.4,0.1,0.8v2.4
					c0,1.3-0.6,1.9-1.9,1.9h-0.9c-1.2,0-1.8-0.7-1.8-2.1v-0.6h1.5v0.6c0,0.4,0.2,0.7,0.7,0.7h0.3c0.4,0,0.6-0.2,0.6-0.7v-2
					c0-0.2,0-0.4-0.1-0.4c-0.1-0.1-0.2-0.2-0.4-0.3l-1.5-0.8c-0.3-0.2-0.6-0.3-0.7-0.4c-0.1-0.1-0.2-0.3-0.3-0.5
					c-0.1-0.2-0.1-0.4-0.1-0.7v-2.4c0-1.3,0.6-2,1.8-2h1c1.2,0,1.8,0.7,1.8,2v1.1H437.3z"/>
				<path class="st2" d="M440.2,475.2v-11.5h1.5v11.5H440.2z"/>
				<path class="st2" d="M445.6,465.1v10.1H444v-10.1h-1.5v-1.4h4.5v1.4H445.6z"/>
				<path class="st2" d="M449.4,475.2h-1.5v-9.5c0-1.3,0.6-2,1.8-2h1.2c1.2,0,1.8,0.7,1.8,2v9.5h-1.5V471h-1.8V475.2z M451.1,469.6
					v-3.8c0-0.4-0.2-0.7-0.7-0.7h-0.4c-0.4,0-0.7,0.2-0.7,0.7v3.8H451.1z"/>
				<path class="st2" d="M457.2,469.3v-5.6h1.5v11.5h-1.5v-2.3l-1.6-5.2v7.5H454v-11.5h1.5L457.2,469.3z"/>
				<path class="st2" d="M462.7,465.1v10.1h-1.5v-10.1h-1.5v-1.4h4.5v1.4H462.7z"/>
				<path class="st2" d="M465,475.2v-11.5h3.8v1.4h-2.3v3.5h2v1.4h-2v3.8h2.3v1.4H465z"/>
				<path class="st2" d="M472.9,466.8v-1c0-0.5-0.2-0.7-0.7-0.7h-0.2c-0.4,0-0.7,0.2-0.7,0.7v1.9c0,0.2,0,0.4,0.1,0.4
					c0.1,0.1,0.2,0.2,0.4,0.3l1.5,0.8c0.3,0.2,0.5,0.3,0.7,0.4c0.1,0.1,0.2,0.2,0.3,0.4c0.1,0.1,0.1,0.4,0.1,0.8v2.4
					c0,1.3-0.6,1.9-1.9,1.9h-0.9c-1.2,0-1.8-0.7-1.8-2.1v-0.6h1.5v0.6c0,0.4,0.2,0.7,0.7,0.7h0.3c0.4,0,0.6-0.2,0.6-0.7v-2
					c0-0.2,0-0.4-0.1-0.4c-0.1-0.1-0.2-0.2-0.4-0.3l-1.5-0.8c-0.3-0.2-0.6-0.3-0.7-0.4s-0.2-0.3-0.3-0.5s-0.1-0.4-0.1-0.7v-2.4
					c0-1.3,0.6-2,1.8-2h1c1.2,0,1.8,0.7,1.8,2v1.1H472.9z"/>
				<path class="st2" d="M481.9,475.2h-3.6v-11.5h1.5v10.1h2.1V475.2z"/>
				<path class="st2" d="M484.5,475.2c-1.2,0-1.9-0.7-1.9-2v-7.6c0-1.3,0.6-2,1.8-2h1.5c1.2,0,1.8,0.7,1.8,2v7.6c0,1.3-0.6,2-1.9,2
					H484.5z M484.9,473.8h0.8c0.4,0,0.6-0.2,0.6-0.7v-7.4c0-0.4-0.2-0.7-0.7-0.7h-0.7c-0.4,0-0.7,0.2-0.7,0.7v7.4
					C484.2,473.6,484.4,473.8,484.9,473.8z"/>
				<path class="st2" d="M497.7,475.2h-4.2c-1.2,0-1.9-0.6-1.9-1.9v-7.6c0-1.3,0.6-2,1.8-2h1.5c1.2,0,1.8,0.7,1.8,2v8.1h0.9V475.2z
					 M495.3,473.8v-8c0-0.4-0.2-0.7-0.7-0.7h-0.7c-0.4,0-0.7,0.2-0.7,0.7v7.4c0,0.4,0.2,0.7,0.7,0.7H495.3z"/>
				<path class="st2" d="M503.4,463.7v9.3c0,1.5-0.6,2.2-1.9,2.2h-1.3c-1.2,0-1.8-0.7-1.8-2.2v-9.3h1.5v9.3c0,0.5,0.2,0.8,0.7,0.8
					h0.6c0.4,0,0.6-0.2,0.6-0.8v-9.3H503.4z"/>
				<path class="st2" d="M504.9,475.2v-11.5h3.8v1.4h-2.3v3.5h2v1.4h-2v3.8h2.3v1.4H504.9z"/>
				<path class="st2" d="M512.3,475.2v-11.5h3.8v1.4h-2.3v3.5h2v1.4h-2v3.8h2.3v1.4H512.3z"/>
				<path class="st2" d="M520.2,466.8v-1c0-0.5-0.2-0.7-0.7-0.7h-0.2c-0.4,0-0.7,0.2-0.7,0.7v1.9c0,0.2,0,0.4,0.1,0.4
					c0.1,0.1,0.2,0.2,0.4,0.3l1.5,0.8c0.3,0.2,0.5,0.3,0.7,0.4c0.1,0.1,0.2,0.2,0.3,0.4c0.1,0.1,0.1,0.4,0.1,0.8v2.4
					c0,1.3-0.6,1.9-1.9,1.9h-0.9c-1.2,0-1.8-0.7-1.8-2.1v-0.6h1.5v0.6c0,0.4,0.2,0.7,0.7,0.7h0.3c0.4,0,0.6-0.2,0.6-0.7v-2
					c0-0.2,0-0.4-0.1-0.4c-0.1-0.1-0.2-0.2-0.4-0.3l-1.5-0.8c-0.3-0.2-0.6-0.3-0.7-0.4s-0.2-0.3-0.3-0.5s-0.1-0.4-0.1-0.7v-2.4
					c0-1.3,0.6-2,1.8-2h1c1.2,0,1.8,0.7,1.8,2v1.1H520.2z"/>
				<path class="st2" d="M525.4,465.1v10.1h-1.5v-10.1h-1.5v-1.4h4.5v1.4H525.4z"/>
				<path class="st2" d="M529.3,475.2h-1.5v-9.5c0-1.3,0.6-2,1.8-2h1.2c1.2,0,1.8,0.7,1.8,2v9.5H531V471h-1.8V475.2z M531,469.6
					v-3.8c0-0.4-0.2-0.7-0.7-0.7h-0.4c-0.4,0-0.7,0.2-0.7,0.7v3.8H531z"/>
				<path class="st2" d="M537.5,469.3c0.8,0.2,1.3,0.7,1.3,1.3v2.9c0,1.1-0.6,1.7-1.7,1.7h-3.1v-11.5h2.6c1.4,0,2,0.7,2,2.1v2.2
					C538.6,468.7,538.2,469.1,537.5,469.3L537.5,469.3z M535.4,468.6h0.7c0.6,0,0.9-0.3,0.9-0.8v-1.8c0-0.6-0.2-0.8-0.7-0.8h-0.9
					V468.6z M535.4,473.8h1.2c0.4,0,0.6-0.2,0.6-0.5v-2.5c0-0.5-0.3-0.8-0.9-0.8h-0.8V473.8z"/>
				<path class="st2" d="M541.5,475.2h-1.5v-9.5c0-1.3,0.6-2,1.8-2h1.2c1.2,0,1.8,0.7,1.8,2v9.5h-1.5V471h-1.8V475.2z M543.2,469.6
					v-3.8c0-0.4-0.2-0.7-0.7-0.7h-0.4c-0.4,0-0.7,0.2-0.7,0.7v3.8H543.2z"/>
				<path class="st2" d="M549.3,469.3v-5.6h1.5v11.5h-1.5v-2.3l-1.6-5.2v7.5h-1.5v-11.5h1.5L549.3,469.3z"/>
				<path class="st2" d="M558.4,469.3c0.8,0.2,1.3,0.7,1.3,1.3v2.9c0,1.1-0.6,1.7-1.7,1.7h-3.1v-11.5h2.6c1.4,0,2,0.7,2,2.1v2.2
					C559.5,468.7,559.2,469.1,558.4,469.3L558.4,469.3z M556.4,468.6h0.7c0.6,0,0.9-0.3,0.9-0.8v-1.8c0-0.6-0.2-0.8-0.7-0.8h-0.9
					V468.6z M556.4,473.8h1.2c0.4,0,0.6-0.2,0.6-0.5v-2.5c0-0.5-0.3-0.8-0.9-0.8h-0.8V473.8z"/>
				<path class="st2" d="M566,463.7v9.3c0,1.5-0.6,2.2-1.9,2.2h-1.3c-1.2,0-1.8-0.7-1.8-2.2v-9.3h1.5v9.3c0,0.5,0.2,0.8,0.7,0.8h0.6
					c0.4,0,0.6-0.2,0.6-0.8v-9.3H566z"/>
				<path class="st2" d="M570.3,466.8v-1c0-0.5-0.2-0.7-0.7-0.7h-0.2c-0.4,0-0.7,0.2-0.7,0.7v1.9c0,0.2,0,0.4,0.1,0.4
					c0.1,0.1,0.2,0.2,0.4,0.3l1.5,0.8c0.3,0.2,0.5,0.3,0.7,0.4c0.1,0.1,0.2,0.2,0.3,0.4c0.1,0.1,0.1,0.4,0.1,0.8v2.4
					c0,1.3-0.6,1.9-1.9,1.9h-0.9c-1.2,0-1.8-0.7-1.8-2.1v-0.6h1.5v0.6c0,0.4,0.2,0.7,0.7,0.7h0.3c0.4,0,0.6-0.2,0.6-0.7v-2
					c0-0.2,0-0.4-0.1-0.4c-0.1-0.1-0.2-0.2-0.4-0.3l-1.5-0.8c-0.3-0.2-0.6-0.3-0.7-0.4s-0.2-0.3-0.3-0.5s-0.1-0.4-0.1-0.7v-2.4
					c0-1.3,0.6-2,1.8-2h1c1.2,0,1.8,0.7,1.8,2v1.1H570.3z"/>
				<path class="st2" d="M577.8,472.5v0.7c0,1.3-0.6,2-1.8,2h-1c-1.2,0-1.8-0.7-1.8-2v-7.6c0-1.3,0.6-2,1.8-2h1c1.2,0,1.8,0.7,1.8,2
					v1.3h-1.5v-1.2c0-0.4-0.2-0.7-0.7-0.7h-0.3c-0.4,0-0.6,0.2-0.6,0.7v7.4c0,0.4,0.2,0.7,0.6,0.7h0.4c0.4,0,0.6-0.2,0.6-0.7v-0.6
					H577.8z"/>
				<path class="st2" d="M580.4,475.2h-1.5v-9.5c0-1.3,0.6-2,1.8-2h1.2c1.2,0,1.8,0.7,1.8,2v9.5h-1.5V471h-1.8V475.2z M582.2,469.6
					v-3.8c0-0.4-0.2-0.7-0.7-0.7h-0.4c-0.4,0-0.7,0.2-0.7,0.7v3.8H582.2z"/>
				<path class="st2" d="M588.2,469.3v-5.6h1.5v11.5h-1.5v-2.3l-1.6-5.2v7.5h-1.5v-11.5h1.5L588.2,469.3z"/>
				<path class="st2" d="M590.7,470.7v-1.3h3.5v1.3H590.7z"/>
				<path class="st2" d="M364.7,494.4v-11.5h2.7c1.4,0,2.2,0.7,2.2,2.2v7.6c0,1.1-0.6,1.7-1.8,1.7H364.7z M366.3,493h1.2
					c0.4,0,0.6-0.2,0.6-0.5v-7.4c0-0.6-0.2-0.8-0.7-0.8h-1.1V493z"/>
				<path class="st2" d="M372.7,494.4c-1.2,0-1.9-0.7-1.9-2v-7.6c0-1.3,0.6-2,1.8-2h1.5c1.2,0,1.8,0.7,1.8,2v7.6c0,1.3-0.6,2-1.9,2
					H372.7z M373.1,493h0.8c0.4,0,0.6-0.2,0.6-0.7V485c0-0.4-0.2-0.7-0.7-0.7H373c-0.4,0-0.7,0.2-0.7,0.7v7.4
					C372.4,492.8,372.6,493,373.1,493z"/>
				<path class="st2" d="M378.6,492.4v2h-1.6v-2H378.6z"/>
				<path class="st2" d="M382.3,494.4v-11.5h3.8v1.4h-2.3v3.5h2v1.4h-2v3.8h2.3v1.4H382.3z"/>
				<path class="st2" d="M390.9,494.4h-3.6v-11.5h1.5V493h2.1V494.4z"/>
				<path class="st2" d="M393.2,494.4h-1.5v-9.5c0-1.3,0.6-2,1.8-2h1.2c1.2,0,1.8,0.7,1.8,2v9.5H395v-4.2h-1.8V494.4z M395,488.8
					V485c0-0.4-0.2-0.7-0.7-0.7h-0.4c-0.4,0-0.7,0.2-0.7,0.7v3.8H395z"/>
				<path class="st2" d="M401.5,488.5c0.8,0.2,1.3,0.7,1.3,1.3v2.9c0,1.1-0.6,1.7-1.7,1.7h-3.1v-11.5h2.6c1.4,0,2,0.7,2,2.1v2.2
					C402.6,487.9,402.2,488.3,401.5,488.5L401.5,488.5z M399.4,487.8h0.7c0.6,0,0.9-0.3,0.9-0.8v-1.8c0-0.6-0.2-0.8-0.7-0.8h-0.9
					V487.8z M399.4,493h1.2c0.4,0,0.6-0.2,0.6-0.5V490c0-0.5-0.3-0.8-0.9-0.8h-0.8V493z"/>
				<path class="st2" d="M405.8,494.4c-1.2,0-1.9-0.7-1.9-2v-7.6c0-1.3,0.6-2,1.8-2h1.5c1.2,0,1.8,0.7,1.8,2v7.6c0,1.3-0.6,2-1.9,2
					H405.8z M406.1,493h0.8c0.4,0,0.6-0.2,0.6-0.7V485c0-0.4-0.2-0.7-0.7-0.7h-0.7c-0.4,0-0.7,0.2-0.7,0.7v7.4
					C405.5,492.8,405.7,493,406.1,493z"/>
				<path class="st2" d="M410.4,482.9h3c1.2,0,1.8,0.7,1.8,2v2.8c0,1-0.3,1.6-0.9,1.9l1.1,4.8h-1.5l-1-4.6H412v4.6h-1.5V482.9z
					 M412,488.4h1c0.5,0,0.7-0.3,0.7-0.8v-2.5c0-0.6-0.2-0.8-0.7-0.8h-1V488.4z"/>
				<path class="st2" d="M417.9,494.4h-1.5v-9.5c0-1.3,0.6-2,1.8-2h1.2c1.2,0,1.8,0.7,1.8,2v9.5h-1.5v-4.2h-1.8V494.4z M419.7,488.8
					V485c0-0.4-0.2-0.7-0.7-0.7h-0.4c-0.4,0-0.7,0.2-0.7,0.7v3.8H419.7z"/>
				<path class="st2" d="M428.7,488.5c0.8,0.2,1.3,0.7,1.3,1.3v2.9c0,1.1-0.6,1.7-1.7,1.7h-3.1v-11.5h2.6c1.4,0,2,0.7,2,2.1v2.2
					C429.8,487.9,429.5,488.3,428.7,488.5L428.7,488.5z M426.7,487.8h0.7c0.6,0,0.9-0.3,0.9-0.8v-1.8c0-0.6-0.2-0.8-0.7-0.8h-0.9
					V487.8z M426.7,493h1.2c0.4,0,0.6-0.2,0.6-0.5V490c0-0.5-0.3-0.8-0.9-0.8h-0.8V493z"/>
				<path class="st2" d="M436.3,482.9v9.3c0,1.5-0.6,2.2-1.9,2.2h-1.3c-1.2,0-1.8-0.7-1.8-2.2v-9.3h1.5v9.3c0,0.5,0.2,0.8,0.7,0.8
					h0.6c0.4,0,0.6-0.2,0.6-0.8v-9.3H436.3z"/>
				<path class="st2" d="M437.7,494.4v-11.5h3.8v1.4h-2.3v3.5h2v1.4h-2v3.8h2.3v1.4H437.7z"/>
				<path class="st2" d="M445.8,488.5v-5.6h1.5v11.5h-1.5v-2.3l-1.6-5.2v7.5h-1.5v-11.5h1.5L445.8,488.5z"/>
				<path class="st2" d="M455.9,491.7v0.7c0,1.3-0.6,2-1.8,2h-1c-1.2,0-1.8-0.7-1.8-2v-7.6c0-1.3,0.6-2,1.8-2h1c1.2,0,1.8,0.7,1.8,2
					v1.3h-1.5V485c0-0.4-0.2-0.7-0.7-0.7h-0.3c-0.4,0-0.6,0.2-0.6,0.7v7.4c0,0.4,0.2,0.7,0.6,0.7h0.4c0.4,0,0.6-0.2,0.6-0.7v-0.6
					H455.9z"/>
				<path class="st2" d="M458.9,494.4c-1.2,0-1.9-0.7-1.9-2v-7.6c0-1.3,0.6-2,1.8-2h1.5c1.2,0,1.8,0.7,1.8,2v7.6c0,1.3-0.6,2-1.9,2
					H458.9z M459.3,493h0.8c0.4,0,0.6-0.2,0.6-0.7V485c0-0.4-0.2-0.7-0.7-0.7h-0.7c-0.4,0-0.7,0.2-0.7,0.7v7.4
					C458.6,492.8,458.8,493,459.3,493z"/>
				<path class="st2" d="M466.7,488.5v-5.6h1.5v11.5h-1.5v-2.3l-1.6-5.2v7.5h-1.5v-11.5h1.5L466.7,488.5z"/>
				<path class="st2" d="M472.2,484.3v10.1h-1.5v-10.1h-1.5v-1.4h4.5v1.4H472.2z"/>
				<path class="st2" d="M474.5,494.4v-11.5h3.8v1.4H476v3.5h2v1.4h-2v3.8h2.3v1.4H474.5z"/>
				<path class="st2" d="M482.6,488.5v-5.6h1.5v11.5h-1.5v-2.3l-1.6-5.2v7.5h-1.5v-11.5h1.5L482.6,488.5z"/>
				<path class="st2" d="M485.6,494.4v-11.5h1.5v11.5H485.6z"/>
				<path class="st2" d="M488.6,494.4v-11.5h2.7c1.4,0,2.2,0.7,2.2,2.2v7.6c0,1.1-0.6,1.7-1.8,1.7H488.6z M490.1,493h1.2
					c0.4,0,0.6-0.2,0.6-0.5v-7.4c0-0.6-0.2-0.8-0.7-0.8h-1.1V493z"/>
				<path class="st2" d="M496.5,494.4c-1.2,0-1.9-0.7-1.9-2v-7.6c0-1.3,0.6-2,1.8-2h1.5c1.2,0,1.8,0.7,1.8,2v7.6c0,1.3-0.6,2-1.9,2
					H496.5z M496.9,493h0.8c0.4,0,0.6-0.2,0.6-0.7V485c0-0.4-0.2-0.7-0.7-0.7h-0.7c-0.4,0-0.7,0.2-0.7,0.7v7.4
					C496.2,492.8,496.4,493,496.9,493z"/>
				<path class="st2" d="M506.6,494.4h-1.5v-4.2l-1.9-7.3h1.5l1.2,5h0l1-5h1.5l-1.9,7.3V494.4z"/>
				<path class="st2" d="M515.5,494.4h-3.6v-11.5h1.5V493h2.1V494.4z"/>
				<path class="st2" d="M518.2,494.4c-1.2,0-1.9-0.7-1.9-2v-7.6c0-1.3,0.6-2,1.8-2h1.5c1.2,0,1.8,0.7,1.8,2v7.6c0,1.3-0.6,2-1.9,2
					H518.2z M518.6,493h0.8c0.4,0,0.6-0.2,0.6-0.7V485c0-0.4-0.2-0.7-0.7-0.7h-0.7c-0.4,0-0.7,0.2-0.7,0.7v7.4
					C517.9,492.8,518.1,493,518.6,493z"/>
				<path class="st2" d="M525.8,486v-1c0-0.5-0.2-0.7-0.7-0.7h-0.2c-0.4,0-0.7,0.2-0.7,0.7v1.9c0,0.2,0,0.4,0.1,0.4
					c0.1,0.1,0.2,0.2,0.4,0.3l1.5,0.8c0.3,0.2,0.5,0.3,0.7,0.4c0.1,0.1,0.2,0.2,0.3,0.4s0.1,0.4,0.1,0.8v2.4c0,1.3-0.6,1.9-1.9,1.9
					h-0.9c-1.2,0-1.8-0.7-1.8-2.1v-0.6h1.5v0.6c0,0.4,0.2,0.7,0.7,0.7h0.3c0.4,0,0.6-0.2,0.6-0.7v-2c0-0.2,0-0.4-0.1-0.4
					c-0.1-0.1-0.2-0.2-0.4-0.3l-1.5-0.8c-0.3-0.2-0.6-0.3-0.7-0.4s-0.2-0.3-0.3-0.5c-0.1-0.2-0.1-0.4-0.1-0.7v-2.4
					c0-1.3,0.6-2,1.8-2h1c1.2,0,1.8,0.7,1.8,2v1.1H525.8z"/>
				<path class="st2" d="M531.2,494.4v-11.5h2.7c1.4,0,2.2,0.7,2.2,2.2v7.6c0,1.1-0.6,1.7-1.8,1.7H531.2z M532.7,493h1.2
					c0.4,0,0.6-0.2,0.6-0.5v-7.4c0-0.6-0.2-0.8-0.7-0.8h-1.1V493z"/>
				<path class="st2" d="M537.4,494.4v-11.5h3.8v1.4h-2.3v3.5h2v1.4h-2v3.8h2.3v1.4H537.4z"/>
				<path class="st2" d="M541.7,493h1c0.5,0,0.7-0.3,0.7-0.8v-9.3h1.5v9.6c0,1.3-0.6,1.9-1.8,1.9h-1.5V493z"/>
				<path class="st2" d="M547.9,494.4h-1.5v-9.5c0-1.3,0.6-2,1.8-2h1.2c1.2,0,1.8,0.7,1.8,2v9.5h-1.5v-4.2h-1.8V494.4z M549.6,488.8
					V485c0-0.4-0.2-0.7-0.7-0.7h-0.4c-0.4,0-0.7,0.2-0.7,0.7v3.8H549.6z"/>
				<path class="st2" d="M558.2,488.5v-5.6h1.5v11.5h-1.5v-2.3l-1.6-5.2v7.5h-1.5v-11.5h1.5L558.2,488.5z"/>
				<path class="st2" d="M563,494.4c-1.2,0-1.9-0.7-1.9-2v-7.6c0-1.3,0.6-2,1.8-2h1.5c1.2,0,1.8,0.7,1.8,2v7.6c0,1.3-0.6,2-1.9,2
					H563z M563.4,493h0.8c0.4,0,0.6-0.2,0.6-0.7V485c0-0.4-0.2-0.7-0.7-0.7h-0.7c-0.4,0-0.7,0.2-0.7,0.7v7.4
					C562.7,492.8,562.9,493,563.4,493z"/>
				<path class="st2" d="M573.6,494.4h-4.2c-1.2,0-1.9-0.6-1.9-1.9v-7.6c0-1.3,0.6-2,1.8-2h1.5c1.2,0,1.8,0.7,1.8,2v8.1h0.9V494.4z
					 M571.2,493v-8c0-0.4-0.2-0.7-0.7-0.7h-0.7c-0.4,0-0.7,0.2-0.7,0.7v7.4c0,0.4,0.2,0.7,0.7,0.7H571.2z"/>
				<path class="st2" d="M579.3,482.9v9.3c0,1.5-0.6,2.2-1.9,2.2h-1.3c-1.2,0-1.8-0.7-1.8-2.2v-9.3h1.5v9.3c0,0.5,0.2,0.8,0.7,0.8
					h0.6c0.4,0,0.6-0.2,0.6-0.8v-9.3H579.3z"/>
				<path class="st2" d="M580.8,494.4v-11.5h3.8v1.4h-2.3v3.5h2v1.4h-2v3.8h2.3v1.4H580.8z"/>
				<path class="st2" d="M587.1,494.4h-1.5v-9.5c0-1.3,0.6-2,1.8-2h1.2c1.2,0,1.8,0.7,1.8,2v9.5h-1.5v-4.2h-1.8V494.4z M588.9,488.8
					V485c0-0.4-0.2-0.7-0.7-0.7h-0.4c-0.4,0-0.7,0.2-0.7,0.7v3.8H588.9z"/>
				<path class="st2" d="M591.3,489.9v-1.3h3.5v1.3H591.3z"/>
				<path class="st2" d="M364.7,513.6v-11.5h2.7c1.4,0,2.2,0.7,2.2,2.2v7.6c0,1.1-0.6,1.7-1.8,1.7H364.7z M366.3,512.2h1.2
					c0.4,0,0.6-0.2,0.6-0.5v-7.4c0-0.6-0.2-0.8-0.7-0.8h-1.1V512.2z"/>
				<path class="st2" d="M372.7,513.6c-1.2,0-1.9-0.7-1.9-2v-7.6c0-1.3,0.6-2,1.8-2h1.5c1.2,0,1.8,0.7,1.8,2v7.6c0,1.3-0.6,2-1.9,2
					H372.7z M373.1,512.2h0.8c0.4,0,0.6-0.2,0.6-0.7v-7.4c0-0.4-0.2-0.7-0.7-0.7H373c-0.4,0-0.7,0.2-0.7,0.7v7.4
					C372.4,512,372.6,512.2,373.1,512.2z"/>
				<path class="st2" d="M380.3,505.2v-1c0-0.5-0.2-0.7-0.7-0.7h-0.2c-0.4,0-0.7,0.2-0.7,0.7v1.9c0,0.2,0,0.4,0.1,0.4
					c0.1,0.1,0.2,0.2,0.4,0.3l1.5,0.8c0.3,0.2,0.5,0.3,0.7,0.4c0.1,0.1,0.2,0.2,0.3,0.4s0.1,0.4,0.1,0.8v2.4c0,1.3-0.6,1.9-1.9,1.9
					H379c-1.2,0-1.8-0.7-1.8-2.1v-0.6h1.5v0.6c0,0.4,0.2,0.7,0.7,0.7h0.3c0.4,0,0.6-0.2,0.6-0.7v-2c0-0.2,0-0.4-0.1-0.4
					c-0.1-0.1-0.2-0.2-0.4-0.3l-1.5-0.8c-0.3-0.2-0.6-0.3-0.7-0.4c-0.1-0.1-0.2-0.3-0.3-0.5c-0.1-0.2-0.1-0.4-0.1-0.7v-2.4
					c0-1.3,0.6-2,1.8-2h1c1.2,0,1.8,0.7,1.8,2v1.1H380.3z"/>
				<path class="st2" d="M390.3,510.9v0.7c0,1.3-0.6,2-1.8,2h-1c-1.2,0-1.8-0.7-1.8-2v-7.6c0-1.3,0.6-2,1.8-2h1c1.2,0,1.8,0.7,1.8,2
					v1.3h-1.5v-1.2c0-0.4-0.2-0.7-0.7-0.7h-0.3c-0.4,0-0.6,0.2-0.6,0.7v7.4c0,0.4,0.2,0.7,0.6,0.7h0.4c0.4,0,0.6-0.2,0.6-0.7v-0.6
					H390.3z"/>
				<path class="st2" d="M393.2,513.6c-1.2,0-1.9-0.7-1.9-2v-7.6c0-1.3,0.6-2,1.8-2h1.5c1.2,0,1.8,0.7,1.8,2v7.6c0,1.3-0.6,2-1.9,2
					H393.2z M393.6,512.2h0.8c0.4,0,0.6-0.2,0.6-0.7v-7.4c0-0.4-0.2-0.7-0.7-0.7h-0.7c-0.4,0-0.7,0.2-0.7,0.7v7.4
					C392.9,512,393.1,512.2,393.6,512.2z"/>
				<path class="st2" d="M401.1,507.7v-5.6h1.5v11.5h-1.5v-2.3l-1.6-5.2v7.5h-1.5v-11.5h1.5L401.1,507.7z"/>
				<path class="st2" d="M409.1,503.5v10.1h-1.5v-10.1H406v-1.4h4.5v1.4H409.1z"/>
				<path class="st2" d="M412.9,513.6h-1.5v-9.5c0-1.3,0.6-2,1.8-2h1.2c1.2,0,1.8,0.7,1.8,2v9.5h-1.5v-4.2h-1.8V513.6z M414.6,508
					v-3.8c0-0.4-0.2-0.7-0.7-0.7h-0.4c-0.4,0-0.7,0.2-0.7,0.7v3.8H414.6z"/>
				<path class="st2" d="M420.7,507.7v-5.6h1.5v11.5h-1.5v-2.3l-1.6-5.2v7.5h-1.5v-11.5h1.5L420.7,507.7z"/>
				<path class="st2" d="M426.1,503.5v10.1h-1.5v-10.1h-1.5v-1.4h4.5v1.4H426.1z"/>
				<path class="st2" d="M429.9,513.6h-1.5v-9.5c0-1.3,0.6-2,1.8-2h1.2c1.2,0,1.8,0.7,1.8,2v9.5h-1.5v-4.2h-1.8V513.6z M431.7,508
					v-3.8c0-0.4-0.2-0.7-0.7-0.7h-0.4c-0.4,0-0.7,0.2-0.7,0.7v3.8H431.7z"/>
				<path class="st2" d="M441.7,510.9v0.7c0,1.3-0.6,2-1.8,2h-1c-1.2,0-1.8-0.7-1.8-2v-7.6c0-1.3,0.6-2,1.8-2h1c1.2,0,1.8,0.7,1.8,2
					v1.3h-1.5v-1.2c0-0.4-0.2-0.7-0.7-0.7h-0.3c-0.4,0-0.6,0.2-0.6,0.7v7.4c0,0.4,0.2,0.7,0.6,0.7h0.4c0.4,0,0.6-0.2,0.6-0.7v-0.6
					H441.7z"/>
				<path class="st2" d="M444.4,513.6h-1.5v-9.5c0-1.3,0.6-2,1.8-2h1.2c1.2,0,1.8,0.7,1.8,2v9.5h-1.5v-4.2h-1.8V513.6z M446.2,508
					v-3.8c0-0.4-0.2-0.7-0.7-0.7h-0.4c-0.4,0-0.7,0.2-0.7,0.7v3.8H446.2z"/>
				<path class="st2" d="M452.7,513.6h-3.6v-11.5h1.5v10.1h2.1V513.6z"/>
				<path class="st2" d="M453.6,513.6v-11.5h1.5v11.5H453.6z"/>
				<path class="st2" d="M456.6,513.6v-11.5h2.7c1.4,0,2.2,0.7,2.2,2.2v7.6c0,1.1-0.6,1.7-1.8,1.7H456.6z M458.1,512.2h1.2
					c0.4,0,0.6-0.2,0.6-0.5v-7.4c0-0.6-0.2-0.8-0.7-0.8h-1.1V512.2z"/>
				<path class="st2" d="M464.2,513.6h-1.5v-9.5c0-1.3,0.6-2,1.8-2h1.2c1.2,0,1.8,0.7,1.8,2v9.5H466v-4.2h-1.8V513.6z M466,508v-3.8
					c0-0.4-0.2-0.7-0.7-0.7h-0.4c-0.4,0-0.7,0.2-0.7,0.7v3.8H466z"/>
				<path class="st2" d="M468.9,513.6v-11.5h2.7c1.4,0,2.2,0.7,2.2,2.2v7.6c0,1.1-0.6,1.7-1.8,1.7H468.9z M470.4,512.2h1.2
					c0.4,0,0.6-0.2,0.6-0.5v-7.4c0-0.6-0.2-0.8-0.7-0.8h-1.1V512.2z"/>
				<path class="st2" d="M476.4,511.6v2h-1.6v-2H476.4z"/>
				<path class="st2" d="M366.2,552h-1.5v-9.5c0-1.3,0.6-2,1.8-2h1.2c1.2,0,1.8,0.7,1.8,2v9.5h-1.5v-4.2h-1.8V552z M367.9,546.4
					v-3.8c0-0.4-0.2-0.7-0.7-0.7h-0.4c-0.4,0-0.7,0.2-0.7,0.7v3.8H367.9z"/>
				<path class="st2" d="M370.8,540.5h3c1.2,0,1.8,0.7,1.8,2v2.8c0,1-0.3,1.6-0.9,1.9l1.1,4.8h-1.5l-1-4.6h-0.9v4.6h-1.5V540.5z
					 M372.4,546h1c0.5,0,0.7-0.3,0.7-0.8v-2.5c0-0.6-0.2-0.8-0.7-0.8h-1V546z"/>
				<path class="st2" d="M380,547.3l1.4-6.8h1.7V552h-1.5l0.2-7.5l-1.2,5.4h-1.2l-1.2-5.4l0.2,7.5h-1.5v-11.5h1.7L380,547.3z"/>
				<path class="st2" d="M386,552h-1.5v-9.5c0-1.3,0.6-2,1.8-2h1.2c1.2,0,1.8,0.7,1.8,2v9.5h-1.5v-4.2H386V552z M387.8,546.4v-3.8
					c0-0.4-0.2-0.7-0.7-0.7h-0.4c-0.4,0-0.7,0.2-0.7,0.7v3.8H387.8z"/>
				<path class="st2" d="M393.6,543.6v-1c0-0.5-0.2-0.7-0.7-0.7h-0.2c-0.4,0-0.7,0.2-0.7,0.7v1.9c0,0.2,0,0.4,0.1,0.4
					c0.1,0.1,0.2,0.2,0.4,0.3l1.5,0.8c0.3,0.2,0.5,0.3,0.7,0.4c0.1,0.1,0.2,0.2,0.3,0.4c0.1,0.1,0.1,0.4,0.1,0.8v2.4
					c0,1.3-0.6,1.9-1.9,1.9h-0.9c-1.2,0-1.8-0.7-1.8-2.1v-0.6h1.5v0.6c0,0.4,0.2,0.7,0.7,0.7h0.3c0.4,0,0.6-0.2,0.6-0.7v-2
					c0-0.2,0-0.4-0.1-0.4c-0.1-0.1-0.2-0.2-0.4-0.3l-1.5-0.8c-0.3-0.2-0.6-0.3-0.7-0.4c-0.1-0.1-0.2-0.3-0.3-0.5s-0.1-0.4-0.1-0.7
					v-2.4c0-1.3,0.6-2,1.8-2h1c1.2,0,1.8,0.7,1.8,2v1.1H393.6z"/>
				<path class="st2" d="M397.8,543.8v2h-1.6v-2H397.8z M397.8,550v2h-1.6v-2H397.8z"/>
				<path class="st2" d="M405.1,546.1c0.8,0.2,1.3,0.7,1.3,1.3v2.9c0,1.1-0.6,1.7-1.7,1.7h-3.1v-11.5h2.6c1.4,0,2,0.7,2,2.1v2.2
					C406.2,545.5,405.9,545.9,405.1,546.1L405.1,546.1z M403.1,545.4h0.7c0.6,0,0.9-0.3,0.9-0.8v-1.8c0-0.6-0.2-0.8-0.7-0.8h-0.9
					V545.4z M403.1,550.6h1.2c0.4,0,0.6-0.2,0.6-0.5v-2.5c0-0.5-0.3-0.8-0.9-0.8h-0.8V550.6z"/>
				<path class="st2" d="M411.3,552h-3.6v-11.5h1.5v10.1h2.1V552z"/>
				<path class="st2" d="M414,552c-1.2,0-1.9-0.7-1.9-2v-7.6c0-1.3,0.6-2,1.8-2h1.5c1.2,0,1.8,0.7,1.8,2v7.6c0,1.3-0.6,2-1.9,2H414z
					 M414.3,550.6h0.8c0.4,0,0.6-0.2,0.6-0.7v-7.4c0-0.4-0.2-0.7-0.7-0.7h-0.7c-0.4,0-0.7,0.2-0.7,0.7v7.4
					C413.6,550.4,413.9,550.6,414.3,550.6z"/>
				<path class="st2" d="M421,547.8v-1.4h2.3v5.6h-3c-1.2,0-1.8-0.6-1.8-1.9v-7.6c0-1.3,0.6-2,1.8-2h1.1c1.3,0,2,0.7,2,2v1.2h-1.5
					v-1c0-0.6-0.2-0.8-0.7-0.8h-0.4c-0.4,0-0.7,0.3-0.7,0.8v7c0,0.6,0.2,0.8,0.7,0.8h1v-2.8H421z"/>
				<path class="st2" d="M424.4,553.9l0.7-1.9h-0.8v-2h1.7v2l-0.8,1.9H424.4z"/>
				<path class="st2" d="M433.4,546.1c0.8,0.2,1.3,0.7,1.3,1.3v2.9c0,1.1-0.6,1.7-1.7,1.7h-3.1v-11.5h2.6c1.4,0,2,0.7,2,2.1v2.2
					C434.5,545.5,434.1,545.9,433.4,546.1L433.4,546.1z M431.3,545.4h0.7c0.6,0,0.9-0.3,0.9-0.8v-1.8c0-0.6-0.2-0.8-0.7-0.8h-0.9
					V545.4z M431.3,550.6h1.2c0.4,0,0.6-0.2,0.6-0.5v-2.5c0-0.5-0.3-0.8-0.9-0.8h-0.8V550.6z"/>
				<path class="st2" d="M440.9,540.5v9.3c0,1.5-0.6,2.2-1.9,2.2h-1.3c-1.2,0-1.8-0.7-1.8-2.2v-9.3h1.5v9.3c0,0.5,0.2,0.8,0.7,0.8
					h0.6c0.4,0,0.6-0.3,0.6-0.8v-9.3H440.9z"/>
				<path class="st2" d="M442.3,552v-11.5h3.8v1.4h-2.3v3.5h2v1.4h-2v3.8h2.3v1.4H442.3z"/>
				<path class="st2" d="M450.4,546.1v-5.6h1.5V552h-1.5v-2.3l-1.6-5.2v7.5h-1.5v-11.5h1.5L450.4,546.1z"/>
				<path class="st2" d="M455.2,552c-1.2,0-1.9-0.7-1.9-2v-7.6c0-1.3,0.6-2,1.8-2h1.5c1.2,0,1.8,0.7,1.8,2v7.6c0,1.3-0.6,2-1.9,2
					H455.2z M455.6,550.6h0.8c0.4,0,0.6-0.2,0.6-0.7v-7.4c0-0.4-0.2-0.7-0.7-0.7h-0.7c-0.4,0-0.7,0.2-0.7,0.7v7.4
					C454.9,550.4,455.1,550.6,455.6,550.6z"/>
				<path class="st2" d="M462.8,543.6v-1c0-0.5-0.2-0.7-0.7-0.7h-0.2c-0.4,0-0.7,0.2-0.7,0.7v1.9c0,0.2,0,0.4,0.1,0.4
					c0.1,0.1,0.2,0.2,0.4,0.3l1.5,0.8c0.3,0.2,0.5,0.3,0.7,0.4c0.1,0.1,0.2,0.2,0.3,0.4c0.1,0.1,0.1,0.4,0.1,0.8v2.4
					c0,1.3-0.6,1.9-1.9,1.9h-0.9c-1.2,0-1.8-0.7-1.8-2.1v-0.6h1.5v0.6c0,0.4,0.2,0.7,0.7,0.7h0.3c0.4,0,0.6-0.2,0.6-0.7v-2
					c0-0.2,0-0.4-0.1-0.4c-0.1-0.1-0.2-0.2-0.4-0.3l-1.5-0.8c-0.3-0.2-0.6-0.3-0.7-0.4c-0.1-0.1-0.2-0.3-0.3-0.5
					c-0.1-0.2-0.1-0.4-0.1-0.7v-2.4c0-1.3,0.6-2,1.8-2h1c1.2,0,1.8,0.7,1.8,2v1.1H462.8z"/>
				<path class="st2" d="M470.6,541.9V552h-1.5v-10.1h-1.5v-1.4h4.5v1.4H470.6z"/>
				<path class="st2" d="M473.8,539.8h-1.1l0.7-1.9h1.4L473.8,539.8z M473,552v-11.5h1.5V552H473z"/>
				<path class="st2" d="M478.4,541.9V552h-1.5v-10.1h-1.5v-1.4h4.5v1.4H478.4z"/>
				<path class="st2" d="M485.7,540.5v9.3c0,1.5-0.6,2.2-1.9,2.2h-1.3c-1.2,0-1.8-0.7-1.8-2.2v-9.3h1.5v9.3c0,0.5,0.2,0.8,0.7,0.8
					h0.6c0.4,0,0.6-0.3,0.6-0.8v-9.3H485.7z"/>
				<path class="st2" d="M490.8,552h-3.6v-11.5h1.5v10.1h2.1V552z"/>
				<path class="st2" d="M493.5,552c-1.2,0-1.9-0.7-1.9-2v-7.6c0-1.3,0.6-2,1.8-2h1.5c1.2,0,1.8,0.7,1.8,2v7.6c0,1.3-0.6,2-1.9,2
					H493.5z M493.9,550.6h0.8c0.4,0,0.6-0.2,0.6-0.7v-7.4c0-0.4-0.2-0.7-0.7-0.7h-0.7c-0.4,0-0.7,0.2-0.7,0.7v7.4
					C493.2,550.4,493.4,550.6,493.9,550.6z"/>
				<path class="st2" d="M501.1,543.6v-1c0-0.5-0.2-0.7-0.7-0.7h-0.2c-0.4,0-0.7,0.2-0.7,0.7v1.9c0,0.2,0,0.4,0.1,0.4
					c0.1,0.1,0.2,0.2,0.4,0.3l1.5,0.8c0.3,0.2,0.5,0.3,0.7,0.4c0.1,0.1,0.2,0.2,0.3,0.4c0.1,0.1,0.1,0.4,0.1,0.8v2.4
					c0,1.3-0.6,1.9-1.9,1.9h-0.9c-1.2,0-1.8-0.7-1.8-2.1v-0.6h1.5v0.6c0,0.4,0.2,0.7,0.7,0.7h0.3c0.4,0,0.6-0.2,0.6-0.7v-2
					c0-0.2,0-0.4-0.1-0.4s-0.2-0.2-0.4-0.3l-1.5-0.8c-0.3-0.2-0.6-0.3-0.7-0.4s-0.2-0.3-0.3-0.5s-0.1-0.4-0.1-0.7v-2.4
					c0-1.3,0.6-2,1.8-2h1c1.2,0,1.8,0.7,1.8,2v1.1H501.1z"/>
				<path class="st2" d="M503.5,553.9l0.7-1.9h-0.8v-2h1.7v2l-0.8,1.9H503.5z"/>
				<path class="st2" d="M512.5,546.1c0.8,0.2,1.3,0.7,1.3,1.3v2.9c0,1.1-0.6,1.7-1.7,1.7H509v-11.5h2.6c1.4,0,2,0.7,2,2.1v2.2
					C513.6,545.5,513.3,545.9,512.5,546.1L512.5,546.1z M510.5,545.4h0.7c0.6,0,0.9-0.3,0.9-0.8v-1.8c0-0.6-0.2-0.8-0.7-0.8h-0.9
					V545.4z M510.5,550.6h1.2c0.4,0,0.6-0.2,0.6-0.5v-2.5c0-0.5-0.3-0.8-0.9-0.8h-0.8V550.6z"/>
				<path class="st2" d="M520.1,540.5v9.3c0,1.5-0.6,2.2-1.9,2.2h-1.3c-1.2,0-1.8-0.7-1.8-2.2v-9.3h1.5v9.3c0,0.5,0.2,0.8,0.7,0.8
					h0.6c0.4,0,0.6-0.3,0.6-0.8v-9.3H520.1z"/>
				<path class="st2" d="M521.5,552v-11.5h3.8v1.4h-2.3v3.5h2v1.4h-2v3.8h2.3v1.4H521.5z"/>
				<path class="st2" d="M529.6,546.1v-5.6h1.5V552h-1.5v-2.3l-1.6-5.2v7.5h-1.5v-11.5h1.5L529.6,546.1z"/>
				<path class="st2" d="M534.4,552c-1.2,0-1.9-0.7-1.9-2v-7.6c0-1.3,0.6-2,1.8-2h1.5c1.2,0,1.8,0.7,1.8,2v7.6c0,1.3-0.6,2-1.9,2
					H534.4z M534.7,550.6h0.8c0.4,0,0.6-0.2,0.6-0.7v-7.4c0-0.4-0.2-0.7-0.7-0.7h-0.7c-0.4,0-0.7,0.2-0.7,0.7v7.4
					C534,550.4,534.3,550.6,534.7,550.6z"/>
				<path class="st2" d="M542,543.6v-1c0-0.5-0.2-0.7-0.7-0.7h-0.2c-0.4,0-0.7,0.2-0.7,0.7v1.9c0,0.2,0,0.4,0.1,0.4
					c0.1,0.1,0.2,0.2,0.4,0.3l1.5,0.8c0.3,0.2,0.5,0.3,0.7,0.4c0.1,0.1,0.2,0.2,0.3,0.4c0.1,0.1,0.1,0.4,0.1,0.8v2.4
					c0,1.3-0.6,1.9-1.9,1.9h-0.9c-1.2,0-1.8-0.7-1.8-2.1v-0.6h1.5v0.6c0,0.4,0.2,0.7,0.7,0.7h0.3c0.4,0,0.6-0.2,0.6-0.7v-2
					c0-0.2,0-0.4-0.1-0.4s-0.2-0.2-0.4-0.3l-1.5-0.8c-0.3-0.2-0.6-0.3-0.7-0.4s-0.2-0.3-0.3-0.5s-0.1-0.4-0.1-0.7v-2.4
					c0-1.3,0.6-2,1.8-2h1c1.2,0,1.8,0.7,1.8,2v1.1H542z"/>
				<path class="st2" d="M549.8,541.9V552h-1.5v-10.1h-1.5v-1.4h4.5v1.4H549.8z"/>
				<path class="st2" d="M552.1,552v-11.5h3.8v1.4h-2.3v3.5h2v1.4h-2v3.8h2.3v1.4H552.1z"/>
				<path class="st2" d="M561.4,552h-1.5l-0.9-4.4h0l-1,4.4h-1.4l1.5-5.8l-1.4-5.7h1.5l0.9,4.2h0l1-4.2h1.4l-1.4,5.7L561.4,552z"/>
				<path class="st2" d="M564.8,541.9V552h-1.5v-10.1h-1.5v-1.4h4.5v1.4H564.8z"/>
				<path class="st2" d="M569,552c-1.2,0-1.9-0.7-1.9-2v-7.6c0-1.3,0.6-2,1.8-2h1.5c1.2,0,1.8,0.7,1.8,2v7.6c0,1.3-0.6,2-1.9,2H569z
					 M569.3,550.6h0.8c0.4,0,0.6-0.2,0.6-0.7v-7.4c0-0.4-0.2-0.7-0.7-0.7h-0.7c-0.4,0-0.7,0.2-0.7,0.7v7.4
					C568.6,550.4,568.9,550.6,569.3,550.6z"/>
				<path class="st2" d="M576.6,543.6v-1c0-0.5-0.2-0.7-0.7-0.7h-0.2c-0.4,0-0.7,0.2-0.7,0.7v1.9c0,0.2,0,0.4,0.1,0.4
					c0.1,0.1,0.2,0.2,0.4,0.3l1.5,0.8c0.3,0.2,0.5,0.3,0.7,0.4c0.1,0.1,0.2,0.2,0.3,0.4c0.1,0.1,0.1,0.4,0.1,0.8v2.4
					c0,1.3-0.6,1.9-1.9,1.9h-0.9c-1.2,0-1.8-0.7-1.8-2.1v-0.6h1.5v0.6c0,0.4,0.2,0.7,0.7,0.7h0.3c0.4,0,0.6-0.2,0.6-0.7v-2
					c0-0.2,0-0.4-0.1-0.4c-0.1-0.1-0.2-0.2-0.4-0.3l-1.5-0.8c-0.3-0.2-0.6-0.3-0.7-0.4c-0.1-0.1-0.2-0.3-0.3-0.5
					c-0.1-0.2-0.1-0.4-0.1-0.7v-2.4c0-1.3,0.6-2,1.8-2h1c1.2,0,1.8,0.7,1.8,2v1.1H576.6z"/>
				<path class="st2" d="M581.9,552v-11.5h3.8v1.4h-2.3v3.5h2v1.4h-2v3.8h2.3v1.4H581.9z"/>
				<path class="st2" d="M364.7,571.2v-11.5h1.5v11.5H364.7z"/>
				<path class="st2" d="M370.8,566.5l1.4-6.8h1.7v11.5h-1.5l0.2-7.5l-1.2,5.4h-1.2l-1.2-5.4l0.2,7.5h-1.5v-11.5h1.7L370.8,566.5z"
					/>
				<path class="st2" d="M376.8,571.2h-1.5v-9.5c0-1.3,0.6-2,1.8-2h1.2c1.2,0,1.8,0.7,1.8,2v9.5h-1.5V567h-1.8V571.2z M377.7,559
					h-1.1l0.7-1.9h1.4L377.7,559z M378.6,565.6v-3.8c0-0.4-0.2-0.7-0.7-0.7h-0.4c-0.4,0-0.7,0.2-0.7,0.7v3.8H378.6z"/>
				<path class="st2" d="M383.9,567v-1.4h2.3v5.6h-3c-1.2,0-1.8-0.6-1.8-1.9v-7.6c0-1.3,0.6-2,1.8-2h1.1c1.3,0,2,0.7,2,2v1.2h-1.5
					v-1c0-0.6-0.2-0.8-0.7-0.8h-0.4c-0.4,0-0.7,0.3-0.7,0.8v7c0,0.6,0.2,0.8,0.7,0.8h1V567H383.9z"/>
				<path class="st2" d="M387.4,571.2v-11.5h3.8v1.4H389v3.5h2v1.4h-2v3.8h2.3v1.4H387.4z"/>
				<path class="st2" d="M395.5,565.3v-5.6h1.5v11.5h-1.5v-2.3l-1.6-5.2v7.5h-1.5v-11.5h1.5L395.5,565.3z"/>
				<path class="st2" d="M398.5,571.2v-11.5h3.8v1.4H400v3.5h2v1.4h-2v3.8h2.3v1.4H398.5z"/>
				<path class="st2" d="M406.4,562.8v-1c0-0.5-0.2-0.7-0.7-0.7h-0.2c-0.4,0-0.7,0.2-0.7,0.7v1.9c0,0.2,0,0.4,0.1,0.4
					c0.1,0.1,0.2,0.2,0.4,0.3l1.5,0.8c0.3,0.2,0.5,0.3,0.7,0.4c0.1,0.1,0.2,0.2,0.3,0.4c0.1,0.1,0.1,0.4,0.1,0.8v2.4
					c0,1.3-0.6,1.9-1.9,1.9h-0.9c-1.2,0-1.8-0.7-1.8-2.1v-0.6h1.5v0.6c0,0.4,0.2,0.7,0.7,0.7h0.3c0.4,0,0.6-0.2,0.6-0.7v-2
					c0-0.2,0-0.4-0.1-0.4c-0.1-0.1-0.2-0.2-0.4-0.3l-1.5-0.8c-0.3-0.2-0.6-0.3-0.7-0.4s-0.2-0.3-0.3-0.5s-0.1-0.4-0.1-0.7v-2.4
					c0-1.3,0.6-2,1.8-2h1c1.2,0,1.8,0.7,1.8,2v1.1H406.4z"/>
				<path class="st2" d="M364.7,590.4v-11.5h3.8v1.4h-2.3v3.5h2v1.4h-2v3.8h2.3v1.4H364.7z"/>
				<path class="st2" d="M372.8,584.5v-5.6h1.5v11.5h-1.5v-2.3l-1.6-5.2v7.5h-1.5v-11.5h1.5L372.8,584.5z"/>
				<path class="st2" d="M375.8,590.4v-11.5h3.8v1.4h-2.3v3.5h2v1.4h-2v3.8h2.3v1.4H375.8z"/>
				<path class="st2" d="M383.8,585.7l1.4-6.8h1.7v11.5h-1.5l0.2-7.5l-1.2,5.4h-1.2l-1.2-5.4l0.2,7.5h-1.5v-11.5h1.7L383.8,585.7z"
					/>
				<path class="st2" d="M388.4,590.4v-11.5h1.5v11.5H388.4z"/>
				<path class="st2" d="M393.7,586.2v-1.4h2.3v5.6h-3c-1.2,0-1.8-0.6-1.8-1.9v-7.6c0-1.3,0.6-2,1.8-2h1.1c1.3,0,2,0.7,2,2v1.2h-1.5
					v-1c0-0.6-0.2-0.8-0.7-0.8h-0.4c-0.4,0-0.7,0.3-0.7,0.8v7c0,0.6,0.2,0.8,0.7,0.8h1v-2.8H393.7z"/>
				<path class="st2" d="M399.1,590.4c-1.2,0-1.9-0.7-1.9-2v-7.6c0-1.3,0.6-2,1.8-2h1.5c1.2,0,1.8,0.7,1.8,2v7.6c0,1.3-0.6,2-1.9,2
					H399.1z M399.5,589h0.8c0.4,0,0.6-0.2,0.6-0.7V581c0-0.4-0.2-0.7-0.7-0.7h-0.7c-0.4,0-0.7,0.2-0.7,0.7v7.4
					C398.8,588.8,399,589,399.5,589z"/>
				<path class="st2" d="M406.7,582v-1c0-0.5-0.2-0.7-0.7-0.7h-0.2c-0.4,0-0.7,0.2-0.7,0.7v1.9c0,0.2,0,0.4,0.1,0.4
					c0.1,0.1,0.2,0.2,0.4,0.3l1.5,0.8c0.3,0.2,0.5,0.3,0.7,0.4c0.1,0.1,0.2,0.2,0.3,0.4s0.1,0.4,0.1,0.8v2.4c0,1.3-0.6,1.9-1.9,1.9
					h-0.9c-1.2,0-1.8-0.7-1.8-2.1v-0.6h1.5v0.6c0,0.4,0.2,0.7,0.7,0.7h0.3c0.4,0,0.6-0.2,0.6-0.7v-2c0-0.2,0-0.4-0.1-0.4
					c-0.1-0.1-0.2-0.2-0.4-0.3l-1.5-0.8c-0.3-0.2-0.6-0.3-0.7-0.4s-0.2-0.3-0.3-0.5c-0.1-0.2-0.1-0.4-0.1-0.7v-2.4
					c0-1.3,0.6-2,1.8-2h1c1.2,0,1.8,0.7,1.8,2v1.1H406.7z"/>
				<path class="st2" d="M410.9,582.2v2h-1.6v-2H410.9z M410.9,588.4v2h-1.6v-2H410.9z"/>
				<path class="st2" d="M419.2,587.7v0.7c0,1.3-0.6,2-1.8,2h-1c-1.2,0-1.8-0.7-1.8-2v-7.6c0-1.3,0.6-2,1.8-2h1c1.2,0,1.8,0.7,1.8,2
					v1.3h-1.5V581c0-0.4-0.2-0.7-0.7-0.7h-0.3c-0.4,0-0.6,0.2-0.6,0.7v7.4c0,0.4,0.2,0.7,0.6,0.7h0.4c0.4,0,0.6-0.2,0.6-0.7v-0.6
					H419.2z"/>
				<path class="st2" d="M422.2,590.4c-1.2,0-1.9-0.7-1.9-2v-7.6c0-1.3,0.6-2,1.8-2h1.5c1.2,0,1.8,0.7,1.8,2v7.6c0,1.3-0.6,2-1.9,2
					H422.2z M422.6,589h0.8c0.4,0,0.6-0.2,0.6-0.7V581c0-0.4-0.2-0.7-0.7-0.7h-0.7c-0.4,0-0.7,0.2-0.7,0.7v7.4
					C421.9,588.8,422.1,589,422.6,589z"/>
				<path class="st2" d="M426.8,578.9h2.8c1.2,0,1.9,0.7,1.9,2v3.4c0,1.3-0.6,2-1.8,2h-1.3v4.2h-1.5V578.9z M428.4,584.8h1
					c0.4,0,0.6-0.2,0.6-0.7V581c0-0.4-0.2-0.7-0.7-0.7h-0.9V584.8z"/>
				<path class="st2" d="M435.3,590.4h-1.5v-4.2l-1.9-7.3h1.5l1.2,5h0l1-5h1.5l-1.9,7.3V590.4z"/>
				<path class="st2" d="M441.7,584.5c-0.7-0.2-1-0.6-1-1.2v-2.4c0-1.3,0.6-2,1.8-2h0.6c1.2,0,1.8,0.7,1.8,2v1h-1.4v-1
					c0-0.4-0.2-0.7-0.7-0.7h-0.2c-0.4,0.1-0.5,0.3-0.5,0.7v2.3c0,0.6,0.2,0.8,0.7,0.8h2.8v1.1H445v3.3c0,1.3-0.6,2-1.9,2h-0.8
					c-1.2,0-1.9-0.7-1.9-2v-2.6C440.5,585.1,440.9,584.7,441.7,584.5z M443.5,585.1h-0.7c-0.6,0-0.9,0.3-0.9,0.8v2.5
					c0,0.4,0.2,0.7,0.7,0.7h0.3c0.4,0,0.6-0.2,0.6-0.7V585.1z"/>
				<path class="st2" d="M449.1,578.9h2.8c1.2,0,1.9,0.7,1.9,2v3.4c0,1.3-0.6,2-1.8,2h-1.3v4.2h-1.5V578.9z M450.6,584.8h1
					c0.4,0,0.6-0.2,0.6-0.7V581c0-0.4-0.2-0.7-0.7-0.7h-0.9V584.8z"/>
				<path class="st2" d="M456.4,590.4h-1.5v-9.5c0-1.3,0.6-2,1.8-2h1.2c1.2,0,1.8,0.7,1.8,2v9.5h-1.5v-4.2h-1.8V590.4z M458.2,584.8
					V581c0-0.4-0.2-0.7-0.7-0.7h-0.4c-0.4,0-0.7,0.2-0.7,0.7v3.8H458.2z"/>
				<path class="st2" d="M464,582v-1c0-0.5-0.2-0.7-0.7-0.7h-0.2c-0.4,0-0.7,0.2-0.7,0.7v1.9c0,0.2,0,0.4,0.1,0.4
					c0.1,0.1,0.2,0.2,0.4,0.3l1.5,0.8c0.3,0.2,0.5,0.3,0.7,0.4c0.1,0.1,0.2,0.2,0.3,0.4s0.1,0.4,0.1,0.8v2.4c0,1.3-0.6,1.9-1.9,1.9
					h-0.9c-1.2,0-1.8-0.7-1.8-2.1v-0.6h1.5v0.6c0,0.4,0.2,0.7,0.7,0.7h0.3c0.4,0,0.6-0.2,0.6-0.7v-2c0-0.2,0-0.4-0.1-0.4
					c-0.1-0.1-0.2-0.2-0.4-0.3l-1.5-0.8c-0.3-0.2-0.6-0.3-0.7-0.4c-0.1-0.1-0.2-0.3-0.3-0.5c-0.1-0.2-0.1-0.4-0.1-0.7v-2.4
					c0-1.3,0.6-2,1.8-2h1c1.2,0,1.8,0.7,1.8,2v1.1H464z"/>
				<path class="st2" d="M469.3,580.3v10.1h-1.5v-10.1h-1.5v-1.4h4.5v1.4H469.3z"/>
				<path class="st2" d="M471.6,590.4v-11.5h3.8v1.4h-2.3v3.5h2v1.4h-2v3.8h2.3v1.4H471.6z"/>
			</g>
			<g>
				<defs>
					<rect id="SVGID_00000127736326299135521170000010766543326761102480_" x="-41" y="382.4" width="428" height="355.6"/>
				</defs>
				<clipPath id="SVGID_00000046328308655296113030000013287981037525517223_">
					<use xlink:href="#SVGID_00000127736326299135521170000010766543326761102480_"  style="overflow:visible;"/>
				</clipPath>
				<g style="clip-path:url(#SVGID_00000046328308655296113030000013287981037525517223_);">
					<g>
						<path class="st18" d="M290.4,791.5c0,0,7.8,80.1,10,89.3c1.1,4.7,4.1,8,9.2,13.7c-9.3,2.4-18.5,4.4-27.6,6.3l-49.5-95.4
							L290.4,791.5z"/>
					</g>
					<g>
						<path class="st18" d="M165.5,790.5l51.5,3.7c0,0-50.6,55.1-54.5,75.6c-1.5,7.8-3.4,19.1-7.2,32.2c-15.7,2.8-31.6,4.4-47.3,4.4
							C129.4,867,151,824.7,165.5,790.5z"/>
					</g>
					<g>
						<path class="st37" d="M256.1,560.3c0,0,27.4,65.7,31.7,82.1c0,0-31.5-1.6-59-11.5c-27.4-9.8-28.1-12.6-28.1-12.6L256.1,560.3z
							"/>
					</g>
					<g>
						<path class="st38" d="M202,549c0,0-25.2-0.8-28.1,0.7c-2.8,1.6-7.2,4.8-13.2,5.8c-11.2,2-42.8,12.2-42.8,12.2l-46.8-38.4
							L70,547.9l30.7,43.3l83.2,22.7c0,0,18.2,30.9,12.3,56.1l45.7,4.2c0,0-10.8-17.7-7.9-27.6c2.8-9.9,30.3-69.9,30.3-69.9
							l-17.2-22L202,549z"/>
					</g>
					<g>
						<path class="st21" d="M219.1,516.4c0,0-14.4,33.4-18.3,33.5c-3.9,0.2-9.4-1.5-9.4-1.5s12.3,20.7,23.4,22.9
							c11.1,2.2,15.9,1.1,15.9,1.1l19.8-70.2L219.1,516.4z"/>
					</g>
					<g>
						<path class="st21" d="M256.6,492c0,0,5.3-4.2,10-1.9s3.6,8.6-3.2,13.5c-6.9,4.8-10.7,5.5-14.3,1.3c0,0-21.7,19.5-36.4,15
							s-15.5-30.6-15.3-31.8l-3.3-1.3c0,0,1.1-1.4,1.6-2.3c0.5-0.9,1.9-5.4,1.9-5.4s-3.1-7.1-1-11.9l8.8,4.2c0,0,4.5,1.1,5.7-0.4
							c1.2-1.5,9.2-15.3,11.7-17.7c2.5-2.4,6.8-4.7,12.4-5.5c5.6-0.7,15.1-4.1,33.6,8.1L256.6,492z"/>
					</g>
					<g class="st23">
						<path class="st24" d="M205.7,471.4c0,0,0.1,3.6-0.1,4.8c-0.2,1.3-0.9,2-2.8,2.4c-1.9,0.4-5.2,0.4-5.2,0.4s-1.7-4-1.7-7.7
							c0-3.7,0.7-4.1,0.7-4.1L205.7,471.4z"/>
					</g>
					<g>
						<path class="st18" d="M209.8,488c0,0-13.8-4-14-3.5c-0.3,0.5-2.6,1.2-1.6,2.3c1,1.1,3.8,2.4,3.8,2.4L209.8,488z"/>
					</g>
					<g>
						<path class="st25" d="M199.3,477.5c0,0,1.7-1.1,2.9-0.6c1.3,0.5,1.1,0.7,1.1,0.7s-1.7-0.3-2.5-0.2
							C200.2,477.6,199.3,477.5,199.3,477.5z"/>
					</g>
					<g>
						<path class="st26" d="M249.1,504.9c0,0,1.8,3.6,6.6,2.7c4.9-1,10.8-5.9,12.8-8.3c2-2.4,1.9-7.5-2.3-9.3
							c-4.2-1.8-8.5,0.6-10.3,3.2S249.1,504.9,249.1,504.9z"/>
					</g>
					<g>
						<path class="st25" d="M255,499.1c0,0,4.7-5.6,9.6-3.6C264.6,495.5,257.8,496.4,255,499.1z"/>
					</g>
					<g>
						<path class="st18" d="M240.3,476.9c0,0-13.3,11.1-19,10.4c-5.7-0.7-10.1-13.1-10.1-13.1l-2.8-2.3c0,0,2.4-0.3,2.8-0.9
							c0.4-0.6,4.8-7.6,4.8-7.6s14.3-0.5,23.7,3.6c9.4,4.1,6.9,2.7,6.9,2.7L240.3,476.9z"/>
					</g>
					<g>
						<path class="st2" d="M217.5,474.6l13.5,0.6c0,0,0-5.6-4.9-6.7C221.4,467.4,218,473.4,217.5,474.6z"/>
					</g>
					<g>
						<path d="M220.7,470.3c0,0,2.2-1,3.1,0.2s-2.1,4-2.7,4.3l-3.5-0.1C217.5,474.6,218.7,471.6,220.7,470.3z"/>
					</g>
					<g>
						<path d="M232.9,466.9c0,0-3.6-2.8-6.8-2.4c-3.2,0.4-5.4,1.1-5.4,1.1s3.3-3.4,5.9-3C229.2,462.9,232.2,465.8,232.9,466.9z"/>
					</g>
					<g>
						<path d="M217.5,474.6c0,0,2.1-5.7,5.4-7.1c3.3-1.4,6.4,1.2,7.8,3.6c1.5,2.4,1.2,3.9,1.2,3.9l2.4,0.1l-3.3,0.4
							c0,0-0.9-4.6-3.5-6.3c-2.6-1.7-5.3-0.3-6.3,0.8C220,471,217.5,474.6,217.5,474.6z"/>
					</g>
					<g>
						<path class="st28" d="M235.3,447.8c0,0-5.7,16.7,1,27.5c6.7,10.8,20.8,18.3,20.8,18.3s7-5.1,10.3-3c3.3,2.1,3,7.2-1.4,10.8
							c-4.5,3.6-10.2,7.6-12.7,6.4c-2.5-1.2-4.2-3-4.2-3l-52.3,120.5l14.7-5c0,0,45.1,0.5,45.5-13.4c1.2-37.7,70-37.6,50.4-43.3
							c-27.9-8.1-31.2-43.2-17.9-39.6c31.6,8.7,63.7-46,63.7-46s-34.6-32.6-64.1-46.9C275.3,424.6,240.3,424.1,235.3,447.8z"/>
					</g>
					<g>
						<path d="M257.2,493.6c0,0-7.4-0.4-15.3-6.1c-7.9-5.8-11-27-6.5-39.7c0,0-11.4,26.6,5.5,41.9
							C240.8,489.7,253,494.3,257.2,493.6z"/>
					</g>
					<g>
						<path class="st19" d="M167.9,594.3c-0.3,0.5,5.3-32.7,5.3-32.7S174.6,581.1,167.9,594.3z"/>
					</g>
					<g>
						<path class="st13" d="M82.3,534.2c-0.2,0.4-10.4,20.2-10.4,20.2l-33.6-45.6l3.7-14l6.2,8.2l2.8-7.6l7.8,8.1l-2.9,7.6
							L82.3,534.2z"/>
					</g>
					<g>
						<polygon class="st17" points="197.1,655 191.4,688.2 256.7,683.2 234.3,656.5 						"/>
					</g>
					<g>
						<path class="st20" d="M191.4,688.2l-40.7,112.6c0,0,91.2,16.7,139.7-9.3c0,0-10.8-75.4-15.5-84.2c-4.7-8.8-18.3-24-18.3-24
							L191.4,688.2z"/>
					</g>
					<g>
						<polygon class="st19" points="234.3,656.5 197.1,655 196.2,660.3 237.5,660.3 						"/>
					</g>
					<g>
						<path class="st19" d="M271.1,743c0,0-30.4,30.1-62.4,34.7C208.7,777.7,247.1,762.9,271.1,743z"/>
					</g>
					<g>
						<path class="st19" d="M224.8,633l-19.5-17.1C205.3,615.9,218.4,636,224.8,633z"/>
					</g>
					<g>
						<polygon class="st19" points="81.8,538.6 73.4,551.3 80.3,549.6 						"/>
					</g>
				</g>
			</g>
			<g>
				<rect x="-1" y="736" class="st39" width="639" height="58"/>
			</g>
			<g>
				<path class="st2" d="M179.1,761.7c0.8,0.2,1.3,0.7,1.3,1.3v2.9c0,1.1-0.6,1.7-1.7,1.7h-3.1v-11.5h2.6c1.4,0,2,0.7,2,2.1v2.2
					C180.2,761.1,179.9,761.5,179.1,761.7L179.1,761.7z M177.1,761h0.7c0.6,0,0.9-0.3,0.9-0.8v-1.8c0-0.6-0.2-0.8-0.7-0.8h-0.9V761z
					 M177.1,766.2h1.2c0.4,0,0.6-0.2,0.6-0.5v-2.5c0-0.5-0.3-0.8-0.9-0.8h-0.8V766.2z"/>
				<path class="st2" d="M184.2,767.6h-1.5v-4.2l-1.9-7.3h1.5l1.2,5h0l1-5h1.5l-1.9,7.3V767.6z"/>
				<path class="st2" d="M189.5,767.6v-11.5h1.5v11.5H189.5z"/>
				<path class="st2" d="M197.5,756.1l-1.9,11.5h-1.8l-1.9-11.5h1.5l1.2,8.8l1.2-8.8H197.5z"/>
				<path class="st2" d="M199.6,767.6h-1.5v-9.5c0-1.3,0.6-2,1.8-2h1.2c1.2,0,1.8,0.7,1.8,2v9.5h-1.5v-4.2h-1.8V767.6z M201.4,762
					v-3.8c0-0.4-0.2-0.7-0.7-0.7h-0.4c-0.4,0-0.7,0.2-0.7,0.7v3.8H201.4z"/>
				<path class="st2" d="M207.5,761.7v-5.6h1.5v11.5h-1.5v-2.3l-1.6-5.2v7.5h-1.5v-11.5h1.5L207.5,761.7z"/>
				<path class="st2" d="M216.6,761.7c0.8,0.2,1.3,0.7,1.3,1.3v2.9c0,1.1-0.6,1.7-1.7,1.7H213v-11.5h2.6c1.4,0,2,0.7,2,2.1v2.2
					C217.7,761.1,217.3,761.5,216.6,761.7L216.6,761.7z M214.6,761h0.7c0.6,0,0.9-0.3,0.9-0.8v-1.8c0-0.6-0.2-0.8-0.7-0.8h-0.9V761z
					 M214.6,766.2h1.2c0.4,0,0.6-0.2,0.6-0.5v-2.5c0-0.5-0.3-0.8-0.9-0.8h-0.8V766.2z"/>
				<path class="st2" d="M219.1,767.6v-11.5h3.8v1.4h-2.3v3.5h2v1.4h-2v3.8h2.3v1.4H219.1z"/>
				<path class="st2" d="M224,756.1h3c1.2,0,1.8,0.7,1.8,2v2.8c0,1-0.3,1.6-0.9,1.9l1.1,4.8h-1.5l-1-4.6h-0.9v4.6H224V756.1z
					 M225.6,761.6h1c0.5,0,0.7-0.3,0.7-0.8v-2.5c0-0.6-0.2-0.8-0.7-0.8h-1V761.6z"/>
				<path class="st2" d="M233.7,767.6h-3.6v-11.5h1.5v10.1h2.1V767.6z"/>
				<path class="st2" d="M236.1,767.6h-1.5v-9.5c0-1.3,0.6-2,1.8-2h1.2c1.2,0,1.8,0.7,1.8,2v9.5h-1.5v-4.2h-1.8V767.6z M237.8,762
					v-3.8c0-0.4-0.2-0.7-0.7-0.7h-0.4c-0.4,0-0.7,0.2-0.7,0.7v3.8H237.8z"/>
				<path class="st2" d="M243.9,761.7v-5.6h1.5v11.5h-1.5v-2.3l-1.6-5.2v7.5h-1.5v-11.5h1.5L243.9,761.7z"/>
				<path class="st2" d="M249.3,763.4V762h2.3v5.6h-3c-1.2,0-1.8-0.6-1.8-1.9v-7.6c0-1.3,0.6-2,1.8-2h1.1c1.3,0,2,0.7,2,2v1.2h-1.5
					v-1c0-0.6-0.2-0.8-0.7-0.8H249c-0.4,0-0.7,0.3-0.7,0.8v7c0,0.6,0.2,0.8,0.7,0.8h1v-2.8H249.3z"/>
				<path class="st2" d="M254.3,767.6h-1.5v-9.5c0-1.3,0.6-2,1.8-2h1.2c1.2,0,1.8,0.7,1.8,2v9.5h-1.5v-4.2h-1.8V767.6z M256.1,762
					v-3.8c0-0.4-0.2-0.7-0.7-0.7H255c-0.4,0-0.7,0.2-0.7,0.7v3.8H256.1z"/>
				<path class="st2" d="M265.4,755.3l-3.5,13.1h-1.1l3.5-13.1H265.4z"/>
				<path class="st2" d="M268.7,767.6v-11.5h1.5v11.5H268.7z"/>
				<path class="st2" d="M276.6,756.1l-1.9,11.5h-1.8l-1.9-11.5h1.5l1.2,8.8l1.2-8.8H276.6z"/>
				<path class="st2" d="M278.8,767.6h-1.5v-9.5c0-1.3,0.6-2,1.8-2h1.2c1.2,0,1.8,0.7,1.8,2v9.5h-1.5v-4.2h-1.8V767.6z M280.6,762
					v-3.8c0-0.4-0.2-0.7-0.7-0.7h-0.4c-0.4,0-0.7,0.2-0.7,0.7v3.8H280.6z"/>
				<path class="st2" d="M286.6,761.7v-5.6h1.5v11.5h-1.5v-2.3l-1.6-5.2v7.5h-1.5v-11.5h1.5L286.6,761.7z"/>
				<path class="st2" d="M293.2,761.7c0.8,0.2,1.3,0.7,1.3,1.3v2.9c0,1.1-0.6,1.7-1.7,1.7h-3.1v-11.5h2.6c1.4,0,2,0.7,2,2.1v2.2
					C294.3,761.1,293.9,761.5,293.2,761.7L293.2,761.7z M291.2,761h0.7c0.6,0,0.9-0.3,0.9-0.8v-1.8c0-0.6-0.2-0.8-0.7-0.8h-0.9V761z
					 M291.2,766.2h1.2c0.4,0,0.6-0.2,0.6-0.5v-2.5c0-0.5-0.3-0.8-0.9-0.8h-0.8V766.2z"/>
				<path class="st2" d="M295.7,767.6v-11.5h3.8v1.4h-2.3v3.5h2v1.4h-2v3.8h2.3v1.4H295.7z"/>
				<path class="st2" d="M300.6,756.1h3c1.2,0,1.8,0.7,1.8,2v2.8c0,1-0.3,1.6-0.9,1.9l1.1,4.8h-1.5l-1-4.6h-0.9v4.6h-1.5V756.1z
					 M302.2,761.6h1c0.5,0,0.7-0.3,0.7-0.8v-2.5c0-0.6-0.2-0.8-0.7-0.8h-1V761.6z"/>
				<path class="st2" d="M310.3,767.6h-3.6v-11.5h1.5v10.1h2.1V767.6z"/>
				<path class="st2" d="M312.7,767.6h-1.5v-9.5c0-1.3,0.6-2,1.8-2h1.2c1.2,0,1.8,0.7,1.8,2v9.5h-1.5v-4.2h-1.8V767.6z M314.4,762
					v-3.8c0-0.4-0.2-0.7-0.7-0.7h-0.4c-0.4,0-0.7,0.2-0.7,0.7v3.8H314.4z"/>
				<path class="st2" d="M320.5,761.7v-5.6h1.5v11.5h-1.5v-2.3l-1.6-5.2v7.5h-1.5v-11.5h1.5L320.5,761.7z"/>
				<path class="st2" d="M325.9,763.4V762h2.3v5.6h-3c-1.2,0-1.8-0.6-1.8-1.9v-7.6c0-1.3,0.6-2,1.8-2h1.1c1.3,0,2,0.7,2,2v1.2h-1.5
					v-1c0-0.6-0.2-0.8-0.7-0.8h-0.4c-0.4,0-0.7,0.3-0.7,0.8v7c0,0.6,0.2,0.8,0.7,0.8h1v-2.8H325.9z"/>
				<path class="st2" d="M330.9,767.6h-1.5v-9.5c0-1.3,0.6-2,1.8-2h1.2c1.2,0,1.8,0.7,1.8,2v9.5h-1.5v-4.2h-1.8V767.6z M332.7,762
					v-3.8c0-0.4-0.2-0.7-0.7-0.7h-0.4c-0.4,0-0.7,0.2-0.7,0.7v3.8H332.7z"/>
				<path class="st2" d="M336.9,765.6v2h-1.6v-2H336.9z"/>
				<path class="st2" d="M338.1,767.6v-11.5h2.7c1.4,0,2.2,0.7,2.2,2.2v7.6c0,1.1-0.6,1.7-1.8,1.7H338.1z M339.7,766.2h1.2
					c0.4,0,0.6-0.2,0.6-0.5v-7.4c0-0.6-0.2-0.8-0.7-0.8h-1.1V766.2z"/>
				<path class="st2" d="M344.3,767.6v-11.5h3.8v1.4h-2.3v3.5h2v1.4h-2v3.8h2.3v1.4H344.3z"/>
				<path class="st2" d="M352.2,759.2v-1c0-0.5-0.2-0.7-0.7-0.7h-0.2c-0.4,0-0.7,0.2-0.7,0.7v1.9c0,0.2,0,0.4,0.1,0.4
					c0.1,0.1,0.2,0.2,0.4,0.3l1.5,0.8c0.3,0.2,0.5,0.3,0.7,0.4c0.1,0.1,0.2,0.2,0.3,0.4s0.1,0.4,0.1,0.8v2.4c0,1.3-0.6,1.9-1.9,1.9
					h-0.9c-1.2,0-1.8-0.7-1.8-2.1v-0.6h1.5v0.6c0,0.4,0.2,0.7,0.7,0.7h0.3c0.4,0,0.6-0.2,0.6-0.7v-2c0-0.2,0-0.4-0.1-0.4
					c-0.1-0.1-0.2-0.2-0.4-0.3l-1.5-0.8c-0.3-0.2-0.6-0.3-0.7-0.4c-0.1-0.1-0.2-0.3-0.3-0.5c-0.1-0.2-0.1-0.4-0.1-0.7v-2.4
					c0-1.3,0.6-2,1.8-2h1c1.2,0,1.8,0.7,1.8,2v1.1H352.2z"/>
				<path class="st2" d="M355,767.6v-11.5h1.5v11.5H355z"/>
				<path class="st2" d="M360.3,763.4V762h2.3v5.6h-3c-1.2,0-1.8-0.6-1.8-1.9v-7.6c0-1.3,0.6-2,1.8-2h1.1c1.3,0,2,0.7,2,2v1.2h-1.5
					v-1c0-0.6-0.2-0.8-0.7-0.8h-0.4c-0.4,0-0.7,0.3-0.7,0.8v7c0,0.6,0.2,0.8,0.7,0.8h1v-2.8H360.3z"/>
				<path class="st2" d="M367.1,761.7v-5.6h1.5v11.5h-1.5v-2.3l-1.6-5.2v7.5h-1.5v-11.5h1.5L367.1,761.7z"/>
				<path class="st2" d="M376.5,755.3l-3.5,13.1h-1.1l3.5-13.1H376.5z"/>
				<path class="st2" d="M385.4,765h0.8v-6.2c0-0.6-0.2-1-0.5-1.3c-0.3-0.3-0.8-0.4-1.5-0.4h-1.4c-0.6,0-1.1,0.2-1.4,0.5
					c-0.3,0.3-0.5,0.8-0.5,1.4v7.6h6.3v1h-7.3v-8.5c0-1,0.3-1.7,0.8-2.2c0.5-0.5,1.2-0.7,2-0.7h1.4c1.1,0,1.9,0.2,2.4,0.7
					c0.5,0.5,0.7,1.1,0.7,1.9v7.2h-3v-2.8H383v2.8h-1.1v-6.6c0-1,0.5-1.5,1.4-1.5h0.8c0.9,0,1.4,0.5,1.4,1.5V765z M384.3,762.1v-2.7
					c0-0.3-0.2-0.5-0.5-0.5h-0.3c-0.3,0-0.5,0.2-0.5,0.5v2.7H384.3z"/>
				<path class="st2" d="M388.7,767.6v-11.5h1.5v11.5H388.7z"/>
				<path class="st2" d="M395.3,761.7c0.8,0.2,1.3,0.7,1.3,1.3v2.9c0,1.1-0.6,1.7-1.7,1.7h-3.1v-11.5h2.6c1.4,0,2,0.7,2,2.1v2.2
					C396.4,761.1,396,761.5,395.3,761.7L395.3,761.7z M393.3,761h0.7c0.6,0,0.9-0.3,0.9-0.8v-1.8c0-0.6-0.2-0.8-0.7-0.8h-0.9V761z
					 M393.3,766.2h1.2c0.4,0,0.6-0.2,0.6-0.5v-2.5c0-0.5-0.3-0.8-0.9-0.8h-0.8V766.2z"/>
				<path class="st2" d="M397.8,767.6v-11.5h3.8v1.4h-2.3v3.5h2v1.4h-2v3.8h2.3v1.4H397.8z"/>
				<path class="st2" d="M402.7,756.1h3c1.2,0,1.8,0.7,1.8,2v2.8c0,1-0.3,1.6-0.9,1.9l1.1,4.8h-1.5l-1-4.6h-0.9v4.6h-1.5V756.1z
					 M404.3,761.6h1c0.5,0,0.7-0.3,0.7-0.8v-2.5c0-0.6-0.2-0.8-0.7-0.8h-1V761.6z"/>
				<path class="st2" d="M412.4,767.6h-3.6v-11.5h1.5v10.1h2.1V767.6z"/>
				<path class="st2" d="M414.8,767.6h-1.5v-9.5c0-1.3,0.6-2,1.8-2h1.2c1.2,0,1.8,0.7,1.8,2v9.5h-1.5v-4.2h-1.8V767.6z M416.5,762
					v-3.8c0-0.4-0.2-0.7-0.7-0.7h-0.4c-0.4,0-0.7,0.2-0.7,0.7v3.8H416.5z"/>
				<path class="st2" d="M422.6,761.7v-5.6h1.5v11.5h-1.5v-2.3l-1.6-5.2v7.5h-1.5v-11.5h1.5L422.6,761.7z"/>
				<path class="st2" d="M428,763.4V762h2.3v5.6h-3c-1.2,0-1.8-0.6-1.8-1.9v-7.6c0-1.3,0.6-2,1.8-2h1.1c1.3,0,2,0.7,2,2v1.2h-1.5v-1
					c0-0.6-0.2-0.8-0.7-0.8h-0.4c-0.4,0-0.7,0.3-0.7,0.8v7c0,0.6,0.2,0.8,0.7,0.8h1v-2.8H428z"/>
				<path class="st2" d="M433,767.6h-1.5v-9.5c0-1.3,0.6-2,1.8-2h1.2c1.2,0,1.8,0.7,1.8,2v9.5h-1.5v-4.2H433V767.6z M434.8,762v-3.8
					c0-0.4-0.2-0.7-0.7-0.7h-0.4c-0.4,0-0.7,0.2-0.7,0.7v3.8H434.8z"/>
				<path class="st2" d="M439.1,765.6v2h-1.6v-2H439.1z"/>
				<path class="st2" d="M440.3,767.6v-11.5h2.7c1.4,0,2.2,0.7,2.2,2.2v7.6c0,1.1-0.6,1.7-1.8,1.7H440.3z M441.8,766.2h1.2
					c0.4,0,0.6-0.2,0.6-0.5v-7.4c0-0.6-0.2-0.8-0.7-0.8h-1.1V766.2z"/>
				<path class="st2" d="M446.4,767.6v-11.5h3.8v1.4H448v3.5h2v1.4h-2v3.8h2.3v1.4H446.4z"/>
				<path class="st2" d="M454.3,759.2v-1c0-0.5-0.2-0.7-0.7-0.7h-0.2c-0.4,0-0.7,0.2-0.7,0.7v1.9c0,0.2,0,0.4,0.1,0.4
					c0.1,0.1,0.2,0.2,0.4,0.3l1.5,0.8c0.3,0.2,0.5,0.3,0.7,0.4c0.1,0.1,0.2,0.2,0.3,0.4s0.1,0.4,0.1,0.8v2.4c0,1.3-0.6,1.9-1.9,1.9
					H453c-1.2,0-1.8-0.7-1.8-2.1v-0.6h1.5v0.6c0,0.4,0.2,0.7,0.7,0.7h0.3c0.4,0,0.6-0.2,0.6-0.7v-2c0-0.2,0-0.4-0.1-0.4
					c-0.1-0.1-0.2-0.2-0.4-0.3l-1.5-0.8c-0.3-0.2-0.6-0.3-0.7-0.4c-0.1-0.1-0.2-0.3-0.3-0.5c-0.1-0.2-0.1-0.4-0.1-0.7v-2.4
					c0-1.3,0.6-2,1.8-2h1c1.2,0,1.8,0.7,1.8,2v1.1H454.3z"/>
				<path class="st2" d="M457.1,767.6v-11.5h1.5v11.5H457.1z"/>
				<path class="st2" d="M462.5,763.4V762h2.3v5.6h-3c-1.2,0-1.8-0.6-1.8-1.9v-7.6c0-1.3,0.6-2,1.8-2h1.1c1.3,0,2,0.7,2,2v1.2h-1.5
					v-1c0-0.6-0.2-0.8-0.7-0.8h-0.4c-0.4,0-0.7,0.3-0.7,0.8v7c0,0.6,0.2,0.8,0.7,0.8h1v-2.8H462.5z"/>
				<path class="st2" d="M469.2,761.7v-5.6h1.5v11.5h-1.5v-2.3l-1.6-5.2v7.5H466v-11.5h1.5L469.2,761.7z"/>
			</g>
			<g>
				<g>
					<circle class="st14" cx="80" cy="62" r="41"/>
					<path class="st40" d="M80,105.5C56,105.5,36.5,86,36.5,62S56,18.5,80,18.5S123.5,38,123.5,62S104,105.5,80,105.5z M80,23.5
						c-21.2,0-38.5,17.3-38.5,38.5s17.3,38.5,38.5,38.5s38.5-17.3,38.5-38.5S101.2,23.5,80,23.5z"/>
				</g>
				<g>
					<g>
						<path class="st41" d="M89.8,51.4c-1.8-1.8-4.7-1.8-6.5,0c-1.8,1.8-1.8,4.7,0,6.5c1.8,1.8,4.7,1.8,6.5,0c0.9-0.9,1.4-2,1.4-3.3
							C91.2,53.5,90.7,52.3,89.8,51.4z M91.3,50c2.6,2.6,2.6,6.9,0,9.5c-2.6,2.6-6.9,2.6-9.5,0s-2.6-6.9,0-9.5c1.3-1.3,3-2,4.7-2
							C88.3,48,90,48.7,91.3,50z M93.8,39.1c0.3,0.7,0.7,1.5,1.1,2.1c0.7,1,1.4,2,2.3,2.8c0.9,0.9,1.8,1.6,2.8,2.3
							c0.7,0.4,1.4,0.8,2.1,1.1c1.1-3.5,1-6.3-0.5-7.9C100.1,38,97.3,38,93.8,39.1z M73.7,75.2l-7.9-7.9l-2.5,2.5
							c-0.1,0.2-0.1,0.4,0,0.5l7.4,7.4c0.2,0.1,0.4,0.1,0.5,0L73.7,75.2L73.7,75.2z M67.8,77.8c-0.6,1.5-1.7,2.7-3.2,3.4
							c-1.8,0.7-3.7,1-5.5,0.8c-0.2-1.9,0-3.8,0.8-5.5c0.7-1.4,1.9-2.6,3.4-3.2L67.8,77.8z M67,65.5c1-2.6,2.2-5,3.8-7.3
							c2-3,4.3-5.8,6.9-8.3c4.7-4.7,9.8-8.3,14.3-10.1c0.4,0.9,0.8,1.7,1.3,2.5c0.7,1.1,1.6,2.2,2.6,3.2c1,1,2,1.8,3.2,2.6
							c0.8,0.5,1.6,1,2.5,1.3c-1.9,4.4-5.4,9.5-10.1,14.3c-2.5,2.5-5.3,4.8-8.3,6.8c-2.3,1.6-4.7,2.8-7.3,3.8L67,65.5z M57.7,55.6
							c1.5,0.3,3,0.8,4.5,1.4c1.8,0.7,3.6,1.6,5.3,2.5c0.5-0.8,1-1.6,1.5-2.4c1.7-2.6,3.7-5,5.8-7.3c-2.8-0.4-5.6-0.2-8.2,0.5
							c-3.3,0.9-6.2,2.7-8.6,5.1C57.9,55.4,57.8,55.5,57.7,55.6z M85.7,86.3c-0.4,0.4-1.1,0.4-1.5,0c-0.1-0.2-0.2-0.3-0.3-0.6
							c-0.3-2-0.9-4-1.6-5.9c-0.7-1.7-1.5-3.4-2.4-5c-1.4,0.7-2.8,1.3-4.3,1.8c-0.1,0-0.3,0.1-0.4,0l-2.6,2.6
							c-0.9,0.9-2.3,1-3.3,0.1c-0.8,1.6-2.2,2.9-3.8,3.7c-2,0.9-4.5,1.2-7.5,0.9c-0.1,0-0.1,0-0.2,0h0l0,0l0,0h0
							c-0.1,0-0.2-0.1-0.3-0.2l0,0l0,0l0,0l0,0l0,0l0,0l0,0l0,0c-0.1-0.1-0.2-0.2-0.2-0.3v0l0,0l0,0v0c0-0.1,0-0.1,0-0.2
							c-0.4-3-0.1-5.5,0.9-7.5c0.8-1.7,2.1-3,3.7-3.8c-0.8-1-0.8-2.4,0.1-3.3l3.1-3.1c0.5-1.3,1-2.7,1.7-3.9c-1.6-1-3.3-1.8-5-2.4
							c-1.9-0.7-3.9-1.3-5.9-1.6c-0.6-0.1-1-0.6-0.9-1.2c0-0.2,0.1-0.4,0.3-0.6c0.2-0.3,0.4-0.5,0.7-0.8c0.3-0.3,0.5-0.6,0.8-0.8
							c5.3-5.3,12.8-7.5,20.1-5.9c4.9-4.8,10.2-8.4,14.8-10.3c5-2,9.3-2.1,11.8,0.4s2.4,6.7,0.4,11.8c-1.9,4.6-5.4,9.9-10.3,14.8
							c1.6,7.3-0.6,14.8-5.9,20.1c-0.2,0.2-0.5,0.5-0.8,0.8C86.3,85.8,86,86,85.7,86.3z M81.8,73.8c1,1.7,1.8,3.4,2.5,5.3
							c0.6,1.5,1,3,1.4,4.5c0.1-0.1,0.1-0.1,0.2-0.2c2.4-2.4,4.1-5.4,5.1-8.6c0.7-2.7,0.9-5.5,0.5-8.2c-2.2,2.1-4.7,4.1-7.2,5.8
							C83.4,72.8,82.6,73.3,81.8,73.8z"/>
					</g>
				</g>
			</g>
			<g>
				<g>
					<circle class="st1" cx="555.5" cy="335.5" r="41"/>
					<path class="st40" d="M555.5,379c-24,0-43.5-19.5-43.5-43.5s19.5-43.5,43.5-43.5s43.5,19.5,43.5,43.5S579.5,379,555.5,379z
						 M555.5,297c-21.2,0-38.5,17.3-38.5,38.5s17.3,38.5,38.5,38.5s38.5-17.3,38.5-38.5S576.7,297,555.5,297z"/>
				</g>
				<g>
					<g>
						<path class="st41" d="M567.5,325.7c-0.4,0-0.8-0.3-0.8-0.8c0-0.4,0.3-0.8,0.8-0.8h8.2c0.4,0,0.8,0.3,0.8,0.8
							c0,0.4-0.3,0.8-0.8,0.8H567.5L567.5,325.7z M567.5,322.2c-0.4,0-0.8-0.3-0.8-0.8c0-0.4,0.3-0.8,0.8-0.8h8.2
							c0.4,0,0.8,0.3,0.8,0.8c0,0.4-0.3,0.8-0.8,0.8H567.5L567.5,322.2z M566.3,315.8c-2.3,0-4.2,1.9-4.2,4.2l0,2.3h-25.7
							c-1.8,0-3.2,1.5-3.2,3.2v19.1h-2c-0.4,0-0.8,0.3-0.8,0.8v4.5c0,1.9,1.5,3.4,3.4,3.4h34.6c1.9,0,3.4-1.5,3.4-3.4v-4.5
							c0-0.4-0.3-0.8-0.8-0.8h-2V331c2.2,0,4.5-0.1,7.8-0.1c2.3,0,4.2-1.9,4.2-4.2V320c0-2.3-1.9-4.2-4.2-4.2H566.3L566.3,315.8z
							 M567.5,331l-1.7,0v10.4c0,1.4-1.1,2.5-2.5,2.5h-24.5c-1.4,0-2.5-1.1-2.5-2.5V328c0-1.4,1.1-2.5,2.5-2.5h23.2
							c0-0.6,0-1.1,0-1.7h-25.7c-0.9,0-1.7,0.8-1.7,1.7v19.1h8.3c0.4,0,0.8,0.3,0.8,0.8v1.4h14.7v-1.4c0-0.4,0.3-0.8,0.8-0.8h8.3
							L567.5,331L567.5,331z M564.2,331.1v10.4c0,0.5-0.4,0.9-0.9,0.9h-24.5c-0.5,0-0.9-0.4-0.9-0.9V328c0-0.5,0.4-0.9,0.9-0.9h23
							l-1.8,3l0,0c-0.3,0.5,0.1,1.2,0.7,1.2C562,331.2,563.2,331.1,564.2,331.1L564.2,331.1z M576.8,317.3h-10.5
							c-1.5,0-2.7,1.2-2.7,2.7c0,0.5,0,1.3,0,2.2c0,1.5,0,3,0,4.5c0,0.2,0,0.3-0.1,0.5l-1.5,2.4c5.5-0.1,8.6-0.3,14.7-0.3
							c1.5,0,2.7-1.2,2.7-2.7V320C579.5,318.6,578.3,317.3,576.8,317.3L576.8,317.3z M542.9,335.4h4.4c0.4,0,0.8,0.3,0.8,0.8v4.4
							c0,0.4-0.3,0.8-0.8,0.8h-4.4c-0.4,0-0.8-0.3-0.8-0.8v-4.4C542.2,335.7,542.5,335.4,542.9,335.4L542.9,335.4z M546.6,336.9v2.9
							h-2.9v-2.9H546.6L546.6,336.9z M542.9,328.2h4.4c0.4,0,0.8,0.3,0.8,0.8v4.4c0,0.4-0.3,0.8-0.8,0.8h-4.4
							c-0.4,0-0.8-0.3-0.8-0.8V329C542.2,328.5,542.5,328.2,542.9,328.2L542.9,328.2z M546.6,329.7v2.9h-2.9v-2.9H546.6L546.6,329.7
							z M551,338.5c-0.4,0-0.8-0.3-0.8-0.8c0-0.4,0.3-0.8,0.8-0.8h7.2c0.4,0,0.8,0.3,0.8,0.8c0,0.4-0.3,0.8-0.8,0.8H551L551,338.5z
							 M551,335.5c-0.4,0-0.8-0.3-0.8-0.8c0-0.4,0.3-0.8,0.8-0.8h7.2c0.4,0,0.8,0.3,0.8,0.8c0,0.4-0.3,0.8-0.8,0.8H551L551,335.5z
							 M551,332.5c-0.4,0-0.8-0.3-0.8-0.8c0-0.4,0.3-0.8,0.8-0.8h7.2c0.4,0,0.8,0.3,0.8,0.8c0,0.4-0.3,0.8-0.8,0.8H551L551,332.5z
							 M542.2,346.2v1.4c0,0.4,0.3,0.8,0.8,0.8h16.2c0.4,0,0.8-0.3,0.8-0.8v-1.4h10.3v3.7c0,1-0.9,1.9-1.9,1.9h-34.6
							c-1,0-1.9-0.9-1.9-1.9v-3.7H542.2z"/>
					</g>
				</g>
			</g>
		</g>
	</g>
</g>
</svg>
