<?xml version="1.0" encoding="utf-8"?>
<!-- Generator: Adobe Illustrator 27.3.1, SVG Export Plug-In . SVG Version: 6.00 Build 0)  -->
<svg version="1.1" id="Layer_1" xmlns="http://www.w3.org/2000/svg" xmlns:xlink="http://www.w3.org/1999/xlink" x="0px" y="0px"
	 viewBox="0 0 289 367" style="enable-background:new 0 0 289 367;" xml:space="preserve">
<style type="text/css">
	.st0{fill:#00476B;}
	.st1{enable-background:new    ;}
	.st2{fill:#FFFFFF;}
	.st3{fill:#3D708A;}
	.st4{fill:#740149;}
	.st5{fill:#FED0AC;}
	.st6{fill:#991763;}
	.st7{fill:#800952;}
	.st8{fill:#FBFBFD;}
	.st9{fill:#002B48;}
	.st10{fill:#F79E64;}
	.st11{fill:#4E5252;}
</style>
<g>
	<g>
		<circle class="st0" cx="146" cy="213.8" r="91.4"/>
	</g>
	<g class="st1">
		<path class="st2" d="M140.5,189.7c0,1-0.2,1.9-0.5,2.7c-0.3,0.8-0.8,1.5-1.4,2.1c-0.6,0.6-1.3,1.1-2.1,1.4
			c-0.8,0.3-1.7,0.5-2.7,0.5s-1.9-0.2-2.7-0.5c-0.8-0.3-1.5-0.8-2.1-1.4c-0.6-0.6-1-1.3-1.4-2.1c-0.3-0.8-0.5-1.7-0.5-2.7
			s0.2-1.9,0.5-2.7c0.3-0.8,0.8-1.5,1.4-2.1c0.6-0.6,1.3-1.1,2.1-1.4c0.8-0.3,1.7-0.5,2.7-0.5s1.9,0.2,2.7,0.5
			c0.8,0.3,1.5,0.8,2.1,1.4c0.6,0.6,1,1.3,1.4,2.1C140.4,187.9,140.5,188.7,140.5,189.7z M138,189.7c0-0.7-0.1-1.4-0.3-1.9
			c-0.2-0.6-0.5-1.1-0.8-1.5s-0.8-0.7-1.3-0.9s-1.1-0.3-1.7-0.3s-1.2,0.1-1.7,0.3c-0.5,0.2-1,0.5-1.3,0.9c-0.4,0.4-0.6,0.9-0.8,1.5
			c-0.2,0.6-0.3,1.2-0.3,1.9s0.1,1.4,0.3,1.9c0.2,0.6,0.5,1.1,0.8,1.5c0.4,0.4,0.8,0.7,1.3,0.9c0.5,0.2,1.1,0.3,1.7,0.3
			s1.2-0.1,1.7-0.3s0.9-0.5,1.3-0.9s0.6-0.9,0.8-1.5C137.9,191.1,138,190.4,138,189.7z"/>
		<path class="st2" d="M144.4,187v5.9c0,0.6,0.1,1,0.4,1.3c0.3,0.3,0.7,0.5,1.2,0.5c0.4,0,0.8-0.1,1.1-0.3c0.3-0.2,0.7-0.4,1-0.7
			V187h2.3v9.4h-1.4c-0.3,0-0.5-0.1-0.6-0.4l-0.2-0.7c-0.2,0.2-0.4,0.4-0.6,0.5s-0.4,0.3-0.7,0.4c-0.2,0.1-0.5,0.2-0.8,0.3
			c-0.3,0.1-0.6,0.1-0.9,0.1c-0.5,0-1-0.1-1.4-0.3c-0.4-0.2-0.7-0.4-1-0.7c-0.3-0.3-0.5-0.7-0.6-1.1c-0.1-0.4-0.2-0.9-0.2-1.4V187
			H144.4z"/>
		<path class="st2" d="M152.7,196.3V187h1.3c0.2,0,0.4,0,0.5,0.1s0.2,0.2,0.2,0.4l0.1,1.1c0.3-0.6,0.7-1,1.2-1.4
			c0.4-0.3,1-0.5,1.5-0.5c0.5,0,0.8,0.1,1.1,0.3l-0.3,1.7c0,0.1-0.1,0.2-0.1,0.2c-0.1,0-0.1,0.1-0.2,0.1c-0.1,0-0.2,0-0.4-0.1
			c-0.2,0-0.4-0.1-0.6-0.1c-0.5,0-0.9,0.1-1.2,0.4c-0.3,0.3-0.6,0.6-0.8,1.1v5.8H152.7z"/>
	</g>
	<g class="st1">
		<path class="st2" d="M110.9,215.1c0.1,0,0.2,0.1,0.3,0.2l1,1c-0.5,0.7-1.2,1.2-2,1.5c-0.8,0.4-1.7,0.5-2.8,0.5
			c-1,0-1.9-0.2-2.6-0.5c-0.8-0.3-1.4-0.8-2-1.4s-1-1.3-1.3-2.1c-0.3-0.8-0.4-1.7-0.4-2.7c0-1,0.2-1.9,0.5-2.7
			c0.3-0.8,0.8-1.5,1.4-2.1c0.6-0.6,1.3-1.1,2.1-1.4c0.8-0.3,1.7-0.5,2.7-0.5c1,0,1.8,0.2,2.6,0.5c0.7,0.3,1.4,0.7,1.9,1.2l-0.8,1.1
			c0,0.1-0.1,0.1-0.2,0.2c-0.1,0.1-0.2,0.1-0.3,0.1c-0.1,0-0.3-0.1-0.4-0.2c-0.1-0.1-0.3-0.2-0.6-0.4c-0.2-0.1-0.5-0.2-0.9-0.4
			c-0.3-0.1-0.8-0.2-1.3-0.2c-0.6,0-1.2,0.1-1.7,0.3c-0.5,0.2-1,0.5-1.3,0.9c-0.4,0.4-0.7,0.9-0.9,1.5c-0.2,0.6-0.3,1.2-0.3,1.9
			c0,0.7,0.1,1.4,0.3,2c0.2,0.6,0.5,1.1,0.9,1.5s0.8,0.7,1.3,0.9s1,0.3,1.6,0.3c0.3,0,0.6,0,0.9-0.1s0.5-0.1,0.7-0.2
			s0.4-0.2,0.6-0.3s0.4-0.3,0.6-0.5c0.1-0.1,0.1-0.1,0.2-0.1S110.8,215.1,110.9,215.1z"/>
		<path class="st2" d="M117.9,208.7c0.7,0,1.3,0.1,1.9,0.3c0.6,0.2,1.1,0.5,1.5,1s0.7,0.9,0.9,1.5c0.2,0.6,0.3,1.3,0.3,2
			c0,0.7-0.1,1.4-0.3,2s-0.5,1.1-0.9,1.5c-0.4,0.4-0.9,0.7-1.5,1c-0.6,0.2-1.2,0.3-1.9,0.3s-1.3-0.1-1.9-0.3c-0.6-0.2-1.1-0.5-1.5-1
			c-0.4-0.4-0.7-0.9-0.9-1.5c-0.2-0.6-0.3-1.3-0.3-2c0-0.7,0.1-1.4,0.3-2c0.2-0.6,0.5-1.1,0.9-1.5s0.9-0.7,1.5-1
			C116.6,208.8,117.2,208.7,117.9,208.7z M117.9,216.6c0.8,0,1.4-0.3,1.7-0.8c0.4-0.5,0.6-1.3,0.6-2.3c0-1-0.2-1.8-0.6-2.3
			c-0.4-0.5-1-0.8-1.7-0.8c-0.8,0-1.4,0.3-1.8,0.8s-0.6,1.3-0.6,2.3s0.2,1.8,0.6,2.3C116.5,216.3,117.1,216.6,117.9,216.6z"/>
		<path class="st2" d="M124.3,218.2v-9.4h1.4c0.3,0,0.5,0.1,0.6,0.4l0.2,0.7c0.2-0.2,0.4-0.4,0.6-0.5c0.2-0.2,0.4-0.3,0.7-0.4
			c0.2-0.1,0.5-0.2,0.8-0.3c0.3-0.1,0.6-0.1,0.9-0.1c0.5,0,1,0.1,1.4,0.3c0.4,0.2,0.7,0.4,1,0.7c0.3,0.3,0.5,0.7,0.6,1.1
			s0.2,0.9,0.2,1.4v6h-2.3v-6c0-0.6-0.1-1-0.4-1.3c-0.3-0.3-0.7-0.5-1.2-0.5c-0.4,0-0.8,0.1-1.1,0.3c-0.3,0.2-0.7,0.4-1,0.7v6.8
			H124.3z"/>
		<path class="st2" d="M140.2,210.7c-0.1,0.1-0.1,0.2-0.2,0.2c-0.1,0-0.2,0.1-0.3,0.1c-0.1,0-0.2,0-0.4-0.1
			c-0.1-0.1-0.3-0.1-0.4-0.2c-0.2-0.1-0.4-0.1-0.6-0.2c-0.2-0.1-0.5-0.1-0.7-0.1c-0.4,0-0.8,0.1-1,0.3s-0.4,0.4-0.4,0.7
			c0,0.2,0.1,0.4,0.2,0.5s0.3,0.3,0.5,0.4c0.2,0.1,0.5,0.2,0.7,0.3s0.6,0.2,0.8,0.3c0.3,0.1,0.6,0.2,0.8,0.3
			c0.3,0.1,0.5,0.3,0.7,0.5s0.4,0.4,0.5,0.7s0.2,0.6,0.2,1c0,0.5-0.1,0.9-0.2,1.2c-0.2,0.4-0.4,0.7-0.7,1c-0.3,0.3-0.7,0.5-1.2,0.6
			c-0.5,0.2-1,0.2-1.6,0.2c-0.3,0-0.6,0-0.9-0.1c-0.3-0.1-0.6-0.1-0.9-0.2s-0.5-0.2-0.8-0.4c-0.2-0.1-0.5-0.3-0.6-0.5l0.5-0.9
			c0.1-0.1,0.1-0.2,0.2-0.2c0.1-0.1,0.2-0.1,0.3-0.1c0.1,0,0.3,0,0.4,0.1c0.1,0.1,0.3,0.2,0.4,0.3s0.4,0.2,0.6,0.3
			c0.2,0.1,0.5,0.1,0.8,0.1c0.3,0,0.5,0,0.7-0.1c0.2-0.1,0.3-0.1,0.5-0.3s0.2-0.2,0.3-0.4c0.1-0.1,0.1-0.3,0.1-0.4
			c0-0.2-0.1-0.4-0.2-0.5c-0.1-0.1-0.3-0.3-0.5-0.4s-0.5-0.2-0.7-0.3c-0.3-0.1-0.6-0.2-0.8-0.3c-0.3-0.1-0.6-0.2-0.8-0.3
			c-0.3-0.1-0.5-0.3-0.7-0.5c-0.2-0.2-0.4-0.4-0.5-0.7s-0.2-0.6-0.2-1.1c0-0.4,0.1-0.7,0.2-1.1c0.2-0.3,0.4-0.6,0.7-0.9
			c0.3-0.3,0.7-0.5,1.1-0.6c0.4-0.2,0.9-0.2,1.5-0.2c0.6,0,1.2,0.1,1.8,0.3s1,0.5,1.3,0.8L140.2,210.7z"/>
		<path class="st2" d="M144.7,208.8v5.9c0,0.6,0.1,1,0.4,1.3s0.7,0.5,1.2,0.5c0.4,0,0.8-0.1,1.1-0.3c0.3-0.2,0.7-0.4,1-0.7v-6.8h2.3
			v9.4h-1.4c-0.3,0-0.5-0.1-0.6-0.4l-0.2-0.7c-0.2,0.2-0.4,0.4-0.6,0.5c-0.2,0.2-0.4,0.3-0.7,0.4c-0.2,0.1-0.5,0.2-0.8,0.3
			c-0.3,0.1-0.6,0.1-0.9,0.1c-0.5,0-1-0.1-1.4-0.3c-0.4-0.2-0.7-0.4-1-0.7c-0.3-0.3-0.5-0.7-0.6-1.1c-0.1-0.4-0.2-0.9-0.2-1.4v-5.9
			H144.7z"/>
		<path class="st2" d="M155.4,204.6v13.6h-2.3v-13.6H155.4z"/>
		<path class="st2" d="M161,218.3c-0.8,0-1.4-0.2-1.9-0.7c-0.4-0.5-0.7-1.1-0.7-1.9v-5.2h-0.9c-0.1,0-0.2,0-0.3-0.1
			s-0.1-0.2-0.1-0.4v-0.9l1.5-0.2l0.5-2.6c0-0.1,0.1-0.2,0.2-0.3c0.1-0.1,0.2-0.1,0.3-0.1h1.2v2.9h2.5v1.6h-2.5v5.1
			c0,0.3,0.1,0.5,0.2,0.7c0.1,0.2,0.3,0.2,0.6,0.2c0.1,0,0.3,0,0.4,0c0.1,0,0.2-0.1,0.2-0.1c0.1,0,0.1-0.1,0.2-0.1s0.1-0.1,0.2-0.1
			c0.1,0,0.1,0,0.2,0.1c0,0,0.1,0.1,0.1,0.2l0.7,1.1c-0.3,0.3-0.7,0.5-1.1,0.6C161.9,218.3,161.5,218.3,161,218.3z"/>
		<path class="st2" d="M167.7,206.1c0,0.2,0,0.4-0.1,0.5c-0.1,0.2-0.2,0.3-0.3,0.4c-0.1,0.1-0.3,0.2-0.5,0.3
			c-0.2,0.1-0.4,0.1-0.6,0.1c-0.2,0-0.4,0-0.6-0.1c-0.2-0.1-0.3-0.2-0.5-0.3c-0.1-0.1-0.2-0.3-0.3-0.4c-0.1-0.2-0.1-0.4-0.1-0.5
			c0-0.2,0-0.4,0.1-0.6s0.2-0.3,0.3-0.5c0.1-0.1,0.3-0.2,0.5-0.3c0.2-0.1,0.4-0.1,0.6-0.1c0.2,0,0.4,0,0.6,0.1
			c0.2,0.1,0.3,0.2,0.5,0.3c0.1,0.1,0.2,0.3,0.3,0.5S167.7,205.9,167.7,206.1z M167.4,208.8v9.4h-2.3v-9.4H167.4z"/>
		<path class="st2" d="M169.9,218.2v-9.4h1.4c0.3,0,0.5,0.1,0.6,0.4l0.2,0.7c0.2-0.2,0.4-0.4,0.6-0.5c0.2-0.2,0.4-0.3,0.7-0.4
			c0.2-0.1,0.5-0.2,0.8-0.3c0.3-0.1,0.6-0.1,0.9-0.1c0.5,0,1,0.1,1.4,0.3s0.7,0.4,1,0.7c0.3,0.3,0.5,0.7,0.6,1.1s0.2,0.9,0.2,1.4v6
			h-2.3v-6c0-0.6-0.1-1-0.4-1.3s-0.7-0.5-1.2-0.5c-0.4,0-0.8,0.1-1.1,0.3c-0.3,0.2-0.7,0.4-1,0.7v6.8H169.9z"/>
		<path class="st2" d="M183.5,208.7c0.4,0,0.8,0,1.1,0.1s0.7,0.2,1,0.4h2.7v0.8c0,0.1,0,0.2-0.1,0.3s-0.2,0.1-0.4,0.2l-0.8,0.2
			c0.1,0.2,0.1,0.3,0.1,0.5c0,0.2,0,0.4,0,0.6c0,0.5-0.1,0.9-0.3,1.3s-0.4,0.7-0.8,1c-0.3,0.3-0.7,0.5-1.2,0.6
			c-0.4,0.1-0.9,0.2-1.5,0.2c-0.4,0-0.7,0-1-0.1c-0.3,0.2-0.4,0.4-0.4,0.6c0,0.2,0.1,0.3,0.3,0.4c0.2,0.1,0.4,0.2,0.7,0.2
			c0.3,0,0.6,0.1,1,0.1c0.4,0,0.7,0,1.1,0c0.4,0,0.7,0.1,1.1,0.2c0.4,0.1,0.7,0.2,1,0.4c0.3,0.2,0.5,0.4,0.7,0.7
			c0.2,0.3,0.3,0.6,0.3,1.1c0,0.4-0.1,0.8-0.3,1.2c-0.2,0.4-0.5,0.7-0.9,1c-0.4,0.3-0.9,0.6-1.4,0.7c-0.6,0.2-1.2,0.3-1.9,0.3
			c-0.7,0-1.3-0.1-1.9-0.2c-0.5-0.1-1-0.3-1.3-0.5c-0.3-0.2-0.6-0.5-0.8-0.8c-0.2-0.3-0.3-0.6-0.3-0.9c0-0.4,0.1-0.8,0.4-1.1
			c0.3-0.3,0.6-0.5,1.1-0.7c-0.2-0.1-0.4-0.3-0.6-0.5c-0.1-0.2-0.2-0.5-0.2-0.8c0-0.1,0-0.3,0.1-0.4c0-0.1,0.1-0.3,0.2-0.4
			c0.1-0.1,0.2-0.3,0.4-0.4s0.3-0.2,0.5-0.4c-0.5-0.3-0.8-0.6-1.1-1c-0.3-0.4-0.4-0.9-0.4-1.5c0-0.5,0.1-0.9,0.3-1.3s0.4-0.7,0.8-1
			s0.7-0.5,1.2-0.6C182.5,208.7,183,208.7,183.5,208.7z M186,218.6c0-0.2-0.1-0.3-0.2-0.5s-0.3-0.2-0.4-0.3s-0.4-0.1-0.7-0.1
			c-0.3,0-0.5,0-0.8,0c-0.3,0-0.6,0-0.9,0s-0.6,0-0.9-0.1c-0.3,0.1-0.5,0.3-0.6,0.5c-0.2,0.2-0.2,0.4-0.2,0.7c0,0.2,0,0.3,0.1,0.5
			s0.2,0.3,0.4,0.4c0.2,0.1,0.4,0.2,0.7,0.2c0.3,0.1,0.6,0.1,1,0.1c0.4,0,0.8,0,1.1-0.1c0.3-0.1,0.6-0.2,0.8-0.3
			c0.2-0.1,0.3-0.3,0.4-0.4C186,219,186,218.8,186,218.6z M183.5,213.3c0.3,0,0.5,0,0.7-0.1c0.2-0.1,0.4-0.2,0.5-0.3
			s0.2-0.3,0.3-0.5c0.1-0.2,0.1-0.4,0.1-0.6c0-0.5-0.1-0.8-0.4-1.1c-0.3-0.3-0.7-0.4-1.2-0.4c-0.6,0-1,0.1-1.2,0.4
			c-0.3,0.3-0.4,0.6-0.4,1.1c0,0.2,0,0.4,0.1,0.6c0.1,0.2,0.2,0.4,0.3,0.5c0.1,0.1,0.3,0.2,0.5,0.3S183.3,213.3,183.5,213.3z"/>
	</g>
	<g class="st1">
		<path class="st2" d="M119.2,240.1h-1.9c-0.2,0-0.4-0.1-0.5-0.2c-0.1-0.1-0.2-0.2-0.3-0.4l-1-2.7H110l-1,2.7c0,0.1-0.1,0.3-0.3,0.4
			c-0.1,0.1-0.3,0.2-0.5,0.2h-1.9l5.2-13.2h2.5L119.2,240.1z M110.6,235.1h4.2l-1.6-4.4c-0.1-0.2-0.2-0.4-0.2-0.7
			c-0.1-0.3-0.2-0.6-0.3-0.9c-0.1,0.3-0.2,0.6-0.3,0.9s-0.2,0.5-0.2,0.7L110.6,235.1z"/>
		<path class="st2" d="M120.4,243.1v-12.4h1.4c0.1,0,0.3,0,0.4,0.1c0.1,0.1,0.2,0.2,0.2,0.3l0.2,0.9c0.4-0.4,0.8-0.8,1.3-1
			c0.5-0.3,1.1-0.4,1.7-0.4c0.5,0,1,0.1,1.4,0.3c0.4,0.2,0.8,0.5,1.1,0.9c0.3,0.4,0.5,0.9,0.7,1.5c0.2,0.6,0.3,1.3,0.3,2
			c0,0.7-0.1,1.3-0.3,1.9s-0.5,1.1-0.8,1.5c-0.3,0.4-0.8,0.8-1.3,1s-1.1,0.4-1.7,0.4c-0.5,0-1-0.1-1.3-0.2c-0.4-0.2-0.7-0.4-1-0.7
			v3.8H120.4z M124.8,232.3c-0.5,0-0.9,0.1-1.2,0.3c-0.3,0.2-0.6,0.5-0.9,0.8v4.2c0.3,0.3,0.5,0.5,0.8,0.7s0.6,0.2,1,0.2
			c0.3,0,0.6-0.1,0.9-0.2c0.3-0.1,0.5-0.3,0.7-0.6c0.2-0.3,0.3-0.6,0.4-1c0.1-0.4,0.2-0.9,0.2-1.4c0-0.5,0-1-0.1-1.4
			c-0.1-0.4-0.2-0.7-0.4-0.9c-0.2-0.2-0.4-0.4-0.6-0.5S125.1,232.3,124.8,232.3z"/>
		<path class="st2" d="M130.7,243.1v-12.4h1.4c0.1,0,0.3,0,0.4,0.1c0.1,0.1,0.2,0.2,0.2,0.3l0.2,0.9c0.4-0.4,0.8-0.8,1.3-1
			c0.5-0.3,1.1-0.4,1.7-0.4c0.5,0,1,0.1,1.4,0.3c0.4,0.2,0.8,0.5,1.1,0.9c0.3,0.4,0.5,0.9,0.7,1.5c0.2,0.6,0.3,1.3,0.3,2
			c0,0.7-0.1,1.3-0.3,1.9s-0.5,1.1-0.8,1.5c-0.3,0.4-0.8,0.8-1.3,1s-1.1,0.4-1.7,0.4c-0.5,0-1-0.1-1.3-0.2c-0.4-0.2-0.7-0.4-1-0.7
			v3.8H130.7z M135.1,232.3c-0.5,0-0.9,0.1-1.2,0.3c-0.3,0.2-0.6,0.5-0.9,0.8v4.2c0.3,0.3,0.5,0.5,0.8,0.7s0.6,0.2,1,0.2
			c0.3,0,0.6-0.1,0.9-0.2c0.3-0.1,0.5-0.3,0.7-0.6c0.2-0.3,0.3-0.6,0.4-1c0.1-0.4,0.2-0.9,0.2-1.4c0-0.5,0-1-0.1-1.4
			c-0.1-0.4-0.2-0.7-0.4-0.9c-0.2-0.2-0.4-0.4-0.6-0.5S135.4,232.3,135.1,232.3z"/>
		<path class="st2" d="M141,240.1v-9.4h1.3c0.2,0,0.4,0,0.5,0.1c0.1,0.1,0.2,0.2,0.2,0.4l0.1,1.1c0.3-0.6,0.7-1,1.2-1.4
			c0.4-0.3,1-0.5,1.5-0.5c0.5,0,0.8,0.1,1.1,0.3l-0.3,1.7c0,0.1-0.1,0.2-0.1,0.2c-0.1,0-0.1,0.1-0.2,0.1c-0.1,0-0.2,0-0.4-0.1
			c-0.2,0-0.4-0.1-0.6-0.1c-0.5,0-0.9,0.1-1.2,0.4c-0.3,0.3-0.6,0.6-0.8,1.1v5.8H141z"/>
		<path class="st2" d="M152.5,230.6c0.7,0,1.3,0.1,1.9,0.3c0.6,0.2,1.1,0.5,1.5,1s0.7,0.9,0.9,1.5c0.2,0.6,0.3,1.3,0.3,2
			c0,0.7-0.1,1.4-0.3,2s-0.5,1.1-0.9,1.5c-0.4,0.4-0.9,0.7-1.5,1c-0.6,0.2-1.2,0.3-1.9,0.3s-1.3-0.1-1.9-0.3c-0.6-0.2-1.1-0.5-1.5-1
			c-0.4-0.4-0.7-0.9-0.9-1.5c-0.2-0.6-0.3-1.3-0.3-2c0-0.7,0.1-1.4,0.3-2c0.2-0.6,0.5-1.1,0.9-1.5s0.9-0.7,1.5-1
			C151.2,230.7,151.8,230.6,152.5,230.6z M152.5,238.5c0.8,0,1.4-0.3,1.7-0.8c0.4-0.5,0.6-1.3,0.6-2.3c0-1-0.2-1.8-0.6-2.3
			c-0.4-0.5-1-0.8-1.7-0.8c-0.8,0-1.4,0.3-1.8,0.8s-0.6,1.3-0.6,2.3s0.2,1.8,0.6,2.3C151.1,238.2,151.7,238.5,152.5,238.5z"/>
		<path class="st2" d="M166.2,240.1h-1c-0.2,0-0.4,0-0.5-0.1c-0.1-0.1-0.2-0.2-0.3-0.4l-0.2-0.7c-0.2,0.2-0.5,0.4-0.7,0.6
			c-0.2,0.2-0.5,0.3-0.7,0.4s-0.5,0.2-0.8,0.2c-0.3,0.1-0.6,0.1-0.9,0.1c-0.4,0-0.8-0.1-1.1-0.2c-0.3-0.1-0.6-0.3-0.9-0.5
			c-0.2-0.2-0.4-0.5-0.6-0.8c-0.1-0.3-0.2-0.7-0.2-1.1c0-0.4,0.1-0.7,0.3-1c0.2-0.3,0.5-0.7,0.9-0.9s1-0.5,1.7-0.7
			c0.7-0.2,1.6-0.3,2.7-0.3v-0.6c0-0.6-0.1-1.1-0.4-1.4c-0.3-0.3-0.6-0.5-1.2-0.5c-0.4,0-0.7,0-0.9,0.1s-0.5,0.2-0.6,0.3
			c-0.2,0.1-0.3,0.2-0.5,0.3c-0.2,0.1-0.3,0.1-0.5,0.1c-0.2,0-0.3,0-0.4-0.1c-0.1-0.1-0.2-0.2-0.3-0.3l-0.4-0.7
			c1.1-1,2.4-1.5,3.9-1.5c0.5,0,1,0.1,1.5,0.3c0.4,0.2,0.8,0.4,1.1,0.7c0.3,0.3,0.5,0.7,0.7,1.1c0.2,0.4,0.2,0.9,0.2,1.5V240.1z
			 M161.8,238.7c0.2,0,0.4,0,0.6-0.1c0.2,0,0.4-0.1,0.6-0.2c0.2-0.1,0.3-0.2,0.5-0.3c0.2-0.1,0.3-0.3,0.5-0.4v-1.6
			c-0.7,0-1.2,0-1.6,0.1c-0.4,0.1-0.8,0.2-1.1,0.3s-0.5,0.3-0.6,0.5c-0.1,0.2-0.2,0.4-0.2,0.6c0,0.4,0.1,0.7,0.4,0.9
			C161.1,238.6,161.4,238.7,161.8,238.7z"/>
		<path class="st2" d="M175,232.7c-0.1,0.1-0.1,0.2-0.2,0.2c-0.1,0-0.2,0.1-0.3,0.1c-0.1,0-0.2,0-0.3-0.1c-0.1-0.1-0.2-0.1-0.4-0.2
			c-0.2-0.1-0.3-0.2-0.5-0.2s-0.5-0.1-0.8-0.1c-0.4,0-0.7,0.1-1,0.2s-0.5,0.3-0.7,0.6c-0.2,0.3-0.3,0.6-0.4,1
			c-0.1,0.4-0.1,0.8-0.1,1.3c0,0.5,0.1,0.9,0.2,1.3s0.3,0.7,0.5,1c0.2,0.3,0.4,0.5,0.7,0.6c0.3,0.1,0.6,0.2,1,0.2
			c0.4,0,0.6,0,0.9-0.1s0.4-0.2,0.6-0.3c0.2-0.1,0.3-0.2,0.4-0.3c0.1-0.1,0.2-0.1,0.4-0.1c0.2,0,0.3,0.1,0.4,0.2l0.6,0.8
			c-0.2,0.3-0.5,0.5-0.8,0.7c-0.3,0.2-0.6,0.4-0.9,0.5c-0.3,0.1-0.6,0.2-1,0.2c-0.3,0-0.7,0.1-1,0.1c-0.6,0-1.1-0.1-1.6-0.3
			c-0.5-0.2-1-0.5-1.3-0.9s-0.7-0.9-0.9-1.5c-0.2-0.6-0.3-1.3-0.3-2c0-0.7,0.1-1.3,0.3-1.9s0.5-1.1,0.9-1.5s0.9-0.8,1.4-1
			c0.6-0.2,1.2-0.4,2-0.4c0.7,0,1.3,0.1,1.8,0.3c0.5,0.2,1,0.5,1.4,1L175,232.7z"/>
		<path class="st2" d="M177.1,240.1v-13.6h2.3v5.2c0.4-0.3,0.8-0.6,1.2-0.8c0.4-0.2,1-0.3,1.5-0.3c0.5,0,1,0.1,1.4,0.3
			s0.7,0.4,1,0.7c0.3,0.3,0.5,0.7,0.6,1.1s0.2,0.9,0.2,1.4v6H183v-6c0-0.6-0.1-1-0.4-1.3s-0.7-0.5-1.2-0.5c-0.4,0-0.8,0.1-1.1,0.3
			c-0.3,0.2-0.7,0.4-1,0.7v6.8H177.1z"/>
	</g>
	<g>
		<circle class="st3" cx="226.3" cy="308.9" r="51.7"/>
		<path class="st2" d="M226.3,364.6c-30.7,0-55.7-25-55.7-55.7s25-55.7,55.7-55.7s55.7,25,55.7,55.7S257,364.6,226.3,364.6z
			 M226.3,261.2c-26.3,0-47.7,21.4-47.7,47.7s21.4,47.7,47.7,47.7s47.7-21.4,47.7-47.7S252.6,261.2,226.3,261.2z"/>
	</g>
	<g>
		<circle class="st3" cx="66.6" cy="110.4" r="51.7"/>
		<path class="st2" d="M66.6,166.1c-30.7,0-55.7-25-55.7-55.7c0-30.7,25-55.7,55.7-55.7c30.7,0,55.7,25,55.7,55.7
			C122.3,141.1,97.3,166.1,66.6,166.1z M66.6,62.7c-26.3,0-47.7,21.4-47.7,47.7s21.4,47.7,47.7,47.7s47.7-21.4,47.7-47.7
			S92.9,62.7,66.6,62.7z"/>
	</g>
	<g class="st1">
		<path class="st2" d="M62.2,115.1h-1.1c-0.1,0-0.2,0-0.3-0.1c-0.1-0.1-0.1-0.1-0.2-0.2l-0.6-1.5H57l-0.6,1.5c0,0.1-0.1,0.2-0.2,0.2
			c-0.1,0.1-0.2,0.1-0.3,0.1h-1.1l2.9-7.5h1.4L62.2,115.1z M57.3,112.3h2.4l-0.9-2.5c0-0.1-0.1-0.2-0.1-0.4c0-0.2-0.1-0.3-0.1-0.5
			c0,0.2-0.1,0.3-0.1,0.5s-0.1,0.3-0.1,0.4L57.3,112.3z"/>
		<path class="st2" d="M64.7,109.8c0.2,0,0.4,0,0.6,0.1c0.2,0,0.4,0.1,0.5,0.2h1.5v0.5c0,0.1,0,0.1-0.1,0.2c0,0-0.1,0.1-0.2,0.1
			l-0.5,0.1c0,0.1,0.1,0.2,0.1,0.3c0,0.1,0,0.2,0,0.3c0,0.3-0.1,0.5-0.2,0.7c-0.1,0.2-0.2,0.4-0.4,0.5c-0.2,0.1-0.4,0.3-0.7,0.3
			s-0.5,0.1-0.8,0.1c-0.2,0-0.4,0-0.6-0.1c-0.2,0.1-0.2,0.2-0.2,0.3c0,0.1,0,0.2,0.1,0.2c0.1,0.1,0.2,0.1,0.4,0.1c0.2,0,0.3,0,0.5,0
			c0.2,0,0.4,0,0.6,0c0.2,0,0.4,0,0.6,0.1c0.2,0,0.4,0.1,0.5,0.2c0.2,0.1,0.3,0.2,0.4,0.4c0.1,0.2,0.1,0.4,0.1,0.6
			c0,0.2-0.1,0.5-0.2,0.7s-0.3,0.4-0.5,0.6c-0.2,0.2-0.5,0.3-0.8,0.4s-0.7,0.2-1.1,0.2c-0.4,0-0.8,0-1-0.1c-0.3-0.1-0.5-0.2-0.7-0.3
			c-0.2-0.1-0.3-0.3-0.4-0.4c-0.1-0.2-0.1-0.3-0.1-0.5c0-0.2,0.1-0.5,0.2-0.6c0.2-0.2,0.4-0.3,0.6-0.4c-0.1-0.1-0.2-0.2-0.3-0.3
			c-0.1-0.1-0.1-0.3-0.1-0.5c0-0.1,0-0.2,0-0.2c0-0.1,0.1-0.2,0.1-0.2c0.1-0.1,0.1-0.2,0.2-0.2c0.1-0.1,0.2-0.1,0.3-0.2
			c-0.3-0.1-0.5-0.3-0.6-0.6c-0.2-0.2-0.2-0.5-0.2-0.8c0-0.3,0.1-0.5,0.2-0.7c0.1-0.2,0.3-0.4,0.4-0.5c0.2-0.2,0.4-0.3,0.7-0.3
			S64.4,109.8,64.7,109.8z M66.1,115.4c0-0.1,0-0.2-0.1-0.3c-0.1-0.1-0.1-0.1-0.3-0.2c-0.1,0-0.2-0.1-0.4-0.1s-0.3,0-0.5,0
			c-0.2,0-0.3,0-0.5,0c-0.2,0-0.3,0-0.5-0.1c-0.1,0.1-0.3,0.2-0.3,0.3s-0.1,0.2-0.1,0.4c0,0.1,0,0.2,0.1,0.3s0.1,0.2,0.2,0.2
			c0.1,0.1,0.2,0.1,0.4,0.1c0.2,0,0.4,0,0.6,0c0.2,0,0.4,0,0.6-0.1s0.3-0.1,0.4-0.2c0.1-0.1,0.2-0.1,0.2-0.2
			C66.1,115.6,66.1,115.5,66.1,115.4z M64.7,112.4c0.2,0,0.3,0,0.4-0.1c0.1,0,0.2-0.1,0.3-0.2c0.1-0.1,0.1-0.2,0.2-0.3
			s0.1-0.2,0.1-0.4c0-0.3-0.1-0.5-0.2-0.6c-0.2-0.2-0.4-0.2-0.7-0.2s-0.5,0.1-0.7,0.2c-0.2,0.2-0.2,0.4-0.2,0.6c0,0.1,0,0.2,0.1,0.3
			c0,0.1,0.1,0.2,0.2,0.3c0.1,0.1,0.2,0.1,0.3,0.2S64.5,112.4,64.7,112.4z"/>
		<path class="st2" d="M69.8,108.3c0,0.1,0,0.2-0.1,0.3c0,0.1-0.1,0.2-0.2,0.3c-0.1,0.1-0.2,0.1-0.3,0.2c-0.1,0-0.2,0.1-0.3,0.1
			c-0.1,0-0.2,0-0.3-0.1s-0.2-0.1-0.3-0.2s-0.1-0.2-0.2-0.3s-0.1-0.2-0.1-0.3c0-0.1,0-0.2,0.1-0.3c0-0.1,0.1-0.2,0.2-0.3
			s0.2-0.1,0.3-0.2s0.2-0.1,0.3-0.1c0.1,0,0.2,0,0.3,0.1c0.1,0,0.2,0.1,0.3,0.2c0.1,0.1,0.1,0.2,0.2,0.3
			C69.7,108.1,69.8,108.2,69.8,108.3z M69.6,109.9v5.3h-1.3v-5.3H69.6z"/>
		<path class="st2" d="M72.4,107.5v7.7h-1.3v-7.7H72.4z"/>
		<path class="st2" d="M76,109.8c0.3,0,0.6,0.1,0.9,0.2s0.5,0.3,0.7,0.5c0.2,0.2,0.4,0.5,0.5,0.8c0.1,0.3,0.2,0.6,0.2,1
			c0,0.1,0,0.2,0,0.2c0,0.1,0,0.1,0,0.1s-0.1,0.1-0.1,0.1c0,0-0.1,0-0.1,0h-3.3c0,0.5,0.2,0.9,0.4,1.2c0.3,0.3,0.6,0.4,1,0.4
			c0.2,0,0.4,0,0.5-0.1c0.1,0,0.3-0.1,0.4-0.2s0.2-0.1,0.3-0.2c0.1,0,0.2-0.1,0.2-0.1c0.1,0,0.1,0,0.1,0c0,0,0.1,0,0.1,0.1l0.4,0.5
			c-0.1,0.2-0.3,0.3-0.5,0.4c-0.2,0.1-0.4,0.2-0.5,0.3c-0.2,0.1-0.4,0.1-0.6,0.1s-0.4,0-0.6,0c-0.4,0-0.7-0.1-1-0.2
			c-0.3-0.1-0.6-0.3-0.8-0.5c-0.2-0.2-0.4-0.5-0.6-0.9s-0.2-0.8-0.2-1.2c0-0.4,0.1-0.7,0.2-1c0.1-0.3,0.3-0.6,0.5-0.8
			c0.2-0.2,0.5-0.4,0.8-0.6C75.2,109.8,75.6,109.8,76,109.8z M76,110.7c-0.4,0-0.7,0.1-0.9,0.3c-0.2,0.2-0.3,0.5-0.4,0.9h2.4
			c0-0.2,0-0.3-0.1-0.5c0-0.1-0.1-0.3-0.2-0.4c-0.1-0.1-0.2-0.2-0.4-0.3S76.2,110.7,76,110.7z"/>
	</g>
	<g>
		<path class="st4" d="M126,90.1h-5.4l5.4,25c0,0,13.8,8.3,14.8,8.6c1.1,0.3,24.6-11.5,24.6-11.5V88.6L126,90.1L126,90.1z"/>
	</g>
	<g>
		<path class="st5" d="M95,81.4c-0.5,0-0.3,0.8-0.6-2.2c-0.3-3.1-0.9-4.7-2-6l-1.8-1.8c0.4-1.8,0.9-3.5,0.9-3.5
			c-0.7-1-0.6-1.5-0.6-1.5c-1.1-1-1.8-0.6-1.8-0.6s0.3-0.6-0.3-1S87,65,87,64.9s0.2-1-0.4-1s-1.1,0-1.7,0.6S81,69.4,81,69.4
			l-1.3,5.9l1.3,1.2c0,0,0,1.6,0.6,1.9s1.7,0.3,1.7,0.3l11.2,5.2C94.4,83.9,95,81.4,95,81.4z"/>
	</g>
	<g>
		<path class="st5" d="M198.2,83.4c0.5,0,0.3,0.8,0.6-2.2c0.3-3.1,0.9-4.7,2-6l1.8-1.8c-0.4-1.8-0.9-3.5-0.9-3.5
			c0.6-1,0.6-1.5,0.6-1.5c1.1-1,1.8-0.6,1.8-0.6s-0.3-0.6,0.4-1s1.8,0.1,1.8,0s-0.2-1,0.4-1s1.1,0,1.7,0.6s3.9,4.9,3.9,4.9l1.3,5.9
			l-1.3,1.2c0,0,0,1.6-0.6,1.9s-1.7,0.3-1.7,0.3L198.9,86L198.2,83.4L198.2,83.4z"/>
	</g>
	<g>
		<path class="st6" d="M152.7,42.6l15.5,6.1c0,0,13.7,28,17,28.1s15.5-1.2,15.5-1.2l2.3,13c0,0-22.9,1.6-24.3,0
			c-2.6-3.5-12-16.8-12-16.8s-0.9,11.6,0,15.1s2.6,7.6,2.6,7.6s-10.5,16.3-24.7,3.4c-13.2,15.6-21.3-6.1-21.3-6.1s1.9-0.9,2.4-5.2
			c0.5-4.3-1.7-16.5-1.7-16.5s-9.7,17.2-13,18.1c-13.7-0.7-21.7-2.6-21.7-2.6l5.7-9.6c0,0,7.5,3.1,11.6-0.3c0,0,13-27.8,14.6-28.1
			c5-1.6,16-4.9,16-4.9L152.7,42.6L152.7,42.6z"/>
	</g>
	<g>
		<path class="st7" d="M152.7,42.6c0,0-6.1,16.5-8.2,28.9c-2.7,15.6,4.2,34.6-10.9,34.6c-10.9,0-10.4-14.4-10.4-14.4
			s1.9-0.9,2.4-5.2c0.5-4.3-1.7-16.5-1.7-16.5s-9.7,17.2-13,18.1c-13.7-0.7-21.7-2.6-21.7-2.6l5.7-9.6c0,0,7.5,3.1,11.6-0.3
			c0,0,13-27.8,14.6-28.1c5-1.6,16-4.9,16-4.9L152.7,42.6L152.7,42.6z"/>
	</g>
	<g>
		<polygon class="st8" points="137.3,43.2 143.4,90.1 154.2,43.2 		"/>
	</g>
	<g>
		<path class="st0" d="M146.4,56.7c1.3-0.3,1.7-1,1.7-2.3c0-1.8-0.4-3.3-3.3-3.3c-3.3,0-3.3,1.5-3.3,3.3c0,1.2,0.3,1.9,1.2,2.2
			l-1.8,14l2.6,19.5l4.7-20.2L146.4,56.7L146.4,56.7z"/>
	</g>
	<g>
		<path class="st9" d="M151.7,121.3c0,0-8.1,7.9-11.7,8.3s-5.9,1-5.9,1s2.7-4.2,2.1-7.6c-0.6-3.3-3.9-2.2,1-3.8
			c4.9-1.6,9.8-4.3,9.8-4.3L151.7,121.3L151.7,121.3z"/>
	</g>
	<g>
		<path class="st9" d="M129.3,118c0,0-0.1,0,1.7-1.2c1.8-1.2,4.7-1.2,4.7-1.2s1.9-1.4,3.1-0.7c1.2,0.8,5.9,3.3,2.1,3.8
			s-3.4-0.5-2.8,1.7s1.1,6.9,0,8.2s-6.4,1.9-6.4,1.9c-4.2,0.5-7.3,2.6-9.4,1.6c-2.1-1-4.4-2.5-4.4-2.5s-2.2-2.5,0.8-6.9
			c0,0,1.9-3.5,3.3-4.6s0.7-1.6,1.3-1s0,0,0,0s4.6,2.1,5,2.1L129.3,118L129.3,118z"/>
	</g>
	<g>
		<polygon class="st5" points="137.3,43.7 137.3,36.2 155.2,35.2 154.2,43.7 144.3,52 		"/>
	</g>
	<g>
		<polygon class="st10" points="137.3,43.2 137.3,35.7 140.7,39 140.2,47.2 		"/>
	</g>
	<g>
		<path class="st10" d="M145.8,43.2c-6.2,0-10.9-4.8-11.1-14.5c-0.2-7.5,1.8-10.5,8-11"/>
	</g>
	<g>
		<g>
			<path class="st11" d="M133.6,30C133.6,30,133.6,30.1,133.6,30c0-0.2,0.1-0.5,0.2-0.6C133.7,29.6,133.6,29.8,133.6,30L133.6,30z"
				/>
		</g>
		<g>
			<path class="st11" d="M133.9,29.2C133.9,29.2,133.9,29.2,133.9,29.2C133.9,29.2,133.9,29.2,133.9,29.2z"/>
		</g>
		<g>
			<path class="st5" d="M157.2,33.8c0.3-0.5,0.6-1.2,0.8-2.1c0.2-0.9,0.2-1.5,0.1-2c-0.1-0.5-0.4-0.8-0.8-0.9c0,0,0,0-0.1,0
				c-0.1,0-0.3,0-0.4,0.1c0,0,0-0.1,0-0.1l0,0c0-0.4,0-0.9,0-1.3c-0.2-7.3-4.4-10.7-14.2-9.8c-5.7,0.5-7.7,3-8,9.3
				c0,0.5,0,1.1,0,1.7c-0.3,0.1-0.5,0.2-0.7,0.5c0,0,0,0,0,0c0,0-0.1,0.1-0.1,0.2c-0.1,0.2-0.1,0.4-0.2,0.7c0,0.3-0.1,0.7,0,1.2
				c0.1,1.5,0.7,2.5,1.5,3c0.2,0.1,0.8,0.2,1,0.3c1.7,5,5.5,8.7,10.1,8.7c4.9,0,8.2-2.7,9.8-8.8c0,0,0.1,0,0.1,0.1
				c0.1,0,0.1,0,0.2,0C156.6,34.5,157,34.3,157.2,33.8L157.2,33.8z"/>
		</g>
		<g>
			<path class="st11" d="M143.7,18.1c8.3-0.1,12.6,6.2,12.8,13.5c0-0.2,0.5-4.6,0.6-5c0.4-2.3,0.3-5.2-0.8-7.4
				c-0.6-1.3-1.6-2.1-3.1-2.3c-1-0.1-1.6-1.9-2.2-2.7c-0.5-0.7-0.9-1-3-1.1c-1-0.1-10.4-0.4-10.4,0.3c0,0.5,1.5,1.2,1.1,1.8
				c-0.1,0.2-1.9,1.5-3,3.1c-0.5,0.7-0.8,1.4-1,2.8c-0.2,1.4-0.2,3.6-0.1,5c0,0.3,0,5.2,0.1,5.5c0-0.6,0.1-1.2,0.1-1.8
				C135.5,24.1,138.5,18.2,143.7,18.1L143.7,18.1z"/>
		</g>
	</g>
	<g>
		<path class="st6" d="M143.5,126.2L142,124c-1.9-2.8-1.2-6.6,1.5-8.5l35.1-28.4c2.8-1.9,10-1.3,12,1.5l3,3.2
			c1.9,2.8,0.7,6.5-4.2,12.2L152,127.7C149.2,129.6,145.4,129,143.5,126.2L143.5,126.2z"/>
	</g>
	<g>
		<path class="st7" d="M147.1,121.8l-7.4,5.3c-2,1.7-3.8-0.5-7.9-4l-30.7-26.4c-1-0.9-1.3-4.8,0.9-7.3l3.9-4.6
			c2.2-2.6,6.1-2.8,8.6-0.7l32,31.1C149.2,117.5,149.3,119.2,147.1,121.8L147.1,121.8z"/>
	</g>
	<g>
		<path class="st9" d="M143.5,124.4c0,0,8.1,7.9,11.7,8.3c3.6,0.4,5.9,1,5.9,1s-2.7-4.2-2.1-7.6c0.6-3.3,3.9-2.2-1-3.8
			c-4.9-1.6-9.8-4.3-9.8-4.3L143.5,124.4L143.5,124.4z"/>
	</g>
	<g>
		<path class="st0" d="M165.9,121.1c0,0,0.1,0-1.7-1.2s-4.7-1.2-4.7-1.2s-1.9-1.4-3.1-0.7c-1.2,0.8-5.9,3.3-2.1,3.8s3.4-0.5,2.8,1.7
			s-1.1,6.9,0,8.2s6.4,1.9,6.4,1.9c4.2,0.5,7.3,2.6,9.4,1.6c2.1-1,4.4-2.5,4.4-2.5s2.2-2.5-0.8-6.9c0,0-1.9-3.5-3.3-4.6
			s-0.6-1.6-1.3-1s0,0,0,0s-4.6,2.1-4.9,2.1L165.9,121.1L165.9,121.1z"/>
	</g>
</g>
<g class="st1">
	<path class="st2" d="M208.3,305.2h-1.4v-7.5h1.4V305.2z"/>
	<path class="st2" d="M209.9,305.2v-5.3h0.8c0.2,0,0.3,0.1,0.3,0.2l0.1,0.4c0.1-0.1,0.2-0.2,0.3-0.3c0.1-0.1,0.2-0.2,0.4-0.2
		c0.1-0.1,0.3-0.1,0.4-0.1c0.2,0,0.3-0.1,0.5-0.1c0.3,0,0.5,0,0.8,0.1c0.2,0.1,0.4,0.2,0.6,0.4c0.2,0.2,0.3,0.4,0.3,0.6
		c0.1,0.2,0.1,0.5,0.1,0.8v3.4h-1.3v-3.4c0-0.3-0.1-0.6-0.2-0.8c-0.1-0.2-0.4-0.3-0.7-0.3c-0.2,0-0.4,0-0.6,0.1
		c-0.2,0.1-0.4,0.2-0.5,0.4v3.8H209.9z"/>
	<path class="st2" d="M219.5,305.2c-0.2,0-0.3-0.1-0.3-0.2l-0.1-0.5c-0.1,0.1-0.2,0.2-0.3,0.3c-0.1,0.1-0.3,0.2-0.4,0.3
		c-0.1,0.1-0.3,0.1-0.4,0.2c-0.2,0-0.3,0.1-0.5,0.1c-0.3,0-0.6-0.1-0.8-0.2c-0.2-0.1-0.4-0.3-0.6-0.5c-0.2-0.2-0.3-0.5-0.4-0.8
		s-0.1-0.7-0.1-1.2c0-0.4,0.1-0.8,0.2-1.1s0.3-0.6,0.5-0.9c0.2-0.2,0.4-0.4,0.7-0.6c0.3-0.1,0.6-0.2,0.9-0.2c0.3,0,0.5,0,0.8,0.1
		s0.4,0.2,0.6,0.4v-2.8h1.3v7.7H219.5z M217.8,304.2c0.3,0,0.5-0.1,0.7-0.2c0.2-0.1,0.4-0.3,0.5-0.5v-2.4c-0.1-0.2-0.3-0.3-0.5-0.4
		c-0.2-0.1-0.4-0.1-0.5-0.1c-0.2,0-0.4,0-0.5,0.1c-0.2,0.1-0.3,0.2-0.4,0.3c-0.1,0.1-0.2,0.3-0.3,0.6s-0.1,0.5-0.1,0.8
		c0,0.3,0,0.6,0.1,0.8s0.1,0.4,0.2,0.5s0.2,0.2,0.3,0.3C217.4,304.2,217.6,304.2,217.8,304.2z"/>
	<path class="st2" d="M222.8,299.9v3.4c0,0.3,0.1,0.6,0.2,0.8c0.1,0.2,0.4,0.3,0.7,0.3c0.2,0,0.4,0,0.6-0.1c0.2-0.1,0.4-0.2,0.5-0.4
		v-3.8h1.3v5.3h-0.8c-0.2,0-0.3-0.1-0.3-0.2l-0.1-0.4c-0.1,0.1-0.2,0.2-0.3,0.3s-0.2,0.2-0.4,0.2s-0.3,0.1-0.4,0.1
		c-0.2,0-0.3,0.1-0.5,0.1c-0.3,0-0.5,0-0.8-0.1c-0.2-0.1-0.4-0.2-0.6-0.4c-0.2-0.2-0.3-0.4-0.3-0.6c-0.1-0.2-0.1-0.5-0.1-0.8v-3.4
		H222.8z"/>
	<path class="st2" d="M230.6,300.9c0,0.1-0.1,0.1-0.1,0.1c0,0-0.1,0-0.1,0c-0.1,0-0.1,0-0.2-0.1c-0.1,0-0.2-0.1-0.2-0.1
		s-0.2-0.1-0.3-0.1c-0.1,0-0.3-0.1-0.4-0.1c-0.3,0-0.4,0.1-0.6,0.2c-0.1,0.1-0.2,0.2-0.2,0.4c0,0.1,0,0.2,0.1,0.3
		c0.1,0.1,0.2,0.1,0.3,0.2s0.3,0.1,0.4,0.2c0.2,0,0.3,0.1,0.5,0.2c0.2,0.1,0.3,0.1,0.5,0.2c0.2,0.1,0.3,0.2,0.4,0.3s0.2,0.2,0.3,0.4
		c0.1,0.2,0.1,0.3,0.1,0.5c0,0.3,0,0.5-0.1,0.7c-0.1,0.2-0.2,0.4-0.4,0.6c-0.2,0.2-0.4,0.3-0.7,0.4c-0.3,0.1-0.6,0.1-0.9,0.1
		c-0.2,0-0.4,0-0.5,0c-0.2,0-0.3-0.1-0.5-0.1c-0.2-0.1-0.3-0.1-0.4-0.2s-0.3-0.2-0.4-0.3l0.3-0.5c0-0.1,0.1-0.1,0.1-0.1
		c0.1,0,0.1,0,0.2,0s0.2,0,0.2,0.1s0.2,0.1,0.2,0.1s0.2,0.1,0.3,0.1c0.1,0,0.3,0.1,0.5,0.1c0.2,0,0.3,0,0.4-0.1s0.2-0.1,0.3-0.1
		s0.1-0.1,0.2-0.2c0-0.1,0-0.2,0-0.2c0-0.1,0-0.2-0.1-0.3c-0.1-0.1-0.2-0.1-0.3-0.2s-0.3-0.1-0.4-0.2c-0.2,0-0.3-0.1-0.5-0.2
		c-0.2-0.1-0.3-0.1-0.5-0.2s-0.3-0.2-0.4-0.3s-0.2-0.3-0.3-0.4c-0.1-0.2-0.1-0.4-0.1-0.6c0-0.2,0-0.4,0.1-0.6s0.2-0.4,0.4-0.5
		c0.2-0.1,0.4-0.3,0.6-0.4s0.5-0.1,0.9-0.1c0.4,0,0.7,0.1,1,0.2c0.3,0.1,0.5,0.3,0.7,0.5L230.6,300.9z"/>
	<path class="st2" d="M233.7,305.3c-0.5,0-0.8-0.1-1.1-0.4c-0.2-0.3-0.4-0.6-0.4-1.1v-3h-0.5c-0.1,0-0.1,0-0.2-0.1
		c0,0-0.1-0.1-0.1-0.2v-0.5l0.9-0.1l0.3-1.4c0-0.1,0-0.1,0.1-0.2s0.1-0.1,0.2-0.1h0.7v1.7h1.4v0.9h-1.4v2.9c0,0.2,0,0.3,0.1,0.4
		c0.1,0.1,0.2,0.1,0.3,0.1c0.1,0,0.1,0,0.2,0c0.1,0,0.1,0,0.1-0.1c0,0,0.1,0,0.1-0.1c0,0,0.1,0,0.1,0c0,0,0.1,0,0.1,0
		c0,0,0,0,0.1,0.1l0.4,0.6c-0.2,0.2-0.4,0.3-0.6,0.4S234,305.3,233.7,305.3z"/>
	<path class="st2" d="M236,305.2v-5.3h0.7c0.1,0,0.2,0,0.3,0.1c0.1,0,0.1,0.1,0.1,0.2l0.1,0.6c0.2-0.3,0.4-0.6,0.7-0.8
		c0.3-0.2,0.5-0.3,0.9-0.3c0.3,0,0.5,0.1,0.6,0.2l-0.2,1c0,0.1,0,0.1-0.1,0.1c0,0-0.1,0-0.1,0c-0.1,0-0.1,0-0.2,0
		c-0.1,0-0.2,0-0.4,0c-0.3,0-0.5,0.1-0.7,0.2s-0.3,0.4-0.5,0.6v3.3H236z"/>
	<path class="st2" d="M242.1,306.6c0,0.1-0.1,0.2-0.1,0.2c-0.1,0-0.2,0.1-0.3,0.1h-0.9l1-2.1l-2.1-4.9h1.1c0.1,0,0.2,0,0.2,0.1
		c0.1,0,0.1,0.1,0.1,0.2l1.1,2.7c0,0.1,0.1,0.2,0.1,0.3c0,0.1,0.1,0.2,0.1,0.3c0-0.1,0.1-0.2,0.1-0.3c0-0.1,0.1-0.2,0.1-0.3l1.1-2.7
		c0-0.1,0.1-0.1,0.1-0.2c0.1,0,0.1-0.1,0.2-0.1h1L242.1,306.6z"/>
</g>
<g class="st1">
	<path class="st2" d="M212.9,310.1v1.1h-3.3v2.2h2.8v1.1h-2.8v3h-1.4v-7.5H212.9z"/>
</g>
<g class="st1">
	<path class="st2" d="M215.9,312.2c0.4,0,0.8,0.1,1.1,0.2c0.3,0.1,0.6,0.3,0.8,0.5c0.2,0.2,0.4,0.5,0.5,0.9c0.1,0.3,0.2,0.7,0.2,1.1
		c0,0.4-0.1,0.8-0.2,1.1c-0.1,0.3-0.3,0.6-0.5,0.9c-0.2,0.2-0.5,0.4-0.8,0.5c-0.3,0.1-0.7,0.2-1.1,0.2s-0.8-0.1-1.1-0.2
		c-0.3-0.1-0.6-0.3-0.8-0.5c-0.2-0.2-0.4-0.5-0.5-0.9c-0.1-0.3-0.2-0.7-0.2-1.1c0-0.4,0.1-0.8,0.2-1.1c0.1-0.3,0.3-0.6,0.5-0.9
		c0.2-0.2,0.5-0.4,0.8-0.5C215.1,312.2,215.5,312.2,215.9,312.2z M215.9,316.6c0.4,0,0.8-0.1,1-0.4c0.2-0.3,0.3-0.7,0.3-1.3
		c0-0.6-0.1-1-0.3-1.3c-0.2-0.3-0.5-0.4-1-0.4c-0.4,0-0.8,0.2-1,0.5c-0.2,0.3-0.3,0.7-0.3,1.3c0,0.6,0.1,1,0.3,1.3
		C215.1,316.5,215.4,316.6,215.9,316.6z"/>
	<path class="st2" d="M223.2,313.4c0,0-0.1,0.1-0.1,0.1c0,0-0.1,0-0.2,0c-0.1,0-0.1,0-0.2-0.1c-0.1,0-0.1-0.1-0.2-0.1
		s-0.2-0.1-0.3-0.1c-0.1,0-0.3-0.1-0.4-0.1c-0.2,0-0.4,0-0.6,0.1c-0.2,0.1-0.3,0.2-0.4,0.3c-0.1,0.2-0.2,0.3-0.2,0.5
		s-0.1,0.5-0.1,0.7c0,0.3,0,0.5,0.1,0.8c0.1,0.2,0.1,0.4,0.3,0.6c0.1,0.2,0.3,0.3,0.4,0.3c0.2,0.1,0.3,0.1,0.5,0.1
		c0.2,0,0.4,0,0.5-0.1c0.1,0,0.2-0.1,0.3-0.2c0.1-0.1,0.2-0.1,0.2-0.2s0.1-0.1,0.2-0.1c0.1,0,0.2,0,0.2,0.1l0.4,0.5
		c-0.1,0.2-0.3,0.3-0.5,0.4c-0.2,0.1-0.3,0.2-0.5,0.3c-0.2,0.1-0.4,0.1-0.5,0.1c-0.2,0-0.4,0-0.6,0c-0.3,0-0.6-0.1-0.9-0.2
		s-0.5-0.3-0.8-0.5c-0.2-0.2-0.4-0.5-0.5-0.9c-0.1-0.3-0.2-0.7-0.2-1.2c0-0.4,0.1-0.7,0.2-1.1c0.1-0.3,0.3-0.6,0.5-0.9
		c0.2-0.2,0.5-0.4,0.8-0.6c0.3-0.1,0.7-0.2,1.1-0.2c0.4,0,0.7,0.1,1,0.2c0.3,0.1,0.6,0.3,0.8,0.5L223.2,313.4z"/>
	<path class="st2" d="M225.6,312.3v3.4c0,0.3,0.1,0.6,0.2,0.8c0.1,0.2,0.4,0.3,0.7,0.3c0.2,0,0.4,0,0.6-0.1c0.2-0.1,0.4-0.2,0.5-0.4
		v-3.8h1.3v5.3h-0.8c-0.2,0-0.3-0.1-0.3-0.2l-0.1-0.4c-0.1,0.1-0.2,0.2-0.3,0.3c-0.1,0.1-0.2,0.2-0.4,0.2c-0.1,0.1-0.3,0.1-0.4,0.1
		s-0.3,0.1-0.5,0.1c-0.3,0-0.5,0-0.8-0.1s-0.4-0.2-0.6-0.4c-0.2-0.2-0.3-0.4-0.3-0.6s-0.1-0.5-0.1-0.8v-3.4H225.6z"/>
	<path class="st2" d="M233.4,313.3c0,0.1-0.1,0.1-0.1,0.1c0,0-0.1,0-0.1,0c-0.1,0-0.1,0-0.2-0.1s-0.2-0.1-0.2-0.1s-0.2-0.1-0.3-0.1
		c-0.1,0-0.3-0.1-0.4-0.1c-0.3,0-0.4,0.1-0.6,0.2s-0.2,0.2-0.2,0.4c0,0.1,0,0.2,0.1,0.3c0.1,0.1,0.2,0.1,0.3,0.2s0.3,0.1,0.4,0.2
		c0.2,0,0.3,0.1,0.5,0.2c0.2,0.1,0.3,0.1,0.5,0.2c0.2,0.1,0.3,0.2,0.4,0.3s0.2,0.2,0.3,0.4s0.1,0.3,0.1,0.5c0,0.3,0,0.5-0.1,0.7
		s-0.2,0.4-0.4,0.6c-0.2,0.2-0.4,0.3-0.7,0.4c-0.3,0.1-0.6,0.1-0.9,0.1c-0.2,0-0.4,0-0.5,0c-0.2,0-0.3-0.1-0.5-0.1s-0.3-0.1-0.4-0.2
		c-0.1-0.1-0.3-0.2-0.4-0.3l0.3-0.5c0-0.1,0.1-0.1,0.1-0.1c0.1,0,0.1,0,0.2,0c0.1,0,0.2,0,0.2,0.1c0.1,0,0.2,0.1,0.2,0.1
		s0.2,0.1,0.3,0.1c0.1,0,0.3,0.1,0.5,0.1c0.2,0,0.3,0,0.4-0.1s0.2-0.1,0.3-0.1s0.1-0.1,0.2-0.2c0-0.1,0-0.2,0-0.2
		c0-0.1,0-0.2-0.1-0.3c-0.1-0.1-0.2-0.1-0.3-0.2s-0.3-0.1-0.4-0.2c-0.2,0-0.3-0.1-0.5-0.2s-0.3-0.1-0.5-0.2
		c-0.2-0.1-0.3-0.2-0.4-0.3s-0.2-0.3-0.3-0.4s-0.1-0.4-0.1-0.6c0-0.2,0-0.4,0.1-0.6s0.2-0.4,0.4-0.5c0.2-0.1,0.4-0.3,0.6-0.4
		c0.2-0.1,0.5-0.1,0.9-0.1c0.4,0,0.7,0.1,1,0.2c0.3,0.1,0.5,0.3,0.7,0.5L233.4,313.3z"/>
	<path class="st2" d="M237,312.2c0.3,0,0.6,0.1,0.9,0.2s0.5,0.3,0.7,0.5c0.2,0.2,0.4,0.5,0.5,0.8c0.1,0.3,0.2,0.6,0.2,1
		c0,0.1,0,0.2,0,0.2s0,0.1,0,0.1s-0.1,0.1-0.1,0.1c0,0-0.1,0-0.1,0h-3.3c0,0.5,0.2,0.9,0.4,1.2s0.6,0.4,1,0.4c0.2,0,0.4,0,0.5-0.1
		c0.1,0,0.3-0.1,0.4-0.2c0.1-0.1,0.2-0.1,0.3-0.2c0.1,0,0.2-0.1,0.2-0.1c0.1,0,0.1,0,0.1,0c0,0,0.1,0,0.1,0.1l0.4,0.5
		c-0.1,0.2-0.3,0.3-0.5,0.4c-0.2,0.1-0.4,0.2-0.5,0.3c-0.2,0.1-0.4,0.1-0.6,0.1c-0.2,0-0.4,0-0.6,0c-0.4,0-0.7-0.1-1-0.2
		s-0.6-0.3-0.8-0.5c-0.2-0.2-0.4-0.5-0.6-0.9c-0.1-0.4-0.2-0.8-0.2-1.2c0-0.4,0.1-0.7,0.2-1c0.1-0.3,0.3-0.6,0.5-0.8
		s0.5-0.4,0.8-0.6S236.6,312.2,237,312.2z M237,313.1c-0.4,0-0.7,0.1-0.9,0.3c-0.2,0.2-0.3,0.5-0.4,0.9h2.4c0-0.2,0-0.3-0.1-0.5
		c0-0.1-0.1-0.3-0.2-0.4s-0.2-0.2-0.4-0.3C237.3,313.1,237.2,313.1,237,313.1z"/>
	<path class="st2" d="M244,317.5c-0.2,0-0.3-0.1-0.3-0.2l-0.1-0.5c-0.1,0.1-0.2,0.2-0.3,0.3c-0.1,0.1-0.3,0.2-0.4,0.3
		c-0.1,0.1-0.3,0.1-0.4,0.2c-0.2,0-0.3,0.1-0.5,0.1c-0.3,0-0.6-0.1-0.8-0.2c-0.2-0.1-0.4-0.3-0.6-0.5c-0.2-0.2-0.3-0.5-0.4-0.8
		s-0.1-0.7-0.1-1.2c0-0.4,0.1-0.8,0.2-1.1s0.3-0.6,0.5-0.9c0.2-0.2,0.4-0.4,0.7-0.6c0.3-0.1,0.6-0.2,0.9-0.2c0.3,0,0.5,0,0.8,0.1
		s0.4,0.2,0.6,0.4v-2.8h1.3v7.7H244z M242.3,316.6c0.3,0,0.5-0.1,0.7-0.2c0.2-0.1,0.4-0.3,0.5-0.5v-2.4c-0.1-0.2-0.3-0.3-0.5-0.4
		c-0.2-0.1-0.4-0.1-0.5-0.1c-0.2,0-0.4,0-0.5,0.1c-0.2,0.1-0.3,0.2-0.4,0.3c-0.1,0.1-0.2,0.3-0.3,0.6s-0.1,0.5-0.1,0.8
		c0,0.3,0,0.6,0.1,0.8s0.1,0.4,0.2,0.5s0.2,0.2,0.3,0.3C242,316.6,242.2,316.6,242.3,316.6z"/>
</g>
</svg>
