<?xml version="1.0" encoding="UTF-8"?>
<svg id="Layer_1" data-name="Layer 1" xmlns="http://www.w3.org/2000/svg" xmlns:xlink="http://www.w3.org/1999/xlink" viewBox="0 0 422 325">
  <defs>
    <style>
      .cls-1 {
        fill: none;
      }

      .cls-2 {
        clip-path: url(#clippath);
      }

      .cls-3 {
        fill: #f79e64;
      }

      .cls-4 {
        fill: #00476b;
      }

      .cls-5 {
        fill: #002b48;
      }

      .cls-6 {
        fill: #fff;
      }

      .cls-7 {
        fill: #f1f1f2;
      }

      .cls-8 {
        fill: #fed0ac;
      }

      .cls-9 {
        fill: #800952;
      }

      .cls-10 {
        fill: #98daf8;
      }

      .cls-11 {
        fill: #991763;
      }

      .cls-12 {
        fill: #929497;
      }

      .cls-13 {
        fill: #a6a8ab;
      }

      .cls-14 {
        fill: #bbbdbf;
      }

      .cls-15 {
        fill: #d0d2d3;
      }

      .cls-16 {
        fill: #a87c4f;
      }

      .cls-17 {
        fill: #8a5d3b;
      }

      .cls-18 {
        fill: #a36941;
      }

      .cls-19, .cls-20 {
        fill: #6d6e70;
      }

      .cls-21 {
        fill: #808184;
      }

      .cls-22 {
        fill: #754c28;
      }

      .cls-23 {
        fill: #4f8890;
      }

      .cls-24 {
        opacity: .43;
      }

      .cls-25 {
        opacity: .46;
      }

      .cls-20 {
        opacity: .27;
      }
    </style>
    <clipPath id="clippath">
      <path class="cls-1" d="m311.04,293.19l-261.94-.05c-29.52,0-48.93-23.86-43.12-53.01L40.68,65.84c5.8-29.15,34.71-52.99,64.23-52.99l261.94.05c29.52,0,48.93,23.86,43.12,53.01l-34.71,174.29c-5.8,29.15-34.71,52.99-64.23,52.99Z"/>
    </clipPath>
  </defs>
  <g class="cls-24">
    <g class="cls-2">
      <g>
        <path class="cls-14" d="m179.66,59.01h-14.38s-15.36,87.98-16.99,116.11c-1.62,28.14-4.59,125.01-4.59,125.01h37.65l-7.55-146.88,5.85-94.24Z"/>
        <path class="cls-6" d="m165.28,300.14s-14.38-81.95-17.34-130.23c-2.96-48.28-4.23-108.35-4.23-108.35l21.57-2.54s6.77,74.09,9.31,103.04c2.54,28.95,6.77,114.54,6.77,114.54v23.55h-16.07Z"/>
        <rect class="cls-14" x="73.48" y="111.89" width="45.26" height="163.03"/>
        <rect class="cls-15" x="73.48" y="100.98" width="45.26" height="10.91"/>
        <rect class="cls-6" x="73.48" y="92.63" width="45.26" height="9.05"/>
        <rect class="cls-12" x="65.44" y="102.33" width="8.04" height="172.59"/>
        <rect class="cls-12" x="57.83" y="273.9" width="74.03" height="26.24"/>
        <g>
          <rect class="cls-21" x="251.15" y="102.33" width="27.92" height="184.69"/>
          <circle class="cls-13" cx="256.65" cy="151.26" r="12.12"/>
          <rect class="cls-12" x="241" y="151.26" width="31.3" height="135.75"/>
          <g class="cls-25">
            <rect class="cls-19" x="243.11" y="157.72" width="5.38" height="2.63" rx="1.22" ry="1.22"/>
            <rect class="cls-19" x="264.81" y="157.72" width="5.38" height="2.63" rx="1.22" ry="1.22"/>
            <rect class="cls-19" x="251.22" y="157.72" width="7.96" height="2.63" rx="1.22" ry="1.22"/>
            <rect class="cls-19" x="243.11" y="168.25" width="5.38" height="2.63" rx="1.22" ry="1.22"/>
            <rect class="cls-19" x="264.81" y="168.25" width="5.38" height="2.63" rx="1.22" ry="1.22"/>
            <rect class="cls-19" x="251.22" y="168.25" width="7.96" height="2.63" rx="1.22" ry="1.22"/>
            <rect class="cls-19" x="264.81" y="178.78" width="5.38" height="2.63" rx="1.22" ry="1.22"/>
            <rect class="cls-19" x="251.22" y="178.78" width="7.96" height="2.63" rx="1.22" ry="1.22"/>
            <rect class="cls-19" x="243.11" y="189.31" width="5.38" height="2.63" rx="1.22" ry="1.22"/>
            <rect class="cls-19" x="264.81" y="189.31" width="5.38" height="2.63" rx="1.22" ry="1.22"/>
            <rect class="cls-19" x="243.11" y="199.84" width="5.38" height="2.63" rx="1.22" ry="1.22"/>
            <rect class="cls-19" x="251.22" y="199.84" width="7.96" height="2.63" rx="1.22" ry="1.22"/>
            <rect class="cls-19" x="251.22" y="210.37" width="7.96" height="2.63" rx="1.22" ry="1.22"/>
            <rect class="cls-19" x="243.11" y="220.9" width="5.38" height="2.63" rx="1.22" ry="1.22"/>
            <rect class="cls-19" x="251.22" y="220.9" width="7.96" height="2.63" rx="1.22" ry="1.22"/>
            <rect class="cls-19" x="243.11" y="231.43" width="5.38" height="2.63" rx="1.22" ry="1.22"/>
            <rect class="cls-19" x="243.11" y="241.96" width="5.38" height="2.63" rx="1.22" ry="1.22"/>
            <rect class="cls-19" x="251.22" y="241.96" width="7.96" height="2.63" rx="1.22" ry="1.22"/>
            <rect class="cls-19" x="251.22" y="252.49" width="7.96" height="2.63" rx="1.22" ry="1.22"/>
            <rect class="cls-19" x="243.11" y="263.02" width="5.38" height="2.63" rx="1.22" ry="1.22"/>
            <rect class="cls-19" x="251.22" y="263.02" width="7.96" height="2.63" rx="1.22" ry="1.22"/>
          </g>
          <rect class="cls-13" x="216.89" y="167.03" width="32.57" height="119.99"/>
          <circle class="cls-13" cx="233.17" cy="167.03" r="12.12"/>
          <rect class="cls-21" x="343.37" y="99.23" width="32.15" height="187.79"/>
          <g>
            <rect class="cls-14" x="298.53" y="102.33" width="35.96" height="184.69"/>
            <rect class="cls-12" x="295.99" y="169.9" width="41.03" height="6.88"/>
            <rect class="cls-12" x="295.99" y="114.6" width="41.03" height="6.88"/>
            <rect class="cls-12" x="295.99" y="228.34" width="41.03" height="6.88"/>
          </g>
          <rect class="cls-12" x="337.03" y="151.26" width="26.65" height="135.75"/>
          <rect class="cls-12" x="206.31" y="287.02" width="169.21" height="13.12"/>
          <rect class="cls-20" x="302.97" y="122.82" width="5.38" height="2.63" rx="1.22" ry="1.22"/>
          <rect class="cls-20" x="324.67" y="122.82" width="5.38" height="2.63" rx="1.22" ry="1.22"/>
          <rect class="cls-20" x="311.08" y="122.82" width="7.96" height="2.63" rx="1.22" ry="1.22"/>
          <rect class="cls-20" x="302.97" y="133.35" width="5.38" height="2.63" rx="1.22" ry="1.22"/>
          <rect class="cls-20" x="324.67" y="133.35" width="5.38" height="2.63" rx="1.22" ry="1.22"/>
          <rect class="cls-20" x="311.08" y="133.35" width="7.96" height="2.63" rx="1.22" ry="1.22"/>
          <rect class="cls-20" x="324.67" y="143.88" width="5.38" height="2.63" rx="1.22" ry="1.22"/>
          <rect class="cls-20" x="311.08" y="143.88" width="7.96" height="2.63" rx="1.22" ry="1.22"/>
          <rect class="cls-20" x="302.97" y="154.41" width="5.38" height="2.63" rx="1.22" ry="1.22"/>
          <rect class="cls-20" x="324.67" y="154.41" width="5.38" height="2.63" rx="1.22" ry="1.22"/>
          <rect class="cls-20" x="302.97" y="164.94" width="5.38" height="2.63" rx="1.22" ry="1.22"/>
          <rect class="cls-20" x="311.08" y="164.94" width="7.96" height="2.63" rx="1.22" ry="1.22"/>
          <rect class="cls-20" x="302.97" y="186" width="5.38" height="2.63" rx="1.22" ry="1.22"/>
          <rect class="cls-20" x="311.08" y="186" width="7.96" height="2.63" rx="1.22" ry="1.22"/>
          <rect class="cls-20" x="302.97" y="196.53" width="5.38" height="2.63" rx="1.22" ry="1.22"/>
          <rect class="cls-20" x="302.97" y="207.06" width="5.38" height="2.63" rx="1.22" ry="1.22"/>
          <rect class="cls-20" x="311.08" y="207.06" width="7.96" height="2.63" rx="1.22" ry="1.22"/>
          <rect class="cls-20" x="311.08" y="217.59" width="7.96" height="2.63" rx="1.22" ry="1.22"/>
          <rect class="cls-20" x="301.52" y="246.17" width="5.38" height="2.63" rx="1.22" ry="1.22"/>
          <rect class="cls-20" x="323.22" y="246.17" width="5.38" height="2.63" rx="1.22" ry="1.22"/>
          <rect class="cls-20" x="309.63" y="246.17" width="7.96" height="2.63" rx="1.22" ry="1.22"/>
          <rect class="cls-20" x="301.52" y="256.7" width="5.38" height="2.63" rx="1.22" ry="1.22"/>
          <rect class="cls-20" x="323.22" y="256.7" width="5.38" height="2.63" rx="1.22" ry="1.22"/>
          <rect class="cls-20" x="309.63" y="256.7" width="7.96" height="2.63" rx="1.22" ry="1.22"/>
          <rect class="cls-20" x="323.22" y="267.23" width="5.38" height="2.63" rx="1.22" ry="1.22"/>
          <rect class="cls-20" x="309.63" y="267.23" width="7.96" height="2.63" rx="1.22" ry="1.22"/>
          <rect class="cls-20" x="323.22" y="277.76" width="5.38" height="2.63" rx="1.22" ry="1.22"/>
          <g class="cls-25">
            <rect class="cls-19" x="345.91" y="159.04" width="5.38" height="2.63" rx="1.22" ry="1.22"/>
            <rect class="cls-19" x="354.02" y="159.04" width="7.96" height="2.63" rx="1.22" ry="1.22"/>
            <rect class="cls-19" x="345.91" y="169.57" width="5.38" height="2.63" rx="1.22" ry="1.22"/>
            <rect class="cls-19" x="354.02" y="169.57" width="7.96" height="2.63" rx="1.22" ry="1.22"/>
            <rect class="cls-19" x="354.02" y="180.1" width="7.96" height="2.63" rx="1.22" ry="1.22"/>
            <rect class="cls-19" x="345.91" y="190.63" width="5.38" height="2.63" rx="1.22" ry="1.22"/>
            <rect class="cls-19" x="345.91" y="201.16" width="5.38" height="2.63" rx="1.22" ry="1.22"/>
            <rect class="cls-19" x="354.02" y="201.16" width="7.96" height="2.63" rx="1.22" ry="1.22"/>
            <rect class="cls-19" x="354.02" y="211.69" width="7.96" height="2.63" rx="1.22" ry="1.22"/>
            <rect class="cls-19" x="345.91" y="222.22" width="5.38" height="2.63" rx="1.22" ry="1.22"/>
            <rect class="cls-19" x="354.02" y="222.22" width="7.96" height="2.63" rx="1.22" ry="1.22"/>
            <rect class="cls-19" x="345.91" y="232.75" width="5.38" height="2.63" rx="1.22" ry="1.22"/>
            <rect class="cls-19" x="345.91" y="243.28" width="5.38" height="2.63" rx="1.22" ry="1.22"/>
            <rect class="cls-19" x="354.02" y="243.28" width="7.96" height="2.63" rx="1.22" ry="1.22"/>
            <rect class="cls-19" x="354.02" y="253.81" width="7.96" height="2.63" rx="1.22" ry="1.22"/>
            <rect class="cls-19" x="345.91" y="264.33" width="5.38" height="2.63" rx="1.22" ry="1.22"/>
            <rect class="cls-19" x="354.02" y="264.33" width="7.96" height="2.63" rx="1.22" ry="1.22"/>
          </g>
        </g>
        <rect class="cls-19" x="77.29" y="118.85" width="5.38" height="2.63" rx="1.22" ry="1.22"/>
        <rect class="cls-19" x="98.98" y="118.85" width="5.38" height="2.63" rx="1.22" ry="1.22"/>
        <rect class="cls-19" x="67.77" y="118.85" width="3.38" height="2.63" rx="1.22" ry="1.22"/>
        <rect class="cls-19" x="85.4" y="118.85" width="7.96" height="2.63" rx="1.22" ry="1.22"/>
        <rect class="cls-19" x="77.29" y="131.37" width="5.38" height="2.63" rx="1.22" ry="1.22"/>
        <rect class="cls-19" x="98.98" y="131.37" width="5.38" height="2.63" rx="1.22" ry="1.22"/>
        <rect class="cls-19" x="67.77" y="131.37" width="3.38" height="2.63" rx="1.22" ry="1.22"/>
        <rect class="cls-19" x="77.29" y="143.89" width="5.38" height="2.63" rx="1.22" ry="1.22"/>
        <rect class="cls-19" x="98.98" y="143.89" width="5.38" height="2.63" rx="1.22" ry="1.22"/>
        <rect class="cls-19" x="67.77" y="143.89" width="3.38" height="2.63" rx="1.22" ry="1.22"/>
        <rect class="cls-19" x="85.4" y="143.89" width="7.96" height="2.63" rx="1.22" ry="1.22"/>
        <rect class="cls-19" x="77.29" y="156.41" width="5.38" height="2.63" rx="1.22" ry="1.22"/>
        <rect class="cls-19" x="98.98" y="156.41" width="5.38" height="2.63" rx="1.22" ry="1.22"/>
        <rect class="cls-19" x="67.77" y="156.41" width="3.38" height="2.63" rx="1.22" ry="1.22"/>
        <rect class="cls-19" x="77.29" y="168.93" width="5.38" height="2.63" rx="1.22" ry="1.22"/>
        <rect class="cls-19" x="98.98" y="168.93" width="5.38" height="2.63" rx="1.22" ry="1.22"/>
        <rect class="cls-19" x="85.4" y="168.93" width="7.96" height="2.63" rx="1.22" ry="1.22"/>
        <rect class="cls-19" x="77.29" y="181.45" width="5.38" height="2.63" rx="1.22" ry="1.22"/>
        <rect class="cls-19" x="98.98" y="181.45" width="5.38" height="2.63" rx="1.22" ry="1.22"/>
        <rect class="cls-19" x="67.77" y="181.45" width="3.38" height="2.63" rx="1.22" ry="1.22"/>
        <rect class="cls-19" x="77.29" y="193.97" width="5.38" height="2.63" rx="1.22" ry="1.22"/>
        <rect class="cls-19" x="67.77" y="193.97" width="3.38" height="2.63" rx="1.22" ry="1.22"/>
        <rect class="cls-19" x="77.29" y="206.49" width="5.38" height="2.63" rx="1.22" ry="1.22"/>
        <rect class="cls-19" x="98.98" y="206.49" width="5.38" height="2.63" rx="1.22" ry="1.22"/>
        <rect class="cls-19" x="67.77" y="206.49" width="3.38" height="2.63" rx="1.22" ry="1.22"/>
        <rect class="cls-19" x="77.29" y="219.01" width="5.38" height="2.63" rx="1.22" ry="1.22"/>
        <rect class="cls-19" x="98.98" y="219.01" width="5.38" height="2.63" rx="1.22" ry="1.22"/>
        <rect class="cls-19" x="67.77" y="219.01" width="3.38" height="2.63" rx="1.22" ry="1.22"/>
        <rect class="cls-19" x="77.29" y="231.53" width="5.38" height="2.63" rx="1.22" ry="1.22"/>
        <rect class="cls-19" x="98.98" y="231.53" width="5.38" height="2.63" rx="1.22" ry="1.22"/>
        <rect class="cls-19" x="77.29" y="244.05" width="5.38" height="2.63" rx="1.22" ry="1.22"/>
        <rect class="cls-19" x="98.98" y="244.05" width="5.38" height="2.63" rx="1.22" ry="1.22"/>
        <rect class="cls-19" x="67.77" y="244.05" width="3.38" height="2.63" rx="1.22" ry="1.22"/>
        <rect class="cls-19" x="85.4" y="244.05" width="7.96" height="2.63" rx="1.22" ry="1.22"/>
        <rect class="cls-19" x="77.29" y="256.57" width="5.38" height="2.63" rx="1.22" ry="1.22"/>
        <rect class="cls-19" x="98.98" y="256.57" width="5.38" height="2.63" rx="1.22" ry="1.22"/>
        <rect class="cls-19" x="67.77" y="256.57" width="3.38" height="2.63" rx="1.22" ry="1.22"/>
        <rect class="cls-19" x="85.4" y="256.57" width="7.96" height="2.63" rx="1.22" ry="1.22"/>
        <rect class="cls-19" x="77.29" y="125.11" width="5.38" height="2.63" rx="1.22" ry="1.22"/>
        <rect class="cls-19" x="98.98" y="125.11" width="5.38" height="2.63" rx="1.22" ry="1.22"/>
        <rect class="cls-19" x="90.33" y="125.11" width="3.02" height="2.63" rx="1.08" ry="1.08"/>
        <g class="cls-25">
          <rect class="cls-19" x="148.99" y="67.47" width="5.38" height="2.63" rx="1.22" ry="1.22"/>
          <rect class="cls-19" x="170.69" y="67.47" width="5.38" height="2.63" rx="1.22" ry="1.22"/>
          <rect class="cls-19" x="157.1" y="67.47" width="7.96" height="2.63" rx="1.22" ry="1.22"/>
          <rect class="cls-19" x="148.99" y="78" width="5.38" height="2.63" rx="1.22" ry="1.22"/>
          <rect class="cls-19" x="170.69" y="78" width="5.38" height="2.63" rx="1.22" ry="1.22"/>
          <rect class="cls-19" x="157.1" y="78" width="7.96" height="2.63" rx="1.22" ry="1.22"/>
          <rect class="cls-19" x="170.69" y="88.53" width="5.38" height="2.63" rx="1.22" ry="1.22"/>
          <rect class="cls-19" x="157.1" y="88.53" width="7.96" height="2.63" rx="1.22" ry="1.22"/>
          <rect class="cls-19" x="148.99" y="99.06" width="5.38" height="2.63" rx="1.22" ry="1.22"/>
          <rect class="cls-19" x="170.69" y="99.06" width="5.38" height="2.63" rx="1.22" ry="1.22"/>
          <rect class="cls-19" x="148.99" y="109.59" width="5.38" height="2.63" rx="1.22" ry="1.22"/>
          <rect class="cls-19" x="157.1" y="109.59" width="7.96" height="2.63" rx="1.22" ry="1.22"/>
          <rect class="cls-19" x="157.1" y="120.12" width="7.96" height="2.63" rx="1.22" ry="1.22"/>
          <rect class="cls-19" x="148.99" y="130.65" width="5.38" height="2.63" rx="1.22" ry="1.22"/>
          <rect class="cls-19" x="157.1" y="130.65" width="7.96" height="2.63" rx="1.22" ry="1.22"/>
          <rect class="cls-19" x="148.99" y="141.18" width="5.38" height="2.63" rx="1.22" ry="1.22"/>
          <rect class="cls-19" x="148.99" y="151.71" width="5.38" height="2.63" rx="1.22" ry="1.22"/>
          <rect class="cls-19" x="157.1" y="151.71" width="7.96" height="2.63" rx="1.22" ry="1.22"/>
          <rect class="cls-19" x="157.1" y="162.24" width="7.96" height="2.63" rx="1.22" ry="1.22"/>
          <rect class="cls-19" x="148.99" y="172.77" width="5.38" height="2.63" rx="1.22" ry="1.22"/>
          <rect class="cls-19" x="157.1" y="172.77" width="7.96" height="2.63" rx="1.22" ry="1.22"/>
          <rect class="cls-19" x="170.69" y="183.3" width="5.38" height="2.63" rx="1.22" ry="1.22"/>
          <rect class="cls-19" x="157.1" y="183.3" width="7.96" height="2.63" rx="1.22" ry="1.22"/>
          <rect class="cls-19" x="170.69" y="193.83" width="5.38" height="2.63" rx="1.22" ry="1.22"/>
          <rect class="cls-19" x="170.69" y="204.35" width="5.38" height="2.63" rx="1.22" ry="1.22"/>
          <rect class="cls-19" x="157.1" y="204.35" width="7.96" height="2.63" rx="1.22" ry="1.22"/>
          <rect class="cls-19" x="170.69" y="214.88" width="5.38" height="2.63" rx="1.22" ry="1.22"/>
          <rect class="cls-19" x="170.69" y="225.41" width="5.38" height="2.63" rx="1.22" ry="1.22"/>
          <rect class="cls-19" x="157.1" y="225.41" width="7.96" height="2.63" rx="1.22" ry="1.22"/>
          <rect class="cls-19" x="148.99" y="235.94" width="5.38" height="2.63" rx="1.22" ry="1.22"/>
          <rect class="cls-19" x="170.69" y="235.94" width="5.38" height="2.63" rx="1.22" ry="1.22"/>
          <rect class="cls-19" x="157.1" y="235.94" width="7.96" height="2.63" rx="1.22" ry="1.22"/>
          <rect class="cls-19" x="148.99" y="246.47" width="5.38" height="2.63" rx="1.22" ry="1.22"/>
          <rect class="cls-19" x="170.69" y="246.47" width="5.38" height="2.63" rx="1.22" ry="1.22"/>
          <rect class="cls-19" x="148.99" y="257" width="5.38" height="2.63" rx="1.22" ry="1.22"/>
          <rect class="cls-19" x="170.69" y="257" width="5.38" height="2.63" rx="1.22" ry="1.22"/>
          <rect class="cls-19" x="148.99" y="267.53" width="5.38" height="2.63" rx="1.22" ry="1.22"/>
          <rect class="cls-19" x="170.69" y="267.53" width="5.38" height="2.63" rx="1.22" ry="1.22"/>
          <rect class="cls-19" x="148.99" y="278.06" width="5.38" height="2.63" rx="1.22" ry="1.22"/>
          <rect class="cls-19" x="170.69" y="278.06" width="5.38" height="2.63" rx="1.22" ry="1.22"/>
          <rect class="cls-19" x="148.99" y="288.59" width="5.38" height="2.63" rx="1.22" ry="1.22"/>
          <rect class="cls-19" x="170.69" y="288.59" width="5.38" height="2.63" rx="1.22" ry="1.22"/>
        </g>
        <g class="cls-25">
          <rect class="cls-19" x="219.64" y="173.34" width="5.38" height="2.63" rx="1.22" ry="1.22"/>
          <rect class="cls-19" x="241.33" y="173.34" width="5.38" height="2.63" rx="1.22" ry="1.22"/>
          <rect class="cls-19" x="227.74" y="173.34" width="7.96" height="2.63" rx="1.22" ry="1.22"/>
          <rect class="cls-19" x="219.64" y="183.87" width="5.38" height="2.63" rx="1.22" ry="1.22"/>
          <rect class="cls-19" x="241.33" y="183.87" width="5.38" height="2.63" rx="1.22" ry="1.22"/>
          <rect class="cls-19" x="227.74" y="183.87" width="7.96" height="2.63" rx="1.22" ry="1.22"/>
          <rect class="cls-19" x="241.33" y="194.4" width="5.38" height="2.63" rx="1.22" ry="1.22"/>
          <rect class="cls-19" x="227.74" y="194.4" width="7.96" height="2.63" rx="1.22" ry="1.22"/>
          <rect class="cls-19" x="219.64" y="204.93" width="5.38" height="2.63" rx="1.22" ry="1.22"/>
          <rect class="cls-19" x="241.33" y="204.93" width="5.38" height="2.63" rx="1.22" ry="1.22"/>
          <rect class="cls-19" x="219.64" y="215.46" width="5.38" height="2.63" rx="1.22" ry="1.22"/>
          <rect class="cls-19" x="227.74" y="215.46" width="7.96" height="2.63" rx="1.22" ry="1.22"/>
          <rect class="cls-19" x="227.74" y="225.99" width="7.96" height="2.63" rx="1.22" ry="1.22"/>
          <rect class="cls-19" x="219.64" y="236.52" width="5.38" height="2.63" rx="1.22" ry="1.22"/>
          <rect class="cls-19" x="227.74" y="236.52" width="7.96" height="2.63" rx="1.22" ry="1.22"/>
          <rect class="cls-19" x="219.64" y="247.05" width="5.38" height="2.63" rx="1.22" ry="1.22"/>
          <rect class="cls-19" x="219.64" y="257.58" width="5.38" height="2.63" rx="1.22" ry="1.22"/>
          <rect class="cls-19" x="227.74" y="257.58" width="7.96" height="2.63" rx="1.22" ry="1.22"/>
          <rect class="cls-19" x="227.74" y="268.11" width="7.96" height="2.63" rx="1.22" ry="1.22"/>
          <rect class="cls-19" x="219.64" y="278.64" width="5.38" height="2.63" rx="1.22" ry="1.22"/>
          <rect class="cls-19" x="227.74" y="278.64" width="7.96" height="2.63" rx="1.22" ry="1.22"/>
        </g>
      </g>
      <g>
        <path class="cls-23" d="m135.22,174.58s-36.01,56.17-37.71,90.66c-1.7,34.5-4.26,49.8-4.26,49.8h5.11s-4.53-43.44,9.79-81.82c14.32-38.38,27.07-58.64,27.07-58.64Z"/>
        <path class="cls-23" d="m108.15,163.94s3.17,74.28,2.77,99.18c-.36,22.58-1.38,54.48-1.38,54.48h-4.15s3.03-41.62,2.9-63c-.13-21.38-.13-90.66-.13-90.66Z"/>
        <path class="cls-23" d="m129.71,230.34s-23.84,9.18-26.82,37.44c-2.98,28.26-2.98,49.82-2.98,49.82h2.13s-.07-57.03,10.07-69.95c10.14-12.92,16.41-15.18,16.41-15.18l1.19-2.13Z"/>
        <path class="cls-23" d="m94.81,218.14s20.01,16.46,20.86,35.61c.85,19.15-1.43,61.29-1.43,61.29h-1.83s1.84-28.09.71-49.8c-1.14-21.71-1.14-20.15-6.24-28.66-5.11-8.51-12.06-18.45-12.06-18.45Z"/>
        <path class="cls-23" d="m106.78,311.93l-2.01-.11c.02-.36,1.99-36.47-.39-62.21-2.37-25.61-27.68-72.64-27.93-73.11l1.77-.96c.06.12,6.5,12.05,13.15,27.03,8.95,20.15,14,35.92,15.01,46.86,2.4,25.89.42,62.14.4,62.51Z"/>
        <path class="cls-10" d="m168.06,155.88c-1.59.25-3-3.21-3.6-8.26-6.08-.45-12.78-.2-18.82,1.22,4.34,4.67,6.61,9.03,5.12,10.12-1.64,1.2-7.21-2.03-12.46-7.22-.09-.09-.18-.18-.27-.27-4.88,2.38-8.94,5.64-11.81,9.11,8.24,1.33,14.31,3.7,13.62,5.33-.7,1.65-8.09,1.91-16.5.59-.24-.04-.47-.08-.71-.12-2.46,5.94-.88,11.44,6.58,13.22-2.93,6.19.99,10.65,7.68,12.37.05-.1.1-.2.15-.3,3.77-7.21,8.31-12.71,10.14-12.28,1.79.42.32,6.35-3.27,13.36,4.65-.06,9.81-1.16,14.67-3.47-.03-.15-.06-.29-.09-.44-1.41-7.04-.94-13.2,1.05-13.75,1.81-.5,4.26,3.81,5.74,9.88,4.73-3.82,8.83-8.84,11.98-13.78-3.98-3.39-6.11-6.47-4.98-7.54.99-.93,4.22-.08,8.16,1.95,2.93-5.79,4.24-10.72,3.33-12.38-.98-1.79-5.98-3.69-12.64-4.81-.54,4.24-1.7,7.24-3.09,7.46Z"/>
        <path class="cls-10" d="m63.89,214.59c1.2.69.11,3.53-2.47,6.89,3.78,3.51,8.37,6.91,13.21,9.28-.14-5.12.92-8.95,2.55-8.82,1.79.15,3.6,5.06,4.03,10.97,0,.1.01.21.02.31,4.64,1.16,9.25,1.36,13.2.8-4.69-5.19-7.33-9.84-5.91-10.45,1.44-.62,6.5,3.15,11.31,8.42.14.15.27.3.4.45,5.13-2.27,7.31-6.42,3.4-11.46,5.59-2.17,5.61-6.94,2.17-11.54-.09.03-.18.06-.28.1-6.74,2.34-12.99,3.24-13.95,2.01-.94-1.2,3.52-4,10.02-6.3-3.13-2.44-7.19-4.52-11.78-5.71-.07.1-.13.21-.2.32-3.2,4.99-7.13,8.45-8.78,7.72-1.5-.66-.59-4.56,2-9.01-5.39-.21-11.05.63-16.05,1.93.65,4.16.25,7.15-1.13,7.19-1.21.03-2.85-2.2-4.27-5.52-5.35,1.93-9.11,4.2-9.49,5.68-.41,1.6,1.8,5.4,5.56,9.62,2.85-2.26,5.39-3.46,6.44-2.85Z"/>
        <path class="cls-10" d="m44.06,164.72c1.03.95-.76,3.9-4.15,7.18,2.9,4.46,6.64,8.94,10.88,12.31,1.12-5.66,3.11-9.7,4.7-9.3,1.75.45,2.34,6.14,1.32,12.71-.02.12-.04.23-.06.34,4.34,2.02,8.88,2.97,12.95,2.98-3.4-6.45-4.89-11.99-3.33-12.44,1.58-.45,5.7,4.5,9.19,11.07.1.19.2.37.29.56,5.66-1.68,8.85-5.89,6.2-12.06,6.1-1.49,7.29-6.74,4.99-12.34-.1.02-.2.04-.3.06-7.29,1.49-13.73,1.48-14.39-.03-.65-1.47,4.48-3.83,11.53-5.33-2.52-3.18-6.05-6.12-10.33-8.16-.09.1-.18.21-.28.31-4.41,4.98-9.18,8.15-10.64,7.08-1.33-.97.53-5.1,4.2-9.59-5.31-1.1-11.16-1.08-16.46-.44-.37,4.67-1.5,7.9-2.88,7.72-1.21-.16-2.3-2.88-2.9-6.75-5.8,1.27-10.11,3.16-10.85,4.73-.8,1.69.47,6.23,3.18,11.47,3.4-2.03,6.21-2.94,7.11-2.1Z"/>
        <path class="cls-10" d="m144.28,253.72c.27-1.41,4.5-1.85,10.17-1.24,2.55-5.09,4.55-10.86,5.08-16.33-6.54,2.67-12.03,3.64-12.71,2.13-.75-1.66,4.65-5.71,12.05-9.03.13-.06.26-.12.39-.17-.92-4.69-3.07-8.88-5.85-12.1-4.24,6.74-8.87,11.39-10.4,10.44-1.55-.96.68-7.33,4.97-14.22.12-.2.24-.39.37-.58-5.6-3.42-12.09-3.29-16.56,2.68-5.71-3.88-11.88-1.52-16.01,3.81.09.07.18.13.27.2,6.53,4.82,10.94,9.91,9.86,11.38-1.06,1.44-6.99-1.13-13.36-5.76-1.51,3.99-2.08,8.63-1.22,13.29.17,0,.34.01.51.02,8.11.36,14.61,2.13,14.53,3.95-.07,1.66-5.57,2.79-12.66,2.71,2.53,4.88,6.57,9.5,10.86,13.28,5.02-2.64,9.09-3.78,9.86-2.57.67,1.05-1.35,3.62-4.89,6.53,5.28,3.79,10.17,6,12.28,5.59,2.28-.43,6.03-4.28,9.51-9.72-4.41-1.41-7.26-3.06-7.03-4.29Z"/>
        <path class="cls-10" d="m94.76,148.5c.07,1.15-3.05,3.12-7.47,4.86-.95,4.78-1.36,9.84-.7,14.11,4.44-4.52,8.42-7.37,9.22-6.51.89.95-2.42,6.05-7.39,11.39-.09.09-.17.19-.26.28,1.6,3.13,4.04,5.41,6.77,6.73,1.92-6.65,4.53-11.91,5.87-11.8,1.36.12.9,5.71-1.03,12.5-.05.19-.11.38-.17.57,4.9.37,9.8-2.24,12.04-8.42,5.07.67,9.3-3.47,11.4-9.04-.08-.01-.16-.03-.24-.04-5.88-1.05-10.21-3.13-9.67-4.64.53-1.48,5.51-1.87,11.23-.9.38-3.55-.09-7.22-1.63-10.36-.13.06-.26.12-.39.18-6.21,2.88-11.49,4.08-11.78,2.7-.26-1.26,3.68-4.23,9.07-6.92-2.86-2.65-6.81-4.51-10.79-5.66-3.3,3.91-6.16,6.34-6.97,5.74-.71-.52.33-3.22,2.45-6.75-4.73-.77-8.86-.51-10.38.6-1.64,1.21-3.74,5.52-5.33,10.91,3.61-.66,6.1-.54,6.16.47Z"/>
        <g>
          <rect class="cls-5" x="80.33" y="296.23" width="49.11" height="18.65" rx="8.55" ry="8.55"/>
          <rect class="cls-5" x="84.32" y="307.44" width="41.12" height="40.83" rx="11.58" ry="11.58"/>
        </g>
        <path class="cls-23" d="m131.78,215.29s8.51,15.73,10.02,26.9c1.52,11.23,0,25.53,0,25.53l-.72.05s1.12-14.97-1.99-28.13c-3.11-13.17-8.18-24.89-8.18-24.89l.87.54Z"/>
        <path class="cls-23" d="m128.51,179.42s13.24-10.61,23.35-15.33c10.93-5.11,31.3-11.6,31.3-11.6l.63.74s-15.05,3.92-33.21,13.49c-18.16,9.57-21.37,12.89-21.37,12.89l-.7-.18Z"/>
        <path class="cls-23" d="m112.2,172.28s-3.32-13.76-7.3-21.24c-2.99-5.63-10.2-14.32-10.2-14.32l-.76.4s6.71,6.26,10.96,16.13c4.14,9.62,6.74,18.97,6.74,18.97l.56.05Z"/>
        <path class="cls-23" d="m82.07,178.08s-11.52-10.8-19.42-14.63c-7.9-3.83-28.89-8.09-28.89-8.09l-.22.98s8.25.92,22.01,6.07,27.02,17.04,27.02,17.04l-.5-1.37Z"/>
        <path class="cls-23" d="m104.31,220.68s-14.61-6.38-21.55-8.4c-7.55-2.2-30.87-4.45-30.87-4.45v.92s12.24-.24,31.19,5.29c12.78,3.73,20.55,6.94,20.55,6.94l.68-.29Z"/>
      </g>
      <g>
        <path class="cls-23" d="m326.06,193.38s36.01,56.17,37.71,90.66c1.7,34.5,4.26,49.8,4.26,49.8h-5.11s4.53-43.44-9.79-81.82c-14.32-38.38-27.07-58.64-27.07-58.64Z"/>
        <path class="cls-23" d="m353.13,182.74s-3.17,74.28-2.77,99.18c.36,22.58,1.38,54.48,1.38,54.48h4.15s-3.03-41.62-2.9-63,.13-90.66.13-90.66Z"/>
        <path class="cls-23" d="m331.56,249.14s23.84,9.18,26.82,37.44c2.98,28.26,2.98,49.82,2.98,49.82h-2.13s.07-57.03-10.07-69.95c-10.14-12.92-16.41-15.18-16.41-15.18l-1.19-2.13Z"/>
        <path class="cls-23" d="m366.47,236.94s-20.01,16.46-20.86,35.61c-.85,19.15,1.43,61.29,1.43,61.29h1.83s-1.84-28.09-.71-49.8c1.14-21.71,1.14-20.15,6.24-28.66,5.11-8.51,12.06-18.45,12.06-18.45Z"/>
        <path class="cls-23" d="m354.49,330.73l2.01-.11c-.02-.36-1.99-36.47.39-62.21,2.37-25.61,27.68-72.64,27.93-73.11l-1.77-.96c-.06.12-6.5,12.05-13.15,27.03-8.95,20.15-14,35.92-15.01,46.86-2.4,25.89-.42,62.14-.4,62.51Z"/>
        <path class="cls-10" d="m293.22,174.68c1.59.25,3-3.21,3.6-8.26,6.08-.45,12.78-.2,18.82,1.22-4.34,4.67-6.61,9.03-5.12,10.12,1.64,1.2,7.21-2.03,12.46-7.22.09-.09.18-.18.27-.27,4.88,2.38,8.94,5.64,11.81,9.11-8.24,1.33-14.31,3.7-13.62,5.33.7,1.65,8.09,1.91,16.5.59.24-.04.47-.08.71-.12,2.46,5.94.88,11.44-6.58,13.22,2.93,6.19-.99,10.65-7.68,12.37-.05-.1-.1-.2-.15-.3-3.77-7.21-8.31-12.71-10.14-12.28-1.79.42-.32,6.35,3.27,13.36-4.65-.06-9.81-1.16-14.67-3.47.03-.15.06-.29.09-.44,1.41-7.04.94-13.2-1.05-13.75-1.81-.5-4.26,3.81-5.74,9.88-4.73-3.82-8.83-8.84-11.98-13.78,3.98-3.39,6.11-6.47,4.98-7.54-.99-.93-4.22-.08-8.16,1.95-2.93-5.79-4.24-10.72-3.33-12.38.98-1.79,5.98-3.69,12.64-4.81.54,4.24,1.7,7.24,3.09,7.46Z"/>
        <path class="cls-10" d="m397.39,233.4c-1.2.69-.11,3.53,2.47,6.89-3.78,3.51-8.37,6.91-13.21,9.28.14-5.12-.92-8.95-2.55-8.82-1.79.15-3.6,5.06-4.03,10.97,0,.1-.01.21-.02.31-4.64,1.16-9.25,1.36-13.2.8,4.69-5.19,7.33-9.84,5.91-10.45-1.44-.62-6.5,3.15-11.31,8.42-.14.15-.27.3-.4.45-5.13-2.27-7.31-6.42-3.4-11.46-5.59-2.17-5.61-6.94-2.17-11.54.09.03.18.06.28.1,6.74,2.34,12.99,3.24,13.95,2.01.94-1.2-3.52-4-10.02-6.3,3.13-2.44,7.19-4.52,11.78-5.71.07.1.13.21.2.32,3.2,4.99,7.13,8.45,8.78,7.72,1.5-.66.59-4.56-2-9.01,5.39-.21,11.05.63,16.05,1.93-.65,4.16-.25,7.15,1.13,7.19,1.21.03,2.85-2.2,4.27-5.52,5.35,1.93,9.11,4.2,9.49,5.68.41,1.6-1.8,5.4-5.56,9.62-2.85-2.26-5.39-3.46-6.44-2.85Z"/>
        <path class="cls-10" d="m417.22,183.52c-1.03.95.76,3.9,4.15,7.18-2.9,4.46-6.64,8.94-10.88,12.31-1.12-5.66-3.11-9.7-4.7-9.3-1.75.45-2.34,6.14-1.32,12.71.02.12.04.23.06.34-4.34,2.02-8.88,2.97-12.95,2.98,3.4-6.45,4.89-11.99,3.33-12.44-1.58-.45-5.7,4.5-9.19,11.07-.1.19-.2.37-.29.56-5.66-1.68-8.85-5.89-6.2-12.06-6.1-1.49-7.29-6.74-4.99-12.34.1.02.2.04.3.06,7.29,1.49,13.73,1.48,14.39-.03.65-1.47-4.48-3.83-11.53-5.33,2.52-3.18,6.05-6.12,10.33-8.16.09.1.18.21.28.31,4.41,4.98,9.18,8.15,10.64,7.08,1.33-.97-.53-5.1-4.2-9.59,5.31-1.1,11.16-1.08,16.46-.44.37,4.67,1.5,7.9,2.88,7.72,1.21-.16,2.3-2.88,2.9-6.75,5.8,1.27,10.11,3.16,10.85,4.73.8,1.69-.47,6.23-3.18,11.47-3.4-2.03-6.21-2.94-7.11-2.1Z"/>
        <path class="cls-10" d="m317,272.52c-.27-1.41-4.5-1.85-10.17-1.24-2.55-5.09-4.55-10.86-5.08-16.33,6.54,2.67,12.03,3.64,12.71,2.13.75-1.66-4.65-5.71-12.05-9.03-.13-.06-.26-.12-.39-.17.92-4.69,3.07-8.88,5.85-12.1,4.24,6.74,8.87,11.39,10.4,10.44,1.55-.96-.68-7.33-4.97-14.22-.12-.2-.24-.39-.37-.58,5.6-3.42,12.09-3.29,16.56,2.68,5.71-3.88,11.88-1.52,16.01,3.81-.09.07-.18.13-.27.2-6.53,4.82-10.94,9.91-9.86,11.38,1.06,1.44,6.99-1.13,13.36-5.76,1.51,3.99,2.08,8.63,1.22,13.29-.17,0-.34.01-.51.02-8.11.36-14.61,2.13-14.53,3.95.07,1.66,5.57,2.79,12.66,2.71-2.53,4.88-6.57,9.5-10.86,13.28-5.02-2.64-9.09-3.78-9.86-2.57-.67,1.05,1.35,3.62,4.89,6.53-5.28,3.79-10.17,6-12.28,5.59-2.28-.43-6.03-4.28-9.51-9.72,4.41-1.41,7.26-3.06,7.03-4.29Z"/>
        <path class="cls-10" d="m366.51,167.3c-.07,1.15,3.05,3.12,7.47,4.86.95,4.78,1.36,9.84.7,14.11-4.44-4.52-8.42-7.37-9.22-6.51-.89.95,2.42,6.05,7.39,11.39.09.09.17.19.26.28-1.6,3.13-4.04,5.41-6.77,6.73-1.92-6.65-4.53-11.91-5.87-11.8-1.36.12-.9,5.71,1.03,12.5.05.19.11.38.17.57-4.9.37-9.8-2.24-12.04-8.42-5.07.67-9.3-3.47-11.4-9.04.08-.01.16-.03.24-.04,5.88-1.05,10.21-3.13,9.67-4.64-.53-1.48-5.51-1.87-11.23-.9-.38-3.55.09-7.22,1.63-10.36.13.06.26.12.39.18,6.21,2.88,11.49,4.08,11.78,2.7.26-1.26-3.68-4.23-9.07-6.92,2.86-2.65,6.81-4.51,10.79-5.66,3.3,3.91,6.16,6.34,6.97,5.74.71-.52-.33-3.22-2.45-6.75,4.73-.77,8.86-.51,10.38.6,1.64,1.21,3.74,5.52,5.33,10.91-3.61-.66-6.1-.54-6.16.47Z"/>
        <rect class="cls-5" x="331.84" y="315.03" width="49.11" height="18.65" rx="8.55" ry="8.55" transform="translate(712.79 648.71) rotate(180)"/>
        <path class="cls-23" d="m329.5,234.1s-8.51,15.73-10.02,26.9c-1.52,11.23,0,25.53,0,25.53l.72.05s-1.12-14.97,1.99-28.13,8.18-24.89,8.18-24.89l-.87.54Z"/>
        <path class="cls-23" d="m332.77,198.22s-13.24-10.61-23.35-15.33c-10.93-5.11-31.3-11.6-31.3-11.6l-.63.74s15.05,3.92,33.21,13.49c18.16,9.57,21.37,12.89,21.37,12.89l.7-.18Z"/>
        <path class="cls-23" d="m349.08,191.08s3.32-13.76,7.3-21.24c2.99-5.63,10.2-14.32,10.2-14.32l.76.4s-6.71,6.26-10.96,16.13c-4.14,9.62-6.74,18.97-6.74,18.97l-.56.05Z"/>
        <path class="cls-23" d="m379.21,196.88s11.52-10.8,19.42-14.63c7.9-3.83,28.89-8.09,28.89-8.09l.22.98s-8.25.92-22.01,6.07c-13.76,5.15-27.02,17.04-27.02,17.04l.5-1.37Z"/>
        <path class="cls-23" d="m356.97,239.48s14.61-6.38,21.55-8.4c7.55-2.2,30.87-4.45,30.87-4.45v.92s-12.24-.24-31.19,5.29c-12.78,3.73-20.55,6.94-20.55,6.94l-.68-.29Z"/>
      </g>
    </g>
  </g>
  <g>
    <path class="cls-8" d="m273.83,189.9l1.12,18.19s-18.32-3.37-18.25-5.66c.07-2.3.92-12.53,2.47-12.53h14.66Z"/>
    <path class="cls-4" d="m302.17,290.79c-8.25-29.81-19.11-31.5-33.71-31.5-17.34,0-23.61,9.3-25.17,33.19-1.22,18.66-3.46,25.17,28.85,26.68,30.89,1.44,35.02-10.35,30.03-28.37Z"/>
    <path class="cls-6" d="m260.29,205.13s-7.71,57.22-10.3,61.75c-2.59,4.52-10.17,14.61-10.17,14.61,0,0,17.34,19.25,28.64,19.04s21.44-2.75,28.64-7.83c7.19-5.08,5.92-15.24,5.92-15.24l-8.67-11.42s-14.81-27.91-17.13-35.74c-2.33-7.83-2.27-22.21-2.27-22.21l-9.51-2.06-5.15-.9Z"/>
    <path class="cls-17" d="m275.96,157.62s5.91-7.69,15,.98c4.16,3.97-5.08,16.5-4.44,28.77s1.96,19.94,2.78,19.07-11.03-1.09-11.03-1.09c.31-1,4.35-12.73,4.9-17.39.64-5.44-2.15-17.44-4.9-21.17-2.75-3.74-2.31-9.16-2.31-9.16Z"/>
    <path class="cls-4" d="m277.21,277.46h-21.78c-9.91,0-8.72-10.24-8.72-18.92,0,0-6.9-29.17-6.9-42.72s5.03-15.69,14.93-15.69l3.11,2.34,7.57,22.96,9.51-27.71,7.73,2.31c9.91,0,14.42,9.97,14.42,18.95s-3.81,34.36-3.81,34.36c0,8.68,11.42,21.57-16.07,24.1Z"/>
    <g>
      <polygon class="cls-5" points="228.02 319.15 177.58 319.15 183.09 262.42 228.02 265.5 228.02 319.15"/>
      <polygon class="cls-4" points="199.55 320.59 160.71 320.59 166.22 263.86 219.69 260.98 199.55 320.59"/>
      <path class="cls-3" d="m217.14,177.35c-.05,0-6.98,9.03-6.98,9.03l-.71-13.11-10.65-10.93,6.84-11.21s10.01,16.71,10.36,20.8,1.13,5.43,1.13,5.43Z"/>
      <path class="cls-18" d="m227.89,127.79c-7.16-2.34-11.88,1.26-17.19,12.48-.29-.28-.26-.17-2.73-.15-1.83.01-1.99,2.4-2.57,6.39-.5,3.47-1.28,7.38.1,8.29-.82,10.16.44,17.23,4.99,22.11,7.46,8,21.71-9.15,26.54-23.94,4.83-14.79-1.07-22.53-9.14-25.17Z"/>
      <path class="cls-3" d="m230.68,126.24c-7.16-2.34-16.1,1.64-21.41,12.86-.29-.28-.62-.47-.98-.52-1.81-.26-3.74,2.76-4.32,6.75-.5,3.47.2,6.52,1.58,7.43-.82,10.16,3.18,17.71,7.73,22.58,7.46,8,21.71-9.15,26.54-23.94,4.83-14.79-1.07-22.53-9.14-25.17Z"/>
      <path class="cls-8" d="m210.02,139.92l1.55,7.44,1.69.66,9.1-12.83s-.21-.99,2.61,0c2.82.99,9.8,5.5,14.31,5.57s6.13-1.69,6.13-1.69c0,0-6.77-11.51-9.66-13.48-2.89-1.96-3.74-3.37-7.05-3.8s-9.52-.49-12.62.85c-3.1,1.34-6.42,5.5-7.47,7.47-1.06,1.97-2.66,9.83-2.66,9.83,0,0,1.36-1.88,2.33-1.37s1.73,1.34,1.73,1.34Z"/>
      <polygon class="cls-11" points="197.05 160.01 209.45 173.27 203.25 178.48 192.96 166.78 197.05 160.01"/>
      <path class="cls-11" d="m232.31,231.84h-4.88c-4.13,0-7.52-3.38-7.52-7.52v-34.34c0-4.13-1.35-8.97,2.78-8.97l7.18,1.12c4.13,0,7.52,3.38,7.52,7.52l2.44,34.67c0,4.13-3.38,7.52-7.52,7.52Z"/>
      <path class="cls-11" d="m221.88,176.26l.81,4.76s-8.44,5.64-8.72,4.79,3.17-8.46,3.17-8.46l4.74-1.09Z"/>
      <polygon class="cls-16" points="228.02 277.46 165.23 274.12 166.07 266.04 228.02 266.04 228.02 277.46"/>
      <polygon class="cls-22" points="219.69 277.02 208.42 276.33 208.42 266.88 219.69 266.88 219.69 277.02"/>
      <path class="cls-11" d="m225.07,273.35l-50.24-3.54c-5.29,0-7.14-5.13-7.14-10.42l-1.28-81.5c0-5.29,4.33-9.62,9.62-9.62l16.92-1.49,16.5,6.49.71,13.11,6.08-7.9,9.44,2.61c5.29,0,4.08,11.84,4.08,17.13l-2.68,56.61c0,5.29,3.28,18.51-2.01,18.51Z"/>
      <path class="cls-12" d="m248.62,251.35l-43.52-11.62c-1.8-.18-2.75-1.12-2.1-2.09l12.15-18.2c.65-.97,2.65-1.61,4.46-1.43l43.52,11.62c1.8.18,2.75,1.12,2.1,2.09l-12.15,18.2c-.65.97-2.65,1.61-4.46,1.43Z"/>
      <path class="cls-9" d="m181.39,211.48c3.74-33-5.36-42.11-5.36-42.11-5.29,0-9.62,4.33-9.62,9.62l1.09,77.35c0,5.29-4.66,13.69.63,13.69l30.67-1.02s-21.15-24.54-17.41-57.53Z"/>
      <g>
        <path class="cls-3" d="m198.17,225.44c.71,0,14.21-11.7,15.78-11.56,1.57.14,13.13,7.47,13.13,7.47l-19.11,11.56-13.61,1.13,3.81-8.6Z"/>
        <path class="cls-11" d="m190.14,221.63l-20.51-3.32,14.52-32.41c2.82-5.42.43-11.82-4.02-17.15h0c-5.63-2.77-14.84,3.25-17.49,8.63l-3.67,6.32c-.19.36-9.76,21.17-9.9,21.54-.47,1.05-5.44,17.45-5.44,18.7,0,.06,0,.12,0,.18-.02.55,0,1.1.06,1.65.29,4.27,1.73,8.59,5.9,8.59,2.17,1.13,4.54,1.45,6.8,1.1l30.93,5c9.17,0,8.32,1.2,11.49-10.15,1.34-6.84,2.05-8.11-8.67-8.67Z"/>
      </g>
      <path class="cls-3" d="m239.5,249.5s2.28,10.51,6.08,8.04c3.8-2.47,14.25-13.87,15.2-16.53.95-2.66-7.79-7.15-8.55-6.52s-2.05,3.1-2.05,3.1l-7.16-2.28-5.63,4.4,5.63,8.7-3.51,1.08Z"/>
    </g>
    <path class="cls-8" d="m283.95,182.53c-.23-.33-.45-.58-.67-.78,1.05-2.97,5.14-7.78,4.15-10.32-2.26-5.8-12.8-8.19-16.71-9.94-6.22-2.78-7.98,2.57-12.72,12.99-3.71,8.16-3.92,17.87,2.8,23.96,1.62,1.46,11.29-1.48,17.5-8.06,1.17.77,3.72-.06,4.86-2.43,1.65-3.43,1.72-4.08.78-5.42Z"/>
    <path class="cls-18" d="m274.95,172.07s3.53,2.26,3.81,4.16,2.68,2.12,2.4,3.95.07,3.17.78,2.96,3.24-2.4,4.94-4.3,6.35-13.96-4.72-19.32c-11.07-5.36-18.12,1.48-18.33,1.97s-3.11,7.05-3.2,7.25.24.72,2.64-.2,5.73-1.34,8.26.21c2.53,1.55,3.44,3.31,3.44,3.31Z"/>
    <polygon class="cls-7" points="274.94 194.88 265.44 205.78 270.19 212.98 277.21 200.31 274.94 194.88"/>
    <path class="cls-7" d="m255.43,199.23l10,6.54s-5.99,8.47-6.42,7.2c-.42-1.27-4.27-11.35-4.27-11.35l.68-2.4Z"/>
    <path class="cls-7" d="m264.1,242.78l25.2-32.78,5.47,3.88,3.17-2.4,9.31,6.5,3.38-4.1s3.38,6.7,13.33,3.1l9.94-3.6-5.08,4.59,5.08,10.21-18.4,8.04s-12.27,15.23-18.4,17.56c-6.13,2.33-9.31,1.06-11.21,0-1.9-1.06-5.92-4.23-5.92-4.23,0,0-7.78.29-11.5-1.87-3.73-2.15-4.36-4.9-4.36-4.9Z"/>
    <path class="cls-8" d="m318.03,237.6s-3.38-4.04-4.86-2.92c-1.48,1.12-10.15,4.72-10.15,4.72,0,0,3.38,9.73,5.08,10.36s5.92-1.48,7.83-4.86c1.9-3.38,2.12-7.3,2.12-7.3Z"/>
  </g>
</svg>