<?xml version="1.0" encoding="UTF-8"?>
<svg id="Layer_2" data-name="Layer 2" xmlns="http://www.w3.org/2000/svg" viewBox="0 0 50 50">
  <defs>
    <style>
      .cls-1 {
        fill: #fff;
      }

      .cls-2 {
        fill: #e75653;
      }
    </style>
  </defs>
  <rect class="cls-2" x="-2" y="-2.06" width="54" height="53.13"/>
  <path class="cls-1" d="m45.96,27.31c-.3,0-.6,0-.9,0-.3,0-.61-.01-.91,0-.19,0-.29-.07-.38-.22-.29-.5-.58-1-.88-1.49-.05-.08-.17-.15-.26-.15-.32-.02-.65,0-1.02,0,0,.23,0,.44,0,.65,0,.34,0,.68.02,1.02,0,.15-.05.2-.2.2-.5,0-1,0-1.5,0-.17,0-.2-.07-.2-.22.02-.48.03-.96.04-1.43,0-.07,0-.13-.04-.23-.06.07-.13.14-.18.22-.75,1.09-1.79,1.66-3.12,1.65-1.74,0-3.3-1.5-3.41-3.23-.04-.62.05-1.21.3-1.77.03-.06.04-.12.07-.21h-1.1c0,.07,0,.16,0,.25,0,1.57,0,3.14,0,4.72,0,.21-.05.29-.28.28-.94-.02-1.88-.02-2.82-.01-.24,0-.4-.06-.46-.3-.12-.51-.41-.68-.95-.63-.7.06-1.41,0-2.12.01-.07,0-.17.06-.2.12-.11.21-.18.43-.29.64-.03.06-.11.14-.17.14-.58.01-1.15,0-1.77,0,.37-.8.73-1.57,1.09-2.34-.02-.02-.04-.04-.06-.05-.79.61-1.71.51-2.65.52,0,.14,0,.25,0,.36,0,.44,0,.88.02,1.32,0,.15-.06.19-.2.19-.49,0-.99,0-1.48.01-.17,0-.22-.06-.22-.23.01-.46,0-.92-.02-1.4-.74,1.01-1.72,1.58-2.97,1.6-1.25.02-2.21-.57-3-1.57,0,.49-.01.9,0,1.31,0,.2-.04.28-.26.28-.46-.01-.93-.01-1.39,0-.21,0-.25-.07-.25-.26,0-.74,0-1.47,0-2.21,0-.18-.05-.23-.24-.23-.58.01-1.17.02-1.75,0-.21,0-.27.06-.27.27.01.73,0,1.46,0,2.19,0,.18-.05.24-.23.24-.48,0-.96,0-1.43,0-.17,0-.26-.04-.24-.23.02-.16,0-.31,0-.47-.04,0-.06,0-.06,0-.38.45-.89.64-1.45.72-.78.12-1.55.06-2.3-.15-.9-.25-1.26-.75-1.36-1.81-.02-.26,0-.53,0-.84h2.24c0,.22-.01.42,0,.62.01.14.04.29.09.42.1.25.34.36.56.3.26-.07.41-.3.38-.57-.04-.32-.21-.57-.47-.75-.56-.4-1.14-.78-1.71-1.17-.16-.11-.32-.23-.47-.35-1.02-.85-.78-2.44.51-2.91,1.09-.39,2.19-.38,3.27.04.28.11.51.33.77.51v-.52c.51,0,.99,0,1.48,0,.48,0,.42-.09.42.42,0,.65,0,1.29,0,1.94,0,.12.02.2.17.2.66,0,1.32,0,1.98,0,.03,0,.06-.01.11-.02v-2.53c.36,0,.7,0,1.04,0,.21,0,.43.01.64,0,.18-.01.22.06.22.23,0,.32,0,.65,0,1.03.07-.1.13-.15.16-.23.32-.7.44-1.45.49-2.21.06-.9-.05-1.79-.21-2.67,0-.04,0-.09-.02-.18,2.57.61,4.27,2.25,5.52,4.49.02-.07.04-.1.04-.13,0-.38.02-.33.34-.33.8,0,1.59,0,2.39,0,.87.01,1.65.25,2.23.94.3.35.51.75.59,1.21.02.1.05.2.09.36.07-.14.12-.22.16-.31.3-.66.61-1.32.91-1.99.08-.17.18-.23.37-.23.57,0,.56,0,.8.53.72,1.55,1.45,3.09,2.18,4.63.12.25.23.5.34.74.06.13.13.25.19.37.02,0,.05,0,.07-.01,0-.07.02-.15.02-.22-.01-1.29-.03-2.58-.03-3.87,0-.23-.08-.28-.29-.27-.44.01-.88,0-1.32,0-.12,0-.22,0-.22-.16,0-.57,0-1.14,0-1.72h5.56v.88c2.2-1.45,4.07-1.1,5.62,1.05v-1.94c.08,0,.15-.01.22-.01.8,0,1.59-.01,2.39,0,.63.01,1.25.08,1.81.44,1.4.91,1.62,2.92.35,4.11.49.83.98,1.67,1.47,2.51-.01.02-.02.05-.04.07Zm-29.25-1.9c.89.02,1.71-.74,1.68-1.65-.03-1.01-.83-1.67-1.7-1.67-.89,0-1.63.81-1.62,1.74.01.85.78,1.6,1.64,1.59Zm19.82,0c.73.04,1.64-.57,1.68-1.64.03-.9-.8-1.7-1.7-1.69-.87,0-1.62.79-1.62,1.7,0,.88.76,1.63,1.65,1.63Zm5.09-3.61c0,.65,0,1.28,0,1.9,0,.04.07.11.11.11.41-.01.84,0,1.24-.06.49-.09.83-.55.8-.97-.03-.51-.42-.93-.95-.97-.39-.03-.79,0-1.21,0Zm-19.99.03s-.02.04-.02.07c0,.58,0,1.15.02,1.73,0,.05.12.13.19.13.3.01.59,0,.89,0,.53,0,.98-.37,1.03-.84.06-.51-.26-1-.79-1.08-.43-.07-.87-.01-1.32-.01Zm-15.93.25c0-.14,0-.24-.02-.34-.03-.21-.2-.37-.4-.4-.21-.03-.47.07-.53.23-.09.23.06.37.21.5.04.04.09.08.15.11.26.17.53.33.79.5.45.28.91.55,1.35.84.15.1.28.24.45.4,0-.61,0-1.16,0-1.71,0-.05-.11-.13-.18-.13-.3-.01-.59,0-.89,0-.3,0-.6,0-.92,0Zm20.56,2.69h1.41c-.24-.51-.45-.98-.7-1.52-.25.54-.47,1.01-.71,1.52Z"/>
</svg>