<?xml version="1.0" encoding="utf-8"?>
<!-- Generator: Adobe Illustrator 27.3.1, SVG Export Plug-In . SVG Version: 6.00 Build 0)  -->
<svg version="1.1" id="Layer_1" xmlns="http://www.w3.org/2000/svg" xmlns:xlink="http://www.w3.org/1999/xlink" x="0px" y="0px"
	 viewBox="0 0 50 50" style="enable-background:new 0 0 50 50;" xml:space="preserve">
<style type="text/css">
	.st0{fill:#E75653;}
	.st1{fill:#AD4B4B;}
	.st2{fill:#FFFFFF;}
	.st3{fill:#FEFDFC;}
	.st4{fill:#F8AE19;}
	.st5{fill:#FEFEFE;}
	.st6{fill:#332405;}
	.st7{fill:#010101;}
	.st8{enable-background:new    ;}
</style>
<g id="Layer_2_00000087392606152894170580000012476193291881339042_">
	<g>
		<rect x="-2" y="-2.1" class="st0" width="54" height="53.1"/>
	</g>
</g>
<g id="Layer_1_00000106863522037445739620000009767307083615816348_">
	<g>
		<g>
			<g>
				<path class="st1" d="M34,9.4c1,1.1,1.6,2.4,1.9,3.9c0.1,0.6,0.2,1.2,0.2,1.8c0,0.5-0.1,0.9-0.1,1.4c0,0.1-0.1,0.2-0.1,0.2
					c-0.1,1.1-0.5,2.1-1.2,3.1c-0.4,0.5-0.8,1-1.2,1.6c-0.6,0.5-1.2,0.9-1.9,1.4c-0.1,0.1-0.2,0.2-0.2,0.3c-0.1,0.3-0.1,0.6-0.1,1
					c-0.1,0.7-0.2,1.4-0.4,2.1l0,0c0,0,0,0-0.1,0.1c-0.4,0.9-0.7,1.9-1.1,2.8c-0.9,1.8-2.2,3.3-3.9,4.6C25,34,24.1,34.5,23.3,35
					c-0.1,0.1-0.2,0.1-0.4,0.1c-0.2-0.8-0.3-1.6-0.6-2.4c-1.6-3.5-4.4-5.4-8.3-5.7c0-2.3-0.1-4.6,0-6.8c0-0.7,0.4-1.3,0.7-1.9
					c0.7-1.4,1.7-2.5,3-3.4c0.2-0.1,0.4-0.3,0.6-0.3c0.5-0.2,0.4-0.6,0.5-0.9c0-0.2,0-0.4,0.1-0.5c0.4-1.4,1-2.7,1.9-3.8
					c1-1.2,2.2-2.1,3.8-2.5c0.9-0.2,1.7-0.5,2.6-0.5c1.7,0,3.3,0.3,4.7,1.3c0.5,0.4,1,0.7,1.5,1.1c0.2,0.1,0.2,0.3,0.4,0.5
					C33.9,9.3,33.9,9.4,34,9.4L34,9.4z M23.1,26.1c0.4-0.1,0.7-0.1,1.1-0.2c1.4-0.3,2.2-1.1,2.7-2.4c0.3-0.8,0.4-1.7-0.1-2.5
					c-0.5-1-1.4-1.3-2.5-1.1c-1,0.1-1.9,1.2-1.9,2.2c0,1.1,0,2.2,0,3.3C22.4,26.1,22.4,26.1,23.1,26.1z"/>
			</g>
			<g>
				<path class="st2" d="M14,27.1c3.9,0.3,6.7,2.1,8.3,5.7c0.3,0.7,0.4,1.6,0.6,2.4c-0.5,0.2-1,0.4-1.5,0.7c-0.5,0.2-1,0.3-1.6,0.2
					c-1.8,0-3.6,0-5.4,0H14c0-0.2,0-0.3,0-0.4C14,32.8,14,29.9,14,27.1L14,27.1z"/>
			</g>
			<g>
				<path class="st2" d="M30.9,26c0.1-0.7,0.2-1.4,0.4-2.1c0-0.3,0.1-0.6,0.1-1c0-0.1,0.1-0.2,0.2-0.3c0.6-0.5,1.2-0.9,1.8-1.4
					c0.5,0.8,0.9,1.6,1.3,2.4c0,0-0.1,0.1-0.1,0.2C33.4,24.6,32.1,25.3,30.9,26L30.9,26z M31.8,23.1c0,0,0,0.1,0,0.1
					c0.5,0.1,1,0.3,1.5,0.4c0,0,0-0.1,0-0.1C32.9,23.3,32.3,23.2,31.8,23.1L31.8,23.1z"/>
			</g>
			<g>
				<path class="st3" d="M35.8,16.6c0-0.1,0.1-0.2,0.1-0.2C35.9,16.5,35.8,16.5,35.8,16.6z"/>
			</g>
			<g>
				<path class="st3" d="M34.7,23.8c0,0,0.1-0.1,0.1-0.2c0,0,0.1,0.1,0.1,0.1C34.8,23.8,34.8,23.8,34.7,23.8L34.7,23.8z"/>
			</g>
			<g>
				<path class="st3" d="M34,9.4c0,0-0.1-0.1-0.2-0.1C33.8,9.3,33.9,9.3,34,9.4z"/>
			</g>
			<g>
				<path class="st4" d="M30.8,26.1C30.8,26.1,30.8,26.1,30.8,26.1C30.8,26.1,30.8,26.1,30.8,26.1z"/>
			</g>
			<g>
				<path class="st5" d="M23,26.1c-0.6,0-0.6,0-0.6-0.6c0-1.1,0-2.2,0-3.3c0-0.9,0.9-2,1.9-2.2c1.1-0.1,2,0.2,2.5,1.1
					c0.4,0.8,0.4,1.6,0.1,2.5c-0.5,1.3-1.4,2.1-2.7,2.4C23.8,26.1,23.4,26.1,23,26.1z M24.7,21.7c-0.7,0-1.2,0.6-1.2,1.4
					c0,0.6,0.7,1.4,1.2,1.3c0.8-0.1,1.4-0.7,1.4-1.4C26.1,22.3,25.5,21.8,24.7,21.7L24.7,21.7z"/>
			</g>
			<g>
				<path class="st6" d="M31.8,23.1c0.5,0.1,1,0.3,1.6,0.4c0,0,0,0.1,0,0.1c-0.5-0.1-1-0.3-1.5-0.4C31.8,23.2,31.8,23.1,31.8,23.1
					L31.8,23.1z"/>
			</g>
			<g>
				<path class="st7" d="M24.7,21.7c0.8,0,1.3,0.5,1.3,1.3c0,0.7-0.6,1.3-1.4,1.4c-0.5,0-1.2-0.7-1.2-1.3
					C23.5,22.3,24,21.7,24.7,21.7L24.7,21.7z M24.7,22.6c-0.3,0-0.4,0.2-0.4,0.4c0,0.3,0.1,0.5,0.5,0.5c0.3,0,0.4-0.2,0.4-0.5
					C25.2,22.7,25,22.6,24.7,22.6z"/>
			</g>
			<g>
				<path class="st2" d="M24.7,22.6c0.3,0,0.5,0,0.5,0.4c0,0.3-0.1,0.5-0.4,0.5c-0.3,0-0.4-0.2-0.5-0.5
					C24.3,22.8,24.4,22.6,24.7,22.6z"/>
			</g>
		</g>
		<g class="st8">
			<path class="st2" d="M15.9,42.1L15.9,42.1c-1.4,0-2.1-0.8-2.1-2.1c0-1.3,0.7-2.1,2.1-2.1c1.4,0,2.1,0.8,2.1,2.1
				c0,0.9-0.4,1.6-1.1,1.9l1,0.9h-1.2L15.9,42.1z M15.9,41.3c0.7,0,0.9-0.6,0.9-1.3c0-0.7-0.3-1.3-0.9-1.3c-0.7,0-0.9,0.6-0.9,1.3
				C14.9,40.7,15.2,41.3,15.9,41.3z"/>
			<path class="st2" d="M22.1,40.5c0,1.1-0.7,1.6-1.8,1.6s-1.8-0.5-1.8-1.6v-2.6h1.1v2.4c0,0.5,0.1,1,0.7,1s0.7-0.5,0.7-1v-2.4h1.1
				V40.5z"/>
			<path class="st2" d="M22.8,37.9h1.7l0.9,2.7h0l0.9-2.7H28V42h-1.1l0-3.2h0L25.9,42h-1l-1-3.2h0l0,3.2h-1.1V37.9z"/>
			<path class="st2" d="M32.3,40.5c0,1.1-0.7,1.6-1.8,1.6c-1.1,0-1.8-0.5-1.8-1.6v-2.6h1.1v2.4c0,0.5,0.1,1,0.7,1s0.7-0.5,0.7-1
				v-2.4h1.1V40.5z"/>
			<path class="st2" d="M34.2,40.5l-1.5-2.6H34l0.8,1.7l0.8-1.7h1.3l-1.5,2.6V42h-1.1V40.5z"/>
		</g>
	</g>
</g>
</svg>
