<?xml version="1.0" encoding="UTF-8"?>
<svg xmlns="http://www.w3.org/2000/svg" viewBox="0 0 50 50">
  <defs>
    <style>
      .cls-1 {
        fill: #fff;
      }

      .cls-2 {
        fill: #e75653;
      }
    </style>
  </defs>
  <g id="Layer_2" data-name="Layer 2">
    <rect class="cls-2" x="-2" y="-2.06" width="54" height="53.13"/>
  </g>
  <g id="Layer_1" data-name="Layer 1">
    <g>
      <path class="cls-1" d="m25.43,26.6c-.17.21-.34.42-.52.61-2.58,2.82-6.87,2.99-9.62.35-1.47-1.42-2.06-3.2-1.87-5.23.03-.29-.03-.51-.15-.77-.36-.77-.66-1.57-.98-2.36-.05-.12-.1-.23-.14-.35-.18-.49-.03-.95.44-1.17.49-.23.86-.51,1.09-1.06.27-.65.84-1.05,1.52-1.24,1.4-.4,2.8-.8,4.21-1.17.81-.21,1.57-.04,2.25.45.1.07.26.12.38.11.44-.02.89-.08,1.33-.1.53-.03.88.26.97.79.15.88.27,1.76.42,2.63.02.13.09.27.17.37.18.24.39.47.56.71.09.12.17.15.31.12,2.29-.52,4.61-.74,6.96-.75.8,0,1.6.01,2.38.24,2.27.65,3.83,2.87,3.63,5.16-.22,2.51-2.04,4.43-4.47,4.69-.76.08-1.51-.02-2.24-.23-.56-.16-1.1-.34-1.66-.5-.1-.03-.24-.04-.32.01-1.57.95-3.73.46-4.6-1.28-.01-.02-.03-.04-.06-.07Zm-.12-2.42c.89-2.1,3.07-2.51,4.42-1.9.73.33,1.28.83,1.62,1.55.47.99.4,1.98-.11,2.99.65.16,1.26.35,1.89.47,2.75.49,5.07-2.24,4.11-4.85-.58-1.58-1.77-2.42-3.44-2.49-2.77-.12-5.52.12-8.21.81-.7.18-1.38.42-1.98.83-.5.34-.54.61-.17,1.08.51.63,1.17,1.07,1.87,1.51Zm-1.1-4.46c-.12-.27-.3-.38-.59-.3-.17.05-.35.05-.53.07-2.79.36-5.48,1.12-8.04,2.28-.1.05-.21.17-.23.28-.27,1.39,0,2.68.8,3.83,1.86,2.65,5.69,2.99,8.04.72.38-.36.7-.77.95-1.23-.29-.19-.56-.37-.82-.55-.61-.43-1.18-.91-1.6-1.55-.47-.72-.5-1.53-.03-2.14.23-.3.53-.56.84-.77.37-.25.8-.43,1.21-.64Zm-1.1-3.7c-3.4.26-6.58,1.14-9.6,2.67.27.67.53,1.29.8,1.95,2.92-1.34,5.95-2.17,9.13-2.54-.11-.71-.21-1.37-.33-2.08Zm5.34,7.37c-1.06,0-1.94.85-1.95,1.89,0,1,.84,1.82,1.88,1.82,1.05,0,1.94-.88,1.93-1.91,0-1-.83-1.8-1.86-1.8Zm-9.52-8.34c.63.23,1.2-.02,1.78-.11-.61-.27-1.18-.09-1.78.11Z"/>
      <path class="cls-1" d="m9.85,36.93c-.32,0-.61.01-.9,0-.08,0-.17-.12-.22-.2-.71-1.14-1.42-2.28-2.13-3.42-.04-.07-.09-.13-.17-.25v3.11c.16.02.32.04.5.06v.72c-.24,0-.47,0-.71,0-.37,0-.75,0-1.12,0-.19,0-.26-.06-.24-.25,0-.07,0-.14,0-.21-.03-.2.07-.27.26-.27.18,0,.27-.09.27-.28,0-1.26,0-2.52,0-3.79,0-.02-.01-.03-.02-.08-.13-.01-.27-.03-.45-.05,0-.19-.01-.38,0-.57,0-.05.11-.13.17-.13.4-.01.8-.02,1.2,0,.1,0,.22.11.27.2.69,1.1,1.37,2.21,2.05,3.31.05.08.1.15.22.22v-.28c0-.78,0-1.56,0-2.35q0-.36-.35-.38c-.05,0-.1,0-.18-.02v-.72h1.11c.16,0,.32,0,.48,0,.51,0,.45-.09.46.47,0,.15-.03.25-.2.24-.27,0-.32.15-.32.38,0,1.03,0,2.06,0,3.09,0,.47,0,.94,0,1.44Z"/>
      <path class="cls-1" d="m37.87,31.58c0-.18-.01-.36,0-.54,0-.06.1-.14.16-.14.43-.01.85,0,1.32,0v1.97c.4-.26.78-.35,1.19-.31.79.09,1.28.51,1.47,1.28.17.67.13,1.34-.09,1.99-.27.81-.85,1.22-1.81,1.2-.51,0-1.01-.15-1.52-.25-.19-.03-.24-.15-.24-.35,0-1.42,0-2.84,0-4.26,0-.59.04-.5-.5-.59Zm1.5,3.36c0,.33,0,.66,0,.99,0,.08.03.19.09.23.46.33,1.23.12,1.43-.4.23-.62.23-1.25.03-1.88-.03-.1-.09-.19-.16-.28-.21-.26-.61-.36-.95-.23-.32.12-.45.31-.45.7,0,.29,0,.59,0,.88Z"/>
      <path class="cls-1" d="m18.59,36.9c0-.14-.02-.26-.03-.43-.08.06-.13.11-.18.15-.54.46-1.15.54-1.8.3-.47-.17-.64-.58-.66-1.04-.03-.66-.02-1.31-.02-1.97,0-.47,0-.47-.47-.56v-.66h1.48c0,.1,0,.21,0,.31,0,.84,0,1.69.02,2.53.01.51.18.7.56.72.48.03.9-.25.92-.7.03-.65.02-1.3,0-1.95,0-.07-.11-.16-.19-.21-.07-.04-.17-.03-.27-.04v-.67h1.48c0,.09,0,.19,0,.28,0,.95,0,1.9,0,2.85,0,.25.05.41.34.42.06,0,.17.13.17.19.01.61.05.48-.46.49-.28,0-.55,0-.83,0-.02,0-.03-.01-.08-.03Z"/>
      <path class="cls-1" d="m15.12,36.26v.64h-1.32c0-.13-.02-.26-.03-.41-.04.02-.07.03-.09.05-.97.92-2.34.54-2.67-.76-.16-.6-.14-1.2.03-1.79.34-1.18,1.2-1.49,2.19-1.46.41.01.82.14,1.23.22.16.03.21.12.2.28,0,.88,0,1.76,0,2.64q0,.49.47.59Zm-1.47-1.66c0-.35,0-.69,0-1.04,0-.07-.07-.2-.13-.21-.62-.16-1.19-.09-1.43.66-.16.51-.18,1.03-.07,1.55.03.14.08.27.16.39.19.3.54.42.91.31.36-.1.57-.37.57-.74,0-.31,0-.62,0-.93Z"/>
      <path class="cls-1" d="m33.7,34.83c.02-.24.02-.43.05-.62.24-1.4,1.72-2.11,2.98-1.44.33.18.56.43.69.78.29.8.29,1.61-.04,2.39-.34.79-1.14,1.2-2.06,1.09-.82-.1-1.36-.61-1.53-1.47-.05-.25-.06-.51-.08-.73Zm2.92.03c-.07-.38-.1-.7-.18-1.01-.1-.37-.35-.54-.7-.56-.4-.02-.69.13-.83.49-.26.68-.23,1.38.03,2.06.12.31.37.44.69.45.33,0,.61-.12.73-.43.12-.34.18-.7.25-1Z"/>
      <path class="cls-1" d="m31.28,32.01v-.7h2.19v.65c-.5.14-.49.14-.5.68,0,.92,0,1.83-.02,2.75-.02,1.13-.45,1.58-1.58,1.64-.48.03-.94-.05-1.37-.27-.08-.04-.16-.17-.16-.26-.02-.37,0-.75,0-1.12,0-.14.04-.21.19-.21.21,0,.42-.02.68-.04,0,.22,0,.42,0,.62-.01.22.1.32.3.37.61.15.91-.08.92-.7,0-1.06,0-2.11,0-3.17,0-.05,0-.1-.01-.18-.2-.02-.41-.04-.63-.06Z"/>
      <path class="cls-1" d="m45.86,33.9c-.24.02-.47.04-.72.06,0-.09-.02-.17-.02-.25-.01-.31-.09-.41-.41-.44-.19-.02-.41-.03-.57.04-.14.06-.27.23-.31.38-.06.19.05.37.23.46.19.09.4.15.6.23.22.08.46.14.67.24.81.39.91,1.51.2,2.06-.32.25-.7.37-1.1.35-.46-.02-.92-.09-1.37-.15-.2-.02-.28-.13-.27-.35.02-.31,0-.62,0-.95.26-.02.49-.03.77-.05,0,.12,0,.22,0,.32-.01.24.11.38.33.41.23.03.48.03.71,0,.22-.03.34-.18.36-.4.02-.21-.08-.37-.26-.46-.15-.07-.32-.11-.48-.17-.24-.08-.49-.16-.73-.25-.92-.34-.82-1.72-.15-2.13.48-.3.99-.35,1.54-.28.9.11,1,.22.98,1.11,0,.07-.01.14-.02.22Z"/>
      <path class="cls-1" d="m28.46,34.05c0-.11-.02-.17-.02-.24,0-.39-.1-.48-.49-.49-.43,0-.74.18-.89.59-.21.58-.21,1.17.02,1.75.19.48.6.7,1.12.58.26-.06.51-.18.81-.29.1.18.22.39.34.61-.07.05-.13.11-.19.15-.67.4-1.38.46-2.1.21-.54-.19-.9-.59-1.02-1.14-.1-.44-.15-.9-.11-1.34.12-1.36,1.17-2.11,2.51-1.82q.8.17.8.95,0,.44-.45.48c-.1,0-.19.01-.32.02Z"/>
      <path class="cls-1" d="m22.75,33.38h-1.04c0,.34,0,.65,0,.95,0,.41,0,.82,0,1.23,0,.63.33.84.92.62.06-.02.11-.04.2-.07.08.19.16.36.21.55.01.05-.05.15-.1.17-.61.28-1.24.32-1.84-.01-.36-.2-.39-.58-.4-.93-.01-.73,0-1.46,0-2.19,0-.1,0-.19,0-.32h-.59c.02-.15.03-.26.04-.37,0-.16.06-.25.24-.29.32-.06.48-.32.61-.58q.2-.41.72-.33v.86h1.12c-.03.25-.05.46-.08.72Z"/>
      <path class="cls-1" d="m24.93,36.18c.53.1.56.15.45.73h-1.97v-.61q.51-.15.51-.7c0-.57,0-1.14,0-1.71q0-.46-.48-.54v-.67h1.49v3.5Z"/>
      <path class="cls-1" d="m24.33,30.86c.38,0,.65.26.65.62,0,.37-.28.65-.67.64-.38,0-.65-.28-.64-.64,0-.37.27-.62.66-.62Z"/>
      <path class="cls-1" d="m34.39,22.69c.52,0,.93.43.92.94,0,.51-.43.93-.94.93-.52,0-.95-.44-.94-.96.01-.52.43-.92.95-.91Z"/>
      <path class="cls-1" d="m17.82,23.46c0-.61.49-1.09,1.11-1.09.62,0,1.12.51,1.11,1.12-.01.61-.5,1.09-1.11,1.09-.62,0-1.11-.5-1.1-1.12Z"/>
    </g>
  </g>
</svg>