<?xml version="1.0" encoding="UTF-8"?>
<svg id="Layer_2" data-name="Layer 2" xmlns="http://www.w3.org/2000/svg" viewBox="0 0 50 50">
  <defs>
    <style>
      .cls-1 {
        fill: #fff;
      }

      .cls-2 {
        fill: #e75653;
      }
    </style>
  </defs>
  <rect class="cls-2" x="-2" y="-2.06" width="54" height="53.13"/>
  <g>
    <path class="cls-1" d="m6.16,24.73s.03-.05.05-.08c.03-.04.05-.08.08-.12,0,0,0,0,0,0,.04-.06.08-.12.12-.17.02-.04.05-.07.07-.11.02-.05.03-.11.05-.16.04-.04.07-.08.11-.12.02-.07.04-.13.06-.2,0,0,0,0,0,0,.02-.03.05-.06.07-.09.02-.05.03-.11.05-.16.04-.07.08-.13.12-.2.02-.04.05-.09.07-.13.02-.04.03-.08.05-.12.07-.12.14-.25.21-.37.19-.02.12-.18.16-.28,0-.01.01-.03.02-.04,0-.01.02-.03.03-.04.01-.04.03-.08.04-.13.01-.01.02-.02.03-.04,0,0,0,0,0,0,.01-.03.03-.05.04-.08,0,0,0,0,0,0,.03-.04.05-.08.08-.12.02-.03.03-.06.05-.08.04-.08.08-.16.11-.24.05-.08.09-.16.14-.25.02-.04.04-.08.07-.12.03-.07.06-.14.09-.21.01-.01.02-.02.03-.03.03-.06.07-.12.1-.17,0-.02.02-.04.03-.05.04-.07.08-.15.13-.22.04-.07.08-.13.12-.2.01-.03.03-.06.04-.09.01-.03.03-.05.04-.08.04-.08.08-.16.12-.25.03-.04.05-.08.08-.12.02-.03.03-.06.05-.08.02-.01.05-.03.07-.04,0,0,0,0,0,0,0,0,.01,0,.01,0,0,0,0-.02,0-.03,0-.02,0-.03-.01-.05,0-.01,0-.02,0-.03,0,0,0,0,0,0,.04-.07.08-.13.12-.2.02-.04.04-.08.06-.13.02-.04.04-.08.06-.12.08-.14.15-.28.23-.42.02-.04.04-.08.06-.12h0s.05-.09.08-.13c0-.01.01-.03.02-.04.05-.09.1-.18.15-.28,0,0,0,0,0,0,.02-.05.05-.11.07-.16.02-.04.04-.08.06-.13.04-.05.07-.11.11-.16,0,0,0,0,0,0,.02-.04.05-.09.07-.13.02-.03.05-.05.07-.08.02-.04.03-.08.05-.12.12-.23.24-.46.36-.69.02-.04.03-.08.05-.12.02-.03.03-.05.05-.08.03-.04.05-.08.08-.12,0,0,0,0,0,0,.04-.07.08-.14.11-.21,0,0,0,0,0,0,0-.01.01-.02.02-.04.01-.03.02-.06.03-.08.03-.04.05-.08.08-.12.03-.07.07-.14.1-.21.02-.04.04-.08.06-.12,0,0,0,0,0,0,.02-.04.05-.08.07-.13.07-.18.13-.37.22-.54.25-.46.51-.91.77-1.37.05-.08.1-.15.16-.23.01,0,.02,0,.02-.02.02.01.05.02.07.03.01.02.03.05.04.07,0,0,0,0,0,0,0,.02.02.04.03.06.15.35.3.7.45,1.05.08.19.17.38.25.57l-.04.45c-.09.15-.17.3-.26.45-.01.03-.02.05-.03.08-.37.68-.74,1.36-1.1,2.04-.01.03-.03.05-.04.08-.33.61-.66,1.21-.99,1.82-.04.07-.06.15-.08.22-.04.04-.08.08-.11.12-.3.56-.6,1.12-.9,1.69-.06.11-.11.21-.17.32,0,.01,0,.02,0,.03,0,0,0,0,0,0-.01.01-.02.03-.04.04-.24.44-.49.89-.73,1.33-.07.13-.15.26-.22.39-.01.03-.02.05-.03.08-.35.67-.71,1.34-1.06,2-.02.01-.03.02-.05.04-.61-.02-1.22-.03-1.83-.05.01-.09.02-.18.04-.27.02-.08.06-.16.08-.24.02-.03.03-.06.05-.09.04-.07.07-.13.11-.2,0-.02.01-.03.02-.05.06-.12.12-.24.19-.36.04-.06.07-.11.11-.17.02-.04.03-.08.05-.12Z"/>
    <path class="cls-1" d="m40.02,23.79c-.03-.07-.07-.14-.1-.2.14,0,.13-.08.11-.17-.04-.16-.15-.09-.24-.07-.04-.07-.08-.14-.12-.21,0-.01-.01-.02-.02-.03,0-.02-.01-.03-.02-.05l.06-.05s-.07-.02-.1-.03c-.21-.38-.41-.76-.62-1.14.03-.06.05-.12.08-.17-.06-.01-.13-.02-.19-.03-.03-.05-.06-.11-.08-.16.11-.17.1-.18-.11-.2-.23-.43-.47-.86-.7-1.29.03-.07.06-.15.11-.27-.11.05-.16.07-.21.09-.02-.04-.04-.08-.07-.13.14-.07.14-.16.07-.29-.06.05-.11.09-.16.13-.03-.05-.05-.11-.08-.16.04-.08.07-.16.11-.23-.08,0-.16,0-.23-.01-.08-.15-.16-.29-.24-.44-.02-.03-.04-.06-.06-.09-.13-.24-.26-.49-.39-.73.03-.05.06-.11.1-.16l-.06-.04s-.06.07-.09.11c-.02-.05-.05-.09-.07-.14.01-.08.03-.15.04-.24-.07.01-.11.02-.16.03-.29-.53-.57-1.06-.86-1.59.03-.02.07-.04.08-.07.1-.22-.02-.47-.29-.59.03-.06.05-.11.08-.17,0,.02,0,.03,0,.05.1.04.2.09.34.15-.04-.18-.07-.28-.22-.27-.02-.03-.03-.06-.05-.08,0-.01,0-.03.01-.04.09,0,.18,0,.26,0,.04,0,.1-.07.09-.09-.05-.11-.11-.21-.16-.31.03-.07.06-.14.09-.2.01-.03.03-.06.04-.08,0-.01.01-.03.02-.04,0-.01.02-.03.02-.04.04-.09.09-.19.13-.28,0-.02.02-.04.03-.06,0-.01,0-.02,0-.02.11-.01.21-.03.32-.04.78,1.44,1.55,2.88,2.33,4.32.79,1.45,1.57,2.9,2.36,4.36.45.84.9,1.68,1.35,2.51.14.27.28.54.42.81.03.04.05.08.08.13.06.11.11.21.17.32-.08.07-.17.13-.25.2-.19.02-.37.04-.56.05-.24,0-.47,0-.71,0-.12-.03-.25-.06-.37-.08-.03-.04-.07-.08-.1-.12.04-.04.09-.08.1-.13.05-.15-.14-.21-.15-.31,0-.22-.12-.2-.26-.17-.27-.5-.54-1-.81-1.5.12-.14.11-.24-.03-.37,0,.07,0,.13-.01.19-.02,0-.04,0-.06,0Zm2.25,2.18s0-.03,0-.05c-.04,0-.08,0-.11.01,0,.02,0,.03,0,.05.04,0,.08,0,.11-.01Zm-.8-2.67s.06-.05.06-.07c0-.01-.02-.03-.04-.05-.02.01-.05.03-.05.05,0,.02.01.04.03.08Z"/>
    <path class="cls-1" d="m28.1,15c.87-.4,1.74-.8,2.61-1.21,1.73-.8,3.46-1.61,5.2-2.41.06-.03.12-.03.19-.05.02.01.03.03.05.04-.13.25-.25.5-.39.74-.65,1.13-1.31,2.26-1.96,3.39-.38.67-.75,1.34-1.12,2.01-.16-.1-.31-.22-.47-.31-.1-.06-.22-.09-.32-.15-.17-.09-.33-.18-.49-.27-.11-.06-.22-.12-.33-.17-.18-.08-.37-.14-.55-.22-.21-.1-.39-.29-.65-.27-.02,0-.05-.02-.07-.03-.16-.09-.32-.2-.49-.28-.25-.12-.51-.22-.77-.33-.09-.04-.16-.14-.24-.16-.2-.04-.22-.14-.17-.31Z"/>
    <path class="cls-1" d="m18.91,14.53c.41.2.83.4,1.24.61.16.08.32.16.48.24-.11.08-.31-.11-.36.1-.03.14,0,.3.02.44.06.36.21.71.18,1.1-.04.42-.04.84-.04,1.26,0,1.17,0,2.34,0,3.51,0,.23-.05.44-.19.63-.11.15-.29.3-.06.49.02.02,0,.08,0,.12,0,.11-.02.22,0,.33.13.45.05.9.03,1.35,0,.08-.06.16-.09.24-.19-.33-.38-.66-.58-.99-.09-.15-.21-.28-.3-.43-.08-.13-.11-.29-.19-.42-.15-.25-.32-.48-.47-.73-.08-.13-.12-.28-.18-.42.12,0,.18-.05.17-.17,0-.1-.02-.2-.03-.3-.03-.23-.09-.45-.09-.68,0-.39.05-.78.07-1.17,0-.09.02-.19.04-.28.05-.26.15-.52.15-.79.03-1.12.04-2.24.04-3.36,0-.22-.1-.44.13-.61.01,0,0-.04,0-.06Z"/>
    <path class="cls-1" d="m28.06,25.51c-.13.23-.25.47-.39.69-.07.12-.19.19-.34.11-.05-.02-.1-.03-.15-.03-1.9,0-3.8,0-5.69,0-.03,0-.05,0-.08,0-.14,0-.27,0-.41-.01.06-.09.12-.18.17-.28.07-.14.13-.28.21-.41.16-.27.32-.54.48-.82.03-.04.07-.08.1-.13.29-.5.59-1,.88-1.51.1-.07.2-.15.31-.23.09.06.19.12.29.19.49.38,1.08.53,1.64.74.2.07.39.17.58.27.17.09.32.23.49.31.33.16.62.41,1.02.4.03,0,.06.02.09.04.21.1.42.2.63.3.04.02.08.05.1.09.04.08.06.18.09.26Z"/>
    <path class="cls-1" d="m21.85,24.77c-.16.27-.33.54-.48.82-.08.13-.13.28-.21.41-.05.09-.11.18-.17.28-.04,0-.08,0-.12.01-.16-.29-.33-.58-.49-.87-.05-.09-.09-.18-.14-.27.01-.02.03-.04.04-.06-.03-.01-.07-.02-.1-.03-.02-.04-.04-.08-.06-.12.03-.08.09-.16.09-.24.02-.45.1-.9-.03-1.35-.03-.1,0-.22,0-.33,0-.04.01-.1,0-.12-.23-.2-.05-.35.06-.49.14-.19.19-.4.19-.63,0-1.17,0-2.34,0-3.51,0-.42,0-.84.04-1.26.03-.39-.12-.73-.18-1.1-.03-.14-.05-.3-.02-.44.05-.21.25-.02.36-.1.01,0,.03,0,.04.01.01,0,.03.02.04.03.3.06.45.26.58.51.12.24.27.47.4.7-.1.07-.19.13-.18.28.03.35.03.7.05,1.06,0,.07.01.14,0,.2,0,.16-.02.33-.04.49,0,.07-.05.14-.05.21-.02.46-.1.91-.05,1.37.06.64.01,1.29.06,1.93.03.39.12.78.23,1.16.06.22.06.42-.03.63-.06.13-.08.29-.07.43.02.12.11.24.17.36,0,.01.04,0,.06.01Z"/>
    <path class="cls-1" d="m18.91,14.53s0,.05,0,.06c-.22.17-.13.39-.13.61,0,1.12,0,2.24-.04,3.36,0,.26-.1.53-.15.79-.02.09-.04.19-.04.28-.03.39-.07.78-.07,1.17,0,.23.06.45.09.68.01.1.02.2.03.3.01.12-.05.17-.17.17-.28-.5-.57-.99-.85-1.49-.19-.33-.38-.67-.57-1.01-.07-.14-.27-.21-.24-.41.04,0,.09.02.17.03-.02-.29-.05-.55-.05-.82-.02-1.1.02-2.19.11-3.29.04-.44-.07-.9-.11-1.35.38.17.76.35,1.14.52.26.12.53.25.79.37.03.01.07,0,.11,0Z"/>
    <path class="cls-1" d="m21.85,24.77s-.05,0-.06-.01c-.06-.12-.16-.23-.17-.36-.02-.14,0-.3.07-.43.09-.21.09-.4.03-.63-.1-.38-.2-.77-.23-1.16-.05-.64,0-1.29-.06-1.93-.04-.47.03-.92.05-1.37,0-.07.04-.14.05-.21.02-.16.03-.33.04-.49,0-.07,0-.14,0-.2-.01-.35-.02-.7-.05-1.06-.01-.16.08-.21.18-.28.14.23.29.47.43.7.23.38.48.75.7,1.14.16.28.3.58.46.86.26.46.54.91.81,1.36.03.03.06.06.08.09-.1.19-.19.37-.29.56-.2.33-.41.65-.61.98-.04.08-.08.15-.13.23-.11.2-.22.39-.33.59-.29.5-.59,1.01-.88,1.51-.03.05-.07.09-.1.13Z"/>
    <path class="cls-1" d="m31.62,19.34c-.26.46-.53.93-.79,1.39-.18-.09-.35-.17-.53-.27-.61-.32-1.21-.65-1.82-.96-.2-.1-.44-.14-.66-.2-.04-.01-.08-.02-.11-.04-.62-.39-1.34-.59-1.96-.98-.02,0-.04,0-.06,0,.34-.59.69-1.17,1.03-1.76.11.14.22.25.42.29.18.03.35.17.52.26.11.06.22.13.34.18.17.07.35.12.52.2.27.14.53.29.79.44.03.02.08,0,.12.02.09.03.18.07.26.11.15.07.29.15.44.21.16.07.33.12.49.19.13.05.24.12.36.19.16.09.31.21.48.28.16.06.23.15.25.3-.01.02-.03.05-.04.07-.02.03-.03.05-.05.08Z"/>
    <path class="cls-1" d="m25.68,18.27s.04,0,.06,0c.62.39,1.34.59,1.96.98.03.02.08.03.11.04.22.07.46.1.66.2.61.31,1.21.64,1.82.96.17.09.35.18.53.27-.28.5-.56,1-.85,1.5-.05.09-.11.17-.16.26-.1-.16-.24-.26-.4-.37-.32-.22-.71-.24-1.03-.44-.1-.06-.21-.11-.32-.16-.16-.08-.32-.15-.48-.23-.15-.08-.3-.18-.46-.26-.16-.08-.35-.12-.5-.2-.23-.13-.44-.3-.72-.3-.03,0-.06-.02-.09-.04-.31-.15-.61-.31-.91-.45-.03-.09-.07-.18-.1-.27.08-.15.15-.3.24-.45.21-.35.42-.69.64-1.03Z"/>
    <path class="cls-1" d="m31.7,19.19c-.01-.16-.09-.24-.25-.3-.17-.06-.32-.18-.48-.28-.12-.07-.24-.14-.36-.19-.16-.07-.33-.12-.49-.19-.15-.06-.3-.14-.44-.21-.09-.04-.17-.07-.26-.11-.04-.01-.08,0-.12-.02-.27-.15-.52-.3-.79-.44-.16-.08-.35-.13-.52-.2-.12-.05-.23-.12-.34-.18-.17-.09-.34-.23-.52-.26-.2-.04-.31-.15-.42-.29.21-.36.4-.72.62-1.07.17-.27.49-.34.77-.46-.05.16-.03.27.17.31.09.02.16.12.24.16.25.12.52.21.77.33.17.08.33.19.49.28.02.01.05.03.07.03.26-.02.44.17.65.27.18.09.37.15.55.22.11.05.22.11.33.17.17.09.33.19.49.27.1.05.22.09.32.15.16.1.31.21.47.31-.32.56-.64,1.12-.96,1.68Z"/>
    <path class="cls-1" d="m24.81,19.76c.03.09.07.18.1.27.29.15.6.3.91.45.03.02.06.04.09.04.28,0,.49.17.72.3.16.09.34.13.5.2.16.07.3.18.46.26.16.08.32.15.48.23.11.05.22.1.32.16.32.2.71.23,1.03.44.16.11.3.21.4.37-.01.03-.03.06-.04.08-.01.02-.03.05-.04.07,0,0,0,0,0,0-.01.02-.02.03-.03.05,0,0,0,0,0,0-.02.03-.03.06-.05.08-.23.41-.47.81-.7,1.22,0-.22-.06-.41-.27-.52-.13-.07-.26-.14-.39-.2-.38-.16-.76-.3-1.13-.47-.52-.25-1.04-.52-1.55-.79-.23-.12-.47-.24-.71-.34-.23-.1-.47-.2-.71-.28-.09-.03-.2-.03-.3-.05.1-.19.19-.37.29-.56.03-.03.05-.06.08-.09.09-.15.18-.3.27-.45.01,0,.02-.02.03-.02,0,0-.02-.01-.02-.02.02-.03.04-.05.07-.08.05-.09.1-.18.15-.28l.05-.09Z"/>
    <path class="cls-1" d="m16.87,13.63c.04.45.15.9.11,1.35-.09,1.09-.13,2.19-.11,3.29,0,.27.03.53.05.82-.08-.01-.13-.02-.17-.03-.07-.14-.14-.27-.21-.41-.03-.03-.05-.05-.08-.08-.32-.55-.64-1.09-.95-1.64-.12-.21-.22-.42-.32-.64.03-.15.11-.32.08-.46-.1-.51-.15-1.01-.07-1.52.06-.41.12-.82.18-1.23,0-.04.04-.07.06-.1.48.22.96.44,1.43.66Z"/>
    <path class="cls-1" d="m23.89,21.34c.1.02.2.02.3.05.24.09.47.18.71.28.24.11.48.23.71.34.52.26,1.03.54,1.55.79.37.17.75.31,1.13.47.13.06.27.13.39.2.21.11.28.3.27.52-.14.24-.28.49-.42.73-.05-.05-.09-.1-.15-.13-.19-.12-.38-.31-.58-.33-.25-.03-.41-.18-.61-.26-.4-.17-.79-.38-1.19-.58-.19-.09-.37-.2-.56-.29-.14-.07-.27-.14-.41-.19-.21-.09-.43-.15-.62-.25-.36-.19-.71-.37-1.13-.37.2-.33.41-.65.61-.98Z"/>
    <path class="cls-1" d="m15.43,12.97s-.06.06-.06.1c-.06.41-.12.82-.18,1.23-.08.51-.03,1.02.07,1.52.03.14-.05.31-.08.46-.29-.5-.58-1-.87-1.5-.27-.46-.55-.92-.82-1.39-.28-.49-.55-.99-.83-1.49-.04-.08-.1-.15-.15-.22.02-.03.04-.05.06-.08,0,0,.02,0,.03,0,.03.01.06.03.09.04,0,0,0,0,0,0,.01,0,.03.02.04.03,0,.01.02.02.03.01.02.01.03.02.05.03.14.05.29.08.42.14.17.08.33.19.5.27.3.14.6.28.9.42.11.05.21.1.32.15.02.01.05.02.07.03.14.07.27.15.41.22Z"/>
    <path class="cls-1" d="m23.28,22.32c.42,0,.77.18,1.13.37.2.1.42.16.62.25.14.06.28.13.41.19.19.09.37.2.56.29.39.2.78.4,1.19.58.2.09.37.23.61.26.2.03.39.21.58.33.06.04.1.09.15.13-.16.26-.32.52-.48.78-.03-.09-.05-.18-.09-.26-.02-.04-.06-.07-.1-.09-.21-.1-.42-.2-.63-.3-.03-.01-.06-.04-.09-.04-.4.01-.69-.24-1.02-.4-.17-.09-.32-.22-.49-.31-.19-.1-.38-.19-.58-.27-.56-.21-1.15-.36-1.64-.74-.1-.07-.2-.14-.29-.19-.11.08-.21.15-.31.23.11-.2.22-.39.33-.59.04-.08.08-.15.13-.23Z"/>
    <path class="cls-1" d="m14.13,24.13c0-.09,0-.19,0-.28,0-.43,0-.85,0-1.28,0-.05,0-.1.01-.15.08,0,.16-.01.24-.02.07,0,.14,0,.2,0,.01,0,.03,0,.04,0,.33,0,.65,0,.98,0,.05,0,.11,0,.16,0,.01,0,.03,0,.04,0,.01.08.04.16.04.23,0,.4,0,.8,0,1.2,0,.01,0,.03,0,.04,0,.03,0,.06,0,.09,0,.03,0,.05,0,.08,0,.01,0,.03-.01.04-.01.01-.02.03-.04.04-.38,0-.77.01-1.15.02-.11,0-.22,0-.33,0-.07,0-.14,0-.21,0Z"/>
    <path class="cls-1" d="m12.08,24.13c-.06-.03-.12-.06-.18-.1,0-.49,0-.98,0-1.47,0-.05.01-.11.02-.16.07,0,.13,0,.2,0,.01,0,.03,0,.04,0,.45,0,.9,0,1.35-.01.04,0,.08.02.12.03,0,.5,0,1,0,1.5,0,.15-.04.22-.21.21-.2-.01-.41,0-.61,0-.06,0-.11,0-.17,0-.18,0-.35,0-.53,0-.01,0-.03,0-.04,0Z"/>
    <path class="cls-1" d="m15.64,26.28c-.11,0-.23,0-.34,0-.35,0-.71,0-1.06,0-.11,0-.13-.02-.12-.15.01-.47-.01-.95-.02-1.42,0-.05.02-.1.03-.15.05,0,.11,0,.16,0,.01,0,.03,0,.04,0,.33,0,.65,0,.98,0,.16,0,.33.01.49.02.01.01.03.02.04.03,0,.51.01,1.02.02,1.53-.02.05-.04.1-.07.16-.03,0-.05,0-.08,0-.03,0-.05,0-.08-.01Z"/>
    <path class="cls-1" d="m12.04,24.56h1.57c0,.27.01.53.02.79,0,.27,0,.54,0,.81-.04.04-.07.1-.11.12-.07.02-.15,0-.22.01-.4,0-.79-.01-1.19,0-.16,0-.22-.06-.21-.21,0-.39.01-.79.02-1.18.02-.11.05-.21.07-.32.01,0,.03-.01.04-.02Z"/>
    <path class="cls-1" d="m40.94,25.47c.14-.03.25-.05.26.17,0,.09.2.16.15.31-.02.05-.07.09-.1.13l-.1-.16s-.02-.03-.03-.04c0-.01,0-.03-.01-.04,0-.01-.02-.03-.03-.04-.04-.11-.09-.22-.13-.33Z"/>
    <path class="cls-1" d="m35.5,15.13c.27.12.39.36.29.59-.01.03-.06.05-.08.07-.01-.03-.03-.05-.04-.08.03-.04.06-.09.12-.17-.1.02-.14.03-.19.04-.03-.05-.06-.11-.09-.16,0-.01-.02-.03-.03-.04,0-.06,0-.11,0-.17.01-.03.02-.05.03-.08h0Z"/>
    <path class="cls-1" d="m35.86,14.36c.06.1.12.21.16.31,0,.02-.06.08-.09.09-.08.01-.17,0-.26,0,0-.01.02-.03.02-.04.13-.05.23-.12.13-.28l.04-.08Z"/>
    <path class="cls-1" d="m36.52,13.58c-.11.01-.21.03-.32.04.03-.1.07-.2.1-.3l.06-.02c.05.09.11.18.16.27Z"/>
    <path class="cls-1" d="m39.79,23.35c.09-.02.2-.09.24.07.02.09.03.18-.11.17-.04-.08-.08-.16-.13-.24Z"/>
    <path class="cls-1" d="m5.63,25.72c-.03.08-.07.16-.08.24-.02.09-.03.18-.04.27-.13-.02-.15-.19-.03-.34.05-.06.11-.12.16-.18Z"/>
    <path class="cls-1" d="m42.98,26.24c.08-.07.17-.13.25-.2.03.04.05.08.08.13,0,.01,0,.03,0,.04-.11.01-.22.02-.32.03Z"/>
    <path class="cls-1" d="m37.5,19.1c.08,0,.16,0,.23.01-.04.08-.07.16-.11.23-.04-.08-.09-.16-.13-.24Z"/>
    <path class="cls-1" d="m13.15,15.54l.04-.45c.14.16.11.31-.04.45Z"/>
    <path class="cls-1" d="m37.71,19.51s.1-.08.16-.13c.07.13.07.22-.07.29-.03-.05-.06-.11-.09-.16Z"/>
    <path class="cls-1" d="m41.34,26.21c.12.03.25.06.37.08-.14.04-.29.12-.37-.08Z"/>
    <path class="cls-1" d="m40.08,23.79c0-.06,0-.12.01-.19.15.13.15.22.03.37-.02-.03-.03-.06-.05-.1,0-.03,0-.06,0-.08Z"/>
    <path class="cls-1" d="m38.86,21.63c.06.01.13.02.19.03-.03.06-.05.12-.08.17-.04-.07-.08-.14-.12-.21Z"/>
    <path class="cls-1" d="m6,25.03c-.06.12-.12.24-.19.36.06-.12.12-.24.19-.36Z"/>
    <path class="cls-1" d="m37.86,19.79s.09-.04.21-.09c-.05.12-.08.2-.11.27-.03-.06-.06-.12-.09-.18Z"/>
    <path class="cls-1" d="m35.82,14.44c.1.16,0,.23-.13.28.04-.09.09-.19.13-.28Z"/>
    <path class="cls-1" d="m38.66,21.26c.21.02.22.04.11.2-.04-.07-.08-.14-.11-.2Z"/>
    <path class="cls-1" d="m7.43,22.41c-.05.1.03.27-.16.28.05-.09.11-.19.16-.28Z"/>
    <path class="cls-1" d="m11.93,24.9c0-.05-.01-.11-.02-.16,0-.04,0-.08,0-.13.01-.01.02-.03.03-.04,0,0,0,0,0,0,.01,0,.03,0,.04,0-.02.11-.05.21-.07.32Z"/>
    <path class="cls-1" d="m36.56,17.38s.1-.02.16-.03c-.02.09-.03.17-.04.24-.04-.07-.08-.14-.12-.22Z"/>
    <path class="cls-1" d="m9.72,18.17c-.05.09-.1.18-.15.28.05-.09.1-.18.15-.28Z"/>
    <path class="cls-1" d="m36.75,17.74s.06-.07.09-.11l.06.04c-.03.05-.06.11-.1.16-.02-.03-.04-.06-.05-.09Z"/>
    <path class="cls-1" d="m35.66,14.8s.03.06.05.08l-.12.12s0-.03,0-.05c.03-.05.05-.1.08-.16Z"/>
    <path class="cls-1" d="m35.59,15.58s.09-.02.19-.04c-.06.08-.09.12-.12.17-.02-.04-.05-.08-.07-.13Z"/>
    <path class="cls-1" d="m24.76,19.84c-.05.09-.1.18-.15.28.05-.09.1-.18.15-.28Z"/>
    <path class="cls-1" d="m9.06,19.39c-.04.07-.08.13-.12.2.04-.07.08-.13.12-.2Z"/>
    <path class="cls-1" d="m6.94,23.31c-.04.07-.08.13-.12.2.04-.07.08-.13.12-.2Z"/>
    <path class="cls-1" d="m10.81,16.15c-.04.07-.08.14-.11.21.04-.07.08-.14.11-.21Z"/>
    <path class="cls-1" d="m5.79,25.43c-.04.07-.07.13-.11.2.04-.07.07-.13.11-.2Z"/>
    <path class="cls-1" d="m7.83,21.63c-.04.08-.08.16-.11.24.04-.08.08-.16.11-.24Z"/>
    <path class="cls-1" d="m8.53,20.37c-.04.07-.08.13-.12.2.04-.07.08-.13.12-.2Z"/>
    <path class="cls-1" d="m6.41,24.36c-.04.06-.08.12-.12.17.04-.06.08-.12.12-.17Z"/>
    <path class="cls-1" d="m9.96,17.71c-.04.05-.07.11-.11.16.04-.05.07-.11.11-.16Z"/>
    <path class="cls-1" d="m6.53,24.08c-.02.05-.03.11-.05.16.02-.05.03-.11.05-.16Z"/>
    <path class="cls-1" d="m6.69,23.76c-.02.07-.04.13-.06.2.02-.07.04-.13.06-.2Z"/>
    <path class="cls-1" d="m10.53,20.36s.08-.08.11-.12c-.04.04-.08.08-.11.12Z"/>
    <path class="cls-1" d="m15.8,26.28c.02-.05.04-.1.07-.16-.02.05-.04.1-.07.16Z"/>
    <path class="cls-1" d="m7.06,23.06s-.04.08-.05.12c.02-.04.04-.08.05-.12Z"/>
    <path class="cls-1" d="m39.59,22.98s.07.02.1.03l-.06.05s-.03-.05-.04-.08Z"/>
    <path class="cls-1" d="m40.08,23.79s0,.06,0,.08c-.02-.03-.04-.06-.05-.09.02,0,.04,0,.06,0Z"/>
    <path class="cls-1" d="m7.67,21.96s-.05.08-.08.12c.03-.04.05-.08.08-.12Z"/>
    <path class="cls-1" d="m10.7,16.36s-.05.08-.08.12c.03-.04.05-.08.08-.12Z"/>
    <path class="cls-1" d="m8.82,19.84s-.05.08-.08.12c.03-.04.05-.08.08-.12Z"/>
    <path class="cls-1" d="m11.18,15.46s-.05.08-.07.13c.02-.04.05-.08.07-.13Z"/>
    <path class="cls-1" d="m9.47,18.61s-.04.08-.06.12c.02-.04.04-.08.06-.12Z"/>
    <path class="cls-1" d="m10.94,15.91s-.05.08-.08.12c.03-.04.05-.08.08-.12Z"/>
    <path class="cls-1" d="m20.18,25.06s.07.02.1.03c-.01.02-.03.04-.04.06-.02-.03-.04-.06-.06-.09Z"/>
    <path class="cls-1" d="m6.28,24.53s-.05.08-.08.12c.03-.04.05-.08.08-.12Z"/>
    <path class="cls-1" d="m9.55,18.49s-.05.08-.08.12c.03-.04.05-.08.08-.12Z"/>
    <path class="cls-1" d="m10.04,17.58s-.05.09-.07.13c.02-.04.05-.09.07-.13Z"/>
    <path class="cls-1" d="m43.06,25.71s-.05-.08-.08-.13c.03.04.05.08.08.13Z"/>
    <path class="cls-1" d="m9.8,18c-.02.05-.05.11-.07.16.02-.05.05-.11.07-.16Z"/>
    <path class="cls-1" d="m16.46,18.57s.05.05.08.08c-.03-.03-.05-.05-.08-.08Z"/>
    <path class="cls-1" d="m11.11,15.59s-.04.08-.06.12c.02-.04.04-.08.06-.12Z"/>
    <path class="cls-1" d="m10.57,16.56s-.03.08-.05.12c.02-.04.03-.08.05-.12Z"/>
    <path class="cls-1" d="m6.16,24.73s-.03.08-.05.12c.02-.04.03-.08.05-.12Z"/>
    <path class="cls-1" d="m8.04,21.27s-.04.08-.07.12c.02-.04.04-.08.07-.12Z"/>
    <path class="cls-1" d="m9.18,19.15s-.04.08-.06.12c.02-.04.04-.08.06-.12Z"/>
    <path class="cls-1" d="m12.58,11.62s-.04.05-.06.08c0-.03-.01-.06-.02-.09h.07Z"/>
    <path class="cls-1" d="m6.77,23.67s-.05.06-.07.09c.02-.03.05-.06.07-.09Z"/>
    <path class="cls-1" d="m8.62,20.2s-.03.05-.04.08c.01-.03.03-.05.04-.08Z"/>
    <path class="cls-1" d="m37.2,18.57s.04.06.06.09c-.02-.03-.04-.06-.06-.09Z"/>
    <path class="cls-1" d="m11.72,18.2s.03-.05.04-.08c-.01.03-.03.05-.04.08Z"/>
    <path class="cls-1" d="m10.16,17.38s-.03.08-.05.12c.02-.04.03-.08.05-.12Z"/>
    <path class="cls-1" d="m29.66,22.78s.03-.06.05-.08c-.02.03-.03.06-.05.08Z"/>
    <path class="cls-1" d="m8.94,19.72s-.05.03-.07.04c.02-.01.05-.03.07-.04Z"/>
    <path class="cls-1" d="m31.62,19.34s.03-.05.05-.08c-.02.03-.03.05-.05.08Z"/>
    <path class="cls-1" d="m35.99,14.07s-.03.06-.04.08c.01-.03.03-.06.04-.08Z"/>
    <path class="cls-1" d="m12.7,11.67s-.06-.03-.09-.04c.03.01.06.03.09.04Z"/>
    <path class="cls-1" d="m29.74,22.64s.03-.05.04-.07c-.01.02-.03.05-.04.07Z"/>
    <path class="cls-1" d="m35.5,15.13s-.02.05-.03.08c.01-.03.02-.05.03-.08Z"/>
    <path class="cls-1" d="m12.86,16.07s.02-.05.03-.08c-.01.03-.02.05-.03.08Z"/>
    <path class="cls-1" d="m8.29,20.79s-.02.04-.03.05c0-.02.02-.04.03-.05Z"/>
    <path class="cls-1" d="m15.86,24.04s0-.05,0-.08c0,.03,0,.05,0,.08Z"/>
    <path class="cls-1" d="m7.59,22.08s-.03.05-.04.08c.01-.03.03-.05.04-.08Z"/>
    <path class="cls-1" d="m8.45,24.24s.02-.05.03-.08c-.01.03-.02.05-.03.08Z"/>
    <path class="cls-1" d="m7.47,22.33s-.02.03-.03.04c0-.01.02-.03.03-.04Z"/>
    <path class="cls-1" d="m12,24.58s-.03,0-.04,0c.03,0,.05,0,.08-.01-.01,0-.03.01-.04.02Z"/>
    <path class="cls-1" d="m12.46,13.41s-.03-.05-.04-.07c.01.02.03.05.04.07Z"/>
    <path class="cls-1" d="m15.02,12.75s-.05-.02-.07-.03c.02.01.05.02.07.03Z"/>
    <path class="cls-1" d="m11.95,24.57s-.02.03-.03.04c.01-.01.02-.03.03-.04Z"/>
    <path class="cls-1" d="m15.8,22.41s-.03,0-.04,0c.01,0,.03,0,.04,0Z"/>
    <path class="cls-1" d="m12.82,11.74s-.03-.02-.05-.03c.02.01.03.02.05.03Z"/>
    <path class="cls-1" d="m12.35,13.3s0,.02-.02.02c0,0,0-.02.02-.02Z"/>
    <path class="cls-1" d="m9.47,22.4s0-.02,0-.03c0,0,.02.01.03.02,0,0-.02,0-.03.01Z"/>
    <path class="cls-1" d="m12.49,13.48s-.02-.04-.03-.06c0,.02.02.04.03.06Z"/>
    <path class="cls-1" d="m7.55,22.16s-.02.02-.03.04c.01-.01.02-.02.03-.04Z"/>
    <path class="cls-1" d="m9.43,22.44s.02-.03.04-.04c-.01.01-.02.03-.04.04Z"/>
    <path class="cls-1" d="m8.16,21.02s-.02.02-.03.03c.01-.01.02-.02.03-.03Z"/>
    <path class="cls-1" d="m35.48,15.38s.02.03.03.04c0-.01-.02-.03-.03-.04Z"/>
    <path class="cls-1" d="m12.74,11.69s-.03-.02-.04-.03c.01,0,.03.02.04.03Z"/>
    <path class="cls-1" d="m24.54,20.2s.02.01.02.02c-.01,0-.02.02-.03.02,0-.01,0-.03,0-.04Z"/>
    <path class="cls-1" d="m20.71,15.42s-.03-.02-.04-.03c.01,0,.03.02.04.03Z"/>
    <path class="cls-1" d="m36.19,13.65s-.02.04-.03.06c0-.02.02-.04.03-.06Z"/>
    <path class="cls-1" d="m29.7,22.7s.02-.03.03-.05c-.01.02-.02.03-.03.05Z"/>
    <path class="cls-1" d="m36.03,13.99s-.02.03-.02.04c0-.01.02-.03.02-.04Z"/>
    <path class="cls-1" d="m10.83,16.12s-.01.02-.02.04c0-.01.01-.02.02-.04Z"/>
    <path class="cls-1" d="m39.65,23.1s.02.02.02.03c0-.01-.02-.02-.02-.03Z"/>
    <path class="cls-1" d="m8.95,19.67s0,.02,0,.03c0,0,0,0-.01,0,0-.01,0-.03,0-.04Z"/>
    <path class="cls-1" d="m8.94,19.59s0,.02,0,.03c0,0-.02-.01-.03-.02.01,0,.02-.01.03-.02Z"/>
    <path class="cls-1" d="m7.34,26.28s.03-.02.05-.04c-.02.01-.03.02-.05.04Z"/>
    <path class="cls-1" d="m43.35,26.2s.01,0,.02.01c0,0-.01,0-.02,0,0,0,0,0,0,0Z"/>
    <path class="cls-1" d="m43.3,26.2s0-.03,0-.04c.01.01.03.03.04.04,0,0,0,0,0,0-.01,0-.03,0-.04,0Z"/>
    <path class="cls-1" d="m15.84,24.13s-.02,0-.04,0c.01-.01.02-.03.04-.04,0,.02,0,.03,0,.05Z"/>
    <path class="cls-1" d="m41.11,25.88s.02.03.03.04c-.01-.01-.02-.03-.03-.04Z"/>
    <path class="cls-1" d="m41.07,25.8s.02.03.03.04c0-.01-.02-.03-.03-.04Z"/>
    <path class="cls-1" d="m12.08,24.13s.03,0,.04,0c-.01,0-.03,0-.04,0Z"/>
    <path class="cls-1" d="m15.86,23.87s0-.03,0-.04c0,0,.01.02.01.03,0,0,0,0-.01.01Z"/>
    <path class="cls-1" d="m15.85,24.6s-.03-.02-.04-.03c.01.01.03.02.04.03Z"/>
    <path class="cls-1" d="m35.58,15.01s.08-.08.12-.12c.16,0,.18.1.22.27-.15-.07-.25-.11-.34-.15Z"/>
    <path class="cls-1" d="m42.26,25.98s-.08,0-.11.01c0-.02,0-.03,0-.05.04,0,.08,0,.11-.01,0,.02,0,.03,0,.05Z"/>
    <path class="cls-1" d="m41.47,23.31s-.03-.06-.03-.08c0-.02.03-.03.05-.05.01.02.04.04.04.05,0,.02-.03.04-.06.07Z"/>
    <path class="cls-1" d="m14.58,22.39s.03,0,.04,0c-.01,0-.03,0-.04,0Z"/>
    <path class="cls-1" d="m12.12,22.4s.03,0,.04,0c-.01,0-.03,0-.04,0Z"/>
    <path class="cls-1" d="m14.29,24.56s.03,0,.04,0c-.01,0-.03,0-.04,0Z"/>
    <path class="cls-1" d="m34.89,23.91c0-.09,0-.19,0-.28,0-.43,0-.85,0-1.28,0-.05,0-.1.01-.15.08,0,.16-.01.24-.02.07,0,.14,0,.2,0,.01,0,.03,0,.04,0,.33,0,.65,0,.98,0,.05,0,.11,0,.16,0,.01,0,.03,0,.04,0,.01.08.04.16.04.23,0,.4,0,.8,0,1.2,0,.01,0,.03,0,.04,0,.03,0,.06,0,.09,0,.03,0,.05,0,.08,0,.01,0,.03-.01.04-.01.01-.02.03-.04.04-.38,0-.77.01-1.15.02-.11,0-.22,0-.33,0-.07,0-.14,0-.21,0Z"/>
    <path class="cls-1" d="m32.84,23.91c-.06-.03-.12-.06-.18-.1,0-.49,0-.98,0-1.47,0-.05.01-.11.02-.16.07,0,.13,0,.2,0,.01,0,.03,0,.04,0,.45,0,.9,0,1.35-.01.04,0,.08.02.12.03,0,.5,0,1,0,1.5,0,.15-.04.22-.21.21-.2-.01-.41,0-.61,0-.06,0-.11,0-.17,0-.18,0-.35,0-.53,0-.01,0-.03,0-.04,0Z"/>
    <path class="cls-1" d="m36.4,26.06c-.11,0-.23,0-.34,0-.35,0-.71,0-1.06,0-.11,0-.13-.02-.12-.15.01-.47-.01-.95-.02-1.42,0-.05.02-.1.03-.15.05,0,.11,0,.16,0,.01,0,.03,0,.04,0,.33,0,.65,0,.98,0,.16,0,.33.01.49.02.01.01.03.02.04.03,0,.51.01,1.02.02,1.53-.02.05-.04.1-.07.16-.03,0-.05,0-.08,0-.03,0-.05,0-.08-.01Z"/>
    <path class="cls-1" d="m32.8,24.34h1.57c0,.27.01.53.02.79,0,.27,0,.54,0,.81-.04.04-.07.1-.11.12-.07.02-.15,0-.22.01-.4,0-.79-.01-1.19,0-.16,0-.22-.06-.21-.21,0-.39.01-.79.02-1.18.02-.11.05-.21.07-.32.01,0,.03-.01.04-.02Z"/>
    <path class="cls-1" d="m32.69,24.67c0-.05-.01-.11-.02-.16,0-.04,0-.08,0-.13.01-.01.02-.03.03-.04,0,0,0,0,0,0,.01,0,.03,0,.04,0-.02.11-.05.21-.07.32Z"/>
    <path class="cls-1" d="m36.56,26.06c.02-.05.04-.1.07-.16-.02.05-.04.1-.07.16Z"/>
    <path class="cls-1" d="m36.62,23.81s0-.05,0-.08c0,.03,0,.05,0,.08Z"/>
    <path class="cls-1" d="m32.76,24.36s-.03,0-.04,0c.03,0,.05,0,.08-.01-.01,0-.03.01-.04.02Z"/>
    <path class="cls-1" d="m32.71,24.35s-.02.03-.03.04c.01-.01.02-.03.03-.04Z"/>
    <path class="cls-1" d="m36.56,22.18s-.03,0-.04,0c.01,0,.03,0,.04,0Z"/>
    <path class="cls-1" d="m36.61,23.9s-.02,0-.04,0c.01-.01.02-.03.04-.04,0,.02,0,.03,0,.05Z"/>
    <path class="cls-1" d="m32.84,23.91s.03,0,.04,0c-.01,0-.03,0-.04,0Z"/>
    <path class="cls-1" d="m36.62,23.65s0-.03,0-.04c0,0,.01.02.01.03,0,0,0,0-.01.01Z"/>
    <path class="cls-1" d="m36.61,24.38s-.03-.02-.04-.03c.01.01.03.02.04.03Z"/>
    <path class="cls-1" d="m35.34,22.17s.03,0,.04,0c-.01,0-.03,0-.04,0Z"/>
    <path class="cls-1" d="m32.88,22.18s.03,0,.04,0c-.01,0-.03,0-.04,0Z"/>
    <path class="cls-1" d="m35.05,24.33s.03,0,.04,0c-.01,0-.03,0-.04,0Z"/>
    <path class="cls-1" d="m12.44,35.48c-.03-.15-.06-.29-.1-.44-.07-.27-.31-.37-.52-.44-.48-.15-.96-.17-1.43.05-.38.18-.62.46-.6.91.01.27,0,.54,0,.82,0,.1,0,.19,0,.29,0,.5-.02,1,0,1.5,0,.22-.08.27-.27.26-.21-.01-.42-.01-.63,0-.19.01-.28-.05-.25-.25,0-.05,0-.11,0-.16,0-.04,0-.08,0-.12,0-.23,0-.46,0-.69,0-.08,0-.16,0-.25,0-.08,0-.16,0-.25,0-.08,0-.16,0-.25,0-.23,0-.46,0-.69,0-.1,0-.19,0-.29-.03-.28-.12-.55-.36-.72-.19-.14-.4-.25-.65-.26-.07,0-.14,0-.2,0-.04,0-.08,0-.12,0h-.12c-.42.05-.8.22-1.1.52-.08.08-.11.26-.11.39,0,.75,0,1.51,0,2.26,0,.22,0,.45,0,.69-.22.02-.45.04-.68.06-.09,0-.19-.01-.28,0-.12,0-.18-.04-.17-.16,0-.35,0-.71,0-1.06,0-.07,0-.14,0-.2,0-.64,0-1.28,0-1.92,0-.03,0-.05,0-.08-.01-.3-.02-.6-.04-.9,0-.13.07-.16.17-.16.15,0,.3,0,.44,0,.05.01.11.03.16.04.23-.02.22.16.25.3.02.09.05.19.07.28.03,0,.06,0,.09,0,.49-.4,1.03-.65,1.68-.62.4.02.8,0,1.13.26.15.12.28.26.41.4.07.07.11.16.19.27.17-.43.55-.58.89-.76.18-.09.39-.15.59-.15.61-.01,1.23-.08,1.81.2.45.21.79.52.86,1.04.05.37.08.75.08,1.12.01.69,0,1.39,0,2.08-.05.01-.11.03-.16.04-.2,0-.41,0-.61,0-.13-.02-.25-.05-.38-.07v-.08c0-.87,0-1.74,0-2.61,0-.06-.03-.11-.05-.17Z"/>
    <path class="cls-1" d="m19.4,38.26c-.65.24-1.32.28-2,.23-.64-.05-1.26-.26-1.77-.65-.4-.31-.67-.75-.76-1.27-.15-.83.12-1.49.78-2.02.44-.35.93-.53,1.47-.58.46-.05.94-.07,1.4-.04.86.06,1.62.37,2.14,1.11.3.43.38.91.31,1.43-.08.67-.41,1.15-.96,1.49-.17.1-.35.19-.52.28-.03,0-.05.01-.08.02Zm-1.51-.36c.21-.02.42-.03.62-.06.67-.11,1.14-.46,1.27-1.15.05-.26.03-.54.02-.81-.02-.58-.33-.98-.84-1.21-.45-.2-.94-.21-1.41-.16-.69.06-1.25.35-1.47,1.07-.11.36-.14.72-.04,1.1.1.4.3.71.65.93.37.22.77.31,1.2.3Z"/>
    <path class="cls-1" d="m43.26,38.41c-.1-.17-.2-.34-.3-.51.01-.02.03-.04.04-.06-.06.02-.13.02-.18.06-.51.32-1.06.54-1.65.59-.5.05-1.02.07-1.5-.17-.14-.08-.28-.15-.42-.23-.11-.2-.25-.38-.32-.59-.1-.29.06-.65.32-.83.4-.3.87-.42,1.34-.53.51-.12,1.03-.16,1.55-.17.1,0,.2-.03.29-.04.07,0,.14,0,.2,0,.03,0,.05,0,.08,0h.16c0-.13,0-.24,0-.36,0-.02-.02-.03-.03-.04-.03-.55-.25-.88-.84-.99-.76-.13-1.43.11-2.1.4-.09.04-.21,0-.31,0-.07-.06-.14-.11-.21-.17-.19-.22-.17-.26.12-.36.31-.11.61-.26.93-.36.52-.16,1.05-.12,1.58-.13.38,0,.74.11,1.08.25.19.08.41.16.52.32.17.23.33.48.34.79.02.56.03,1.12.04,1.69,0,.47,0,.94,0,1.41-.01,0-.02,0-.03.01-.22.01-.44.03-.65.04-.02,0-.03-.01-.05-.02Zm-.36-2.04c-.64.06-1.26.09-1.86.18-.28.04-.55.17-.8.3-.19.09-.33.4-.27.53.1.2.21.42.45.46.27.05.54.08.82.09.59.02,1.1-.21,1.58-.51.04-.03.08-.09.08-.14,0-.28,0-.55,0-.9Z"/>
    <path class="cls-1" d="m31.25,36.63c-.41-.1-.83-.19-1.24-.29-.44-.12-.88-.25-1.2-.61-.43-.48-.2-1.03.22-1.33.25-.18.55-.28.85-.38.53-.19,1.08-.06,1.63-.08.47-.02.86.24,1.28.39.03,0,.05.1.03.14-.14.3-.36.36-.67.24-.21-.08-.45-.12-.67-.16-.22-.04-.45-.09-.67-.08-.25.02-.49.1-.73.15-.22.05-.29.24-.37.4-.03.06.01.19.06.25.33.42.84.46,1.31.57.26.06.53.06.78.2.17.09.37.11.55.2.52.25.75.75.48,1.28-.09.18-.26.32-.39.48-.21.1-.43.2-.64.3-.02,0-.03.02-.05.03-.08.02-.16.04-.24.05-1.1.25-2.15.13-3.15-.44.32-.42.39-.48.9-.3.24.08.49.16.73.23.19.01.38.03.57.04.33.04.65-.03.93-.18.27-.14.44-.35.37-.63,0-.03-.02-.06-.03-.08-.1-.24-.32-.29-.53-.36-.04-.01-.08-.03-.12-.04Z"/>
    <path class="cls-1" d="m36.04,34.7c0,.88,0,1.75,0,2.63,0,.29.28.49.51.5.25.01.51-.02.74-.1.31-.1.31-.13.52.11.07.07.12.16.2.26-.06.04-.12.07-.18.11-.03.01-.05.03-.08.04-.5.18-1.02.29-1.55.24-.53-.05-1.01-.2-1.23-.76-.03-.09-.06-.17-.08-.26v-2.86h-.93s-.05-.08-.07-.12c-.08-.21,0-.34.2-.36.22-.02.43-.05.65-.08.22-.03.29-.22.16-.44.2-.1.15-.31.2-.47.04-.16.06-.32.1-.48.02-.13.11-.17.23-.17.15,0,.3,0,.45,0h.16v1.57h1.81c0,.19,0,.35,0,.51,0,.04-.06.07-.09.1-.06-.02-.11-.05-.17-.05-.48,0-.96,0-1.45,0-.03,0-.06.05-.09.08Z"/>
    <path class="cls-1" d="m23.7,33.11c0,1.59,0,3.18,0,4.77,0,.54,0,.54-.53.54-.11,0-.22,0-.33,0q-.28,0-.3-.28s0-.05,0-.08c0-1.89,0-3.79,0-5.68,0-.05,0-.11,0-.16,0-.08,0-.16,0-.25.03-.03.05-.05.08-.08.33,0,.65.02.98.02.03,0,.05,0,.08.01,0,.18,0,.35,0,.53,0,.22,0,.44,0,.65Z"/>
    <path class="cls-1" d="m26.97,35.03c0,1.05,0,2.09,0,3.14,0,.2-.07.26-.25.25-.32-.01-.64,0-.95,0,.02-.13.04-.25.05-.37v-3.1s0-.08,0-.12c0-.25,0-.49,0-.74.04-.09.09-.18.14-.27.28.24.58.12.85.15l.13.05.04.61c0,.14,0,.27,0,.41Z"/>
    <path class="cls-1" d="m26.92,32.1c.28.12.33.52.11.74-.04.04-.08.09-.12.13-.05.02-.11.04-.16.06-.31.1-.61.12-.89-.09-.15-.11-.31-.22-.29-.42.02-.22.18-.35.36-.45.33-.18.67-.11.99.03"/>
    <path class="cls-1" d="m31.91,37.03s.02.06.03.08c0-.03-.02-.06-.03-.08"/>
  </g>
</svg>