<?xml version="1.0" encoding="UTF-8"?>
<svg id="Layer_2" data-name="Layer 2" xmlns="http://www.w3.org/2000/svg" viewBox="0 0 50 50">
  <defs>
    <style>
      .cls-1 {
        fill: #fff;
      }

      .cls-2 {
        fill: #e75653;
      }
    </style>
  </defs>
  <rect class="cls-2" x="-2" y="-2.06" width="54" height="53.13"/>
  <g>
    <g>
      <path class="cls-1" d="m32.63,39.84c.06-.05.1-.08.14-.11.33-.37.75-.44,1.2-.36.31.06.5.28.64.55.21.41.21,1.61-.06,2.05-.31.52-.87.78-1.45.62-.12-.03-.24-.09-.38-.13,0,.2,0,.38,0,.57,0,.1-.03.23.02.3.04.05.17.03.27.05q.23.04.23.28t-.19.2c-.41,0-.82,0-1.23,0-.1,0-.15-.03-.15-.14,0-.02,0-.04,0-.06-.03-.22-.02-.22.19-.26.16-.03.19-.06.19-.23,0-.95,0-1.9,0-2.85,0-.05,0-.1,0-.15.02-.23,0-.27-.24-.28-.21,0-.19,0-.2-.21q0-.28.27-.28c.2,0,.4,0,.6,0,.12,0,.17.03.16.16-.01.08,0,.16,0,.28Zm.12,1.31s-.01,0-.02,0c0,.22,0,.43,0,.65,0,.11.04.19.16.21.11.03.23.06.35.08.33.04.54-.09.68-.39.11-.24.14-.5.14-.75,0-.25-.02-.5-.13-.73-.12-.24-.36-.36-.64-.32-.28.04-.5.22-.53.49-.02.26,0,.51,0,.77Z"/>
      <path class="cls-1" d="m29.37,39.84c.06-.05.1-.08.13-.11.33-.37.75-.44,1.2-.36.31.06.5.27.64.55.21.41.21,1.61-.05,2.05-.31.52-.87.78-1.46.62-.12-.03-.24-.08-.38-.13,0,.05,0,.09,0,.14,0,.21,0,.42,0,.64,0,.11.03.16.14.14.06,0,.13.01.19.01.2,0,.18.05.18.22,0,.24,0,.24-.24.24-.39,0-.79,0-1.18,0-.11,0-.16-.03-.15-.14,0-.02,0-.05,0-.08-.02-.2-.02-.21.18-.24.17-.03.19-.06.2-.22,0-.44.01-.87.01-1.31,0-.52,0-1.04-.01-1.56,0-.09,0-.18,0-.27,0-.08-.05-.13-.13-.14-.03,0-.05,0-.08,0q-.23-.02-.23-.26s0-.07,0-.1c-.01-.1.03-.13.13-.13.25,0,.51,0,.76,0,.11,0,.15.04.14.14,0,.08,0,.17,0,.3Zm.12,1.31s-.01,0-.02,0c0,.13,0,.25,0,.38,0,.44-.08.45.47.55.01,0,.03,0,.04,0,.32.03.53-.09.67-.39.1-.21.14-.44.14-.68,0-.28,0-.57-.14-.83-.12-.23-.36-.35-.64-.31-.28.04-.5.22-.52.48-.02.26,0,.52,0,.78Z"/>
      <path class="cls-1" d="m23.98,42.19s-.06.05-.08.07c-.41.57-1.56.47-1.84-.27-.28-.76-.27-1.5.22-2.17.22-.3.54-.46.92-.47.21,0,.42.01.63.04.08,0,.11-.02.11-.09,0-.17,0-.35,0-.52,0-.15-.08-.21-.23-.21-.04,0-.08.01-.11,0-.04-.02-.07-.06-.1-.1,0,0,0-.02,0-.04,0-.42-.05-.34.33-.35.21,0,.42,0,.64,0,.12,0,.16.03.16.16,0,.56,0,1.13,0,1.69,0,.62,0,1.25,0,1.87,0,.25.04.29.28.3.09,0,.11.04.12.12.01.32.01.32-.3.32-.19,0-.38,0-.57,0-.09,0-.13-.03-.13-.12,0-.07,0-.14,0-.21-.02,0-.03,0-.05-.01Zm-.03-1.37s0,0,0,0c0-.25,0-.5,0-.75,0-.06-.05-.16-.09-.17-.45-.14-.89-.12-1.12.46-.16.41-.16.83-.06,1.25.06.27.22.47.52.51.45.06.78-.17.76-.64,0-.22,0-.43,0-.65Z"/>
      <path class="cls-1" d="m27.36,42.16s-.06.05-.08.08c-.33.32-.73.44-1.18.35-.39-.07-.65-.37-.68-.79-.02-.4-.02-.79-.03-1.19,0-.17,0-.35,0-.52,0-.13-.06-.17-.17-.18q-.18-.01-.18-.2t.31-.31c.19,0,.37,0,.56,0,.19,0,.19,0,.19.19,0,.55-.01,1.09,0,1.64,0,.17.02.35.05.52.05.25.17.34.43.35.48.01.73-.24.73-.72,0-.4,0-.8,0-1.21,0-.22-.04-.27-.26-.28-.08,0-.11-.03-.11-.11-.01-.38-.02-.38.36-.38.2,0,.4,0,.6,0,.11,0,.14.03.14.14,0,.77,0,1.53,0,2.3,0,.21,0,.22.21.25.17.03.17.03.17.21,0,.05-.01.1-.02.15,0,.07-.04.09-.11.09-.25,0-.5,0-.75,0-.09,0-.13-.03-.12-.13,0-.08,0-.15,0-.23-.01,0-.03,0-.04-.01Z"/>
      <path class="cls-1" d="m19.85,41.32c0,.47.28.76.75.77.24,0,.46-.07.66-.18.16-.09.16-.08.23.07.04.08.08.15.11.23.01.03,0,.1-.03.12-.54.36-1.4.42-1.94.03-.3-.22-.43-.54-.49-.89-.08-.46-.04-.91.17-1.32.25-.5.65-.81,1.23-.81.14,0,.28,0,.42.02.7.14.79.82.57,1.26-.12.24-.32.41-.58.48-.28.08-.57.12-.85.17-.08.02-.17.02-.25.03Zm.72-1.48c-.19-.02-.35.06-.48.21-.16.2-.24.43-.28.67-.01.09.03.11.1.1.08,0,.15-.02.23-.02.25-.02.48-.08.68-.24.15-.12.21-.32.15-.5-.06-.17-.15-.22-.41-.23Z"/>
      <path class="cls-1" d="m14.73,39.91c-.14,0-.26,0-.37,0-.1,0-.17-.03-.16-.16,0-.05,0-.09,0-.14,0-.23-.04-.21.22-.21.33,0,.33,0,.34-.33,0-.12.01-.24.04-.35.09-.4.4-.65.82-.67.31-.01.61,0,.9.12.1.04.14.09.1.19-.03.08-.06.16-.08.24-.03.09-.07.1-.15.07-.2-.08-.4-.14-.62-.08-.14.04-.24.12-.27.26-.03.14-.04.29-.06.44-.01.1.04.12.13.12.23,0,.47,0,.7,0,.08,0,.12.02.12.11,0,.1,0,.19,0,.29,0,.08-.04.1-.11.1-.23,0-.47,0-.7,0-.09,0-.13.03-.13.13,0,.64,0,1.28,0,1.92,0,.09.04.13.13.14.11,0,.21,0,.32.03.18.03.08.17.09.27.01.07.04.17-.1.17-.47,0-.93,0-1.4,0-.09,0-.13-.03-.12-.12,0-.02,0-.03,0-.05q0-.23.23-.28c.09-.02.16-.05.16-.16,0-.17,0-.34,0-.51,0-.45,0-.91,0-1.36,0-.05,0-.1,0-.15Z"/>
      <path class="cls-1" d="m17.14,41.32c-.04.42.28.75.72.77.22.01.43-.04.62-.15.07-.04.14-.07.22-.11.06.13.13.25.18.38.01.03,0,.1-.04.12-.25.15-.5.27-.8.27-.22,0-.45,0-.67-.04-.44-.08-.74-.36-.88-.78-.2-.62-.18-1.22.16-1.79.26-.43.64-.66,1.16-.66.13,0,.27,0,.39.02.74.14.82.86.56,1.31-.19.33-.51.46-.85.54-.26.06-.52.08-.79.12Zm.71-1.49c-.2-.02-.37.08-.5.24-.16.19-.23.41-.25.65,0,.07.02.1.09.1.08,0,.16-.02.24-.02.26-.02.5-.08.7-.25.15-.13.19-.32.12-.51-.07-.18-.22-.21-.4-.2Z"/>
    </g>
    <g>
      <path class="cls-1" d="m16.11,21.58c.09-3.78,1.27-7.18,3.62-10.14,2.43-3.07,5.56-5.07,9.37-5.98,1.23-.29,2.47-.44,3.74-.45.59,0,.9.3.89.83-.01.46-.32.74-.82.77-.7.04-1.4.06-2.1.16-2.42.33-4.62,1.23-6.6,2.65-1.39,1-2.63,2.14-3.63,3.54-1.26,1.75-2.15,3.67-2.54,5.79-.17.93-.22,1.88-.32,2.82-.02.21-.03.43-.09.63-.09.29-.48.51-.76.47-.41-.06-.71-.36-.75-.76,0-.1,0-.21,0-.31Z"/>
      <path class="cls-1" d="m18.27,21.66c.1-3.47,1.2-6.55,3.42-9.21,2.04-2.45,4.63-4.06,7.72-4.85,1.15-.29,2.32-.44,3.51-.41.33,0,.59.12.73.42.13.29.13.59-.08.82-.13.15-.34.26-.53.31-.22.06-.46.06-.69.06-1.49,0-2.92.34-4.29.92-1.64.7-3.11,1.67-4.37,2.93-2,1.99-3.24,4.38-3.66,7.17-.09.62-.11,1.26-.15,1.89-.02.35-.11.66-.45.83-.53.26-1.1-.09-1.15-.71,0-.07,0-.14,0-.18Z"/>
      <path class="cls-1" d="m26.82,27.5c.08,1.01-.71,2.14-1.93,2.35-1.3.23-2.31-.52-2.69-1.5-.08-.21-.18-.29-.41-.28-.49.02-.99.01-1.49,0-.23,0-.37.06-.45.31-.28.84-1.15,1.43-2.03,1.5-1.32.1-2.37-.83-2.56-2-.24-1.49.89-2.66,2.11-2.77,1.38-.13,2.33.78,2.58,1.74.06.23.19.28.41.28.51,0,1.03.03,1.54.01.08,0,.2-.14.23-.23.24-.9.81-1.5,1.69-1.73,1.83-.47,3.11,1.02,3.01,2.32Zm-9.04.42c-.53.03-.66-.14-.55-.66.02-.08,0-.2-.05-.26-.14-.16-.31-.3-.46-.45-.11-.1-.22-.09-.27.03-.12.3-.31.6-.31.91,0,.58.28,1.05.82,1.32.54.27,1.06.19,1.56-.12.05-.03.1-.15.08-.21-.06-.25-.57-.59-.82-.58Zm8.15-.48c-.01-.08-.03-.22-.05-.37-.02-.18-.12-.22-.27-.16-.17.07-.34.16-.52.23-.17.06-.23.17-.24.35,0,.4-.28.59-.63.4-.25-.13-.43-.08-.65.02-.56.26-.57.25-.13.68.41.4,1.05.52,1.57.3.56-.24.92-.79.91-1.44Z"/>
      <path class="cls-1" d="m33.73,10.13c0,.47-.31.78-.82.79-1.18,0-2.32.21-3.43.59-2.21.76-3.96,2.14-5.37,3.98-.92,1.2-1.51,2.55-1.82,4.01-.11.52-.14,1.07-.2,1.6-.03.26-.03.53-.06.79-.05.44-.45.8-.83.75-.47-.05-.77-.44-.76-.94.04-1.58.31-3.12.93-4.58,1.2-2.87,3.19-5.03,5.96-6.46,1.25-.65,2.58-1.05,3.98-1.23.6-.08,1.21-.09,1.81-.06.39.02.62.36.62.76Z"/>
      <path class="cls-1" d="m32.49,11.52c.15,0,.29,0,.44,0,.48.02.79.31.79.76,0,.47-.28.78-.78.81-.74.04-1.47.1-2.18.31-2.82.82-4.81,2.58-5.97,5.27-.43.99-.61,2.05-.6,3.13,0,.32-.12.59-.41.75-.29.16-.57.15-.85-.04-.21-.14-.29-.34-.3-.59-.06-2.54.78-4.76,2.39-6.7,1.64-1.97,3.76-3.16,6.3-3.57.39-.06.78-.1,1.17-.14,0,0,0,.02,0,.03Z"/>
      <path class="cls-1" d="m24.8,21.46c.07-1.88.74-3.54,1.95-4.96,1.28-1.5,2.93-2.4,4.87-2.73.47-.08.95-.12,1.42-.08.48.04.71.41.67.87-.04.41-.35.68-.82.68-1.51.03-2.88.49-4.06,1.44-1.34,1.08-2.16,2.49-2.42,4.19-.05.34-.03.68-.07,1.02-.08.65-.74.94-1.26.57-.18-.13-.29-.31-.29-.54,0-.15,0-.31,0-.46Z"/>
      <path class="cls-1" d="m21.02,31.83c-1.01.07-1.96-.97-1.88-1.9.02-.29.14-.43.39-.44.31-.01.46.12.49.42.04.44.22.79.66.95.41.15.77.05,1.06-.25.14-.15.21-.38.28-.59.07-.22.08-.47.36-.53.38-.08.6.14.57.54-.09,1.04-.89,1.79-1.93,1.79Z"/>
      <path class="cls-1" d="m21.06,33.82c.17,0,.34.02.51,0,.28-.03.36.13.4.36.05.34-.07.62-.28.63-.44.01-.87.01-1.31,0-.09,0-.23-.11-.24-.18-.03-.21-.02-.42.02-.63.02-.07.18-.15.28-.16.2-.03.41,0,.62,0Z"/>
    </g>
  </g>
</svg>