<?xml version="1.0" encoding="UTF-8"?>
<svg xmlns="http://www.w3.org/2000/svg" viewBox="0 0 50 50">
  <defs>
    <style>
      .cls-1 {
        font-family: Lato-Bold, Lato;
        font-size: 3.34px;
        font-weight: 700;
      }

      .cls-1, .cls-2 {
        fill: #fff;
      }

      .cls-3 {
        letter-spacing: -.08em;
      }

      .cls-4 {
        fill: #e75653;
      }

      .cls-5 {
        fill: #fdfcfd;
      }
    </style>
  </defs>
  <g id="Layer_2" data-name="Layer 2">
    <rect class="cls-4" x="-2" y="-2.06" width="54" height="53.13"/>
  </g>
  <g id="Layer_1" data-name="Layer 1">
    <g>
      <path class="cls-2" d="m7.97,24.03c0,.37,0,.74,0,1.11,0,.36,0,.73,0,1.09,0,.18,0,.18-.18.18-.6,0-1.2,0-1.79,0-.02,0-.03,0-.06,0,0-.13,0-.26,0-.39,0-.08,0-.16,0-.24,0-1.77,0-3.54,0-5.31,0-.17,0-.35,0-.52,0-.03,0-.06,0-.09,0,0,0,0,0,0,.05.06.11.12.15.18.18.33.36.66.54.99.23.42.45.83.68,1.25.21.39.43.79.64,1.18.02.04.03.09.03.13,0,.15,0,.29,0,.44Z"/>
      <path class="cls-2" d="m32.55,22.74s0-.09,0-.14c0-.38,0-.76,0-1.14,0-.6,0-1.2,0-1.8.54,0,1.07,0,1.61,0,.07,0,.17-.02.21.02.04.03.02.13.02.2,0,2.13,0,4.25,0,6.38,0,.12,0,.24,0,.36,0,0,0,0,0,.01,0,0,0,.01,0,.02,0,0-.01.01-.02.02-.02,0-.03,0-.05,0,0,0,0,0-.01,0-.03,0-.06,0-.09,0-.03,0-.06,0-.08,0-.01,0-.03,0-.04,0-.02,0-.04,0-.05,0-.1,0-.2,0-.31,0-.09,0-.18,0-.27,0-.05,0-.11,0-.16,0,0,0,0,0-.01,0h0s0,0,0,0c0,0-.01,0-.02,0-.02,0-.05,0-.07,0-.05,0-.09,0-.14,0-.04,0-.09,0-.13,0-.04-.06-.08-.13-.13-.19,0,0,0,0,0-.01-.06-.09-.11-.18-.17-.28-.17-.27-.35-.55-.52-.82,0,0-.01-.02-.02-.03-.01-.02-.02-.03-.03-.05,0,0,0,0,0-.01-.11-.18-.23-.36-.34-.54,0,0,0,0,0,0-.03-.04-.05-.08-.08-.13,0-.02-.02-.03-.03-.05-.04-.07-.08-.14-.13-.21-.12-.19-.24-.38-.36-.57,0-.01-.01-.02-.02-.03-.03-.04-.05-.08-.08-.13,0,0,0,0,0,0-.02-.03-.04-.07-.06-.1,0,0,0,0,0-.01-.15-.24-.3-.48-.45-.72-.02.02-.02.04-.02.05,0,.04,0,.08,0,.12,0,.07,0,.15,0,.22,0,1.13,0,2.26,0,3.38v.11h-1.83s0-.06-.01-.09c0-.04,0-.08,0-.12,0-2.14,0-4.28,0-6.42,0-.03,0-.06,0-.09v-.3s.06,0,.09,0c.43,0,.86,0,1.29,0,.07,0,.1.03.13.08.06.09.12.18.18.27,0,0,0,0,0,0,0,0,0,0,0,0,0,.02.02.04.03.06,0,0,0,.01,0,.02.01.02.03.04.04.06.05.07.1.14.15.22.03.05.05.1.08.15.06.09.11.18.17.28,0,0,0,0,0,0,0,.01.01.03.02.04,0,0,0,0,0,.01.04.05.07.11.11.16.06.09.12.19.18.28,0,.01.01.02.02.03.02.03.04.06.06.1,0,0,0,0,0,0h0c.07.11.14.21.2.32.05.09.1.18.15.26.07.11.14.21.21.32.03.05.06.1.09.16.02.02.03.05.05.07,0,0,0,0,0,0,.06.1.13.2.19.3,0,0,0,.01,0,.02,0,0,0,0,.01.01,0,.02.02.04.03.05,0,0,0,0,0,0,.06.09.12.18.17.27.02.03.05.07.07.1.04.06.08.13.12.19,0,0,.01,0,.02-.01v-.77Z"/>
      <path class="cls-2" d="m21.88,21.92s0-.03,0-.05c0-.01,0-.03,0-.04,0-.02,0-.03,0-.05,0-.02,0-.03.01-.05.02-.09.04-.19.05-.28,0,0,0,0,0-.01l.06-.21v-.03c.07-.15.13-.29.19-.44.05-.1.1-.19.16-.28.23-.35.56-.55.94-.68.23-.08.47-.12.71-.15.34-.04.67-.05,1.01-.04.15,0,.3.03.45.04.12,0,.24,0,.36.02.06,0,.12.04.19.07,0,0,.01.02.02.02.16-.02.29.08.42.12.2.07.38.19.53.35.07.07.13.14.19.22.06.09.11.19.16.29.03.06.07.11.11.17,0,0,.01.02.02.03.06.22.13.44.18.66.03.14.04.28.06.43.02.17.05.34.06.51,0,.08,0,.16,0,.24-.01.42-.02.85-.03,1.27,0,.17-.04.33-.06.49,0,0,0,0,0,0h0s0,.05-.01.08c0,0,0,0,0,0h0c-.04.15-.07.3-.11.45-.06.25-.17.47-.3.69-.18.28-.41.49-.7.66-.02,0-.04.02-.05.03-.2.06-.41.13-.61.19-.02,0-.03,0-.05,0-.48.09-.97.1-1.46.08-.13,0-.27-.03-.4-.05-.02,0-.03,0-.05-.01-.02,0-.03,0-.05,0-.02,0-.04,0-.06-.01-.12-.03-.23-.05-.35-.08-.03,0-.05-.01-.08-.02-.08-.03-.17-.06-.25-.09,0,0,0,0-.01,0,0,0,0,0-.01,0-.02,0-.04-.02-.07-.03,0,0,0,0,0,0,0,0-.01,0-.02,0-.02,0-.03-.02-.05-.02-.11-.08-.22-.16-.34-.24-.09-.1-.17-.2-.26-.3-.01-.02-.02-.03-.03-.05,0,0,0,0,0-.01-.09-.18-.19-.37-.28-.55l-.09-.3s-.01-.06-.02-.09c0-.01,0-.02,0-.03,0,0,0-.02,0-.03,0,0,0-.01,0-.02-.03-.17-.05-.34-.08-.51l-.05-.52c0-.29-.01-.58-.02-.87,0-.01,0-.02,0-.03v-.09s0-.07,0-.11c0-.05,0-.1.01-.14,0-.02,0-.04,0-.06,0,0,0-.01,0-.02,0-.02,0-.03,0-.05,0,0,0,0,0-.01,0-.05,0-.11.01-.16,0,0,0,0,0-.01,0-.08.01-.15.02-.23,0,0,0-.02.01-.02Zm1.75,1.29c.01.23.02.58.05.92.02.17.07.35.14.5.14.31.42.42.74.44.2.02.4,0,.6-.03.4-.06.62-.28.71-.67.07-.32.1-.64.1-.96,0-.36-.01-.72-.03-1.08,0-.15-.04-.3-.07-.45-.08-.3-.25-.51-.56-.59-.37-.09-.73-.08-1.09.03-.16.05-.28.15-.36.29-.11.19-.16.41-.18.62-.03.28-.02.57-.03.97Z"/>
      <path class="cls-2" d="m20.64,20.62c.16.28.27.59.34.91.02.12.02.25.06.36.06.17.03.34.06.5.02.15.02.29.03.44,0,.1,0,.2,0,.3-.01.26-.02.52-.03.77,0,.14-.01.29-.04.43-.04.26-.1.51-.15.77-.01.03-.02.06-.03.08,0,.02-.01.03-.02.05,0,.01-.01.03-.02.04-.06.12-.11.24-.17.36,0,.02-.02.03-.03.05-.01.02-.02.04-.04.06-.02.03-.05.06-.07.1-.07.09-.14.19-.22.28-.02.03-.07.04-.1.06-.01,0-.02.02-.03.02,0,0-.01.01-.02.02,0,0,0,0-.01.01-.06.04-.13.09-.19.13-.06.03-.13.06-.19.09-.01,0-.02,0-.03.01,0,0,0,0-.01,0-.15.04-.29.09-.44.13-.1.03-.21.04-.32.06-.07,0-.13.01-.2.02-.03,0-.05,0-.08,0-.26,0-.53.02-.79.03-.03,0-.05,0-.08-.01-.15-.01-.31-.03-.46-.04-.02,0-.03,0-.05,0-.23-.03-.46-.08-.68-.16-.03-.01-.05-.02-.08-.03-.07-.03-.14-.06-.21-.09-.01,0-.02-.01-.03-.02,0,0,0,0,0,0-.04-.02-.08-.05-.11-.07-.08-.06-.16-.12-.23-.18-.03-.03-.07-.07-.1-.1-.05-.06-.1-.13-.15-.19-.03-.05-.07-.1-.1-.16-.01-.03-.03-.05-.04-.08-.08-.21-.16-.41-.24-.62-.01-.05-.02-.09-.03-.14-.01-.06-.03-.13-.04-.19,0-.03-.01-.05-.02-.08-.02-.15-.04-.3-.06-.44,0,0,0,0,0-.01-.01-.17-.03-.34-.03-.52,0-.22,0-.43,0-.65,0-.01,0-.02,0-.03,0-.06,0-.12,0-.17,0-.09,0-.18.01-.27,0-.03,0-.05,0-.08,0,0,0-.02,0-.03,0-.01,0-.02,0-.03,0-.05,0-.09,0-.14,0,0,0-.01,0-.02.04-.39.12-.76.24-1.13.08-.24.22-.46.38-.66.1-.13.22-.24.34-.35.06-.05.15-.09.23-.12.13-.06.25-.12.39-.16.15-.04.31-.06.47-.09.41-.07.82-.07,1.24-.06.14,0,.29.03.43.04,0,0,0,0,0,0h0c.2.02.39.06.59.11,0,0,0,0,0,0h0c.05.01.11.01.16.04.06.02.12.06.17.1.12.07.23.13.35.2.01.01.03.02.04.03.03.03.05.05.08.08.04.04.08.09.12.13.01.02.03.03.04.05.02.03.05.06.07.09.03.05.06.1.09.14,0,0,0,0,0,.01Zm-3.65,2.04s0,.07,0,.11c-.02.53-.02,1.05.08,1.57.08.41.32.66.74.71.2.03.41.03.61,0,.43-.05.65-.19.78-.64.09-.31.11-.62.11-.94,0-.42-.02-.83-.03-1.25,0-.21-.07-.42-.17-.6-.1-.18-.26-.3-.47-.35-.3-.06-.6-.06-.9-.01-.3.05-.52.2-.62.5-.09.26-.11.54-.12.81h0s0,.01,0,.01c0,.01,0,.02,0,.03,0,.01,0,.02,0,.03Z"/>
      <path class="cls-2" d="m39.3,20.39s.02-.1.04-.15c0,0,0,0,0,0h0c.04-.18.08-.36.13-.54,0-.02.04-.04.06-.04.03,0,.06,0,.09,0,.5,0,1,0,1.49,0,.06,0,.11-.01.17-.01.06,0,.09,0,.06.08-.03.1-.06.2-.08.3-.03.11-.05.23-.08.35-.04.12-.09.23-.13.35-.02.05,0,.1-.02.15,0,.02-.03.04-.04.07-.05.17-.09.34-.13.5-.03.1-.07.19-.1.29-.13.42-.25.85-.38,1.27-.12.4-.24.8-.35,1.19-.08.27-.16.53-.24.8-.04.14-.09.29-.13.43,0,.02,0,.04-.01.06,0,0,0,.01,0,.02,0,.02,0,.03,0,.05,0,0,0,.01,0,.02-.08.27-.16.54-.24.81-.02.08-.04.16-.07.24-.01.03-.06.04-.09.06-.03,0-.06,0-.09,0-.69,0-1.37,0-2.06,0-.05,0-.07-.02-.08-.07-.05-.17-.1-.35-.15-.52-.01-.05-.03-.1-.04-.14-.03-.08-.06-.15-.08-.23-.03-.13-.06-.26-.1-.39-.01-.03-.02-.07-.03-.1,0,0,0-.02,0-.03-.04-.13-.07-.25-.11-.38,0-.03-.02-.05-.03-.08-.02-.06-.04-.13-.05-.19,0-.02-.01-.04-.02-.06-.03-.11-.07-.22-.1-.33,0-.02,0-.03-.01-.05-.02-.06-.03-.13-.05-.19,0-.02,0-.03-.01-.05-.06-.19-.11-.38-.17-.57,0-.03-.01-.05-.02-.08-.01-.05-.03-.1-.04-.14,0-.02,0-.03-.01-.05-.02-.05-.03-.11-.05-.16-.03-.09-.05-.18-.08-.27,0,0,0,0,0-.01-.02-.07-.04-.14-.06-.21,0,0,0,0,0,0h0c-.03-.1-.06-.2-.08-.29,0,0,0-.01-.01-.02-.02-.06-.03-.11-.05-.17,0-.03-.01-.05-.02-.08-.04-.12-.07-.23-.11-.35,0-.03-.02-.06-.03-.1-.02-.08-.05-.16-.07-.24,0-.01,0-.02-.01-.04,0,0,0-.02,0-.03-.01-.04-.02-.07-.03-.11-.01-.05-.03-.09-.04-.14,0-.03-.02-.06-.03-.09-.02-.07-.04-.15-.06-.22,0,0,0,0,0-.01-.03-.11-.06-.21-.09-.32,0-.02-.01-.03-.02-.05-.03-.11-.07-.22-.1-.33,0,0,0-.01-.01-.02,0,0,0,0,0,0,0-.04-.01-.08-.02-.12.56,0,1.11,0,1.67,0,.07,0,.13-.01.21-.02.02.06.05.14.07.21.02.08.04.16.06.24.01.05.01.1.03.14.04.12.08.25.11.37.03.13.05.26.08.38.05.21.09.41.17.61.06.17.07.35.13.52.04.12.09.24.12.36.03.13.05.27.09.41.03.12.08.24.11.37.06.23.11.46.17.68.04.14.08.29.13.43.02.09.04.19.06.28,0,0,.02,0,.03,0,.03-.1.06-.21.08-.31,0-.04,0-.09.02-.13.02-.06.04-.12.06-.19.02-.09.05-.17.07-.26.02-.07.03-.13.05-.2.06-.22.11-.45.17-.67.02-.09.06-.17.09-.26,0-.02,0-.04,0-.05,0,0,0,0,0-.01.04-.15.07-.3.11-.45.06-.22.13-.44.19-.66.06-.2.1-.41.16-.61,0,0,0-.01,0-.02,0-.02,0-.04,0-.06,0,0,0-.02.01-.02.03-.11.06-.22.08-.33,0,0,0-.01,0-.02Z"/>
      <path class="cls-2" d="m8.41,23.69s0,0,0-.01c0,0,0-.01-.01-.02,0,0,0,0,0,0,0-.01-.01-.02-.02-.03,0-.01-.01-.02-.02-.03,0-.01-.01-.02-.02-.03-.01-.02-.02-.04-.03-.06,0,0,0-.01-.01-.02,0,0,0,0,0,0-.12-.23-.24-.47-.37-.7-.16-.29-.33-.59-.49-.88-.31-.55-.63-1.11-.95-1.66-.14-.24-.33-.45-.53-.64-.15-.12-.3-.25-.46-.37-.05-.04-.11-.07-.17-.1,0,0-.01,0-.02-.01,0,0-.02,0-.03,0-.04,0-.08-.02-.11-.03h0s0,0,0,0c-.01-.01-.03-.02-.05-.04.04,0,.06-.02.08-.02.05-.03.09-.03.15-.02.06.02.13.01.2.01.05,0,.09,0,.14,0,.27,0,.54,0,.8,0,.11.01.22.03.33.04,0,0,0,0,0,0,0,0,.01,0,.02,0,.09.02.19.05.28.07,0,0,.01,0,.02,0,.23.08.44.18.63.32,0,0,.01,0,.02.01,0,0,0,0,0,0,.03.03.07.05.1.08.02.02.05.04.07.06,0,0,0,0,.01.01,0,0,0,0,.01,0,.04.04.09.08.13.11.07.07.13.14.2.2,0,0,0,0,0,0,0,0,0,0,0,0,0,0,0,0,.01.01,0,0,.01.01.02.02.13.18.25.36.38.54,0,0,.01.02.02.03,0,.01.01.02.02.03.04.07.08.15.11.22,0,0,0,.02.01.03,0,.02.02.03.03.05,0,.01.01.02.02.03.01.02.02.04.03.06,0,0,.01.02.02.03,0,0,0,0,0,0,0,0,0,.01.01.02.02.03.03.06.05.09,0,0,0,.01.01.02,0,0,0,0,0,0,.01.02.02.04.03.07,0,0,0,0,0,.01,0,0,0,.02.01.03,0,0,0,0,0,0,0,0,0,.01.01.02.02.04.04.08.07.12,0,0,0,.02.01.03.01.02.02.04.03.07,0,0,0,.01.01.02,0,0,0,0,0,.01.02.03.03.05.05.08,0,0,0,0,0,0,0,0,0,.02.01.02h0s0,0,0,0c0,.01.01.02.02.03,0,.01.01.02.02.03.03.06.07.13.1.19,0,.02.02.04.03.06,0,0,0,0,0,.01,0,0,0,0,0,0,0,0,0,.02.01.03,0,.01.01.02.02.04,0,0,0,.01.01.02,0,0,0,.02.01.03,0,0,0,0,0,0,0,0,0,0,0,0,0,0,0,.01.01.02.02.04.04.08.07.12,0,0,0,.02.01.03,0,0,0,0,0,0,0,0,0,.02.01.02.06.12.12.24.18.35,0,.02.02.03.04.07.12-.18.22-.35.3-.54,0,0,0-.01.01-.02.04-.07.08-.14.11-.21,0,0,0-.02.01-.03,0,0,0,0,0,0,0,0,0-.02.01-.03,0,0,0,0,0,0,0-.02.02-.04.02-.06.05-.1.09-.2.14-.3.01-.02.03-.04.04-.06,0,0,0,0,0,0h0s0-.01.01-.02c0,0,0,0,0,0,0,0,0-.02.01-.03.1-.2.2-.39.3-.59.04-.07.07-.14.11-.21,0,0,0-.02.01-.02,0,0,0-.02.01-.02,0-.01,0-.02,0-.03.07-.11.14-.21.22-.32,0,0,0-.01.01-.02,0,0,.01-.02.02-.03.08-.1.16-.19.24-.29.12-.11.23-.22.35-.32.07-.06.14-.11.22-.15.07-.05.15-.09.23-.13.18-.1.38-.16.58-.21.09-.02.18-.03.27-.05.02,0,.03,0,.05,0,.02,0,.03,0,.05,0,0,0,.02,0,.02,0,.27,0,.53,0,.8,0,.04,0,.08,0,.13,0,.1,0,.21,0,.31,0,.06,0,.12.01.18.02-.04.02-.07.03-.11.05-.01,0-.02,0-.03,0,0,0-.01,0-.02,0-.02,0-.04.01-.06.02-.01,0-.02,0-.03.01,0,0-.01,0-.02,0,0,0,0,0-.01,0-.01,0-.02,0-.03.01-.02.01-.04.02-.06.03-.04.02-.07.04-.11.07,0,0-.01,0-.02.01-.04.03-.08.06-.13.09,0,0,0,0,0,0-.04.04-.09.08-.13.12,0,0,0,0,0,0h0s0,0,0,0c0,0,0,0-.01.01h0s0,0,0,0c0,0,0,0-.01.01,0,0,0,0,0,0,0,0,0,0-.01.01-.01.01-.02.02-.03.03,0,0,0,0-.01.01-.04.04-.07.08-.11.11,0,0,0,0-.01.01-.07.08-.14.17-.21.25-.06,0-.07.04-.08.09-.01.02-.02.04-.04.06,0,0-.01.02-.02.02,0,0,0,0,0,0,0,0-.01.01-.02.02,0,0-.01,0-.02,0,0,0,0,0,0,0,0,.01,0,.02,0,.03,0,0-.01.02-.02.03-.04.06-.08.13-.12.19,0,.02-.02.03-.03.05,0,0,0,0,0,0,0,.01-.01.02-.02.03,0,0,0,0,0,.01-.03.05-.05.1-.08.15,0,.01-.01.02-.02.03-.01.02-.02.04-.03.06-.01.02-.02.04-.03.06,0,0,0,.01-.01.02-.02.04-.04.08-.07.12-.02.03-.04.07-.06.1-.02.03-.03.06-.05.09,0,.02-.02.03-.03.05,0,0,0,0,0,0,0,0,0,.01-.01.02,0,0,0,0,0,0,0,0,0,0-.01.01-.03.07-.07.13-.1.2,0,0,0,.01-.01.02-.01.02-.02.04-.03.06,0,0,0,.01-.01.02,0,0,0,0,0,.01,0,0,0,.01-.01.02-.03.05-.05.1-.08.15,0,0,0,.01-.01.02-.03.05-.05.1-.08.14-.01.02-.02.04-.03.06h0s0,0,0,0c0,0-.01.02-.02.02,0,0-.01.02-.02.03,0,0,0,.01-.01.02,0,0,0,0,0,0,0,0-.01.02-.02.03,0,0,0,0,0,0-.02.03-.03.06-.05.09,0,0,0,.02-.01.03,0,0-.01,0-.01,0-.07.13-.14.26-.21.39,0,0,0,0,0,0-.03.05-.05.09-.08.14-.06.1-.12.21-.17.31,0,0,0,.01-.01.02,0,0,0,0,0,0,0,0,0,0-.01.01,0,0,0,0,0,0,0,0,0,0-.01.01,0,.02-.01.03-.02.05-.01.02-.02.03-.03.05,0,.02-.01.04-.02.06,0,0,0,.01-.01.02,0,0,0,0,0,0,0,0-.01.02-.02.03-.01.02-.02.04-.03.06-.01.02-.02.03-.03.05-.1.19-.21.38-.31.57,0,0-.01.02-.02.03-.05.1-.11.2-.16.29-.02.04-.04.08-.06.12,0,0,0,0,0,0,0,0,0,.01-.01.02,0,0,0,0,0,0-.03.06-.07.12-.1.18,0,0,0,0,0,0,0,0,0,.01-.01.02,0,0,0,0,0,0,0,0,0,.01-.01.02-.09.17-.2.33-.27.5-.04.1-.12.18-.16.27-.06.13-.14.25-.21.38,0,.01-.01.02-.02.03-.04.08-.08.16-.13.24-.01.02-.02.04-.03.06,0,0,0,0,0,0,0,0,0,.01-.01.02-.03.05-.05.1-.08.15,0,0-.01.01-.02.02-.01,0-.02-.01-.03-.02,0,0,0-.01-.01-.02,0-.02-.02-.04-.02-.06-.01-.02-.03-.04-.04-.07,0,0,0,0,0,0-.06-.12-.12-.23-.18-.35,0,0,0,0,0-.01,0,0,0-.02-.01-.02,0,0,0,0,0,0,0,0,0-.01-.01-.02,0,0,0,0,0,0,0-.01-.01-.02-.02-.03-.05-.09-.1-.18-.15-.27,0,0,0-.02-.01-.03l-.05-.08s-.04-.08-.06-.11c-.01-.02-.02-.04-.03-.06,0,0-.01-.02-.02-.03,0,0,0,0,0,0,0,0,0-.01-.01-.02,0-.01-.01-.03-.02-.04-.02-.03-.03-.05-.05-.08,0,0,0,0,0,0,0,0,0-.01-.01-.02,0,0,0,0,0,0-.02-.04-.03-.08-.05-.12-.04-.07-.08-.13-.12-.2-.06-.11-.12-.22-.18-.32-.02-.04-.05-.09-.07-.13,0,0,0,0,0-.01,0,0,0-.01-.01-.02-.02-.04-.04-.08-.07-.12,0,0,0-.01-.01-.02,0,0,0,0,0,0-.02-.03-.03-.06-.05-.09-.02-.04-.04-.07-.06-.11-.02-.03-.03-.05-.05-.08,0-.02-.02-.03-.02-.05,0,0,0,0,0-.01,0,0,0,0,0,0,0,0,0-.01-.01-.02Z"/>
      <path class="cls-2" d="m41.93,19.66c.21,0,.41,0,.62,0,.2,0,.41,0,.61,0,.2,0,.4,0,.61,0,0,.03,0,.05,0,.07,0,2.28,0,4.56,0,6.84,0,.08-.02.1-.1.1-.22,0-.43,0-.65,0-.29,0-.58,0-.87,0h-.22s0-.09,0-.13c0-.04,0-.07,0-.11,0-2.26,0-4.52,0-6.79Z"/>
      <path class="cls-2" d="m11.81,23.47s.02-.03.03-.05c0,0,0,0,.01-.01.1-.18.2-.36.29-.54.05-.1.1-.21.16-.31.02-.03.04-.07.06-.1,0-.01.01-.02.02-.03.03-.05.05-.09.08-.14,0,0,0-.02.01-.03,0,0,0-.01.01-.02,0-.01.01-.02.02-.03,0,0,0,0,0-.01.06-.1.11-.2.17-.3,0-.01.01-.02.02-.03,0-.01.01-.02.02-.03.01-.02.02-.03.03-.05.13-.24.26-.47.39-.71.04-.07.08-.15.11-.22.03-.04.05-.08.08-.13.1-.18.2-.37.3-.55.05-.07.09-.15.14-.22.01-.02.04-.02.06-.03,0,.39,0,.78,0,1.17,0,.41,0,.83,0,1.24,0,.09,0,.18,0,.27,0,.03-.01.06-.02.09,0,.01,0,.03,0,.05,0,.09.03.17.03.26,0,.8,0,1.6,0,2.39,0,.04,0,.09,0,.13,0,0,0,0,0,.01,0,.25,0,.51,0,.76,0,.11-.01.13-.1.14-.02,0-.03,0-.05,0-.12,0-.25,0-.37,0-.47,0-.95,0-1.42,0-.03,0-.05,0-.08,0,0,0,0,0-.01,0,0-.45,0-.91,0-1.36,0-.21,0-.42,0-.63,0-.15,0-.31,0-.46,0-.15,0-.29,0-.44,0-.02,0-.03.01-.05Z"/>
      <path class="cls-5" d="m11.7,23.08s0-.01.01-.02c0,0,0,.01-.01.02Z"/>
      <text class="cls-1" transform="translate(15.17 30.17)"><tspan class="cls-3" x="0" y="0">Y</tspan><tspan x="1.92" y="0">ou dream, we plan</tspan></text>
    </g>
  </g>
</svg>