<?xml version="1.0" encoding="UTF-8"?>
<svg id="Layer_2" data-name="Layer 2" xmlns="http://www.w3.org/2000/svg" viewBox="0 0 50 50">
  <defs>
    <style>
      .cls-1 {
        fill: #fff;
      }

      .cls-2 {
        fill: #e75653;
      }
    </style>
  </defs>
  <rect class="cls-2" x="-2" y="-2.06" width="54" height="53.13"/>
  <g>
    <g>
      <g>
        <path class="cls-1" d="m14.67,37.85c-.16,0-.31,0-.47,0-.13,0-.23-.1-.23-.23,0-.14.06-.22.2-.26.03,0,.07-.02.11-.02.36,0,.72,0,1.08,0,0,0,.01,0,.02,0,.11-.01.07.05.05.1-.13.36-.26.71-.4,1.07-.04.09-.03.14.06.2.35.24.58.57.64.99.14.9-.4,1.64-1.21,1.8-.88.17-1.65-.4-1.82-1.23-.16-.82.41-1.68,1.31-1.8.14-.02.29.01.43,0,.04,0,.09-.03.1-.06.07-.17.13-.35.19-.53,0,0,.01-.02.02-.03-.02,0-.05,0-.07,0Zm-.34,1.11c-.43-.07-1.08.26-1.17.92-.06.42.23.95.75,1.11.51.16,1.06-.1,1.27-.62.18-.45.04-.97-.38-1.24-.04.09-.07.17-.1.25-.08.22-.16.45-.24.67-.05.14-.17.2-.32.16-.12-.03-.2-.15-.17-.28.02-.07.05-.14.07-.21.1-.26.19-.51.29-.77Z"/>
        <path class="cls-1" d="m23.33,40.59c0,.21,0,.41,0,.62,0,.16-.09.28-.23.31-.14.03-.27-.05-.32-.21-.03-.09-.06-.08-.13-.04-.89.59-2.1.05-2.27-1-.13-.8.44-1.55,1.14-1.68.87-.16,1.59.3,1.78,1.14.06.28.03.57.05.86,0,0,0,0-.01,0Zm-.57-.55c0-.5-.42-.91-.93-.91-.49,0-.9.47-.9.89,0,.46.38.95.96.93.48-.02.86-.41.86-.91Z"/>
        <path class="cls-1" d="m35.12,40.21c0,.3,0,.6,0,.9-.02.1-.05.21-.07.31-.03.02-.06.05-.09.07-.05,0-.11.02-.16.03-.05-.02-.1-.04-.15-.07-.02-.02-.04-.04-.06-.07,0-.01-.02-.03-.02-.04,0-.03-.02-.06-.03-.09,0,0-.01-.01-.02-.02l-.17.09s-.07.04-.11.06c-.16.04-.31.09-.47.13-.12,0-.24-.01-.36-.02-.13-.04-.27-.08-.4-.11-.02-.01-.04-.02-.06-.04-.35-.21-.61-.5-.73-.89-.02-.05-.03-.11-.04-.16,0-.02-.01-.04-.02-.06,0-.22,0-.44.06-.65.07-.25.22-.43.38-.61.17-.18.37-.3.6-.36.11-.03.22-.08.34-.06.23-.01.45.02.65.11.13.06.25.14.37.21.03.02.06.05.08.07.1.13.22.24.31.38m-1.34,1.61c.58,0,.93-.38.92-1,0-.37-.37-.81-.93-.82-.53,0-.89.46-.91.89-.03.51.52,1,.91.93Z"/>
        <path class="cls-1" d="m26.83,38.72c.11-.04.21-.09.32-.13.02,0,.05,0,.07,0,.22-.05.45-.07.67,0,.06.01.11.03.17.04.14.08.28.16.43.24l.08.07s.01,0,.02.01c.02.02.05.05.07.07.16.16.25.36.32.57.02.21.05.43.04.64-.02.27-.12.52-.31.73-.17.2-.38.36-.63.46-.02,0-.04.02-.06.02-.19.05-.39.09-.59.06-.1-.01-.2-.03-.31-.04-.03-.01-.06-.03-.09-.04-.04-.01-.07-.03-.11-.04l-.08-.04c-.39-.24-.65-.58-.75-1.02,0-.03-.01-.06-.02-.09,0-.23-.02-.47.07-.69.02-.06.04-.12.06-.18.02-.04.05-.07.07-.11,0,0,0-.02.01-.03.04-.05.09-.1.13-.16.05-.05.1-.1.15-.15.08-.06.17-.13.25-.19Zm.72,2.22c.58,0,.93-.38.93-1,0-.37-.37-.81-.93-.82-.55,0-.9.48-.9.86,0,.54.39.96.91.96Z"/>
        <path class="cls-1" d="m31.42,41.38c-.16.04-.31.09-.47.13-.12,0-.24-.01-.36-.02-.12-.03-.24-.06-.36-.09-.04-.02-.09-.04-.13-.06-.43-.26-.71-.63-.77-1.15-.02-.16-.03-.33-.01-.48.01-.11.08-.22.14-.32.1-.16.21-.31.32-.46.09-.07.17-.14.27-.2.27-.16.68-.25,1.07-.15.21.05.4.13.58.26.21.16.23.36.03.53-.08,0-.17,0-.25,0-.01,0-.03-.02-.04-.03-.03-.02-.06-.04-.09-.06-.01,0-.03-.01-.04-.02l-.11-.06s-.09-.04-.13-.06c-.04,0-.09-.01-.13-.02-.08,0-.16,0-.23,0-.02,0-.04,0-.06,0-.07.02-.14.04-.21.06-.04.03-.09.05-.13.08-.16.1-.28.24-.34.42-.02.05-.03.11-.05.16,0,.03-.02.07-.03.1.01.11.03.23.04.34.01.02.02.04.03.07.19.36.48.62.92.57.03-.01.06-.02.09-.04.02,0,.04,0,.06,0,.13.02.21-.07.31-.12.09-.04.18-.07.27-.11.01,0,.03,0,.04.01.05.02.09.03.14.05.16.23.05.39-.11.5-.05.03-.09.06-.14.09-.04.02-.07.04-.11.06Z"/>
        <path class="cls-1" d="m18.73,40.53c.07-.16.15-.32.22-.48.2-.44.41-.88.6-1.32.07-.16.19-.18.34-.17.12.01.18.09.2.19.01.05,0,.12-.01.17-.36.8-.73,1.6-1.09,2.39-.05.11-.13.19-.27.19-.15,0-.22-.1-.27-.22-.19-.42-.38-.83-.57-1.25-.14-.31-.29-.63-.43-.94-.03-.07-.06-.14-.09-.22-.06-.17.06-.31.24-.33.16-.01.25.06.31.2.26.59.53,1.17.8,1.75,0,0,0,0,.03.02Z"/>
        <path class="cls-1" d="m25.6,40.93c.07.03.14.05.21.08.02.02.03.04.05.05.05.14.05.27-.06.38-.04.01-.07.04-.11.04-.15.01-.29.01-.44.02-.16,0-.26-.07-.31-.21,0-.01-.01-.03-.02-.04,0-1.08,0-2.17,0-3.25,0-.18.01-.36.02-.55.06-.1.13-.18.26-.17.18.01.23.05.3.26,0,.04-.01.09-.02.13,0,.12.02.24.02.36,0,.78,0,1.56,0,2.34,0,.18,0,.36,0,.54,0,0,.01.01.02.02.03,0,.06,0,.09,0Z"/>
        <path class="cls-1" d="m16.93,40.02c0,.36,0,.72,0,1.08,0,.08-.01.16-.04.24-.05.13-.16.2-.29.18-.13-.02-.23-.13-.23-.27,0-.11,0-.23,0-.34,0-.61,0-1.22,0-1.83,0-.08-.01-.16-.01-.24,0-.14.09-.25.19-.26.21-.02.31.03.36.2.01.06.02.12.02.18,0,.36,0,.72,0,1.08Z"/>
      </g>
      <path class="cls-1" d="m16.64,37.71c.2,0,.31.11.31.3,0,.21-.12.34-.32.34-.17,0-.33-.15-.33-.32,0-.15.14-.36.34-.32Z"/>
    </g>
    <path class="cls-1" d="m26.96,11.29c-1.03.01-2.06.06-3.09.03-.88-.03-1.49-.68-1.54-1.52-.05-.89.4-1.48,1.33-1.69.23-.05.46-.1.69-.1,2.36,0,4.73,0,7.09.02.05,0,.1,0,.15,0,.69-.07.44.33.32.65-.88,2.34-1.73,4.69-2.65,7.01-.24.61-.18.92.38,1.3,2.3,1.58,3.81,3.75,4.25,6.52.93,5.92-2.61,10.77-8,11.82-5.82,1.14-10.88-2.62-11.97-8.11-1.07-5.39,2.72-11.06,8.59-11.88.93-.13,1.9.07,2.85.06.24,0,.61-.2.69-.39.46-1.15.84-2.32,1.26-3.49.04-.07.08-.13.13-.2-.16,0-.32-.01-.48-.02Zm-2.24,7.3c-2.83-.46-7.08,1.7-7.71,6.08-.4,2.76,1.54,6.27,4.92,7.31,3.38,1.04,7.01-.63,8.38-4.06,1.18-2.95.25-6.41-2.51-8.15-.23.57-.47,1.11-.68,1.67-.54,1.47-1.06,2.95-1.61,4.41-.35.93-1.14,1.32-2.08,1.07-.79-.21-1.29-.99-1.11-1.85.1-.47.31-.92.48-1.38.63-1.68,1.26-3.36,1.91-5.09Z"/>
  </g>
</svg>