<?xml version="1.0" encoding="UTF-8"?>
<svg id="Layer_2" data-name="Layer 2" xmlns="http://www.w3.org/2000/svg" viewBox="0 0 50 50">
  <defs>
    <style>
      .cls-1 {
        fill: #fff;
      }

      .cls-2 {
        fill: #e75653;
      }
    </style>
  </defs>
  <rect class="cls-2" x="-2" y="-2.06" width="54" height="53.13"/>
  <g>
    <path class="cls-1" d="m24.71,31.85c-3.44,0-6.89-.02-10.33.01-.81,0-1.27-.25-1.68-1-2.13-3.93-4.34-7.82-6.47-11.75-.28-.51-.31-1.16-.46-1.75.63-.07,1.28-.29,1.89-.2,2.2.33,4.38.74,6.56,1.18.8.16,1.4.05,2.02-.52,2.37-2.19,4.8-4.33,7.18-6.51,1.21-1.1,1.57-1.12,2.8,0,2.49,2.26,4.98,4.53,7.51,6.74.32.28.93.37,1.37.31,2.17-.33,4.33-.75,6.49-1.13.42-.07.83-.16,1.26-.18,1.03-.07,1.43.51.96,1.44-.48.94-1.01,1.86-1.53,2.78-1.77,3.16-3.57,6.31-5.28,9.5-.46.86-1.03,1.13-1.95,1.13-3.44-.03-6.89-.01-10.33-.01v-.04Zm-16.08-12.69c.01.27,0,.36.03.42,1.72,3.09,3.44,6.19,5.15,9.28.28.51.58.43.94.11,2.5-2.25,5-4.49,7.49-6.74.13-.12.17-.32.3-.56-4.69-.84-9.26-1.66-13.91-2.5Zm26.84,10.33c1.91-3.42,3.78-6.79,5.76-10.36-4.89.87-9.53,1.7-14.41,2.57,2.94,2.65,5.76,5.19,8.64,7.79Zm-19.07.5h16.52c.03-.06.06-.12.09-.18-2.71-2.46-5.42-4.91-8.17-7.4-2.8,2.51-5.53,4.97-8.44,7.59Zm9.43-9.91c1.99-.37,3.91-.72,6.07-1.12-2.12-1.91-4.05-3.65-6.07-5.47v6.6Zm-2.08-6.52c-2.06,1.86-3.96,3.57-6,5.42,2.16.39,4.07.73,6,1.07v-6.49Z"/>
    <path class="cls-1" d="m9.45,38.11c0,.16,0,.33,0,.49,0,.49,0,.97,0,1.46,0,.12-.04.16-.16.16-.34,0-.28.02-.28-.27,0-1.25,0-2.5,0-3.75,0-.12.05-.15.16-.15.26,0,.3.02.36.27.11.48.2.97.31,1.45.02.09.06.18.1.29,0-.63,0-1.23,0-1.84,0-.14.04-.18.18-.18.34,0,.29-.03.29.29,0,1.21,0,2.43,0,3.64,0,.09.07.21-.08.25-.16.04-.36-.06-.4-.21-.07-.26-.12-.52-.18-.78-.08-.37-.17-.74-.25-1.11-.01,0-.03,0-.04,0Z"/>
    <path class="cls-1" d="m34.17,38.1c0,.53,0,1.06,0,1.58,0,.11-.03.23-.09.31-.16.26-.49.31-.84.24-.31-.07-.45-.26-.45-.58,0-.38,0-.76,0-1.14,0-.65,0-1.31,0-1.96,0-.29.16-.5.45-.54.14-.02.3-.03.44-.02.29.03.5.27.5.56,0,.52,0,1.03,0,1.55,0,0,0,0,0,0Zm-.43,0s0,0-.01,0c0-.43,0-.86,0-1.3,0-.07,0-.15-.01-.22-.03-.13-.11-.22-.25-.21-.14,0-.24.09-.25.24,0,.11-.01.22-.01.33,0,.73,0,1.46,0,2.18,0,.17,0,.34,0,.51,0,.14.09.21.22.21.13,0,.24-.03.28-.18.02-.08.02-.16.02-.24,0-.44,0-.89,0-1.33Z"/>
    <path class="cls-1" d="m16.33,36.06c0,.71,0,1.39,0,2.08,0,.48,0,.95,0,1.43,0,.19.08.27.25.27.16,0,.23-.07.23-.27,0-.79,0-1.58,0-2.38,0-.34,0-.69,0-1.03,0-.09.02-.14.13-.13.41,0,.34-.05.34.33,0,1.1,0,2.21,0,3.31,0,.29-.16.49-.44.53-.16.02-.33.03-.49,0-.28-.03-.46-.24-.46-.53,0-.66,0-1.32,0-1.98,0-.46,0-.93,0-1.39,0-.25.02-.27.27-.26.05,0,.1.01.17.02Z"/>
    <path class="cls-1" d="m13.12,37.54c-.04.28-.07.56-.11.84-.07.57-.15,1.14-.22,1.71,0,.04-.05.1-.08.11-.13.01-.26,0-.41,0,.05-.32.1-.63.14-.94.16-1.02.31-2.03.46-3.05.02-.11.03-.18.16-.18.13,0,.28-.02.31.16.05.28.09.55.14.83.15,1.01.3,2.01.46,3.02.02.15-.03.17-.15.17-.32,0-.31,0-.34-.3-.1-.79-.21-1.58-.31-2.37-.01,0-.03,0-.04,0Z"/>
    <path class="cls-1" d="m27.02,38.73c0,.37.02.74,0,1.11-.01.2-.19.33-.38.38-.37.1-.81,0-.9-.41-.01-.06-.02-.13-.02-.19,0-1.01,0-2.02,0-3.02,0-.37.18-.57.54-.62.47-.06.82.17.79.69,0,.13,0,.26,0,.4.01.19-.05.32-.24.38-.06.02-.12.06-.21.1,0-.31,0-.6,0-.88,0-.08-.05-.18-.12-.24-.12-.1-.31,0-.32.18,0,.15,0,.31,0,.46,0,.78,0,1.55,0,2.33,0,.09,0,.18,0,.27.01.12.09.19.21.19.13,0,.22-.06.22-.2,0-.16,0-.32,0-.47,0-.3.11-.41.42-.44Z"/>
    <path class="cls-1" d="m29.7,38.9c0,.11,0,.2,0,.29,0,.16,0,.32,0,.47,0,.13.1.18.22.18.12,0,.17-.06.19-.18.06-.44-.01-.85-.25-1.23-.15-.25-.28-.52-.42-.78-.19-.36-.24-.74-.19-1.13.05-.41.38-.61.83-.52.36.07.59.43.49.79-.02.06-.07.12-.12.15-.09.06-.19.1-.31.16,0-.06-.02-.09-.02-.13,0-.11,0-.22,0-.33,0-.17-.08-.26-.2-.25-.14,0-.21.09-.22.27-.03.38.06.73.26,1.06.16.26.28.53.43.79.22.4.23.83.19,1.26-.02.24-.21.44-.46.48-.4.06-.85-.04-.87-.62-.02-.47-.01-.51.46-.72Z"/>
    <path class="cls-1" d="m37.88,36.04c-.05.36-.13.44-.46.44-.11,0-.21,0-.32,0-.09,0-.14.04-.14.13,0,.38,0,.76,0,1.14,0,.03.08.09.12.09.2,0,.41,0,.61,0-.02.32-.18.47-.48.47-.25,0-.26,0-.26.26,0,.45,0,.91,0,1.36,0,.25-.15.36-.38.27-.03-.01-.06-.08-.06-.12,0-1,0-2,0-3.01,0-.29,0-.58,0-.87,0-.11.04-.17.15-.17.4,0,.79,0,1.2,0Z"/>
    <path class="cls-1" d="m19.13,36.46c-.03-.4-.01-.41.35-.42.44,0,.88,0,1.31,0,.05,0,.1,0,.15,0-.03.31-.15.43-.43.43-.32,0-.32,0-.33.33,0,1.06,0,2.12,0,3.18,0,.22,0,.22-.19.22-.26,0-.28-.02-.28-.24,0-.81.01-1.61.01-2.42,0-.32-.02-.64-.02-.96,0-.11-.05-.14-.14-.13-.15,0-.29,0-.45,0Z"/>
    <path class="cls-1" d="m40.16,36.46h-.54s-.01-.03-.01-.03c-.03-.39-.03-.39.35-.38.43,0,.86,0,1.28,0,.05,0,.1,0,.15,0,.01.29-.13.44-.39.44-.35,0-.35,0-.36.35,0,1.07,0,2.13,0,3.2,0,.19,0,.19-.23.19-.2,0-.21-.01-.21-.2,0-.97,0-1.94,0-2.92,0-.21-.02-.42-.04-.65Z"/>
    <path class="cls-1" d="m22.87,38.09c0-.63,0-1.27,0-1.9,0-.12.04-.17.15-.16.04,0,.08,0,.13,0,.12,0,.18.05.18.17,0,.33,0,.65,0,.98,0,.94,0,1.89.01,2.83,0,.12,0,.2-.16.19-.25-.01-.31-.04-.31-.21,0-.64,0-1.28,0-1.92,0,0,0,0,0,0Z"/>
  </g>
</svg>