<?xml version="1.0" encoding="UTF-8"?>
<svg xmlns="http://www.w3.org/2000/svg" viewBox="0 0 50 50">
  <defs>
    <style>
      .cls-1, .cls-2 {
        fill: #fff;
      }

      .cls-3 {
        fill: #e75653;
      }

      .cls-2 {
        font-family: Lato-Bold, Lato;
        font-size: 4.36px;
        font-weight: 700;
      }

      .cls-4 {
        letter-spacing: -.05em;
      }
    </style>
  </defs>
  <g id="Layer_2" data-name="Layer 2">
    <rect class="cls-3" x="-2" y="-2.06" width="54" height="53.13"/>
  </g>
  <g id="Layer_1" data-name="Layer 1">
    <g>
      <path class="cls-1" d="m14.53,25.48c-.12-1.61.41-3.07,1.05-4.5.63-1.42,1.33-2.82,2.08-4.18,1.16-2.11,2.48-4.13,3.86-6.11.92-1.32,1.86-2.61,2.8-3.91.42-.58.85-1.15,1.28-1.72.23-.3.53-.29.79.05.69.91,1.38,1.83,2.06,2.76,1.01,1.39,2.04,2.76,2.99,4.19.89,1.34,1.68,2.75,2.54,4.12.72,1.15,1.22,2.42,1.86,3.61.39.72.73,1.47,1.01,2.22.37.98.71,2.02.64,3.1-.06,1.08-.08,2.16-.38,3.23-.21.75-.5,1.46-.8,2.18-.31.72-.75,1.37-1.21,1.96-1.13,1.42-2.55,2.53-4.2,3.35-1.87.93-3.86,1.27-5.91,1.1-1.74-.14-3.37-.73-4.86-1.64-2.48-1.52-4.22-3.64-5.13-6.42-.36-1.09-.55-2.22-.47-3.38Zm15.96-5.18s0,.04,0,.05c.01,0,.02,0,.03,0-.01-.02-.03-.03-.04-.05-.38-1-.97-1.89-1.52-2.8-.82-1.34-1.73-2.62-2.6-3.92-.25-.38-.54-.41-.85-.07-.07.08-.14.17-.21.26-1.32,1.85-2.55,3.74-3.72,5.69-.22.36-.4.74-.54,1.14.21.06.32-.07.45-.13,2.04-1.01,4.15-1.52,6.42-1,.76.18,1.51.4,2.22.75.11.05.21.15.35.08Zm-4.52,3.76c-2.59-.11-4.17,2.09-4.16,4,0,2.18,2.06,4.15,4.14,4.12,2.07-.03,4.19-1.59,4.04-4.49-.09-1.85-1.65-3.79-4.02-3.63Z"/>
      <path class="cls-1" d="m30.49,20.31s.03.03.04.05c-.01,0-.02,0-.03,0,0-.02,0-.04,0-.05,0,0,0,0,0,0Z"/>
      <text class="cls-2" transform="translate(9.21 43.21)"><tspan x="0" y="0">Clear</tspan><tspan class="cls-4" x="10.51" y="0">W</tspan><tspan x="14.86" y="0">aterChem</tspan></text>
    </g>
  </g>
</svg>