<?xml version="1.0" encoding="UTF-8"?>
<svg xmlns="http://www.w3.org/2000/svg" viewBox="0 0 50 50">
  <defs>
    <style>
      .cls-1 {
        fill: #f8ae19;
      }

      .cls-2 {
        fill: #010101;
      }

      .cls-3, .cls-4 {
        fill: #fff;
      }

      .cls-5 {
        fill: #fefefe;
      }

      .cls-6 {
        fill: #fefdfc;
      }

      .cls-7 {
        fill: #e75653;
      }

      .cls-8 {
        fill: #332405;
      }

      .cls-9 {
        fill: #ad4b4b;
      }

      .cls-4 {
        font-family: Frutiger-Black, 'Frutiger 75 Black';
        font-size: 5.92px;
        font-weight: 800;
      }
    </style>
  </defs>
  <g id="Layer_2" data-name="Layer 2">
    <rect class="cls-7" x="-2" y="-2.06" width="54" height="53.13"/>
  </g>
  <g id="Layer_1" data-name="Layer 1">
    <g>
      <g>
        <path class="cls-9" d="m33.95,9.35c.96,1.12,1.63,2.39,1.87,3.86.09.58.2,1.17.23,1.76.02.47-.09.94-.14,1.42-.03.08-.06.16-.09.24-.1,1.13-.52,2.14-1.15,3.06-.38.55-.82,1.04-1.23,1.56-.62.45-1.24.89-1.85,1.35-.1.08-.2.21-.23.33-.07.32-.09.64-.14.97-.11.71-.23,1.43-.35,2.14,0,0,0,0,0,0-.02.03-.05.05-.07.08-.37.92-.68,1.87-1.12,2.76-.9,1.83-2.22,3.35-3.85,4.56-.79.59-1.68,1.06-2.53,1.58-.11.06-.24.08-.37.11-.21-.79-.32-1.63-.65-2.37-1.6-3.54-4.42-5.37-8.27-5.66,0-2.28-.06-4.57.02-6.84.02-.66.39-1.32.69-1.94.66-1.41,1.7-2.51,2.99-3.38.19-.13.38-.27.6-.34.48-.16.42-.58.49-.93.04-.18.03-.37.09-.54.41-1.37.95-2.67,1.91-3.76,1.03-1.16,2.25-2.07,3.75-2.51.85-.25,1.74-.46,2.62-.47,1.68-.01,3.31.29,4.73,1.29.52.36,1.03.75,1.53,1.14.15.12.25.31.38.46.05.04.1.07.15.11Zm-10.9,16.79c.37-.06.74-.09,1.1-.17,1.35-.28,2.24-1.11,2.74-2.36.32-.82.38-1.67-.06-2.46-.54-.97-1.41-1.26-2.5-1.14-1.01.11-1.9,1.23-1.89,2.16.01,1.11,0,2.21,0,3.32,0,.62,0,.62.61.65Z"/>
        <path class="cls-3" d="m14.01,27.08c3.85.28,6.66,2.12,8.27,5.66.33.74.44,1.58.65,2.37-.5.22-.99.44-1.49.65-.51.21-1.04.26-1.59.25-1.81-.02-3.62,0-5.42,0h-.43c0-.16,0-.29,0-.42,0-2.83,0-5.67.01-8.5Z"/>
        <path class="cls-3" d="m30.87,26.03c.12-.71.24-1.43.35-2.14.05-.32.07-.65.14-.97.03-.12.13-.25.23-.33.61-.46,1.23-.9,1.85-1.35.45.81.89,1.62,1.34,2.43-.03.05-.06.11-.08.16-1.27.73-2.55,1.46-3.82,2.19Zm.95-2.97s-.01.09-.02.13c.51.13,1.03.27,1.54.4.01-.05.02-.09.04-.14-.52-.13-1.04-.26-1.56-.4Z"/>
        <path class="cls-6" d="m35.81,16.62c.03-.08.06-.16.09-.24-.03.08-.06.16-.09.24Z"/>
        <path class="cls-6" d="m34.69,23.84c.03-.05.06-.11.08-.16.04.03.08.06.11.08-.07.03-.13.05-.2.08Z"/>
        <path class="cls-6" d="m33.95,9.35s-.1-.07-.15-.11c.05.04.1.07.15.11Z"/>
        <path class="cls-1" d="m30.8,26.1s.05-.05.07-.08c-.02.03-.05.05-.07.08Z"/>
        <path class="cls-5" d="m23.05,26.14c-.61-.03-.61-.03-.61-.65,0-1.11,0-2.21,0-3.32,0-.93.88-2.05,1.89-2.16,1.09-.12,1.96.17,2.5,1.14.44.79.38,1.64.06,2.46-.5,1.26-1.39,2.08-2.74,2.36-.36.08-.73.11-1.1.17Zm1.68-4.41c-.71,0-1.25.59-1.24,1.35,0,.61.7,1.37,1.24,1.32.78-.07,1.35-.7,1.35-1.38,0-.75-.53-1.26-1.34-1.29Z"/>
        <path class="cls-8" d="m31.82,23.06c.52.13,1.04.26,1.56.4-.01.05-.02.09-.04.14-.51-.13-1.03-.27-1.54-.4,0-.04.01-.09.02-.13Z"/>
        <path class="cls-2" d="m24.73,21.73c.81.03,1.34.54,1.34,1.29,0,.68-.57,1.31-1.35,1.38-.54.05-1.23-.71-1.24-1.32,0-.76.53-1.34,1.24-1.35Zm-.01.89c-.32-.05-.42.17-.41.4,0,.26.12.52.45.49.29-.03.43-.2.43-.51,0-.34-.2-.39-.47-.38Z"/>
        <path class="cls-3" d="m24.72,22.62c.27-.01.47.04.47.38,0,.31-.15.48-.43.51-.33.03-.44-.23-.45-.49,0-.23.09-.45.41-.4Z"/>
      </g>
      <text class="cls-4" transform="translate(13.55 42.05)"><tspan x="0" y="0">QUMUY</tspan></text>
    </g>
  </g>
</svg>