<?xml version="1.0" encoding="UTF-8"?>
<svg xmlns="http://www.w3.org/2000/svg" viewBox="0 0 50 50">
  <defs>
    <style>
      .cls-1 {
        fill: #fff;
      }

      .cls-2 {
        fill: #e75653;
      }

      .cls-3 {
        fill: #ad4b4b;
      }
    </style>
  </defs>
  <g id="Layer_2" data-name="Layer 2">
    <rect class="cls-2" x="-2" y="-2.06" width="54" height="53.13"/>
  </g>
  <g id="Layer_1" data-name="Layer 1">
    <g>
      <path class="cls-1" d="m25.25,13.66c-.05-1.39.15-2.68.84-3.83.21-.35.75-.64,1.16-.68.95-.1,1.37.59.99,1.47-.4.92-1.91,2.48-2.99,3.04Z"/>
      <g>
        <path class="cls-3" d="m32.12,24.74c-.72-.48-2.07.52-2.08-1.15-.01-1.59,1.28-.72,1.9-1.11-.57-.45-1.81.52-1.9-.98-.11-1.77,1.41-.76,2.23-1.41-.6-.03-1.02-.07-1.44-.06-.6,0-.8-.31-.78-.86.02-.52-.07-1.15.7-1.11,1.47.09,2.98.09,4.4.44,1.84.46,3,2.54,2.74,4.41-.29,2.05-1.8,3.52-3.79,3.67-1.09.08-2.18.11-3.26.17-.47.03-.8-.11-.77-.64.03-.5-.25-1.18.58-1.3.45-.07.9-.05,1.48-.08Z"/>
        <path class="cls-3" d="m15.88,19.68c.86.6,2.22-.37,2.24,1.27.01,1.55-1.28.74-1.9,1.12.58.41,1.71-.48,1.89.85.24,1.8-1.31.97-2.02,1.6.36,0,.72.02,1.09,0,.64-.04.94.21.95.89,0,.68-.14,1.16-.94,1.11-1.27-.09-2.55-.1-3.79-.34-2.02-.4-3.29-2.29-3.14-4.4.15-2.01,1.74-3.63,3.77-3.8,1.09-.09,2.18-.13,3.27-.19.73-.04.83.41.83,1,0,.57-.13.95-.81.91-.39-.03-.78,0-1.42,0Z"/>
        <g>
          <path class="cls-1" d="m32.06,20.03c-.66.67-2.23-.26-2.02,1.56.16,1.39,1.34.44,1.9.89-.62.39-1.91-.49-1.91,1.11,0,1.6,1.28.71,1.9,1.08-.58.37-1.66-.39-1.86.77-.09.54-.26,1.26.66,1.4-1.6,1.64-3.42,1.75-6.36.43-3.16,2.55-6.8,2.29-7.99-.62.58-.36,1.75.26,1.74-1.14-.01-1.69-1.45-.62-2.14-1.23.84-.36,2.43.38,2.11-1.43-.22-1.21-1.27-.4-1.9-.8.74-.28,2.09.36,1.92-1.26-.16-1.48-1.39-.49-2.21-1.11.56,0,.92-.02,1.28,0,.66.05.94-.2.93-.88,0-.64-.12-1.09-.89-1.03-.18.01-.36,0-.55,0-1.02,0-1.49-.69-1.07-1.61.07-.15.38-.28.57-.28,5.19-.02,10.38-.02,15.57-.03.44,0,.66.13.66.62-.01,1.69.1,1.61-1.39,1.56-.74-.03-1,.3-1,1.04,0,.8.36,1.01,1.06.96.32-.02.65,0,.97,0Zm-9.92,2q0-1.91-1.93-1.9c-.15,0-.3.01-.45,0-.52-.04-.68.22-.67.71.02.82-.02,1.64.01,2.45.03.88.67,1.49,1.51,1.49.81,0,1.47-.63,1.53-1.49.03-.42,0-.85,0-1.27Zm5.17-1.9c-1.62,0-1.62,0-1.59,1.64,0,.33.03.67.11.98.19.73.67,1.12,1.43,1.13.99.02,1.6-.62,1.6-1.76,0-2.25.24-1.97-1.56-2Z"/>
          <path class="cls-1" d="m23.54,12.8c-.9-1.4-1.53-2.93-1.74-4.59-.05-.42.1-.91.29-1.3.31-.65,1.34-1.06,1.95-.85.76.26.89.98.8,1.57-.26,1.74-.65,3.47-1,5.2-.1,0-.21-.02-.31-.03Z"/>
          <path class="cls-1" d="m22.42,14.43c-1.15-.55-2.29-1.15-3.07-2.23-.51-.71-.35-1.54.33-1.99.58-.38,1.15-.22,1.59.67.54,1.09.93,2.25,1.39,3.39-.08.06-.16.11-.25.17Z"/>
          <g>
            <path class="cls-1" d="m18.67,37.19c.38.33.57.83.57,1.5,0,.97-.35,1.66-1.04,2.05-.7.4-1.67.6-2.92.6h-2.93v-9.09h2.57c1.28,0,2.25.18,2.93.54.67.36,1.01.96,1.01,1.78,0,.53-.16.96-.48,1.29-.32.33-.72.55-1.19.66.6.11,1.1.34,1.48.67Zm-4.17-3.43v2.11h.8c.91,0,1.36-.37,1.36-1.1,0-.37-.12-.63-.37-.78-.24-.15-.63-.23-1.17-.23h-.63Zm2.08,5.75c.29-.17.44-.49.44-.95,0-.84-.52-1.26-1.57-1.26h-.94v2.47h.79c.57,0,1-.09,1.29-.26Z"/>
            <path class="cls-1" d="m22.32,31.02c.23.22.35.51.35.85s-.12.62-.35.85c-.23.22-.53.33-.89.33s-.65-.11-.88-.33c-.23-.22-.34-.51-.34-.85s.11-.62.34-.85c.23-.22.52-.33.88-.33s.65.11.89.33Zm.16,3.34v6.97h-2.07v-6.97h2.07Z"/>
            <path class="cls-1" d="m30.36,31.6v9.74h-1.84l-.11-.81c-.49.69-1.15,1.04-1.98,1.04s-1.52-.33-1.98-1c-.45-.66-.68-1.57-.68-2.73,0-.71.12-1.34.35-1.9.24-.56.57-1,1-1.31.43-.31.93-.47,1.49-.47.66,0,1.22.22,1.65.66v-3.43l2.07.22Zm-2.07,7.65v-3.01c-.17-.2-.33-.35-.51-.45-.17-.1-.37-.14-.58-.14-.39,0-.69.18-.92.54-.23.36-.34.91-.34,1.65,0,.81.1,1.38.3,1.71.2.32.48.49.85.49.48,0,.88-.26,1.21-.79Z"/>
            <path class="cls-1" d="m37.64,39.89c.07.12.19.21.36.28l-.43,1.35c-.43-.04-.78-.13-1.05-.28-.27-.15-.48-.4-.63-.73-.45.7-1.15,1.05-2.1,1.05-.69,0-1.24-.2-1.65-.6-.41-.4-.62-.93-.62-1.57,0-.76.28-1.34.84-1.75.56-.4,1.37-.6,2.43-.6h.71v-.3c0-.41-.09-.69-.26-.85-.18-.15-.48-.23-.92-.23-.23,0-.5.03-.83.1-.32.07-.66.16-1,.27l-.47-1.36c.44-.17.89-.29,1.35-.38.46-.09.89-.13,1.28-.13,1,0,1.73.21,2.19.62.46.41.7,1.03.7,1.85v2.7c0,.26.04.45.11.58Zm-2.15-.49v-1.23h-.51c-.47,0-.82.08-1.06.25-.23.17-.35.42-.35.77,0,.28.07.5.22.65.14.15.34.23.6.23.47,0,.84-.22,1.1-.67Z"/>
          </g>
        </g>
      </g>
    </g>
  </g>
</svg>