<?xml version="1.0" encoding="utf-8"?>
<!-- Generator: Adobe Illustrator 27.3.1, SVG Export Plug-In . SVG Version: 6.00 Build 0)  -->
<svg version="1.1" id="Layer_1" xmlns="http://www.w3.org/2000/svg" xmlns:xlink="http://www.w3.org/1999/xlink" x="0px" y="0px"
	 viewBox="0 0 50 50" style="enable-background:new 0 0 50 50;" xml:space="preserve">
<style type="text/css">
	.st0{fill:#FFFFFF;}
	.st1{enable-background:new    ;}
</style>
<g id="Layer_1_00000147185954176197726630000011905398439193473971_">
	<g>
		<g>
			<path class="st0" d="M14.5,25.5c-0.1-1.6,0.4-3.1,1.1-4.5c0.6-1.4,1.3-2.8,2.1-4.2c1.2-2.1,2.5-4.1,3.9-6.1
				c0.9-1.3,1.9-2.6,2.8-3.9c0.4-0.6,0.9-1.2,1.3-1.7c0.2-0.3,0.5-0.3,0.8,0.1c0.7,0.9,1.4,1.8,2.1,2.8c1,1.4,2,2.8,3,4.2
				c0.9,1.3,1.7,2.8,2.5,4.1c0.7,1.1,1.2,2.4,1.9,3.6c0.4,0.7,0.7,1.5,1,2.2c0.4,1,0.7,2,0.6,3.1c-0.1,1.1-0.1,2.2-0.4,3.2
				c-0.2,0.8-0.5,1.5-0.8,2.2c-0.3,0.7-0.8,1.4-1.2,2c-1.1,1.4-2.5,2.5-4.2,3.3C29,36.8,27,37.1,25,36.9c-1.7-0.1-3.4-0.7-4.9-1.6
				c-2.5-1.5-4.2-3.6-5.1-6.4C14.6,27.8,14.4,26.6,14.5,25.5L14.5,25.5z M30.5,20.3C30.5,20.3,30.5,20.3,30.5,20.3
				C30.5,20.3,30.5,20.3,30.5,20.3C30.5,20.3,30.5,20.3,30.5,20.3c-0.4-1-1-1.9-1.5-2.8c-0.8-1.3-1.7-2.6-2.6-3.9
				c-0.2-0.4-0.5-0.4-0.9-0.1c-0.1,0.1-0.1,0.2-0.2,0.3c-1.3,1.9-2.5,3.7-3.7,5.7c-0.2,0.4-0.4,0.7-0.5,1.1c0.2,0.1,0.3-0.1,0.5-0.1
				c2-1,4.1-1.5,6.4-1c0.8,0.2,1.5,0.4,2.2,0.8C30.2,20.3,30.3,20.4,30.5,20.3L30.5,20.3z M26,24.1c-2.6-0.1-4.2,2.1-4.2,4
				c0,2.2,2.1,4.1,4.1,4.1c2.1,0,4.2-1.6,4-4.5C29.9,25.8,28.3,23.9,26,24.1z"/>
		</g>
		<g>
			<path class="st0" d="M30.5,20.3C30.5,20.3,30.5,20.3,30.5,20.3C30.5,20.4,30.5,20.4,30.5,20.3C30.5,20.3,30.5,20.3,30.5,20.3
				L30.5,20.3L30.5,20.3z"/>
		</g>
		<g class="st1">
			<path class="st0" d="M11.7,42.5C11.7,42.5,11.8,42.5,11.7,42.5l0.3,0.3c-0.1,0.2-0.3,0.3-0.5,0.4c-0.2,0.1-0.4,0.1-0.7,0.1
				c-0.2,0-0.4,0-0.6-0.1C10,43,9.9,42.9,9.8,42.8c-0.1-0.1-0.2-0.3-0.3-0.5c-0.1-0.2-0.1-0.4-0.1-0.6c0-0.2,0-0.5,0.1-0.7
				c0.1-0.2,0.2-0.4,0.3-0.5c0.1-0.1,0.3-0.3,0.5-0.3c0.2-0.1,0.4-0.1,0.7-0.1c0.2,0,0.4,0,0.6,0.1c0.2,0.1,0.3,0.2,0.5,0.3
				l-0.2,0.3c0,0,0,0,0,0s0,0-0.1,0c0,0-0.1,0-0.1,0c0,0-0.1-0.1-0.1-0.1s-0.1-0.1-0.2-0.1s-0.2,0-0.3,0c-0.1,0-0.3,0-0.4,0.1
				c-0.1,0.1-0.2,0.1-0.3,0.2c-0.1,0.1-0.2,0.2-0.2,0.4c-0.1,0.1-0.1,0.3-0.1,0.5c0,0.2,0,0.3,0.1,0.5c0,0.1,0.1,0.3,0.2,0.3
				c0.1,0.1,0.2,0.2,0.3,0.2c0.1,0,0.2,0.1,0.4,0.1c0.1,0,0.2,0,0.2,0c0.1,0,0.1,0,0.2,0s0.1,0,0.2-0.1
				C11.5,42.6,11.5,42.6,11.7,42.5C11.6,42.5,11.6,42.5,11.7,42.5C11.7,42.5,11.7,42.5,11.7,42.5z"/>
			<path class="st0" d="M13,40v3.2h-0.5V40H13z"/>
			<path class="st0" d="M14.5,40.9c0.1,0,0.3,0,0.4,0.1c0.1,0,0.2,0.1,0.3,0.2c0.1,0.1,0.2,0.2,0.2,0.3c0,0.1,0.1,0.3,0.1,0.4
				c0,0,0,0.1,0,0.1c0,0,0,0,0,0.1c0,0,0,0,0,0s0,0-0.1,0H14c0,0.2,0.1,0.4,0.2,0.5s0.2,0.2,0.4,0.2c0.1,0,0.2,0,0.2,0
				c0.1,0,0.1,0,0.2-0.1c0,0,0.1,0,0.1-0.1c0,0,0.1,0,0.1,0c0,0,0,0,0.1,0s0,0,0,0l0.2,0.2c-0.1,0.1-0.1,0.1-0.2,0.2
				c-0.1,0-0.2,0.1-0.2,0.1s-0.2,0-0.2,0.1s-0.2,0-0.2,0c-0.2,0-0.3,0-0.4-0.1c-0.1-0.1-0.2-0.1-0.3-0.2c-0.1-0.1-0.2-0.2-0.2-0.4
				c-0.1-0.1-0.1-0.3-0.1-0.5c0-0.2,0-0.3,0.1-0.4c0-0.1,0.1-0.3,0.2-0.4c0.1-0.1,0.2-0.2,0.3-0.2C14.2,41,14.4,40.9,14.5,40.9z
				 M14.5,41.3c-0.2,0-0.3,0-0.4,0.1c-0.1,0.1-0.1,0.2-0.2,0.4h1c0-0.1,0-0.1,0-0.2c0-0.1,0-0.1-0.1-0.2s-0.1-0.1-0.1-0.1
				C14.7,41.3,14.6,41.3,14.5,41.3z"/>
			<path class="st0" d="M17.7,43.2h-0.2c-0.1,0-0.1,0-0.1,0c0,0-0.1,0-0.1-0.1l0-0.2C17.2,43,17.1,43,17,43.1s-0.1,0.1-0.2,0.1
				c-0.1,0-0.1,0-0.2,0.1c-0.1,0-0.1,0-0.2,0c-0.1,0-0.2,0-0.3,0c-0.1,0-0.1-0.1-0.2-0.1c-0.1-0.1-0.1-0.1-0.1-0.2
				c0-0.1,0-0.2,0-0.3c0-0.1,0-0.2,0.1-0.2c0-0.1,0.1-0.2,0.2-0.2s0.2-0.1,0.4-0.2s0.4-0.1,0.6-0.1v-0.1c0-0.2,0-0.3-0.1-0.3
				c-0.1-0.1-0.2-0.1-0.3-0.1c-0.1,0-0.2,0-0.2,0s-0.1,0-0.2,0.1s-0.1,0-0.1,0.1c0,0-0.1,0-0.1,0c0,0-0.1,0-0.1,0c0,0,0,0-0.1-0.1
				l-0.1-0.2c0.3-0.2,0.6-0.4,0.9-0.4c0.1,0,0.2,0,0.4,0.1s0.2,0.1,0.3,0.2c0.1,0.1,0.1,0.2,0.2,0.3c0,0.1,0.1,0.2,0.1,0.3V43.2z
				 M16.6,42.9c0.1,0,0.1,0,0.2,0c0,0,0.1,0,0.1,0c0,0,0.1,0,0.1-0.1s0.1-0.1,0.1-0.1v-0.4c-0.2,0-0.3,0-0.4,0c-0.1,0-0.2,0-0.3,0.1
				c-0.1,0-0.1,0.1-0.1,0.1s0,0.1,0,0.1c0,0.1,0,0.2,0.1,0.2C16.5,42.9,16.5,42.9,16.6,42.9z"/>
			<path class="st0" d="M18.2,43.2V41h0.3c0.1,0,0.1,0,0.1,0c0,0,0,0.1,0,0.1l0,0.3c0.1-0.1,0.2-0.2,0.3-0.3
				c0.1-0.1,0.2-0.1,0.4-0.1c0.1,0,0.2,0,0.3,0.1l-0.1,0.4c0,0,0,0,0,0.1c0,0,0,0-0.1,0c0,0-0.1,0-0.1,0c0,0-0.1,0-0.2,0
				c-0.1,0-0.2,0-0.3,0.1c-0.1,0.1-0.1,0.2-0.2,0.3v1.4H18.2z"/>
		</g>
		<g class="st1">
			<path class="st0" d="M19.7,40.1h0.5c0.1,0,0.1,0,0.1,0c0,0,0.1,0.1,0.1,0.1l0.5,1.9c0,0,0,0.1,0,0.2c0,0.1,0,0.1,0,0.2
				c0-0.1,0-0.1,0-0.2c0-0.1,0-0.1,0-0.2l0.6-1.9c0,0,0-0.1,0.1-0.1c0,0,0.1,0,0.1,0h0.2c0.1,0,0.1,0,0.1,0c0,0,0.1,0.1,0.1,0.1
				l0.6,1.9c0,0.1,0.1,0.2,0.1,0.3c0-0.1,0-0.1,0-0.2c0-0.1,0-0.1,0-0.1l0.5-1.9c0,0,0-0.1,0.1-0.1c0,0,0.1,0,0.1,0h0.5l-1,3.2h-0.5
				l-0.7-2.2c0,0,0-0.1,0-0.1c0,0,0-0.1,0-0.1c0,0,0,0.1,0,0.1s0,0.1,0,0.1l-0.7,2.2h-0.5L19.7,40.1z"/>
		</g>
		<g class="st1">
			<path class="st0" d="M26.1,43.2h-0.2c-0.1,0-0.1,0-0.1,0c0,0-0.1,0-0.1-0.1l0-0.2c-0.1,0.1-0.1,0.1-0.2,0.1s-0.1,0.1-0.2,0.1
				c-0.1,0-0.1,0-0.2,0.1c-0.1,0-0.1,0-0.2,0c-0.1,0-0.2,0-0.3,0c-0.1,0-0.1-0.1-0.2-0.1c-0.1-0.1-0.1-0.1-0.1-0.2
				c0-0.1,0-0.2,0-0.3c0-0.1,0-0.2,0.1-0.2c0-0.1,0.1-0.2,0.2-0.2s0.2-0.1,0.4-0.2s0.4-0.1,0.6-0.1v-0.1c0-0.2,0-0.3-0.1-0.3
				c-0.1-0.1-0.2-0.1-0.3-0.1c-0.1,0-0.2,0-0.2,0s-0.1,0-0.2,0.1s-0.1,0-0.1,0.1c0,0-0.1,0-0.1,0c0,0-0.1,0-0.1,0c0,0,0,0-0.1-0.1
				l-0.1-0.2c0.3-0.2,0.6-0.4,0.9-0.4c0.1,0,0.2,0,0.4,0.1s0.2,0.1,0.3,0.2c0.1,0.1,0.1,0.2,0.2,0.3c0,0.1,0.1,0.2,0.1,0.3V43.2z
				 M25.1,42.9c0.1,0,0.1,0,0.2,0c0,0,0.1,0,0.1,0c0,0,0.1,0,0.1-0.1s0.1-0.1,0.1-0.1v-0.4c-0.2,0-0.3,0-0.4,0c-0.1,0-0.2,0-0.3,0.1
				c-0.1,0-0.1,0.1-0.1,0.1s0,0.1,0,0.1c0,0.1,0,0.2,0.1,0.2C24.9,42.9,25,42.9,25.1,42.9z"/>
			<path class="st0" d="M27.4,43.2c-0.2,0-0.3-0.1-0.4-0.2c-0.1-0.1-0.2-0.3-0.2-0.5v-1.2h-0.2c0,0-0.1,0-0.1,0c0,0,0,0,0-0.1V41
				l0.4-0.1l0.1-0.6c0,0,0-0.1,0-0.1c0,0,0,0,0.1,0h0.3V41h0.6v0.4h-0.6v1.2c0,0.1,0,0.1,0.1,0.2c0,0,0.1,0.1,0.1,0.1
				c0,0,0.1,0,0.1,0s0,0,0.1,0c0,0,0,0,0,0c0,0,0,0,0,0c0,0,0,0,0,0c0,0,0,0,0,0L28,43c-0.1,0.1-0.2,0.1-0.3,0.1
				C27.6,43.2,27.5,43.2,27.4,43.2z"/>
			<path class="st0" d="M29.3,40.9c0.1,0,0.3,0,0.4,0.1c0.1,0,0.2,0.1,0.3,0.2c0.1,0.1,0.2,0.2,0.2,0.3c0,0.1,0.1,0.3,0.1,0.4
				c0,0,0,0.1,0,0.1c0,0,0,0,0,0.1c0,0,0,0,0,0c0,0,0,0-0.1,0h-1.4c0,0.2,0.1,0.4,0.2,0.5s0.2,0.2,0.4,0.2c0.1,0,0.2,0,0.2,0
				s0.1,0,0.2-0.1c0,0,0.1,0,0.1-0.1c0,0,0.1,0,0.1,0c0,0,0,0,0.1,0c0,0,0,0,0,0l0.2,0.2c-0.1,0.1-0.1,0.1-0.2,0.2
				c-0.1,0-0.2,0.1-0.2,0.1c-0.1,0-0.2,0-0.2,0.1c-0.1,0-0.2,0-0.2,0c-0.2,0-0.3,0-0.4-0.1c-0.1-0.1-0.2-0.1-0.3-0.2
				c-0.1-0.1-0.2-0.2-0.2-0.4c-0.1-0.1-0.1-0.3-0.1-0.5c0-0.2,0-0.3,0.1-0.4c0-0.1,0.1-0.3,0.2-0.4c0.1-0.1,0.2-0.2,0.3-0.2
				C28.9,41,29.1,40.9,29.3,40.9z M29.3,41.3c-0.2,0-0.3,0-0.4,0.1s-0.1,0.2-0.2,0.4h1c0-0.1,0-0.1,0-0.2c0-0.1,0-0.1-0.1-0.2
				s-0.1-0.1-0.1-0.1C29.4,41.3,29.3,41.3,29.3,41.3z"/>
			<path class="st0" d="M30.7,43.2V41H31c0.1,0,0.1,0,0.1,0s0,0.1,0,0.1l0,0.3c0.1-0.1,0.2-0.2,0.3-0.3s0.2-0.1,0.4-0.1
				c0.1,0,0.2,0,0.3,0.1L32,41.4c0,0,0,0,0,0.1c0,0,0,0-0.1,0c0,0-0.1,0-0.1,0c0,0-0.1,0-0.2,0c-0.1,0-0.2,0-0.3,0.1
				c-0.1,0.1-0.1,0.2-0.2,0.3v1.4H30.7z"/>
			<path class="st0" d="M34.6,42.5C34.7,42.5,34.7,42.5,34.6,42.5l0.3,0.3c-0.1,0.2-0.3,0.3-0.5,0.4c-0.2,0.1-0.4,0.1-0.7,0.1
				c-0.2,0-0.4,0-0.6-0.1s-0.3-0.2-0.5-0.3c-0.1-0.1-0.2-0.3-0.3-0.5c-0.1-0.2-0.1-0.4-0.1-0.6c0-0.2,0-0.5,0.1-0.7
				c0.1-0.2,0.2-0.4,0.3-0.5c0.1-0.1,0.3-0.3,0.5-0.3c0.2-0.1,0.4-0.1,0.7-0.1c0.2,0,0.4,0,0.6,0.1c0.2,0.1,0.3,0.2,0.5,0.3
				l-0.2,0.3c0,0,0,0,0,0c0,0,0,0-0.1,0c0,0-0.1,0-0.1,0c0,0-0.1-0.1-0.1-0.1s-0.1-0.1-0.2-0.1s-0.2,0-0.3,0c-0.1,0-0.3,0-0.4,0.1
				c-0.1,0.1-0.2,0.1-0.3,0.2C33.1,40.9,33,41,33,41.2c0,0.1-0.1,0.3-0.1,0.5c0,0.2,0,0.3,0.1,0.5c0,0.1,0.1,0.3,0.2,0.3
				c0.1,0.1,0.2,0.2,0.3,0.2c0.1,0,0.2,0.1,0.4,0.1c0.1,0,0.2,0,0.2,0s0.1,0,0.2,0s0.1,0,0.2-0.1C34.4,42.6,34.5,42.6,34.6,42.5
				C34.6,42.5,34.6,42.5,34.6,42.5C34.6,42.5,34.6,42.5,34.6,42.5z"/>
			<path class="st0" d="M35.4,43.2V40h0.5v1.2c0.1-0.1,0.2-0.1,0.3-0.2s0.2-0.1,0.4-0.1c0.1,0,0.2,0,0.3,0.1c0.1,0,0.2,0.1,0.2,0.2
				s0.1,0.2,0.1,0.3c0,0.1,0,0.2,0,0.3v1.4h-0.5v-1.4c0-0.1,0-0.2-0.1-0.3c-0.1-0.1-0.2-0.1-0.3-0.1c-0.1,0-0.2,0-0.3,0.1
				s-0.2,0.1-0.2,0.2v1.6H35.4z"/>
			<path class="st0" d="M38.8,40.9c0.1,0,0.3,0,0.4,0.1s0.2,0.1,0.3,0.2c0.1,0.1,0.2,0.2,0.2,0.3s0.1,0.3,0.1,0.4c0,0,0,0.1,0,0.1
				c0,0,0,0,0,0.1c0,0,0,0,0,0c0,0,0,0-0.1,0h-1.4c0,0.2,0.1,0.4,0.2,0.5s0.2,0.2,0.4,0.2c0.1,0,0.2,0,0.2,0c0.1,0,0.1,0,0.2-0.1
				c0,0,0.1,0,0.1-0.1c0,0,0.1,0,0.1,0c0,0,0,0,0.1,0c0,0,0,0,0,0l0.2,0.2c-0.1,0.1-0.1,0.1-0.2,0.2c-0.1,0-0.2,0.1-0.2,0.1
				c-0.1,0-0.2,0-0.2,0.1c-0.1,0-0.2,0-0.2,0c-0.2,0-0.3,0-0.4-0.1S38.1,43,38,42.9c-0.1-0.1-0.2-0.2-0.2-0.4
				c-0.1-0.1-0.1-0.3-0.1-0.5c0-0.2,0-0.3,0.1-0.4c0-0.1,0.1-0.3,0.2-0.4c0.1-0.1,0.2-0.2,0.3-0.2C38.4,41,38.6,40.9,38.8,40.9z
				 M38.8,41.3c-0.2,0-0.3,0-0.4,0.1c-0.1,0.1-0.1,0.2-0.2,0.4h1c0-0.1,0-0.1,0-0.2c0-0.1,0-0.1-0.1-0.2S39,41.4,39,41.4
				C38.9,41.3,38.9,41.3,38.8,41.3z"/>
			<path class="st0" d="M40.2,43.2V41h0.3c0.1,0,0.1,0,0.1,0.1l0,0.2c0,0,0.1-0.1,0.1-0.1s0.1-0.1,0.1-0.1c0,0,0.1,0,0.2-0.1
				c0.1,0,0.1,0,0.2,0c0.1,0,0.3,0,0.3,0.1s0.2,0.2,0.2,0.3c0-0.1,0.1-0.1,0.1-0.2c0.1-0.1,0.1-0.1,0.2-0.1c0.1,0,0.1-0.1,0.2-0.1
				c0.1,0,0.1,0,0.2,0c0.1,0,0.2,0,0.3,0.1s0.2,0.1,0.2,0.2c0.1,0.1,0.1,0.2,0.1,0.3s0.1,0.2,0.1,0.4v1.4h-0.5v-1.4
				c0-0.1,0-0.2-0.1-0.3s-0.2-0.1-0.3-0.1c-0.1,0-0.1,0-0.2,0c0,0-0.1,0-0.1,0.1c0,0-0.1,0.1-0.1,0.1s0,0.1,0,0.2v1.4h-0.5v-1.4
				c0-0.1,0-0.3-0.1-0.3c-0.1-0.1-0.1-0.1-0.3-0.1c-0.1,0-0.1,0-0.2,0.1c-0.1,0-0.1,0.1-0.2,0.2v1.6H40.2z"/>
		</g>
	</g>
</g>
</svg>
