<?xml version="1.0" encoding="UTF-8"?>
<svg xmlns="http://www.w3.org/2000/svg" viewBox="0 0 50 50">
  <defs>
    <style>
      .cls-1 {
        fill: #fff;
      }

      .cls-2 {
        fill: #e75653;
      }
    </style>
  </defs>
  <g id="Layer_2" data-name="Layer 2">
    <rect class="cls-2" x="-2" y="-2.06" width="54" height="53.13"/>
  </g>
  <g id="Layer_1" data-name="Layer 1">
    <g>
      <path class="cls-1" d="m4.98,19.76c.09,0,.17,0,.25,0,1.05,0,2.09-.02,3.14,0,.94.02,1.88.1,2.76.48,1.48.63,2.35,1.75,2.59,3.33.17,1.11.12,2.22-.35,3.27-.63,1.42-1.76,2.16-3.23,2.49-.76.17-1.53.2-2.31.19-.88-.01-1.76,0-2.64,0-.15,0-.23-.02-.23-.2,0-3.15,0-6.3,0-9.45,0-.02,0-.04.02-.1Zm4.87,4.78c-.08.07-.13.12-.19.17-.66.52-1.29,1.06-1.98,1.54-.4.28-.58.58-.52,1.07.03.2.08.24.26.24.48-.01.96-.02,1.43,0,.29.01.49-.07.69-.28.86-.87,1.73-1.74,2.6-2.6.15-.15.14-.24,0-.38-.79-.78-1.57-1.57-2.37-2.35-.1-.1-.25-.19-.38-.2-.69-.05-1.38-.06-2.08-.09-.04,0-.11.03-.13.06-.1.18,0,.62.16.75.76.62,1.53,1.24,2.29,1.87.06.05.12.11.2.19Z"/>
      <path class="cls-1" d="m26.53,26.5c.12.54.42.88.85,1.12.84.46,1.67.4,2.47-.14.13-.09.27-.25.39-.24.11.01.21.21.31.32.22.24.44.49.67.72.12.12.09.19-.02.29-.59.48-1.24.83-1.99.95-1.22.2-2.35,0-3.34-.78-.78-.61-1.18-1.44-1.31-2.41-.08-.64-.05-1.28.16-1.9.42-1.22,1.28-2.01,2.5-2.36,1.24-.36,2.42-.17,3.48.6.81.59,1.2,1.4,1.28,2.38.03.39.03.79.05,1.19.01.19-.05.26-.25.26-1.62,0-3.24,0-4.86,0-.11,0-.22,0-.37,0Zm.05-1.47c.37,0,.72,0,1.07,0,.69,0,1.37,0,2.06,0,.14,0,.2-.03.17-.19-.14-.63-.68-1.14-1.32-1.2-.57-.06-1.08.11-1.51.49-.27.23-.41.54-.47.91Z"/>
      <path class="cls-1" d="m39.07,24.63c-.22-.17-.4-.33-.6-.47-.78-.53-1.76-.54-2.51-.08-1.05.66-1.3,2.66.14,3.43.83.45,1.64.36,2.36-.26.14-.12.27-.26.4-.39.09-.09.15-.08.23.02.31.37.62.73.94,1.08.1.11.11.19,0,.3-1.78,1.79-4.23,1.71-5.81.24-.92-.86-1.18-1.95-1.1-3.18.12-1.67,1.53-3,3.01-3.3,1.43-.29,2.68.08,3.78,1.03.14.12.15.21.03.37-.27.34-.51.7-.76,1.05-.03.05-.07.09-.11.15Z"/>
      <path class="cls-1" d="m45.8,27.32c.16.31.32.6.47.9.29.59.4.47-.23.89-1.04.69-2.29.65-3.18-.1-.51-.43-.82-.98-.84-1.65-.04-1.24-.03-2.48-.04-3.72,0-.04,0-.07,0-.15-.24,0-.46,0-.69,0-.16,0-.21-.05-.21-.2,0-.35,0-.7,0-1.05,0-.16.05-.22.21-.21.16,0,.31,0,.47,0,.17.01.23-.04.23-.23-.02-.6-.01-1.21-.01-1.81,0-.06,0-.12.02-.21.11,0,.21,0,.31,0,.5,0,1,.02,1.5,0,.23,0,.28.08.27.29-.01.57,0,1.15,0,1.72,0,.18.06.23.23.23.45,0,.9,0,1.34,0,.18,0,.23.06.23.24-.01.34-.01.69,0,1.03,0,.16-.06.2-.21.2-.46,0-.93,0-1.39,0-.17,0-.22.06-.22.22.01,1.07.01,2.15.03,3.22,0,.37.16.67.52.81.33.13.61,0,.88-.17.11-.07.21-.16.33-.26Z"/>
      <path class="cls-1" d="m21.22,23.02c.11-.08.17-.12.23-.17.52-.48,1.12-.82,1.83-.92.16-.02.22,0,.22.17,0,.52,0,1.05,0,1.57,0,.15-.05.19-.2.19-.24,0-.48.02-.71.07-.67.15-1.01.65-1.18,1.26-.12.43-.15.89-.16,1.34-.02.93,0,1.85.01,2.78,0,.14-.04.2-.19.2-.56,0-1.12,0-1.68,0-.16,0-.22-.05-.22-.22,0-2.34,0-4.69,0-7.03,0-.17.05-.23.22-.22.56,0,1.12,0,1.68,0,.16,0,.21.07.2.22-.02.23-.02.47-.04.76Z"/>
      <path class="cls-1" d="m15.09,25.76c0-1.15,0-2.3,0-3.45,0-.21.06-.29.28-.28.51.01,1.03.01,1.54,0,.21,0,.29.05.28.27,0,2.33,0,4.66,0,6.98,0,.17-.06.22-.22.22-.54,0-1.09,0-1.63,0-.18,0-.24-.06-.24-.24,0-1.17,0-2.34,0-3.51h0Z"/>
      <path class="cls-1" d="m17.32,20.2c0,.66-.53,1.19-1.2,1.19-.66,0-1.2-.53-1.2-1.19,0-.67.53-1.2,1.21-1.2.66,0,1.18.53,1.18,1.2Z"/>
    </g>
  </g>
</svg>