<?xml version="1.0" encoding="utf-8"?>
<!-- Generator: Adobe Illustrator 27.3.1, SVG Export Plug-In . SVG Version: 6.00 Build 0)  -->
<svg version="1.1" xmlns="http://www.w3.org/2000/svg" xmlns:xlink="http://www.w3.org/1999/xlink" x="0px" y="0px"
	 viewBox="0 0 900 900" style="enable-background:new 0 0 900 900;" xml:space="preserve">
<style type="text/css">
	.st0{display:none;}
	.st1{display:inline;opacity:0.28;}
	.st2{fill:none;stroke:#000000;stroke-width:0.75;stroke-miterlimit:10;}
	.st3{fill:none;stroke:#000000;stroke-width:4;stroke-linecap:round;stroke-linejoin:round;stroke-miterlimit:10;}
	.st4{fill:#FCCF72;stroke:#1A2276;stroke-width:6;stroke-miterlimit:10;}
	.st5{fill:#1A2276;}
	.st6{fill:#EBEAD8;}
	.st7{fill:#ED8376;stroke:#E90302;stroke-width:17;stroke-linecap:round;stroke-linejoin:round;stroke-miterlimit:10;}
	.st8{fill:#E90302;}
	.st9{fill:#FCCF72;}
	.st10{fill:#8288A8;}
	.st11{fill:#EBEAD8;stroke:#1A2276;stroke-width:6;stroke-miterlimit:10;}
	.st12{fill:none;stroke:#1A2276;stroke-width:6;stroke-miterlimit:10;}
	.st13{fill:#E90302;stroke:#1A2276;stroke-width:6;stroke-miterlimit:10;}
	.st14{fill:#EBBFAF;}
	
		.st15{clip-path:url(#SVGID_00000162310550725920416930000007206171296735746215_);fill:#FCCF72;stroke:#1A2276;stroke-width:6;stroke-miterlimit:10;}
	
		.st16{clip-path:url(#SVGID_00000180348530115373604040000007887982229869143169_);fill:#FCCF72;stroke:#1A2276;stroke-width:6;stroke-miterlimit:10;}
	
		.st17{clip-path:url(#SVGID_00000033331142570227470520000008057303264857320100_);fill:#FCCF72;stroke:#1A2276;stroke-width:6;stroke-miterlimit:10;}
	
		.st18{clip-path:url(#SVGID_00000000929453368589624090000000373058983962190991_);fill:#FCCF72;stroke:#1A2276;stroke-width:6;stroke-miterlimit:10;}
	
		.st19{clip-path:url(#SVGID_00000155139974582194392870000009694558351574619288_);fill:#FCCF72;stroke:#1A2276;stroke-width:6;stroke-miterlimit:10;}
	.st20{fill:#FFFFFF;}
	
		.st21{clip-path:url(#SVGID_00000106123149865495154800000017297838556187054491_);fill:#FCCF72;stroke:#1A2276;stroke-width:6;stroke-miterlimit:10;}
	.st22{fill:none;stroke:#1A2276;stroke-width:6;stroke-linecap:round;stroke-miterlimit:10;}
	
		.st23{clip-path:url(#SVGID_00000025409251207014183280000013806087477737931178_);fill:#FCCF72;stroke:#1A2276;stroke-width:6;stroke-miterlimit:10;}
	
		.st24{clip-path:url(#SVGID_00000018208082030084058990000013588305861447110579_);fill:#FCCF72;stroke:#1A2276;stroke-width:6;stroke-miterlimit:10;}
	
		.st25{clip-path:url(#SVGID_00000112619700177090277750000010120356698566691718_);fill:#FCCF72;stroke:#1A2276;stroke-width:6;stroke-miterlimit:10;}
	
		.st26{clip-path:url(#SVGID_00000129925460805965466670000010093453546329041798_);fill:#FCCF72;stroke:#1A2276;stroke-width:6;stroke-miterlimit:10;}
	
		.st27{clip-path:url(#SVGID_00000065774579181877280650000011440031987699616143_);fill:#FCCF72;stroke:#1A2276;stroke-width:6;stroke-miterlimit:10;}
	
		.st28{clip-path:url(#SVGID_00000103225010030379786710000016184812322226703245_);fill:#FCCF72;stroke:#1A2276;stroke-width:6;stroke-miterlimit:10;}
	.st29{fill:none;stroke:#000000;stroke-width:4;stroke-miterlimit:10;}
	.st30{fill:#FCCF72;stroke:#000000;stroke-width:4;stroke-miterlimit:10;}
	.st31{fill:none;stroke:#000000;stroke-width:5;stroke-linecap:round;stroke-miterlimit:10;}
	
		.st32{clip-path:url(#SVGID_00000160153238884820189340000018083093673422043295_);fill:#FCCF72;stroke:#1A2276;stroke-width:6;stroke-miterlimit:10;}
	
		.st33{clip-path:url(#SVGID_00000071537057940485581480000006429129643936139141_);fill:#FCCF72;stroke:#1A2276;stroke-width:6;stroke-miterlimit:10;}
	
		.st34{clip-path:url(#SVGID_00000117678575996081246750000014981216868158641341_);fill:#FCCF72;stroke:#1A2276;stroke-width:6;stroke-miterlimit:10;}
	
		.st35{clip-path:url(#SVGID_00000021116091827178171600000000677676582961718681_);fill:#FCCF72;stroke:#1A2276;stroke-width:6;stroke-miterlimit:10;}
	.st36{fill:#E90302;stroke:#EBBFAF;stroke-width:6;stroke-miterlimit:10;}
	.st37{clip-path:url(#SVGID_00000004541889364939152620000004291188905361140392_);fill:#FCCF72;}
	.st38{clip-path:url(#SVGID_00000004541889364939152620000004291188905361140392_);fill:#1A2276;}
	.st39{clip-path:url(#SVGID_00000068653980389396783630000010524160521763911614_);fill:#8288A8;}
	.st40{fill:#020202;}
	.st41{clip-path:url(#SVGID_00000093858195222047346170000006597296495294869408_);}
	.st42{fill:#EBEAD8;stroke:#1A2276;stroke-width:3;stroke-miterlimit:10;}
	.st43{fill:#8288A8;stroke:#8288A8;stroke-miterlimit:10;}
	.st44{fill:#1A2276;stroke:#FCCF72;stroke-width:6;stroke-miterlimit:10;}
	.st45{fill:none;stroke:#EBEAD8;stroke-width:6;stroke-miterlimit:10;}
	.st46{fill:#8288A8;stroke:#1A2276;stroke-width:6;stroke-miterlimit:10;}
	.st47{fill:#FCCF72;stroke:#8288A8;stroke-width:6;stroke-miterlimit:10;}
	.st48{clip-path:url(#SVGID_00000145739136856579389440000011224846256107970462_);}
	.st49{fill:none;}
	.st50{font-family:'Aptly-Bold';}
	.st51{font-size:40.1137px;}
	.st52{letter-spacing:4;}
	.st53{font-size:109.6186px;}
	.st54{fill:#ED8376;}
	.st55{fill:url(#);}
	.st56{fill:#1A2276;stroke:url(#);stroke-miterlimit:10;}
	.st57{fill:#ED8376;stroke:#E90302;stroke-width:6;stroke-linecap:round;stroke-linejoin:round;stroke-miterlimit:10;}
	.st58{fill:none;stroke:#E90302;stroke-width:6;stroke-linecap:round;stroke-linejoin:round;stroke-miterlimit:10;}
	.st59{fill:none;stroke:#E90302;stroke-width:5;stroke-linecap:round;stroke-linejoin:round;stroke-miterlimit:10;}
	.st60{fill:#FFFFFF;stroke:#000000;stroke-width:6;stroke-miterlimit:10;}
	.st61{fill:#FFFDFD;stroke:#1A2276;stroke-width:7;stroke-miterlimit:10;}
	
		.st62{clip-path:url(#SVGID_00000057835406702479064700000002086338486021674153_);fill:#FCCF72;stroke:#1A2276;stroke-width:6;stroke-miterlimit:10;}
	
		.st63{clip-path:url(#SVGID_00000045590940472238705910000005575973514386783904_);fill:#FCCF72;stroke:#1A2276;stroke-width:6;stroke-miterlimit:10;}
	.st64{fill:none;stroke:#E90302;stroke-width:6;stroke-linecap:round;stroke-miterlimit:10;}
	
		.st65{clip-path:url(#SVGID_00000065046451863749289050000015250909625789949348_);fill:#FCCF72;stroke:#1A2276;stroke-width:6;stroke-miterlimit:10;}
	
		.st66{clip-path:url(#SVGID_00000165211598444484837650000015218373968418821773_);fill:#FCCF72;stroke:#1A2276;stroke-width:6;stroke-miterlimit:10;}
	
		.st67{clip-path:url(#SVGID_00000139288483747957715860000004336785102754357140_);fill:#FCCF72;stroke:#1A2276;stroke-width:6;stroke-miterlimit:10;}
	.st68{fill:none;stroke:#1A2276;stroke-width:7;stroke-miterlimit:10;}
	
		.st69{clip-path:url(#SVGID_00000072997079168647936730000002180846399747212469_);fill:#FCCF72;stroke:#1A2276;stroke-width:6;stroke-miterlimit:10;}
	.st70{clip-path:url(#SVGID_00000021800312922585002650000006907703392449271967_);}
	
		.st71{clip-path:url(#SVGID_00000049925500600041252130000011350906633489959567_);fill:#FCCF72;stroke:#1A2276;stroke-width:6;stroke-miterlimit:10;}
	
		.st72{clip-path:url(#SVGID_00000073708662992923911770000014974757575723426724_);fill:#FCCF72;stroke:#1A2276;stroke-width:6;stroke-miterlimit:10;}
	
		.st73{clip-path:url(#SVGID_00000131352120660894645770000018336566661608539575_);fill:#FCCF72;stroke:#1A2276;stroke-width:6;stroke-miterlimit:10;}
	.st74{clip-path:url(#SVGID_00000000189422274497167470000010406783288632451208_);}
	.st75{clip-path:url(#SVGID_00000034051209918027920000000006418312172893966999_);}
	.st76{clip-path:url(#SVGID_00000169519604895373458980000015710768015078405260_);}
	.st77{opacity:0.5;}
	.st78{clip-path:url(#SVGID_00000078017382284853736340000003279843090892003516_);}
	.st79{clip-path:url(#SVGID_00000018208619678113996780000002486270533023115697_);}
	.st80{fill:#FFFDFD;}
	.st81{clip-path:url(#SVGID_00000046331840337386296310000007610634729852308155_);}
	.st82{opacity:0.8;}
	
		.st83{clip-path:url(#SVGID_00000175287160779737979730000008683995438104550060_);fill:#FCCF72;stroke:#1A2276;stroke-width:6;stroke-miterlimit:10;}
	
		.st84{clip-path:url(#SVGID_00000164492436781430680360000012813939842973869471_);fill:#FCCF72;stroke:#1A2276;stroke-width:6;stroke-miterlimit:10;}
	.st85{clip-path:url(#SVGID_00000101803092276812327810000010849517731907166597_);}
	.st86{clip-path:url(#SVGID_00000022541106890774527470000004418798404550585781_);}
	.st87{clip-path:url(#SVGID_00000160911191135219540770000002500165318912216763_);}
	.st88{clip-path:url(#SVGID_00000026152289539992709080000012253280445762440320_);}
	.st89{clip-path:url(#SVGID_00000070110794606460181510000015690423121821080764_);}
	.st90{fill:none;stroke:#1A2276;stroke-width:19;stroke-miterlimit:10;}
	.st91{clip-path:url(#SVGID_00000137101304674701905340000010978218209257895067_);}
	.st92{fill:none;stroke:#1A2276;stroke-width:10;stroke-miterlimit:10;}
	.st93{clip-path:url(#SVGID_00000162350279839038446870000018359675325620379071_);}
	.st94{clip-path:url(#SVGID_00000173850639099438487230000008036202307948308894_);fill:#FCCF72;}
	.st95{clip-path:url(#SVGID_00000173850639099438487230000008036202307948308894_);fill:#1A2276;}
	.st96{clip-path:url(#SVGID_00000183930341115993784790000003516024970999806631_);}
	.st97{clip-path:url(#SVGID_00000045592801855735541090000017436196545597017218_);}
	.st98{clip-path:url(#SVGID_00000045592801855735541090000017436196545597017218_);fill:none;}
	.st99{clip-path:url(#SVGID_00000001622315396059817640000007314277226611287970_);fill:#8288A8;}
	.st100{clip-path:url(#SVGID_00000001622315396059817640000007314277226611287970_);fill:#FCCF72;}
	.st101{fill:#FFFFFF;stroke:#FFFFFF;stroke-width:6;stroke-miterlimit:10;}
	.st102{fill:none;stroke:#8288A8;stroke-width:6;stroke-miterlimit:10;}
	.st103{clip-path:url(#SVGID_00000076590750739348681240000013897590674656054713_);}
	.st104{clip-path:url(#SVGID_00000160158550690642863320000010361352091325119638_);}
	.st105{clip-path:url(#SVGID_00000005226474884348411190000018418663830695374513_);}
	.st106{clip-path:url(#SVGID_00000062190203358864862380000007059772362546620828_);}
	.st107{clip-path:url(#SVGID_00000041990976293815596360000010047905812226746802_);}
	.st108{fill:#EBEAD8;stroke:#1A2276;stroke-width:12;stroke-miterlimit:10;}
	.st109{fill:none;stroke:#1A2276;stroke-width:12;stroke-miterlimit:10;}
	.st110{clip-path:url(#SVGID_00000124843473179402824170000005916210227641796795_);}
	.st111{clip-path:url(#SVGID_00000132782700883152369370000000498851069352090040_);}
	.st112{clip-path:url(#SVGID_00000116921740509116034030000004468685813677518465_);}
	.st113{clip-path:url(#SVGID_00000067204903797732534520000002883899827060747160_);}
	.st114{clip-path:url(#SVGID_00000127746921918073793460000009640393890659795872_);}
	.st115{clip-path:url(#SVGID_00000120556286763146903010000012649897151601014406_);fill:#8288A8;}
	.st116{clip-path:url(#SVGID_00000120556286763146903010000012649897151601014406_);fill:#FCCF72;}
	.st117{clip-path:url(#SVGID_00000142876386785364943640000005574758094740043199_);}
	.st118{clip-path:url(#SVGID_00000092457122598794281490000014517202528426503586_);fill:#E90302;}
	.st119{clip-path:url(#SVGID_00000014606707473460622730000005683664469535207102_);fill:none;}
	.st120{clip-path:url(#SVGID_00000046338731591878311050000013834480453160225977_);}
	.st121{clip-path:url(#SVGID_00000132078266680338874370000007873007227205001380_);}
	.st122{clip-path:url(#SVGID_00000040555667470233516480000001434130146062009227_);}
	.st123{clip-path:url(#SVGID_00000169530404851289727610000013127712072983133107_);}
	.st124{clip-path:url(#SVGID_00000132069588727019035770000013238619226307678881_);}
	.st125{clip-path:url(#SVGID_00000095311267666599937670000004599433730837468544_);}
	.st126{clip-path:url(#SVGID_00000003068420878115156680000007112687855919543954_);}
	.st127{clip-path:url(#SVGID_00000101826118930511705750000009463823259672577981_);}
	.st128{clip-path:url(#SVGID_00000129176419490104311450000013910492963168779171_);}
	.st129{clip-path:url(#SVGID_00000142873027204965371710000015116650506062202758_);}
	.st130{clip-path:url(#SVGID_00000062889628103801796260000017519497684831608464_);}
	.st131{clip-path:url(#SVGID_00000122721666435997191900000002829639967333535392_);}
	.st132{clip-path:url(#SVGID_00000157993202161513346840000004903074047605613467_);fill:#EBEAD8;}
	.st133{clip-path:url(#SVGID_00000157993202161513346840000004903074047605613467_);}
	.st134{clip-path:url(#SVGID_00000083773713341154077070000016069426419336412578_);}
	.st135{clip-path:url(#SVGID_00000116955272935886113150000004299703750292563111_);}
	.st136{clip-path:url(#SVGID_00000051357881576974291950000001849786471293772696_);}
	.st137{clip-path:url(#SVGID_00000101812205356381718840000008755224371139915938_);}
	.st138{clip-path:url(#SVGID_00000147930282100535220120000013537046482068847800_);}
	.st139{fill:#ED8376;stroke:#1A2276;stroke-width:6;stroke-miterlimit:10;}
	.st140{fill:url(#);stroke:#1A2276;stroke-width:6;stroke-miterlimit:10;}
	.st141{clip-path:url(#SVGID_00000071521262477440647490000010964866467400764338_);}
	.st142{font-size:28px;}
	.st143{font-family:'Aptly';}
	.st144{font-size:70.9205px;}
	
		.st145{clip-path:url(#SVGID_00000156566428374031840560000012564323445382235522_);fill:#FCCF72;stroke:#1A2276;stroke-width:6;stroke-miterlimit:10;}
	.st146{fill:none;stroke:#FCCF72;stroke-width:6;stroke-linecap:round;stroke-miterlimit:10;}
	.st147{clip-path:url(#SVGID_00000128462988359333261660000002710168508807539122_);}
</style>
<g id="guias" class="st0">
</g>
<g id="Layer_2">
</g>
<g id="Layer_1">
	<rect x="-0.5" y="2" class="st6" width="899" height="896"/>
	<g>
		<polygon class="st7" points="223.2,67.4 221.2,98.4 239.5,123.9 218.1,146 216.1,177 185.4,179.8 164,201.9 138.3,184.1 
			107.5,186.9 98.8,156.8 73.1,139 85.5,110.8 76.9,80.7 104.6,67.5 117.1,39.2 147.1,47.2 174.8,34 193.2,59.4 		"/>
		<g>
			<g>
				<path class="st6" d="M144.8,161.9c0-4.7,3.8-8.5,8.5-8.5c4.7,0,8.5,3.8,8.5,8.5v5.3h4.6c4.7,0,8.5,3.8,8.5,8.5s-3.8,8.5-8.5,8.5
					h-12.8c-4,0-7.3-2.7-8.3-6.4c-0.4-1-0.6-2-0.6-3.2V161.9z"/>
				<path class="st5" d="M166.4,185.4h-12.8c-4.4,0-8.2-2.9-9.3-7.2c-0.4-1.1-0.7-2.3-0.7-3.5v-12.8c0-5.3,4.3-9.6,9.6-9.6
					c5.3,0,9.6,4.3,9.6,9.6v4.3h3.5c5.3,0,9.6,4.3,9.6,9.6C176,181.1,171.7,185.4,166.4,185.4z M153.3,154.5c-4.1,0-7.4,3.3-7.4,7.4
					v12.8c0,1,0.2,1.9,0.5,2.8l0,0.1c0.8,3.3,3.8,5.6,7.2,5.6h12.8c4.1,0,7.4-3.3,7.4-7.4c0-4.1-3.3-7.4-7.4-7.4h-5.7v-6.4
					C160.8,157.8,157.4,154.5,153.3,154.5z"/>
			</g>
			<g>
				<line class="st6" x1="174.9" y1="177.7" x2="145.5" y2="177.7"/>
				<rect x="145.5" y="176.7" class="st5" width="29.4" height="2.1"/>
			</g>
			<g>
				<line class="st6" x1="161.8" y1="167.3" x2="157.4" y2="173.1"/>
				
					<rect x="155.9" y="169.1" transform="matrix(0.6034 -0.7974 0.7974 0.6034 -72.435 194.7762)" class="st5" width="7.3" height="2.1"/>
			</g>
			<g>
				<line class="st6" x1="166.1" y1="168" x2="161.6" y2="173.9"/>
				
					<rect x="160.2" y="169.9" transform="matrix(0.6034 -0.7974 0.7974 0.6034 -71.3127 198.4516)" class="st5" width="7.3" height="2.1"/>
			</g>
			<g>
				<line class="st6" x1="170.3" y1="168.7" x2="165.9" y2="174.6"/>
				
					<rect x="164.4" y="170.6" transform="matrix(0.6034 -0.7974 0.7974 0.6034 -70.1905 202.127)" class="st5" width="7.3" height="2.1"/>
			</g>
			<g>
				<circle class="st6" cx="152.4" cy="168.2" r="3.5"/>
				<path class="st5" d="M152.4,172.8c-2.5,0-4.6-2.1-4.6-4.6c0-2.5,2.1-4.6,4.6-4.6s4.6,2.1,4.6,4.6
					C157,170.7,155,172.8,152.4,172.8z M152.4,165.7c-1.4,0-2.5,1.1-2.5,2.5s1.1,2.5,2.5,2.5s2.5-1.1,2.5-2.5
					S153.8,165.7,152.4,165.7z"/>
			</g>
			<g>
				<g>
					<path class="st6" d="M112.2,161.9c0-4.7,3.8-8.5,8.5-8.5s8.5,3.8,8.5,8.5v5.3h4.6c4.7,0,8.5,3.8,8.5,8.5s-3.8,8.5-8.5,8.5H121
						c-4,0-7.3-2.7-8.3-6.4c-0.4-1-0.6-2-0.6-3.2V161.9z"/>
					<path class="st5" d="M133.8,185.4H121c-4.4,0-8.2-2.9-9.3-7.2c-0.4-1.1-0.7-2.3-0.7-3.5v-12.8c0-5.3,4.3-9.6,9.6-9.6
						c5.3,0,9.6,4.3,9.6,9.6v4.3h3.5c5.3,0,9.6,4.3,9.6,9.6C143.4,181.1,139.1,185.4,133.8,185.4z M120.7,154.5
						c-4.1,0-7.4,3.3-7.4,7.4v12.8c0,1,0.2,1.9,0.5,2.8l0,0.1c0.8,3.3,3.8,5.6,7.2,5.6h12.8c4.1,0,7.4-3.3,7.4-7.4
						c0-4.1-3.3-7.4-7.4-7.4h-5.7v-6.4C128.1,157.8,124.8,154.5,120.7,154.5z"/>
				</g>
				<g>
					<line class="st6" x1="142.3" y1="177.7" x2="112.9" y2="177.7"/>
					<rect x="112.9" y="176.7" class="st5" width="29.4" height="2.1"/>
				</g>
				<g>
					<line class="st6" x1="129.2" y1="167.3" x2="124.8" y2="173.1"/>
					
						<rect x="123.3" y="169.1" transform="matrix(0.6034 -0.7974 0.7974 0.6034 -85.3759 168.7549)" class="st5" width="7.3" height="2.1"/>
				</g>
				<g>
					<line class="st6" x1="133.5" y1="168" x2="129" y2="173.9"/>
					
						<rect x="127.6" y="169.9" transform="matrix(0.6034 -0.7974 0.7974 0.6034 -84.2536 172.4303)" class="st5" width="7.3" height="2.1"/>
				</g>
				<g>
					<line class="st6" x1="137.7" y1="168.7" x2="133.3" y2="174.6"/>
					
						<rect x="131.8" y="170.6" transform="matrix(0.6034 -0.7974 0.7974 0.6034 -83.1313 176.1057)" class="st5" width="7.3" height="2.1"/>
				</g>
				<g>
					<circle class="st6" cx="119.8" cy="168.2" r="3.5"/>
					<path class="st5" d="M119.8,172.8c-2.5,0-4.6-2.1-4.6-4.6c0-2.5,2.1-4.6,4.6-4.6s4.6,2.1,4.6,4.6
						C124.4,170.7,122.3,172.8,119.8,172.8z M119.8,165.7c-1.4,0-2.5,1.1-2.5,2.5s1.1,2.5,2.5,2.5c1.4,0,2.5-1.1,2.5-2.5
						S121.2,165.7,119.8,165.7z"/>
				</g>
			</g>
			<g>
				<ellipse class="st6" cx="146.7" cy="125.4" rx="38.1" ry="29.8"/>
				<path class="st5" d="M146.7,156.3c-19.3,0-29,0-34-3.9c-5.2-4-5.2-11.7-5.2-26.9s0-22.9,5.2-26.9c5.1-3.9,14.7-3.9,34-3.9
					c19.3,0,29,0,34,3.7c5.2,3.8,5.2,11.1,5.2,25.5l0,1.6l0,1.6c0,14.4,0,21.7-5.2,25.5C175.7,156.3,166,156.3,146.7,156.3z
					 M146.7,96.7c-18.8,0-28.2,0-32.7,3.5c-4.4,3.4-4.4,10.7-4.4,25.2s0,21.8,4.4,25.2c4.5,3.5,13.9,3.5,32.7,3.5
					c18.8,0,28.3,0,32.7-3.3c4.3-3.2,4.3-10.1,4.3-23.8l0-1.6l0-1.6c0-13.7,0-20.6-4.3-23.8C175,96.7,165.6,96.7,146.7,96.7z"/>
			</g>
			<g>
				<path class="st8" d="M146.9,144.6c-38.8,0-38.3-12.2-38.3-11.5c0,27.8,0.2,27.8,38.1,27.8c37.3,0,38.1,0,38.1-27.8
					C184.9,132.4,185.1,144.6,146.9,144.6z"/>
				<path class="st5" d="M146.8,162c-19.2,0-28.9,0-33.9-3.7c-5.3-3.8-5.3-11.4-5.3-25.2h0c0-0.5,0.2-0.7,0.3-0.8l0.5-0.5l1.3,0.5
					v0.7c0.1,0.5,2,10.5,37.2,10.5c35.1,0,36.9-10.2,36.9-10.6l0.1-1l2,0.1l0,1c0,14.4-0.2,21.5-5.5,25.2
					C175.3,162,165.8,162,146.8,162z M109.7,137.1c0,10.8,0.5,16.6,4.4,19.4c4.5,3.3,13.9,3.3,32.7,3.3c18.5,0,27.8,0,32.4-3.3
					c4-2.8,4.6-8.5,4.6-19.5c-0.9,0.9-2.1,1.9-3.7,2.9c-6.6,3.8-17.8,5.7-33.1,5.7c-13.4,0-23.6-1.4-30.5-4.3
					C113.1,140,111,138.5,109.7,137.1z"/>
			</g>
			<g>
				<line class="st6" x1="180.2" y1="113.4" x2="124.7" y2="113.4"/>
				<rect x="124.7" y="112.3" class="st5" width="55.5" height="2.1"/>
			</g>
			<g>
				<line class="st6" x1="118.2" y1="112.7" x2="118.2" y2="119.7"/>
				<rect x="117.1" y="112.7" class="st5" width="2.1" height="7.1"/>
			</g>
			<g>
				<path class="st6" d="M172.9,123.8c0,0-1.6-4.6-6.5-3.8c-4.9,0.8-5.5,3.8-5.5,3.8"/>
				<path class="st5" d="M171.9,124.1c-0.1-0.2-1.4-3.8-5.4-3.1c-4,0.7-4.6,2.9-4.6,3l-2.1-0.4c0-0.2,0.7-3.7,6.3-4.7
					c4.6-0.8,7.1,2.6,7.7,4.5L171.9,124.1z"/>
			</g>
			<g>
				<path class="st6" d="M150.6,124.1c0,0-1.6-4.6-6.5-3.8c-4.9,0.8-5.5,3.8-5.5,3.8"/>
				<path class="st5" d="M149.6,124.5c-0.1-0.2-1.4-3.8-5.4-3.1c-4,0.7-4.6,2.9-4.6,3l-2.1-0.4c0-0.2,0.7-3.7,6.3-4.7
					c4.6-0.8,7.1,2.6,7.7,4.5L149.6,124.5z"/>
			</g>
			<g>
				<path class="st6" d="M162.8,128.3c0,0,1.3,5.3-4.4,6.1c-6,0.9-6.4-5.1-6.4-5.1"/>
				<path class="st5" d="M157.1,135.6c-1.5,0-2.8-0.4-3.8-1.3c-2.2-1.8-2.5-4.8-2.5-4.9l2.1-0.2c0,0,0.2,2.2,1.7,3.4
					c0.9,0.7,2,0.9,3.5,0.7c1.4-0.2,2.5-0.8,3-1.6c0.9-1.4,0.5-3.2,0.5-3.2l2.1-0.5c0,0.1,0.6,2.7-0.8,4.9c-0.9,1.4-2.4,2.2-4.5,2.5
					C158,135.6,157.6,135.6,157.1,135.6z"/>
			</g>
			<g>
				<path class="st6" d="M100.5,128.1c4.3-1.9,9.3,0.1,11.2,4.4l5.1,11.7c1.9,4.3-0.1,9.3-4.4,11.2c-4.3,1.9-9.3-0.1-11.2-4.4
					l-5.1-11.7C94.2,135,96.2,130,100.5,128.1z"/>
				<path class="st5" d="M109.1,157.2c-1.2,0-2.4-0.2-3.5-0.7c-2.4-0.9-4.3-2.7-5.3-5.1l-5.1-11.7c-2.1-4.8,0.1-10.5,4.9-12.6
					c2.3-1,4.9-1.1,7.3-0.1c2.4,0.9,4.3,2.7,5.3,5.1l5.1,11.7c1,2.3,1.1,4.9,0.1,7.3c-0.9,2.4-2.7,4.3-5.1,5.3
					C111.7,156.9,110.4,157.2,109.1,157.2z M103.9,128.5c-1,0-2,0.2-3,0.6c-1.8,0.8-3.2,2.3-3.9,4.1c-0.7,1.9-0.7,3.9,0.1,5.7
					l5.1,11.7c1.6,3.8,6,5.5,9.8,3.8c1.8-0.8,3.2-2.3,3.9-4.1c0.7-1.9,0.7-3.9-0.1-5.7l-5.1-11.7
					C109.5,130.1,106.8,128.5,103.9,128.5z"/>
			</g>
			<g>
				<circle class="st5" cx="116.1" cy="97.8" r="13.5"/>
			</g>
			<g>
				<circle class="st5" cx="160.1" cy="82.2" r="13.5"/>
			</g>
			<g>
				<ellipse class="st5" cx="139.9" cy="86.4" rx="24.5" ry="18.4"/>
			</g>
			<g>
				<ellipse class="st5" cx="168.3" cy="86.4" rx="24.5" ry="18.4"/>
			</g>
			<g>
				<g>
					<ellipse class="st6" cx="189.3" cy="116.2" rx="11.4" ry="9.6"/>
					<path class="st5" d="M189.3,126.8c-6.9,0-12.5-4.8-12.5-10.7s5.6-10.7,12.5-10.7c6.9,0,12.5,4.8,12.5,10.7
						S196.1,126.8,189.3,126.8z M189.3,107.6c-5.7,0-10.3,3.8-10.3,8.6c0,4.7,4.6,8.6,10.3,8.6c5.7,0,10.3-3.8,10.3-8.6
						C199.6,111.4,195,107.6,189.3,107.6z"/>
				</g>
				<g>
					<path class="st6" d="M202.8,86.2c-2.5-1.3-5.7-0.1-7.1,2.6c0,0.1-0.1,0.1-0.1,0.2l0,0l-3.8,7.6v-8.5h0c0-0.1,0-0.1,0-0.2
						c0-3.1-2.3-5.5-5.2-5.5s-5.2,2.5-5.2,5.5c0,0.1,0,0.1,0,0.2h0v15.3h8.6l7.9,4l6.9-13.7l0,0c0-0.1,0.1-0.1,0.1-0.2
						C206.3,90.8,205.3,87.5,202.8,86.2z"/>
					<path class="st5" d="M198.4,108.8l-8.6-4.3h-9.4V87h0.1c0.4-3.2,3-5.7,6.2-5.7s5.8,2.5,6.2,5.7h0l0,0.7c0,0.1,0,0.1,0,0.2
						c0,0,0,0,0,0.1l0,0.1v4.1l2.3-4.5l0,0c0.8-1.2,1.9-2.1,3.2-2.6c1.6-0.6,3.3-0.5,4.8,0.2c1.5,0.8,2.6,2.1,3.1,3.7
						c0.4,1.4,0.3,2.8-0.1,4.1l0,0l-0.3,0.6c0,0.1-0.1,0.1-0.1,0.2c0,0,0,0,0,0.1l-0.1,0.1L198.4,108.8z M182.5,102.3h7.8l7.2,3.6
						l5.9-11.7l0,0l0.5-1c0,0,0-0.1,0.1-0.1l0,0c0.5-1.1,0.7-2.3,0.3-3.4c-0.3-1.1-1-2-2-2.4c-1-0.5-2.1-0.5-3.1-0.1
						c-1.1,0.4-2,1.2-2.5,2.3l0,0c0,0,0,0.1,0,0.1l-0.5,1l0,0l-5.3,10.6v-12h0l0-1.3c0-2.5-1.8-4.5-4.1-4.5s-4.1,2-4.1,4.5l0,0.2
						l0,1.1h0V102.3z"/>
				</g>
				<g>
					<path class="st6" d="M190.4,109.9c-2.3,1.1-3.3,4.1-2.1,6.6c1.2,2.6,4.1,3.8,6.4,2.7c0,0,0.1-0.1,0.1-0.1l0,0l7.8-3.2
						c4.4-3.7,0.9-10.5-4.3-9.4l-7.8,3.2l0,0C190.5,109.9,190.5,109.9,190.4,109.9z"/>
					<path class="st5" d="M192.9,120.8c-2.3,0-4.5-1.4-5.6-3.8c-1.3-2.8-0.5-6,1.8-7.6l0-0.1l1-0.4l7.9-3.3l0.1,0
						c2.8-0.6,5.6,0.7,6.9,3.4c1.4,2.7,0.7,5.8-1.7,7.9l-0.1,0.1l-8,3.3c0,0,0,0-0.1,0c-0.2,0.1-0.3,0.1-0.5,0.2l-0.4,0.1l0,0
						C193.9,120.7,193.4,120.8,192.9,120.8z M190.4,109.9l0.4,1c-1.8,0.8-2.5,3.2-1.6,5.2c0.9,2.1,3.2,3.1,5,2.2l0.1-0.1l1-0.5
						l0,0.1l6.7-2.8c1.8-1.7,1.7-3.8,1-5.2c-0.7-1.3-2.2-2.7-4.5-2.3l-6.7,2.8l0,0l-1.1,0.5L190.4,109.9L190.4,109.9z"/>
				</g>
				<g>
					<path class="st6" d="M187.3,103.2c-2.8,1.3-4.1,4.4-2.9,7c1.2,2.6,4.4,3.7,7.2,2.4c0.1,0,0.1-0.1,0.2-0.1l0,0l9.3-3.9
						c5.3-4.2,1.8-10.9-4.3-9.4l-9.3,3.9l0,0C187.4,103.1,187.3,103.1,187.3,103.2z"/>
					<path class="st5" d="M189.2,114.2c-2.4,0-4.7-1.3-5.7-3.5c-0.7-1.5-0.7-3.2-0.1-4.8c0.5-1.3,1.5-2.4,2.7-3.2l0-0.1l1-0.4
						l9.4-3.9c3.8-1,6.5,0.9,7.6,3.1c1.4,2.8,0.4,6-2.4,8.2l-0.1,0.1l-9.4,4c0,0-0.1,0-0.1,0c-0.2,0.1-0.4,0.2-0.6,0.2l-0.3,0.1l0,0
						C190.5,114,189.8,114.2,189.2,114.2z M187.7,104.1c-1.1,0.5-1.9,1.4-2.4,2.4c-0.4,1-0.4,2.2,0,3.1c0.9,2.1,3.5,2.9,5.8,1.9
						l0.1-0.1l1-0.5l0,0.1l8.2-3.4c2.3-1.9,2.4-4,1.7-5.5c-0.7-1.3-2.4-2.7-5.1-2l-9.2,3.9C187.8,104.1,187.8,104.1,187.7,104.1
						L187.7,104.1z"/>
				</g>
				<g>
					<path class="st6" d="M181.9,103.5c-2.4-0.9-5.2,0.6-6.2,3.3s0.2,5.6,2.6,6.4c0.1,0,0.1,0,0.2,0l0,0l7.8,3.2
						c5.7,0.4,8-6.9,3.5-9.7l-7.8-3.2l0,0C182,103.5,182,103.5,181.9,103.5z"/>
					<path class="st5" d="M186.8,117.5c-0.2,0-0.4,0-0.5,0l-0.2,0l-8-3.3c0,0-0.1,0-0.1,0c-0.2-0.1-0.3-0.1-0.5-0.2l-0.3-0.1l0,0
						c-2.4-1.4-3.5-4.5-2.5-7.5c0.6-1.5,1.6-2.8,3-3.5c1.1-0.6,2.4-0.8,3.6-0.6l0-0.1l1,0.4l7.9,3.2l0.1,0c2.4,1.5,3.5,4.5,2.5,7.2
						C192.1,115.8,189.7,117.5,186.8,117.5z M186.6,115.4c2.5,0.1,3.9-1.5,4.4-3c0.5-1.4,0.3-3.5-1.6-4.7l-7.7-3.2c0,0-0.1,0-0.1,0
						l0,0c-0.9-0.3-1.9-0.2-2.8,0.2c-0.9,0.5-1.6,1.3-2,2.4c-0.8,2.1,0.1,4.4,2,5.1l0.1,0l1,0.3l0,0.1L186.6,115.4z"/>
				</g>
			</g>
		</g>
	</g>
	<g>
		<g>
			<polygon class="st8" points="827.1,410.6 69,463.4 69,396.7 827.1,343.8 			"/>
		</g>
		<text transform="matrix(1 -6.972903e-02 0 1 114.3905 443.6202)" class="st6 st50 st51 st52">INCREÍBLE · FANTÁSTICA · APOTEÓSICA</text>
	</g>
	<g>
		<polygon class="st5" points="64,158 832.1,104.4 832.1,331.7 64,385.2 		"/>
		<path class="st6" d="M827.1,109.8V327L69,379.8V162.6L827.1,109.8 M837.1,99.1l-10.7,0.7L68.3,152.7l-9.3,0.6v9.3v217.2v10.7
			l10.7-0.7L827.8,337l9.3-0.6V327V109.8V99.1L837.1,99.1z"/>
	</g>
	<g>
		<text transform="matrix(1 -6.972903e-02 0 1 132.7219 322.6628)" class="st10 st50 st53">REDES SOCIALES</text>
		<text transform="matrix(1 -6.972903e-02 0 1 137.1993 311.6562)" class="st5 st50 st53">REDES SOCIALES</text>
		<text transform="matrix(1 -6.972903e-02 0 1 146.1191 297.4112)" class="st6 st50 st53">REDES SOCIALES</text>
	</g>
</g>
<g id="web">
	<rect x="89.9" y="515.9" class="st49" width="323.6" height="368.3"/>
	<text transform="matrix(1 0 0 1 89.9229 538.9644)"><tspan x="0" y="0" class="st50 st142">Vincula la web a redes social</tspan><tspan x="307.7" y="0" class="st50 st142">-</tspan><tspan x="0" y="33.6" class="st50 st142">es que realmente utilices.</tspan><tspan x="0" y="67.2" class="st143 st142">Menos es más. Focalizate en </tspan><tspan x="0" y="100.8" class="st143 st142">lo que sabes hacer, en las </tspan><tspan x="0" y="134.4" class="st143 st142">redes que mejor sabes utilizar </tspan><tspan x="0" y="168" class="st143 st142">y sácales partido. No las </tspan><tspan x="0" y="201.6" class="st143 st142">pongas todas.</tspan></text>
	<g>
		<g>
			<path class="st5" d="M224,499.4c-6.7,0-12-5.3-12-12v-15.8c0-8.9,4-17.2,11.1-22.8l2.8-2.2c2.4-1.8,5.2-3.5,8.6-3.5
				c6.7,0,12.4,5.6,12.4,12.2c0,3.9-1.7,7.3-4.8,9.7l-2.5,1.9c-0.1,0.1-0.3,0.2-0.4,0.4l0.9,0.5c4.5,2.4,7.3,5.1,7.3,11.3v8.5
				c0,6.7-5.3,12-12,12H224z M186.5,499.4c-6.7,0-12-5.3-12-12v-15.8c0-8.9,4-17.2,11.1-22.8l2.8-2.2c2.4-1.8,5.2-3.5,8.6-3.5
				c6.7,0,12.4,5.6,12.4,12.2c0,3.9-1.7,7.3-4.8,9.7l-2.5,1.9c-0.1,0.1-0.3,0.2-0.4,0.4l0.9,0.5c4.5,2.4,7.3,5.1,7.3,11.3v8.5
				c0,6.7-5.3,12-12,12H186.5z"/>
			<path class="st6" d="M234.4,448c3.8,0,7.4,3.2,7.4,7.2c0,1.8-0.5,4-2.9,5.8l-2.5,2c-2,1.6-3.2,2.7-3.2,4.9c0,1.8,1.3,2.7,3.4,3.8
				l1.1,0.5c3.4,1.8,4.7,3.1,4.7,6.8v8.5c0,4-3.1,7-7,7H224c-4,0-7-3.1-7-7v-15.8c0-8.1,4-14.8,9.2-18.9l2.7-2.2
				C231,448.9,232.6,448,234.4,448 M197,448c3.8,0,7.4,3.2,7.4,7.2c0,1.8-0.5,4-2.9,5.8l-2.5,2c-2,1.6-3.2,2.7-3.2,4.9
				c0,1.8,1.3,2.7,3.4,3.8l1.1,0.5c3.4,1.8,4.7,3.1,4.7,6.8v8.5c0,4-3.1,7-7,7h-11.3c-4,0-7-3.1-7-7v-15.8c0-8.1,4-14.8,9.2-18.9
				l2.7-2.2C193.6,448.9,195.2,448,197,448 M234.4,438c-4.9,0-8.6,2.3-11.6,4.5l-0.1,0.1l-0.1,0.1l-2.7,2.2
				c-2.3,1.8-4.3,3.9-6.1,6.2c-1.9-7.4-8.9-13.1-16.8-13.1c-4.9,0-8.6,2.3-11.6,4.5l-0.1,0.1l-0.1,0.1l-2.7,2.2
				c-8.2,6.5-12.9,16.2-12.9,26.7v15.8c0,9.5,7.5,17,17,17h11.3c5.3,0,9.9-2.3,13-6c3.1,3.7,7.8,6,13,6h11.3c9.5,0,17-7.5,17-17
				v-8.5c0-5.9-2.1-9.7-4.9-12.2c2.9-3.1,4.4-7.1,4.4-11.5C251.8,445.9,243.8,438,234.4,438L234.4,438z"/>
		</g>
	</g>
	<g>
		<text transform="matrix(0.9762 -7.598437e-02 2.250000e-03 1 266.2312 135.8202)" class="st5 st50 st144">webconsejos</text>
		<g>
			<g>
				<path class="st10" d="M670.9,90.5c0.9,2.4,2.4,3.5,4.8,3.3c1.4-0.1,1.8-0.3,4.9-2.1c0.4-0.2,0.9-0.4,1.3-0.4
					c1.2-0.1,2.4,1,2.4,2.3c0,2.5-4.4,5.2-9,5.6c-6.4,0.5-10.9-3.6-11-9.9c0-6.6,4.4-11.7,10.3-12.2c5.6-0.4,10,3.9,10,9.9
					c0,1.7-0.8,2.5-2.6,2.6L670.9,90.5z M678.8,85.7c-0.3-1.2-0.5-1.6-0.9-2.2c-0.7-1-1.8-1.5-3.1-1.4c-2,0.2-3.3,1.4-4.2,4.2
					L678.8,85.7z"/>
				<path class="st10" d="M693.4,77.4c1.8-1.5,3.1-2,4.9-2.2c5.2-0.4,9.3,4.1,9.4,10.3c0,6.3-4,11.5-9.3,11.9c-2.3,0.2-3.7-0.4-5-2
					c-0.7,1.6-1.5,2.4-2.8,2.5c-1.8,0.1-3.1-1.1-3.1-3l-0.1-23.7c0-1.5,0-1.9,0.4-2.6c0.4-1,1.5-1.7,2.6-1.8
					c1.1-0.1,2.1,0.5,2.6,1.4c0.4,0.7,0.4,1,0.4,2.5L693.4,77.4z M693.4,86.6c0,3.1,1.8,5.2,4.2,5.1c2.3-0.2,4.1-2.6,4.1-5.7
					c0-3-1.8-5.2-4.1-5C695.2,81.2,693.4,83.6,693.4,86.6z"/>
				<path class="st10" d="M710.3,78c0-2.2,1.2-3.7,3.1-3.9c1.4-0.1,2.2,0.5,2.8,1.9c1.8-1.8,3.2-2.5,5.5-2.7
					c2.1-0.2,3.8,0.3,5.2,1.4c1.6,1.3,2.2,2.8,2.2,5.8l0,10.1c0,1.5,0,1.9-0.4,2.6c-0.4,1-1.5,1.7-2.6,1.8c-1.1,0.1-2.2-0.5-2.6-1.4
					c-0.4-0.7-0.4-1-0.4-2.5l0-8.7c0-2.4-1.3-3.8-3.4-3.6c-1.9,0.1-3.4,1.9-3.4,3.9l0,8.9c0,1.5,0,1.9-0.4,2.6
					c-0.4,1-1.5,1.7-2.6,1.8c-1.1,0.1-2.2-0.5-2.6-1.4c-0.4-0.7-0.4-1-0.4-2.5L710.3,78z"/>
				<path class="st10" d="M733.2,76.8c0-1.5,0-1.9,0.4-2.6c0.4-1,1.5-1.7,2.6-1.8c1.1-0.1,2.1,0.5,2.6,1.4c0.4,0.7,0.4,1,0.4,2.5
					l0,13.7c0,1.5,0,1.9-0.4,2.6c-0.4,1-1.5,1.7-2.6,1.8c-1.1,0.1-2.2-0.5-2.6-1.4c-0.4-0.7-0.4-1-0.4-2.5L733.2,76.8z M742.7,66.1
					c0-1.4-1.2-2.5-2.8-2.6l0,0l-0.1,0c-0.2,0-0.4,0-0.5,0c-0.2,0-0.4,0-0.6,0.1l-4.8,0.4c-0.2,0-0.4,0-0.5,0
					c-2,0.2-3.6,1.6-3.6,3.2c0,1.6,1.6,2.8,3.5,2.7c0,0,0.1,0,0.1,0l6.5-0.6C741.5,68.8,742.7,67.5,742.7,66.1z"/>
				<path class="st10" d="M758,74.8c0,1.4-1.1,2.8-2.3,2.9c-0.7,0.1-0.7,0.1-2.5-0.6c-0.9-0.4-1.7-0.5-2.3-0.5
					c-1,0.1-1.6,0.5-1.6,1.2c0,0.8,0.3,1,3.2,1.9c2.7,0.9,3.5,1.3,4.6,2.3c0.9,1,1.5,2.2,1.5,3.8c0,4.1-3.2,7.1-7.9,7.5
					c-4.1,0.3-7.7-1.5-7.7-3.9c0-1.4,1.2-2.9,2.5-3c0.7-0.1,0.7-0.1,3.1,0.9c1,0.4,1.8,0.5,2.4,0.5c1-0.1,1.8-0.8,1.8-1.6
					c0-0.7-0.5-1.1-2.3-1.6c-3-0.9-3.8-1.3-4.8-1.9c-1.4-0.9-2.1-2.3-2.1-4.3c0-3.8,3.3-6.9,7.7-7.3C754.8,70.8,758,72.6,758,74.8z"
					/>
				<path class="st10" d="M768.5,64.3c0,2-1.5,3.7-3.5,3.9c-2,0.2-3.5-1.3-3.5-3.3c0-2,1.6-3.7,3.6-3.8
					C766.9,60.8,768.5,62.3,768.5,64.3z M762,74.5c0-1.5,0-1.9,0.4-2.6c0.4-1,1.5-1.7,2.6-1.8c1.1-0.1,2.1,0.5,2.6,1.4
					c0.4,0.7,0.4,1,0.4,2.5l0,13.7c0,1.5,0,1.9-0.4,2.6c-0.4,1-1.5,1.7-2.6,1.8c-1.1,0.1-2.2-0.5-2.6-1.4c-0.4-0.7-0.4-1-0.4-2.5
					L762,74.5z"/>
				<path class="st10" d="M772.2,73.2c0-2.1,1.2-3.7,3-3.8c1.2-0.1,1.8,0.3,2.9,1.8c1.7-1.7,3.1-2.4,5.3-2.6c1.5-0.1,3,0.1,4.1,0.7
					c0.6,0.3,1,0.6,1.7,1.5c2.4-2.2,4-3,6.3-3.2c4.2-0.3,7.3,2.5,7.3,6.6l0,10.8c0,1.5,0,1.9-0.4,2.6c-0.4,1-1.5,1.7-2.6,1.8
					c-1.1,0.1-2.2-0.5-2.6-1.4c-0.4-0.7-0.4-1-0.4-2.5l0-9.4c0-1.9-1.2-3.1-3.1-3s-3.1,1.5-3.1,3.4l0,9.4c0,1.5,0,1.9-0.4,2.6
					c-0.4,1-1.5,1.7-2.6,1.8c-1.1,0.1-2.2-0.5-2.6-1.4c-0.4-0.7-0.4-1-0.4-2.5l0-8.8c0-2.4-1.2-3.7-3.1-3.5
					c-1.8,0.1-3.1,1.6-3.1,3.4l0,9.4c0,1.5,0,1.9-0.4,2.6c-0.4,1-1.5,1.7-2.6,1.8c-1.1,0.1-2.2-0.5-2.6-1.4c-0.4-0.7-0.4-1-0.4-2.5
					L772.2,73.2z"/>
				<path class="st10" d="M826,83.7c0,2.2-1.2,3.8-3,3.9c-1.4,0.1-2.4-0.6-3-2.2c-1.5,2.1-2.7,2.8-4.9,2.9c-2.2,0.2-4.2-0.5-5.9-1.9
					c-2.4-2-3.6-4.8-3.6-8.5c0-3.4,1-6,3.1-8.4c1.8-2,3.9-3.1,6.3-3.3c2.1-0.2,3.4,0.4,5.1,2c0.7-1.7,1.6-2.4,3-2.5
					c1.7-0.1,3,1.2,3,2.9L826,83.7z M811.5,77.4c0,3.2,1.6,5.3,4.2,5.1c2.5-0.2,4.1-2.5,4.1-5.7c0-3.2-1.7-5.2-4.2-5
					C813.1,72,811.5,74.3,811.5,77.4z"/>
			</g>
			<g>
				<path class="st5" d="M661.4,79.6c-0.4-0.7-1.1-1.2-1.9-1.3c-0.2,0-0.5-0.1-0.7,0c-0.2,0-0.5,0.1-0.7,0.1
					c-0.8,0.3-1.6,0.9-1.9,1.6c-0.3,0.5-0.4,0.9-0.4,1.5c0,0.3,0,10.8,0,10.8c0,1-0.3,1.5-0.6,1.9c-0.4,0.4-0.9,0.6-1.4,0.7
					c-0.6,0-1.1-0.2-1.5-0.6c-0.3-0.4-0.6-0.8-0.6-1.7l0-10.1l0,0c0-1.2-0.1-1.6-0.4-2.2c-0.4-0.7-1.1-1.2-1.9-1.3
					c-0.2,0-0.5-0.1-0.7,0c-0.2,0-0.5,0.1-0.7,0.1c-0.8,0.3-1.6,0.9-1.9,1.6c-0.3,0.5-0.4,0.9-0.4,1.5c0,0.2,0,0.8,0,0.8l0,10
					c0,1-0.3,1.5-0.6,1.9c-0.4,0.4-0.9,0.6-1.4,0.7c-0.6,0-1.1-0.2-1.5-0.6c-0.3-0.4-0.6-0.8-0.6-1.7l-0.1-9.7c0-1.5,0-1.8-0.4-2.5
					c-0.4-0.7-1.1-1.2-1.9-1.3c-0.2,0-0.5-0.1-0.7,0c-0.2,0-0.5,0.1-0.7,0.1c-0.8,0.3-1.6,0.9-1.9,1.6c-0.3,0.5-0.4,0.9-0.4,1.5
					c0,0.3,0,11,0,11c0,3,1,4.8,2.7,6c1.5,1.1,3.4,1.6,5.2,1.4c1.6-0.1,2.9-0.5,4-1.3l0.5-0.4c0.3-0.2,0.6-0.4,0.8-0.4
					c0.3,0,0.5,0.1,0.8,0.2l0.6,0.3c1.1,0.6,2.5,0.8,4,0.6c1.9-0.1,3.6-0.9,5.1-2.2c1.7-1.5,2.7-3.4,2.7-6.4l0-10
					C661.9,80.6,661.8,80.3,661.4,79.6z"/>
				<g>
					<g>
						<path class="st9" d="M648.6,72.1c-6,0.6-11,0.1-11-1c0-0.4,0.7-0.7,1.7-1.2c4.4-2,6.7-2.6,10.8-2.6c2.9,0,6.2-0.2,8.5,1.1
							c0.6,0.2,0.9,0.4,0.9,0.7C659.6,70.2,654.7,71.6,648.6,72.1z M665,68.7c-0.1-2.8-5.1-4.3-16.4-3.3c-10.7,1-16.3,3.5-16.3,6.3
							c0.1,4.3,7.4,5.9,16.5,5C657.7,76,665,73.1,665,68.7z"/>
					</g>
				</g>
			</g>
		</g>
	</g>
	<g>
		<path class="st5" d="M590.8,550.1c-0.2,32.3-26.4,58.3-58.6,58.2c-32.3-0.2-58.1-26.4-57.9-58.9c0.2-31.9,26.6-57.8,58.5-57.6
			C564.9,492,591,518.2,590.8,550.1z M552.1,524.9c0-3.9,0-7.5,0-11.1c0-1.2-0.6-1.3-1.6-1.4c-3.4-0.1-6.8-0.2-10.2-0.4
			c-9.1-0.6-15.7,4-18,12.8c-0.6,2.4-0.8,4.9-0.9,7.4c-0.1,3.4,0,6.8,0,10.4c-4.6,0-8.9,0-13.3,0c0,5.1,0,9.9,0,15
			c4.5,0,8.8,0,13.3,0c0,12.3,0,24.4,0,36.4c5.4,0,10.6,0,16,0c0-12.2,0-24.3,0-36.5c2.5,0,4.7,0,7,0c4.7,0,4.7,0,5.4-4.5
			c0.6-3.4,1.1-6.8,1.6-10.5c-4.8,0-9.4,0-14.1,0c0-3.5,0-6.7,0-9.9c0-0.5,0-1,0-1.5c0.2-2,1-3.7,2.8-4.5c1.7-0.8,3.6-1.3,5.5-1.5
			C547.8,524.7,549.8,524.9,552.1,524.9z"/>
	</g>
	<g>
		<path class="st5" d="M710.3,620.5c0,32-26.2,58.1-58.2,58.1c-32.2,0-58.3-26.1-58.3-58.2c0-32.1,26.1-58.3,58.2-58.3
			C684.4,562.1,710.3,588.1,710.3,620.5z M684,598.1c-0.1,0-0.2,0-0.2,0c0-0.6,0-1.2,0-1.7c-0.2-2.4-1.3-3.4-3.8-3.2
			c-1,0.1-2.1,0.2-3,0.5c-3.1,1-6.3,1.9-9.3,3.2c-17,7.4-33.9,14.8-50.9,22.2c-0.5,0.2-1.1,0.4-1.5,0.8c-0.8,0.8-1.5,1.6-2.2,2.5
			c0.8,0.7,1.5,1.7,2.5,2.1c3.1,1.2,6.2,2.3,9.4,3.4c4.3,1.4,8.2,0.8,12-1.8c8-5.6,16.2-11,24.3-16.5c1.3-0.9,2.8-1.6,4.2-2.2
			c0.5-0.2,1.2,0.1,1.8,0.2c-0.1,0.5,0,1.2-0.3,1.6c-0.8,1.1-1.7,2.3-2.7,3.2c-6,5.7-12,11.3-18,17.1c-3.1,2.9-2.9,4.8,0.5,7.3
			c6.1,4.3,12.2,8.7,18.4,12.9c1.2,0.9,2.7,1.5,4.1,2c2.9,0.8,5.1-0.3,6.2-3c0.6-1.5,0.9-3.1,1.2-4.6c1.5-9.2,3-18.3,4.4-27.5
			C682.3,610.3,683.1,604.2,684,598.1z"/>
	</g>
	<g>
		<path class="st5" d="M677,680c-0.1-32,26.2-58.3,58.3-58.3c32,0,58.1,26,58.2,57.9c0.1,32.4-25.8,58.5-58,58.6
			C703.3,738.3,677.1,712.3,677,680z M731.4,671.7c-2.5,0.1-5.1,0-7.4,0.4c-9.7,1.9-16.2,7.7-18.8,17.1c-2.6,9.3-0.1,17.7,7.2,24
			c7.6,6.6,16.5,7.9,25.7,3.7c9.3-4.2,13.9-11.8,14-22c0.1-7.8,0-15.6,0-23.4c0-0.6,0.1-1.3,0.1-2.1c8,4.8,13,6.3,17.5,5.2
			c0-4.2,0-8.3,0-12.6c-5.1,0.4-9.2-1.5-12.5-5.1c-3.3-3.5-5.1-7.8-5.2-12.7c-4.4,0-8.6,0-12.9,0c0,5.1,0,10.1,0,15.1
			c0,12,0.1,24.1,0,36.1c0,6.5-5.4,11.3-11.9,10.8c-6-0.5-10.5-5.9-9.8-12c0.7-6.1,6.4-10.4,12.7-9.4c0.4,0.1,0.8,0.1,1.4,0.1
			C731.4,680.7,731.4,676.4,731.4,671.7z"/>
	</g>
	<g>
		<path class="st5" d="M666.8,545c0.4-32.6,26.7-58.5,59-58.1c32.3,0.4,57.8,26.7,57.5,59.1c-0.4,31.9-26.9,57.8-58.7,57.3
			C692.4,602.9,666.4,576.6,666.8,545z M713.6,533.4c-0.1,0.5-0.1,0.8-0.1,1.1c0,13.8,0,27.7,0,41.5c0,1.2,0.5,1.5,1.6,1.5
			c3.1,0,6.2-0.1,9.2,0c1.8,0.1,2.4-0.5,2.4-2.3c-0.1-7.2-0.1-14.4,0-21.5c0.1-5,4.1-8.8,9-8.9c4.8-0.1,8.3,3.3,8.7,8.4
			c0,0.7,0,1.4,0,2.1c0,6.8,0,13.6,0,20.4c0,0.6,0.5,1.7,0.8,1.7c4,0.1,8,0.1,12.1,0.1c0.1-0.5,0.2-0.7,0.2-1
			c0-9.9,0.1-19.9-0.1-29.8c-0.1-5.5-3.1-9.6-7.9-12.2c-6.9-3.8-16.7-2.1-22.1,3.6c-0.1,0.2-0.3,0.3-0.9,0.7c0-2.1,0-3.8,0-5.5
			C722.1,533.4,718,533.4,713.6,533.4z M692.7,533.5c0,1,0,1.7,0,2.5c0,12.4,0,24.7,0,37.1c0,4.5,0,4.5,4.5,4.5c2.9,0,5.7,0,8.6,0
			c0-14.9,0-29.5,0-44.1C701.4,533.5,697.2,533.5,692.7,533.5z M707.1,519.1c0-4.5-3.5-8.1-8-8.1c-4.3,0-7.8,3.4-7.8,7.8
			c-0.1,4.6,3.4,8.2,7.8,8.2C703.6,527,707.1,523.5,707.1,519.1z"/>
	</g>
	<g>
		<path class="st5" d="M591.3,738.4c0,32.1-26.1,58.2-58.3,58.2c-32.1,0-58.1-26-58.2-58.1c-0.1-32.3,26-58.5,58.2-58.4
			C565.2,680.2,591.3,706.3,591.3,738.4z M498.8,762.5c0.1,0.3,0.1,0.4,0.1,0.5c0.3,0.2,0.7,0.4,1,0.6c6.1,3.1,12.6,4.8,19.5,5.1
			c23,0.8,44.8-16.7,43.9-43.1c0-0.7,0.5-1.7,1.1-2.1c2.4-1.6,4.2-3.6,5.6-6.3c-2.5,0.6-4.6,1.2-7.3,1.9c1.5-1.6,2.6-2.6,3.5-3.8
			c0.9-1.2,1.6-2.6,2.6-4.4c-2.8,1.2-5,2.1-7.2,3.2c-1.3,0.6-2.2,0.4-3.4-0.5c-9.1-7.5-22.9-2.5-24.8,8.9c-0.3,1.7,0,3.5,0,5.5
			c-12.9-0.1-22.4-6.6-30.6-15.3c-3.9,6.6-2.7,11.7,4.2,20.1c-2.1-0.5-4.1-1.1-6.3-1.6c0.7,6.9,4.1,11.7,10.9,14.1
			c0,0.2-0.1,0.3-0.1,0.5c-1.9,0.1-3.8,0.2-5.8,0.3c2.5,5.8,6.7,9.4,13.4,10.2C512.9,761.6,505.9,762.2,498.8,762.5z"/>
	</g>
	<g>
		<path class="st5" d="M613.5,647.4c-0.1,32.2-26.4,58.4-58.5,58.2c-32.3-0.2-58.1-26.3-57.9-58.7c0.1-32,26.3-57.9,58.5-57.8
			C587.5,589.2,613.6,615.5,613.5,647.4z M555.2,621.5c-8,0.5-16.2,0.8-24.3,1.5c-7.3,0.6-10.3,3.6-11,10.9
			c-0.9,9.1-0.9,18.2,0,27.2c0.7,6.7,3.5,9.5,10.2,10.4c11,1.4,22.1,1.4,33.2,1.1c5.8-0.2,11.6-0.6,17.4-1.2
			c5.9-0.7,8.7-3.2,9.3-9.2c0.7-6.2,0.9-12.4,0.9-18.6c0-4-0.5-8.1-1-12c-0.6-4.7-3.5-7.4-8.1-8.3c-0.9-0.2-1.8-0.4-2.7-0.4
			C571.3,622.4,563.3,622,555.2,621.5z"/>
		<path class="st5" d="M548.2,636.6c6.2,3.6,12.2,7,18.5,10.6c-6.3,3.7-12.3,7.1-18.5,10.8C548.2,650.8,548.2,643.9,548.2,636.6z"/>
	</g>
	<g>
		<path class="st5" d="M699.4,710.7c0.1,32-25.9,58.2-58.1,58.4c-32,0.2-58.3-25.9-58.4-58c-0.1-32.2,25.8-58.3,57.9-58.5
			C673,652.5,699.2,678.5,699.4,710.7z M605.9,747.7c0.8-0.1,1.4-0.1,1.9-0.2c5.4-0.9,10.7-1.9,16.1-2.7c0.9-0.1,1.9-0.1,2.8,0.3
			c6.6,2.7,13.5,3.4,20.6,2.3c18.7-3,32.3-20.5,30.6-39.5c-1.7-19.3-18-34.2-37.1-33.8c-27.3,0.5-44.7,28.4-33.1,53
			c0.4,0.8,0.6,1.8,0.5,2.7c-0.3,3.2-0.9,6.5-1.3,9.7C606.6,742.1,606.3,744.8,605.9,747.7z"/>
		<path class="st5" d="M613.5,740.1c0.5-3.5,0.8-6.6,1.3-9.7c0.3-1.9,0-3.5-0.9-5.3c-9.7-18.6,1.2-40.8,21.7-44.6
			c17.2-3.2,33.6,8.9,36,26.7c2.3,16.9-10.8,32.9-28,34.3c-5.6,0.4-10.9-0.6-16.1-2.9c-0.9-0.4-2-0.5-2.9-0.4
			C621.1,738.8,617.5,739.4,613.5,740.1z M623,703.3c0.4,1.2,0.9,3.4,1.8,5.4c4.8,10.9,13.1,17.8,24.7,20.5c2.5,0.6,4.5-0.2,6.2-2.1
			c0.8-0.9,1.5-1.8,2.2-2.7c1.1-1.4,1-2.7-0.4-3.8c-1.4-1.1-2.7-2.2-4.2-3c-0.8-0.4-2.2-0.3-2.9,0.1c-1.2,0.7-2.1,2-3.3,2.9
			c-0.6,0.4-1.7,0.8-2.2,0.5c-5.7-3.1-10.4-7.2-13.1-13.3c-0.4-1-0.4-1.7,0.5-2.5c1.4-1.2,2.2-2.7,1.6-4.6c-0.6-2-1.4-4-2.3-5.9
			c-0.8-1.7-2-2-3.6-1.1C625,695.8,623.1,698.5,623,703.3z"/>
	</g>
	<g>
		<path class="st5" d="M573.5,522.3c0.8-32,27.6-57.7,59.3-56.8c32.9,0.9,58,27.4,57.1,60.3c-0.8,31.6-27.7,57-59.4,56.2
			C598.1,581.2,572.6,554.5,573.5,522.3z M631.7,560.9c5.6,0,11.1,0,16.7,0c11.7-0.1,20.4-8.8,20.5-20.4c0.1-11.2,0.1-22.4,0-33.6
			c-0.1-11.5-9-20.2-20.5-20.3c-11.2,0-22.4,0-33.6,0c-11.5,0-20.4,8.9-20.4,20.3c0,11,0,22,0,33.1c0,12.3,8.6,20.9,20.9,21
			C620.8,560.9,626.3,560.9,631.7,560.9z"/>
		<path class="st5" d="M601,523.5c0-5.3,0-10.6,0-16c0.1-8.6,5.9-14.4,14.5-14.5c10.8,0,21.7,0,32.5,0c8.5,0,14.3,5.9,14.4,14.4
			c0,10.8,0,21.7,0,32.5c0,8.5-5.9,14.3-14.4,14.4c-10.8,0-21.7,0-32.5,0c-8.6,0-14.5-5.8-14.5-14.5C600.9,534.4,601,529,601,523.5z
			 M631.6,544c11.2,0.1,20.4-9,20.5-20.1c0.2-10.9-9.2-20.4-20.3-20.5c-11.2-0.1-20.4,9-20.4,20.2C611.4,534.9,620.4,544,631.6,544z
			 M651.6,508.2c2.3,0,4.3-1.9,4.4-4.2c0.1-2.3-2-4.4-4.4-4.4c-2.4,0-4.3,1.8-4.3,4.2C647.3,506.2,649.2,508.2,651.6,508.2z"/>
		<path class="st5" d="M645,523.7c0.1,7.4-5.9,13.4-13.2,13.5c-7.3,0.1-13.4-5.9-13.4-13.3c0-7.3,6-13.4,13.3-13.4
			C638.9,510.5,644.9,516.4,645,523.7z"/>
	</g>
</g>
<g id="halftone">
	
		<image style="overflow:visible;opacity:0.24;" width="872" height="872" xlink:href="C59A090B10C154F6.png"  transform="matrix(1.2385 0 0 1.2385 -72.5 -75)">
	</image>
</g>
</svg>
