<?xml version="1.0" encoding="utf-8"?>
<!-- Generator: Adobe Illustrator 27.3.1, SVG Export Plug-In . SVG Version: 6.00 Build 0)  -->
<svg version="1.1" xmlns="http://www.w3.org/2000/svg" xmlns:xlink="http://www.w3.org/1999/xlink" x="0px" y="0px"
	 viewBox="0 0 900 900" style="enable-background:new 0 0 900 900;" xml:space="preserve">
<style type="text/css">
	.st0{display:none;}
	.st1{display:inline;opacity:0.28;}
	.st2{fill:none;stroke:#000000;stroke-width:0.75;stroke-miterlimit:10;}
	.st3{fill:none;stroke:#000000;stroke-width:4;stroke-linecap:round;stroke-linejoin:round;stroke-miterlimit:10;}
	.st4{fill:#FCCF72;stroke:#1A2276;stroke-width:6;stroke-miterlimit:10;}
	.st5{fill:#1A2276;}
	.st6{fill:#EBEAD8;}
	.st7{fill:#ED8376;stroke:#E90302;stroke-width:17;stroke-linecap:round;stroke-linejoin:round;stroke-miterlimit:10;}
	.st8{fill:#E90302;}
	.st9{fill:#FCCF72;}
	.st10{fill:#8288A8;}
	.st11{fill:#EBEAD8;stroke:#1A2276;stroke-width:6;stroke-miterlimit:10;}
	.st12{fill:none;stroke:#1A2276;stroke-width:6;stroke-miterlimit:10;}
	.st13{fill:#E90302;stroke:#1A2276;stroke-width:6;stroke-miterlimit:10;}
	.st14{fill:#EBBFAF;}
	
		.st15{clip-path:url(#SVGID_00000163773911153555047480000006053178956806212774_);fill:#FCCF72;stroke:#1A2276;stroke-width:6;stroke-miterlimit:10;}
	
		.st16{clip-path:url(#SVGID_00000072238839189713817870000005402455251883488402_);fill:#FCCF72;stroke:#1A2276;stroke-width:6;stroke-miterlimit:10;}
	
		.st17{clip-path:url(#SVGID_00000163762590560904948440000006964438526701603221_);fill:#FCCF72;stroke:#1A2276;stroke-width:6;stroke-miterlimit:10;}
	
		.st18{clip-path:url(#SVGID_00000167392401881440746480000002919864257714389683_);fill:#FCCF72;stroke:#1A2276;stroke-width:6;stroke-miterlimit:10;}
	
		.st19{clip-path:url(#SVGID_00000098206178139224065680000010841331054457796244_);fill:#FCCF72;stroke:#1A2276;stroke-width:6;stroke-miterlimit:10;}
	.st20{fill:#FFFFFF;}
	
		.st21{clip-path:url(#SVGID_00000036957704012557730320000004123134790198182537_);fill:#FCCF72;stroke:#1A2276;stroke-width:6;stroke-miterlimit:10;}
	.st22{fill:none;stroke:#1A2276;stroke-width:6;stroke-linecap:round;stroke-miterlimit:10;}
	
		.st23{clip-path:url(#SVGID_00000006702850496357423440000006636927072396324029_);fill:#FCCF72;stroke:#1A2276;stroke-width:6;stroke-miterlimit:10;}
	
		.st24{clip-path:url(#SVGID_00000056397233011651551440000018057501185696244370_);fill:#FCCF72;stroke:#1A2276;stroke-width:6;stroke-miterlimit:10;}
	
		.st25{clip-path:url(#SVGID_00000023989555237219406520000004439122684181971335_);fill:#FCCF72;stroke:#1A2276;stroke-width:6;stroke-miterlimit:10;}
	
		.st26{clip-path:url(#SVGID_00000096031300452408550040000013287549105975957434_);fill:#FCCF72;stroke:#1A2276;stroke-width:6;stroke-miterlimit:10;}
	
		.st27{clip-path:url(#SVGID_00000091726101856230806400000013975269364219586724_);fill:#FCCF72;stroke:#1A2276;stroke-width:6;stroke-miterlimit:10;}
	
		.st28{clip-path:url(#SVGID_00000029743480938964343700000006987385504788961944_);fill:#FCCF72;stroke:#1A2276;stroke-width:6;stroke-miterlimit:10;}
	.st29{fill:none;stroke:#000000;stroke-width:4;stroke-miterlimit:10;}
	.st30{fill:#FCCF72;stroke:#000000;stroke-width:4;stroke-miterlimit:10;}
	.st31{fill:none;stroke:#000000;stroke-width:5;stroke-linecap:round;stroke-miterlimit:10;}
	
		.st32{clip-path:url(#SVGID_00000054951651911220698140000006638741407201679020_);fill:#FCCF72;stroke:#1A2276;stroke-width:6;stroke-miterlimit:10;}
	
		.st33{clip-path:url(#SVGID_00000102542238621038568050000012717487949890605190_);fill:#FCCF72;stroke:#1A2276;stroke-width:6;stroke-miterlimit:10;}
	
		.st34{clip-path:url(#SVGID_00000115502574548232273260000003839786604033336762_);fill:#FCCF72;stroke:#1A2276;stroke-width:6;stroke-miterlimit:10;}
	
		.st35{clip-path:url(#SVGID_00000073713851130608021190000000728627158439023803_);fill:#FCCF72;stroke:#1A2276;stroke-width:6;stroke-miterlimit:10;}
	.st36{fill:#E90302;stroke:#EBBFAF;stroke-width:6;stroke-miterlimit:10;}
	.st37{clip-path:url(#SVGID_00000146490120861951481610000014026402425475062454_);fill:#FCCF72;}
	.st38{clip-path:url(#SVGID_00000146490120861951481610000014026402425475062454_);fill:#1A2276;}
	.st39{clip-path:url(#SVGID_00000115478334361733021540000006974005846921018785_);fill:#8288A8;}
	.st40{fill:#020202;}
	.st41{clip-path:url(#SVGID_00000181075064879263093890000017784330864606700951_);}
	.st42{fill:#EBEAD8;stroke:#1A2276;stroke-width:3;stroke-miterlimit:10;}
	.st43{fill:#8288A8;stroke:#8288A8;stroke-miterlimit:10;}
	.st44{fill:#1A2276;stroke:#FCCF72;stroke-width:6;stroke-miterlimit:10;}
	.st45{fill:none;stroke:#EBEAD8;stroke-width:6;stroke-miterlimit:10;}
	.st46{fill:#8288A8;stroke:#1A2276;stroke-width:6;stroke-miterlimit:10;}
	.st47{fill:#FCCF72;stroke:#8288A8;stroke-width:6;stroke-miterlimit:10;}
	.st48{clip-path:url(#SVGID_00000006694694415993520630000011638376943079058826_);}
	.st49{fill:none;}
	.st50{fill:#ED8376;}
	.st51{fill:url(#);}
	.st52{fill:#1A2276;stroke:url(#);stroke-miterlimit:10;}
	.st53{fill:#ED8376;stroke:#E90302;stroke-width:6;stroke-linecap:round;stroke-linejoin:round;stroke-miterlimit:10;}
	.st54{fill:none;stroke:#E90302;stroke-width:6;stroke-linecap:round;stroke-linejoin:round;stroke-miterlimit:10;}
	.st55{fill:none;stroke:#E90302;stroke-width:5;stroke-linecap:round;stroke-linejoin:round;stroke-miterlimit:10;}
	.st56{fill:#FFFFFF;stroke:#000000;stroke-width:6;stroke-miterlimit:10;}
	.st57{fill:#FFFDFD;stroke:#1A2276;stroke-width:7;stroke-miterlimit:10;}
	
		.st58{clip-path:url(#SVGID_00000022560431176496068760000002448085717389244328_);fill:#FCCF72;stroke:#1A2276;stroke-width:6;stroke-miterlimit:10;}
	
		.st59{clip-path:url(#SVGID_00000128477412288762011640000009582018280839584950_);fill:#FCCF72;stroke:#1A2276;stroke-width:6;stroke-miterlimit:10;}
	.st60{fill:none;stroke:#E90302;stroke-width:6;stroke-linecap:round;stroke-miterlimit:10;}
	
		.st61{clip-path:url(#SVGID_00000082357475820159232450000002664392202714241201_);fill:#FCCF72;stroke:#1A2276;stroke-width:6;stroke-miterlimit:10;}
	
		.st62{clip-path:url(#SVGID_00000055673317240435747330000015177169965392268220_);fill:#FCCF72;stroke:#1A2276;stroke-width:6;stroke-miterlimit:10;}
	
		.st63{clip-path:url(#SVGID_00000088135168895187215040000015290105642461399979_);fill:#FCCF72;stroke:#1A2276;stroke-width:6;stroke-miterlimit:10;}
	.st64{fill:none;stroke:#1A2276;stroke-width:7;stroke-miterlimit:10;}
	
		.st65{clip-path:url(#SVGID_00000058590970737709524210000006930279050029181830_);fill:#FCCF72;stroke:#1A2276;stroke-width:6;stroke-miterlimit:10;}
	.st66{clip-path:url(#SVGID_00000153702978298790079350000014879365307701323698_);}
	
		.st67{clip-path:url(#SVGID_00000162336815976342595960000004629384615449718948_);fill:#FCCF72;stroke:#1A2276;stroke-width:6;stroke-miterlimit:10;}
	
		.st68{clip-path:url(#SVGID_00000110444635414669983370000006485883792448266673_);fill:#FCCF72;stroke:#1A2276;stroke-width:6;stroke-miterlimit:10;}
	
		.st69{clip-path:url(#SVGID_00000017496440058103064710000013022437092060936345_);fill:#FCCF72;stroke:#1A2276;stroke-width:6;stroke-miterlimit:10;}
	.st70{clip-path:url(#SVGID_00000090990752550225932150000009764073127610163086_);}
	.st71{clip-path:url(#SVGID_00000177470069042511391790000000907670726245742783_);}
	.st72{clip-path:url(#SVGID_00000107555545077661636710000003511331759318681232_);}
	.st73{opacity:0.5;}
	.st74{clip-path:url(#SVGID_00000084510904755069730710000007159866635575146892_);}
	.st75{clip-path:url(#SVGID_00000126312503191135083150000009399103839940888730_);}
	.st76{fill:#FFFDFD;}
	.st77{clip-path:url(#SVGID_00000178921944442089414240000000279059844363635083_);}
	.st78{opacity:0.8;}
	
		.st79{clip-path:url(#SVGID_00000123411630648495209910000008596255809957389489_);fill:#FCCF72;stroke:#1A2276;stroke-width:6;stroke-miterlimit:10;}
	
		.st80{clip-path:url(#SVGID_00000001641741187138335580000007614205345136116626_);fill:#FCCF72;stroke:#1A2276;stroke-width:6;stroke-miterlimit:10;}
	.st81{clip-path:url(#SVGID_00000170238090935656709250000008537149663075938237_);}
	.st82{clip-path:url(#SVGID_00000072256030221433467490000015675483122714718650_);}
	.st83{clip-path:url(#SVGID_00000002372479535443327940000006553378599001876389_);}
	.st84{clip-path:url(#SVGID_00000154389877977958650360000015161792411192465831_);}
	.st85{clip-path:url(#SVGID_00000082352822335951965950000006173503677303949235_);}
	.st86{fill:none;stroke:#1A2276;stroke-width:19;stroke-miterlimit:10;}
	.st87{clip-path:url(#SVGID_00000001626068649460751920000017328418466983374265_);}
	.st88{fill:none;stroke:#1A2276;stroke-width:10;stroke-miterlimit:10;}
	.st89{clip-path:url(#SVGID_00000061449475607473824990000007973845002226071204_);}
	.st90{clip-path:url(#SVGID_00000056392240068632101220000000679103510672610183_);fill:#FCCF72;}
	.st91{clip-path:url(#SVGID_00000056392240068632101220000000679103510672610183_);fill:#1A2276;}
	.st92{clip-path:url(#SVGID_00000056397254729280857390000006322620104759066273_);}
	.st93{clip-path:url(#SVGID_00000007422327736909772430000017062244645800300685_);}
	.st94{clip-path:url(#SVGID_00000007422327736909772430000017062244645800300685_);fill:none;}
	.st95{clip-path:url(#SVGID_00000084502350601099073260000014223404243137780135_);fill:#8288A8;}
	.st96{clip-path:url(#SVGID_00000084502350601099073260000014223404243137780135_);fill:#FCCF72;}
	.st97{font-family:'Aptly-Bold';}
	.st98{font-size:40.1137px;}
	.st99{letter-spacing:4;}
	.st100{font-size:122.4095px;}
	.st101{font-size:28px;}
	.st102{font-family:'Aptly';}
	.st103{font-size:70.9205px;}
	.st104{fill:#FFFFFF;stroke:#FFFFFF;stroke-width:6;stroke-miterlimit:10;}
	.st105{fill:none;stroke:#8288A8;stroke-width:6;stroke-miterlimit:10;}
	.st106{font-family:'VAGRundschriftD';}
	.st107{font-size:36px;}
	.st108{clip-path:url(#SVGID_00000144326970981520865120000015734605198939240592_);}
	.st109{clip-path:url(#SVGID_00000048488785389147939410000003129607563155056564_);}
	.st110{clip-path:url(#SVGID_00000168828834754671057220000018055812943758045842_);}
	.st111{clip-path:url(#SVGID_00000121256408869982096150000015418698162557702786_);}
	.st112{clip-path:url(#SVGID_00000028284203547659369080000015360619232049627055_);}
	.st113{fill:#EBEAD8;stroke:#1A2276;stroke-width:12;stroke-miterlimit:10;}
	.st114{fill:none;stroke:#1A2276;stroke-width:12;stroke-miterlimit:10;}
	.st115{clip-path:url(#SVGID_00000076585170327631557230000000097413470988529339_);}
	.st116{clip-path:url(#SVGID_00000080925470196533424220000011930701793665014712_);}
	.st117{clip-path:url(#SVGID_00000034055157237480919220000004946225652861954728_);}
	.st118{clip-path:url(#SVGID_00000029729369980824262910000014072409035504692895_);}
	.st119{clip-path:url(#SVGID_00000017480459200728050540000007631894614056621708_);}
	.st120{clip-path:url(#SVGID_00000163037712050578903890000000264833813818623631_);fill:#8288A8;}
	.st121{clip-path:url(#SVGID_00000163037712050578903890000000264833813818623631_);fill:#FCCF72;}
	.st122{clip-path:url(#SVGID_00000061472510337387097090000006842732534915340709_);}
	.st123{clip-path:url(#SVGID_00000051373802209065279740000004486033451938615472_);fill:#E90302;}
	.st124{clip-path:url(#SVGID_00000164502229863691609120000018261143610413200790_);fill:none;}
	.st125{clip-path:url(#SVGID_00000178197414874894657890000017612427214483733907_);}
	.st126{clip-path:url(#SVGID_00000144326870026343779840000015868941403306198703_);}
	.st127{clip-path:url(#SVGID_00000183228761017406850120000007319445175241812154_);}
	.st128{clip-path:url(#SVGID_00000046315527865013576170000006915493963803248294_);}
	.st129{clip-path:url(#SVGID_00000149378927669924049260000004318700938234945928_);}
	.st130{clip-path:url(#SVGID_00000057140507543495671360000018229076547883127457_);}
	.st131{clip-path:url(#SVGID_00000020381395975619440630000001948093599664133285_);}
	.st132{clip-path:url(#SVGID_00000013909103915404595020000018363315540744211368_);}
	.st133{clip-path:url(#SVGID_00000106841207778479756220000017593872935213301684_);}
	.st134{clip-path:url(#SVGID_00000093169093544022688250000004047032136363045251_);}
	.st135{clip-path:url(#SVGID_00000101820210973906374130000015148538854076585385_);}
	.st136{clip-path:url(#SVGID_00000129908266670653537280000017942495046802852529_);}
	.st137{clip-path:url(#SVGID_00000070094220460494385610000005870068184082728591_);fill:#EBEAD8;}
	.st138{clip-path:url(#SVGID_00000070094220460494385610000005870068184082728591_);}
	.st139{clip-path:url(#SVGID_00000124870852298059267210000017287084569595162302_);}
	.st140{clip-path:url(#SVGID_00000117660866695891898520000005001332115835585428_);}
	.st141{clip-path:url(#SVGID_00000049187565325857476500000017809734701714473867_);}
	.st142{clip-path:url(#SVGID_00000047750659663568772210000005536195452640819867_);}
	.st143{clip-path:url(#SVGID_00000156559011155522813830000002469492920559958454_);}
	.st144{fill:#ED8376;stroke:#1A2276;stroke-width:6;stroke-miterlimit:10;}
	.st145{fill:url(#);stroke:#1A2276;stroke-width:6;stroke-miterlimit:10;}
	.st146{clip-path:url(#SVGID_00000026122776646744087550000000292761212058010020_);}
	
		.st147{clip-path:url(#SVGID_00000159435985973262181400000005496053420823450804_);fill:#FCCF72;stroke:#1A2276;stroke-width:6;stroke-miterlimit:10;}
	.st148{fill:none;stroke:#FCCF72;stroke-width:6;stroke-linecap:round;stroke-miterlimit:10;}
	.st149{clip-path:url(#SVGID_00000080916715432171071530000014919364545392644760_);}
</style>
<g id="guias" class="st0">
</g>
<g id="Layer_2">
</g>
<g id="Layer_1">
</g>
<g id="web">
	<g>
		<rect x="1.5" y="1" class="st6" width="897" height="897"/>
		<g>
			<polygon class="st7" points="225.2,67.4 223.2,98.4 241.5,123.9 220.1,146 218.1,177 187.4,179.8 166,201.9 140.3,184.1 
				109.5,186.9 100.8,156.8 75.1,139 87.5,110.8 78.9,80.7 106.6,67.5 119.1,39.2 149.1,47.2 176.8,34 195.2,59.4 			"/>
			<g>
				<g>
					<path class="st6" d="M146.8,161.9c0-4.7,3.8-8.5,8.5-8.5c4.7,0,8.5,3.8,8.5,8.5v5.3h4.6c4.7,0,8.5,3.8,8.5,8.5
						s-3.8,8.5-8.5,8.5h-12.8c-4,0-7.3-2.7-8.3-6.4c-0.4-1-0.6-2-0.6-3.2V161.9z"/>
					<path class="st5" d="M168.4,185.4h-12.8c-4.4,0-8.2-2.9-9.3-7.2c-0.4-1.1-0.7-2.3-0.7-3.5v-12.8c0-5.3,4.3-9.6,9.6-9.6
						c5.3,0,9.6,4.3,9.6,9.6v4.3h3.5c5.3,0,9.6,4.3,9.6,9.6C178,181.1,173.7,185.4,168.4,185.4z M155.3,154.5
						c-4.1,0-7.4,3.3-7.4,7.4v12.8c0,1,0.2,1.9,0.5,2.8l0,0.1c0.8,3.3,3.8,5.6,7.2,5.6h12.8c4.1,0,7.4-3.3,7.4-7.4
						c0-4.1-3.3-7.4-7.4-7.4h-5.7v-6.4C162.8,157.8,159.4,154.5,155.3,154.5z"/>
				</g>
				<g>
					<line class="st6" x1="176.9" y1="177.7" x2="147.5" y2="177.7"/>
					<rect x="147.5" y="176.7" class="st5" width="29.4" height="2.1"/>
				</g>
				<g>
					<line class="st6" x1="163.8" y1="167.3" x2="159.4" y2="173.1"/>
					
						<rect x="157.9" y="169.1" transform="matrix(0.6034 -0.7974 0.7974 0.6034 -71.6418 196.371)" class="st5" width="7.3" height="2.1"/>
				</g>
				<g>
					<line class="st6" x1="168.1" y1="168" x2="163.6" y2="173.9"/>
					
						<rect x="162.2" y="169.9" transform="matrix(0.6034 -0.7974 0.7974 0.6034 -70.5196 200.0464)" class="st5" width="7.3" height="2.1"/>
				</g>
				<g>
					<line class="st6" x1="172.3" y1="168.7" x2="167.9" y2="174.6"/>
					
						<rect x="166.4" y="170.6" transform="matrix(0.6034 -0.7974 0.7974 0.6034 -69.3973 203.7218)" class="st5" width="7.3" height="2.1"/>
				</g>
				<g>
					<circle class="st6" cx="154.4" cy="168.2" r="3.5"/>
					<path class="st5" d="M154.4,172.8c-2.5,0-4.6-2.1-4.6-4.6c0-2.5,2.1-4.6,4.6-4.6s4.6,2.1,4.6,4.6
						C159,170.7,157,172.8,154.4,172.8z M154.4,165.7c-1.4,0-2.5,1.1-2.5,2.5s1.1,2.5,2.5,2.5s2.5-1.1,2.5-2.5
						S155.8,165.7,154.4,165.7z"/>
				</g>
				<g>
					<g>
						<path class="st6" d="M114.2,161.9c0-4.7,3.8-8.5,8.5-8.5s8.5,3.8,8.5,8.5v5.3h4.6c4.7,0,8.5,3.8,8.5,8.5s-3.8,8.5-8.5,8.5H123
							c-4,0-7.3-2.7-8.3-6.4c-0.4-1-0.6-2-0.6-3.2V161.9z"/>
						<path class="st5" d="M135.8,185.4H123c-4.4,0-8.2-2.9-9.3-7.2c-0.4-1.1-0.7-2.3-0.7-3.5v-12.8c0-5.3,4.3-9.6,9.6-9.6
							c5.3,0,9.6,4.3,9.6,9.6v4.3h3.5c5.3,0,9.6,4.3,9.6,9.6C145.4,181.1,141.1,185.4,135.8,185.4z M122.7,154.5
							c-4.1,0-7.4,3.3-7.4,7.4v12.8c0,1,0.2,1.9,0.5,2.8l0,0.1c0.8,3.3,3.8,5.6,7.2,5.6h12.8c4.1,0,7.4-3.3,7.4-7.4
							c0-4.1-3.3-7.4-7.4-7.4h-5.7v-6.4C130.1,157.8,126.8,154.5,122.7,154.5z"/>
					</g>
					<g>
						<line class="st6" x1="144.3" y1="177.7" x2="114.9" y2="177.7"/>
						<rect x="114.9" y="176.7" class="st5" width="29.4" height="2.1"/>
					</g>
					<g>
						<line class="st6" x1="131.2" y1="167.3" x2="126.8" y2="173.1"/>
						
							<rect x="125.3" y="169.1" transform="matrix(0.6034 -0.7974 0.7974 0.6034 -84.5827 170.3497)" class="st5" width="7.3" height="2.1"/>
					</g>
					<g>
						<line class="st6" x1="135.5" y1="168" x2="131" y2="173.9"/>
						
							<rect x="129.6" y="169.9" transform="matrix(0.6034 -0.7974 0.7974 0.6034 -83.4605 174.0251)" class="st5" width="7.3" height="2.1"/>
					</g>
					<g>
						<line class="st6" x1="139.7" y1="168.7" x2="135.3" y2="174.6"/>
						
							<rect x="133.8" y="170.6" transform="matrix(0.6034 -0.7974 0.7974 0.6034 -82.3382 177.7005)" class="st5" width="7.3" height="2.1"/>
					</g>
					<g>
						<circle class="st6" cx="121.8" cy="168.2" r="3.5"/>
						<path class="st5" d="M121.8,172.8c-2.5,0-4.6-2.1-4.6-4.6c0-2.5,2.1-4.6,4.6-4.6s4.6,2.1,4.6,4.6
							C126.4,170.7,124.3,172.8,121.8,172.8z M121.8,165.7c-1.4,0-2.5,1.1-2.5,2.5s1.1,2.5,2.5,2.5c1.4,0,2.5-1.1,2.5-2.5
							S123.2,165.7,121.8,165.7z"/>
					</g>
				</g>
				<g>
					<ellipse class="st6" cx="148.7" cy="125.4" rx="38.1" ry="29.8"/>
					<path class="st5" d="M148.7,156.3c-19.3,0-29,0-34-3.9c-5.2-4-5.2-11.7-5.2-26.9s0-22.9,5.2-26.9c5.1-3.9,14.7-3.9,34-3.9
						c19.3,0,29,0,34,3.7c5.2,3.8,5.2,11.1,5.2,25.5l0,1.6l0,1.6c0,14.4,0,21.7-5.2,25.5C177.7,156.3,168,156.3,148.7,156.3z
						 M148.7,96.7c-18.8,0-28.2,0-32.7,3.5c-4.4,3.4-4.4,10.7-4.4,25.2s0,21.8,4.4,25.2c4.5,3.5,13.9,3.5,32.7,3.5
						c18.8,0,28.3,0,32.7-3.3c4.3-3.2,4.3-10.1,4.3-23.8l0-1.6l0-1.6c0-13.7,0-20.6-4.3-23.8C177,96.7,167.6,96.7,148.7,96.7z"/>
				</g>
				<g>
					<path class="st8" d="M148.9,144.6c-38.8,0-38.3-12.2-38.3-11.5c0,27.8,0.2,27.8,38.1,27.8c37.3,0,38.1,0,38.1-27.8
						C186.9,132.4,187.1,144.6,148.9,144.6z"/>
					<path class="st5" d="M148.8,162c-19.2,0-28.9,0-33.9-3.7c-5.3-3.8-5.3-11.4-5.3-25.2h0c0-0.5,0.2-0.7,0.3-0.8l0.5-0.5l1.3,0.5
						v0.7c0.1,0.5,2,10.5,37.2,10.5c35.1,0,36.9-10.2,36.9-10.6l0.1-1l2,0.1l0,1c0,14.4-0.2,21.5-5.5,25.2
						C177.3,162,167.8,162,148.8,162z M111.7,137.1c0,10.8,0.5,16.6,4.4,19.4c4.5,3.3,13.9,3.3,32.7,3.3c18.5,0,27.8,0,32.4-3.3
						c4-2.8,4.6-8.5,4.6-19.5c-0.9,0.9-2.1,1.9-3.7,2.9c-6.6,3.8-17.8,5.7-33.1,5.7c-13.4,0-23.6-1.4-30.5-4.3
						C115.1,140,113,138.5,111.7,137.1z"/>
				</g>
				<g>
					<line class="st6" x1="182.2" y1="113.4" x2="126.7" y2="113.4"/>
					<rect x="126.7" y="112.3" class="st5" width="55.5" height="2.1"/>
				</g>
				<g>
					<line class="st6" x1="120.2" y1="112.7" x2="120.2" y2="119.7"/>
					<rect x="119.1" y="112.7" class="st5" width="2.1" height="7.1"/>
				</g>
				<g>
					<path class="st6" d="M174.9,123.8c0,0-1.6-4.6-6.5-3.8c-4.9,0.8-5.5,3.8-5.5,3.8"/>
					<path class="st5" d="M173.9,124.1c-0.1-0.2-1.4-3.8-5.4-3.1c-4,0.7-4.6,2.9-4.6,3l-2.1-0.4c0-0.2,0.7-3.7,6.3-4.7
						c4.6-0.8,7.1,2.6,7.7,4.5L173.9,124.1z"/>
				</g>
				<g>
					<path class="st6" d="M152.6,124.1c0,0-1.6-4.6-6.5-3.8c-4.9,0.8-5.5,3.8-5.5,3.8"/>
					<path class="st5" d="M151.6,124.5c-0.1-0.2-1.4-3.8-5.4-3.1c-4,0.7-4.6,2.9-4.6,3l-2.1-0.4c0-0.2,0.7-3.7,6.3-4.7
						c4.6-0.8,7.1,2.6,7.7,4.5L151.6,124.5z"/>
				</g>
				<g>
					<path class="st6" d="M164.8,128.3c0,0,1.3,5.3-4.4,6.1c-6,0.9-6.4-5.1-6.4-5.1"/>
					<path class="st5" d="M159.1,135.6c-1.5,0-2.8-0.4-3.8-1.3c-2.2-1.8-2.5-4.8-2.5-4.9l2.1-0.2c0,0,0.2,2.2,1.7,3.4
						c0.9,0.7,2,0.9,3.5,0.7c1.4-0.2,2.5-0.8,3-1.6c0.9-1.4,0.5-3.2,0.5-3.2l2.1-0.5c0,0.1,0.6,2.7-0.8,4.9
						c-0.9,1.4-2.4,2.2-4.5,2.5C160,135.6,159.6,135.6,159.1,135.6z"/>
				</g>
				<g>
					<path class="st6" d="M102.5,128.1c4.3-1.9,9.3,0.1,11.2,4.4l5.1,11.7c1.9,4.3-0.1,9.3-4.4,11.2c-4.3,1.9-9.3-0.1-11.2-4.4
						l-5.1-11.7C96.2,135,98.2,130,102.5,128.1z"/>
					<path class="st5" d="M111.1,157.2c-1.2,0-2.4-0.2-3.5-0.7c-2.4-0.9-4.3-2.7-5.3-5.1l-5.1-11.7c-2.1-4.8,0.1-10.5,4.9-12.6
						c2.3-1,4.9-1.1,7.3-0.1c2.4,0.9,4.3,2.7,5.3,5.1l5.1,11.7c1,2.3,1.1,4.9,0.1,7.3c-0.9,2.4-2.7,4.3-5.1,5.3
						C113.7,156.9,112.4,157.2,111.1,157.2z M105.9,128.5c-1,0-2,0.2-3,0.6c-1.8,0.8-3.2,2.3-3.9,4.1c-0.7,1.9-0.7,3.9,0.1,5.7
						l5.1,11.7c1.6,3.8,6,5.5,9.8,3.8c1.8-0.8,3.2-2.3,3.9-4.1c0.7-1.9,0.7-3.9-0.1-5.7l-5.1-11.7
						C111.5,130.1,108.8,128.5,105.9,128.5z"/>
				</g>
				<g>
					<circle class="st5" cx="118.1" cy="97.8" r="13.5"/>
				</g>
				<g>
					<circle class="st5" cx="162.1" cy="82.2" r="13.5"/>
				</g>
				<g>
					<ellipse class="st5" cx="141.9" cy="86.4" rx="24.5" ry="18.4"/>
				</g>
				<g>
					<ellipse class="st5" cx="170.3" cy="86.4" rx="24.5" ry="18.4"/>
				</g>
				<g>
					<g>
						<ellipse class="st6" cx="191.3" cy="116.2" rx="11.4" ry="9.6"/>
						<path class="st5" d="M191.3,126.8c-6.9,0-12.5-4.8-12.5-10.7s5.6-10.7,12.5-10.7c6.9,0,12.5,4.8,12.5,10.7
							S198.1,126.8,191.3,126.8z M191.3,107.6c-5.7,0-10.3,3.8-10.3,8.6c0,4.7,4.6,8.6,10.3,8.6c5.7,0,10.3-3.8,10.3-8.6
							C201.6,111.4,197,107.6,191.3,107.6z"/>
					</g>
					<g>
						<path class="st6" d="M204.8,86.2c-2.5-1.3-5.7-0.1-7.1,2.6c0,0.1-0.1,0.1-0.1,0.2l0,0l-3.8,7.6v-8.5h0c0-0.1,0-0.1,0-0.2
							c0-3.1-2.3-5.5-5.2-5.5s-5.2,2.5-5.2,5.5c0,0.1,0,0.1,0,0.2h0v15.3h8.6l7.9,4l6.9-13.7l0,0c0-0.1,0.1-0.1,0.1-0.2
							C208.3,90.8,207.3,87.5,204.8,86.2z"/>
						<path class="st5" d="M200.4,108.8l-8.6-4.3h-9.4V87h0.1c0.4-3.2,3-5.7,6.2-5.7s5.8,2.5,6.2,5.7h0l0,0.7c0,0.1,0,0.1,0,0.2
							c0,0,0,0,0,0.1l0,0.1v4.1l2.3-4.5l0,0c0.8-1.2,1.9-2.1,3.2-2.6c1.6-0.6,3.3-0.5,4.8,0.2c1.5,0.8,2.6,2.1,3.1,3.7
							c0.4,1.4,0.3,2.8-0.1,4.1l0,0l-0.3,0.6c0,0.1-0.1,0.1-0.1,0.2c0,0,0,0,0,0.1l-0.1,0.1L200.4,108.8z M184.5,102.3h7.8l7.2,3.6
							l5.9-11.7l0,0l0.5-1c0,0,0-0.1,0.1-0.1l0,0c0.5-1.1,0.7-2.3,0.3-3.4c-0.3-1.1-1-2-2-2.4c-1-0.5-2.1-0.5-3.1-0.1
							c-1.1,0.4-2,1.2-2.5,2.3l0,0c0,0,0,0.1,0,0.1l-0.5,1l0,0l-5.3,10.6v-12h0l0-1.3c0-2.5-1.8-4.5-4.1-4.5s-4.1,2-4.1,4.5l0,0.2
							l0,1.1h0V102.3z"/>
					</g>
					<g>
						<path class="st6" d="M192.4,109.9c-2.3,1.1-3.3,4.1-2.1,6.6c1.2,2.6,4.1,3.8,6.4,2.7c0,0,0.1-0.1,0.1-0.1l0,0l7.8-3.2
							c4.4-3.7,0.9-10.5-4.3-9.4l-7.8,3.2l0,0C192.5,109.9,192.5,109.9,192.4,109.9z"/>
						<path class="st5" d="M194.9,120.8c-2.3,0-4.5-1.4-5.6-3.8c-1.3-2.8-0.5-6,1.8-7.6l0-0.1l1-0.4l7.9-3.3l0.1,0
							c2.8-0.6,5.6,0.7,6.9,3.4c1.4,2.7,0.7,5.8-1.7,7.9l-0.1,0.1l-8,3.3c0,0,0,0-0.1,0c-0.2,0.1-0.3,0.1-0.5,0.2l-0.4,0.1l0,0
							C195.9,120.7,195.4,120.8,194.9,120.8z M192.4,109.9l0.4,1c-1.8,0.8-2.5,3.2-1.6,5.2c0.9,2.1,3.2,3.1,5,2.2l0.1-0.1l1-0.5
							l0,0.1l6.7-2.8c1.8-1.7,1.7-3.8,1-5.2c-0.7-1.3-2.2-2.7-4.5-2.3l-6.7,2.8l0,0l-1.1,0.5L192.4,109.9L192.4,109.9z"/>
					</g>
					<g>
						<path class="st6" d="M189.3,103.2c-2.8,1.3-4.1,4.4-2.9,7c1.2,2.6,4.4,3.7,7.2,2.4c0.1,0,0.1-0.1,0.2-0.1l0,0l9.3-3.9
							c5.3-4.2,1.8-10.9-4.3-9.4l-9.3,3.9l0,0C189.4,103.1,189.3,103.1,189.3,103.2z"/>
						<path class="st5" d="M191.2,114.2c-2.4,0-4.7-1.3-5.7-3.5c-0.7-1.5-0.7-3.2-0.1-4.8c0.5-1.3,1.5-2.4,2.7-3.2l0-0.1l1-0.4
							l9.4-3.9c3.8-1,6.5,0.9,7.6,3.1c1.4,2.8,0.4,6-2.4,8.2l-0.1,0.1l-9.4,4c0,0-0.1,0-0.1,0c-0.2,0.1-0.4,0.2-0.6,0.2l-0.3,0.1
							l0,0C192.5,114,191.8,114.2,191.2,114.2z M189.7,104.1c-1.1,0.5-1.9,1.4-2.4,2.4c-0.4,1-0.4,2.2,0,3.1
							c0.9,2.1,3.5,2.9,5.8,1.9l0.1-0.1l1-0.5l0,0.1l8.2-3.4c2.3-1.9,2.4-4,1.7-5.5c-0.7-1.3-2.4-2.7-5.1-2l-9.2,3.9
							C189.8,104.1,189.8,104.1,189.7,104.1L189.7,104.1z"/>
					</g>
					<g>
						<path class="st6" d="M183.9,103.5c-2.4-0.9-5.2,0.6-6.2,3.3s0.2,5.6,2.6,6.4c0.1,0,0.1,0,0.2,0l0,0l7.8,3.2
							c5.7,0.4,8-6.9,3.5-9.7l-7.8-3.2l0,0C184,103.5,184,103.5,183.9,103.5z"/>
						<path class="st5" d="M188.8,117.5c-0.2,0-0.4,0-0.5,0l-0.2,0l-8-3.3c0,0-0.1,0-0.1,0c-0.2-0.1-0.3-0.1-0.5-0.2l-0.3-0.1l0,0
							c-2.4-1.4-3.5-4.5-2.5-7.5c0.6-1.5,1.6-2.8,3-3.5c1.1-0.6,2.4-0.8,3.6-0.6l0-0.1l1,0.4l7.9,3.2l0.1,0c2.4,1.5,3.5,4.5,2.5,7.2
							C194.1,115.8,191.7,117.5,188.8,117.5z M188.6,115.4c2.5,0.1,3.9-1.5,4.4-3c0.5-1.4,0.3-3.5-1.6-4.7l-7.7-3.2c0,0-0.1,0-0.1,0
							l0,0c-0.9-0.3-1.9-0.2-2.8,0.2c-0.9,0.5-1.6,1.3-2,2.4c-0.8,2.1,0.1,4.4,2,5.1l0.1,0l1,0.3l0,0.1L188.6,115.4z"/>
					</g>
				</g>
			</g>
		</g>
		<g>
			<g>
				<polygon class="st8" points="829.1,410.6 71,463.4 71,396.7 829.1,343.8 				"/>
			</g>
			<text transform="matrix(1 -6.972903e-02 0 1 116.3905 443.6202)" class="st6 st97 st98 st99">INCREÍBLE · FANTÁSTICA · APOTEÓSICA</text>
		</g>
		<g>
			<polygon class="st5" points="66,158 834.1,104.4 834.1,331.7 66,385.2 			"/>
			<path class="st6" d="M829.1,109.8V327L71,379.8V162.6L829.1,109.8 M839.1,99.1l-10.7,0.7L70.3,152.7l-9.3,0.6v9.3v217.2v10.7
				l10.7-0.7L829.8,337l9.3-0.6V327V109.8V99.1L839.1,99.1z"/>
		</g>
		<g>
			<text transform="matrix(1 -6.972903e-02 0 1 222.5517 326.981)" class="st10 st97 st100">CONTACTO</text>
			<text transform="matrix(1 -6.972903e-02 0 1 228.5518 320.5626)" class="st5 st97 st100">CONTACTO</text>
			<text transform="matrix(1 -6.972903e-02 0 1 238.9436 311.6222)" class="st6 st97 st100">CONTACTO</text>
		</g>
		<rect x="91.9" y="515.9" class="st49" width="273.6" height="368.3"/>
		<text transform="matrix(1 0 0 1 91.9229 538.9648)"><tspan x="0" y="0" class="st97 st101">Incluye varias formas de </tspan><tspan x="0" y="33.6" class="st97 st101">contacto</tspan><tspan x="95.1" y="33.6" class="st102 st101">. No únicamente </tspan><tspan x="0" y="67.2" class="st102 st101">un triste formulario.</tspan><tspan x="0" y="100.8" class="st102 st101">Pónselo fácil a tus cli</tspan><tspan x="227.7" y="100.8" class="st102 st101">-</tspan><tspan x="0" y="134.4" class="st102 st101">entes, permanece dis</tspan><tspan x="228.2" y="134.4" class="st102 st101">-</tspan><tspan x="0" y="168" class="st102 st101">puesto/a a ayudarles. Y </tspan><tspan x="0" y="201.6" class="st102 st101">no tengas miedo a las </tspan><tspan x="0" y="235.2" class="st102 st101">críticas. Ayudan a mejo</tspan><tspan x="246.9" y="235.2" class="st102 st101">-</tspan><tspan x="0" y="268.8" class="st102 st101">rar.</tspan></text>
		<g>
			<g>
				<path class="st5" d="M226,499.4c-6.7,0-12-5.3-12-12v-15.8c0-8.9,4-17.2,11.1-22.8l2.8-2.2c2.4-1.8,5.2-3.5,8.6-3.5
					c6.7,0,12.4,5.6,12.4,12.2c0,3.9-1.7,7.3-4.8,9.7l-2.4,1.9c-0.1,0.1-0.3,0.2-0.5,0.4l0.9,0.5c4.5,2.4,7.3,5.1,7.3,11.3v8.5
					c0,6.7-5.3,12-12,12H226z M188.6,499.4c-6.7,0-12-5.3-12-12v-15.8c0-8.9,4-17.2,11.1-22.8l2.8-2.2c2.4-1.8,5.2-3.5,8.6-3.5
					c6.7,0,12.4,5.6,12.4,12.2c0,3.9-1.7,7.3-4.8,9.7l-2.5,1.9c-0.1,0.1-0.3,0.2-0.4,0.4l0.9,0.5c4.5,2.4,7.3,5.1,7.3,11.3v8.5
					c0,6.7-5.3,12-12,12H188.6z"/>
				<path class="st6" d="M236.4,448c3.8,0,7.4,3.2,7.4,7.2c0,1.8-0.5,4-2.9,5.8l-2.5,2c-2,1.6-3.2,2.7-3.2,4.9
					c0,1.8,1.3,2.7,3.4,3.8l1.1,0.5c3.4,1.8,4.7,3.1,4.7,6.8v8.5c0,4-3.1,7-7,7H226c-4,0-7-3.1-7-7v-15.8c0-8.1,4-14.8,9.2-18.9
					l2.7-2.2C233,448.9,234.6,448,236.4,448 M199,448c3.8,0,7.4,3.2,7.4,7.2c0,1.8-0.5,4-2.9,5.8l-2.5,2c-2,1.6-3.2,2.7-3.2,4.9
					c0,1.8,1.3,2.7,3.4,3.8l1.1,0.5c3.4,1.8,4.7,3.1,4.7,6.8v8.5c0,4-3.1,7-7,7h-11.3c-4,0-7-3.1-7-7v-15.8c0-8.1,4-14.8,9.2-18.9
					l2.7-2.2C195.6,448.9,197.2,448,199,448 M236.4,438c-4.9,0-8.6,2.3-11.6,4.5l-0.1,0.1l-0.1,0.1l-2.7,2.2
					c-2.3,1.8-4.3,3.9-6.1,6.2c-1.9-7.4-8.9-13.1-16.8-13.1c-4.9,0-8.6,2.3-11.6,4.5l-0.1,0.1l-0.1,0.1l-2.7,2.2
					c-8.2,6.5-12.9,16.2-12.9,26.7v15.8c0,9.5,7.5,17,17,17h11.3c5.3,0,9.9-2.3,13-6c3.1,3.7,7.8,6,13,6h11.3c9.5,0,17-7.5,17-17
					v-8.5c0-5.9-2.1-9.7-4.9-12.2c2.9-3.1,4.4-7.1,4.4-11.5C253.8,445.9,245.8,438,236.4,438L236.4,438z"/>
			</g>
		</g>
		<g>
			<text transform="matrix(0.9762 -7.598437e-02 2.250000e-03 1 268.2312 135.8202)" class="st5 st97 st103">webconsejos</text>
			<g>
				<g>
					<path class="st10" d="M672.9,90.5c0.9,2.4,2.4,3.5,4.8,3.3c1.4-0.1,1.8-0.3,4.9-2.1c0.4-0.2,0.9-0.4,1.3-0.4
						c1.2-0.1,2.4,1,2.4,2.3c0,2.5-4.4,5.2-9,5.6c-6.4,0.5-10.9-3.6-11-9.9c0-6.6,4.4-11.7,10.3-12.2c5.6-0.4,10,3.9,10,9.9
						c0,1.7-0.8,2.5-2.6,2.6L672.9,90.5z M680.8,85.7c-0.3-1.2-0.5-1.6-0.9-2.2c-0.7-1-1.8-1.5-3.1-1.4c-2,0.2-3.3,1.4-4.2,4.2
						L680.8,85.7z"/>
					<path class="st10" d="M695.4,77.4c1.8-1.5,3.1-2,4.9-2.2c5.2-0.4,9.3,4.1,9.4,10.3c0,6.3-4,11.5-9.3,11.9c-2.3,0.2-3.7-0.4-5-2
						c-0.7,1.6-1.5,2.4-2.8,2.5c-1.8,0.1-3.1-1.1-3.1-3l-0.1-23.7c0-1.5,0-1.9,0.4-2.6c0.4-1,1.5-1.7,2.6-1.8
						c1.1-0.1,2.1,0.5,2.6,1.4c0.4,0.7,0.4,1,0.4,2.5L695.4,77.4z M695.4,86.6c0,3.1,1.8,5.2,4.2,5.1c2.3-0.2,4.1-2.6,4.1-5.7
						c0-3-1.8-5.2-4.1-5C697.2,81.2,695.4,83.6,695.4,86.6z"/>
					<path class="st10" d="M712.3,78c0-2.2,1.2-3.7,3.1-3.9c1.4-0.1,2.2,0.5,2.8,1.9c1.8-1.8,3.2-2.5,5.5-2.7
						c2.1-0.2,3.8,0.3,5.2,1.4c1.6,1.3,2.2,2.8,2.2,5.8l0,10.1c0,1.5,0,1.9-0.4,2.6c-0.4,1-1.5,1.7-2.6,1.8
						c-1.1,0.1-2.2-0.5-2.6-1.4c-0.4-0.7-0.4-1-0.4-2.5l0-8.7c0-2.4-1.3-3.8-3.4-3.6c-1.9,0.1-3.4,1.9-3.4,3.9l0,8.9
						c0,1.5,0,1.9-0.4,2.6c-0.4,1-1.5,1.7-2.6,1.8c-1.1,0.1-2.2-0.5-2.6-1.4c-0.4-0.7-0.4-1-0.4-2.5L712.3,78z"/>
					<path class="st10" d="M735.2,76.8c0-1.5,0-1.9,0.4-2.6c0.4-1,1.5-1.7,2.6-1.8c1.1-0.1,2.1,0.5,2.6,1.4c0.4,0.7,0.4,1,0.4,2.5
						l0,13.7c0,1.5,0,1.9-0.4,2.6c-0.4,1-1.5,1.7-2.6,1.8c-1.1,0.1-2.2-0.5-2.6-1.4c-0.4-0.7-0.4-1-0.4-2.5L735.2,76.8z M744.7,66.1
						c0-1.4-1.2-2.5-2.8-2.6l0,0l-0.1,0c-0.2,0-0.4,0-0.5,0c-0.2,0-0.4,0-0.6,0.1l-4.8,0.4c-0.2,0-0.4,0-0.5,0
						c-2,0.2-3.6,1.6-3.6,3.2c0,1.6,1.6,2.8,3.5,2.7c0,0,0.1,0,0.1,0l6.5-0.6C743.5,68.8,744.7,67.5,744.7,66.1z"/>
					<path class="st10" d="M760,74.8c0,1.4-1.1,2.8-2.3,2.9c-0.7,0.1-0.7,0.1-2.5-0.6c-0.9-0.4-1.7-0.5-2.3-0.5
						c-1,0.1-1.6,0.5-1.6,1.2c0,0.8,0.3,1,3.2,1.9c2.7,0.9,3.5,1.3,4.6,2.3c0.9,1,1.5,2.2,1.5,3.8c0,4.1-3.2,7.1-7.9,7.5
						c-4.1,0.3-7.7-1.5-7.7-3.9c0-1.4,1.2-2.9,2.5-3c0.7-0.1,0.7-0.1,3.1,0.9c1,0.4,1.8,0.5,2.4,0.5c1-0.1,1.8-0.8,1.8-1.6
						c0-0.7-0.5-1.1-2.3-1.6c-3-0.9-3.8-1.3-4.8-1.9c-1.4-0.9-2.1-2.3-2.1-4.3c0-3.8,3.3-6.9,7.7-7.3C756.8,70.8,760,72.6,760,74.8z
						"/>
					<path class="st10" d="M770.5,64.3c0,2-1.5,3.7-3.5,3.9c-2,0.2-3.5-1.3-3.5-3.3c0-2,1.6-3.7,3.6-3.8
						C768.9,60.8,770.5,62.3,770.5,64.3z M764,74.5c0-1.5,0-1.9,0.4-2.6c0.4-1,1.5-1.7,2.6-1.8c1.1-0.1,2.1,0.5,2.6,1.4
						c0.4,0.7,0.4,1,0.4,2.5l0,13.7c0,1.5,0,1.9-0.4,2.6c-0.4,1-1.5,1.7-2.6,1.8c-1.1,0.1-2.2-0.5-2.6-1.4c-0.4-0.7-0.4-1-0.4-2.5
						L764,74.5z"/>
					<path class="st10" d="M774.2,73.2c0-2.1,1.2-3.7,3-3.8c1.2-0.1,1.8,0.3,2.9,1.8c1.7-1.7,3.1-2.4,5.3-2.6c1.5-0.1,3,0.1,4.1,0.7
						c0.6,0.3,1,0.6,1.7,1.5c2.4-2.2,4-3,6.3-3.2c4.2-0.3,7.3,2.5,7.3,6.6l0,10.8c0,1.5,0,1.9-0.4,2.6c-0.4,1-1.5,1.7-2.6,1.8
						c-1.1,0.1-2.2-0.5-2.6-1.4c-0.4-0.7-0.4-1-0.4-2.5l0-9.4c0-1.9-1.2-3.1-3.1-3s-3.1,1.5-3.1,3.4l0,9.4c0,1.5,0,1.9-0.4,2.6
						c-0.4,1-1.5,1.7-2.6,1.8c-1.1,0.1-2.2-0.5-2.6-1.4c-0.4-0.7-0.4-1-0.4-2.5l0-8.8c0-2.4-1.2-3.7-3.1-3.5
						c-1.8,0.1-3.1,1.6-3.1,3.4l0,9.4c0,1.5,0,1.9-0.4,2.6c-0.4,1-1.5,1.7-2.6,1.8c-1.1,0.1-2.2-0.5-2.6-1.4c-0.4-0.7-0.4-1-0.4-2.5
						L774.2,73.2z"/>
					<path class="st10" d="M828,83.7c0,2.2-1.2,3.8-3,3.9c-1.4,0.1-2.4-0.6-3-2.2c-1.5,2.1-2.7,2.8-4.9,2.9
						c-2.2,0.2-4.2-0.5-5.9-1.9c-2.4-2-3.6-4.8-3.6-8.5c0-3.4,1-6,3.1-8.4c1.8-2,3.9-3.1,6.3-3.3c2.1-0.2,3.4,0.4,5.1,2
						c0.7-1.7,1.6-2.4,3-2.5c1.7-0.1,3,1.2,3,2.9L828,83.7z M813.5,77.4c0,3.2,1.6,5.3,4.2,5.1c2.5-0.2,4.1-2.5,4.1-5.7
						c0-3.2-1.7-5.2-4.2-5C815.1,72,813.5,74.3,813.5,77.4z"/>
				</g>
				<g>
					<path class="st5" d="M663.4,79.6c-0.4-0.7-1.1-1.2-1.9-1.3c-0.2,0-0.5-0.1-0.7,0c-0.2,0-0.5,0.1-0.7,0.1
						c-0.8,0.3-1.6,0.9-1.9,1.6c-0.3,0.5-0.4,0.9-0.4,1.5c0,0.3,0,10.8,0,10.8c0,1-0.3,1.5-0.6,1.9c-0.4,0.4-0.9,0.6-1.4,0.7
						c-0.6,0-1.1-0.2-1.5-0.6c-0.3-0.4-0.6-0.8-0.6-1.7l0-10.1l0,0c0-1.2-0.1-1.6-0.4-2.2c-0.4-0.7-1.1-1.2-1.9-1.3
						c-0.2,0-0.5-0.1-0.7,0c-0.2,0-0.5,0.1-0.7,0.1c-0.8,0.3-1.6,0.9-1.9,1.6c-0.3,0.5-0.4,0.9-0.4,1.5c0,0.2,0,0.8,0,0.8l0,10
						c0,1-0.3,1.5-0.6,1.9c-0.4,0.4-0.9,0.6-1.4,0.7c-0.6,0-1.1-0.2-1.5-0.6c-0.3-0.4-0.6-0.8-0.6-1.7l-0.1-9.7c0-1.5,0-1.8-0.4-2.5
						c-0.4-0.7-1.1-1.2-1.9-1.3c-0.2,0-0.5-0.1-0.7,0c-0.2,0-0.5,0.1-0.7,0.1c-0.8,0.3-1.6,0.9-1.9,1.6c-0.3,0.5-0.4,0.9-0.4,1.5
						c0,0.3,0,11,0,11c0,3,1,4.8,2.7,6c1.5,1.1,3.4,1.6,5.2,1.4c1.6-0.1,2.9-0.5,4-1.3l0.5-0.4c0.3-0.2,0.6-0.4,0.8-0.4
						c0.3,0,0.5,0.1,0.8,0.2l0.6,0.3c1.1,0.6,2.5,0.8,4,0.6c1.9-0.1,3.6-0.9,5.1-2.2c1.7-1.5,2.7-3.4,2.7-6.4l0-10
						C663.9,80.6,663.8,80.3,663.4,79.6z"/>
					<g>
						<g>
							<path class="st9" d="M650.6,72.1c-6,0.6-11,0.1-11-1c0-0.4,0.7-0.7,1.7-1.2c4.4-2,6.7-2.6,10.8-2.6c2.9,0,6.2-0.2,8.5,1.1
								c0.6,0.2,0.9,0.4,0.9,0.7C661.6,70.2,656.7,71.6,650.6,72.1z M667,68.7c-0.1-2.8-5.1-4.3-16.4-3.3c-10.7,1-16.3,3.5-16.3,6.3
								c0.1,4.3,7.4,5.9,16.5,5C659.7,76,667,73.1,667,68.7z"/>
						</g>
					</g>
				</g>
			</g>
		</g>
		<g>
			<g>
				<path class="st6" d="M447.2,554.4c0-110.5,0.8-165,19.2-194.3c19.9-31.7,56.6-31.7,123.2-31.7l14.8,0
					c67.8-0.1,105.2-0.1,124.6,34c17.9,31.3,17.9,90.4,17.9,208.1l0,15.7c0,110.8-0.9,165.4-20.3,194.9
					c-20.8,31.6-59.4,31.6-129.5,31.6c-71.3,0-110.5,0-131-33.8c-18.9-31.4-18.9-90.5-19-208.3L447.2,554.4z"/>
				<ellipse class="st10" cx="597" cy="570.6" rx="139.9" ry="232.1"/>
				<ellipse class="st4" cx="597" cy="570.6" rx="139.9" ry="232.1"/>
			</g>
			<g>
				<g>
					<g>
						<path class="st104" d="M701.2,500.9c0,10.4-43.2,10.4-105,10.4c-62.9,0-61.8,0-61.8-10.4c0-10.4-1.1-10.4,61.8-10.4
							C658,490.6,701.2,490.6,701.2,500.9z"/>
						<line class="st104" x1="480.2" y1="500.8" x2="511.2" y2="500.8"/>
					</g>
					<g>
						<path class="st10" d="M701.2,541.9c0,10.4-43.2,10.4-105,10.4c-62.9,0-61.8,0-61.8-10.4c0-10.4-1.1-10.4,61.8-10.4
							C658,531.6,701.2,531.6,701.2,541.9z"/>
						<line class="st105" x1="480.2" y1="541.8" x2="511.2" y2="541.8"/>
					</g>
					<g>
						<path class="st104" d="M701.2,541.9c0,10.4-43.2,10.4-105,10.4c-62.9,0-61.8,0-61.8-10.4c0-10.4-1.1-10.4,61.8-10.4
							C658,531.6,701.2,531.6,701.2,541.9z"/>
						<line class="st104" x1="480.2" y1="541.8" x2="511.2" y2="541.8"/>
					</g>
					<g>
						<path class="st104" d="M701.2,582.9c0,10.4-43.2,10.4-105,10.4c-62.9,0-61.8,0-61.8-10.4c0-10.4-1.1-10.4,61.8-10.4
							C658,572.6,701.2,572.6,701.2,582.9z"/>
						<line class="st104" x1="480.2" y1="582.8" x2="511.2" y2="582.8"/>
					</g>
				</g>
				<rect x="491.2" y="383.4" class="st49" width="212.1" height="109.4"/>
				<text transform="matrix(1 0 0 1 547.1711 409.8517)"><tspan x="0" y="0" class="st106 st107">triste</tspan><tspan x="-53" y="43.2" class="st106 st107">formulario</tspan></text>
				<g>
					<g>
						<g>
							<g>
								<circle class="st20" cx="634" cy="656.8" r="20"/>
							</g>
							<g>
								<circle class="st5" cx="634" cy="656.8" r="13.7"/>
							</g>
						</g>
						<g>
							<circle class="st20" cx="560.2" cy="656.8" r="20"/>
						</g>
						<g>
							<circle class="st5" cx="560.2" cy="656.8" r="13.7"/>
						</g>
					</g>
					<g>
						<path class="st5" d="M599.8,697.5c42.9,0,52.5,17.4,53.4,19.4c1.2,2.5,0.1,5.6-2.4,6.8c-2.5,1.2-5.5,0.2-6.7-2.3
							c-0.3-0.5-8.4-13.8-44.3-13.8c-37.4,0-49.5,14.5-49.6,14.6c-1.8,2.2-4.9,2.5-7.1,0.8c-2.2-1.7-2.6-4.9-0.9-7.1
							C542.7,715.2,556.8,697.5,599.8,697.5z"/>
					</g>
				</g>
			</g>
		</g>
	</g>
	<g>
		<defs>
			<rect id="SVGID_00000116928432283770640900000007142247502663132580_" x="1.7" y="4.8" width="897" height="897"/>
		</defs>
		<clipPath id="SVGID_00000021080880426662219230000000314490677278241967_">
			<use xlink:href="#SVGID_00000116928432283770640900000007142247502663132580_"  style="overflow:visible;"/>
		</clipPath>
		
			<g transform="matrix(1 0 0 1 7.629395e-06 0)" style="opacity:0.24;clip-path:url(#SVGID_00000021080880426662219230000000314490677278241967_);">
			
				<image style="overflow:visible;" width="872" height="872" xlink:href="5BE910D057F46EC.png"  transform="matrix(1.2385 0 0 1.2385 -111.5 -120)">
			</image>
		</g>
	</g>
</g>
<g id="halftone">
</g>
</svg>
