<?xml version="1.0" encoding="utf-8"?>
<!-- Generator: Adobe Illustrator 27.3.1, SVG Export Plug-In . SVG Version: 6.00 Build 0)  -->
<svg version="1.1" xmlns="http://www.w3.org/2000/svg" xmlns:xlink="http://www.w3.org/1999/xlink" x="0px" y="0px"
	 viewBox="0 0 900 900" style="enable-background:new 0 0 900 900;" xml:space="preserve">
<style type="text/css">
	.st0{fill:none;}
	.st1{fill:#FCCF72;}
	.st2{display:none;}
	.st3{display:inline;opacity:0.28;}
	.st4{fill:none;stroke:#000000;stroke-width:0.75;stroke-miterlimit:10;}
	.st5{fill:none;stroke:#000000;stroke-width:4;stroke-linecap:round;stroke-linejoin:round;stroke-miterlimit:10;}
	.st6{fill:#FCCF72;stroke:#1A2276;stroke-width:6;stroke-miterlimit:10;}
	.st7{fill:#1A2276;}
	.st8{fill:#EBEAD8;}
	.st9{fill:#ED8376;stroke:#E90302;stroke-width:17;stroke-linecap:round;stroke-linejoin:round;stroke-miterlimit:10;}
	.st10{fill:#E90302;}
	.st11{fill:#8288A8;}
	.st12{fill:#EBEAD8;stroke:#1A2276;stroke-width:6;stroke-miterlimit:10;}
	.st13{fill:none;stroke:#1A2276;stroke-width:6;stroke-miterlimit:10;}
	.st14{fill:#E90302;stroke:#1A2276;stroke-width:6;stroke-miterlimit:10;}
	.st15{fill:#EBBFAF;}
	
		.st16{clip-path:url(#SVGID_00000141417170705373525140000013281861720316540548_);fill:#FCCF72;stroke:#1A2276;stroke-width:6;stroke-miterlimit:10;}
	
		.st17{clip-path:url(#SVGID_00000065778193799596295990000011648763574415459476_);fill:#FCCF72;stroke:#1A2276;stroke-width:6;stroke-miterlimit:10;}
	
		.st18{clip-path:url(#SVGID_00000041289258517458674880000001330100404787336102_);fill:#FCCF72;stroke:#1A2276;stroke-width:6;stroke-miterlimit:10;}
	
		.st19{clip-path:url(#SVGID_00000080180078403528874760000009923587737510399873_);fill:#FCCF72;stroke:#1A2276;stroke-width:6;stroke-miterlimit:10;}
	
		.st20{clip-path:url(#SVGID_00000175305935017036822180000015006974448897999288_);fill:#FCCF72;stroke:#1A2276;stroke-width:6;stroke-miterlimit:10;}
	.st21{fill:#FFFFFF;}
	
		.st22{clip-path:url(#SVGID_00000142885751843496237700000009289691623778375560_);fill:#FCCF72;stroke:#1A2276;stroke-width:6;stroke-miterlimit:10;}
	.st23{fill:none;stroke:#1A2276;stroke-width:6;stroke-linecap:round;stroke-miterlimit:10;}
	
		.st24{clip-path:url(#SVGID_00000039129489730748725020000015263216467200411823_);fill:#FCCF72;stroke:#1A2276;stroke-width:6;stroke-miterlimit:10;}
	
		.st25{clip-path:url(#SVGID_00000015342895563834178440000011425292713098660487_);fill:#FCCF72;stroke:#1A2276;stroke-width:6;stroke-miterlimit:10;}
	
		.st26{clip-path:url(#SVGID_00000093172093229734135880000003771811359030035614_);fill:#FCCF72;stroke:#1A2276;stroke-width:6;stroke-miterlimit:10;}
	
		.st27{clip-path:url(#SVGID_00000073717813121179089920000003328344727437339569_);fill:#FCCF72;stroke:#1A2276;stroke-width:6;stroke-miterlimit:10;}
	
		.st28{clip-path:url(#SVGID_00000160870973478288250710000006017244637958818970_);fill:#FCCF72;stroke:#1A2276;stroke-width:6;stroke-miterlimit:10;}
	
		.st29{clip-path:url(#SVGID_00000078730310778719866180000010064905197354022830_);fill:#FCCF72;stroke:#1A2276;stroke-width:6;stroke-miterlimit:10;}
	.st30{fill:none;stroke:#000000;stroke-width:4;stroke-miterlimit:10;}
	.st31{fill:#FCCF72;stroke:#000000;stroke-width:4;stroke-miterlimit:10;}
	.st32{fill:none;stroke:#000000;stroke-width:5;stroke-linecap:round;stroke-miterlimit:10;}
	
		.st33{clip-path:url(#SVGID_00000002375152068012088190000008212262482974934443_);fill:#FCCF72;stroke:#1A2276;stroke-width:6;stroke-miterlimit:10;}
	
		.st34{clip-path:url(#SVGID_00000121972389341720776000000005508455204860410300_);fill:#FCCF72;stroke:#1A2276;stroke-width:6;stroke-miterlimit:10;}
	
		.st35{clip-path:url(#SVGID_00000167370064918935355120000008866092848793006479_);fill:#FCCF72;stroke:#1A2276;stroke-width:6;stroke-miterlimit:10;}
	
		.st36{clip-path:url(#SVGID_00000054955443600068726330000018384961500179095971_);fill:#FCCF72;stroke:#1A2276;stroke-width:6;stroke-miterlimit:10;}
	.st37{fill:#E90302;stroke:#EBBFAF;stroke-width:6;stroke-miterlimit:10;}
	.st38{clip-path:url(#SVGID_00000156583039848465518110000011027414031820789400_);fill:#FCCF72;}
	.st39{clip-path:url(#SVGID_00000156583039848465518110000011027414031820789400_);fill:#1A2276;}
	.st40{clip-path:url(#SVGID_00000040534759194988638600000017936578054128186518_);fill:#8288A8;}
	.st41{fill:#020202;}
	.st42{clip-path:url(#SVGID_00000164510162503517693330000005957943982573153201_);}
	.st43{fill:#EBEAD8;stroke:#1A2276;stroke-width:3;stroke-miterlimit:10;}
	.st44{fill:#8288A8;stroke:#8288A8;stroke-miterlimit:10;}
	.st45{font-family:'Aptly-Bold';}
	.st46{font-size:40.1137px;}
	.st47{letter-spacing:4;}
	.st48{fill:#1A2276;stroke:#FCCF72;stroke-width:6;stroke-miterlimit:10;}
	.st49{fill:none;stroke:#EBEAD8;stroke-width:6;stroke-miterlimit:10;}
	.st50{fill:#8288A8;stroke:#1A2276;stroke-width:6;stroke-miterlimit:10;}
	.st51{fill:#FCCF72;stroke:#8288A8;stroke-width:6;stroke-miterlimit:10;}
	.st52{clip-path:url(#SVGID_00000080921106237432611150000016663025194003031194_);}
	.st53{font-size:96.779px;}
	.st54{fill:#ED8376;}
	.st55{fill:url(#Unnamed_Pattern);}
	.st56{fill:#1A2276;stroke:url(#);stroke-miterlimit:10;}
	.st57{fill:url(#SVGID_00000111169590715957520670000001811919907981490583_);}
	.st58{fill:url(#SVGID_00000002361689277439314830000018274936583287482540_);}
	.st59{fill:url(#SVGID_00000080196686150665119120000007613613483687298704_);}
	.st60{fill:#ED8376;stroke:#E90302;stroke-width:6;stroke-linecap:round;stroke-linejoin:round;stroke-miterlimit:10;}
	.st61{fill:none;stroke:#E90302;stroke-width:6;stroke-linecap:round;stroke-linejoin:round;stroke-miterlimit:10;}
	.st62{fill:none;stroke:#E90302;stroke-width:5;stroke-linecap:round;stroke-linejoin:round;stroke-miterlimit:10;}
	.st63{fill:#FFFFFF;stroke:#000000;stroke-width:6;stroke-miterlimit:10;}
	.st64{fill:#FFFDFD;stroke:#1A2276;stroke-width:7;stroke-miterlimit:10;}
	
		.st65{clip-path:url(#SVGID_00000121249856206374572920000006297273814650084253_);fill:#FCCF72;stroke:#1A2276;stroke-width:6;stroke-miterlimit:10;}
	
		.st66{clip-path:url(#SVGID_00000086683991740357281650000012738933296160959896_);fill:#FCCF72;stroke:#1A2276;stroke-width:6;stroke-miterlimit:10;}
	.st67{fill:none;stroke:#E90302;stroke-width:6;stroke-linecap:round;stroke-miterlimit:10;}
	
		.st68{clip-path:url(#SVGID_00000151538893361172563750000013388797948357581734_);fill:#FCCF72;stroke:#1A2276;stroke-width:6;stroke-miterlimit:10;}
	
		.st69{clip-path:url(#SVGID_00000158021004886656682960000012780720774031552144_);fill:#FCCF72;stroke:#1A2276;stroke-width:6;stroke-miterlimit:10;}
	
		.st70{clip-path:url(#SVGID_00000174587798800416273810000012637522281007996039_);fill:#FCCF72;stroke:#1A2276;stroke-width:6;stroke-miterlimit:10;}
	.st71{fill:none;stroke:#1A2276;stroke-width:7;stroke-miterlimit:10;}
	
		.st72{clip-path:url(#SVGID_00000110439115860045335600000001282409337710361503_);fill:#FCCF72;stroke:#1A2276;stroke-width:6;stroke-miterlimit:10;}
	.st73{clip-path:url(#SVGID_00000051360211822510042500000002585186045502394800_);}
	
		.st74{clip-path:url(#SVGID_00000170992530385717581790000010197274620222685337_);fill:#FCCF72;stroke:#1A2276;stroke-width:6;stroke-miterlimit:10;}
	
		.st75{clip-path:url(#SVGID_00000140012601762197773550000013900894615170467731_);fill:#FCCF72;stroke:#1A2276;stroke-width:6;stroke-miterlimit:10;}
	
		.st76{clip-path:url(#SVGID_00000062905225284001900770000002283991996276078980_);fill:#FCCF72;stroke:#1A2276;stroke-width:6;stroke-miterlimit:10;}
	.st77{clip-path:url(#SVGID_00000116934910666525264260000010416357535480789937_);}
	.st78{clip-path:url(#SVGID_00000085970808567626736090000010768258832472629132_);}
	.st79{clip-path:url(#SVGID_00000059286500837688665790000005078792897215166876_);}
	.st80{opacity:0.5;}
	.st81{clip-path:url(#SVGID_00000080892159389448431100000000398759051166354074_);}
	.st82{clip-path:url(#SVGID_00000147215307563746680390000002638620612008556952_);}
	.st83{fill:#FFFDFD;}
	.st84{clip-path:url(#SVGID_00000101804800677511127420000003377440610356260012_);}
	.st85{opacity:0.8;}
	
		.st86{clip-path:url(#SVGID_00000065788470187108148950000015341729556365838004_);fill:#FCCF72;stroke:#1A2276;stroke-width:6;stroke-miterlimit:10;}
	
		.st87{clip-path:url(#SVGID_00000101097981259999772070000005877500619473779329_);fill:#FCCF72;stroke:#1A2276;stroke-width:6;stroke-miterlimit:10;}
	.st88{clip-path:url(#SVGID_00000085208349348681970320000017650998762517527432_);}
	.st89{clip-path:url(#SVGID_00000040571207233789427920000013937952718561165749_);}
	.st90{clip-path:url(#SVGID_00000170962223600070579340000003295681111088593338_);}
	.st91{clip-path:url(#SVGID_00000118394453544938777130000004782056770003600820_);}
	.st92{clip-path:url(#SVGID_00000031901517714287546350000014947362393805879433_);}
	.st93{fill:none;stroke:#1A2276;stroke-width:19;stroke-miterlimit:10;}
	.st94{clip-path:url(#SVGID_00000080923206639508523280000014981975251770159783_);}
	.st95{font-size:28px;}
	.st96{font-family:'Aptly';}
	.st97{font-size:70.9205px;}
	.st98{fill:none;stroke:#1A2276;stroke-width:10;stroke-miterlimit:10;}
	.st99{clip-path:url(#SVGID_00000064351683460163465060000015872621878094496924_);}
	.st100{clip-path:url(#SVGID_00000096780739176783253980000010852635122109681539_);fill:#FCCF72;}
	.st101{clip-path:url(#SVGID_00000096780739176783253980000010852635122109681539_);fill:#1A2276;}
	.st102{clip-path:url(#SVGID_00000044862572619441632180000007000390586091082377_);}
	.st103{clip-path:url(#SVGID_00000114770190430750473220000011383705474009053063_);}
	.st104{clip-path:url(#SVGID_00000114770190430750473220000011383705474009053063_);fill:none;}
	.st105{clip-path:url(#SVGID_00000056396232625700383340000000580817174043097744_);fill:#8288A8;}
	.st106{clip-path:url(#SVGID_00000056396232625700383340000000580817174043097744_);fill:#FCCF72;}
	.st107{fill:#FFFFFF;stroke:#FFFFFF;stroke-width:6;stroke-miterlimit:10;}
	.st108{fill:none;stroke:#8288A8;stroke-width:6;stroke-miterlimit:10;}
	.st109{clip-path:url(#SVGID_00000083788126113985925100000002330168602705020803_);}
	.st110{clip-path:url(#SVGID_00000079466300484328173770000008815350673046246059_);}
	.st111{clip-path:url(#SVGID_00000036238018328513369800000000768151814187529919_);}
	.st112{clip-path:url(#SVGID_00000168076860028882602720000006012153557676174517_);}
	.st113{clip-path:url(#SVGID_00000024712429237057277680000012114963228019295419_);}
	.st114{fill:#EBEAD8;stroke:#1A2276;stroke-width:12;stroke-miterlimit:10;}
	.st115{fill:none;stroke:#1A2276;stroke-width:12;stroke-miterlimit:10;}
	.st116{clip-path:url(#SVGID_00000096019134759333000250000003674301312813553583_);}
	.st117{clip-path:url(#SVGID_00000106844164818425353310000003661017710995807369_);}
	.st118{clip-path:url(#SVGID_00000137821727827032404960000011209415211847143580_);}
	.st119{clip-path:url(#SVGID_00000051374929018525718930000015235672249299897992_);}
	.st120{clip-path:url(#SVGID_00000156555841243030686630000017419329992652679591_);}
	.st121{clip-path:url(#SVGID_00000126294345174891739690000014992675461769341320_);fill:#8288A8;}
	.st122{clip-path:url(#SVGID_00000126294345174891739690000014992675461769341320_);fill:#FCCF72;}
	.st123{clip-path:url(#SVGID_00000009586160254676539340000000443967774403328904_);}
	.st124{clip-path:url(#SVGID_00000069390986213013384420000015412262747011100293_);fill:#E90302;}
	.st125{clip-path:url(#SVGID_00000176016388710628202090000009125581027394920346_);fill:none;}
	.st126{clip-path:url(#SVGID_00000180334924647163066750000001257485558324241074_);}
	.st127{clip-path:url(#SVGID_00000166656433638173455600000015908920267992752569_);}
	.st128{clip-path:url(#SVGID_00000151526378011471393340000007936730169667368598_);}
	.st129{clip-path:url(#SVGID_00000106827056892379865130000017349857952909874088_);}
	.st130{clip-path:url(#SVGID_00000111163333529706199800000000650281015625497744_);}
	.st131{clip-path:url(#SVGID_00000158716088851313353150000009324381522246484640_);}
	.st132{clip-path:url(#SVGID_00000050631236914028838800000011198820431954853051_);}
	.st133{clip-path:url(#SVGID_00000032619230390414476140000007933634973054923422_);}
	.st134{clip-path:url(#SVGID_00000139993286977828161730000006099782341347952565_);}
	.st135{clip-path:url(#SVGID_00000143588512894757926290000000517817609951381403_);}
	.st136{clip-path:url(#SVGID_00000181067832877651739760000000976489693443339444_);}
	.st137{clip-path:url(#SVGID_00000028317012336267334970000002126698504324692127_);}
	.st138{clip-path:url(#SVGID_00000011012150452884790690000011651470784933374361_);fill:#EBEAD8;}
	.st139{clip-path:url(#SVGID_00000011012150452884790690000011651470784933374361_);}
	.st140{clip-path:url(#SVGID_00000089565570313264032180000017771579308661868698_);}
	.st141{clip-path:url(#SVGID_00000114050295329164418710000002772563986621966468_);}
	.st142{clip-path:url(#SVGID_00000070078247236077690160000002506008379008946322_);}
	.st143{clip-path:url(#SVGID_00000152227992109256957410000012940662229849293210_);}
	.st144{clip-path:url(#SVGID_00000016789319251512252570000005605919988860735374_);}
	.st145{fill:#ED8376;stroke:#1A2276;stroke-width:6;stroke-miterlimit:10;}
	.st146{fill:url(#Unnamed_Pattern);stroke:#1A2276;stroke-width:6;stroke-miterlimit:10;}
	.st147{clip-path:url(#SVGID_00000069371766399825653570000015054278721755540121_);}
	
		.st148{fill:url(#SVGID_00000018956017274301437090000003776285673642391478_);stroke:#1A2276;stroke-width:6;stroke-miterlimit:10;}
	.st149{fill:url(#SVGID_00000014605965714647199210000017867886890073702063_);}
	.st150{fill:url(#SVGID_00000166652130628544673010000001627365606656927134_);}
	
		.st151{clip-path:url(#SVGID_00000136379353876092058770000009166950474684293279_);fill:#FCCF72;stroke:#1A2276;stroke-width:6;stroke-miterlimit:10;}
	.st152{fill:none;stroke:#FCCF72;stroke-width:6;stroke-linecap:round;stroke-miterlimit:10;}
	.st153{clip-path:url(#SVGID_00000033359166835136552550000018045388622095426194_);}
</style>
<pattern  x="-2209.5" y="-6074" width="40" height="40" patternUnits="userSpaceOnUse" id="Unnamed_Pattern" viewBox="0 -40 40 40" style="overflow:visible;">
	<g>
		<rect y="-40" class="st0" width="40" height="40"/>
		<rect y="-40" class="st1" width="40" height="40"/>
	</g>
</pattern>
<g id="guias" class="st2">
</g>
<g id="Layer_2">
</g>
<g id="Layer_1">
	<rect x="-0.5" y="2" class="st8" width="899" height="896"/>
	<g>
		<polygon class="st9" points="223.2,67.4 221.2,98.4 239.5,123.9 218.1,146 216.1,177 185.4,179.8 164,201.9 138.3,184.1 
			107.5,186.9 98.8,156.8 73.1,139 85.5,110.8 76.9,80.7 104.6,67.5 117.1,39.2 147.1,47.2 174.8,34 193.2,59.4 		"/>
		<g>
			<g>
				<path class="st8" d="M144.8,161.9c0-4.7,3.8-8.5,8.5-8.5c4.7,0,8.5,3.8,8.5,8.5v5.3h4.6c4.7,0,8.5,3.8,8.5,8.5s-3.8,8.5-8.5,8.5
					h-12.8c-4,0-7.3-2.7-8.3-6.4c-0.4-1-0.6-2-0.6-3.2V161.9z"/>
				<path class="st7" d="M166.4,185.4h-12.8c-4.4,0-8.2-2.9-9.3-7.2c-0.4-1.1-0.7-2.3-0.7-3.5v-12.8c0-5.3,4.3-9.6,9.6-9.6
					c5.3,0,9.6,4.3,9.6,9.6v4.3h3.5c5.3,0,9.6,4.3,9.6,9.6C176,181.1,171.7,185.4,166.4,185.4z M153.3,154.5c-4.1,0-7.4,3.3-7.4,7.4
					v12.8c0,1,0.2,1.9,0.5,2.8l0,0.1c0.8,3.3,3.8,5.6,7.2,5.6h12.8c4.1,0,7.4-3.3,7.4-7.4c0-4.1-3.3-7.4-7.4-7.4h-5.7v-6.4
					C160.8,157.8,157.4,154.5,153.3,154.5z"/>
			</g>
			<g>
				<line class="st8" x1="174.9" y1="177.7" x2="145.5" y2="177.7"/>
				<rect x="145.5" y="176.7" class="st7" width="29.4" height="2.1"/>
			</g>
			<g>
				<line class="st8" x1="161.8" y1="167.3" x2="157.4" y2="173.1"/>
				
					<rect x="155.9" y="169.1" transform="matrix(0.6034 -0.7974 0.7974 0.6034 -72.435 194.7762)" class="st7" width="7.3" height="2.1"/>
			</g>
			<g>
				<line class="st8" x1="166.1" y1="168" x2="161.6" y2="173.9"/>
				
					<rect x="160.2" y="169.9" transform="matrix(0.6034 -0.7974 0.7974 0.6034 -71.3127 198.4516)" class="st7" width="7.3" height="2.1"/>
			</g>
			<g>
				<line class="st8" x1="170.3" y1="168.7" x2="165.9" y2="174.6"/>
				
					<rect x="164.4" y="170.6" transform="matrix(0.6034 -0.7974 0.7974 0.6034 -70.1905 202.127)" class="st7" width="7.3" height="2.1"/>
			</g>
			<g>
				<circle class="st8" cx="152.4" cy="168.2" r="3.5"/>
				<path class="st7" d="M152.4,172.8c-2.5,0-4.6-2.1-4.6-4.6c0-2.5,2.1-4.6,4.6-4.6s4.6,2.1,4.6,4.6
					C157,170.7,155,172.8,152.4,172.8z M152.4,165.7c-1.4,0-2.5,1.1-2.5,2.5s1.1,2.5,2.5,2.5s2.5-1.1,2.5-2.5
					S153.8,165.7,152.4,165.7z"/>
			</g>
			<g>
				<g>
					<path class="st8" d="M112.2,161.9c0-4.7,3.8-8.5,8.5-8.5s8.5,3.8,8.5,8.5v5.3h4.6c4.7,0,8.5,3.8,8.5,8.5s-3.8,8.5-8.5,8.5H121
						c-4,0-7.3-2.7-8.3-6.4c-0.4-1-0.6-2-0.6-3.2V161.9z"/>
					<path class="st7" d="M133.8,185.4H121c-4.4,0-8.2-2.9-9.3-7.2c-0.4-1.1-0.7-2.3-0.7-3.5v-12.8c0-5.3,4.3-9.6,9.6-9.6
						c5.3,0,9.6,4.3,9.6,9.6v4.3h3.5c5.3,0,9.6,4.3,9.6,9.6C143.4,181.1,139.1,185.4,133.8,185.4z M120.7,154.5
						c-4.1,0-7.4,3.3-7.4,7.4v12.8c0,1,0.2,1.9,0.5,2.8l0,0.1c0.8,3.3,3.8,5.6,7.2,5.6h12.8c4.1,0,7.4-3.3,7.4-7.4
						c0-4.1-3.3-7.4-7.4-7.4h-5.7v-6.4C128.1,157.8,124.8,154.5,120.7,154.5z"/>
				</g>
				<g>
					<line class="st8" x1="142.3" y1="177.7" x2="112.9" y2="177.7"/>
					<rect x="112.9" y="176.7" class="st7" width="29.4" height="2.1"/>
				</g>
				<g>
					<line class="st8" x1="129.2" y1="167.3" x2="124.8" y2="173.1"/>
					
						<rect x="123.3" y="169.1" transform="matrix(0.6034 -0.7974 0.7974 0.6034 -85.3759 168.7549)" class="st7" width="7.3" height="2.1"/>
				</g>
				<g>
					<line class="st8" x1="133.5" y1="168" x2="129" y2="173.9"/>
					
						<rect x="127.6" y="169.9" transform="matrix(0.6034 -0.7974 0.7974 0.6034 -84.2536 172.4303)" class="st7" width="7.3" height="2.1"/>
				</g>
				<g>
					<line class="st8" x1="137.7" y1="168.7" x2="133.3" y2="174.6"/>
					
						<rect x="131.8" y="170.6" transform="matrix(0.6034 -0.7974 0.7974 0.6034 -83.1313 176.1057)" class="st7" width="7.3" height="2.1"/>
				</g>
				<g>
					<circle class="st8" cx="119.8" cy="168.2" r="3.5"/>
					<path class="st7" d="M119.8,172.8c-2.5,0-4.6-2.1-4.6-4.6c0-2.5,2.1-4.6,4.6-4.6s4.6,2.1,4.6,4.6
						C124.4,170.7,122.3,172.8,119.8,172.8z M119.8,165.7c-1.4,0-2.5,1.1-2.5,2.5s1.1,2.5,2.5,2.5c1.4,0,2.5-1.1,2.5-2.5
						S121.2,165.7,119.8,165.7z"/>
				</g>
			</g>
			<g>
				<ellipse class="st8" cx="146.7" cy="125.4" rx="38.1" ry="29.8"/>
				<path class="st7" d="M146.7,156.3c-19.3,0-29,0-34-3.9c-5.2-4-5.2-11.7-5.2-26.9s0-22.9,5.2-26.9c5.1-3.9,14.7-3.9,34-3.9
					c19.3,0,29,0,34,3.7c5.2,3.8,5.2,11.1,5.2,25.5l0,1.6l0,1.6c0,14.4,0,21.7-5.2,25.5C175.7,156.3,166,156.3,146.7,156.3z
					 M146.7,96.7c-18.8,0-28.2,0-32.7,3.5c-4.4,3.4-4.4,10.7-4.4,25.2s0,21.8,4.4,25.2c4.5,3.5,13.9,3.5,32.7,3.5
					c18.8,0,28.3,0,32.7-3.3c4.3-3.2,4.3-10.1,4.3-23.8l0-1.6l0-1.6c0-13.7,0-20.6-4.3-23.8C175,96.7,165.6,96.7,146.7,96.7z"/>
			</g>
			<g>
				<path class="st10" d="M146.9,144.6c-38.8,0-38.3-12.2-38.3-11.5c0,27.8,0.2,27.8,38.1,27.8c37.3,0,38.1,0,38.1-27.8
					C184.9,132.4,185.1,144.6,146.9,144.6z"/>
				<path class="st7" d="M146.8,162c-19.2,0-28.9,0-33.9-3.7c-5.3-3.8-5.3-11.4-5.3-25.2h0c0-0.5,0.2-0.7,0.3-0.8l0.5-0.5l1.3,0.5
					v0.7c0.1,0.5,2,10.5,37.2,10.5c35.1,0,36.9-10.2,36.9-10.6l0.1-1l2,0.1l0,1c0,14.4-0.2,21.5-5.5,25.2
					C175.3,162,165.8,162,146.8,162z M109.7,137.1c0,10.8,0.5,16.6,4.4,19.4c4.5,3.3,13.9,3.3,32.7,3.3c18.5,0,27.8,0,32.4-3.3
					c4-2.8,4.6-8.5,4.6-19.5c-0.9,0.9-2.1,1.9-3.7,2.9c-6.6,3.8-17.8,5.7-33.1,5.7c-13.4,0-23.6-1.4-30.5-4.3
					C113.1,140,111,138.5,109.7,137.1z"/>
			</g>
			<g>
				<line class="st8" x1="180.2" y1="113.4" x2="124.7" y2="113.4"/>
				<rect x="124.7" y="112.3" class="st7" width="55.5" height="2.1"/>
			</g>
			<g>
				<line class="st8" x1="118.2" y1="112.7" x2="118.2" y2="119.7"/>
				<rect x="117.1" y="112.7" class="st7" width="2.1" height="7.1"/>
			</g>
			<g>
				<path class="st8" d="M172.9,123.8c0,0-1.6-4.6-6.5-3.8c-4.9,0.8-5.5,3.8-5.5,3.8"/>
				<path class="st7" d="M171.9,124.1c-0.1-0.2-1.4-3.8-5.4-3.1c-4,0.7-4.6,2.9-4.6,3l-2.1-0.4c0-0.2,0.7-3.7,6.3-4.7
					c4.6-0.8,7.1,2.6,7.7,4.5L171.9,124.1z"/>
			</g>
			<g>
				<path class="st8" d="M150.6,124.1c0,0-1.6-4.6-6.5-3.8c-4.9,0.8-5.5,3.8-5.5,3.8"/>
				<path class="st7" d="M149.6,124.5c-0.1-0.2-1.4-3.8-5.4-3.1c-4,0.7-4.6,2.9-4.6,3l-2.1-0.4c0-0.2,0.7-3.7,6.3-4.7
					c4.6-0.8,7.1,2.6,7.7,4.5L149.6,124.5z"/>
			</g>
			<g>
				<path class="st8" d="M162.8,128.3c0,0,1.3,5.3-4.4,6.1c-6,0.9-6.4-5.1-6.4-5.1"/>
				<path class="st7" d="M157.1,135.6c-1.5,0-2.8-0.4-3.8-1.3c-2.2-1.8-2.5-4.8-2.5-4.9l2.1-0.2c0,0,0.2,2.2,1.7,3.4
					c0.9,0.7,2,0.9,3.5,0.7c1.4-0.2,2.5-0.8,3-1.6c0.9-1.4,0.5-3.2,0.5-3.2l2.1-0.5c0,0.1,0.6,2.7-0.8,4.9c-0.9,1.4-2.4,2.2-4.5,2.5
					C158,135.6,157.6,135.6,157.1,135.6z"/>
			</g>
			<g>
				<path class="st8" d="M100.5,128.1c4.3-1.9,9.3,0.1,11.2,4.4l5.1,11.7c1.9,4.3-0.1,9.3-4.4,11.2c-4.3,1.9-9.3-0.1-11.2-4.4
					l-5.1-11.7C94.2,135,96.2,130,100.5,128.1z"/>
				<path class="st7" d="M109.1,157.2c-1.2,0-2.4-0.2-3.5-0.7c-2.4-0.9-4.3-2.7-5.3-5.1l-5.1-11.7c-2.1-4.8,0.1-10.5,4.9-12.6
					c2.3-1,4.9-1.1,7.3-0.1c2.4,0.9,4.3,2.7,5.3,5.1l5.1,11.7c1,2.3,1.1,4.9,0.1,7.3c-0.9,2.4-2.7,4.3-5.1,5.3
					C111.7,156.9,110.4,157.2,109.1,157.2z M103.9,128.5c-1,0-2,0.2-3,0.6c-1.8,0.8-3.2,2.3-3.9,4.1c-0.7,1.9-0.7,3.9,0.1,5.7
					l5.1,11.7c1.6,3.8,6,5.5,9.8,3.8c1.8-0.8,3.2-2.3,3.9-4.1c0.7-1.9,0.7-3.9-0.1-5.7l-5.1-11.7
					C109.5,130.1,106.8,128.5,103.9,128.5z"/>
			</g>
			<g>
				<circle class="st7" cx="116.1" cy="97.8" r="13.5"/>
			</g>
			<g>
				<circle class="st7" cx="160.1" cy="82.2" r="13.5"/>
			</g>
			<g>
				<ellipse class="st7" cx="139.9" cy="86.4" rx="24.5" ry="18.4"/>
			</g>
			<g>
				<ellipse class="st7" cx="168.3" cy="86.4" rx="24.5" ry="18.4"/>
			</g>
			<g>
				<g>
					<ellipse class="st8" cx="189.3" cy="116.2" rx="11.4" ry="9.6"/>
					<path class="st7" d="M189.3,126.8c-6.9,0-12.5-4.8-12.5-10.7s5.6-10.7,12.5-10.7c6.9,0,12.5,4.8,12.5,10.7
						S196.1,126.8,189.3,126.8z M189.3,107.6c-5.7,0-10.3,3.8-10.3,8.6c0,4.7,4.6,8.6,10.3,8.6c5.7,0,10.3-3.8,10.3-8.6
						C199.6,111.4,195,107.6,189.3,107.6z"/>
				</g>
				<g>
					<path class="st8" d="M202.8,86.2c-2.5-1.3-5.7-0.1-7.1,2.6c0,0.1-0.1,0.1-0.1,0.2l0,0l-3.8,7.6v-8.5h0c0-0.1,0-0.1,0-0.2
						c0-3.1-2.3-5.5-5.2-5.5s-5.2,2.5-5.2,5.5c0,0.1,0,0.1,0,0.2h0v15.3h8.6l7.9,4l6.9-13.7l0,0c0-0.1,0.1-0.1,0.1-0.2
						C206.3,90.8,205.3,87.5,202.8,86.2z"/>
					<path class="st7" d="M198.4,108.8l-8.6-4.3h-9.4V87h0.1c0.4-3.2,3-5.7,6.2-5.7s5.8,2.5,6.2,5.7h0l0,0.7c0,0.1,0,0.1,0,0.2
						c0,0,0,0,0,0.1l0,0.1v4.1l2.3-4.5l0,0c0.8-1.2,1.9-2.1,3.2-2.6c1.6-0.6,3.3-0.5,4.8,0.2c1.5,0.8,2.6,2.1,3.1,3.7
						c0.4,1.4,0.3,2.8-0.1,4.1l0,0l-0.3,0.6c0,0.1-0.1,0.1-0.1,0.2c0,0,0,0,0,0.1l-0.1,0.1L198.4,108.8z M182.5,102.3h7.8l7.2,3.6
						l5.9-11.7l0,0l0.5-1c0,0,0-0.1,0.1-0.1l0,0c0.5-1.1,0.7-2.3,0.3-3.4c-0.3-1.1-1-2-2-2.4c-1-0.5-2.1-0.5-3.1-0.1
						c-1.1,0.4-2,1.2-2.5,2.3l0,0c0,0,0,0.1,0,0.1l-0.5,1l0,0l-5.3,10.6v-12h0l0-1.3c0-2.5-1.8-4.5-4.1-4.5s-4.1,2-4.1,4.5l0,0.2
						l0,1.1h0V102.3z"/>
				</g>
				<g>
					<path class="st8" d="M190.4,109.9c-2.3,1.1-3.3,4.1-2.1,6.6c1.2,2.6,4.1,3.8,6.4,2.7c0,0,0.1-0.1,0.1-0.1l0,0l7.8-3.2
						c4.4-3.7,0.9-10.5-4.3-9.4l-7.8,3.2l0,0C190.5,109.9,190.5,109.9,190.4,109.9z"/>
					<path class="st7" d="M192.9,120.8c-2.3,0-4.5-1.4-5.6-3.8c-1.3-2.8-0.5-6,1.8-7.6l0-0.1l1-0.4l7.9-3.3l0.1,0
						c2.8-0.6,5.6,0.7,6.9,3.4c1.4,2.7,0.7,5.8-1.7,7.9l-0.1,0.1l-8,3.3c0,0,0,0-0.1,0c-0.2,0.1-0.3,0.1-0.5,0.2l-0.4,0.1l0,0
						C193.9,120.7,193.4,120.8,192.9,120.8z M190.4,109.9l0.4,1c-1.8,0.8-2.5,3.2-1.6,5.2c0.9,2.1,3.2,3.1,5,2.2l0.1-0.1l1-0.5
						l0,0.1l6.7-2.8c1.8-1.7,1.7-3.8,1-5.2c-0.7-1.3-2.2-2.7-4.5-2.3l-6.7,2.8l0,0l-1.1,0.5L190.4,109.9L190.4,109.9z"/>
				</g>
				<g>
					<path class="st8" d="M187.3,103.2c-2.8,1.3-4.1,4.4-2.9,7c1.2,2.6,4.4,3.7,7.2,2.4c0.1,0,0.1-0.1,0.2-0.1l0,0l9.3-3.9
						c5.3-4.2,1.8-10.9-4.3-9.4l-9.3,3.9l0,0C187.4,103.1,187.3,103.1,187.3,103.2z"/>
					<path class="st7" d="M189.2,114.2c-2.4,0-4.7-1.3-5.7-3.5c-0.7-1.5-0.7-3.2-0.1-4.8c0.5-1.3,1.5-2.4,2.7-3.2l0-0.1l1-0.4
						l9.4-3.9c3.8-1,6.5,0.9,7.6,3.1c1.4,2.8,0.4,6-2.4,8.2l-0.1,0.1l-9.4,4c0,0-0.1,0-0.1,0c-0.2,0.1-0.4,0.2-0.6,0.2l-0.3,0.1l0,0
						C190.5,114,189.8,114.2,189.2,114.2z M187.7,104.1c-1.1,0.5-1.9,1.4-2.4,2.4c-0.4,1-0.4,2.2,0,3.1c0.9,2.1,3.5,2.9,5.8,1.9
						l0.1-0.1l1-0.5l0,0.1l8.2-3.4c2.3-1.9,2.4-4,1.7-5.5c-0.7-1.3-2.4-2.7-5.1-2l-9.2,3.9C187.8,104.1,187.8,104.1,187.7,104.1
						L187.7,104.1z"/>
				</g>
				<g>
					<path class="st8" d="M181.9,103.5c-2.4-0.9-5.2,0.6-6.2,3.3s0.2,5.6,2.6,6.4c0.1,0,0.1,0,0.2,0l0,0l7.8,3.2
						c5.7,0.4,8-6.9,3.5-9.7l-7.8-3.2l0,0C182,103.5,182,103.5,181.9,103.5z"/>
					<path class="st7" d="M186.8,117.5c-0.2,0-0.4,0-0.5,0l-0.2,0l-8-3.3c0,0-0.1,0-0.1,0c-0.2-0.1-0.3-0.1-0.5-0.2l-0.3-0.1l0,0
						c-2.4-1.4-3.5-4.5-2.5-7.5c0.6-1.5,1.6-2.8,3-3.5c1.1-0.6,2.4-0.8,3.6-0.6l0-0.1l1,0.4l7.9,3.2l0.1,0c2.4,1.5,3.5,4.5,2.5,7.2
						C192.1,115.8,189.7,117.5,186.8,117.5z M186.6,115.4c2.5,0.1,3.9-1.5,4.4-3c0.5-1.4,0.3-3.5-1.6-4.7l-7.7-3.2c0,0-0.1,0-0.1,0
						l0,0c-0.9-0.3-1.9-0.2-2.8,0.2c-0.9,0.5-1.6,1.3-2,2.4c-0.8,2.1,0.1,4.4,2,5.1l0.1,0l1,0.3l0,0.1L186.6,115.4z"/>
				</g>
			</g>
		</g>
	</g>
	<g>
		<g>
			<polygon class="st10" points="827.1,410.6 69,463.4 69,396.7 827.1,343.8 			"/>
		</g>
		<text transform="matrix(1 -6.972903e-02 0 1 114.3905 443.6202)" class="st8 st45 st46 st47">INCREÍBLE · FANTÁSTICA · APOTEÓSICA</text>
	</g>
	<g>
		<polygon class="st7" points="64,158 832.1,104.4 832.1,331.7 64,385.2 		"/>
		<path class="st8" d="M827.1,109.8V327L69,379.8V162.6L827.1,109.8 M837.1,99.1l-10.7,0.7L68.3,152.7l-9.3,0.6v9.3v217.2v10.7
			l10.7-0.7L827.8,337l9.3-0.6V327V109.8V99.1L837.1,99.1z"/>
	</g>
	<g>
		<text transform="matrix(1 -6.972903e-02 0 1 108.7223 316.8586)" class="st11 st45 st53">cumple con la ley</text>
		<text transform="matrix(1 -6.972903e-02 0 1 112.6756 307.1415)" class="st7 st45 st53">cumple con la ley</text>
		<text transform="matrix(1 -6.972903e-02 0 1 120.5511 293.6822)" class="st8 st45 st53">cumple con la ley</text>
	</g>
</g>
<g id="web">
	<rect x="89.9" y="515.9" class="st0" width="323.6" height="368.3"/>
	<text transform="matrix(1 0 0 1 89.9229 538.9644)"><tspan x="0" y="0" class="st45 st95">Cumple con la ley. </tspan><tspan x="196.9" y="0" class="st96 st95">El RGPD </tspan><tspan x="0" y="33.6" class="st96 st95">(Régimen General de Protec</tspan><tspan x="291.5" y="33.6" class="st96 st95">-</tspan><tspan x="0" y="67.2" class="st96 st95">ción de Datos) obliga a tener </tspan><tspan x="0" y="100.8" class="st96 st95">una serie de textos en tu web </tspan><tspan x="0" y="134.4" class="st96 st95">para cumplir con la protección </tspan><tspan x="0" y="168" class="st96 st95">de datos de los usuarios.</tspan></text>
	<g>
		<g>
			<path class="st7" d="M224,499.4c-6.7,0-12-5.3-12-12v-15.8c0-8.9,4-17.2,11.1-22.8l2.8-2.2c2.4-1.8,5.2-3.5,8.6-3.5
				c6.7,0,12.4,5.6,12.4,12.2c0,3.9-1.7,7.3-4.8,9.7l-2.5,1.9c-0.1,0.1-0.3,0.2-0.4,0.4l0.9,0.5c4.5,2.4,7.3,5.1,7.3,11.3v8.5
				c0,6.7-5.3,12-12,12H224z M186.5,499.4c-6.7,0-12-5.3-12-12v-15.8c0-8.9,4-17.2,11.1-22.8l2.8-2.2c2.4-1.8,5.2-3.5,8.6-3.5
				c6.7,0,12.4,5.6,12.4,12.2c0,3.9-1.7,7.3-4.8,9.7l-2.5,1.9c-0.1,0.1-0.3,0.2-0.4,0.4l0.9,0.5c4.5,2.4,7.3,5.1,7.3,11.3v8.5
				c0,6.7-5.3,12-12,12H186.5z"/>
			<path class="st8" d="M234.4,448c3.8,0,7.4,3.2,7.4,7.2c0,1.8-0.5,4-2.9,5.8l-2.5,2c-2,1.6-3.2,2.7-3.2,4.9c0,1.8,1.3,2.7,3.4,3.8
				l1.1,0.5c3.4,1.8,4.7,3.1,4.7,6.8v8.5c0,4-3.1,7-7,7H224c-4,0-7-3.1-7-7v-15.8c0-8.1,4-14.8,9.2-18.9l2.7-2.2
				C231,448.9,232.6,448,234.4,448 M197,448c3.8,0,7.4,3.2,7.4,7.2c0,1.8-0.5,4-2.9,5.8l-2.5,2c-2,1.6-3.2,2.7-3.2,4.9
				c0,1.8,1.3,2.7,3.4,3.8l1.1,0.5c3.4,1.8,4.7,3.1,4.7,6.8v8.5c0,4-3.1,7-7,7h-11.3c-4,0-7-3.1-7-7v-15.8c0-8.1,4-14.8,9.2-18.9
				l2.7-2.2C193.6,448.9,195.2,448,197,448 M234.4,438c-4.9,0-8.6,2.3-11.6,4.5l-0.1,0.1l-0.1,0.1l-2.7,2.2
				c-2.3,1.8-4.3,3.9-6.1,6.2c-1.9-7.4-8.9-13.1-16.8-13.1c-4.9,0-8.6,2.3-11.6,4.5l-0.1,0.1l-0.1,0.1l-2.7,2.2
				c-8.2,6.5-12.9,16.2-12.9,26.7v15.8c0,9.5,7.5,17,17,17h11.3c5.3,0,9.9-2.3,13-6c3.1,3.7,7.8,6,13,6h11.3c9.5,0,17-7.5,17-17
				v-8.5c0-5.9-2.1-9.7-4.9-12.2c2.9-3.1,4.4-7.1,4.4-11.5C251.8,445.9,243.8,438,234.4,438L234.4,438z"/>
		</g>
	</g>
	<g>
		<text transform="matrix(0.9762 -7.598437e-02 2.250000e-03 1 266.2312 135.8202)" class="st7 st45 st97">webconsejos</text>
		<g>
			<g>
				<path class="st11" d="M670.9,90.5c0.9,2.4,2.4,3.5,4.8,3.3c1.4-0.1,1.8-0.3,4.9-2.1c0.4-0.2,0.9-0.4,1.3-0.4
					c1.2-0.1,2.4,1,2.4,2.3c0,2.5-4.4,5.2-9,5.6c-6.4,0.5-10.9-3.6-11-9.9c0-6.6,4.4-11.7,10.3-12.2c5.6-0.4,10,3.9,10,9.9
					c0,1.7-0.8,2.5-2.6,2.6L670.9,90.5z M678.8,85.7c-0.3-1.2-0.5-1.6-0.9-2.2c-0.7-1-1.8-1.5-3.1-1.4c-2,0.2-3.3,1.4-4.2,4.2
					L678.8,85.7z"/>
				<path class="st11" d="M693.4,77.4c1.8-1.5,3.1-2,4.9-2.2c5.2-0.4,9.3,4.1,9.4,10.3c0,6.3-4,11.5-9.3,11.9c-2.3,0.2-3.7-0.4-5-2
					c-0.7,1.6-1.5,2.4-2.8,2.5c-1.8,0.1-3.1-1.1-3.1-3l-0.1-23.7c0-1.5,0-1.9,0.4-2.6c0.4-1,1.5-1.7,2.6-1.8
					c1.1-0.1,2.1,0.5,2.6,1.4c0.4,0.7,0.4,1,0.4,2.5L693.4,77.4z M693.4,86.6c0,3.1,1.8,5.2,4.2,5.1c2.3-0.2,4.1-2.6,4.1-5.7
					c0-3-1.8-5.2-4.1-5C695.2,81.2,693.4,83.6,693.4,86.6z"/>
				<path class="st11" d="M710.3,78c0-2.2,1.2-3.7,3.1-3.9c1.4-0.1,2.2,0.5,2.8,1.9c1.8-1.8,3.2-2.5,5.5-2.7
					c2.1-0.2,3.8,0.3,5.2,1.4c1.6,1.3,2.2,2.8,2.2,5.8l0,10.1c0,1.5,0,1.9-0.4,2.6c-0.4,1-1.5,1.7-2.6,1.8c-1.1,0.1-2.2-0.5-2.6-1.4
					c-0.4-0.7-0.4-1-0.4-2.5l0-8.7c0-2.4-1.3-3.8-3.4-3.6c-1.9,0.1-3.4,1.9-3.4,3.9l0,8.9c0,1.5,0,1.9-0.4,2.6
					c-0.4,1-1.5,1.7-2.6,1.8c-1.1,0.1-2.2-0.5-2.6-1.4c-0.4-0.7-0.4-1-0.4-2.5L710.3,78z"/>
				<path class="st11" d="M733.2,76.8c0-1.5,0-1.9,0.4-2.6c0.4-1,1.5-1.7,2.6-1.8c1.1-0.1,2.1,0.5,2.6,1.4c0.4,0.7,0.4,1,0.4,2.5
					l0,13.7c0,1.5,0,1.9-0.4,2.6c-0.4,1-1.5,1.7-2.6,1.8c-1.1,0.1-2.2-0.5-2.6-1.4c-0.4-0.7-0.4-1-0.4-2.5L733.2,76.8z M742.7,66.1
					c0-1.4-1.2-2.5-2.8-2.6l0,0l-0.1,0c-0.2,0-0.4,0-0.5,0c-0.2,0-0.4,0-0.6,0.1l-4.8,0.4c-0.2,0-0.4,0-0.5,0
					c-2,0.2-3.6,1.6-3.6,3.2c0,1.6,1.6,2.8,3.5,2.7c0,0,0.1,0,0.1,0l6.5-0.6C741.5,68.8,742.7,67.5,742.7,66.1z"/>
				<path class="st11" d="M758,74.8c0,1.4-1.1,2.8-2.3,2.9c-0.7,0.1-0.7,0.1-2.5-0.6c-0.9-0.4-1.7-0.5-2.3-0.5
					c-1,0.1-1.6,0.5-1.6,1.2c0,0.8,0.3,1,3.2,1.9c2.7,0.9,3.5,1.3,4.6,2.3c0.9,1,1.5,2.2,1.5,3.8c0,4.1-3.2,7.1-7.9,7.5
					c-4.1,0.3-7.7-1.5-7.7-3.9c0-1.4,1.2-2.9,2.5-3c0.7-0.1,0.7-0.1,3.1,0.9c1,0.4,1.8,0.5,2.4,0.5c1-0.1,1.8-0.8,1.8-1.6
					c0-0.7-0.5-1.1-2.3-1.6c-3-0.9-3.8-1.3-4.8-1.9c-1.4-0.9-2.1-2.3-2.1-4.3c0-3.8,3.3-6.9,7.7-7.3C754.8,70.8,758,72.6,758,74.8z"
					/>
				<path class="st11" d="M768.5,64.3c0,2-1.5,3.7-3.5,3.9c-2,0.2-3.5-1.3-3.5-3.3c0-2,1.6-3.7,3.6-3.8
					C766.9,60.8,768.5,62.3,768.5,64.3z M762,74.5c0-1.5,0-1.9,0.4-2.6c0.4-1,1.5-1.7,2.6-1.8c1.1-0.1,2.1,0.5,2.6,1.4
					c0.4,0.7,0.4,1,0.4,2.5l0,13.7c0,1.5,0,1.9-0.4,2.6c-0.4,1-1.5,1.7-2.6,1.8c-1.1,0.1-2.2-0.5-2.6-1.4c-0.4-0.7-0.4-1-0.4-2.5
					L762,74.5z"/>
				<path class="st11" d="M772.2,73.2c0-2.1,1.2-3.7,3-3.8c1.2-0.1,1.8,0.3,2.9,1.8c1.7-1.7,3.1-2.4,5.3-2.6c1.5-0.1,3,0.1,4.1,0.7
					c0.6,0.3,1,0.6,1.7,1.5c2.4-2.2,4-3,6.3-3.2c4.2-0.3,7.3,2.5,7.3,6.6l0,10.8c0,1.5,0,1.9-0.4,2.6c-0.4,1-1.5,1.7-2.6,1.8
					c-1.1,0.1-2.2-0.5-2.6-1.4c-0.4-0.7-0.4-1-0.4-2.5l0-9.4c0-1.9-1.2-3.1-3.1-3s-3.1,1.5-3.1,3.4l0,9.4c0,1.5,0,1.9-0.4,2.6
					c-0.4,1-1.5,1.7-2.6,1.8c-1.1,0.1-2.2-0.5-2.6-1.4c-0.4-0.7-0.4-1-0.4-2.5l0-8.8c0-2.4-1.2-3.7-3.1-3.5
					c-1.8,0.1-3.1,1.6-3.1,3.4l0,9.4c0,1.5,0,1.9-0.4,2.6c-0.4,1-1.5,1.7-2.6,1.8c-1.1,0.1-2.2-0.5-2.6-1.4c-0.4-0.7-0.4-1-0.4-2.5
					L772.2,73.2z"/>
				<path class="st11" d="M826,83.7c0,2.2-1.2,3.8-3,3.9c-1.4,0.1-2.4-0.6-3-2.2c-1.5,2.1-2.7,2.8-4.9,2.9c-2.2,0.2-4.2-0.5-5.9-1.9
					c-2.4-2-3.6-4.8-3.6-8.5c0-3.4,1-6,3.1-8.4c1.8-2,3.9-3.1,6.3-3.3c2.1-0.2,3.4,0.4,5.1,2c0.7-1.7,1.6-2.4,3-2.5
					c1.7-0.1,3,1.2,3,2.9L826,83.7z M811.5,77.4c0,3.2,1.6,5.3,4.2,5.1c2.5-0.2,4.1-2.5,4.1-5.7c0-3.2-1.7-5.2-4.2-5
					C813.1,72,811.5,74.3,811.5,77.4z"/>
			</g>
			<g>
				<path class="st7" d="M661.4,79.6c-0.4-0.7-1.1-1.2-1.9-1.3c-0.2,0-0.5-0.1-0.7,0c-0.2,0-0.5,0.1-0.7,0.1
					c-0.8,0.3-1.6,0.9-1.9,1.6c-0.3,0.5-0.4,0.9-0.4,1.5c0,0.3,0,10.8,0,10.8c0,1-0.3,1.5-0.6,1.9c-0.4,0.4-0.9,0.6-1.4,0.7
					c-0.6,0-1.1-0.2-1.5-0.6c-0.3-0.4-0.6-0.8-0.6-1.7l0-10.1l0,0c0-1.2-0.1-1.6-0.4-2.2c-0.4-0.7-1.1-1.2-1.9-1.3
					c-0.2,0-0.5-0.1-0.7,0c-0.2,0-0.5,0.1-0.7,0.1c-0.8,0.3-1.6,0.9-1.9,1.6c-0.3,0.5-0.4,0.9-0.4,1.5c0,0.2,0,0.8,0,0.8l0,10
					c0,1-0.3,1.5-0.6,1.9c-0.4,0.4-0.9,0.6-1.4,0.7c-0.6,0-1.1-0.2-1.5-0.6c-0.3-0.4-0.6-0.8-0.6-1.7l-0.1-9.7c0-1.5,0-1.8-0.4-2.5
					c-0.4-0.7-1.1-1.2-1.9-1.3c-0.2,0-0.5-0.1-0.7,0c-0.2,0-0.5,0.1-0.7,0.1c-0.8,0.3-1.6,0.9-1.9,1.6c-0.3,0.5-0.4,0.9-0.4,1.5
					c0,0.3,0,11,0,11c0,3,1,4.8,2.7,6c1.5,1.1,3.4,1.6,5.2,1.4c1.6-0.1,2.9-0.5,4-1.3l0.5-0.4c0.3-0.2,0.6-0.4,0.8-0.4
					c0.3,0,0.5,0.1,0.8,0.2l0.6,0.3c1.1,0.6,2.5,0.8,4,0.6c1.9-0.1,3.6-0.9,5.1-2.2c1.7-1.5,2.7-3.4,2.7-6.4l0-10
					C661.9,80.6,661.8,80.3,661.4,79.6z"/>
				<g>
					<g>
						<path class="st1" d="M648.6,72.1c-6,0.6-11,0.1-11-1c0-0.4,0.7-0.7,1.7-1.2c4.4-2,6.7-2.6,10.8-2.6c2.9,0,6.2-0.2,8.5,1.1
							c0.6,0.2,0.9,0.4,0.9,0.7C659.6,70.2,654.7,71.6,648.6,72.1z M665,68.7c-0.1-2.8-5.1-4.3-16.4-3.3c-10.7,1-16.3,3.5-16.3,6.3
							c0.1,4.3,7.4,5.9,16.5,5C657.7,76,665,73.1,665,68.7z"/>
					</g>
				</g>
			</g>
		</g>
	</g>
	<g>
		<path class="st12" d="M611.5,687.2c0-16.2-13.1-29.3-29.3-29.3s-29.3,13.1-29.3,29.3v18.4h-15.9c-16.2,0-29.3,13.1-29.3,29.3
			c0,16.2,13.1,29.3,29.3,29.3H581c13.7,0,25.2-9.4,28.4-22.2c1.3-3.4,2.1-7,2.1-10.9V687.2z"/>
		<path class="st12" d="M727.4,692c0-16.2-13.1-29.3-29.3-29.3s-29.3,13.1-29.3,29.3v18.4H653c-16.2,0-29.3,13.1-29.3,29.3
			S636.8,769,653,769h43.9c13.7,0,25.2-9.4,28.4-22.2c1.3-3.4,2.1-7,2.1-10.9V692z"/>
		
			<pattern  id="SVGID_00000159445624013727390280000003922479025942432941_" xlink:href="#Unnamed_Pattern" patternTransform="matrix(1.22 0 0 0.875 1163.6523 -3.7762)">
		</pattern>
		
			<ellipse style="fill:url(#SVGID_00000159445624013727390280000003922479025942432941_);" cx="631.7" cy="526.2" rx="131.2" ry="102.5"/>
		<g>
			<path class="st7" d="M638.9,728.1c-1.4,0-2.9,0-4.3,0c-64.6-0.5-102.2-9.8-121.9-30.3c-20.7-21.6-19.7-53.3-18.4-93.5
				c0.4-10.7,0.7-21.8,0.7-33.6l0-1.2l0.9-1l0.9-0.9h3.9l0.4,2.6c0.2,1.5,6.4,37.1,127.6,37.1c123.3,0,128.6-35.8,128.7-36.9
				l0.1-2.8l2.9,0h1.3l1.8,1.9l-0.1,1.2c0,13.1,0.5,25.3,1,37.2c1.6,40.1,2.9,71.8-17.3,92.8C728.9,719.7,695.5,728.1,638.9,728.1z"
				/>
			<path class="st8" d="M760.3,570.7C760.3,570.7,760.3,570.7,760.3,570.7C760.3,570.7,760.3,570.7,760.3,570.7 M498,570.7
				c0.1,0,2.8,39.7,130.6,39.7c128.6,0,131.7-38.8,131.7-39.7c0,0,0,0,0,0.1c0,94.9,26.2,154.3-121.5,154.3c-1.4,0-2.8,0-4.3,0
				C473.5,723.9,498.1,666.5,498,570.7C498,570.7,498,570.7,498,570.7 M762.9,564.7h-2.6h-5.8l-0.2,5.6c-0.3,1.7-8,34.1-125.7,34.1
				C510,604.4,504,570.2,504,569.9l-0.7-5.2l-5.2,0h-2.5l-1.8,1.8c-0.7,0.7-1.8,2.1-1.8,4.3c0,11.7-0.4,22.8-0.7,33.5
				c-1.3,40.9-2.4,73.2,19.2,95.6c20.2,21.1,58.5,30.7,124,31.2c1.5,0,2.9,0,4.3,0c57.5,0,91.6-8.7,110.3-28.2
				c21.1-22,19.8-54.2,18.2-95c-0.5-11.8-1-24-1-37l0.1-2.4l-1.8-1.9L762.9,564.7L762.9,564.7z"/>
		</g>
		<line class="st12" x1="516.8" y1="484.7" x2="707.5" y2="484.7"/>
		<line class="st12" x1="729.9" y1="482.3" x2="729.9" y2="506.6"/>
		<path class="st13" d="M541.6,520.5c0,0,5.6-15.9,22.5-13.1s18.8,13.1,18.8,13.1"/>
		<path class="st13" d="M618.4,521.8c0,0,5.6-15.9,22.5-13.1c17,2.9,18.8,13.1,18.8,13.1"/>
		<g>
			<path class="st7" d="M737,482.4c-28.3,0-51.4-23-51.4-51.4s23-51.4,51.4-51.4s51.4,23,51.4,51.4S765.3,482.4,737,482.4z"/>
			<path class="st8" d="M737,384.7c25.6,0,46.4,20.8,46.4,46.4c0,25.6-20.8,46.4-46.4,46.4c-25.6,0-46.4-20.8-46.4-46.4
				C690.7,405.5,711.4,384.7,737,384.7 M737,374.7c-31.1,0-56.4,25.3-56.4,56.4c0,31.1,25.3,56.4,56.4,56.4s56.4-25.3,56.4-56.4
				C793.4,400,768.1,374.7,737,374.7L737,374.7z"/>
		</g>
		<g>
			<path class="st7" d="M693.1,459.2c-28.3,0-51.4-23-51.4-51.4s23-51.4,51.4-51.4s51.4,23,51.4,51.4S721.4,459.2,693.1,459.2z"/>
			<path class="st8" d="M693.1,361.5c25.6,0,46.4,20.8,46.4,46.4c0,25.6-20.8,46.4-46.4,46.4s-46.4-20.8-46.4-46.4
				C646.7,382.3,667.5,361.5,693.1,361.5 M693.1,351.5c-31.1,0-56.4,25.3-56.4,56.4s25.3,56.4,56.4,56.4s56.4-25.3,56.4-56.4
				S724.2,351.5,693.1,351.5L693.1,351.5z"/>
		</g>
		<g>
			<path class="st7" d="M632.1,459.2c-28.3,0-51.4-23-51.4-51.4s23-51.4,51.4-51.4s51.4,23,51.4,51.4S660.4,459.2,632.1,459.2z"/>
			<path class="st8" d="M632.1,361.5c25.6,0,46.4,20.8,46.4,46.4c0,25.6-20.8,46.4-46.4,46.4s-46.4-20.8-46.4-46.4
				C585.7,382.3,606.5,361.5,632.1,361.5 M632.1,351.5c-31.1,0-56.4,25.3-56.4,56.4s25.3,56.4,56.4,56.4s56.4-25.3,56.4-56.4
				S663.2,351.5,632.1,351.5L632.1,351.5z"/>
		</g>
		<g>
			<path class="st7" d="M580.9,459.2c-28.3,0-51.4-23-51.4-51.4s23-51.4,51.4-51.4s51.4,23,51.4,51.4S609.2,459.2,580.9,459.2z"/>
			<path class="st8" d="M580.9,361.5c25.6,0,46.4,20.8,46.4,46.4c0,25.6-20.8,46.4-46.4,46.4c-25.6,0-46.4-20.8-46.4-46.4
				C534.5,382.3,555.2,361.5,580.9,361.5 M580.9,351.5c-31.1,0-56.4,25.3-56.4,56.4s25.3,56.4,56.4,56.4s56.4-25.3,56.4-56.4
				S611.9,351.5,580.9,351.5L580.9,351.5z"/>
		</g>
		<g>
			<path class="st7" d="M522.3,464.1c-28.3,0-51.4-23-51.4-51.4s23-51.4,51.4-51.4s51.4,23,51.4,51.4S550.6,464.1,522.3,464.1z"/>
			<path class="st8" d="M522.3,366.4c25.6,0,46.4,20.8,46.4,46.4c0,25.6-20.8,46.4-46.4,46.4s-46.4-20.8-46.4-46.4
				C475.9,387.1,496.7,366.4,522.3,366.4 M522.3,356.4c-31.1,0-56.4,25.3-56.4,56.4c0,31.1,25.3,56.4,56.4,56.4s56.4-25.3,56.4-56.4
				C578.7,381.7,553.4,356.4,522.3,356.4L522.3,356.4z"/>
		</g>
		
			<ellipse transform="matrix(0.964 -0.266 0.266 0.964 -117.0624 146.6884)" class="st12" cx="483" cy="505.5" rx="39.2" ry="33.1"/>
		<path class="st12" d="M456.9,443l-7.8-28.3l0,0c-0.1-0.2-0.1-0.4-0.2-0.6c-2.8-10.1,2.6-20.5,12.1-23.1
			c9.5-2.6,19.4,3.5,22.2,13.6c0.1,0.2,0.1,0.4,0.1,0.6l0,0l14,50.7l-28.5,7.9L456.9,443z"/>
		<path class="st12" d="M473.5,486c8.8,1.4,14.6,10.4,13,20.1c-1.6,9.7-10,16.4-18.7,14.9c-0.2,0-0.4-0.1-0.5-0.1l0,0l-28.9-3.6
			c-17.9-8.4-12.5-34.1,5.7-35.1l28.9,3.6l0,0C473.1,485.9,473.3,485.9,473.5,486z"/>
		<path class="st12" d="M477.7,460.6c10.4,1.7,17.5,10.9,15.9,20.6c-1.6,9.7-11.3,16.2-21.7,14.5c-0.2,0-0.4-0.1-0.6-0.1l0,0
			l-34.3-4.4c-21.5-8.9-15.8-34.7,5.7-35.1l34.3,4.4l0,0C477.2,460.6,477.5,460.6,477.7,460.6z"/>
		<path class="st12" d="M495.8,456.8c7.2-5.1,17.7-2.8,23.4,5.2c5.7,8,4.4,18.7-2.8,23.8c-0.2,0.1-0.3,0.2-0.5,0.3l0,0l-23.1,17.8
			c-18.7,6.7-32.9-15.5-20.6-29l23.1-17.8l0,0C495.5,457,495.6,456.9,495.8,456.8z"/>
		
			<rect x="571.1" y="549.4" transform="matrix(-1 -4.489798e-11 4.489798e-11 -1 1195.8624 1098.7928)" class="st12" width="53.7" height="0"/>
		<g>
			<polygon class="st12" points="599.8,594.9 555.4,701.9 620.9,701.9 611,596.7 			"/>
			<polygon class="st12" points="624.4,594.9 668.8,701.9 603.3,701.9 613.3,596.7 			"/>
		</g>
	</g>
</g>
<g id="halftone">
	
		<image style="overflow:visible;opacity:0.24;" width="872" height="872" xlink:href="74569A537A752669.png"  transform="matrix(1.2385 0 0 1.2385 -81.5 -103)">
	</image>
</g>
</svg>
