<?xml version="1.0" encoding="utf-8"?>
<!-- Generator: Adobe Illustrator 27.3.1, SVG Export Plug-In . SVG Version: 6.00 Build 0)  -->
<svg version="1.1" xmlns="http://www.w3.org/2000/svg" xmlns:xlink="http://www.w3.org/1999/xlink" x="0px" y="0px"
	 viewBox="0 0 259 299" style="enable-background:new 0 0 259 299;" xml:space="preserve">
<style type="text/css">
	.st0{display:none;}
	.st1{display:inline;opacity:0.28;}
	.st2{fill:none;stroke:#000000;stroke-width:0.75;stroke-miterlimit:10;}
	.st3{fill:none;stroke:#000000;stroke-width:4;stroke-linecap:round;stroke-linejoin:round;stroke-miterlimit:10;}
	.st4{fill:#FCCF72;stroke:#1A2276;stroke-width:6;stroke-miterlimit:10;}
	.st5{fill:#1A2276;}
	.st6{fill:#EBEAD8;}
	.st7{fill:#ED8376;stroke:#E90302;stroke-width:17;stroke-linecap:round;stroke-linejoin:round;stroke-miterlimit:10;}
	.st8{fill:#E90302;}
	.st9{fill:#FCCF72;}
	.st10{fill:#8288A8;}
	.st11{fill:#EBEAD8;stroke:#1A2276;stroke-width:6;stroke-miterlimit:10;}
	.st12{fill:none;stroke:#1A2276;stroke-width:6;stroke-miterlimit:10;}
	.st13{fill:#E90302;stroke:#1A2276;stroke-width:6;stroke-miterlimit:10;}
	.st14{fill:#EBBFAF;}
	
		.st15{clip-path:url(#SVGID_00000071529865637733208030000000569225195327184256_);fill:#FCCF72;stroke:#1A2276;stroke-width:6;stroke-miterlimit:10;}
	
		.st16{clip-path:url(#SVGID_00000121982430387485426830000012786556915252095676_);fill:#FCCF72;stroke:#1A2276;stroke-width:6;stroke-miterlimit:10;}
	
		.st17{clip-path:url(#SVGID_00000095336494537890210900000016497760150715196338_);fill:#FCCF72;stroke:#1A2276;stroke-width:6;stroke-miterlimit:10;}
	
		.st18{clip-path:url(#SVGID_00000021112728300200489710000002434857162562486956_);fill:#FCCF72;stroke:#1A2276;stroke-width:6;stroke-miterlimit:10;}
	
		.st19{clip-path:url(#SVGID_00000096759966475236264970000012385480749449689247_);fill:#FCCF72;stroke:#1A2276;stroke-width:6;stroke-miterlimit:10;}
	.st20{fill:#FFFFFF;}
	
		.st21{clip-path:url(#SVGID_00000109742152759954885100000001395984570713506486_);fill:#FCCF72;stroke:#1A2276;stroke-width:6;stroke-miterlimit:10;}
	.st22{fill:none;stroke:#1A2276;stroke-width:6;stroke-linecap:round;stroke-miterlimit:10;}
	
		.st23{clip-path:url(#SVGID_00000183242306223386564280000008872113886788444351_);fill:#FCCF72;stroke:#1A2276;stroke-width:6;stroke-miterlimit:10;}
	
		.st24{clip-path:url(#SVGID_00000091004406828900500980000013141975973773556921_);fill:#FCCF72;stroke:#1A2276;stroke-width:6;stroke-miterlimit:10;}
	
		.st25{clip-path:url(#SVGID_00000042703845843765356320000017108104288650560154_);fill:#FCCF72;stroke:#1A2276;stroke-width:6;stroke-miterlimit:10;}
	
		.st26{clip-path:url(#SVGID_00000170998544323137128010000006371108555792917163_);fill:#FCCF72;stroke:#1A2276;stroke-width:6;stroke-miterlimit:10;}
	
		.st27{clip-path:url(#SVGID_00000100360783380453016290000003855804884130645941_);fill:#FCCF72;stroke:#1A2276;stroke-width:6;stroke-miterlimit:10;}
	
		.st28{clip-path:url(#SVGID_00000154421475196923893880000017247957628301020862_);fill:#FCCF72;stroke:#1A2276;stroke-width:6;stroke-miterlimit:10;}
	.st29{fill:none;stroke:#000000;stroke-width:4;stroke-miterlimit:10;}
	.st30{fill:#FCCF72;stroke:#000000;stroke-width:4;stroke-miterlimit:10;}
	.st31{fill:none;stroke:#000000;stroke-width:5;stroke-linecap:round;stroke-miterlimit:10;}
	
		.st32{clip-path:url(#SVGID_00000150821224680930944970000011160721998143738763_);fill:#FCCF72;stroke:#1A2276;stroke-width:6;stroke-miterlimit:10;}
	
		.st33{clip-path:url(#SVGID_00000142871978439524750480000008919634407192092574_);fill:#FCCF72;stroke:#1A2276;stroke-width:6;stroke-miterlimit:10;}
	
		.st34{clip-path:url(#SVGID_00000101794668867863719430000003059608232451908019_);fill:#FCCF72;stroke:#1A2276;stroke-width:6;stroke-miterlimit:10;}
	
		.st35{clip-path:url(#SVGID_00000103953146270627529040000007077283756705441705_);fill:#FCCF72;stroke:#1A2276;stroke-width:6;stroke-miterlimit:10;}
	.st36{fill:#E90302;stroke:#EBBFAF;stroke-width:6;stroke-miterlimit:10;}
	.st37{clip-path:url(#SVGID_00000014608087486621288650000008048243047399317174_);fill:#FCCF72;}
	.st38{clip-path:url(#SVGID_00000014608087486621288650000008048243047399317174_);fill:#1A2276;}
	.st39{clip-path:url(#SVGID_00000013158086004704831270000003526617591558436737_);fill:#8288A8;}
	.st40{fill:#020202;}
	.st41{clip-path:url(#SVGID_00000091013370822575441470000010862280088597455538_);}
	.st42{fill:#EBEAD8;stroke:#1A2276;stroke-width:3;stroke-miterlimit:10;}
	.st43{fill:#8288A8;stroke:#8288A8;stroke-miterlimit:10;}
	.st44{fill:#1A2276;stroke:#FCCF72;stroke-width:6;stroke-miterlimit:10;}
	.st45{fill:none;stroke:#EBEAD8;stroke-width:6;stroke-miterlimit:10;}
	.st46{fill:#8288A8;stroke:#1A2276;stroke-width:6;stroke-miterlimit:10;}
	.st47{fill:#FCCF72;stroke:#8288A8;stroke-width:6;stroke-miterlimit:10;}
	.st48{clip-path:url(#SVGID_00000134967881221434942290000004035337303896386229_);}
	.st49{fill:none;}
	.st50{fill:#ED8376;}
	.st51{fill:url(#);}
	.st52{fill:#1A2276;stroke:url(#);stroke-miterlimit:10;}
	.st53{fill:#ED8376;stroke:#E90302;stroke-width:6;stroke-linecap:round;stroke-linejoin:round;stroke-miterlimit:10;}
	.st54{fill:none;stroke:#E90302;stroke-width:6;stroke-linecap:round;stroke-linejoin:round;stroke-miterlimit:10;}
	.st55{fill:none;stroke:#E90302;stroke-width:5;stroke-linecap:round;stroke-linejoin:round;stroke-miterlimit:10;}
	.st56{fill:#FFFFFF;stroke:#000000;stroke-width:6;stroke-miterlimit:10;}
	.st57{fill:#FFFDFD;stroke:#1A2276;stroke-width:7;stroke-miterlimit:10;}
	
		.st58{clip-path:url(#SVGID_00000168810069123276759880000017790226742091392687_);fill:#FCCF72;stroke:#1A2276;stroke-width:6;stroke-miterlimit:10;}
	
		.st59{clip-path:url(#SVGID_00000127753008462165153330000000986266867806044804_);fill:#FCCF72;stroke:#1A2276;stroke-width:6;stroke-miterlimit:10;}
	.st60{fill:none;stroke:#E90302;stroke-width:6;stroke-linecap:round;stroke-miterlimit:10;}
	
		.st61{clip-path:url(#SVGID_00000161629229004654974260000009562400695138946993_);fill:#FCCF72;stroke:#1A2276;stroke-width:6;stroke-miterlimit:10;}
	
		.st62{clip-path:url(#SVGID_00000122684493226232898720000007226803556265123498_);fill:#FCCF72;stroke:#1A2276;stroke-width:6;stroke-miterlimit:10;}
	
		.st63{clip-path:url(#SVGID_00000082363278253499161380000002572273013273979790_);fill:#FCCF72;stroke:#1A2276;stroke-width:6;stroke-miterlimit:10;}
	.st64{fill:none;stroke:#1A2276;stroke-width:7;stroke-miterlimit:10;}
	
		.st65{clip-path:url(#SVGID_00000129891434810739210860000017458304129709747643_);fill:#FCCF72;stroke:#1A2276;stroke-width:6;stroke-miterlimit:10;}
	.st66{clip-path:url(#SVGID_00000023264518357024167440000004489843479001385352_);}
	
		.st67{clip-path:url(#SVGID_00000181800477685689115250000006428791294846442156_);fill:#FCCF72;stroke:#1A2276;stroke-width:6;stroke-miterlimit:10;}
	
		.st68{clip-path:url(#SVGID_00000105402686505735761720000014297133443507318203_);fill:#FCCF72;stroke:#1A2276;stroke-width:6;stroke-miterlimit:10;}
	
		.st69{clip-path:url(#SVGID_00000082358951602049864020000005012429953686362268_);fill:#FCCF72;stroke:#1A2276;stroke-width:6;stroke-miterlimit:10;}
	.st70{clip-path:url(#SVGID_00000015327325372046491150000014180808763503980437_);}
	.st71{clip-path:url(#SVGID_00000081613009009473122310000007891986234122228386_);}
	.st72{clip-path:url(#SVGID_00000083057658684610783640000015538642154660255369_);}
	.st73{opacity:0.5;}
	.st74{clip-path:url(#SVGID_00000076561414324934732650000013409394835183642545_);}
	.st75{clip-path:url(#SVGID_00000069378519066174454490000017912983482970843039_);}
	.st76{fill:#FFFDFD;}
	.st77{clip-path:url(#SVGID_00000015324405101504397500000000038103976586029237_);}
	.st78{opacity:0.8;}
	
		.st79{clip-path:url(#SVGID_00000113355142979087086670000007319891969856374185_);fill:#FCCF72;stroke:#1A2276;stroke-width:6;stroke-miterlimit:10;}
	
		.st80{clip-path:url(#SVGID_00000106126104822457194890000008543813787079284414_);fill:#FCCF72;stroke:#1A2276;stroke-width:6;stroke-miterlimit:10;}
	.st81{clip-path:url(#SVGID_00000016076209067661369720000011537422685538550956_);}
	.st82{clip-path:url(#SVGID_00000073709452996628903330000008893260988305954975_);}
	.st83{clip-path:url(#SVGID_00000179621110438312261620000006200570267012358055_);}
	.st84{clip-path:url(#SVGID_00000096777143117254116540000007750022668297885571_);}
	.st85{clip-path:url(#SVGID_00000036949723708613377630000002095969975040194179_);}
	.st86{fill:none;stroke:#1A2276;stroke-width:19;stroke-miterlimit:10;}
	.st87{clip-path:url(#SVGID_00000069365499068731200860000005567565514971883414_);}
	.st88{fill:none;stroke:#1A2276;stroke-width:10;stroke-miterlimit:10;}
	.st89{clip-path:url(#SVGID_00000067952706229577904450000013440462436038274716_);}
	.st90{clip-path:url(#SVGID_00000150070116834124547590000018272022986875325833_);fill:#FCCF72;}
	.st91{clip-path:url(#SVGID_00000150070116834124547590000018272022986875325833_);fill:#1A2276;}
	.st92{clip-path:url(#SVGID_00000016778026223292620050000002833176700709313928_);}
	.st93{clip-path:url(#SVGID_00000040560231927922553740000009055968923566081204_);}
	.st94{clip-path:url(#SVGID_00000040560231927922553740000009055968923566081204_);fill:none;}
	.st95{clip-path:url(#SVGID_00000168803406206143265750000012469618347232302980_);fill:#8288A8;}
	.st96{clip-path:url(#SVGID_00000168803406206143265750000012469618347232302980_);fill:#FCCF72;}
	.st97{fill:#FFFFFF;stroke:#FFFFFF;stroke-width:6;stroke-miterlimit:10;}
	.st98{fill:none;stroke:#8288A8;stroke-width:6;stroke-miterlimit:10;}
	.st99{clip-path:url(#SVGID_00000085237103977042076680000001866156079403999419_);}
	.st100{clip-path:url(#SVGID_00000168088205128503970470000008938618426658032307_);}
	.st101{clip-path:url(#SVGID_00000163787044218496697070000006874769169732669103_);}
	.st102{clip-path:url(#SVGID_00000065776412934880672610000005985781819681035709_);}
	.st103{clip-path:url(#SVGID_00000069364929811005988000000001036011603700107434_);}
	.st104{fill:#EBEAD8;stroke:#1A2276;stroke-width:12;stroke-miterlimit:10;}
	.st105{fill:none;stroke:#1A2276;stroke-width:12;stroke-miterlimit:10;}
	.st106{clip-path:url(#SVGID_00000148632229862463870740000013825284557327006111_);}
	.st107{clip-path:url(#SVGID_00000109008028598080193960000002322389987852052139_);}
	.st108{clip-path:url(#SVGID_00000019670186830915036420000010246017492221340573_);}
	.st109{clip-path:url(#SVGID_00000017490580246926584050000004889406579670965169_);}
	.st110{clip-path:url(#SVGID_00000111177294107598075660000008597130707483405703_);}
	.st111{clip-path:url(#SVGID_00000068643598958880990000000014999029074035276714_);fill:#8288A8;}
	.st112{clip-path:url(#SVGID_00000068643598958880990000000014999029074035276714_);fill:#FCCF72;}
	.st113{clip-path:url(#SVGID_00000101806199796691011660000011497433364873512635_);}
	.st114{clip-path:url(#SVGID_00000101069986091261136660000004399894989566031802_);fill:#E90302;}
	.st115{clip-path:url(#SVGID_00000118355251731140815790000014681246290579286936_);fill:none;}
	.st116{clip-path:url(#SVGID_00000100350953056783331160000017784444357102508183_);}
	.st117{clip-path:url(#SVGID_00000036936493070818071850000002727923302055428494_);}
	.st118{clip-path:url(#SVGID_00000038373212937378104210000005952287362403813271_);}
	.st119{clip-path:url(#SVGID_00000048463262457737849450000007214405158425236659_);}
	.st120{clip-path:url(#SVGID_00000085969271342710603880000005987686993203170721_);}
	.st121{clip-path:url(#SVGID_00000006669542007326814990000015455116926583848092_);}
	.st122{clip-path:url(#SVGID_00000178899728892669315290000011003484778267984799_);}
	.st123{clip-path:url(#SVGID_00000015340990217015614530000007984971614247722403_);}
	.st124{clip-path:url(#SVGID_00000169550294319725914700000015131159313131339931_);}
	.st125{clip-path:url(#SVGID_00000115472367307709898810000013274817688562720940_);}
	.st126{clip-path:url(#SVGID_00000127005656480946621500000009976841150494082233_);}
	.st127{clip-path:url(#SVGID_00000146475584467260384620000005713752247075389349_);}
	.st128{clip-path:url(#SVGID_00000097486619119386358680000012862377031386103726_);fill:#EBEAD8;}
	.st129{clip-path:url(#SVGID_00000097486619119386358680000012862377031386103726_);}
	.st130{clip-path:url(#SVGID_00000057117152447145651610000011107230542366706330_);}
	.st131{clip-path:url(#SVGID_00000013165723461142923790000010706817025273289116_);}
	.st132{clip-path:url(#SVGID_00000031930256285845284580000006231308880430860980_);}
	.st133{clip-path:url(#SVGID_00000133497183763019720640000007265855953334617256_);}
	.st134{clip-path:url(#SVGID_00000129185184988404132540000013744727111696795577_);}
	.st135{fill:#ED8376;stroke:#1A2276;stroke-width:6;stroke-miterlimit:10;}
	.st136{fill:url(#);stroke:#1A2276;stroke-width:6;stroke-miterlimit:10;}
	.st137{clip-path:url(#SVGID_00000152948210960843053820000000225638407033100460_);}
	
		.st138{clip-path:url(#SVGID_00000089566229181941241730000000555341493039537063_);fill:#FCCF72;stroke:#1A2276;stroke-width:6;stroke-miterlimit:10;}
	.st139{fill:none;stroke:#FCCF72;stroke-width:6;stroke-linecap:round;stroke-miterlimit:10;}
	.st140{clip-path:url(#SVGID_00000135682534831491624870000004920647230122052228_);}
</style>
<g id="guias" class="st0">
</g>
<g id="Layer_2">
</g>
<g id="Layer_1">
</g>
<g id="web">
	<g>
		<g>
			<path class="st6" d="M111.1,280.3C60,273,36.7,269.7,23.7,256.7c-14.4-14.2-11.4-34.7-6.1-72l1.1-7.8
				c4.1-28.6,6.6-45.9,14.8-57.4c8.2-11.4,20.3-14.9,35.9-15.1l-8.2-79.8l40.7,53.5l44.9-66.5l24.4,76.3l56.4-45l-32.1,79
				c17.4,4.6,29.3,11.4,34.5,25.3c5.4,14.1,2.7,32.8-1.8,63.8c-5.6,39-8.7,60.5-26.3,70.6C185.6,291,162.2,287.7,111.1,280.3z"/>
		</g>
		<g>
			<polygon class="st9" points="102.1,96.8 143.4,35.8 165.7,105.9 202.4,76.7 177.7,137.4 82.6,124.4 74.5,58.3 			"/>
			<path class="st5" d="M80.2,126.8l-9.6-78.4l31.4,43.8l42.1-62.4l22.9,71.7l41.6-33.2l-29.3,72L80.2,126.8z M78.5,68.4L85,122
				l91,12.4l20.1-49.3l-31.7,25.3l-21.9-68.6l-40.3,59.6L78.5,68.4z"/>
		</g>
		<g>
			
				<ellipse transform="matrix(0.1421 -0.9899 0.9899 0.1421 -88.2585 290.0538)" class="st6" cx="123.2" cy="195.9" rx="74.6" ry="95.5"/>
			<path class="st5" d="M112.2,272.4c-47.8-6.9-71.8-10.3-82.9-21.4c-11.5-11.4-8.9-29.4-3.8-65.2l0.6-3.9l0.6-3.9
				c5.1-35.8,7.7-53.8,21.9-61.5c13.8-7.5,37.8-4,85.6,2.8c47.8,6.9,71.8,10.3,82.9,21.9c11.4,11.9,8.7,30.8,3.3,68.5
				s-8.1,56.7-22.4,64.8C184,282.7,160,279.3,112.2,272.4z M133.4,124.7c-46.6-6.7-70-10.1-82.3-3.4c-11.9,6.4-14.3,23.5-19.2,57.5
				l-0.6,3.9l-0.6,3.9c-4.9,34-7.4,51.1,2.2,60.6c9.9,9.8,33.3,13.2,80,19.9c46.6,6.7,70,10,82.3,3c12-6.9,14.6-25,19.8-61
				s7.8-54.1-1.8-64.1C203.4,134.8,180,131.4,133.4,124.7z"/>
		</g>
		<g>
			<path class="st10" d="M211.1,180.4c-1.8,12.8-12.6,11.2-27.9,9c-15.6-2.2-15.3-2.2-13.5-15c1.8-12.8,1.5-12.8,17.2-10.6
				C202.3,166.1,213,167.6,211.1,180.4z"/>
		</g>
		<g>
			<path class="st10" d="M201.3,249c-1.8,12.8-12.6,11.2-27.9,9c-15.6-2.2-15.3-2.2-13.5-15s1.5-12.8,17.2-10.6
				C192.4,234.7,203.1,236.2,201.3,249z"/>
		</g>
		<g>
			<path class="st10" d="M207,215.4c-1.1,7.3-11.7,8.6-27,6.4c-15.6-2.2-16.2,0.5-14.4-12.3c2.5-17.1,2.1-13,17.7-10.8
				C198.6,200.9,209.8,195.7,207,215.4z"/>
		</g>
		<g>
			<defs>
				
					<ellipse id="SVGID_00000150807328683120333090000000172435054772046722_" transform="matrix(0.1421 -0.9899 0.9899 0.1421 -89.8926 291.814)" cx="123.4" cy="197.8" rx="74.6" ry="94.2"/>
			</defs>
			<clipPath id="SVGID_00000032642993044641249490000016647783577102454198_">
				<use xlink:href="#SVGID_00000150807328683120333090000000172435054772046722_"  style="overflow:visible;"/>
			</clipPath>
			<g style="clip-path:url(#SVGID_00000032642993044641249490000016647783577102454198_);">
				<path class="st9" d="M105.5,177.3c-72-10.3-67.8-52.1-67.5-53.7c9.9-69,3.5-21.5,96.3-8.2c91.1,13.1,100-34.1,90.1,34.9
					C224.2,151.9,160.1,185.1,105.5,177.3z"/>
				<path class="st5" d="M105.1,179.9c-75.5-10.8-69.9-56.3-69.8-56.7c3.7-25.6,5-35.1,10.6-38c4.3-2.2,9.4,0.4,17.8,4.8
					c12.6,6.5,33.6,17.5,71,22.8c36.4,5.2,59.6,0.7,73.5-2c9.6-1.9,15.4-3,19.1,0.5c4.6,4.4,3.5,13.5-0.2,39.5
					c-0.2,1.2-1,1.8-1.4,2.1C218.3,158.3,156.4,187.3,105.1,179.9z M50,89.7c-0.7-0.1-1.2-0.1-1.6,0.2c-3.1,1.6-4.9,13.8-7.8,34
					c-0.1,0.4-4.8,40.6,65.3,50.7c50.6,7.3,109.1-21.4,116-25.7c2.5-17.5,4.4-31.2,1.6-33.8c-1.7-1.6-7-0.5-14.4,0.9
					c-14.2,2.8-38,7.4-75.2,2c-38.2-5.5-59.8-16.7-72.7-23.4C56.5,92.2,52.5,90.1,50,89.7z"/>
			</g>
		</g>
		<g>
			<circle class="st5" cx="140.9" cy="148.6" r="6.5"/>
		</g>
		<g>
			<circle class="st5" cx="117.5" cy="145.3" r="6.5"/>
		</g>
		<g>
			<circle class="st5" cx="94.2" cy="141.9" r="6.5"/>
		</g>
		<g>
			<g>
				<circle class="st8" cx="51" cy="215.1" r="3.4"/>
			</g>
			<g>
				<circle class="st8" cx="53.6" cy="196.6" r="3.4"/>
			</g>
			<g>
				<circle class="st8" cx="40" cy="203.6" r="3.4"/>
			</g>
		</g>
		<g>
			<polygon class="st5" points="79.7,134.6 75.3,128.8 69.5,133.2 65.1,127.3 59.3,131.7 63.7,137.5 57.8,141.9 62.2,147.7 
				68,143.3 72.4,149.2 78.2,144.8 73.8,139 			"/>
		</g>
		<g>
			<g>
				<g>
					<g>
						<circle class="st20" cx="117.1" cy="205.6" r="10.5"/>
					</g>
					<g>
						<circle class="st5" cx="117.1" cy="205.6" r="7.2"/>
					</g>
				</g>
				<g>
					<circle class="st20" cx="78.8" cy="200.1" r="10.5"/>
				</g>
				<g>
					<circle class="st5" cx="78.8" cy="200.1" r="7.2"/>
				</g>
			</g>
			<g>
				<path class="st5" d="M91.8,237.7c-22.2-3.2-25.9-12.9-26.2-14c-0.4-1.4,0.3-2.9,1.7-3.3c1.4-0.4,2.9,0.3,3.3,1.7
					c0.1,0.3,3.3,7.7,21.9,10.4c19.4,2.8,26.7-3.8,26.8-3.9c1.1-1,2.7-1,3.8,0.1c1,1.1,1,2.7-0.1,3.7
					C122.7,232.7,114.1,240.8,91.8,237.7z"/>
			</g>
		</g>
		<g>
			<g>
				<circle class="st8" cx="140.7" cy="209.8" r="3.4"/>
			</g>
			<g>
				<circle class="st8" cx="138.1" cy="228.2" r="3.4"/>
			</g>
			<g>
				<circle class="st8" cx="151.6" cy="221.2" r="3.4"/>
			</g>
		</g>
	</g>
</g>
<g id="halftone">
</g>
</svg>
