<?xml version="1.0" encoding="utf-8"?>
<!-- Generator: Adobe Illustrator 27.3.1, SVG Export Plug-In . SVG Version: 6.00 Build 0)  -->
<svg version="1.1" xmlns="http://www.w3.org/2000/svg" xmlns:xlink="http://www.w3.org/1999/xlink" x="0px" y="0px"
	 viewBox="0 0 900 900" style="enable-background:new 0 0 900 900;" xml:space="preserve">
<style type="text/css">
	.st0{display:none;}
	.st1{display:inline;opacity:0.28;}
	.st2{fill:none;stroke:#000000;stroke-width:0.75;stroke-miterlimit:10;}
	.st3{fill:none;stroke:#000000;stroke-width:4;stroke-linecap:round;stroke-linejoin:round;stroke-miterlimit:10;}
	.st4{fill:#FCCF72;stroke:#1A2276;stroke-width:6;stroke-miterlimit:10;}
	.st5{fill:#1A2276;}
	.st6{fill:#EBEAD8;}
	.st7{fill:#ED8376;stroke:#E90302;stroke-width:17;stroke-linecap:round;stroke-linejoin:round;stroke-miterlimit:10;}
	.st8{fill:#E90302;}
	.st9{fill:#FCCF72;}
	.st10{fill:#8288A8;}
	.st11{fill:#EBEAD8;stroke:#1A2276;stroke-width:6;stroke-miterlimit:10;}
	.st12{fill:none;stroke:#1A2276;stroke-width:6;stroke-miterlimit:10;}
	.st13{fill:#E90302;stroke:#1A2276;stroke-width:6;stroke-miterlimit:10;}
	.st14{fill:#EBBFAF;}
	
		.st15{clip-path:url(#SVGID_00000176724259126933366910000000326108112419136181_);fill:#FCCF72;stroke:#1A2276;stroke-width:6;stroke-miterlimit:10;}
	
		.st16{clip-path:url(#SVGID_00000069382505256777494390000002228897217025896590_);fill:#FCCF72;stroke:#1A2276;stroke-width:6;stroke-miterlimit:10;}
	
		.st17{clip-path:url(#SVGID_00000159470921811344524640000011435045818086928318_);fill:#FCCF72;stroke:#1A2276;stroke-width:6;stroke-miterlimit:10;}
	
		.st18{clip-path:url(#SVGID_00000076605367762277767020000002369640635915495862_);fill:#FCCF72;stroke:#1A2276;stroke-width:6;stroke-miterlimit:10;}
	
		.st19{clip-path:url(#SVGID_00000001629208324033609250000015126649402920982443_);fill:#FCCF72;stroke:#1A2276;stroke-width:6;stroke-miterlimit:10;}
	.st20{fill:#FFFFFF;}
	
		.st21{clip-path:url(#SVGID_00000153676828383106560060000007310945543067156895_);fill:#FCCF72;stroke:#1A2276;stroke-width:6;stroke-miterlimit:10;}
	.st22{fill:none;stroke:#1A2276;stroke-width:6;stroke-linecap:round;stroke-miterlimit:10;}
	
		.st23{clip-path:url(#SVGID_00000067931642794796631410000014107359541466107814_);fill:#FCCF72;stroke:#1A2276;stroke-width:6;stroke-miterlimit:10;}
	
		.st24{clip-path:url(#SVGID_00000081607557683677912570000003126777954557457319_);fill:#FCCF72;stroke:#1A2276;stroke-width:6;stroke-miterlimit:10;}
	
		.st25{clip-path:url(#SVGID_00000018933361760920174250000015191816736787076007_);fill:#FCCF72;stroke:#1A2276;stroke-width:6;stroke-miterlimit:10;}
	
		.st26{clip-path:url(#SVGID_00000034801301919303017460000002202497530598001818_);fill:#FCCF72;stroke:#1A2276;stroke-width:6;stroke-miterlimit:10;}
	
		.st27{clip-path:url(#SVGID_00000007423680834295737500000001872424310021502120_);fill:#FCCF72;stroke:#1A2276;stroke-width:6;stroke-miterlimit:10;}
	
		.st28{clip-path:url(#SVGID_00000152249142916995217830000003960962391076328602_);fill:#FCCF72;stroke:#1A2276;stroke-width:6;stroke-miterlimit:10;}
	.st29{fill:none;stroke:#000000;stroke-width:4;stroke-miterlimit:10;}
	.st30{fill:#FCCF72;stroke:#000000;stroke-width:4;stroke-miterlimit:10;}
	.st31{fill:none;stroke:#000000;stroke-width:5;stroke-linecap:round;stroke-miterlimit:10;}
	
		.st32{clip-path:url(#SVGID_00000056405734799752908500000006555980556792638910_);fill:#FCCF72;stroke:#1A2276;stroke-width:6;stroke-miterlimit:10;}
	
		.st33{clip-path:url(#SVGID_00000174574769952469151580000002155017031214110141_);fill:#FCCF72;stroke:#1A2276;stroke-width:6;stroke-miterlimit:10;}
	
		.st34{clip-path:url(#SVGID_00000096029535104033288520000011262324699921393037_);fill:#FCCF72;stroke:#1A2276;stroke-width:6;stroke-miterlimit:10;}
	.st35{font-family:'Aptly-Bold';}
	.st36{font-size:40.1137px;}
	.st37{letter-spacing:4;}
	
		.st38{clip-path:url(#SVGID_00000029739646685771444850000018224052602133251730_);fill:#FCCF72;stroke:#1A2276;stroke-width:6;stroke-miterlimit:10;}
	.st39{fill:#E90302;stroke:#EBBFAF;stroke-width:6;stroke-miterlimit:10;}
	.st40{clip-path:url(#SVGID_00000065757803362782536300000007206011667901719965_);fill:#FCCF72;}
	.st41{clip-path:url(#SVGID_00000065757803362782536300000007206011667901719965_);fill:#1A2276;}
	.st42{clip-path:url(#SVGID_00000173129175632757548180000011273542127792588475_);fill:#8288A8;}
	.st43{fill:#020202;}
	.st44{clip-path:url(#SVGID_00000101792818474203094060000007297189294884501949_);}
	.st45{fill:#EBEAD8;stroke:#1A2276;stroke-width:3;stroke-miterlimit:10;}
	.st46{font-size:80px;}
	.st47{fill:#8288A8;stroke:#8288A8;stroke-miterlimit:10;}
	.st48{fill:#1A2276;stroke:#FCCF72;stroke-width:6;stroke-miterlimit:10;}
	.st49{fill:none;stroke:#EBEAD8;stroke-width:6;stroke-miterlimit:10;}
	.st50{fill:#8288A8;stroke:#1A2276;stroke-width:6;stroke-miterlimit:10;}
	.st51{fill:#FCCF72;stroke:#8288A8;stroke-width:6;stroke-miterlimit:10;}
	.st52{clip-path:url(#SVGID_00000143600861328656737180000004081287315387053486_);}
	.st53{fill:none;}
	.st54{fill:#ED8376;}
	.st55{fill:url(#);}
	.st56{fill:#1A2276;stroke:url(#);stroke-miterlimit:10;}
	.st57{fill:#ED8376;stroke:#E90302;stroke-width:6;stroke-linecap:round;stroke-linejoin:round;stroke-miterlimit:10;}
	.st58{fill:none;stroke:#E90302;stroke-width:6;stroke-linecap:round;stroke-linejoin:round;stroke-miterlimit:10;}
	.st59{fill:none;stroke:#E90302;stroke-width:5;stroke-linecap:round;stroke-linejoin:round;stroke-miterlimit:10;}
	.st60{fill:#FFFFFF;stroke:#000000;stroke-width:6;stroke-miterlimit:10;}
	.st61{fill:#FFFDFD;stroke:#1A2276;stroke-width:7;stroke-miterlimit:10;}
	
		.st62{clip-path:url(#SVGID_00000093883417072869115480000011942892096861388964_);fill:#FCCF72;stroke:#1A2276;stroke-width:6;stroke-miterlimit:10;}
	
		.st63{clip-path:url(#SVGID_00000094618245939169139360000017117947272661636778_);fill:#FCCF72;stroke:#1A2276;stroke-width:6;stroke-miterlimit:10;}
	.st64{fill:none;stroke:#E90302;stroke-width:6;stroke-linecap:round;stroke-miterlimit:10;}
	
		.st65{clip-path:url(#SVGID_00000038400319822328661400000013597977589837382045_);fill:#FCCF72;stroke:#1A2276;stroke-width:6;stroke-miterlimit:10;}
	
		.st66{clip-path:url(#SVGID_00000152974353185693891510000017537674709962683284_);fill:#FCCF72;stroke:#1A2276;stroke-width:6;stroke-miterlimit:10;}
	
		.st67{clip-path:url(#SVGID_00000126313515613147509530000006599550717615207042_);fill:#FCCF72;stroke:#1A2276;stroke-width:6;stroke-miterlimit:10;}
	.st68{fill:none;stroke:#1A2276;stroke-width:7;stroke-miterlimit:10;}
	
		.st69{clip-path:url(#SVGID_00000017487344830140795740000009822027122182946976_);fill:#FCCF72;stroke:#1A2276;stroke-width:6;stroke-miterlimit:10;}
	.st70{clip-path:url(#SVGID_00000153684780720150030000000017419665534926306441_);}
	
		.st71{clip-path:url(#SVGID_00000165955025835648170710000012383421152692468411_);fill:#FCCF72;stroke:#1A2276;stroke-width:6;stroke-miterlimit:10;}
	
		.st72{clip-path:url(#SVGID_00000155124092331073218170000012410583842698913215_);fill:#FCCF72;stroke:#1A2276;stroke-width:6;stroke-miterlimit:10;}
	
		.st73{clip-path:url(#SVGID_00000018206770405150945000000009629324470582608003_);fill:#FCCF72;stroke:#1A2276;stroke-width:6;stroke-miterlimit:10;}
	.st74{clip-path:url(#SVGID_00000011716331247108287980000004076375087534241953_);}
	.st75{clip-path:url(#SVGID_00000024705880684178690990000000329561604848618418_);}
	.st76{clip-path:url(#SVGID_00000161606895986158668810000003212409191041003137_);}
	.st77{opacity:0.5;}
	.st78{clip-path:url(#SVGID_00000072282126694399139000000005934983380576023966_);}
	.st79{clip-path:url(#SVGID_00000012471331353728756170000014714724869177833101_);}
	.st80{fill:#FFFDFD;}
	.st81{clip-path:url(#SVGID_00000081636461551975843880000014398746544412258452_);}
	.st82{opacity:0.8;}
	
		.st83{clip-path:url(#SVGID_00000029753438849180397770000010298348491106285720_);fill:#FCCF72;stroke:#1A2276;stroke-width:6;stroke-miterlimit:10;}
	
		.st84{clip-path:url(#SVGID_00000062890110149014611230000003041581645350913714_);fill:#FCCF72;stroke:#1A2276;stroke-width:6;stroke-miterlimit:10;}
	.st85{clip-path:url(#SVGID_00000034780638913646844090000002895195894603704733_);}
	.st86{clip-path:url(#SVGID_00000067226903435692519000000001543075150645489082_);}
	.st87{clip-path:url(#SVGID_00000098220141232072128450000017814260966450924929_);}
	.st88{clip-path:url(#SVGID_00000093143628453509240360000000073203341565999239_);}
	.st89{clip-path:url(#SVGID_00000127755185436985170110000016736405265814994072_);}
	.st90{fill:none;stroke:#1A2276;stroke-width:19;stroke-miterlimit:10;}
	.st91{clip-path:url(#SVGID_00000143608136465459057030000004190750783478042528_);}
	.st92{font-size:28px;}
	.st93{font-family:'Aptly';}
	.st94{fill:none;stroke:#1A2276;stroke-width:10;stroke-miterlimit:10;}
	.st95{font-size:70.872px;}
	.st96{clip-path:url(#SVGID_00000134963984368680054040000002571381733915596704_);}
	.st97{clip-path:url(#SVGID_00000107568244021741387760000015347771681353079741_);fill:#FCCF72;}
	.st98{clip-path:url(#SVGID_00000107568244021741387760000015347771681353079741_);fill:#1A2276;}
	.st99{clip-path:url(#SVGID_00000140728609953090337580000006432249148012491961_);}
	.st100{clip-path:url(#SVGID_00000018226167019410249240000016948497614600362632_);}
	.st101{clip-path:url(#SVGID_00000018226167019410249240000016948497614600362632_);fill:none;}
	.st102{clip-path:url(#SVGID_00000039839511667133436440000005998565994786283672_);fill:#8288A8;}
	.st103{clip-path:url(#SVGID_00000039839511667133436440000005998565994786283672_);fill:#FCCF72;}
	.st104{fill:#FFFFFF;stroke:#FFFFFF;stroke-width:6;stroke-miterlimit:10;}
	.st105{fill:none;stroke:#8288A8;stroke-width:6;stroke-miterlimit:10;}
	.st106{clip-path:url(#SVGID_00000150818753465678104790000012932794684943614083_);}
	.st107{clip-path:url(#SVGID_00000041287678690763320370000008859001675954890369_);}
	.st108{clip-path:url(#SVGID_00000096039486435854009400000000633625670013697425_);}
	.st109{clip-path:url(#SVGID_00000076564682457815458980000002881136619669006228_);}
	.st110{clip-path:url(#SVGID_00000150795566498019157160000004580482009446881209_);}
	.st111{fill:#EBEAD8;stroke:#1A2276;stroke-width:12;stroke-miterlimit:10;}
	.st112{fill:none;stroke:#1A2276;stroke-width:12;stroke-miterlimit:10;}
	.st113{clip-path:url(#SVGID_00000039134745259761477040000015139709744301593771_);}
	.st114{clip-path:url(#SVGID_00000083069437561742594170000013472250639759843978_);}
	.st115{clip-path:url(#SVGID_00000065755839195538391950000008335757719758198419_);}
	.st116{clip-path:url(#SVGID_00000005245100752462080920000002796270175387551649_);}
	.st117{clip-path:url(#SVGID_00000081648007077045841460000005597395875836422047_);}
	.st118{clip-path:url(#SVGID_00000032634743574639237720000006346675543429201072_);fill:#8288A8;}
	.st119{clip-path:url(#SVGID_00000032634743574639237720000006346675543429201072_);fill:#FCCF72;}
	.st120{clip-path:url(#SVGID_00000154415901004853761410000017501562855984281786_);}
	.st121{clip-path:url(#SVGID_00000174560498754474063480000003837058803763651211_);fill:#E90302;}
	.st122{clip-path:url(#SVGID_00000012467004303545230740000016616097742785046955_);fill:none;}
	.st123{clip-path:url(#SVGID_00000035527231526284943570000010399473007127809196_);}
	.st124{clip-path:url(#SVGID_00000127019078200237509960000015658710596027782332_);}
	.st125{clip-path:url(#SVGID_00000089548239411626515940000011269544929797457591_);}
	.st126{clip-path:url(#SVGID_00000085940513661172954820000000652418295232659892_);}
	.st127{clip-path:url(#SVGID_00000072960073472513526470000011190756949126762399_);}
	.st128{clip-path:url(#SVGID_00000074406892138419599500000018276325656965022388_);}
	.st129{clip-path:url(#SVGID_00000183241348226148151590000011714571347417887374_);}
	.st130{clip-path:url(#SVGID_00000070078374604942642060000013552570888873341084_);}
	.st131{clip-path:url(#SVGID_00000062171760278007167220000017327429184796261764_);}
	.st132{clip-path:url(#SVGID_00000149364680931998961490000014688440099842697627_);}
	.st133{clip-path:url(#SVGID_00000129908681342304465360000006455800358387520906_);}
	.st134{clip-path:url(#SVGID_00000155136600343813856420000014174817586888694454_);}
	.st135{clip-path:url(#SVGID_00000068648881576851379200000006410742353179021213_);fill:#EBEAD8;}
	.st136{clip-path:url(#SVGID_00000068648881576851379200000006410742353179021213_);}
	.st137{clip-path:url(#SVGID_00000101825932389181026870000013625688454842336408_);}
	.st138{clip-path:url(#SVGID_00000183232225135155710980000002136970238705983889_);}
	.st139{clip-path:url(#SVGID_00000075157988079644716560000002420549810831156622_);}
	.st140{clip-path:url(#SVGID_00000150081645549668463950000015808601541318552742_);}
	.st141{clip-path:url(#SVGID_00000064354018981529123110000014778035141644408476_);}
	.st142{fill:#ED8376;stroke:#1A2276;stroke-width:6;stroke-miterlimit:10;}
	.st143{fill:url(#);stroke:#1A2276;stroke-width:6;stroke-miterlimit:10;}
	.st144{clip-path:url(#SVGID_00000053533422423073251640000007565669686881372824_);}
	
		.st145{clip-path:url(#SVGID_00000095299357823220348050000001661979555351516842_);fill:#FCCF72;stroke:#1A2276;stroke-width:6;stroke-miterlimit:10;}
	.st146{fill:none;stroke:#FCCF72;stroke-width:6;stroke-linecap:round;stroke-miterlimit:10;}
	.st147{clip-path:url(#SVGID_00000088848919815285449620000013927671211432931991_);}
</style>
<g id="guias" class="st0">
</g>
<g id="Layer_2">
</g>
<g id="Layer_1">
	<rect x="2.5" y="1" class="st6" width="897" height="897"/>
	<g>
		<polygon class="st7" points="226.2,67.4 224.2,98.4 242.5,123.9 221.1,146 219.1,177 188.4,179.8 167,201.9 141.3,184.1 
			110.5,186.9 101.8,156.8 76.1,139 88.5,110.8 79.9,80.7 107.6,67.5 120.1,39.2 150.1,47.2 177.8,34 196.2,59.4 		"/>
		<g>
			<g>
				<path class="st6" d="M147.8,161.9c0-4.7,3.8-8.5,8.5-8.5c4.7,0,8.5,3.8,8.5,8.5v5.3h4.6c4.7,0,8.5,3.8,8.5,8.5s-3.8,8.5-8.5,8.5
					h-12.8c-4,0-7.3-2.7-8.3-6.4c-0.4-1-0.6-2-0.6-3.2V161.9z"/>
				<path class="st5" d="M169.4,185.4h-12.8c-4.4,0-8.2-2.9-9.3-7.2c-0.4-1.1-0.7-2.3-0.7-3.5v-12.8c0-5.3,4.3-9.6,9.6-9.6
					c5.3,0,9.6,4.3,9.6,9.6v4.3h3.5c5.3,0,9.6,4.3,9.6,9.6C179,181.1,174.7,185.4,169.4,185.4z M156.3,154.5c-4.1,0-7.4,3.3-7.4,7.4
					v12.8c0,1,0.2,1.9,0.5,2.8l0,0.1c0.8,3.3,3.8,5.6,7.2,5.6h12.8c4.1,0,7.4-3.3,7.4-7.4c0-4.1-3.3-7.4-7.4-7.4h-5.7v-6.4
					C163.8,157.8,160.4,154.5,156.3,154.5z"/>
			</g>
			<g>
				<line class="st6" x1="177.9" y1="177.7" x2="148.5" y2="177.7"/>
				<rect x="148.5" y="176.7" class="st5" width="29.4" height="2.1"/>
			</g>
			<g>
				<line class="st6" x1="164.8" y1="167.3" x2="160.4" y2="173.1"/>
				
					<rect x="158.9" y="169.1" transform="matrix(0.6034 -0.7974 0.7974 0.6034 -71.2453 197.1684)" class="st5" width="7.3" height="2.1"/>
			</g>
			<g>
				<line class="st6" x1="169.1" y1="168" x2="164.6" y2="173.9"/>
				
					<rect x="163.2" y="169.9" transform="matrix(0.6034 -0.7974 0.7974 0.6034 -70.123 200.8438)" class="st5" width="7.3" height="2.1"/>
			</g>
			<g>
				<line class="st6" x1="173.3" y1="168.7" x2="168.9" y2="174.6"/>
				
					<rect x="167.4" y="170.6" transform="matrix(0.6034 -0.7974 0.7974 0.6034 -69.0008 204.5193)" class="st5" width="7.3" height="2.1"/>
			</g>
			<g>
				<circle class="st6" cx="155.4" cy="168.2" r="3.5"/>
				<path class="st5" d="M155.4,172.8c-2.5,0-4.6-2.1-4.6-4.6c0-2.5,2.1-4.6,4.6-4.6s4.6,2.1,4.6,4.6
					C160,170.7,158,172.8,155.4,172.8z M155.4,165.7c-1.4,0-2.5,1.1-2.5,2.5s1.1,2.5,2.5,2.5s2.5-1.1,2.5-2.5
					S156.8,165.7,155.4,165.7z"/>
			</g>
			<g>
				<g>
					<path class="st6" d="M115.2,161.9c0-4.7,3.8-8.5,8.5-8.5s8.5,3.8,8.5,8.5v5.3h4.6c4.7,0,8.5,3.8,8.5,8.5s-3.8,8.5-8.5,8.5H124
						c-4,0-7.3-2.7-8.3-6.4c-0.4-1-0.6-2-0.6-3.2V161.9z"/>
					<path class="st5" d="M136.8,185.4H124c-4.4,0-8.2-2.9-9.3-7.2c-0.4-1.1-0.7-2.3-0.7-3.5v-12.8c0-5.3,4.3-9.6,9.6-9.6
						c5.3,0,9.6,4.3,9.6,9.6v4.3h3.5c5.3,0,9.6,4.3,9.6,9.6C146.4,181.1,142.1,185.4,136.8,185.4z M123.7,154.5
						c-4.1,0-7.4,3.3-7.4,7.4v12.8c0,1,0.2,1.9,0.5,2.8l0,0.1c0.8,3.3,3.8,5.6,7.2,5.6h12.8c4.1,0,7.4-3.3,7.4-7.4
						c0-4.1-3.3-7.4-7.4-7.4h-5.7v-6.4C131.1,157.8,127.8,154.5,123.7,154.5z"/>
				</g>
				<g>
					<line class="st6" x1="145.3" y1="177.7" x2="115.9" y2="177.7"/>
					<rect x="115.9" y="176.7" class="st5" width="29.4" height="2.1"/>
				</g>
				<g>
					<line class="st6" x1="132.2" y1="167.3" x2="127.8" y2="173.1"/>
					
						<rect x="126.3" y="169.1" transform="matrix(0.6034 -0.7974 0.7974 0.6034 -84.1861 171.1471)" class="st5" width="7.3" height="2.1"/>
				</g>
				<g>
					<line class="st6" x1="136.5" y1="168" x2="132" y2="173.9"/>
					
						<rect x="130.6" y="169.9" transform="matrix(0.6034 -0.7974 0.7974 0.6034 -83.0639 174.8225)" class="st5" width="7.3" height="2.1"/>
				</g>
				<g>
					<line class="st6" x1="140.7" y1="168.7" x2="136.3" y2="174.6"/>
					
						<rect x="134.8" y="170.6" transform="matrix(0.6034 -0.7974 0.7974 0.6034 -81.9416 178.4979)" class="st5" width="7.3" height="2.1"/>
				</g>
				<g>
					<circle class="st6" cx="122.8" cy="168.2" r="3.5"/>
					<path class="st5" d="M122.8,172.8c-2.5,0-4.6-2.1-4.6-4.6c0-2.5,2.1-4.6,4.6-4.6s4.6,2.1,4.6,4.6
						C127.4,170.7,125.3,172.8,122.8,172.8z M122.8,165.7c-1.4,0-2.5,1.1-2.5,2.5s1.1,2.5,2.5,2.5c1.4,0,2.5-1.1,2.5-2.5
						S124.2,165.7,122.8,165.7z"/>
				</g>
			</g>
			<g>
				<ellipse class="st6" cx="149.7" cy="125.4" rx="38.1" ry="29.8"/>
				<path class="st5" d="M149.7,156.3c-19.3,0-29,0-34-3.9c-5.2-4-5.2-11.7-5.2-26.9s0-22.9,5.2-26.9c5.1-3.9,14.7-3.9,34-3.9
					c19.3,0,29,0,34,3.7c5.2,3.8,5.2,11.1,5.2,25.5l0,1.6l0,1.6c0,14.4,0,21.7-5.2,25.5C178.7,156.3,169,156.3,149.7,156.3z
					 M149.7,96.7c-18.8,0-28.2,0-32.7,3.5c-4.4,3.4-4.4,10.7-4.4,25.2s0,21.8,4.4,25.2c4.5,3.5,13.9,3.5,32.7,3.5
					c18.8,0,28.3,0,32.7-3.3c4.3-3.2,4.3-10.1,4.3-23.8l0-1.6l0-1.6c0-13.7,0-20.6-4.3-23.8C178,96.7,168.6,96.7,149.7,96.7z"/>
			</g>
			<g>
				<path class="st8" d="M149.9,144.6c-38.8,0-38.3-12.2-38.3-11.5c0,27.8,0.2,27.8,38.1,27.8c37.3,0,38.1,0,38.1-27.8
					C187.9,132.4,188.1,144.6,149.9,144.6z"/>
				<path class="st5" d="M149.8,162c-19.2,0-28.9,0-33.9-3.7c-5.3-3.8-5.3-11.4-5.3-25.2h0c0-0.5,0.2-0.7,0.3-0.8l0.5-0.5l1.3,0.5
					v0.7c0.1,0.5,2,10.5,37.2,10.5c35.1,0,36.9-10.2,36.9-10.6l0.1-1l2,0.1l0,1c0,14.4-0.2,21.5-5.5,25.2
					C178.3,162,168.8,162,149.8,162z M112.7,137.1c0,10.8,0.5,16.6,4.4,19.4c4.5,3.3,13.9,3.3,32.7,3.3c18.5,0,27.8,0,32.4-3.3
					c4-2.8,4.6-8.5,4.6-19.5c-0.9,0.9-2.1,1.9-3.7,2.9c-6.6,3.8-17.8,5.7-33.1,5.7c-13.4,0-23.6-1.4-30.5-4.3
					C116.1,140,114,138.5,112.7,137.1z"/>
			</g>
			<g>
				<line class="st6" x1="183.2" y1="113.4" x2="127.7" y2="113.4"/>
				<rect x="127.7" y="112.3" class="st5" width="55.5" height="2.1"/>
			</g>
			<g>
				<line class="st6" x1="121.2" y1="112.7" x2="121.2" y2="119.7"/>
				<rect x="120.1" y="112.7" class="st5" width="2.1" height="7.1"/>
			</g>
			<g>
				<path class="st6" d="M175.9,123.8c0,0-1.6-4.6-6.5-3.8c-4.9,0.8-5.5,3.8-5.5,3.8"/>
				<path class="st5" d="M174.9,124.1c-0.1-0.2-1.4-3.8-5.4-3.1c-4,0.7-4.6,2.9-4.6,3l-2.1-0.4c0-0.2,0.7-3.7,6.3-4.7
					c4.6-0.8,7.1,2.6,7.7,4.5L174.9,124.1z"/>
			</g>
			<g>
				<path class="st6" d="M153.6,124.1c0,0-1.6-4.6-6.5-3.8c-4.9,0.8-5.5,3.8-5.5,3.8"/>
				<path class="st5" d="M152.6,124.5c-0.1-0.2-1.4-3.8-5.4-3.1c-4,0.7-4.6,2.9-4.6,3l-2.1-0.4c0-0.2,0.7-3.7,6.3-4.7
					c4.6-0.8,7.1,2.6,7.7,4.5L152.6,124.5z"/>
			</g>
			<g>
				<path class="st6" d="M165.8,128.3c0,0,1.3,5.3-4.4,6.1c-6,0.9-6.4-5.1-6.4-5.1"/>
				<path class="st5" d="M160.1,135.6c-1.5,0-2.8-0.4-3.8-1.3c-2.2-1.8-2.5-4.8-2.5-4.9l2.1-0.2c0,0,0.2,2.2,1.7,3.4
					c0.9,0.7,2,0.9,3.5,0.7c1.4-0.2,2.5-0.8,3-1.6c0.9-1.4,0.5-3.2,0.5-3.2l2.1-0.5c0,0.1,0.6,2.7-0.8,4.9c-0.9,1.4-2.4,2.2-4.5,2.5
					C161,135.6,160.6,135.6,160.1,135.6z"/>
			</g>
			<g>
				<path class="st6" d="M103.5,128.1c4.3-1.9,9.3,0.1,11.2,4.4l5.1,11.7c1.9,4.3-0.1,9.3-4.4,11.2c-4.3,1.9-9.3-0.1-11.2-4.4
					l-5.1-11.7C97.2,135,99.2,130,103.5,128.1z"/>
				<path class="st5" d="M112.1,157.2c-1.2,0-2.4-0.2-3.5-0.7c-2.4-0.9-4.3-2.7-5.3-5.1l-5.1-11.7c-2.1-4.8,0.1-10.5,4.9-12.6
					c2.3-1,4.9-1.1,7.3-0.1c2.4,0.9,4.3,2.7,5.3,5.1l5.1,11.7c1,2.3,1.1,4.9,0.1,7.3c-0.9,2.4-2.7,4.3-5.1,5.3
					C114.7,156.9,113.4,157.2,112.1,157.2z M106.9,128.5c-1,0-2,0.2-3,0.6c-1.8,0.8-3.2,2.3-3.9,4.1c-0.7,1.9-0.7,3.9,0.1,5.7
					l5.1,11.7c1.6,3.8,6,5.5,9.8,3.8c1.8-0.8,3.2-2.3,3.9-4.1c0.7-1.9,0.7-3.9-0.1-5.7l-5.1-11.7
					C112.5,130.1,109.8,128.5,106.9,128.5z"/>
			</g>
			<g>
				<circle class="st5" cx="119.1" cy="97.8" r="13.5"/>
			</g>
			<g>
				<circle class="st5" cx="163.1" cy="82.2" r="13.5"/>
			</g>
			<g>
				<ellipse class="st5" cx="142.9" cy="86.4" rx="24.5" ry="18.4"/>
			</g>
			<g>
				<ellipse class="st5" cx="171.3" cy="86.4" rx="24.5" ry="18.4"/>
			</g>
			<g>
				<g>
					<ellipse class="st6" cx="192.3" cy="116.2" rx="11.4" ry="9.6"/>
					<path class="st5" d="M192.3,126.8c-6.9,0-12.5-4.8-12.5-10.7s5.6-10.7,12.5-10.7c6.9,0,12.5,4.8,12.5,10.7
						S199.1,126.8,192.3,126.8z M192.3,107.6c-5.7,0-10.3,3.8-10.3,8.6c0,4.7,4.6,8.6,10.3,8.6c5.7,0,10.3-3.8,10.3-8.6
						C202.6,111.4,198,107.6,192.3,107.6z"/>
				</g>
				<g>
					<path class="st6" d="M205.8,86.2c-2.5-1.3-5.7-0.1-7.1,2.6c0,0.1-0.1,0.1-0.1,0.2l0,0l-3.8,7.6v-8.5h0c0-0.1,0-0.1,0-0.2
						c0-3.1-2.3-5.5-5.2-5.5s-5.2,2.5-5.2,5.5c0,0.1,0,0.1,0,0.2h0v15.3h8.6l7.9,4l6.9-13.7l0,0c0-0.1,0.1-0.1,0.1-0.2
						C209.3,90.8,208.3,87.5,205.8,86.2z"/>
					<path class="st5" d="M201.4,108.8l-8.6-4.3h-9.4V87h0.1c0.4-3.2,3-5.7,6.2-5.7s5.8,2.5,6.2,5.7h0l0,0.7c0,0.1,0,0.1,0,0.2
						c0,0,0,0,0,0.1l0,0.1v4.1l2.3-4.5l0,0c0.8-1.2,1.9-2.1,3.2-2.6c1.6-0.6,3.3-0.5,4.8,0.2c1.5,0.8,2.6,2.1,3.1,3.7
						c0.4,1.4,0.3,2.8-0.1,4.1l0,0l-0.3,0.6c0,0.1-0.1,0.1-0.1,0.2c0,0,0,0,0,0.1l-0.1,0.1L201.4,108.8z M185.5,102.3h7.8l7.2,3.6
						l5.9-11.7l0,0l0.5-1c0,0,0-0.1,0.1-0.1l0,0c0.5-1.1,0.7-2.3,0.3-3.4c-0.3-1.1-1-2-2-2.4c-1-0.5-2.1-0.5-3.1-0.1
						c-1.1,0.4-2,1.2-2.5,2.3l0,0c0,0,0,0.1,0,0.1l-0.5,1l0,0l-5.3,10.6v-12h0l0-1.3c0-2.5-1.8-4.5-4.1-4.5s-4.1,2-4.1,4.5l0,0.2
						l0,1.1h0V102.3z"/>
				</g>
				<g>
					<path class="st6" d="M193.4,109.9c-2.3,1.1-3.3,4.1-2.1,6.6c1.2,2.6,4.1,3.8,6.4,2.7c0,0,0.1-0.1,0.1-0.1l0,0l7.8-3.2
						c4.4-3.7,0.9-10.5-4.3-9.4l-7.8,3.2l0,0C193.5,109.9,193.5,109.9,193.4,109.9z"/>
					<path class="st5" d="M195.9,120.8c-2.3,0-4.5-1.4-5.6-3.8c-1.3-2.8-0.5-6,1.8-7.6l0-0.1l1-0.4l7.9-3.3l0.1,0
						c2.8-0.6,5.6,0.7,6.9,3.4c1.4,2.7,0.7,5.8-1.7,7.9l-0.1,0.1l-8,3.3c0,0,0,0-0.1,0c-0.2,0.1-0.3,0.1-0.5,0.2l-0.4,0.1l0,0
						C196.9,120.7,196.4,120.8,195.9,120.8z M193.4,109.9l0.4,1c-1.8,0.8-2.5,3.2-1.6,5.2c0.9,2.1,3.2,3.1,5,2.2l0.1-0.1l1-0.5
						l0,0.1l6.7-2.8c1.8-1.7,1.7-3.8,1-5.2c-0.7-1.3-2.2-2.7-4.5-2.3l-6.7,2.8l0,0l-1.1,0.5L193.4,109.9L193.4,109.9z"/>
				</g>
				<g>
					<path class="st6" d="M190.3,103.2c-2.8,1.3-4.1,4.4-2.9,7c1.2,2.6,4.4,3.7,7.2,2.4c0.1,0,0.1-0.1,0.2-0.1l0,0l9.3-3.9
						c5.3-4.2,1.8-10.9-4.3-9.4l-9.3,3.9l0,0C190.4,103.1,190.3,103.1,190.3,103.2z"/>
					<path class="st5" d="M192.2,114.2c-2.4,0-4.7-1.3-5.7-3.5c-0.7-1.5-0.7-3.2-0.1-4.8c0.5-1.3,1.5-2.4,2.7-3.2l0-0.1l1-0.4
						l9.4-3.9c3.8-1,6.5,0.9,7.6,3.1c1.4,2.8,0.4,6-2.4,8.2l-0.1,0.1l-9.4,4c0,0-0.1,0-0.1,0c-0.2,0.1-0.4,0.2-0.6,0.2l-0.3,0.1l0,0
						C193.5,114,192.8,114.2,192.2,114.2z M190.7,104.1c-1.1,0.5-1.9,1.4-2.4,2.4c-0.4,1-0.4,2.2,0,3.1c0.9,2.1,3.5,2.9,5.8,1.9
						l0.1-0.1l1-0.5l0,0.1l8.2-3.4c2.3-1.9,2.4-4,1.7-5.5c-0.7-1.3-2.4-2.7-5.1-2l-9.2,3.9C190.8,104.1,190.8,104.1,190.7,104.1
						L190.7,104.1z"/>
				</g>
				<g>
					<path class="st6" d="M184.9,103.5c-2.4-0.9-5.2,0.6-6.2,3.3s0.2,5.6,2.6,6.4c0.1,0,0.1,0,0.2,0l0,0l7.8,3.2
						c5.7,0.4,8-6.9,3.5-9.7l-7.8-3.2l0,0C185,103.5,185,103.5,184.9,103.5z"/>
					<path class="st5" d="M189.8,117.5c-0.2,0-0.4,0-0.5,0l-0.2,0l-8-3.3c0,0-0.1,0-0.1,0c-0.2-0.1-0.3-0.1-0.5-0.2l-0.3-0.1l0,0
						c-2.4-1.4-3.5-4.5-2.5-7.5c0.6-1.5,1.6-2.8,3-3.5c1.1-0.6,2.4-0.8,3.6-0.6l0-0.1l1,0.4l7.9,3.2l0.1,0c2.4,1.5,3.5,4.5,2.5,7.2
						C195.1,115.8,192.7,117.5,189.8,117.5z M189.6,115.4c2.5,0.1,3.9-1.5,4.4-3c0.5-1.4,0.3-3.5-1.6-4.7l-7.7-3.2c0,0-0.1,0-0.1,0
						l0,0c-0.9-0.3-1.9-0.2-2.8,0.2c-0.9,0.5-1.6,1.3-2,2.4c-0.8,2.1,0.1,4.4,2,5.1l0.1,0l1,0.3l0,0.1L189.6,115.4z"/>
				</g>
			</g>
		</g>
	</g>
	<g>
		<g>
			<polygon class="st8" points="830.1,410.6 72,463.4 72,396.7 830.1,343.8 			"/>
		</g>
		<text transform="matrix(1 -6.972903e-02 0 1 117.3905 443.6202)" class="st6 st35 st36 st37">INCREÍBLE · FANTÁSTICA · APOTEÓSICA</text>
	</g>
	<g>
		<polygon class="st5" points="67,158 835.1,104.4 835.1,331.7 67,385.2 		"/>
		<path class="st6" d="M830.1,109.8V327L72,379.8V162.6L830.1,109.8 M840.1,99.1l-10.7,0.7L71.3,152.7l-9.3,0.6v9.3v217.2v10.7
			l10.7-0.7L830.8,337l9.3-0.6V327V109.8V99.1L840.1,99.1z"/>
	</g>
	<g>
		<text transform="matrix(1 -6.972903e-02 0 1 109.4897 309.7534)" class="st10 st35 st46">PÁGINA QUIENES SOMOS</text>
		<text transform="matrix(1 -6.972903e-02 0 1 114.4898 300.3351)" class="st5 st35 st46">PÁGINA QUIENES SOMOS</text>
		<text transform="matrix(1 -6.972903e-02 0 1 121.8816 292.3946)" class="st6 st35 st46">PÁGINA QUIENES SOMOS</text>
	</g>
</g>
<g id="web">
	<rect x="92.9" y="515.9" class="st53" width="281.6" height="368.3"/>
	<text transform="matrix(1 0 0 1 92.9229 538.9644)"><tspan x="0" y="0" class="st35 st92">Cuida tu sección “Quiénes </tspan><tspan x="0" y="33.6" class="st35 st92">somos”</tspan><tspan x="82.3" y="33.6" class="st93 st92">. No tengas miedo </tspan><tspan x="0" y="67.2" class="st93 st92">a presentarte en tu </tspan><tspan x="0" y="100.8" class="st93 st92">página. Dedícale una sec</tspan><tspan x="260.3" y="100.8" class="st93 st92">-</tspan><tspan x="0" y="134.4" class="st93 st92">ción. Describe quién eres, </tspan><tspan x="0" y="168" class="st93 st92">lo que haces y por qué de</tspan><tspan x="269" y="168" class="st93 st92">-</tspan><tspan x="0" y="201.6" class="st93 st92">berían elegirte a ti. Hazlo </tspan><tspan x="0" y="235.2" class="st93 st92">con naturalidad y sen</tspan><tspan x="227.6" y="235.2" class="st93 st92">-</tspan><tspan x="0" y="268.8" class="st93 st92">cillez. Tus usuarios van a </tspan><tspan x="0" y="302.4" class="st93 st92">valorarlo positivamente. </tspan></text>
	<g>
		<g>
			<path class="st5" d="M227,499.4c-6.7,0-12-5.3-12-12v-15.8c0-8.9,4-17.2,11.1-22.8l2.8-2.2c2.4-1.8,5.2-3.5,8.6-3.5
				c6.7,0,12.4,5.6,12.4,12.2c0,3.9-1.7,7.3-4.8,9.7l-2.5,1.9c-0.1,0.1-0.3,0.2-0.4,0.4l0.9,0.5c4.5,2.4,7.3,5.1,7.3,11.3v8.5
				c0,6.7-5.3,12-12,12H227z M189.6,499.4c-6.7,0-12-5.3-12-12v-15.8c0-8.9,4-17.2,11.1-22.8l2.8-2.2c2.4-1.8,5.2-3.5,8.6-3.5
				c6.7,0,12.4,5.6,12.4,12.2c0,3.9-1.7,7.3-4.8,9.7l-2.5,1.9c-0.1,0.1-0.3,0.2-0.4,0.4l0.9,0.5c4.5,2.4,7.3,5.1,7.3,11.3v8.5
				c0,6.7-5.3,12-12,12H189.6z"/>
			<path class="st6" d="M237.4,448c3.8,0,7.4,3.2,7.4,7.2c0,1.8-0.5,4-2.9,5.8l-2.5,2c-2,1.6-3.2,2.7-3.2,4.9c0,1.8,1.3,2.7,3.4,3.8
				l1.1,0.5c3.4,1.8,4.7,3.1,4.7,6.8v8.5c0,4-3.1,7-7,7H227c-4,0-7-3.1-7-7v-15.8c0-8.1,4-14.8,9.2-18.9l2.7-2.2
				C234,448.9,235.6,448,237.4,448 M200,448c3.8,0,7.4,3.2,7.4,7.2c0,1.8-0.5,4-2.9,5.8l-2.5,2c-2,1.6-3.2,2.7-3.2,4.9
				c0,1.8,1.3,2.7,3.4,3.8l1.1,0.5c3.4,1.8,4.7,3.1,4.7,6.8v8.5c0,4-3.1,7-7,7h-11.3c-4,0-7-3.1-7-7v-15.8c0-8.1,4-14.8,9.2-18.9
				l2.7-2.2C196.6,448.9,198.2,448,200,448 M237.4,438c-4.9,0-8.6,2.3-11.6,4.5l-0.1,0.1l-0.1,0.1l-2.7,2.2
				c-2.3,1.8-4.3,3.9-6.1,6.2c-1.9-7.4-8.9-13.1-16.8-13.1c-4.9,0-8.6,2.3-11.6,4.5l-0.1,0.1l-0.1,0.1l-2.7,2.2
				c-8.2,6.5-12.9,16.2-12.9,26.7v15.8c0,9.5,7.5,17,17,17h11.3c5.3,0,9.9-2.3,13-6c3.1,3.7,7.8,6,13,6h11.3c9.5,0,17-7.5,17-17
				v-8.5c0-5.9-2.1-9.7-4.9-12.2c2.9-3.1,4.4-7.1,4.4-11.5C254.8,445.9,246.8,438,237.4,438L237.4,438z"/>
		</g>
	</g>
	<g>
		<text transform="matrix(0.9762 -7.598437e-02 2.250000e-03 1 269.6142 135.8423)" class="st5 st35 st95">webconsejos</text>
		<g>
			<g>
				<path class="st10" d="M674,90.5c0.9,2.4,2.4,3.5,4.8,3.3c1.4-0.1,1.8-0.3,4.9-2.1c0.4-0.2,0.9-0.4,1.3-0.4
					c1.2-0.1,2.4,1,2.4,2.3c0,2.5-4.4,5.2-9,5.6c-6.4,0.5-10.9-3.6-10.9-9.9c0-6.6,4.4-11.7,10.3-12.2c5.6-0.4,10,3.9,10,9.9
					c0,1.7-0.8,2.5-2.6,2.6L674,90.5z M681.9,85.7c-0.3-1.2-0.5-1.6-0.9-2.2c-0.7-1-1.8-1.5-3.1-1.4c-2,0.2-3.3,1.4-4.2,4.2
					L681.9,85.7z"/>
				<path class="st10" d="M696.5,77.5c1.8-1.5,3.1-2,4.9-2.2c5.2-0.4,9.3,4.1,9.4,10.3c0,6.3-4,11.4-9.3,11.9c-2.2,0.2-3.7-0.4-5-2
					c-0.7,1.6-1.5,2.4-2.8,2.5c-1.8,0.1-3.1-1.1-3.1-3l-0.1-23.7c0-1.5,0-1.9,0.4-2.6c0.4-1,1.5-1.7,2.6-1.8
					c1.1-0.1,2.1,0.5,2.6,1.4c0.4,0.7,0.4,1,0.4,2.5L696.5,77.5z M696.5,86.7c0,3.1,1.8,5.2,4.2,5.1c2.3-0.2,4.1-2.6,4.1-5.7
					c0-3-1.8-5.2-4.1-5C698.3,81.3,696.5,83.7,696.5,86.7z"/>
				<path class="st10" d="M713.3,78.1c0-2.2,1.2-3.7,3.1-3.9c1.4-0.1,2.2,0.5,2.8,1.9c1.8-1.8,3.2-2.5,5.5-2.7
					c2.1-0.2,3.8,0.3,5.2,1.4c1.6,1.3,2.2,2.8,2.2,5.8l0,10.1c0,1.5,0,1.9-0.4,2.6c-0.4,1-1.5,1.7-2.6,1.8c-1.1,0.1-2.2-0.5-2.6-1.4
					c-0.4-0.7-0.4-1-0.4-2.5l0-8.7c0-2.4-1.3-3.8-3.4-3.6c-1.9,0.1-3.4,1.9-3.4,3.9l0,8.9c0,1.5,0,1.9-0.4,2.6
					c-0.4,1-1.5,1.7-2.6,1.8c-1.1,0.1-2.2-0.5-2.6-1.4c-0.4-0.7-0.4-1-0.4-2.5L713.3,78.1z"/>
				<path class="st10" d="M736.3,76.8c0-1.5,0-1.9,0.4-2.6c0.4-1,1.5-1.7,2.6-1.8c1.1-0.1,2.1,0.5,2.6,1.4c0.4,0.7,0.4,1,0.4,2.5
					l0,13.7c0,1.5,0,1.9-0.4,2.6c-0.4,1-1.5,1.7-2.6,1.8c-1.1,0.1-2.2-0.5-2.6-1.4c-0.4-0.7-0.4-1-0.4-2.5L736.3,76.8z M745.7,66.2
					c0-1.4-1.2-2.5-2.8-2.6v0l-0.1,0c-0.2,0-0.4,0-0.5,0c-0.2,0-0.4,0-0.6,0.1l-4.8,0.4c-0.2,0-0.4,0-0.5,0c-2,0.2-3.6,1.6-3.6,3.2
					c0,1.6,1.6,2.8,3.5,2.7c0,0,0.1,0,0.1,0l6.5-0.6C744.6,68.9,745.7,67.6,745.7,66.2z"/>
				<path class="st10" d="M761.1,74.9c0,1.4-1.1,2.8-2.3,2.9c-0.7,0.1-0.7,0.1-2.5-0.6c-0.9-0.4-1.7-0.5-2.3-0.5
					c-1,0.1-1.6,0.5-1.6,1.2c0,0.8,0.3,1,3.2,1.9c2.7,0.9,3.5,1.3,4.6,2.3c0.9,1,1.5,2.2,1.5,3.7c0,4.1-3.2,7.1-7.9,7.5
					c-4.1,0.3-7.7-1.5-7.7-3.9c0-1.4,1.2-2.9,2.5-3c0.7-0.1,0.7-0.1,3.1,0.9c1,0.4,1.8,0.5,2.4,0.5c1-0.1,1.8-0.8,1.8-1.6
					c0-0.7-0.5-1.1-2.3-1.6c-3-0.9-3.8-1.3-4.8-1.9c-1.4-0.9-2.1-2.3-2.1-4.3c0-3.8,3.3-6.9,7.7-7.3
					C757.9,70.9,761.1,72.6,761.1,74.9z"/>
				<path class="st10" d="M771.5,64.3c0,2-1.5,3.7-3.5,3.9c-2,0.2-3.5-1.3-3.5-3.3c0-2,1.6-3.7,3.6-3.8
					C770,60.9,771.5,62.4,771.5,64.3z M765,74.6c0-1.5,0-1.9,0.4-2.6c0.4-1,1.5-1.7,2.6-1.8c1.1-0.1,2.1,0.5,2.6,1.4
					c0.4,0.7,0.4,1,0.4,2.5l0,13.7c0,1.5,0,1.9-0.4,2.6c-0.4,1-1.5,1.7-2.6,1.8c-1.1,0.1-2.2-0.5-2.6-1.4c-0.4-0.7-0.4-1-0.4-2.5
					L765,74.6z"/>
				<path class="st10" d="M775.3,73.2c0-2.1,1.2-3.7,3-3.8c1.2-0.1,1.8,0.3,2.9,1.8c1.7-1.7,3.1-2.4,5.3-2.6c1.5-0.1,3,0.1,4.1,0.7
					c0.6,0.3,1,0.6,1.7,1.5c2.4-2.2,4-3,6.3-3.2c4.2-0.3,7.2,2.5,7.3,6.6l0,10.8c0,1.5,0,1.9-0.4,2.6c-0.4,1-1.5,1.7-2.6,1.8
					c-1.1,0.1-2.2-0.5-2.6-1.4c-0.4-0.7-0.4-1-0.4-2.5l0-9.4c0-1.9-1.2-3.1-3.1-3s-3.1,1.5-3.1,3.4l0,9.4c0,1.5,0,1.9-0.4,2.6
					c-0.4,1-1.5,1.7-2.6,1.8c-1.1,0.1-2.2-0.5-2.6-1.4c-0.4-0.7-0.4-1-0.4-2.5l0-8.8c0-2.4-1.2-3.7-3.1-3.5
					c-1.8,0.1-3.1,1.6-3.1,3.4l0,9.4c0,1.5,0,1.9-0.4,2.6c-0.4,1-1.5,1.7-2.6,1.8c-1.1,0.1-2.2-0.5-2.6-1.4c-0.4-0.7-0.4-1-0.4-2.5
					L775.3,73.2z"/>
				<path class="st10" d="M829,83.7c0,2.2-1.2,3.7-3,3.9c-1.4,0.1-2.4-0.6-3-2.2c-1.5,2-2.7,2.8-4.9,2.9c-2.2,0.2-4.2-0.5-5.9-1.9
					c-2.4-2-3.6-4.8-3.6-8.5c0-3.4,1-6,3.1-8.4c1.8-2,3.9-3.1,6.3-3.3c2.1-0.2,3.4,0.4,5.1,2c0.7-1.7,1.5-2.4,3-2.5
					c1.7-0.1,3,1.2,3,2.9L829,83.7z M814.5,77.5c0,3.2,1.6,5.2,4.2,5.1c2.5-0.2,4.1-2.5,4.1-5.7c0-3.1-1.7-5.2-4.2-5
					C816.1,72.1,814.5,74.4,814.5,77.5z"/>
			</g>
			<g>
				<path class="st5" d="M664.6,79.6c-0.4-0.7-1.1-1.2-1.9-1.3c-0.2,0-0.5-0.1-0.7,0c-0.2,0-0.5,0.1-0.7,0.1
					c-0.8,0.3-1.6,0.9-1.9,1.6c-0.3,0.5-0.3,0.9-0.4,1.5c0,0.3,0,10.8,0,10.8c0,1-0.3,1.5-0.6,1.9c-0.4,0.4-0.9,0.6-1.4,0.7
					c-0.6,0-1.1-0.2-1.5-0.6c-0.3-0.4-0.6-0.8-0.6-1.7l0-10.1l0,0c0-1.2-0.1-1.6-0.4-2.2c-0.4-0.7-1.1-1.2-1.9-1.3
					c-0.2,0-0.5-0.1-0.7,0c-0.2,0-0.5,0.1-0.7,0.1c-0.8,0.3-1.6,0.9-1.9,1.6c-0.3,0.5-0.3,0.9-0.4,1.5c0,0.2,0,0.8,0,0.8l0,10
					c0,1-0.3,1.5-0.6,1.9c-0.4,0.4-0.9,0.6-1.4,0.7c-0.6,0-1.1-0.2-1.5-0.6c-0.3-0.4-0.6-0.8-0.6-1.7l-0.1-9.7c0-1.5,0-1.8-0.4-2.5
					c-0.4-0.7-1.1-1.2-1.9-1.3c-0.2,0-0.5-0.1-0.7,0c-0.2,0-0.5,0.1-0.7,0.1c-0.8,0.3-1.6,0.9-1.9,1.6c-0.3,0.5-0.3,0.9-0.4,1.5
					c0,0.3,0,11,0,11c0,3,1,4.8,2.7,6c1.5,1.1,3.4,1.6,5.2,1.4c1.6-0.1,2.9-0.5,4-1.3l0.5-0.4c0.3-0.2,0.6-0.4,0.8-0.4
					c0.3,0,0.5,0.1,0.8,0.2l0.6,0.3c1.1,0.6,2.5,0.8,4,0.6c1.9-0.1,3.6-0.9,5.1-2.2c1.7-1.5,2.7-3.4,2.7-6.4l0-9.9
					C665,80.6,664.9,80.3,664.6,79.6z"/>
				<g>
					<g>
						<path class="st9" d="M651.8,72.2c-6,0.6-11,0.1-11-1c0-0.4,0.7-0.7,1.7-1.2c4.4-2,6.7-2.6,10.8-2.6c2.9,0,6.2-0.2,8.5,1.1
							c0.6,0.2,0.9,0.4,0.9,0.7C662.7,70.2,657.8,71.6,651.8,72.2z M668.1,68.8c-0.1-2.8-5.1-4.3-16.4-3.3
							c-10.7,1-16.3,3.5-16.3,6.3c0.1,4.3,7.4,5.9,16.5,5C660.9,76,668.1,73.1,668.1,68.8z"/>
					</g>
				</g>
			</g>
		</g>
	</g>
	<g>
		<path class="st6" d="M642.8,710.8c-107.7,24.8-161,36.2-193.7,24.9c-35.3-12.3-43.6-48-58.5-112.9l-3.3-14.4
			c-15.3-66.1-23.7-102.5,5.1-129.1c26.5-24.5,84.1-37.7,198.8-64.2l15.3-3.5c108-24.9,161.4-36.3,194.5-23.9
			c35.4,13.2,44.1,50.8,59.8,119.1c16,69.5,24.8,107.7-3.6,135.2c-26.3,25.5-83.9,38.8-198.7,65.3L642.8,710.8z"/>
		
			<ellipse transform="matrix(0.9744 -0.2248 0.2248 0.9744 -110.1425 154.8257)" class="st10" cx="624.9" cy="561.1" rx="232.1" ry="139.9"/>
		<g>
			<g>
				<g>
					
						<ellipse transform="matrix(0.9744 -0.2248 0.2248 0.9744 -110.1425 154.8256)" class="st4" cx="624.9" cy="561.1" rx="232.1" ry="139.9"/>
				</g>
			</g>
			<g>
				<g>
					<path class="st10" d="M828.3,486c8.1,35.3-44.1,47.3-118.7,64.5c-76,17.5-74.6,17.2-82.8-18.1c-8.1-35.3-9.5-35,66.5-52.5
						C768,462.7,820.2,450.7,828.3,486z"/>
				</g>
				<g>
					<path class="st10" d="M842.7,548.1c2.2,9.7-50,21.8-124.6,39c-76,17.5-74.6,17.2-76.9,7.4c-2.2-9.7-3.6-9.4,72.4-26.9
						C788.2,550.4,840.4,538.4,842.7,548.1z"/>
				</g>
				<g>
					<path class="st10" d="M849.4,577.4c2.2,9.7-50,21.8-124.6,39c-76,17.5-74.6,17.2-76.9,7.4c-2.2-9.7-3.6-9.4,72.4-26.9
						C794.9,579.6,847.1,567.6,849.4,577.4z"/>
				</g>
				<g>
					<path class="st10" d="M856.1,606.6c2.2,9.7-50,21.8-124.6,39c-76,17.5-74.6,17.2-76.9,7.4c-2.2-9.7-3.6-9.4,72.4-26.9
						C801.7,608.9,853.9,596.8,856.1,606.6z"/>
				</g>
			</g>
			<g>
				<defs>
					<path id="SVGID_00000141455820046753297640000014253719179303048098_" d="M665.5,563.3c31.4,136.3,44.6,118-0.3,128.6
						c-240.6,56.8-236.5,54.6-268-81.7S362.2,478,602.4,419.3C641.5,409.7,634.1,427,665.5,563.3z"/>
				</defs>
				<clipPath id="SVGID_00000165198919243366647490000016454098214438537630_">
					<use xlink:href="#SVGID_00000141455820046753297640000014253719179303048098_"  style="overflow:visible;"/>
				</clipPath>
				<g style="clip-path:url(#SVGID_00000165198919243366647490000016454098214438537630_);">
					<g>
						<g>
							<path class="st6" d="M533.1,739.7c-2.3-10,3.9-19.9,13.9-22.2c10-2.3,19.9,3.9,22.2,13.9l2.6,11.3l9.8-2.2
								c10-2.3,19.9,3.9,22.2,13.9c2.3,10-3.9,19.9-13.9,22.2l-27,6.2c-8.4,1.9-16.9-2.2-20.6-9.6c-1.3-1.9-2.3-4-2.8-6.4
								L533.1,739.7z"/>
							<path class="st5" d="M590.4,778.7l-27,6.2c-9.3,2.1-18.8-2.3-23.1-10.7c-1.5-2.1-2.5-4.5-3.1-7.1l-6.2-27
								c-2.6-11.2,4.4-22.4,15.6-24.9c11.2-2.6,22.4,4.4,24.9,15.6l2.1,9.1l7.5-1.7c11.2-2.6,22.4,4.4,24.9,15.6
								C608.6,765,601.6,776.2,590.4,778.7z M547.5,719.7c-8.7,2-14.1,10.7-12.1,19.4l6.2,27c0.5,2,1.3,3.9,2.5,5.6l0.2,0.3
								c3.4,6.6,10.8,10.1,18.1,8.4l27-6.2c8.7-2,14.1-10.7,12.1-19.4c-2-8.7-10.7-14.1-19.4-12.1l-12,2.8l-3.1-13.6
								C564.9,723.2,556.2,717.7,547.5,719.7z"/>
						</g>
						<g>
							<line class="st6" x1="604.7" y1="758.4" x2="542.4" y2="772.8"/>
							
								<rect x="541.5" y="763.3" transform="matrix(0.9745 -0.2245 0.2245 0.9745 -157.2146 148.2673)" class="st5" width="64" height="4.6"/>
						</g>
						<g>
							<line class="st6" x1="571.8" y1="742.7" x2="565.3" y2="757.3"/>
							
								<rect x="560.6" y="747.7" transform="matrix(0.409 -0.9125 0.9125 0.409 -348.3787 961.9929)" class="st5" width="16" height="4.6"/>
						</g>
						<g>
							<line class="st6" x1="581.2" y1="742.1" x2="574.6" y2="756.7"/>
							
								<rect x="569.9" y="747.1" transform="matrix(0.409 -0.9125 0.9125 0.409 -342.3245 970.1939)" class="st5" width="16" height="4.6"/>
						</g>
						<g>
							<line class="st6" x1="590.5" y1="741.5" x2="584" y2="756.1"/>
							
								<rect x="579.3" y="746.5" transform="matrix(0.409 -0.9125 0.9125 0.409 -336.2702 978.3949)" class="st5" width="16" height="4.6"/>
						</g>
						<g>
							<circle class="st6" cx="552.3" cy="749.1" r="7.7"/>
							<path class="st5" d="M554.6,758.9c-5.4,1.2-10.8-2.1-12-7.5s2.1-10.8,7.5-12c5.4-1.2,10.8,2.1,12,7.5S560,757.7,554.6,758.9z
								 M551.1,743.9c-2.9,0.7-4.7,3.6-4,6.5c0.7,2.9,3.6,4.7,6.5,4s4.7-3.6,4-6.5C556.9,745,554,743.2,551.1,743.9z"/>
						</g>
						<g>
							<g>
								<path class="st6" d="M464,755.6c-2.3-10,3.9-19.9,13.9-22.2c10-2.3,19.9,3.9,22.2,13.9l2.6,11.3l9.8-2.2
									c10-2.3,19.9,3.9,22.2,13.9c2.3,10-3.9,19.9-13.9,22.2l-27,6.2c-8.4,1.9-16.9-2.2-20.6-9.6c-1.3-1.9-2.3-4-2.8-6.4
									L464,755.6z"/>
								<path class="st5" d="M521.3,794.7l-27,6.2c-9.3,2.1-18.8-2.3-23.1-10.7c-1.5-2.1-2.5-4.5-3.1-7.1l-6.2-27
									c-2.6-11.2,4.4-22.4,15.6-24.9c11.2-2.6,22.4,4.4,24.9,15.6l2.1,9.1l7.5-1.7c11.2-2.6,22.4,4.4,24.9,15.6
									C539.5,780.9,532.5,792.1,521.3,794.7z M478.4,735.7c-8.7,2-14.1,10.7-12.1,19.4l6.2,27c0.5,2,1.3,3.9,2.5,5.6l0.2,0.3
									c3.4,6.6,10.8,10.1,18.1,8.4l27-6.2c8.7-2,14.1-10.7,12.1-19.4c-2-8.7-10.7-14.1-19.4-12.1l-12,2.8l-3.1-13.6
									C495.8,739.1,487.1,733.7,478.4,735.7z"/>
							</g>
							<g>
								<line class="st6" x1="535.6" y1="774.4" x2="473.3" y2="788.7"/>
								
									<rect x="472.4" y="779.2" transform="matrix(0.9745 -0.2245 0.2245 0.9745 -162.55 133.1638)" class="st5" width="64" height="4.6"/>
							</g>
							<g>
								<line class="st6" x1="502.7" y1="758.6" x2="496.2" y2="773.2"/>
								
									<rect x="491.5" y="763.6" transform="matrix(0.409 -0.9125 0.9125 0.409 -403.7359 908.345)" class="st5" width="16" height="4.6"/>
							</g>
							<g>
								<line class="st6" x1="512.1" y1="758" x2="505.5" y2="772.6"/>
								
									<rect x="500.8" y="763" transform="matrix(0.409 -0.9125 0.9125 0.409 -397.6816 916.546)" class="st5" width="16" height="4.6"/>
							</g>
							<g>
								<line class="st6" x1="521.4" y1="757.5" x2="514.9" y2="772"/>
								
									<rect x="510.2" y="762.4" transform="matrix(0.409 -0.9125 0.9125 0.409 -391.6274 924.7469)" class="st5" width="16" height="4.6"/>
							</g>
							<g>
								<circle class="st6" cx="483.2" cy="765.1" r="7.7"/>
								<path class="st5" d="M485.5,774.8c-5.4,1.2-10.8-2.1-12-7.5c-1.2-5.4,2.1-10.8,7.5-12c5.4-1.2,10.8,2.1,12,7.5
									C494.2,768.2,490.9,773.6,485.5,774.8z M482,759.8c-2.9,0.7-4.7,3.6-4,6.5c0.7,2.9,3.6,4.7,6.5,4c2.9-0.7,4.7-3.6,4-6.5
									C487.8,761,484.9,759.1,482,759.8z"/>
							</g>
						</g>
						<g>
							
								<ellipse transform="matrix(0.9745 -0.2245 0.2245 0.9745 -135.2048 133.4706)" class="st6" cx="519.5" cy="661.4" rx="82.9" ry="64.7"/>
							<path class="st5" d="M534.5,726.8c-40.8,9.4-61.3,14.1-74,8.2c-12.9-6-16.7-22.2-24.1-54.5c-7.4-32.2-11.2-48.4-2.2-59.5
								c8.8-10.8,29.3-15.6,70.1-25c40.8-9.4,61.3-14.1,73.8-8.7c12.9,5.6,16.4,21,23.4,51.6l0.8,3.3l0.8,3.3
								c7.1,30.6,10.6,45.9,1.5,56.6C595.8,712.6,575.3,717.4,534.5,726.8z M505.4,600.6c-39.8,9.2-59.8,13.8-67.6,23.4
								c-7.6,9.3-4,24.8,3.1,55.6c7.1,30.8,10.6,46.2,21.5,51.3c11.2,5.2,31.2,0.6,71-8.5c39.8-9.2,59.8-13.8,67.7-23
								c7.6-8.9,4.2-23.5-2.5-52.6l-0.8-3.3l-0.8-3.3c-6.7-29.1-10-43.7-20.8-48.4C565.3,586.8,545.3,591.4,505.4,600.6z"/>
						</g>
						<g>
							<path class="st8" d="M529.2,701.9c-82.2,18.9-87-7.1-86.7-5.7c13.6,59,13.9,58.9,94.3,40.4c78.9-18.2,80.7-18.6,67.2-77.6
								C603.7,657.6,609.9,683.3,529.2,701.9z"/>
							<path class="st5" d="M537.3,738.8c-40.7,9.4-61.1,14.1-73.7,8.8c-13-5.5-16.7-21.6-23.4-50.8l0,0c-0.2-1,0.1-1.5,0.3-1.8
								l0.8-1.3l3,0.5l0.3,1.4c0.4,1,9.4,21.3,84,4.1c74.3-17.1,73.1-39.5,73-40.5l-0.2-2.2l4.3-0.7l0.5,2.1
								c7,30.5,9.9,45.6,0.6,56.1C597.7,724.9,577.5,729.5,537.3,738.8z M446.7,704.3c5.4,22.9,9,34.9,18.7,39
								c11.1,4.7,31.1,0.1,70.8-9c39.2-9,58.9-13.6,67-22.8c7-8,5.5-20.3,0.3-43.6c-1.4,2.3-3.4,5-6.5,7.9
								c-12.2,11.3-34.9,20.8-67.4,28.3c-28.3,6.5-50.8,8.5-66.7,5.9C455.4,708.7,450.2,706.6,446.7,704.3z"/>
						</g>
						<g>
							<line class="st6" x1="584.3" y1="619.6" x2="466.9" y2="646.6"/>
							
								<rect x="465.4" y="630.8" transform="matrix(0.9745 -0.2245 0.2245 0.9745 -128.6932 134.1315)" class="st5" width="120.5" height="4.6"/>
						</g>
						<g>
							<line class="st6" x1="452.8" y1="648.3" x2="456.2" y2="663.2"/>
							
								<rect x="452.2" y="648.1" transform="matrix(0.9745 -0.2245 0.2245 0.9745 -135.5946 118.7481)" class="st5" width="4.6" height="15.3"/>
						</g>
						<g>
							<path class="st6" d="M574.1,645.1c0,0-5.7-9-15.7-4.8c-10,4.2-9.7,10.7-9.7,10.7"/>
							<path class="st5" d="M572.2,646.4c-0.2-0.3-4.8-7.3-12.9-4c-8.2,3.4-8.3,8.3-8.3,8.5l-4.6,0.2c0-0.3-0.3-8.2,11.1-12.9
								c9.4-3.9,16.2,2.1,18.6,5.7L572.2,646.4z"/>
						</g>
						<g>
							<path class="st6" d="M527,656.8c0,0-5.7-9-15.7-4.8c-10,4.2-9.7,10.7-9.7,10.7"/>
							<path class="st5" d="M525,658c-0.2-0.3-4.8-7.3-12.9-4c-8.2,3.4-8.3,8.3-8.3,8.5l-4.6,0.2c0-0.3-0.3-8.2,11.1-12.9
								c9.4-3.9,16.2,2.1,18.6,5.7L525,658z"/>
						</g>
						<g>
							<path class="st6" d="M554.8,659.7c0,0,5.2,10.5-6.4,15.1c-12.2,4.8-16.1-7.6-16.1-7.6"/>
							<path class="st5" d="M546.4,677.9c-3.2,0.7-6.1,0.5-8.7-0.8c-5.6-2.7-7.6-8.9-7.6-9.1l4.4-1.4c0,0,1.5,4.6,5.2,6.4
								c2.2,1,4.8,1,7.8-0.2c2.9-1.2,4.8-2.8,5.6-4.9c1.3-3.4-0.4-7-0.4-7l4.1-2.1c0.1,0.2,2.7,5.5,0.6,10.7
								c-1.3,3.4-4.1,5.9-8.3,7.5C548.3,677.4,547.3,677.7,546.4,677.9z"/>
						</g>
						<g>
							<circle class="st5" cx="441.1" cy="617.8" r="29.3"/>
						</g>
						<g>
							<circle class="st5" cx="526.7" cy="563.3" r="29.3"/>
						</g>
						<g>
							
								<ellipse transform="matrix(0.9745 -0.2245 0.2245 0.9745 -118.2663 123.9208)" class="st5" cx="485.9" cy="582.1" rx="53.2" ry="40.1"/>
						</g>
						<g>
							
								<ellipse transform="matrix(0.9745 -0.2245 0.2245 0.9745 -113.6267 137.0543)" class="st5" cx="546" cy="568.3" rx="53.2" ry="40.1"/>
						</g>
					</g>
				</g>
				
					<rect x="439.1" y="662.8" transform="matrix(0.9745 -0.2245 0.2245 0.9745 -155.7084 139.0099)" style="clip-path:url(#SVGID_00000165198919243366647490000016454098214438537630_);fill:none;" width="189" height="183.2"/>
			</g>
			<g>
				<path class="st10" d="M812.2,417.7c1.9,8.1-102.6,32.2-251.9,66.6c-152.1,35-149.3,34.4-151.2,26.2c-1.9-8.1-4.7-7.5,147.4-42.5
					C705.9,433.6,810.3,409.6,812.2,417.7z"/>
			</g>
		</g>
	</g>
	<g>
		<defs>
			<rect id="SVGID_00000084488919679784184620000010606103414993780368_" x="1.1" y="1.4" width="897" height="897"/>
		</defs>
		<clipPath id="SVGID_00000107553258427541480290000011754841658958536836_">
			<use xlink:href="#SVGID_00000084488919679784184620000010606103414993780368_"  style="overflow:visible;"/>
		</clipPath>
		<g style="opacity:0.24;clip-path:url(#SVGID_00000107553258427541480290000011754841658958536836_);">
			
				<image style="overflow:visible;" width="872" height="872" xlink:href="E7520E8301C3047E.png"  transform="matrix(1.2385 0 0 1.2385 876.5 -85)">
			</image>
		</g>
	</g>
	
		<image style="overflow:visible;opacity:0.2;" width="872" height="872" xlink:href="E7520E8301C30482.png"  transform="matrix(1.2385 0 0 1.2385 -115.5 -66)">
	</image>
</g>
<g id="halftone">
</g>
</svg>
