<?xml version="1.0" encoding="utf-8"?>
<!-- Generator: Adobe Illustrator 27.3.1, SVG Export Plug-In . SVG Version: 6.00 Build 0)  -->
<svg version="1.1" xmlns="http://www.w3.org/2000/svg" xmlns:xlink="http://www.w3.org/1999/xlink" x="0px" y="0px"
	 viewBox="0 0 900 900" style="enable-background:new 0 0 900 900;" xml:space="preserve">
<style type="text/css">
	.st0{display:none;}
	.st1{display:inline;opacity:0.28;}
	.st2{fill:none;stroke:#000000;stroke-width:0.75;stroke-miterlimit:10;}
	.st3{fill:none;stroke:#000000;stroke-width:4;stroke-linecap:round;stroke-linejoin:round;stroke-miterlimit:10;}
	.st4{fill:#FCCF72;stroke:#1A2276;stroke-width:6;stroke-miterlimit:10;}
	.st5{fill:#1A2276;}
	.st6{fill:#EBEAD8;}
	.st7{fill:#ED8376;stroke:#E90302;stroke-width:17;stroke-linecap:round;stroke-linejoin:round;stroke-miterlimit:10;}
	.st8{fill:#E90302;}
	.st9{fill:#FCCF72;}
	.st10{fill:#8288A8;}
	.st11{fill:#EBEAD8;stroke:#1A2276;stroke-width:6;stroke-miterlimit:10;}
	.st12{fill:none;stroke:#1A2276;stroke-width:6;stroke-miterlimit:10;}
	.st13{fill:#E90302;stroke:#1A2276;stroke-width:6;stroke-miterlimit:10;}
	.st14{fill:#EBBFAF;}
	
		.st15{clip-path:url(#SVGID_00000055671963080581767590000000471687283141886080_);fill:#FCCF72;stroke:#1A2276;stroke-width:6;stroke-miterlimit:10;}
	
		.st16{clip-path:url(#SVGID_00000115491650732141215090000011529606314861871028_);fill:#FCCF72;stroke:#1A2276;stroke-width:6;stroke-miterlimit:10;}
	
		.st17{clip-path:url(#SVGID_00000163060916207400391290000001834228286256223622_);fill:#FCCF72;stroke:#1A2276;stroke-width:6;stroke-miterlimit:10;}
	
		.st18{clip-path:url(#SVGID_00000043417214282109777070000012304996021252462519_);fill:#FCCF72;stroke:#1A2276;stroke-width:6;stroke-miterlimit:10;}
	
		.st19{clip-path:url(#SVGID_00000096020657032902336030000014652673944847219119_);fill:#FCCF72;stroke:#1A2276;stroke-width:6;stroke-miterlimit:10;}
	.st20{fill:#FFFFFF;}
	
		.st21{clip-path:url(#SVGID_00000088124564770044838890000007239840404887860358_);fill:#FCCF72;stroke:#1A2276;stroke-width:6;stroke-miterlimit:10;}
	.st22{fill:none;stroke:#1A2276;stroke-width:6;stroke-linecap:round;stroke-miterlimit:10;}
	
		.st23{clip-path:url(#SVGID_00000000931349873908708550000012937183852885613741_);fill:#FCCF72;stroke:#1A2276;stroke-width:6;stroke-miterlimit:10;}
	
		.st24{clip-path:url(#SVGID_00000088120458360502798040000006342461238855322001_);fill:#FCCF72;stroke:#1A2276;stroke-width:6;stroke-miterlimit:10;}
	
		.st25{clip-path:url(#SVGID_00000005252457513337183860000015155393603834592170_);fill:#FCCF72;stroke:#1A2276;stroke-width:6;stroke-miterlimit:10;}
	
		.st26{clip-path:url(#SVGID_00000056385606596740667830000001560458300730290590_);fill:#FCCF72;stroke:#1A2276;stroke-width:6;stroke-miterlimit:10;}
	
		.st27{clip-path:url(#SVGID_00000120557187576859959660000001377013519850899588_);fill:#FCCF72;stroke:#1A2276;stroke-width:6;stroke-miterlimit:10;}
	
		.st28{clip-path:url(#SVGID_00000068678658795676812990000008367290192307596991_);fill:#FCCF72;stroke:#1A2276;stroke-width:6;stroke-miterlimit:10;}
	.st29{fill:none;stroke:#000000;stroke-width:4;stroke-miterlimit:10;}
	.st30{fill:#FCCF72;stroke:#000000;stroke-width:4;stroke-miterlimit:10;}
	.st31{fill:none;stroke:#000000;stroke-width:5;stroke-linecap:round;stroke-miterlimit:10;}
	
		.st32{clip-path:url(#SVGID_00000175281117064915792020000011520849874722549155_);fill:#FCCF72;stroke:#1A2276;stroke-width:6;stroke-miterlimit:10;}
	
		.st33{clip-path:url(#SVGID_00000137123656587658931770000014078991869402434951_);fill:#FCCF72;stroke:#1A2276;stroke-width:6;stroke-miterlimit:10;}
	
		.st34{clip-path:url(#SVGID_00000136369788059493806470000016674490209562022028_);fill:#FCCF72;stroke:#1A2276;stroke-width:6;stroke-miterlimit:10;}
	
		.st35{clip-path:url(#SVGID_00000119818945412697868480000015652201736098513290_);fill:#FCCF72;stroke:#1A2276;stroke-width:6;stroke-miterlimit:10;}
	.st36{fill:#E90302;stroke:#EBBFAF;stroke-width:6;stroke-miterlimit:10;}
	.st37{clip-path:url(#SVGID_00000080887955078426529120000016322514316672412329_);fill:#FCCF72;}
	.st38{clip-path:url(#SVGID_00000080887955078426529120000016322514316672412329_);fill:#1A2276;}
	.st39{clip-path:url(#SVGID_00000047757340141362213060000006218877173419503535_);fill:#8288A8;}
	.st40{fill:#020202;}
	.st41{clip-path:url(#SVGID_00000100351973700427943680000000915310052585293964_);}
	.st42{fill:#EBEAD8;stroke:#1A2276;stroke-width:3;stroke-miterlimit:10;}
	.st43{fill:#8288A8;stroke:#8288A8;stroke-miterlimit:10;}
	.st44{fill:#1A2276;stroke:#FCCF72;stroke-width:6;stroke-miterlimit:10;}
	.st45{fill:none;stroke:#EBEAD8;stroke-width:6;stroke-miterlimit:10;}
	.st46{fill:#8288A8;stroke:#1A2276;stroke-width:6;stroke-miterlimit:10;}
	.st47{fill:#FCCF72;stroke:#8288A8;stroke-width:6;stroke-miterlimit:10;}
	.st48{clip-path:url(#SVGID_00000027589283652725050440000009177045743652801179_);}
	.st49{fill:none;}
	.st50{fill:#ED8376;}
	.st51{fill:url(#);}
	.st52{fill:#1A2276;stroke:url(#);stroke-miterlimit:10;}
	.st53{fill:#ED8376;stroke:#E90302;stroke-width:6;stroke-linecap:round;stroke-linejoin:round;stroke-miterlimit:10;}
	.st54{fill:none;stroke:#E90302;stroke-width:6;stroke-linecap:round;stroke-linejoin:round;stroke-miterlimit:10;}
	.st55{fill:none;stroke:#E90302;stroke-width:5;stroke-linecap:round;stroke-linejoin:round;stroke-miterlimit:10;}
	.st56{fill:#FFFFFF;stroke:#000000;stroke-width:6;stroke-miterlimit:10;}
	.st57{fill:#FFFDFD;stroke:#1A2276;stroke-width:7;stroke-miterlimit:10;}
	
		.st58{clip-path:url(#SVGID_00000111874431215534860520000006572209491464976048_);fill:#FCCF72;stroke:#1A2276;stroke-width:6;stroke-miterlimit:10;}
	
		.st59{clip-path:url(#SVGID_00000176012582122471028740000015337038728093409202_);fill:#FCCF72;stroke:#1A2276;stroke-width:6;stroke-miterlimit:10;}
	.st60{fill:none;stroke:#E90302;stroke-width:6;stroke-linecap:round;stroke-miterlimit:10;}
	
		.st61{clip-path:url(#SVGID_00000058562225350775152170000013685904076874658455_);fill:#FCCF72;stroke:#1A2276;stroke-width:6;stroke-miterlimit:10;}
	
		.st62{clip-path:url(#SVGID_00000127036267442927919440000003853856931661433491_);fill:#FCCF72;stroke:#1A2276;stroke-width:6;stroke-miterlimit:10;}
	
		.st63{clip-path:url(#SVGID_00000122717936554779730390000006849540078383071364_);fill:#FCCF72;stroke:#1A2276;stroke-width:6;stroke-miterlimit:10;}
	.st64{fill:none;stroke:#1A2276;stroke-width:7;stroke-miterlimit:10;}
	
		.st65{clip-path:url(#SVGID_00000032617372796146262590000012399625089550963108_);fill:#FCCF72;stroke:#1A2276;stroke-width:6;stroke-miterlimit:10;}
	.st66{clip-path:url(#SVGID_00000016761207471602417590000002336771003068503714_);}
	
		.st67{clip-path:url(#SVGID_00000145050447175149333760000007479847375179095173_);fill:#FCCF72;stroke:#1A2276;stroke-width:6;stroke-miterlimit:10;}
	
		.st68{clip-path:url(#SVGID_00000062886844212865899250000017366825658054654396_);fill:#FCCF72;stroke:#1A2276;stroke-width:6;stroke-miterlimit:10;}
	
		.st69{clip-path:url(#SVGID_00000136388830901196737550000003909302522114076289_);fill:#FCCF72;stroke:#1A2276;stroke-width:6;stroke-miterlimit:10;}
	.st70{clip-path:url(#SVGID_00000073690499887556774110000007904400933484357277_);}
	.st71{clip-path:url(#SVGID_00000144324275085779291250000010977275842616267672_);}
	.st72{clip-path:url(#SVGID_00000098215490397193737530000015637834279634899620_);}
	.st73{opacity:0.5;}
	.st74{clip-path:url(#SVGID_00000064311462206388777460000004679805549271568773_);}
	.st75{clip-path:url(#SVGID_00000008123158284925803900000001478554536568908683_);}
	.st76{fill:#FFFDFD;}
	.st77{clip-path:url(#SVGID_00000138562736128755242530000017796907319365327790_);}
	.st78{opacity:0.8;}
	
		.st79{clip-path:url(#SVGID_00000036965016697680827130000017698371578469055108_);fill:#FCCF72;stroke:#1A2276;stroke-width:6;stroke-miterlimit:10;}
	
		.st80{clip-path:url(#SVGID_00000063623398188154249210000004876716233621018502_);fill:#FCCF72;stroke:#1A2276;stroke-width:6;stroke-miterlimit:10;}
	.st81{clip-path:url(#SVGID_00000124874123607349494350000012334839386967642273_);}
	.st82{clip-path:url(#SVGID_00000182500095114075146810000012844616906235473597_);}
	.st83{clip-path:url(#SVGID_00000155838681389689331580000000318212630162111925_);}
	.st84{clip-path:url(#SVGID_00000054257781793775342970000006489145301186764436_);}
	.st85{clip-path:url(#SVGID_00000133486939061343375910000004886667120974248322_);}
	.st86{fill:none;stroke:#1A2276;stroke-width:19;stroke-miterlimit:10;}
	.st87{clip-path:url(#SVGID_00000120547327141460125730000017131552305238428078_);}
	.st88{fill:none;stroke:#1A2276;stroke-width:10;stroke-miterlimit:10;}
	.st89{font-family:'Aptly-Bold';}
	.st90{font-size:40.1137px;}
	.st91{letter-spacing:4;}
	.st92{font-size:122.4095px;}
	.st93{font-size:28px;}
	.st94{font-family:'Aptly';}
	.st95{font-size:70.872px;}
	.st96{clip-path:url(#SVGID_00000117671377508596622400000001766447278578423680_);}
	.st97{clip-path:url(#SVGID_00000169555636942648197630000002561293742920121235_);fill:#FCCF72;}
	.st98{clip-path:url(#SVGID_00000169555636942648197630000002561293742920121235_);fill:#1A2276;}
	.st99{clip-path:url(#SVGID_00000044166961329638550560000016790786511047640762_);}
	.st100{clip-path:url(#SVGID_00000030468194149570893760000015161760602518398869_);}
	.st101{clip-path:url(#SVGID_00000030468194149570893760000015161760602518398869_);fill:none;}
	.st102{clip-path:url(#SVGID_00000063625544714307963770000013200188500740972471_);fill:#8288A8;}
	.st103{clip-path:url(#SVGID_00000063625544714307963770000013200188500740972471_);fill:#FCCF72;}
	.st104{fill:#FFFFFF;stroke:#FFFFFF;stroke-width:6;stroke-miterlimit:10;}
	.st105{fill:none;stroke:#8288A8;stroke-width:6;stroke-miterlimit:10;}
	.st106{clip-path:url(#SVGID_00000015351674426079287710000013041864572432760969_);}
	.st107{clip-path:url(#SVGID_00000121251843034299878710000000198685728385747877_);}
	.st108{clip-path:url(#SVGID_00000156545748128107276410000000172724528012081318_);}
	.st109{clip-path:url(#SVGID_00000061445501488301980680000001491306540981103260_);}
	.st110{clip-path:url(#SVGID_00000076566261016766674790000008370876441754141373_);}
	.st111{fill:#EBEAD8;stroke:#1A2276;stroke-width:12;stroke-miterlimit:10;}
	.st112{fill:none;stroke:#1A2276;stroke-width:12;stroke-miterlimit:10;}
	.st113{clip-path:url(#SVGID_00000067237850736633827450000001068229622243132034_);}
	.st114{clip-path:url(#SVGID_00000021079390859871352140000016899523302404081819_);}
	.st115{clip-path:url(#SVGID_00000058582918835012880440000012203424225760273596_);}
	.st116{clip-path:url(#SVGID_00000032609839637676759820000009152651261067947660_);}
	.st117{clip-path:url(#SVGID_00000067201785180398979240000002782052406433016975_);}
	.st118{clip-path:url(#SVGID_00000025421506319081696530000009282546880051886722_);fill:#8288A8;}
	.st119{clip-path:url(#SVGID_00000025421506319081696530000009282546880051886722_);fill:#FCCF72;}
	.st120{clip-path:url(#SVGID_00000172403002023185777360000002236540606087611833_);}
	.st121{clip-path:url(#SVGID_00000177481986328675434210000008221376045418260889_);fill:#E90302;}
	.st122{clip-path:url(#SVGID_00000094599604599637072610000005766765577287067279_);fill:none;}
	.st123{clip-path:url(#SVGID_00000168822259461192011650000001933180985083578047_);}
	.st124{clip-path:url(#SVGID_00000170279878822306346380000007265904381058253486_);}
	.st125{clip-path:url(#SVGID_00000074434802204022890240000000618761869899760008_);}
	.st126{clip-path:url(#SVGID_00000070831467541106632770000015564361177077061044_);}
	.st127{clip-path:url(#SVGID_00000149348644109232012300000012070174787109321127_);}
	.st128{clip-path:url(#SVGID_00000040536990672594118630000001817375370691549604_);}
	.st129{clip-path:url(#SVGID_00000005253706361599857560000007712293835742460339_);}
	.st130{clip-path:url(#SVGID_00000076599811855395542710000006943850318891136926_);}
	.st131{clip-path:url(#SVGID_00000157292999705151516360000001731111889670502532_);}
	.st132{clip-path:url(#SVGID_00000126300188244072262360000009194916084626614930_);}
	.st133{clip-path:url(#SVGID_00000119836836139015270820000004322667457422602683_);}
	.st134{clip-path:url(#SVGID_00000130630949514248012030000016045820302622481835_);}
	.st135{clip-path:url(#SVGID_00000165212259440006179700000018136067653193408444_);fill:#EBEAD8;}
	.st136{clip-path:url(#SVGID_00000165212259440006179700000018136067653193408444_);}
	.st137{clip-path:url(#SVGID_00000067922975601944243180000003097881549342931333_);}
	.st138{clip-path:url(#SVGID_00000142172827281339180570000009305697905853866924_);}
	.st139{clip-path:url(#SVGID_00000129922294500812718900000017266795210122674561_);}
	.st140{clip-path:url(#SVGID_00000129183305854522566970000006211972349581252001_);}
	.st141{clip-path:url(#SVGID_00000018922919341849111830000000886525449154832040_);}
	.st142{fill:#ED8376;stroke:#1A2276;stroke-width:6;stroke-miterlimit:10;}
	.st143{fill:url(#);stroke:#1A2276;stroke-width:6;stroke-miterlimit:10;}
	.st144{clip-path:url(#SVGID_00000168809124802924126890000005906982187156020359_);}
	
		.st145{clip-path:url(#SVGID_00000093135366586098958200000014289491675425668028_);fill:#FCCF72;stroke:#1A2276;stroke-width:6;stroke-miterlimit:10;}
	.st146{fill:none;stroke:#FCCF72;stroke-width:6;stroke-linecap:round;stroke-miterlimit:10;}
	.st147{clip-path:url(#SVGID_00000133523905684572940900000012996515019825469854_);}
</style>
<g id="guias" class="st0">
</g>
<g id="Layer_2">
</g>
<g id="Layer_1">
</g>
<g id="web">
	<rect x="2.5" y="1" class="st6" width="897" height="897"/>
	<g>
		<polygon class="st7" points="226.2,67.4 224.2,98.4 242.5,123.9 221.1,146 219.1,177 188.4,179.8 167,201.9 141.3,184.1 
			110.5,186.9 101.8,156.8 76.1,139 88.5,110.8 79.9,80.7 107.6,67.5 120.1,39.2 150.1,47.2 177.8,34 196.2,59.4 		"/>
		<g>
			<g>
				<path class="st6" d="M147.8,161.9c0-4.7,3.8-8.5,8.5-8.5c4.7,0,8.5,3.8,8.5,8.5v5.3h4.6c4.7,0,8.5,3.8,8.5,8.5s-3.8,8.5-8.5,8.5
					h-12.8c-4,0-7.3-2.7-8.3-6.4c-0.4-1-0.6-2-0.6-3.2V161.9z"/>
				<path class="st5" d="M169.4,185.4h-12.8c-4.4,0-8.2-2.9-9.3-7.2c-0.4-1.1-0.7-2.3-0.7-3.5v-12.8c0-5.3,4.3-9.6,9.6-9.6
					c5.3,0,9.6,4.3,9.6,9.6v4.3h3.5c5.3,0,9.6,4.3,9.6,9.6C179,181.1,174.7,185.4,169.4,185.4z M156.3,154.5c-4.1,0-7.4,3.3-7.4,7.4
					v12.8c0,1,0.2,1.9,0.5,2.8l0,0.1c0.8,3.3,3.8,5.6,7.2,5.6h12.8c4.1,0,7.4-3.3,7.4-7.4c0-4.1-3.3-7.4-7.4-7.4h-5.7v-6.4
					C163.8,157.8,160.4,154.5,156.3,154.5z"/>
			</g>
			<g>
				<line class="st6" x1="177.9" y1="177.7" x2="148.5" y2="177.7"/>
				<rect x="148.5" y="176.7" class="st5" width="29.4" height="2.1"/>
			</g>
			<g>
				<line class="st6" x1="164.8" y1="167.3" x2="160.4" y2="173.1"/>
				
					<rect x="158.9" y="169.1" transform="matrix(0.6034 -0.7974 0.7974 0.6034 -71.2453 197.1684)" class="st5" width="7.3" height="2.1"/>
			</g>
			<g>
				<line class="st6" x1="169.1" y1="168" x2="164.6" y2="173.9"/>
				
					<rect x="163.2" y="169.9" transform="matrix(0.6034 -0.7974 0.7974 0.6034 -70.123 200.8438)" class="st5" width="7.3" height="2.1"/>
			</g>
			<g>
				<line class="st6" x1="173.3" y1="168.7" x2="168.9" y2="174.6"/>
				
					<rect x="167.4" y="170.6" transform="matrix(0.6034 -0.7974 0.7974 0.6034 -69.0008 204.5193)" class="st5" width="7.3" height="2.1"/>
			</g>
			<g>
				<circle class="st6" cx="155.4" cy="168.2" r="3.5"/>
				<path class="st5" d="M155.4,172.8c-2.5,0-4.6-2.1-4.6-4.6c0-2.5,2.1-4.6,4.6-4.6s4.6,2.1,4.6,4.6
					C160,170.7,158,172.8,155.4,172.8z M155.4,165.7c-1.4,0-2.5,1.1-2.5,2.5s1.1,2.5,2.5,2.5s2.5-1.1,2.5-2.5
					S156.8,165.7,155.4,165.7z"/>
			</g>
			<g>
				<g>
					<path class="st6" d="M115.2,161.9c0-4.7,3.8-8.5,8.5-8.5s8.5,3.8,8.5,8.5v5.3h4.6c4.7,0,8.5,3.8,8.5,8.5s-3.8,8.5-8.5,8.5H124
						c-4,0-7.3-2.7-8.3-6.4c-0.4-1-0.6-2-0.6-3.2V161.9z"/>
					<path class="st5" d="M136.8,185.4H124c-4.4,0-8.2-2.9-9.3-7.2c-0.4-1.1-0.7-2.3-0.7-3.5v-12.8c0-5.3,4.3-9.6,9.6-9.6
						c5.3,0,9.6,4.3,9.6,9.6v4.3h3.5c5.3,0,9.6,4.3,9.6,9.6C146.4,181.1,142.1,185.4,136.8,185.4z M123.7,154.5
						c-4.1,0-7.4,3.3-7.4,7.4v12.8c0,1,0.2,1.9,0.5,2.8l0,0.1c0.8,3.3,3.8,5.6,7.2,5.6h12.8c4.1,0,7.4-3.3,7.4-7.4
						c0-4.1-3.3-7.4-7.4-7.4h-5.7v-6.4C131.1,157.8,127.8,154.5,123.7,154.5z"/>
				</g>
				<g>
					<line class="st6" x1="145.3" y1="177.7" x2="115.9" y2="177.7"/>
					<rect x="115.9" y="176.7" class="st5" width="29.4" height="2.1"/>
				</g>
				<g>
					<line class="st6" x1="132.2" y1="167.3" x2="127.8" y2="173.1"/>
					
						<rect x="126.3" y="169.1" transform="matrix(0.6034 -0.7974 0.7974 0.6034 -84.1861 171.1471)" class="st5" width="7.3" height="2.1"/>
				</g>
				<g>
					<line class="st6" x1="136.5" y1="168" x2="132" y2="173.9"/>
					
						<rect x="130.6" y="169.9" transform="matrix(0.6034 -0.7974 0.7974 0.6034 -83.0639 174.8225)" class="st5" width="7.3" height="2.1"/>
				</g>
				<g>
					<line class="st6" x1="140.7" y1="168.7" x2="136.3" y2="174.6"/>
					
						<rect x="134.8" y="170.6" transform="matrix(0.6034 -0.7974 0.7974 0.6034 -81.9416 178.4979)" class="st5" width="7.3" height="2.1"/>
				</g>
				<g>
					<circle class="st6" cx="122.8" cy="168.2" r="3.5"/>
					<path class="st5" d="M122.8,172.8c-2.5,0-4.6-2.1-4.6-4.6c0-2.5,2.1-4.6,4.6-4.6s4.6,2.1,4.6,4.6
						C127.4,170.7,125.3,172.8,122.8,172.8z M122.8,165.7c-1.4,0-2.5,1.1-2.5,2.5s1.1,2.5,2.5,2.5c1.4,0,2.5-1.1,2.5-2.5
						S124.2,165.7,122.8,165.7z"/>
				</g>
			</g>
			<g>
				<ellipse class="st6" cx="149.7" cy="125.4" rx="38.1" ry="29.8"/>
				<path class="st5" d="M149.7,156.3c-19.3,0-29,0-34-3.9c-5.2-4-5.2-11.7-5.2-26.9s0-22.9,5.2-26.9c5.1-3.9,14.7-3.9,34-3.9
					c19.3,0,29,0,34,3.7c5.2,3.8,5.2,11.1,5.2,25.5l0,1.6l0,1.6c0,14.4,0,21.7-5.2,25.5C178.7,156.3,169,156.3,149.7,156.3z
					 M149.7,96.7c-18.8,0-28.2,0-32.7,3.5c-4.4,3.4-4.4,10.7-4.4,25.2s0,21.8,4.4,25.2c4.5,3.5,13.9,3.5,32.7,3.5
					c18.8,0,28.3,0,32.7-3.3c4.3-3.2,4.3-10.1,4.3-23.8l0-1.6l0-1.6c0-13.7,0-20.6-4.3-23.8C178,96.7,168.6,96.7,149.7,96.7z"/>
			</g>
			<g>
				<path class="st8" d="M149.9,144.6c-38.8,0-38.3-12.2-38.3-11.5c0,27.8,0.2,27.8,38.1,27.8c37.3,0,38.1,0,38.1-27.8
					C187.9,132.4,188.1,144.6,149.9,144.6z"/>
				<path class="st5" d="M149.8,162c-19.2,0-28.9,0-33.9-3.7c-5.3-3.8-5.3-11.4-5.3-25.2h0c0-0.5,0.2-0.7,0.3-0.8l0.5-0.5l1.3,0.5
					v0.7c0.1,0.5,2,10.5,37.2,10.5c35.1,0,36.9-10.2,36.9-10.6l0.1-1l2,0.1l0,1c0,14.4-0.2,21.5-5.5,25.2
					C178.3,162,168.8,162,149.8,162z M112.7,137.1c0,10.8,0.5,16.6,4.4,19.4c4.5,3.3,13.9,3.3,32.7,3.3c18.5,0,27.8,0,32.4-3.3
					c4-2.8,4.6-8.5,4.6-19.5c-0.9,0.9-2.1,1.9-3.7,2.9c-6.6,3.8-17.8,5.7-33.1,5.7c-13.4,0-23.6-1.4-30.5-4.3
					C116.1,140,114,138.5,112.7,137.1z"/>
			</g>
			<g>
				<line class="st6" x1="183.2" y1="113.4" x2="127.7" y2="113.4"/>
				<rect x="127.7" y="112.3" class="st5" width="55.5" height="2.1"/>
			</g>
			<g>
				<line class="st6" x1="121.2" y1="112.7" x2="121.2" y2="119.7"/>
				<rect x="120.1" y="112.7" class="st5" width="2.1" height="7.1"/>
			</g>
			<g>
				<path class="st6" d="M175.9,123.8c0,0-1.6-4.6-6.5-3.8c-4.9,0.8-5.5,3.8-5.5,3.8"/>
				<path class="st5" d="M174.9,124.1c-0.1-0.2-1.4-3.8-5.4-3.1c-4,0.7-4.6,2.9-4.6,3l-2.1-0.4c0-0.2,0.7-3.7,6.3-4.7
					c4.6-0.8,7.1,2.6,7.7,4.5L174.9,124.1z"/>
			</g>
			<g>
				<path class="st6" d="M153.6,124.1c0,0-1.6-4.6-6.5-3.8c-4.9,0.8-5.5,3.8-5.5,3.8"/>
				<path class="st5" d="M152.6,124.5c-0.1-0.2-1.4-3.8-5.4-3.1c-4,0.7-4.6,2.9-4.6,3l-2.1-0.4c0-0.2,0.7-3.7,6.3-4.7
					c4.6-0.8,7.1,2.6,7.7,4.5L152.6,124.5z"/>
			</g>
			<g>
				<path class="st6" d="M165.8,128.3c0,0,1.3,5.3-4.4,6.1c-6,0.9-6.4-5.1-6.4-5.1"/>
				<path class="st5" d="M160.1,135.6c-1.5,0-2.8-0.4-3.8-1.3c-2.2-1.8-2.5-4.8-2.5-4.9l2.1-0.2c0,0,0.2,2.2,1.7,3.4
					c0.9,0.7,2,0.9,3.5,0.7c1.4-0.2,2.5-0.8,3-1.6c0.9-1.4,0.5-3.2,0.5-3.2l2.1-0.5c0,0.1,0.6,2.7-0.8,4.9c-0.9,1.4-2.4,2.2-4.5,2.5
					C161,135.6,160.6,135.6,160.1,135.6z"/>
			</g>
			<g>
				<path class="st6" d="M103.5,128.1c4.3-1.9,9.3,0.1,11.2,4.4l5.1,11.7c1.9,4.3-0.1,9.3-4.4,11.2c-4.3,1.9-9.3-0.1-11.2-4.4
					l-5.1-11.7C97.2,135,99.2,130,103.5,128.1z"/>
				<path class="st5" d="M112.1,157.2c-1.2,0-2.4-0.2-3.5-0.7c-2.4-0.9-4.3-2.7-5.3-5.1l-5.1-11.7c-2.1-4.8,0.1-10.5,4.9-12.6
					c2.3-1,4.9-1.1,7.3-0.1c2.4,0.9,4.3,2.7,5.3,5.1l5.1,11.7c1,2.3,1.1,4.9,0.1,7.3c-0.9,2.4-2.7,4.3-5.1,5.3
					C114.7,156.9,113.4,157.2,112.1,157.2z M106.9,128.5c-1,0-2,0.2-3,0.6c-1.8,0.8-3.2,2.3-3.9,4.1c-0.7,1.9-0.7,3.9,0.1,5.7
					l5.1,11.7c1.6,3.8,6,5.5,9.8,3.8c1.8-0.8,3.2-2.3,3.9-4.1c0.7-1.9,0.7-3.9-0.1-5.7l-5.1-11.7
					C112.5,130.1,109.8,128.5,106.9,128.5z"/>
			</g>
			<g>
				<circle class="st5" cx="119.1" cy="97.8" r="13.5"/>
			</g>
			<g>
				<circle class="st5" cx="163.1" cy="82.2" r="13.5"/>
			</g>
			<g>
				<ellipse class="st5" cx="142.9" cy="86.4" rx="24.5" ry="18.4"/>
			</g>
			<g>
				<ellipse class="st5" cx="171.3" cy="86.4" rx="24.5" ry="18.4"/>
			</g>
			<g>
				<g>
					<ellipse class="st6" cx="192.3" cy="116.2" rx="11.4" ry="9.6"/>
					<path class="st5" d="M192.3,126.8c-6.9,0-12.5-4.8-12.5-10.7s5.6-10.7,12.5-10.7c6.9,0,12.5,4.8,12.5,10.7
						S199.1,126.8,192.3,126.8z M192.3,107.6c-5.7,0-10.3,3.8-10.3,8.6c0,4.7,4.6,8.6,10.3,8.6c5.7,0,10.3-3.8,10.3-8.6
						C202.6,111.4,198,107.6,192.3,107.6z"/>
				</g>
				<g>
					<path class="st6" d="M205.8,86.2c-2.5-1.3-5.7-0.1-7.1,2.6c0,0.1-0.1,0.1-0.1,0.2l0,0l-3.8,7.6v-8.5h0c0-0.1,0-0.1,0-0.2
						c0-3.1-2.3-5.5-5.2-5.5s-5.2,2.5-5.2,5.5c0,0.1,0,0.1,0,0.2h0v15.3h8.6l7.9,4l6.9-13.7l0,0c0-0.1,0.1-0.1,0.1-0.2
						C209.3,90.8,208.3,87.5,205.8,86.2z"/>
					<path class="st5" d="M201.4,108.8l-8.6-4.3h-9.4V87h0.1c0.4-3.2,3-5.7,6.2-5.7s5.8,2.5,6.2,5.7h0l0,0.7c0,0.1,0,0.1,0,0.2
						c0,0,0,0,0,0.1l0,0.1v4.1l2.3-4.5l0,0c0.8-1.2,1.9-2.1,3.2-2.6c1.6-0.6,3.3-0.5,4.8,0.2c1.5,0.8,2.6,2.1,3.1,3.7
						c0.4,1.4,0.3,2.8-0.1,4.1l0,0l-0.3,0.6c0,0.1-0.1,0.1-0.1,0.2c0,0,0,0,0,0.1l-0.1,0.1L201.4,108.8z M185.5,102.3h7.8l7.2,3.6
						l5.9-11.7l0,0l0.5-1c0,0,0-0.1,0.1-0.1l0,0c0.5-1.1,0.7-2.3,0.3-3.4c-0.3-1.1-1-2-2-2.4c-1-0.5-2.1-0.5-3.1-0.1
						c-1.1,0.4-2,1.2-2.5,2.3l0,0c0,0,0,0.1,0,0.1l-0.5,1l0,0l-5.3,10.6v-12h0l0-1.3c0-2.5-1.8-4.5-4.1-4.5s-4.1,2-4.1,4.5l0,0.2
						l0,1.1h0V102.3z"/>
				</g>
				<g>
					<path class="st6" d="M193.4,109.9c-2.3,1.1-3.3,4.1-2.1,6.6c1.2,2.6,4.1,3.8,6.4,2.7c0,0,0.1-0.1,0.1-0.1l0,0l7.8-3.2
						c4.4-3.7,0.9-10.5-4.3-9.4l-7.8,3.2l0,0C193.5,109.9,193.5,109.9,193.4,109.9z"/>
					<path class="st5" d="M195.9,120.8c-2.3,0-4.5-1.4-5.6-3.8c-1.3-2.8-0.5-6,1.8-7.6l0-0.1l1-0.4l7.9-3.3l0.1,0
						c2.8-0.6,5.6,0.7,6.9,3.4c1.4,2.7,0.7,5.8-1.7,7.9l-0.1,0.1l-8,3.3c0,0,0,0-0.1,0c-0.2,0.1-0.3,0.1-0.5,0.2l-0.4,0.1l0,0
						C196.9,120.7,196.4,120.8,195.9,120.8z M193.4,109.9l0.4,1c-1.8,0.8-2.5,3.2-1.6,5.2c0.9,2.1,3.2,3.1,5,2.2l0.1-0.1l1-0.5
						l0,0.1l6.7-2.8c1.8-1.7,1.7-3.8,1-5.2c-0.7-1.3-2.2-2.7-4.5-2.3l-6.7,2.8l0,0l-1.1,0.5L193.4,109.9L193.4,109.9z"/>
				</g>
				<g>
					<path class="st6" d="M190.3,103.2c-2.8,1.3-4.1,4.4-2.9,7c1.2,2.6,4.4,3.7,7.2,2.4c0.1,0,0.1-0.1,0.2-0.1l0,0l9.3-3.9
						c5.3-4.2,1.8-10.9-4.3-9.4l-9.3,3.9l0,0C190.4,103.1,190.3,103.1,190.3,103.2z"/>
					<path class="st5" d="M192.2,114.2c-2.4,0-4.7-1.3-5.7-3.5c-0.7-1.5-0.7-3.2-0.1-4.8c0.5-1.3,1.5-2.4,2.7-3.2l0-0.1l1-0.4
						l9.4-3.9c3.8-1,6.5,0.9,7.6,3.1c1.4,2.8,0.4,6-2.4,8.2l-0.1,0.1l-9.4,4c0,0-0.1,0-0.1,0c-0.2,0.1-0.4,0.2-0.6,0.2l-0.3,0.1l0,0
						C193.5,114,192.8,114.2,192.2,114.2z M190.7,104.1c-1.1,0.5-1.9,1.4-2.4,2.4c-0.4,1-0.4,2.2,0,3.1c0.9,2.1,3.5,2.9,5.8,1.9
						l0.1-0.1l1-0.5l0,0.1l8.2-3.4c2.3-1.9,2.4-4,1.7-5.5c-0.7-1.3-2.4-2.7-5.1-2l-9.2,3.9C190.8,104.1,190.8,104.1,190.7,104.1
						L190.7,104.1z"/>
				</g>
				<g>
					<path class="st6" d="M184.9,103.5c-2.4-0.9-5.2,0.6-6.2,3.3s0.2,5.6,2.6,6.4c0.1,0,0.1,0,0.2,0l0,0l7.8,3.2
						c5.7,0.4,8-6.9,3.5-9.7l-7.8-3.2l0,0C185,103.5,185,103.5,184.9,103.5z"/>
					<path class="st5" d="M189.8,117.5c-0.2,0-0.4,0-0.5,0l-0.2,0l-8-3.3c0,0-0.1,0-0.1,0c-0.2-0.1-0.3-0.1-0.5-0.2l-0.3-0.1l0,0
						c-2.4-1.4-3.5-4.5-2.5-7.5c0.6-1.5,1.6-2.8,3-3.5c1.1-0.6,2.4-0.8,3.6-0.6l0-0.1l1,0.4l7.9,3.2l0.1,0c2.4,1.5,3.5,4.5,2.5,7.2
						C195.1,115.8,192.7,117.5,189.8,117.5z M189.6,115.4c2.5,0.1,3.9-1.5,4.4-3c0.5-1.4,0.3-3.5-1.6-4.7l-7.7-3.2c0,0-0.1,0-0.1,0
						l0,0c-0.9-0.3-1.9-0.2-2.8,0.2c-0.9,0.5-1.6,1.3-2,2.4c-0.8,2.1,0.1,4.4,2,5.1l0.1,0l1,0.3l0,0.1L189.6,115.4z"/>
				</g>
			</g>
		</g>
	</g>
	<g>
		<g>
			<polygon class="st8" points="830.1,410.6 72,463.4 72,396.7 830.1,343.8 			"/>
		</g>
		<text transform="matrix(1 -6.972903e-02 0 1 117.3905 443.6202)" class="st6 st89 st90 st91">INCREÍBLE · FANTÁSTICA · APOTEÓSICA</text>
	</g>
	<g>
		<polygon class="st5" points="67,158 835.1,104.4 835.1,331.7 67,385.2 		"/>
		<path class="st6" d="M830.1,109.8V327L72,379.8V162.6L830.1,109.8 M840.1,99.1l-10.7,0.7L71.3,152.7l-9.3,0.6v9.3v217.2v10.7
			l10.7-0.7L830.8,337l9.3-0.6V327V109.8V99.1L840.1,99.1z"/>
	</g>
	<g>
		<text transform="matrix(1 -6.972903e-02 0 1 207.4897 326.7534)" class="st10 st89 st92">SSl/HTTPS</text>
		<text transform="matrix(1 -6.972903e-02 0 1 213.4898 320.3351)" class="st5 st89 st92">ssl/HTTPS</text>
		<text transform="matrix(1 -6.972903e-02 0 1 223.8816 312.3946)" class="st6 st89 st92">ssl/https</text>
	</g>
	<g>
		<path class="st6" d="M620.8,813.7c-77.5,0-112.9-3.2-131.7-23c-16.5-17.4-15.3-42.3-13.4-80.1c0.7-13.2,1.4-28.2,1.6-45.5
			c0.2-24.1-0.2-44.4-0.6-60.7c-0.7-32.6-1.2-52.3,4.7-66.3c6.2-14.7,17.8-20.6,31.1-22.9c-1.6-17-1.6-32.6-1.6-44.8v-1.4
			c0-62.9,51.2-114.1,114.1-114.1s114.1,51.2,114.1,114.1c0,1.6,0,3.2,0,5c0,13,0.1,29.9-1.8,47.9c11.8,2.9,22.2,8.7,28.1,21.6
			c5.8,12.6,5.7,28.7,5.5,55.4c-0.1,15.5-0.2,34.7,0.8,58.4c0.5,12.5,1.3,24.1,1.9,34.3c2.8,45.9,4.6,76.3-14.3,96.4
			C738.7,809.9,698.3,813.7,620.8,813.7z M580.1,515.3c12.8,0.6,27.1,1.2,43.6,1.6c17.5,0.5,32.5,0.6,45.8,0.8
			c2.1-19,2.1-36.9,2.1-47.3l0-1.3c0-25.7-20.9-46.6-46.6-46.6c-25.7,0-46.6,20.9-46.6,46.6l0,1.8
			C578.4,481.4,578.4,497.7,580.1,515.3z"/>
		<path class="st5" d="M757,658c-4.3-98.7,11-119-36.2-123.8c4.1-24.7,3.6-48.8,3.6-65.1c0-54.9-44.5-99.3-99.3-99.3
			s-99.3,44.5-99.3,99.3c0,15.6-0.1,36.9,3.4,59.4c-49.8,1.4-35.8,22.8-37,136.8c-1.2,119-29.2,133.7,128.8,133.7
			C781.8,799,762.4,781.1,757,658z M563.7,469.1c0-33.9,27.5-61.3,61.3-61.3c33.9,0,61.3,27.5,61.3,61.3c0,12.9,0.2,38.1-4,63.5
			c-16-0.2-35.4-0.4-59-1c-22.3-0.6-40.8-1.5-56.3-2.2C563.5,505.2,563.7,481.8,563.7,469.1z"/>
		<path class="st5" d="M576.8,568.4c-13.5-34.2-13.1-79.5-13.1-99.3c0-33.9,27.5-61.3,61.3-61.3c33.9,0,61.3,27.5,61.3,61.3
			c0,19.8,0.4,68.8-15.3,103h38.7c15.8-35.5,14.6-78.3,14.6-103c0-54.9-44.5-99.3-99.3-99.3c-54.9,0-99.3,44.5-99.3,99.3
			c0,24.8-0.3,63.9,13.9,99.3H576.8z"/>
		<g>
			<g>
				<path class="st4" d="M492,665.3c-1.2,119-29.2,133.7,128.8,133.7c161,0,141.5-17.9,136.1-141.1
					c-6.1-139.8,27.2-122.2-133.7-126.3C465.7,527.6,493.7,506.1,492,665.3z"/>
			</g>
		</g>
		<g>
			<circle class="st20" cx="652.3" cy="656.4" r="14.5"/>
			<circle class="st5" cx="652.3" cy="656.4" r="9.9"/>
			<circle class="st20" cx="597.7" cy="656.4" r="14.5"/>
			<circle class="st5" cx="597.7" cy="656.4" r="9.9"/>
			<path class="st22" d="M587.6,689.5c0,0,5.7,12,35.3,12c29.6,0,38.8-12,38.8-12"/>
		</g>
		<path class="st5" d="M576.8,568.4c-13.5-34.2-13.1-79.5-13.1-99.3c0-33.9,27.5-61.3,61.3-61.3c33.9,0,61.3,27.5,61.3,61.3
			c0,19.8,0.4,68.8-15.3,103h38.7c15.8-35.5,14.6-78.3,14.6-103c0-54.9-44.5-99.3-99.3-99.3c-54.9,0-99.3,44.5-99.3,99.3
			c0,24.8-0.3,63.9,13.9,99.3H576.8z"/>
		<g>
			<g>
				<path class="st4" d="M492,665.3c-1.2,119-29.2,133.7,128.8,133.7c161,0,141.5-17.9,136.1-141.1
					c-6.1-139.8,27.2-122.2-133.7-126.3C465.7,527.6,493.7,506.1,492,665.3z"/>
			</g>
		</g>
		<g>
			<circle class="st20" cx="652.3" cy="656.4" r="14.5"/>
			<circle class="st5" cx="652.3" cy="656.4" r="9.9"/>
			<circle class="st20" cx="597.7" cy="656.4" r="14.5"/>
			<circle class="st5" cx="597.7" cy="656.4" r="9.9"/>
			<path class="st22" d="M587.6,689.5c0,0,5.7,12,35.3,12c29.6,0,38.8-12,38.8-12"/>
		</g>
	</g>
	<rect x="92.9" y="515.9" class="st49" width="273.6" height="368.3"/>
	<text transform="matrix(1 0 0 1 92.9229 538.9648)"><tspan x="0" y="0" class="st89 st93">Instala un certificado </tspan><tspan x="0" y="33.6" class="st89 st93">SSL</tspan><tspan x="35.8" y="33.6" class="st94 st93">. Antes de publicar tu </tspan><tspan x="0" y="67.2" class="st94 st93">web, instala un certific</tspan><tspan x="259" y="67.2" class="st94 st93">-</tspan><tspan x="0" y="100.8" class="st94 st93">do SSL (existen algunos </tspan><tspan x="0" y="134.4" class="st94 st93">gratuitos y otros son de </tspan><tspan x="0" y="168" class="st94 st93">pago). Es un paso muy </tspan><tspan x="0" y="201.6" class="st94 st93">sencillo, pero vital para </tspan><tspan x="0" y="235.2" class="st94 st93">favorecer la confianza de </tspan><tspan x="0" y="268.8" class="st94 st93">tus clientes y otros fac</tspan><tspan x="249.1" y="268.8" class="st94 st93">-</tspan><tspan x="0" y="302.4" class="st94 st93">tores como el SEO.</tspan></text>
	<g>
		<g>
			<path class="st5" d="M227,499.4c-6.7,0-12-5.3-12-12v-15.8c0-8.9,4-17.2,11.1-22.8l2.8-2.2c2.4-1.8,5.2-3.5,8.6-3.5
				c6.7,0,12.4,5.6,12.4,12.2c0,3.9-1.7,7.3-4.8,9.7l-2.4,1.9c-0.1,0.1-0.3,0.2-0.5,0.4l0.9,0.5c4.5,2.4,7.3,5.1,7.3,11.3v8.5
				c0,6.7-5.3,12-12,12H227z M189.6,499.4c-6.7,0-12-5.3-12-12v-15.8c0-8.9,4-17.2,11.1-22.8l2.8-2.2c2.4-1.8,5.2-3.5,8.6-3.5
				c6.7,0,12.4,5.6,12.4,12.2c0,3.9-1.7,7.3-4.8,9.7l-2.5,1.9c-0.1,0.1-0.3,0.2-0.4,0.4l0.9,0.5c4.5,2.4,7.3,5.1,7.3,11.3v8.5
				c0,6.7-5.3,12-12,12H189.6z"/>
			<path class="st6" d="M237.4,448c3.8,0,7.4,3.2,7.4,7.2c0,1.8-0.5,4-2.9,5.8l-2.5,2c-2,1.6-3.2,2.7-3.2,4.9c0,1.8,1.3,2.7,3.4,3.8
				l1.1,0.5c3.4,1.8,4.7,3.1,4.7,6.8v8.5c0,4-3.1,7-7,7H227c-4,0-7-3.1-7-7v-15.8c0-8.1,4-14.8,9.2-18.9l2.7-2.2
				C234,448.9,235.6,448,237.4,448 M200,448c3.8,0,7.4,3.2,7.4,7.2c0,1.8-0.5,4-2.9,5.8l-2.5,2c-2,1.6-3.2,2.7-3.2,4.9
				c0,1.8,1.3,2.7,3.4,3.8l1.1,0.5c3.4,1.8,4.7,3.1,4.7,6.8v8.5c0,4-3.1,7-7,7h-11.3c-4,0-7-3.1-7-7v-15.8c0-8.1,4-14.8,9.2-18.9
				l2.7-2.2C196.6,448.9,198.2,448,200,448 M237.4,438c-4.9,0-8.6,2.3-11.6,4.5l-0.1,0.1l-0.1,0.1l-2.7,2.2
				c-2.3,1.8-4.3,3.9-6.1,6.2c-1.9-7.4-8.9-13.1-16.8-13.1c-4.9,0-8.6,2.3-11.6,4.5l-0.1,0.1l-0.1,0.1l-2.7,2.2
				c-8.2,6.5-12.9,16.2-12.9,26.7v15.8c0,9.5,7.5,17,17,17h11.3c5.3,0,9.9-2.3,13-6c3.1,3.7,7.8,6,13,6h11.3c9.5,0,17-7.5,17-17
				v-8.5c0-5.9-2.1-9.7-4.9-12.2c2.9-3.1,4.4-7.1,4.4-11.5C254.8,445.9,246.8,438,237.4,438L237.4,438z"/>
		</g>
	</g>
	<g>
		<text transform="matrix(0.9762 -7.598437e-02 2.250000e-03 1 269.614 135.839)" class="st5 st89 st95">webconsejos</text>
		<g>
			<g>
				<path class="st10" d="M674,90.5c0.9,2.4,2.4,3.5,4.8,3.3c1.4-0.1,1.8-0.3,4.9-2.1c0.4-0.2,0.9-0.4,1.3-0.4
					c1.2-0.1,2.4,1,2.4,2.3c0,2.5-4.4,5.2-9,5.6c-6.4,0.5-10.9-3.6-10.9-9.9c0-6.6,4.4-11.7,10.3-12.2c5.6-0.4,10,3.9,10,9.9
					c0,1.7-0.8,2.5-2.6,2.6L674,90.5z M681.9,85.7c-0.3-1.2-0.5-1.6-0.9-2.2c-0.7-1-1.8-1.5-3.1-1.4c-2,0.2-3.3,1.4-4.2,4.2
					L681.9,85.7z"/>
				<path class="st10" d="M696.5,77.5c1.8-1.5,3.1-2,4.9-2.2c5.2-0.4,9.3,4.1,9.4,10.3c0,6.3-4,11.4-9.3,11.9c-2.2,0.2-3.7-0.4-5-2
					c-0.7,1.6-1.5,2.4-2.8,2.5c-1.8,0.1-3.1-1.1-3.1-3l-0.1-23.7c0-1.5,0-1.9,0.4-2.6c0.4-1,1.5-1.7,2.6-1.8
					c1.1-0.1,2.1,0.5,2.6,1.4c0.4,0.7,0.4,1,0.4,2.5L696.5,77.5z M696.5,86.7c0,3.1,1.8,5.2,4.2,5.1c2.3-0.2,4.1-2.6,4.1-5.7
					c0-3-1.8-5.2-4.1-5C698.3,81.3,696.5,83.7,696.5,86.7z"/>
				<path class="st10" d="M713.3,78.1c0-2.2,1.2-3.7,3.1-3.9c1.4-0.1,2.2,0.5,2.8,1.9c1.8-1.8,3.2-2.5,5.5-2.7
					c2.1-0.2,3.8,0.3,5.2,1.4c1.6,1.3,2.2,2.8,2.2,5.8l0,10.1c0,1.5,0,1.9-0.4,2.6c-0.4,1-1.5,1.7-2.6,1.8c-1.1,0.1-2.2-0.5-2.6-1.4
					c-0.4-0.7-0.4-1-0.4-2.5l0-8.7c0-2.4-1.3-3.8-3.4-3.6c-1.9,0.1-3.4,1.9-3.4,3.9l0,8.9c0,1.5,0,1.9-0.4,2.6
					c-0.4,1-1.5,1.7-2.6,1.8c-1.1,0.1-2.2-0.5-2.6-1.4c-0.4-0.7-0.4-1-0.4-2.5L713.3,78.1z"/>
				<path class="st10" d="M736.3,76.8c0-1.5,0-1.9,0.4-2.6c0.4-1,1.5-1.7,2.6-1.8c1.1-0.1,2.1,0.5,2.6,1.4c0.4,0.7,0.4,1,0.4,2.5
					l0,13.7c0,1.5,0,1.9-0.4,2.6c-0.4,1-1.5,1.7-2.6,1.8c-1.1,0.1-2.2-0.5-2.6-1.4c-0.4-0.7-0.4-1-0.4-2.5L736.3,76.8z M745.7,66.2
					c0-1.4-1.2-2.5-2.8-2.6v0l-0.1,0c-0.2,0-0.4,0-0.5,0c-0.2,0-0.4,0-0.6,0.1l-4.8,0.4c-0.2,0-0.4,0-0.5,0c-2,0.2-3.6,1.6-3.6,3.2
					c0,1.6,1.6,2.8,3.5,2.7c0,0,0.1,0,0.1,0l6.5-0.6C744.6,68.9,745.7,67.6,745.7,66.2z"/>
				<path class="st10" d="M761.1,74.9c0,1.4-1.1,2.8-2.3,2.9c-0.7,0.1-0.7,0.1-2.5-0.6c-0.9-0.4-1.7-0.5-2.3-0.5
					c-1,0.1-1.6,0.5-1.6,1.2c0,0.8,0.3,1,3.2,1.9c2.7,0.9,3.5,1.3,4.6,2.3c0.9,1,1.5,2.2,1.5,3.7c0,4.1-3.2,7.1-7.9,7.5
					c-4.1,0.3-7.7-1.5-7.7-3.9c0-1.4,1.2-2.9,2.5-3c0.7-0.1,0.7-0.1,3.1,0.9c1,0.4,1.8,0.5,2.4,0.5c1-0.1,1.8-0.8,1.8-1.6
					c0-0.7-0.5-1.1-2.3-1.6c-3-0.9-3.8-1.3-4.8-1.9c-1.4-0.9-2.1-2.3-2.1-4.3c0-3.8,3.3-6.9,7.7-7.3
					C757.9,70.9,761.1,72.6,761.1,74.9z"/>
				<path class="st10" d="M771.5,64.3c0,2-1.5,3.7-3.5,3.9c-2,0.2-3.5-1.3-3.5-3.3c0-2,1.6-3.7,3.6-3.8
					C770,60.9,771.5,62.4,771.5,64.3z M765,74.6c0-1.5,0-1.9,0.4-2.6c0.4-1,1.5-1.7,2.6-1.8c1.1-0.1,2.1,0.5,2.6,1.4
					c0.4,0.7,0.4,1,0.4,2.5l0,13.7c0,1.5,0,1.9-0.4,2.6c-0.4,1-1.5,1.7-2.6,1.8c-1.1,0.1-2.2-0.5-2.6-1.4c-0.4-0.7-0.4-1-0.4-2.5
					L765,74.6z"/>
				<path class="st10" d="M775.3,73.2c0-2.1,1.2-3.7,3-3.8c1.2-0.1,1.8,0.3,2.9,1.8c1.7-1.7,3.1-2.4,5.3-2.6c1.5-0.1,3,0.1,4.1,0.7
					c0.6,0.3,1,0.6,1.7,1.5c2.4-2.2,4-3,6.3-3.2c4.2-0.3,7.2,2.5,7.3,6.6l0,10.8c0,1.5,0,1.9-0.4,2.6c-0.4,1-1.5,1.7-2.6,1.8
					c-1.1,0.1-2.2-0.5-2.6-1.4c-0.4-0.7-0.4-1-0.4-2.5l0-9.4c0-1.9-1.2-3.1-3.1-3s-3.1,1.5-3.1,3.4l0,9.4c0,1.5,0,1.9-0.4,2.6
					c-0.4,1-1.5,1.7-2.6,1.8c-1.1,0.1-2.2-0.5-2.6-1.4c-0.4-0.7-0.4-1-0.4-2.5l0-8.8c0-2.4-1.2-3.7-3.1-3.5
					c-1.8,0.1-3.1,1.6-3.1,3.4l0,9.4c0,1.5,0,1.9-0.4,2.6c-0.4,1-1.5,1.7-2.6,1.8c-1.1,0.1-2.2-0.5-2.6-1.4c-0.4-0.7-0.4-1-0.4-2.5
					L775.3,73.2z"/>
				<path class="st10" d="M829,83.7c0,2.2-1.2,3.7-3,3.9c-1.4,0.1-2.4-0.6-3-2.2c-1.5,2-2.7,2.8-4.9,2.9c-2.2,0.2-4.2-0.5-5.9-1.9
					c-2.4-2-3.6-4.8-3.6-8.5c0-3.4,1-6,3.1-8.4c1.8-2,3.9-3.1,6.3-3.3c2.1-0.2,3.4,0.4,5.1,2c0.7-1.7,1.5-2.4,3-2.5
					c1.7-0.1,3,1.2,3,2.9L829,83.7z M814.5,77.5c0,3.2,1.6,5.2,4.2,5.1c2.5-0.2,4.1-2.5,4.1-5.7c0-3.1-1.7-5.2-4.2-5
					C816.1,72.1,814.5,74.4,814.5,77.5z"/>
			</g>
			<g>
				<path class="st5" d="M664.6,79.6c-0.4-0.7-1.1-1.2-1.9-1.3c-0.2,0-0.5-0.1-0.7,0c-0.2,0-0.5,0.1-0.7,0.1
					c-0.8,0.3-1.6,0.9-1.9,1.6c-0.3,0.5-0.3,0.9-0.4,1.5c0,0.3,0,10.8,0,10.8c0,1-0.3,1.5-0.6,1.9c-0.4,0.4-0.9,0.6-1.4,0.7
					c-0.6,0-1.1-0.2-1.5-0.6c-0.3-0.4-0.6-0.8-0.6-1.7l0-10.1l0,0c0-1.2-0.1-1.6-0.4-2.2c-0.4-0.7-1.1-1.2-1.9-1.3
					c-0.2,0-0.5-0.1-0.7,0c-0.2,0-0.5,0.1-0.7,0.1c-0.8,0.3-1.6,0.9-1.9,1.6c-0.3,0.5-0.3,0.9-0.4,1.5c0,0.2,0,0.8,0,0.8l0,10
					c0,1-0.3,1.5-0.6,1.9c-0.4,0.4-0.9,0.6-1.4,0.7c-0.6,0-1.1-0.2-1.5-0.6c-0.3-0.4-0.6-0.8-0.6-1.7l-0.1-9.7c0-1.5,0-1.8-0.4-2.5
					c-0.4-0.7-1.1-1.2-1.9-1.3c-0.2,0-0.5-0.1-0.7,0c-0.2,0-0.5,0.1-0.7,0.1c-0.8,0.3-1.6,0.9-1.9,1.6c-0.3,0.5-0.3,0.9-0.4,1.5
					c0,0.3,0,11,0,11c0,3,1,4.8,2.7,6c1.5,1.1,3.4,1.6,5.2,1.4c1.6-0.1,2.9-0.5,4-1.3l0.5-0.4c0.3-0.2,0.6-0.4,0.8-0.4
					c0.3,0,0.5,0.1,0.8,0.2l0.6,0.3c1.1,0.6,2.5,0.8,4,0.6c1.9-0.1,3.6-0.9,5.1-2.2c1.7-1.5,2.7-3.4,2.7-6.4l0-9.9
					C665,80.6,664.9,80.3,664.6,79.6z"/>
				<g>
					<g>
						<path class="st9" d="M651.8,72.2c-6,0.6-11,0.1-11-1c0-0.4,0.7-0.7,1.7-1.2c4.4-2,6.7-2.6,10.8-2.6c2.9,0,6.2-0.2,8.5,1.1
							c0.6,0.2,0.9,0.4,0.9,0.7C662.7,70.2,657.8,71.6,651.8,72.2z M668.1,68.8c-0.1-2.8-5.1-4.3-16.4-3.3
							c-10.7,1-16.3,3.5-16.3,6.3c0.1,4.3,7.4,5.9,16.5,5C660.9,76,668.1,73.1,668.1,68.8z"/>
					</g>
				</g>
			</g>
		</g>
	</g>
	<g>
		<defs>
			<rect id="SVGID_00000028292205490274781080000000200058119261558178_" x="-1.3" y="3.8" width="897" height="897"/>
		</defs>
		<clipPath id="SVGID_00000000914356115287853650000004491847281726436016_">
			<use xlink:href="#SVGID_00000028292205490274781080000000200058119261558178_"  style="overflow:visible;"/>
		</clipPath>
	</g>
	
		<image style="overflow:visible;opacity:0.19;" width="872" height="872" xlink:href="2DFE2D71DEEE9301.png"  transform="matrix(1.2849 0 0 1.2849 -98.5 -107)">
	</image>
</g>
<g id="halftone">
</g>
</svg>
