<?xml version="1.0" encoding="utf-8"?>
<!-- Generator: Adobe Illustrator 27.3.1, SVG Export Plug-In . SVG Version: 6.00 Build 0)  -->
<svg version="1.1" xmlns="http://www.w3.org/2000/svg" xmlns:xlink="http://www.w3.org/1999/xlink" x="0px" y="0px"
	 viewBox="0 0 900 900" style="enable-background:new 0 0 900 900;" xml:space="preserve">
<style type="text/css">
	.st0{display:none;}
	.st1{display:inline;opacity:0.28;}
	.st2{fill:none;stroke:#000000;stroke-width:0.75;stroke-miterlimit:10;}
	.st3{fill:none;stroke:#000000;stroke-width:4;stroke-linecap:round;stroke-linejoin:round;stroke-miterlimit:10;}
	.st4{fill:#FCCF72;stroke:#1A2276;stroke-width:6;stroke-miterlimit:10;}
	.st5{fill:#1A2276;}
	.st6{fill:#EBEAD8;}
	.st7{fill:#ED8376;stroke:#E90302;stroke-width:17;stroke-linecap:round;stroke-linejoin:round;stroke-miterlimit:10;}
	.st8{fill:#E90302;}
	.st9{fill:#FCCF72;}
	.st10{fill:#8288A8;}
	.st11{fill:#EBEAD8;stroke:#1A2276;stroke-width:6;stroke-miterlimit:10;}
	.st12{fill:none;stroke:#1A2276;stroke-width:6;stroke-miterlimit:10;}
	.st13{fill:#E90302;stroke:#1A2276;stroke-width:6;stroke-miterlimit:10;}
	.st14{fill:#EBBFAF;}
	
		.st15{clip-path:url(#SVGID_00000174578495489138768800000014720158391663159942_);fill:#FCCF72;stroke:#1A2276;stroke-width:6;stroke-miterlimit:10;}
	
		.st16{clip-path:url(#SVGID_00000000220646376704735430000015498096169382538624_);fill:#FCCF72;stroke:#1A2276;stroke-width:6;stroke-miterlimit:10;}
	
		.st17{clip-path:url(#SVGID_00000070813990250824782100000008146003017912903585_);fill:#FCCF72;stroke:#1A2276;stroke-width:6;stroke-miterlimit:10;}
	
		.st18{clip-path:url(#SVGID_00000138553368832913112400000001166502577581212326_);fill:#FCCF72;stroke:#1A2276;stroke-width:6;stroke-miterlimit:10;}
	
		.st19{clip-path:url(#SVGID_00000004526870593876034810000005344110564220827026_);fill:#FCCF72;stroke:#1A2276;stroke-width:6;stroke-miterlimit:10;}
	.st20{fill:#FFFFFF;}
	
		.st21{clip-path:url(#SVGID_00000122684110920535031610000012183840847378445712_);fill:#FCCF72;stroke:#1A2276;stroke-width:6;stroke-miterlimit:10;}
	.st22{fill:none;stroke:#1A2276;stroke-width:6;stroke-linecap:round;stroke-miterlimit:10;}
	
		.st23{clip-path:url(#SVGID_00000084506669543092813780000015574717521620286880_);fill:#FCCF72;stroke:#1A2276;stroke-width:6;stroke-miterlimit:10;}
	
		.st24{clip-path:url(#SVGID_00000150800354089106342570000008232416265838187155_);fill:#FCCF72;stroke:#1A2276;stroke-width:6;stroke-miterlimit:10;}
	
		.st25{clip-path:url(#SVGID_00000142880086356778542320000015408479315760274110_);fill:#FCCF72;stroke:#1A2276;stroke-width:6;stroke-miterlimit:10;}
	
		.st26{clip-path:url(#SVGID_00000132772189204053058920000016893728654137876131_);fill:#FCCF72;stroke:#1A2276;stroke-width:6;stroke-miterlimit:10;}
	
		.st27{clip-path:url(#SVGID_00000047051848300272913790000016504048690740447364_);fill:#FCCF72;stroke:#1A2276;stroke-width:6;stroke-miterlimit:10;}
	
		.st28{clip-path:url(#SVGID_00000024002613779589637320000005872699379484167310_);fill:#FCCF72;stroke:#1A2276;stroke-width:6;stroke-miterlimit:10;}
	.st29{fill:none;stroke:#000000;stroke-width:4;stroke-miterlimit:10;}
	.st30{fill:#FCCF72;stroke:#000000;stroke-width:4;stroke-miterlimit:10;}
	.st31{fill:none;stroke:#000000;stroke-width:5;stroke-linecap:round;stroke-miterlimit:10;}
	
		.st32{clip-path:url(#SVGID_00000139288474520876553070000010402534817712817084_);fill:#FCCF72;stroke:#1A2276;stroke-width:6;stroke-miterlimit:10;}
	
		.st33{clip-path:url(#SVGID_00000029009443709814133030000015572760498815183036_);fill:#FCCF72;stroke:#1A2276;stroke-width:6;stroke-miterlimit:10;}
	
		.st34{clip-path:url(#SVGID_00000129163706336059515130000016993370177127314320_);fill:#FCCF72;stroke:#1A2276;stroke-width:6;stroke-miterlimit:10;}
	
		.st35{clip-path:url(#SVGID_00000014592831496758135570000006196061797186244485_);fill:#FCCF72;stroke:#1A2276;stroke-width:6;stroke-miterlimit:10;}
	.st36{fill:#E90302;stroke:#EBBFAF;stroke-width:6;stroke-miterlimit:10;}
	.st37{clip-path:url(#SVGID_00000098931615850033346870000002763462700868028575_);fill:#FCCF72;}
	.st38{clip-path:url(#SVGID_00000098931615850033346870000002763462700868028575_);fill:#1A2276;}
	.st39{clip-path:url(#SVGID_00000098189019733109060010000013182198335220252862_);fill:#8288A8;}
	.st40{fill:#020202;}
	.st41{clip-path:url(#SVGID_00000023244600839729322950000002919191410326764695_);}
	.st42{fill:#EBEAD8;stroke:#1A2276;stroke-width:3;stroke-miterlimit:10;}
	.st43{fill:#8288A8;stroke:#8288A8;stroke-miterlimit:10;}
	.st44{font-family:'Aptly-Bold';}
	.st45{font-size:40.1137px;}
	.st46{letter-spacing:4;}
	.st47{font-size:122.4095px;}
	.st48{fill:#1A2276;stroke:#FCCF72;stroke-width:6;stroke-miterlimit:10;}
	.st49{fill:none;stroke:#EBEAD8;stroke-width:6;stroke-miterlimit:10;}
	.st50{fill:#8288A8;stroke:#1A2276;stroke-width:6;stroke-miterlimit:10;}
	.st51{fill:#FCCF72;stroke:#8288A8;stroke-width:6;stroke-miterlimit:10;}
	.st52{clip-path:url(#SVGID_00000176029155456334495300000015510926871430310784_);}
	.st53{fill:none;}
	.st54{fill:#ED8376;}
	.st55{fill:url(#);}
	.st56{fill:#1A2276;stroke:url(#);stroke-miterlimit:10;}
	.st57{fill:#ED8376;stroke:#E90302;stroke-width:6;stroke-linecap:round;stroke-linejoin:round;stroke-miterlimit:10;}
	.st58{fill:none;stroke:#E90302;stroke-width:6;stroke-linecap:round;stroke-linejoin:round;stroke-miterlimit:10;}
	.st59{fill:none;stroke:#E90302;stroke-width:5;stroke-linecap:round;stroke-linejoin:round;stroke-miterlimit:10;}
	.st60{fill:#FFFFFF;stroke:#000000;stroke-width:6;stroke-miterlimit:10;}
	.st61{fill:#FFFDFD;stroke:#1A2276;stroke-width:7;stroke-miterlimit:10;}
	
		.st62{clip-path:url(#SVGID_00000065754282071198120790000013739214194192087456_);fill:#FCCF72;stroke:#1A2276;stroke-width:6;stroke-miterlimit:10;}
	
		.st63{clip-path:url(#SVGID_00000006679887250003800670000014201326859232190392_);fill:#FCCF72;stroke:#1A2276;stroke-width:6;stroke-miterlimit:10;}
	.st64{fill:none;stroke:#E90302;stroke-width:6;stroke-linecap:round;stroke-miterlimit:10;}
	
		.st65{clip-path:url(#SVGID_00000116234769452337052730000002872144177818356105_);fill:#FCCF72;stroke:#1A2276;stroke-width:6;stroke-miterlimit:10;}
	
		.st66{clip-path:url(#SVGID_00000035500135546818994420000007219201972858944402_);fill:#FCCF72;stroke:#1A2276;stroke-width:6;stroke-miterlimit:10;}
	
		.st67{clip-path:url(#SVGID_00000178204455772555726720000017069194224350025869_);fill:#FCCF72;stroke:#1A2276;stroke-width:6;stroke-miterlimit:10;}
	.st68{fill:none;stroke:#1A2276;stroke-width:7;stroke-miterlimit:10;}
	
		.st69{clip-path:url(#SVGID_00000082363520002041471200000008351079485582080391_);fill:#FCCF72;stroke:#1A2276;stroke-width:6;stroke-miterlimit:10;}
	.st70{clip-path:url(#SVGID_00000120560132896840346610000008908047558925169838_);}
	
		.st71{clip-path:url(#SVGID_00000075143540404993588860000009115212485389273503_);fill:#FCCF72;stroke:#1A2276;stroke-width:6;stroke-miterlimit:10;}
	
		.st72{clip-path:url(#SVGID_00000110432235799477287240000014605105957146380460_);fill:#FCCF72;stroke:#1A2276;stroke-width:6;stroke-miterlimit:10;}
	
		.st73{clip-path:url(#SVGID_00000019653481397071357410000004248418449448181150_);fill:#FCCF72;stroke:#1A2276;stroke-width:6;stroke-miterlimit:10;}
	.st74{clip-path:url(#SVGID_00000017486075844192837780000003127331701428414108_);}
	.st75{clip-path:url(#SVGID_00000019653381303346962620000014234775318075402406_);}
	.st76{clip-path:url(#SVGID_00000054979014091227375020000006380937704018925707_);}
	.st77{opacity:0.5;}
	.st78{clip-path:url(#SVGID_00000053517681170598821860000010001018834216455052_);}
	.st79{clip-path:url(#SVGID_00000109021296107124933750000018339305503575382436_);}
	.st80{fill:#FFFDFD;}
	.st81{clip-path:url(#SVGID_00000024715522777291549400000013503830362824792704_);}
	.st82{opacity:0.8;}
	
		.st83{clip-path:url(#SVGID_00000073718342285012861500000010843076778027694218_);fill:#FCCF72;stroke:#1A2276;stroke-width:6;stroke-miterlimit:10;}
	
		.st84{clip-path:url(#SVGID_00000179629473234683547980000014828863827627368082_);fill:#FCCF72;stroke:#1A2276;stroke-width:6;stroke-miterlimit:10;}
	.st85{clip-path:url(#SVGID_00000008144544798746334140000011219509156775718066_);}
	.st86{clip-path:url(#SVGID_00000103956400811136417240000007810700444335766436_);}
	.st87{clip-path:url(#SVGID_00000093152943984002690480000012612312937211285906_);}
	.st88{clip-path:url(#SVGID_00000163786096092810011000000006641770463385655452_);}
	.st89{clip-path:url(#SVGID_00000128444512675573858600000001225050652897239222_);}
	.st90{fill:none;stroke:#1A2276;stroke-width:19;stroke-miterlimit:10;}
	.st91{clip-path:url(#SVGID_00000127745396924558511430000007371843499397600937_);}
	.st92{font-size:36px;}
	.st93{fill:none;stroke:#1A2276;stroke-width:10;stroke-miterlimit:10;}
	.st94{clip-path:url(#SVGID_00000106149036784142438400000009628450651695266751_);}
	.st95{clip-path:url(#SVGID_00000153677363898990412180000013612278968947786650_);fill:#FCCF72;}
	.st96{clip-path:url(#SVGID_00000153677363898990412180000013612278968947786650_);fill:#1A2276;}
	.st97{clip-path:url(#SVGID_00000161597439959080926510000011341698924049837223_);}
	.st98{clip-path:url(#SVGID_00000012473088313034696080000005019317839517267077_);}
	.st99{clip-path:url(#SVGID_00000012473088313034696080000005019317839517267077_);fill:none;}
	.st100{clip-path:url(#SVGID_00000000186708566194131460000008798005504420707226_);fill:#8288A8;}
	.st101{clip-path:url(#SVGID_00000000186708566194131460000008798005504420707226_);fill:#FCCF72;}
	.st102{fill:#FFFFFF;stroke:#FFFFFF;stroke-width:6;stroke-miterlimit:10;}
	.st103{fill:none;stroke:#8288A8;stroke-width:6;stroke-miterlimit:10;}
	.st104{clip-path:url(#SVGID_00000065759628506466096600000017108861380849002155_);}
	.st105{clip-path:url(#SVGID_00000022527227374675999060000014160301636123119019_);}
	.st106{clip-path:url(#SVGID_00000096761865673898358370000017482425005848673961_);}
	.st107{clip-path:url(#SVGID_00000065754784133378427100000005650738904396629928_);}
	.st108{clip-path:url(#SVGID_00000129185570601303397140000006201026249298325906_);}
	.st109{fill:#EBEAD8;stroke:#1A2276;stroke-width:12;stroke-miterlimit:10;}
	.st110{fill:none;stroke:#1A2276;stroke-width:12;stroke-miterlimit:10;}
	.st111{clip-path:url(#SVGID_00000128466988084178798450000011661231117490762676_);}
	.st112{clip-path:url(#SVGID_00000154402149895243221190000006533732749500984704_);}
	.st113{clip-path:url(#SVGID_00000064323121660138021340000016985077512250599308_);}
	.st114{clip-path:url(#SVGID_00000018216219771702578390000007754233178775751814_);}
	.st115{clip-path:url(#SVGID_00000074405168077454848630000017115811434961496731_);}
	.st116{clip-path:url(#SVGID_00000069387751794325442900000005786592556860433804_);fill:#8288A8;}
	.st117{clip-path:url(#SVGID_00000069387751794325442900000005786592556860433804_);fill:#FCCF72;}
	.st118{clip-path:url(#SVGID_00000034049386432386913570000004018892116674209720_);}
	.st119{clip-path:url(#SVGID_00000106851102603194795430000003560658446319282103_);fill:#E90302;}
	.st120{clip-path:url(#SVGID_00000095310751990523936910000003846619700062765210_);fill:none;}
	.st121{clip-path:url(#SVGID_00000169516645830901320920000012001081461945482430_);}
	.st122{clip-path:url(#SVGID_00000026868237874766825260000009871395839068732860_);}
	.st123{clip-path:url(#SVGID_00000132769641254075020590000006912409451579537282_);}
	.st124{clip-path:url(#SVGID_00000058565887618472732080000017300270281526920596_);}
	.st125{clip-path:url(#SVGID_00000000917226911379801060000002808660966308983194_);}
	.st126{clip-path:url(#SVGID_00000041257655113132112830000017270325174281221560_);}
	.st127{clip-path:url(#SVGID_00000173857899837031570600000006606621767754364544_);}
	.st128{clip-path:url(#SVGID_00000141432363474414034850000003152281471098344613_);}
	.st129{clip-path:url(#SVGID_00000141441836831326716760000002659020020443777965_);}
	.st130{clip-path:url(#SVGID_00000132056472726763582520000005171827160996410285_);}
	.st131{clip-path:url(#SVGID_00000027588257628629953610000016098037099373251211_);}
	.st132{clip-path:url(#SVGID_00000147180464828913219950000010248268524787194770_);}
	.st133{clip-path:url(#SVGID_00000081643265313649771070000010689210116841526918_);fill:#EBEAD8;}
	.st134{clip-path:url(#SVGID_00000081643265313649771070000010689210116841526918_);}
	.st135{clip-path:url(#SVGID_00000057150471801717805230000012331789856772560267_);}
	.st136{clip-path:url(#SVGID_00000030474935205973423940000014256838156297862841_);}
	.st137{clip-path:url(#SVGID_00000143611165976176136550000006503521449044779158_);}
	.st138{clip-path:url(#SVGID_00000119103909138926400090000014132478236982622881_);}
	.st139{clip-path:url(#SVGID_00000074428566416884913830000008807986525473197750_);}
	.st140{fill:#ED8376;stroke:#1A2276;stroke-width:6;stroke-miterlimit:10;}
	.st141{fill:url(#);stroke:#1A2276;stroke-width:6;stroke-miterlimit:10;}
	.st142{clip-path:url(#SVGID_00000120518140191033635110000011814693107787994009_);}
	
		.st143{clip-path:url(#SVGID_00000094599634727911285870000005131340394619086488_);fill:#FCCF72;stroke:#1A2276;stroke-width:6;stroke-miterlimit:10;}
	.st144{fill:none;stroke:#FCCF72;stroke-width:6;stroke-linecap:round;stroke-miterlimit:10;}
	.st145{clip-path:url(#SVGID_00000011007539813956096770000010070069994552691633_);}
</style>
<g id="guias" class="st0">
</g>
<g id="Layer_2">
</g>
<g id="Layer_1">
	<g>
		<polygon class="st7" points="225.2,67.9 223.2,98.9 241.5,124.4 220.1,146.5 218.1,177.5 187.4,180.3 166,202.4 140.3,184.6 
			109.5,187.4 100.8,157.3 75.1,139.5 87.5,111.3 78.9,81.2 106.6,68 119.1,39.7 149.1,47.7 176.8,34.5 195.2,59.9 		"/>
		<g>
			<g>
				<path class="st6" d="M146.8,162.4c0-4.7,3.8-8.5,8.5-8.5c4.7,0,8.5,3.8,8.5,8.5v5.3h4.6c4.7,0,8.5,3.8,8.5,8.5s-3.8,8.5-8.5,8.5
					h-12.8c-4,0-7.3-2.7-8.3-6.4c-0.4-1-0.6-2-0.6-3.2V162.4z"/>
				<path class="st5" d="M168.4,185.9h-12.8c-4.4,0-8.2-2.9-9.3-7.2c-0.4-1.1-0.7-2.3-0.7-3.5v-12.8c0-5.3,4.3-9.6,9.6-9.6
					c5.3,0,9.6,4.3,9.6,9.6v4.3h3.5c5.3,0,9.6,4.3,9.6,9.6C178,181.6,173.7,185.9,168.4,185.9z M155.3,155c-4.1,0-7.4,3.3-7.4,7.4
					v12.8c0,1,0.2,1.9,0.5,2.8l0,0.1c0.8,3.3,3.8,5.6,7.2,5.6h12.8c4.1,0,7.4-3.3,7.4-7.4c0-4.1-3.3-7.4-7.4-7.4h-5.7v-6.4
					C162.8,158.3,159.4,155,155.3,155z"/>
			</g>
			<g>
				<line class="st6" x1="176.9" y1="178.2" x2="147.5" y2="178.2"/>
				<rect x="147.5" y="177.2" class="st5" width="29.4" height="2.1"/>
			</g>
			<g>
				<line class="st6" x1="163.8" y1="167.8" x2="159.4" y2="173.6"/>
				
					<rect x="157.9" y="169.6" transform="matrix(0.6034 -0.7974 0.7974 0.6034 -72.0406 196.5693)" class="st5" width="7.3" height="2.1"/>
			</g>
			<g>
				<line class="st6" x1="168.1" y1="168.5" x2="163.6" y2="174.4"/>
				
					<rect x="162.2" y="170.4" transform="matrix(0.6034 -0.7974 0.7974 0.6034 -70.9183 200.2447)" class="st5" width="7.3" height="2.1"/>
			</g>
			<g>
				<line class="st6" x1="172.3" y1="169.2" x2="167.9" y2="175.1"/>
				
					<rect x="166.4" y="171.1" transform="matrix(0.6034 -0.7974 0.7974 0.6034 -69.796 203.9201)" class="st5" width="7.3" height="2.1"/>
			</g>
			<g>
				<circle class="st6" cx="154.4" cy="168.7" r="3.5"/>
				<path class="st5" d="M154.4,173.3c-2.5,0-4.6-2.1-4.6-4.6c0-2.5,2.1-4.6,4.6-4.6s4.6,2.1,4.6,4.6
					C159,171.2,157,173.3,154.4,173.3z M154.4,166.2c-1.4,0-2.5,1.1-2.5,2.5s1.1,2.5,2.5,2.5s2.5-1.1,2.5-2.5
					S155.8,166.2,154.4,166.2z"/>
			</g>
			<g>
				<g>
					<path class="st6" d="M114.2,162.4c0-4.7,3.8-8.5,8.5-8.5s8.5,3.8,8.5,8.5v5.3h4.6c4.7,0,8.5,3.8,8.5,8.5s-3.8,8.5-8.5,8.5H123
						c-4,0-7.3-2.7-8.3-6.4c-0.4-1-0.6-2-0.6-3.2V162.4z"/>
					<path class="st5" d="M135.8,185.9H123c-4.4,0-8.2-2.9-9.3-7.2c-0.4-1.1-0.7-2.3-0.7-3.5v-12.8c0-5.3,4.3-9.6,9.6-9.6
						c5.3,0,9.6,4.3,9.6,9.6v4.3h3.5c5.3,0,9.6,4.3,9.6,9.6C145.4,181.6,141.1,185.9,135.8,185.9z M122.7,155
						c-4.1,0-7.4,3.3-7.4,7.4v12.8c0,1,0.2,1.9,0.5,2.8l0,0.1c0.8,3.3,3.8,5.6,7.2,5.6h12.8c4.1,0,7.4-3.3,7.4-7.4
						c0-4.1-3.3-7.4-7.4-7.4h-5.7v-6.4C130.1,158.3,126.8,155,122.7,155z"/>
				</g>
				<g>
					<line class="st6" x1="144.3" y1="178.2" x2="114.9" y2="178.2"/>
					<rect x="114.9" y="177.2" class="st5" width="29.4" height="2.1"/>
				</g>
				<g>
					<line class="st6" x1="131.2" y1="167.8" x2="126.8" y2="173.6"/>
					
						<rect x="125.3" y="169.6" transform="matrix(0.6034 -0.7974 0.7974 0.6034 -84.9814 170.548)" class="st5" width="7.3" height="2.1"/>
				</g>
				<g>
					<line class="st6" x1="135.5" y1="168.5" x2="131" y2="174.4"/>
					
						<rect x="129.6" y="170.4" transform="matrix(0.6034 -0.7974 0.7974 0.6034 -83.8592 174.2234)" class="st5" width="7.3" height="2.1"/>
				</g>
				<g>
					<line class="st6" x1="139.7" y1="169.2" x2="135.3" y2="175.1"/>
					
						<rect x="133.8" y="171.1" transform="matrix(0.6034 -0.7974 0.7974 0.6034 -82.7369 177.8988)" class="st5" width="7.3" height="2.1"/>
				</g>
				<g>
					<circle class="st6" cx="121.8" cy="168.7" r="3.5"/>
					<path class="st5" d="M121.8,173.3c-2.5,0-4.6-2.1-4.6-4.6c0-2.5,2.1-4.6,4.6-4.6s4.6,2.1,4.6,4.6
						C126.4,171.2,124.3,173.3,121.8,173.3z M121.8,166.2c-1.4,0-2.5,1.1-2.5,2.5s1.1,2.5,2.5,2.5c1.4,0,2.5-1.1,2.5-2.5
						S123.2,166.2,121.8,166.2z"/>
				</g>
			</g>
			<g>
				<ellipse class="st6" cx="148.7" cy="125.9" rx="38.1" ry="29.8"/>
				<path class="st5" d="M148.7,156.8c-19.3,0-29,0-34-3.9c-5.2-4-5.2-11.7-5.2-26.9s0-22.9,5.2-26.9c5.1-3.9,14.7-3.9,34-3.9
					c19.3,0,29,0,34,3.7c5.2,3.8,5.2,11.1,5.2,25.5l0,1.6l0,1.6c0,14.4,0,21.7-5.2,25.5C177.7,156.8,168,156.8,148.7,156.8z
					 M148.7,97.2c-18.8,0-28.2,0-32.7,3.5c-4.4,3.4-4.4,10.7-4.4,25.2s0,21.8,4.4,25.2c4.5,3.5,13.9,3.5,32.7,3.5
					c18.8,0,28.3,0,32.7-3.3c4.3-3.2,4.3-10.1,4.3-23.8l0-1.6l0-1.6c0-13.7,0-20.6-4.3-23.8C177,97.2,167.6,97.2,148.7,97.2z"/>
			</g>
			<g>
				<path class="st8" d="M148.9,145.1c-38.8,0-38.3-12.2-38.3-11.5c0,27.8,0.2,27.8,38.1,27.8c37.3,0,38.1,0,38.1-27.8
					C186.9,132.9,187.1,145.1,148.9,145.1z"/>
				<path class="st5" d="M148.8,162.5c-19.2,0-28.9,0-33.9-3.7c-5.3-3.8-5.3-11.4-5.3-25.2h0c0-0.5,0.2-0.7,0.3-0.8l0.5-0.5l1.3,0.5
					v0.7c0.1,0.5,2,10.5,37.2,10.5c35.1,0,36.9-10.2,36.9-10.6l0.1-1l2,0.1l0,1c0,14.4-0.2,21.5-5.5,25.2
					C177.3,162.5,167.8,162.5,148.8,162.5z M111.7,137.6c0,10.8,0.5,16.6,4.4,19.4c4.5,3.3,13.9,3.3,32.7,3.3
					c18.5,0,27.8,0,32.4-3.3c4-2.8,4.6-8.5,4.6-19.5c-0.9,0.9-2.1,1.9-3.7,2.9c-6.6,3.8-17.8,5.7-33.1,5.7
					c-13.4,0-23.6-1.4-30.5-4.3C115.1,140.5,113,139,111.7,137.6z"/>
			</g>
			<g>
				<line class="st6" x1="182.2" y1="113.9" x2="126.7" y2="113.9"/>
				<rect x="126.7" y="112.8" class="st5" width="55.5" height="2.1"/>
			</g>
			<g>
				<line class="st6" x1="120.2" y1="113.2" x2="120.2" y2="120.2"/>
				<rect x="119.1" y="113.2" class="st5" width="2.1" height="7.1"/>
			</g>
			<g>
				<path class="st6" d="M174.9,124.3c0,0-1.6-4.6-6.5-3.8c-4.9,0.8-5.5,3.8-5.5,3.8"/>
				<path class="st5" d="M173.9,124.6c-0.1-0.2-1.4-3.8-5.4-3.1c-4,0.7-4.6,2.9-4.6,3l-2.1-0.4c0-0.2,0.7-3.7,6.3-4.7
					c4.6-0.8,7.1,2.6,7.7,4.5L173.9,124.6z"/>
			</g>
			<g>
				<path class="st6" d="M152.6,124.6c0,0-1.6-4.6-6.5-3.8c-4.9,0.8-5.5,3.8-5.5,3.8"/>
				<path class="st5" d="M151.6,125c-0.1-0.2-1.4-3.8-5.4-3.1c-4,0.7-4.6,2.9-4.6,3l-2.1-0.4c0-0.2,0.7-3.7,6.3-4.7
					c4.6-0.8,7.1,2.6,7.7,4.5L151.6,125z"/>
			</g>
			<g>
				<path class="st6" d="M164.8,128.8c0,0,1.3,5.3-4.4,6.1c-6,0.9-6.4-5.1-6.4-5.1"/>
				<path class="st5" d="M159.1,136.1c-1.5,0-2.8-0.4-3.8-1.3c-2.2-1.8-2.5-4.8-2.5-4.9l2.1-0.2c0,0,0.2,2.2,1.7,3.4
					c0.9,0.7,2,0.9,3.5,0.7c1.4-0.2,2.5-0.8,3-1.6c0.9-1.4,0.5-3.2,0.5-3.2l2.1-0.5c0,0.1,0.6,2.7-0.8,4.9c-0.9,1.4-2.4,2.2-4.5,2.5
					C160,136.1,159.6,136.1,159.1,136.1z"/>
			</g>
			<g>
				<path class="st6" d="M102.5,128.6c4.3-1.9,9.3,0.1,11.2,4.4l5.1,11.7c1.9,4.3-0.1,9.3-4.4,11.2c-4.3,1.9-9.3-0.1-11.2-4.4
					l-5.1-11.7C96.2,135.5,98.2,130.5,102.5,128.6z"/>
				<path class="st5" d="M111.1,157.7c-1.2,0-2.4-0.2-3.5-0.7c-2.4-0.9-4.3-2.7-5.3-5.1l-5.1-11.7c-2.1-4.8,0.1-10.5,4.9-12.6
					c2.3-1,4.9-1.1,7.3-0.1c2.4,0.9,4.3,2.7,5.3,5.1l5.1,11.7c1,2.3,1.1,4.9,0.1,7.3c-0.9,2.4-2.7,4.3-5.1,5.3
					C113.7,157.4,112.4,157.7,111.1,157.7z M105.9,129c-1,0-2,0.2-3,0.6c-1.8,0.8-3.2,2.3-3.9,4.1c-0.7,1.9-0.7,3.9,0.1,5.7
					l5.1,11.7c1.6,3.8,6,5.5,9.8,3.8c1.8-0.8,3.2-2.3,3.9-4.1c0.7-1.9,0.7-3.9-0.1-5.7l-5.1-11.7C111.5,130.6,108.8,129,105.9,129z"
					/>
			</g>
			<g>
				<circle class="st5" cx="118.1" cy="98.3" r="13.5"/>
			</g>
			<g>
				<circle class="st5" cx="162.1" cy="82.7" r="13.5"/>
			</g>
			<g>
				<ellipse class="st5" cx="141.9" cy="86.9" rx="24.5" ry="18.4"/>
			</g>
			<g>
				<ellipse class="st5" cx="170.3" cy="86.9" rx="24.5" ry="18.4"/>
			</g>
			<g>
				<g>
					<ellipse class="st6" cx="191.3" cy="116.7" rx="11.4" ry="9.6"/>
					<path class="st5" d="M191.3,127.3c-6.9,0-12.5-4.8-12.5-10.7s5.6-10.7,12.5-10.7c6.9,0,12.5,4.8,12.5,10.7
						S198.1,127.3,191.3,127.3z M191.3,108.1c-5.7,0-10.3,3.8-10.3,8.6c0,4.7,4.6,8.6,10.3,8.6c5.7,0,10.3-3.8,10.3-8.6
						C201.6,111.9,197,108.1,191.3,108.1z"/>
				</g>
				<g>
					<path class="st6" d="M204.8,86.7c-2.5-1.3-5.7-0.1-7.1,2.6c0,0.1-0.1,0.1-0.1,0.2l0,0l-3.8,7.6v-8.5h0c0-0.1,0-0.1,0-0.2
						c0-3.1-2.3-5.5-5.2-5.5s-5.2,2.5-5.2,5.5c0,0.1,0,0.1,0,0.2h0v15.3h8.6l7.9,4l6.9-13.7l0,0c0-0.1,0.1-0.1,0.1-0.2
						C208.3,91.3,207.3,88,204.8,86.7z"/>
					<path class="st5" d="M200.4,109.3l-8.6-4.3h-9.4V87.5h0.1c0.4-3.2,3-5.7,6.2-5.7s5.8,2.5,6.2,5.7h0l0,0.7c0,0.1,0,0.1,0,0.2
						c0,0,0,0,0,0.1l0,0.1v4.1l2.3-4.5l0,0c0.8-1.2,1.9-2.1,3.2-2.6c1.6-0.6,3.3-0.5,4.8,0.2c1.5,0.8,2.6,2.1,3.1,3.7
						c0.4,1.4,0.3,2.8-0.1,4.1l0,0l-0.3,0.6c0,0.1-0.1,0.1-0.1,0.2c0,0,0,0,0,0.1l-0.1,0.1L200.4,109.3z M184.5,102.8h7.8l7.2,3.6
						l5.9-11.7l0,0l0.5-1c0,0,0-0.1,0.1-0.1l0,0c0.5-1.1,0.7-2.3,0.3-3.4c-0.3-1.1-1-2-2-2.4c-1-0.5-2.1-0.5-3.1-0.1
						c-1.1,0.4-2,1.2-2.5,2.3l0,0c0,0,0,0.1,0,0.1l-0.5,1l0,0l-5.3,10.6v-12h0l0-1.3c0-2.5-1.8-4.5-4.1-4.5s-4.1,2-4.1,4.5l0,0.2
						l0,1.1h0V102.8z"/>
				</g>
				<g>
					<path class="st6" d="M192.4,110.4c-2.3,1.1-3.3,4.1-2.1,6.6c1.2,2.6,4.1,3.8,6.4,2.7c0,0,0.1-0.1,0.1-0.1l0,0l7.8-3.2
						c4.4-3.7,0.9-10.5-4.3-9.4l-7.8,3.2l0,0C192.5,110.4,192.5,110.4,192.4,110.4z"/>
					<path class="st5" d="M194.9,121.3c-2.3,0-4.5-1.4-5.6-3.8c-1.3-2.8-0.5-6,1.8-7.6l0-0.1l1-0.4l7.9-3.3l0.1,0
						c2.8-0.6,5.6,0.7,6.9,3.4c1.4,2.7,0.7,5.8-1.7,7.9l-0.1,0.1l-8,3.3c0,0,0,0-0.1,0c-0.2,0.1-0.3,0.1-0.5,0.2l-0.4,0.1l0,0
						C195.9,121.2,195.4,121.3,194.9,121.3z M192.4,110.4l0.4,1c-1.8,0.8-2.5,3.2-1.6,5.2c0.9,2.1,3.2,3.1,5,2.2l0.1-0.1l1-0.5
						l0,0.1l6.7-2.8c1.8-1.7,1.7-3.8,1-5.2c-0.7-1.3-2.2-2.7-4.5-2.3l-6.7,2.8l0,0l-1.1,0.5L192.4,110.4L192.4,110.4z"/>
				</g>
				<g>
					<path class="st6" d="M189.3,103.7c-2.8,1.3-4.1,4.4-2.9,7c1.2,2.6,4.4,3.7,7.2,2.4c0.1,0,0.1-0.1,0.2-0.1l0,0l9.3-3.9
						c5.3-4.2,1.8-10.9-4.3-9.4l-9.3,3.9l0,0C189.4,103.6,189.3,103.6,189.3,103.7z"/>
					<path class="st5" d="M191.2,114.7c-2.4,0-4.7-1.3-5.7-3.5c-0.7-1.5-0.7-3.2-0.1-4.8c0.5-1.3,1.5-2.4,2.7-3.2l0-0.1l1-0.4
						l9.4-3.9c3.8-1,6.5,0.9,7.6,3.1c1.4,2.8,0.4,6-2.4,8.2l-0.1,0.1l-9.4,4c0,0-0.1,0-0.1,0c-0.2,0.1-0.4,0.2-0.6,0.2l-0.3,0.1l0,0
						C192.5,114.5,191.8,114.7,191.2,114.7z M189.7,104.6c-1.1,0.5-1.9,1.4-2.4,2.4c-0.4,1-0.4,2.2,0,3.1c0.9,2.1,3.5,2.9,5.8,1.9
						l0.1-0.1l1-0.5l0,0.1l8.2-3.4c2.3-1.9,2.4-4,1.7-5.5c-0.7-1.3-2.4-2.7-5.1-2l-9.2,3.9C189.8,104.6,189.8,104.6,189.7,104.6
						L189.7,104.6z"/>
				</g>
				<g>
					<path class="st6" d="M183.9,104c-2.4-0.9-5.2,0.6-6.2,3.3s0.2,5.6,2.6,6.4c0.1,0,0.1,0,0.2,0l0,0l7.8,3.2
						c5.7,0.4,8-6.9,3.5-9.7l-7.8-3.2l0,0C184,104,184,104,183.9,104z"/>
					<path class="st5" d="M188.8,118c-0.2,0-0.4,0-0.5,0l-0.2,0l-8-3.3c0,0-0.1,0-0.1,0c-0.2-0.1-0.3-0.1-0.5-0.2l-0.3-0.1l0,0
						c-2.4-1.4-3.5-4.5-2.5-7.5c0.6-1.5,1.6-2.8,3-3.5c1.1-0.6,2.4-0.8,3.6-0.6l0-0.1l1,0.4l7.9,3.2l0.1,0c2.4,1.5,3.5,4.5,2.5,7.2
						C194.1,116.3,191.7,118,188.8,118z M188.6,115.9c2.5,0.1,3.9-1.5,4.4-3c0.5-1.4,0.3-3.5-1.6-4.7l-7.7-3.2c0,0-0.1,0-0.1,0l0,0
						c-0.9-0.3-1.9-0.2-2.8,0.2c-0.9,0.5-1.6,1.3-2,2.4c-0.8,2.1,0.1,4.4,2,5.1l0.1,0l1,0.3l0,0.1L188.6,115.9z"/>
				</g>
			</g>
		</g>
	</g>
	<g>
		<g>
			<polygon class="st8" points="829.1,411.1 71,463.9 71,397.2 829.1,344.3 			"/>
		</g>
		<text transform="matrix(1 -6.972903e-02 0 1 116.3905 444.1202)" class="st6 st44 st45 st46">INCREÍBLE · FANTÁSTICA · APOTEÓSICA</text>
	</g>
	<g>
		<g>
			<polygon class="st5" points="66,158.5 834.1,104.9 834.1,332.2 66,385.7 			"/>
			<path class="st6" d="M829.1,110.3v217.2L71,380.3V163.1L829.1,110.3 M839.1,99.6l-10.7,0.7L70.3,153.2l-9.3,0.6v9.3v217.2v10.7
				l10.7-0.7l758.1-52.9l9.3-0.6v-9.3V110.3V99.6L839.1,99.6z"/>
		</g>
		<g>
			<text transform="matrix(1 -6.972903e-02 0 1 135.4897 327.2534)" class="st10 st44 st47">weconnsejos</text>
			<text transform="matrix(1 -6.972903e-02 0 1 141.4898 318.8351)" class="st5 st44 st47">webconsejos</text>
			<text transform="matrix(1 -6.972903e-02 0 1 151.8816 310.8946)" class="st6 st44 st47">webconsejos</text>
		</g>
	</g>
</g>
<g id="web">
	<g>
		<text transform="matrix(0.9762 -7.598437e-02 2.250000e-03 1 696.2312 102.3202)" class="st5 st44 st92">presenta</text>
		<g>
			<g>
				<path class="st10" d="M346.8,111.2c2,5.2,5.2,7.5,10.3,7.1c3.1-0.2,3.9-0.6,10.7-4.5c0.8-0.4,1.8-0.8,2.8-0.9
					c2.6-0.2,5.2,2.2,5.2,5c0,5.4-9.4,11.2-19.4,12c-13.8,1.1-23.5-7.8-23.6-21.3c0-14.1,9.4-25.2,22.1-26.2
					c12.1-0.9,21.5,8.4,21.5,21.3c0,3.7-1.7,5.4-5.6,5.7L346.8,111.2z M363.7,100.8c-0.6-2.5-1.1-3.5-1.9-4.7
					c-1.5-2.1-4-3.1-6.6-2.9c-4.3,0.3-7.1,3.1-9,9L363.7,100.8z"/>
				<path class="st10" d="M395.2,83.1c3.9-3.2,6.6-4.4,10.5-4.7c11.1-0.9,20.1,8.9,20.1,22.1c0,13.6-8.6,24.6-19.9,25.5
					c-4.8,0.4-8-0.9-10.8-4.4c-1.4,3.5-3.2,5.2-6.1,5.4c-4,0.3-6.7-2.4-6.7-6.5l-0.1-51.1c0-3.2,0.1-4,0.9-5.6
					c1-2.1,3.3-3.6,5.6-3.8c2.3-0.2,4.6,1,5.6,2.9c0.8,1.5,0.9,2.2,0.9,5.4L395.2,83.1z M395.2,102.9c0,6.7,3.8,11.3,9,10.9
					c5-0.4,8.8-5.7,8.8-12.2c0-6.4-3.8-11.1-8.8-10.7C399.1,91.3,395.2,96.5,395.2,102.9z"/>
				<path class="st10" d="M431.5,84.4c0-4.7,2.6-8,6.6-8.3c2.9-0.2,4.8,1,6,4.1c3.8-3.9,6.9-5.4,11.9-5.8c4.5-0.3,8.3,0.7,11.3,3.1
					c3.4,2.9,4.7,6.1,4.7,12.4l0,21.8c0,3.2-0.1,4-0.9,5.6c-1,2.1-3.3,3.6-5.5,3.8c-2.4,0.2-4.7-1-5.6-2.9c-0.8-1.5-0.9-2.2-0.9-5.4
					l0-18.6c0-5.2-2.8-8.2-7.2-7.9c-4.1,0.3-7.3,4-7.3,8.4l0,19.2c0,3.2-0.1,4-0.9,5.6c-1,2.1-3.3,3.6-5.5,3.8
					c-2.4,0.2-4.7-1-5.6-2.9c-0.8-1.5-0.9-2.2-0.9-5.4L431.5,84.4z"/>
				<path class="st10" d="M480.9,81.7c0-3.2,0.1-4,0.9-5.6c1-2.1,3.3-3.6,5.6-3.8c2.3-0.2,4.6,1,5.6,2.9c0.8,1.5,0.9,2.2,0.9,5.4
					l0.1,29.4c0,3.2-0.1,4-0.9,5.6c-1,2.1-3.3,3.6-5.5,3.8c-2.4,0.2-4.7-1-5.6-2.9c-0.8-1.5-0.9-2.2-0.9-5.4L480.9,81.7z
					 M501.2,58.8c0-3-2.6-5.4-6-5.7l0,0l-0.3,0c-0.4,0-0.8,0-1.2,0c-0.4,0-0.8,0.1-1.2,0.2L482.3,54c-0.4,0-0.8,0-1.2,0
					c-4.2,0.3-7.7,3.4-7.7,6.9c0,3.5,3.4,6.1,7.6,5.8c0.1,0,0.2,0,0.3,0l13.9-1.2C498.7,64.6,501.2,61.9,501.2,58.8z"/>
				<path class="st10" d="M534.3,77.5c0,3-2.4,6-5,6.2c-1.4,0.1-1.5,0.1-5.5-1.4c-1.9-0.8-3.6-1.1-4.9-1c-2.1,0.2-3.4,1.2-3.4,2.6
					c0,1.7,0.7,2.1,6.8,4.1c5.7,1.9,7.6,2.8,9.9,5c2,2.1,3.2,4.8,3.2,8.1c0,8.8-6.9,15.4-17.1,16.2c-8.8,0.7-16.6-3.2-16.6-8.3
					c0-3.1,2.6-6.2,5.4-6.4c1.5-0.1,1.5-0.1,6.7,1.8c2.1,0.8,3.8,1.2,5.2,1c2.1-0.2,3.8-1.7,3.8-3.4c0-1.5-1-2.3-4.9-3.5
					c-6.4-1.9-8.2-2.7-10.4-4.2c-3.1-2-4.4-4.9-4.4-9.2c0-8.2,7.1-14.9,16.6-15.7C527.4,68.9,534.3,72.6,534.3,77.5z"/>
				<path class="st10" d="M556.8,54.8c0,4.3-3.3,8-7.5,8.4c-4.2,0.3-7.6-2.8-7.6-7.2c0-4.3,3.4-8,7.6-8.3
					C553.4,47.4,556.8,50.6,556.8,54.8z M542.7,76.9c0-3.2,0.1-4,0.9-5.6c1-2.1,3.3-3.6,5.6-3.8c2.3-0.2,4.6,1,5.6,2.9
					c0.8,1.5,0.9,2.2,0.9,5.4l0.1,29.4c0,3.2-0.1,4-0.9,5.6c-1,2.1-3.3,3.6-5.5,3.8c-2.4,0.2-4.7-1-5.6-2.9
					c-0.8-1.5-0.9-2.2-0.9-5.4L542.7,76.9z"/>
				<path class="st10" d="M564.8,74c0-4.6,2.5-7.9,6.4-8.2c2.6-0.2,4,0.6,6.3,3.9c3.6-3.6,6.8-5.1,11.4-5.5c3.2-0.2,6.4,0.3,8.8,1.6
					c1.3,0.6,2.1,1.4,3.6,3.2c5.2-4.7,8.6-6.5,13.6-6.8c9-0.7,15.6,5.3,15.6,14.2l0.1,23.2c0,3.2-0.1,4-0.9,5.6
					c-1,2.1-3.3,3.6-5.5,3.8c-2.4,0.2-4.7-1-5.6-2.9c-0.8-1.5-0.9-2.2-0.9-5.4l0-20.2c0-4.1-2.7-6.7-6.6-6.4s-6.8,3.3-6.8,7.4
					l0,20.2c0,3.2-0.1,4-0.9,5.6c-1,2.1-3.3,3.6-5.5,3.8c-2.4,0.2-4.7-1-5.6-2.9c-0.8-1.5-0.9-2.2-0.9-5.4l0-18.9
					c0-5.2-2.5-7.9-6.7-7.6c-3.9,0.3-6.7,3.4-6.7,7.4l0,20.2c0,3.2-0.1,4-0.9,5.6c-1,2.1-3.3,3.6-5.5,3.8c-2.4,0.2-4.7-1-5.6-2.9
					c-0.8-1.5-0.9-2.2-0.9-5.4L564.8,74z"/>
				<path class="st10" d="M680.5,96.5c0,4.7-2.6,8.1-6.5,8.4c-3.1,0.2-5.2-1.3-6.5-4.7c-3.3,4.4-5.9,6-10.6,6.3
					c-4.8,0.4-9.1-1-12.8-4.1c-5.1-4.2-7.7-10.3-7.7-18.4c0-7.3,2.1-13,6.7-18.1c3.9-4.3,8.4-6.7,13.5-7.1c4.6-0.4,7.3,0.8,11,4.4
					c1.4-3.6,3.3-5.2,6.4-5.5c3.6-0.3,6.4,2.5,6.4,6.3L680.5,96.5z M649.3,83.1c0,7,3.5,11.3,9,10.9c5.3-0.4,8.9-5.4,8.9-12.2
					c0-6.8-3.6-11.1-9-10.7C652.9,71.6,649.3,76.5,649.3,83.1z"/>
			</g>
			<g>
				<path class="st5" d="M326.4,87.7c-0.8-1.5-2.3-2.5-4.1-2.8c-0.5-0.1-1-0.1-1.5-0.1c-0.5,0-1,0.2-1.5,0.3
					c-1.8,0.6-3.3,1.9-4.1,3.5c-0.5,1.1-0.8,1.9-0.8,3.3c0,0.6,0,23.3,0,23.3c0,2.1-0.6,3.2-1.4,4.1c-0.8,0.8-2,1.4-3.1,1.5
					c-1.3,0.1-2.4-0.4-3.3-1.2c-0.7-0.8-1.2-1.8-1.2-3.6l0-21.7l0,0c0-2.7-0.2-3.4-0.9-4.8c-0.8-1.5-2.3-2.5-4.1-2.8
					c-0.5-0.1-1-0.1-1.5-0.1c-0.5,0-1,0.2-1.5,0.3c-1.8,0.6-3.3,1.9-4.1,3.5c-0.5,1.1-0.8,1.9-0.8,3.3c0,0.5-0.1,1.7-0.1,1.7l0,21.6
					c0,2.1-0.6,3.2-1.4,4.1c-0.8,0.8-2,1.4-3.1,1.5c-1.3,0.1-2.4-0.4-3.3-1.2c-0.7-0.8-1.2-1.8-1.2-3.7l-0.1-20.9
					c0-3.3-0.1-4-0.9-5.5c-0.8-1.5-2.3-2.5-4.1-2.8c-0.5-0.1-1-0.1-1.5-0.1c-0.5,0-1,0.2-1.5,0.3c-1.8,0.6-3.3,1.9-4.1,3.5
					c-0.5,1.1-0.8,1.9-0.8,3.3c0,0.6,0.1,23.7,0.1,23.7c0,6.4,2.1,10.3,5.7,12.9c3.3,2.3,7.4,3.4,11.2,3.1c3.4-0.3,6.3-1.1,8.7-2.7
					l1.1-0.8c0.7-0.5,1.3-0.8,1.8-0.8c0.7-0.1,1.1,0.2,1.8,0.5l1.2,0.7c2.4,1.3,5.3,1.7,8.7,1.4c4-0.3,7.8-1.9,10.9-4.8
					c3.7-3.2,5.8-7.4,5.8-13.8l0-21.4C327.3,89.9,327.2,89.2,326.4,87.7z"/>
				<g>
					<g>
						<path class="st9" d="M298.8,71.8c-13,1.2-23.6,0.2-23.6-2.1c0-0.8,1.4-1.6,3.7-2.7c9.5-4.3,14.3-5.6,23.2-5.5
							c6.3,0.1,13.3-0.4,18.4,2.3c1.2,0.4,1.8,0.9,1.9,1.5C322.3,67.5,311.8,70.6,298.8,71.8z M333.9,64.4c-0.1-6-10.9-9.4-35.4-7.1
							c-23,2.1-35.1,7.6-35,13.7c0.2,9.3,16,12.6,35.4,10.8C318.4,80,334.1,73.7,333.9,64.4z"/>
					</g>
				</g>
			</g>
		</g>
	</g>
	<g>
		<defs>
			<rect id="SVGID_00000026847712972662363320000011101297838793370557_" x="-21.1" y="-15.5" width="944.6" height="944.6"/>
		</defs>
		<clipPath id="SVGID_00000021079549321542034570000012832732501593653424_">
			<use xlink:href="#SVGID_00000026847712972662363320000011101297838793370557_"  style="overflow:visible;"/>
		</clipPath>
	</g>
	<g>
		<g>
			<path class="st6" d="M616.9,817.4C524.1,804.1,481.7,798,458,774.6c-26.1-25.8-20.8-63.1-11-130.8l2-14.1
				c7.4-52,11.9-83.4,27-104.4c14.8-20.7,36.9-27.2,65.2-27.5l-15-145l73.9,97.2l81.7-121l44.3,138.8l102.6-81.8l-58.4,143.5
				c31.6,8.4,53.2,20.8,62.8,46c9.8,25.6,4.9,59.6-3.2,116c-10.2,70.9-15.8,110-47.9,128.4C752.3,836.9,709.9,830.8,616.9,817.4z"/>
		</g>
		<g>
			<polygon class="st9" points="600.6,483.8 675.5,372.9 716.2,500.4 782.8,447.3 738,557.6 565.2,534 550.5,413.9 			"/>
			<path class="st5" d="M560.8,538.3l-17.5-142.6l57.2,79.6l76.6-113.4l41.6,130.3l75.6-60.3L741,562.9L560.8,538.3z M557.6,432.1
				l12,97.6l165.4,22.6l36.5-89.6l-57.6,45.9L674,383.9l-73.2,108.4L557.6,432.1z"/>
		</g>
		<g>
			
				<ellipse transform="matrix(0.1421 -0.9899 0.9899 0.1421 -109.1745 1202.1107)" class="st6" cx="638.9" cy="664" rx="135.6" ry="173.5"/>
			<path class="st5" d="M619,803.1c-86.9-12.5-130.4-18.7-150.8-38.8c-20.9-20.7-16.2-53.4-6.8-118.4l1-7.1l1-7.1
				c9.3-65.1,14-97.8,39.9-111.7c25.2-13.6,68.8-7.3,155.6,5.2c86.9,12.5,130.5,18.7,150.7,39.8c20.7,21.6,15.8,56,5.9,124.6
				c-9.8,68.6-14.8,103-40.7,117.9C749.4,821.8,705.8,815.5,619,803.1z M657.5,534.6c-84.7-12.2-127.3-18.3-149.6-6.2
				c-21.6,11.6-26,42.7-34.9,104.6l-1,7.1l-1,7.1c-8.9,61.9-13.4,92.9,4.1,110.2c18.1,17.9,60.6,24,145.3,36.1
				c84.7,12.2,127.2,18.3,149.6,5.4c21.8-12.5,26.5-45.4,35.9-110.8c9.4-65.5,14.1-98.3-3.3-116.5
				C784.7,552.9,742.2,546.8,657.5,534.6z"/>
		</g>
		<g>
			<path class="st10" d="M798.8,635.8c-3.3,23.2-22.8,20.4-50.7,16.4c-28.4-4.1-27.9-4-24.5-27.2c3.3-23.2,2.8-23.3,31.2-19.2
				C782.6,609.8,802.1,612.6,798.8,635.8z"/>
		</g>
		<g>
			<path class="st10" d="M780.9,760.4c-3.3,23.2-22.8,20.4-50.7,16.4c-28.4-4.1-27.9-4-24.5-27.2c3.3-23.2,2.8-23.3,31.2-19.2
				C764.7,734.4,784.2,737.2,780.9,760.4z"/>
		</g>
		<g>
			<path class="st10" d="M791.2,699.4c-1.9,13.3-21.3,15.6-49.1,11.6c-28.4-4.1-29.4,0.8-26.1-22.4c4.5-31.1,3.8-23.7,32.1-19.6
				C776,673,796.3,663.5,791.2,699.4z"/>
		</g>
		<g>
			<defs>
				
					<ellipse id="SVGID_00000093166690403199950290000016557306737840473756_" transform="matrix(0.1421 -0.9899 0.9899 0.1421 -112.1447 1205.3103)" cx="639.3" cy="667.4" rx="135.6" ry="171.2"/>
			</defs>
			<clipPath id="SVGID_00000078031240375585715600000013881192219036633992_">
				<use xlink:href="#SVGID_00000093166690403199950290000016557306737840473756_"  style="overflow:visible;"/>
			</clipPath>
			<g style="clip-path:url(#SVGID_00000078031240375585715600000013881192219036633992_);">
				<path class="st9" d="M606.8,630.1c-130.8-18.8-123.2-94.8-122.8-97.6c18-125.4,6.3-39,175.1-14.8
					c165.6,23.8,181.7-62,163.8,63.5C822.5,583.9,706.1,644.3,606.8,630.1z"/>
				<path class="st5" d="M606.1,634.9c-137.2-19.7-127-102.3-126.9-103.1c6.7-46.5,9.1-63.9,19.3-69.1c7.8-4,17,0.8,32.3,8.7
					c22.9,11.9,61.1,31.8,129,41.5c66.1,9.5,108.3,1.3,133.5-3.6c17.5-3.4,28-5.5,34.7,0.9c8.3,7.9,6.4,24.6-0.3,71.7
					c-0.3,2.2-1.9,3.4-2.6,3.9C811.7,595.7,699.3,648.2,606.1,634.9z M505.9,471c-1.2-0.2-2.2-0.1-3,0.3
					c-5.7,2.9-8.9,25.1-14.1,61.9c-0.1,0.7-8.8,73.9,118.6,92.2c92,13.2,198.3-38.8,210.9-46.8c4.5-31.8,8-56.6,2.9-61.4
					c-3-2.9-12.7-1-26.2,1.6c-25.8,5-69,13.4-136.7,3.7c-69.5-10-108.6-30.3-132.1-42.5C517.6,475.4,510.3,471.6,505.9,471z"/>
			</g>
		</g>
		<g>
			<circle class="st5" cx="671.1" cy="578" r="11.8"/>
		</g>
		<g>
			<circle class="st5" cx="628.6" cy="571.9" r="11.8"/>
		</g>
		<g>
			<circle class="st5" cx="586.1" cy="565.8" r="11.8"/>
		</g>
		<g>
			<g>
				<circle class="st8" cx="507.6" cy="698.8" r="6.2"/>
			</g>
			<g>
				<circle class="st8" cx="512.4" cy="665.2" r="6.2"/>
			</g>
			<g>
				<circle class="st8" cx="487.8" cy="678" r="6.2"/>
			</g>
		</g>
		<g>
			<polygon class="st5" points="559.8,552.6 551.9,542 541.3,549.9 533.3,539.3 522.7,547.2 530.7,557.8 520.1,565.8 528,576.4 
				538.6,568.4 546.5,579 557.1,571.1 549.2,560.5 			"/>
		</g>
		<g>
			<g>
				<g>
					<g>
						<circle class="st20" cx="627.8" cy="681.7" r="19"/>
					</g>
					<g>
						<circle class="st5" cx="627.8" cy="681.7" r="13"/>
					</g>
				</g>
				<g>
					<circle class="st20" cx="558.2" cy="671.7" r="19"/>
				</g>
				<g>
					<circle class="st5" cx="558.2" cy="671.7" r="13"/>
				</g>
			</g>
			<g>
				<path class="st5" d="M581.9,739.9c-40.4-5.8-47-23.5-47.7-25.5c-0.8-2.6,0.6-5.3,3.2-6.1c2.5-0.8,5.2,0.6,6,3.1
					c0.2,0.5,6,14.1,39.8,18.9c35.2,5.1,48.6-6.9,48.7-7c1.9-1.8,5-1.7,6.8,0.2c1.8,1.9,1.8,4.9-0.1,6.8
					C638,730.8,622.3,745.7,581.9,739.9z"/>
			</g>
		</g>
		<g>
			<g>
				<circle class="st8" cx="670.8" cy="689.2" r="6.2"/>
			</g>
			<g>
				<circle class="st8" cx="666" cy="722.7" r="6.2"/>
			</g>
			<g>
				<circle class="st8" cx="690.6" cy="710" r="6.2"/>
			</g>
		</g>
	</g>
	<g>
		<g>
			<g>
				<g>
					<path class="st6" d="M289.7,733c0-17.4,14.1-31.4,31.4-31.4s31.4,14.1,31.4,31.4v19.8h17c17.4,0,31.4,14.1,31.4,31.4
						c0,17.4-14.1,31.4-31.4,31.4h-47.2c-14.7,0-27.1-10.1-30.5-23.8c-1.4-3.6-2.3-7.6-2.3-11.7V733z"/>
				</g>
				<g>
					<path class="st5" d="M369.7,819.6h-47.2c-16.2,0-30.2-10.9-34.3-26.5c-1.6-4.1-2.4-8.5-2.4-12.9V733
						c0-19.5,15.9-35.4,35.4-35.4s35.4,15.9,35.4,35.4v15.8h13.1c19.5,0,35.4,15.9,35.4,35.4S389.2,819.6,369.7,819.6z M321.2,705.5
						c-15.2,0-27.5,12.3-27.5,27.5v47.2c0,3.5,0.7,7,2,10.2l0.2,0.5c3.1,12.3,14,20.8,26.7,20.8h47.2c15.2,0,27.5-12.3,27.5-27.5
						c0-15.2-12.3-27.5-27.5-27.5h-21V733C348.7,717.8,336.3,705.5,321.2,705.5z"/>
				</g>
			</g>
			<g>
				<g>
					<line class="st6" x1="401.1" y1="791.4" x2="292.3" y2="791.4"/>
				</g>
				<g>
					<rect x="292.3" y="787.5" class="st5" width="108.8" height="7.9"/>
				</g>
			</g>
			<g>
				<g>
					<line class="st6" x1="352.6" y1="752.8" x2="336.2" y2="774.4"/>
				</g>
				<g>
					
						<rect x="330.9" y="759.7" transform="matrix(0.6034 -0.7974 0.7974 0.6034 -472.311 577.4751)" class="st5" width="27.1" height="7.9"/>
				</g>
			</g>
			<g>
				<g>
					<line class="st6" x1="368.3" y1="755.4" x2="352" y2="777"/>
				</g>
				<g>
					
						<rect x="346.6" y="762.3" transform="matrix(0.6034 -0.7974 0.7974 0.6034 -468.1652 591.0526)" class="st5" width="27.1" height="7.9"/>
				</g>
			</g>
			<g>
				<g>
					<line class="st6" x1="384.1" y1="758" x2="367.7" y2="779.7"/>
				</g>
				<g>
					
						<rect x="362.3" y="764.9" transform="matrix(0.6034 -0.7974 0.7974 0.6034 -464.0194 604.6301)" class="st5" width="27.1" height="7.9"/>
				</g>
			</g>
			<g>
				<g>
					<circle class="st6" cx="317.9" cy="756.1" r="13.1"/>
				</g>
				<g>
					<path class="st5" d="M317.9,773.1c-9.4,0-17-7.6-17-17c0-9.4,7.6-17,17-17c9.4,0,17,7.6,17,17
						C334.9,765.4,327.3,773.1,317.9,773.1z M317.9,746.9c-5.1,0-9.2,4.1-9.2,9.2s4.1,9.2,9.2,9.2c5.1,0,9.2-4.1,9.2-9.2
						S323,746.9,317.9,746.9z"/>
				</g>
			</g>
			<g>
				<g>
					<g>
						<path class="st6" d="M169.2,733c0-17.4,14.1-31.4,31.4-31.4s31.4,14.1,31.4,31.4v19.8h17c17.4,0,31.4,14.1,31.4,31.4
							c0,17.4-14.1,31.4-31.4,31.4h-47.2c-14.7,0-27.1-10.1-30.5-23.8c-1.4-3.6-2.3-7.6-2.3-11.7V733z"/>
					</g>
					<g>
						<path class="st5" d="M249.1,819.6h-47.2c-16.2,0-30.2-10.9-34.3-26.5c-1.6-4.1-2.4-8.5-2.4-12.9V733
							c0-19.5,15.9-35.4,35.4-35.4S236,713.5,236,733v15.8h13.1c19.5,0,35.4,15.9,35.4,35.4S268.6,819.6,249.1,819.6z M200.6,705.5
							c-15.2,0-27.5,12.3-27.5,27.5v47.2c0,3.5,0.7,7,2,10.2l0.2,0.5c3.1,12.3,14,20.8,26.7,20.8h47.2c15.2,0,27.5-12.3,27.5-27.5
							c0-15.2-12.3-27.5-27.5-27.5h-21V733C228.1,717.8,215.8,705.5,200.6,705.5z"/>
					</g>
				</g>
				<g>
					<g>
						<line class="st6" x1="280.6" y1="791.4" x2="171.8" y2="791.4"/>
					</g>
					<g>
						<rect x="171.8" y="787.5" class="st5" width="108.8" height="7.9"/>
					</g>
				</g>
				<g>
					<g>
						<line class="st6" x1="232.1" y1="752.8" x2="215.7" y2="774.4"/>
					</g>
					<g>
						
							<rect x="210.3" y="759.7" transform="matrix(0.6034 -0.7974 0.7974 0.6034 -520.1163 481.3488)" class="st5" width="27.1" height="7.9"/>
					</g>
				</g>
				<g>
					<g>
						<line class="st6" x1="247.8" y1="755.4" x2="231.4" y2="777"/>
					</g>
					<g>
						
							<rect x="226" y="762.3" transform="matrix(0.6034 -0.7974 0.7974 0.6034 -515.9705 494.9263)" class="st5" width="27.1" height="7.9"/>
					</g>
				</g>
				<g>
					<g>
						<line class="st6" x1="263.5" y1="758" x2="247.1" y2="779.7"/>
					</g>
					<g>
						
							<rect x="241.8" y="764.9" transform="matrix(0.6034 -0.7974 0.7974 0.6034 -511.8247 508.5037)" class="st5" width="27.1" height="7.9"/>
					</g>
				</g>
				<g>
					<g>
						<circle class="st6" cx="197.4" cy="756.1" r="13.1"/>
					</g>
					<g>
						<path class="st5" d="M197.4,773.1c-9.4,0-17-7.6-17-17c0-9.4,7.6-17,17-17c9.4,0,17,7.6,17,17
							C214.4,765.4,206.7,773.1,197.4,773.1z M197.4,746.9c-5.1,0-9.2,4.1-9.2,9.2s4.1,9.2,9.2,9.2c5.1,0,9.2-4.1,9.2-9.2
							S202.4,746.9,197.4,746.9z"/>
					</g>
				</g>
			</g>
			<g>
				<ellipse class="st6" cx="301.8" cy="499.3" rx="203.9" ry="182"/>
				<path class="st5" d="M301.8,686.9c-115.5,0-209.4-84.2-209.4-187.6c0-103.4,93.9-187.6,209.4-187.6s209.4,84.2,209.4,187.6
					C511.2,602.7,417.2,686.9,301.8,686.9z M301.8,322.8c-109.4,0-198.3,79.2-198.3,176.5c0,97.3,89,176.5,198.3,176.5
					c109.4,0,198.3-79.2,198.3-176.5C500.1,402,411.1,322.8,301.8,322.8z"/>
			</g>
			<g>
				<g>
					<ellipse class="st6" cx="296.9" cy="598.2" rx="140.9" ry="110.1"/>
				</g>
				<g>
					<path class="st5" d="M296.9,712.2c-71.2,0-107,0-125.7-14.6c-19.1-14.9-19.1-43.2-19.1-99.4s0-84.5,19.1-99.4
						c18.7-14.6,54.4-14.6,125.7-14.6c71.2,0,107,0,125.6,13.8c19.2,14.2,19.2,41,19.2,94.4l0,5.8l0,5.8c0,53.4,0,80.2-19.2,94.4
						C403.9,712.2,368.1,712.2,296.9,712.2z M296.9,492c-69.4,0-104.3,0-120.8,12.9C160,517.5,160,544.5,160,598.2s0,80.6,16.1,93.2
						c16.5,12.9,51.4,12.9,120.8,12.9c69.5,0,104.4,0,120.9-12.3c16-11.9,16-37.3,16-88.1l0-5.8l0-5.8c0-50.7,0-76.2-16-88.1
						C401.3,492,366.4,492,296.9,492z"/>
				</g>
			</g>
			<g>
				<g>
					<path class="st8" d="M297.6,668.9c-143.5,0-141.4-44.9-141.4-42.6c0,102.9,0.6,102.9,140.9,102.9c137.7,0,140.8,0,140.9-102.9
						C437.9,624,438.4,668.9,297.6,668.9z"/>
				</g>
				<g>
					<path class="st5" d="M297,733.1c-71,0-106.6,0-125.4-13.6c-19.5-14.1-19.4-42.2-19.4-93.2h0c0-1.7,0.7-2.4,1.1-2.9l1.9-1.9
						l4.9,2v2.5c0.3,1.8,7.4,38.9,137.5,38.9c129.6,0,136.1-37.6,136.4-39.2l0.5-3.6l7.4,0.5l0,3.7c0,53.1-0.9,79.3-20.5,93.2
						C402.3,733.1,367.1,733.1,297,733.1z M160.1,641.4c0.1,40.1,1.7,61.2,16.2,71.8c16.7,12.1,51.4,12.1,120.7,12.1
						c68.4,0,102.8,0,119.8-12.1c14.7-10.5,16.8-31.5,17.1-72.1c-3.2,3.4-7.6,7-13.9,10.6c-24.5,14.1-65.7,21.2-122.4,21.2
						c-49.4,0-87.4-5.3-112.7-15.7C172.7,652.1,164.9,646.5,160.1,641.4z"/>
				</g>
			</g>
			<g>
				<g>
					<line class="st6" x1="420.4" y1="553.6" x2="215.5" y2="553.6"/>
				</g>
				<g>
					<rect x="215.5" y="549.7" class="st5" width="204.9" height="7.9"/>
				</g>
			</g>
			<g>
				<g>
					<line class="st6" x1="191.5" y1="551" x2="191.5" y2="577.1"/>
				</g>
				<g>
					<rect x="187.5" y="551" class="st5" width="7.9" height="26.1"/>
				</g>
			</g>
			<g>
				<g>
					<path class="st6" d="M393.7,592.1c0,0-6-17.1-24.2-14s-20.2,14-20.2,14"/>
				</g>
				<g>
					<path class="st5" d="M390,593.4c-0.2-0.6-5.2-13.9-19.8-11.5c-14.9,2.5-16.9,10.6-17,10.9l-7.7-1.5c0.1-0.6,2.7-13.7,23.4-17.2
						c17-2.9,26.1,9.6,28.5,16.6L390,593.4z"/>
				</g>
			</g>
			<g>
				<g>
					<path class="st6" d="M311.1,593.4c0,0-6-17.1-24.2-14s-20.2,14-20.2,14"/>
				</g>
				<g>
					<path class="st5" d="M307.4,594.7c-0.2-0.6-5.2-13.9-19.8-11.5c-14.9,2.5-16.9,10.6-17,10.9l-7.7-1.5
						c0.1-0.6,2.7-13.7,23.4-17.2c17-2.9,26.1,9.6,28.5,16.6L307.4,594.7z"/>
				</g>
			</g>
			<g>
				<g>
					<path class="st6" d="M356.1,608.9c0,0,4.6,19.4-16.4,22.6c-22,3.3-23.7-18.7-23.7-18.7"/>
				</g>
				<g>
					<path class="st5" d="M335.3,635.7c-5.5,0-10.2-1.6-14.1-4.6c-8.2-6.5-9.1-17.6-9.2-18l7.8-0.6c0,0.1,0.7,8.2,6.3,12.5
						c3.2,2.5,7.6,3.4,12.9,2.6c5.3-0.8,9.1-2.8,11.2-6c3.4-5.1,2-11.7,1.9-11.8l7.6-1.8c0.1,0.4,2.3,10.1-3.1,18
						c-3.4,5.1-9,8.2-16.6,9.4C338.6,635.6,336.9,635.7,335.3,635.7z"/>
				</g>
			</g>
			<g>
				<g>
					<circle class="st5" cx="183.8" cy="496" r="49.8"/>
				</g>
			</g>
			<g>
				<g>
					<circle class="st5" cx="346.3" cy="438.3" r="49.8"/>
				</g>
			</g>
			<g>
				<g>
					<ellipse class="st5" cx="271.6" cy="454" rx="90.4" ry="68.1"/>
				</g>
			</g>
			<g>
				<g>
					<ellipse class="st5" cx="376.4" cy="454" rx="90.4" ry="68.1"/>
				</g>
			</g>
			<g>
				<g>
					<g>
						<ellipse class="st6" cx="493.5" cy="574" rx="42.1" ry="35.5"/>
					</g>
					<g>
						<path class="st5" d="M493.5,613.5c-25.4,0-46-17.7-46-39.5c0-21.8,20.7-39.5,46-39.5c25.4,0,46,17.7,46,39.5
							C539.6,595.8,518.9,613.5,493.5,613.5z M493.5,542.4c-21.1,0-38.2,14.2-38.2,31.6c0,17.4,17.1,31.6,38.2,31.6
							c21.1,0,38.2-14.2,38.2-31.6C531.7,556.6,514.6,542.4,493.5,542.4z"/>
					</g>
				</g>
				<g>
					<g>
						<path class="st6" d="M543.4,463.4c-9.4-4.7-21.2-0.4-26.3,9.7c-0.1,0.2-0.2,0.4-0.3,0.6l0,0l-14.1,28v-31.6h0
							c0-0.2,0-0.5,0-0.7c0-11.3-8.5-20.5-19.1-20.5c-10.5,0-19.1,9.2-19.1,20.5c0,0.2,0,0.5,0,0.7h0v56.5h31.7l29.2,14.7l25.4-50.4
							l0,0c0.1-0.2,0.2-0.4,0.3-0.6C556.3,480.2,552.8,468.2,543.4,463.4z"/>
					</g>
					<g>
						<path class="st5" d="M527.3,546.6l-31.9-16.1h-34.7v-64.3h0.2c1.5-11.9,11.2-21.2,22.8-21.2s21.3,9.2,22.8,21.2h0.2l0,2.4
							c0,0.3,0,0.5,0,0.8c0,0.1,0,0.2,0,0.2l0,0.5v15l8.5-16.8l0.2,0.1c2.9-4.4,7.1-7.7,12-9.5c6-2.2,12.3-1.9,17.9,0.9
							c5.5,2.8,9.6,7.7,11.4,13.8c1.5,5,1.3,10.3-0.5,15.3l0.2,0.1l-1.1,2.2c-0.1,0.2-0.2,0.5-0.4,0.7c0,0.1-0.1,0.1-0.1,0.2
							l-0.2,0.4L527.3,546.6z M468.5,522.7h28.7l26.5,13.4l21.8-43.3l-0.1-0.1l1.9-3.6c0.1-0.1,0.1-0.3,0.2-0.4l0.1-0.1
							c2-4,2.5-8.4,1.3-12.6c-1.2-4-3.8-7.2-7.3-9c-3.6-1.8-7.7-2-11.6-0.5c-4,1.5-7.3,4.5-9.4,8.5l-0.1,0.1
							c-0.1,0.1-0.1,0.3-0.2,0.4l-1.7,3.7l-0.1-0.1l-19.8,39.2v-44.2h-0.1l0.1-4.6c0-9.1-6.8-16.5-15.2-16.5s-15.2,7.4-15.2,16.5
							l0,0.6l0.1,4.1h-0.2V522.7z"/>
					</g>
				</g>
				<g>
					<g>
						<path class="st6" d="M497.8,551c-8.7,4-12.1,15-7.7,24.5s15,14.1,23.6,10.1c0.2-0.1,0.3-0.2,0.5-0.3l0,0l28.9-11.9
							c16.2-13.8,3.2-38.9-15.9-34.7l-28.9,11.9l0,0C498.2,550.9,498,550.9,497.8,551z"/>
					</g>
					<g>
						<path class="st5" d="M507.1,591.1c-8.4,0-16.6-5.2-20.6-13.9c-4.8-10.4-1.7-22.3,6.7-28.1l-0.2-0.4l3.8-1.6l29.2-12.1l0.3-0.1
							c10.4-2.3,20.7,2.7,25.5,12.5c5,10.2,2.6,21.6-6.2,29l-0.5,0.4l-29.6,12.2c-0.1,0-0.2,0.1-0.3,0.1c-0.6,0.3-1.2,0.5-1.8,0.7
							l-1.3,0.5l-0.1-0.1C510.5,590.8,508.8,591.1,507.1,591.1z M497.8,551l1.6,3.5c-6.7,3.1-9.3,11.7-5.8,19.3
							c3.5,7.6,11.8,11.3,18.4,8.2l0.4-0.2l3.7-1.9l0.1,0.3l24.8-10.2c6.8-6.1,6.3-14.1,3.8-19.2c-2.4-4.9-8.2-10-16.4-8.3
							l-24.8,10.2l0,0l-4.1,1.7L497.8,551L497.8,551z"/>
					</g>
				</g>
				<g>
					<g>
						<path class="st6" d="M486.2,526c-10.3,4.7-15,16.3-10.6,25.9c4.4,9.6,16.3,13.5,26.6,8.8c0.2-0.1,0.4-0.2,0.6-0.3l0,0L537,546
							c19.7-15.4,6.5-40.4-15.9-34.7l-34.2,14.4l0,0C486.7,525.8,486.5,525.9,486.2,526z"/>
					</g>
					<g>
						<path class="st5" d="M493.2,566.6c-8.9,0-17.3-4.8-21.1-13.1c-2.6-5.6-2.7-12-0.3-17.9c2-4.8,5.5-8.9,10-11.7l-0.1-0.3
							l3.7-1.6l34.8-14.6c13.9-3.5,24.2,3.2,28.2,11.4c5,10.2,1.5,22-8.9,30.1l-0.4,0.3l-34.9,14.7c-0.1,0.1-0.2,0.1-0.3,0.2
							c-0.7,0.3-1.4,0.6-2.1,0.8l-0.9,0.4l0-0.1C498.3,566.2,495.7,566.6,493.2,566.6z M487.9,529.6c-4.1,1.9-7.2,5.1-8.8,9
							c-1.6,3.9-1.5,8,0.1,11.6c3.5,7.6,13.1,10.7,21.4,6.9l0.5-0.3l3.6-1.8l0.1,0.3l30.2-12.7c8.5-6.9,8.9-14.9,6.3-20.2
							c-2.4-5-8.9-9.8-19-7.4l-33.9,14.3c-0.1,0.1-0.3,0.1-0.4,0.2L487.9,529.6z"/>
					</g>
				</g>
				<g>
					<g>
						<path class="st6" d="M466.4,527.2c-9-3.3-19.1,2.1-22.7,12.1c-3.6,9.9,0.7,20.6,9.7,23.8c0.2,0.1,0.4,0.1,0.6,0.2l0,0l29,11.8
							c21.2,1.6,29.6-25.4,13-35.9l-29-11.8l0,0C466.8,527.4,466.6,527.3,466.4,527.2z"/>
					</g>
					<g>
						<path class="st5" d="M484.6,579.1c-0.7,0-1.3,0-2-0.1l-0.6,0l-29.7-12.1c-0.1,0-0.2-0.1-0.3-0.1c-0.6-0.2-1.2-0.5-1.8-0.8
							l-1.2-0.5l0-0.1c-9-5.1-13.1-16.7-9.1-27.5c2.1-5.7,6.1-10.4,11.2-13.1c4.2-2.3,8.9-3,13.3-2.2l0.1-0.4l3.8,1.5l29.3,11.9
							l0.3,0.2c9,5.7,12.8,16.4,9.4,26.8C504.1,572.8,495.2,579.1,484.6,579.1z M483.8,571.2c9.1,0.4,14.4-5.6,16.2-11
							c1.7-5.2,1.2-12.9-5.8-17.5l-28.6-11.6c-0.1,0-0.2-0.1-0.4-0.2l0,0c-3.3-1.2-6.9-0.9-10.2,0.9c-3.4,1.8-6.1,5-7.5,8.8
							c-2.9,7.9,0.4,16.3,7.3,18.8l0.4,0.1l3.8,1.2l-0.1,0.3L483.8,571.2z"/>
					</g>
				</g>
			</g>
			<g>
				<g>
					<path class="st109" d="M205.4,702.4c13.8-11.3,15.9-31.7,4.6-45.5l-30.7-37.6c-11.3-13.8-31.7-15.9-45.5-4.6
						c-13.8,11.3-15.9,31.7-4.6,45.5l30.7,37.6C171.2,711.6,191.6,713.7,205.4,702.4z"/>
					<line class="st110" x1="190.7" y1="667.4" x2="212.6" y2="694.1"/>
				</g>
				<line class="st110" x1="178.2" y1="677.6" x2="200.1" y2="704.3"/>
			</g>
		</g>
		<g>
			
				<rect x="180" y="408.8" transform="matrix(6.123234e-17 -1 1 6.123234e-17 -235.8655 629.0919)" class="st20" width="33.2" height="47.4"/>
		</g>
		<g>
			
				<rect x="188.3" y="440.8" transform="matrix(6.123234e-17 -1 1 6.123234e-17 -267.8425 661.0688)" class="st20" width="16.6" height="47.4"/>
		</g>
	</g>
</g>
<g id="halftone">
</g>
</svg>
