<?xml version="1.0" encoding="utf-8"?>
<!-- Generator: Adobe Illustrator 27.3.1, SVG Export Plug-In . SVG Version: 6.00 Build 0)  -->
<svg version="1.1" xmlns="http://www.w3.org/2000/svg" xmlns:xlink="http://www.w3.org/1999/xlink" x="0px" y="0px"
	 viewBox="0 0 900 900" style="enable-background:new 0 0 900 900;" xml:space="preserve">
<style type="text/css">
	.st0{display:none;}
	.st1{display:inline;opacity:0.28;}
	.st2{fill:none;stroke:#000000;stroke-width:0.75;stroke-miterlimit:10;}
	.st3{fill:none;stroke:#000000;stroke-width:4;stroke-linecap:round;stroke-linejoin:round;stroke-miterlimit:10;}
	.st4{fill:#FCCF72;stroke:#1A2276;stroke-width:6;stroke-miterlimit:10;}
	.st5{fill:#1A2276;}
	.st6{fill:#EBEAD8;}
	.st7{fill:#ED8376;stroke:#E90302;stroke-width:17;stroke-linecap:round;stroke-linejoin:round;stroke-miterlimit:10;}
	.st8{fill:#E90302;}
	.st9{fill:#FCCF72;}
	.st10{fill:#8288A8;}
	.st11{fill:#EBEAD8;stroke:#1A2276;stroke-width:6;stroke-miterlimit:10;}
	.st12{fill:none;stroke:#1A2276;stroke-width:6;stroke-miterlimit:10;}
	.st13{fill:#E90302;stroke:#1A2276;stroke-width:6;stroke-miterlimit:10;}
	.st14{fill:#EBBFAF;}
	
		.st15{clip-path:url(#SVGID_00000109732544683529496580000015238715425579341710_);fill:#FCCF72;stroke:#1A2276;stroke-width:6;stroke-miterlimit:10;}
	
		.st16{clip-path:url(#SVGID_00000016061186001697070090000001788376537362944445_);fill:#FCCF72;stroke:#1A2276;stroke-width:6;stroke-miterlimit:10;}
	
		.st17{clip-path:url(#SVGID_00000122715211670789239040000016908393255039512473_);fill:#FCCF72;stroke:#1A2276;stroke-width:6;stroke-miterlimit:10;}
	
		.st18{clip-path:url(#SVGID_00000178911859400055990790000010747153829529182626_);fill:#FCCF72;stroke:#1A2276;stroke-width:6;stroke-miterlimit:10;}
	
		.st19{clip-path:url(#SVGID_00000010288793206029000780000001939365620379680904_);fill:#FCCF72;stroke:#1A2276;stroke-width:6;stroke-miterlimit:10;}
	.st20{fill:#FFFFFF;}
	
		.st21{clip-path:url(#SVGID_00000035508833767345331360000002013996871028517268_);fill:#FCCF72;stroke:#1A2276;stroke-width:6;stroke-miterlimit:10;}
	.st22{fill:none;stroke:#1A2276;stroke-width:6;stroke-linecap:round;stroke-miterlimit:10;}
	
		.st23{clip-path:url(#SVGID_00000095337335676430371390000002073983614891015568_);fill:#FCCF72;stroke:#1A2276;stroke-width:6;stroke-miterlimit:10;}
	
		.st24{clip-path:url(#SVGID_00000073705367694764658010000009691543897891361464_);fill:#FCCF72;stroke:#1A2276;stroke-width:6;stroke-miterlimit:10;}
	
		.st25{clip-path:url(#SVGID_00000162330118134796441670000017226099914874061492_);fill:#FCCF72;stroke:#1A2276;stroke-width:6;stroke-miterlimit:10;}
	
		.st26{clip-path:url(#SVGID_00000075139651112210994170000015084775367997571509_);fill:#FCCF72;stroke:#1A2276;stroke-width:6;stroke-miterlimit:10;}
	
		.st27{clip-path:url(#SVGID_00000017506264261741327300000009198471164817442211_);fill:#FCCF72;stroke:#1A2276;stroke-width:6;stroke-miterlimit:10;}
	
		.st28{clip-path:url(#SVGID_00000064339238765247299360000016108709292127210938_);fill:#FCCF72;stroke:#1A2276;stroke-width:6;stroke-miterlimit:10;}
	.st29{fill:none;stroke:#000000;stroke-width:4;stroke-miterlimit:10;}
	.st30{fill:#FCCF72;stroke:#000000;stroke-width:4;stroke-miterlimit:10;}
	.st31{fill:none;stroke:#000000;stroke-width:5;stroke-linecap:round;stroke-miterlimit:10;}
	
		.st32{clip-path:url(#SVGID_00000117643448443821533050000009360747747333653386_);fill:#FCCF72;stroke:#1A2276;stroke-width:6;stroke-miterlimit:10;}
	
		.st33{clip-path:url(#SVGID_00000126307039612761629240000013254990036602662304_);fill:#FCCF72;stroke:#1A2276;stroke-width:6;stroke-miterlimit:10;}
	
		.st34{clip-path:url(#SVGID_00000073709129123129209960000014307099907112203167_);fill:#FCCF72;stroke:#1A2276;stroke-width:6;stroke-miterlimit:10;}
	
		.st35{clip-path:url(#SVGID_00000101816107971691909620000002299936646909660820_);fill:#FCCF72;stroke:#1A2276;stroke-width:6;stroke-miterlimit:10;}
	.st36{fill:#E90302;stroke:#EBBFAF;stroke-width:6;stroke-miterlimit:10;}
	.st37{clip-path:url(#SVGID_00000036930580642049747480000000669629713768624827_);fill:#FCCF72;}
	.st38{clip-path:url(#SVGID_00000036930580642049747480000000669629713768624827_);fill:#1A2276;}
	.st39{clip-path:url(#SVGID_00000060724563072004265880000014516738856131325568_);fill:#8288A8;}
	.st40{fill:#020202;}
	.st41{clip-path:url(#SVGID_00000099630534194263864620000013294854484081636997_);}
	.st42{fill:#EBEAD8;stroke:#1A2276;stroke-width:3;stroke-miterlimit:10;}
	.st43{fill:#8288A8;stroke:#8288A8;stroke-miterlimit:10;}
	.st44{fill:#1A2276;stroke:#FCCF72;stroke-width:6;stroke-miterlimit:10;}
	.st45{fill:none;stroke:#EBEAD8;stroke-width:6;stroke-miterlimit:10;}
	.st46{fill:#8288A8;stroke:#1A2276;stroke-width:6;stroke-miterlimit:10;}
	.st47{fill:#FCCF72;stroke:#8288A8;stroke-width:6;stroke-miterlimit:10;}
	.st48{clip-path:url(#SVGID_00000039116431367097626780000015883523490380809114_);}
	.st49{fill:none;}
	.st50{fill:#ED8376;}
	.st51{fill:url(#);}
	.st52{fill:#1A2276;stroke:url(#);stroke-miterlimit:10;}
	.st53{fill:#ED8376;stroke:#E90302;stroke-width:6;stroke-linecap:round;stroke-linejoin:round;stroke-miterlimit:10;}
	.st54{fill:none;stroke:#E90302;stroke-width:6;stroke-linecap:round;stroke-linejoin:round;stroke-miterlimit:10;}
	.st55{fill:none;stroke:#E90302;stroke-width:5;stroke-linecap:round;stroke-linejoin:round;stroke-miterlimit:10;}
	.st56{fill:#FFFFFF;stroke:#000000;stroke-width:6;stroke-miterlimit:10;}
	.st57{fill:#FFFDFD;stroke:#1A2276;stroke-width:7;stroke-miterlimit:10;}
	
		.st58{clip-path:url(#SVGID_00000138565628955316841640000007813631040441249930_);fill:#FCCF72;stroke:#1A2276;stroke-width:6;stroke-miterlimit:10;}
	
		.st59{clip-path:url(#SVGID_00000093140252732313661030000011881708904556890255_);fill:#FCCF72;stroke:#1A2276;stroke-width:6;stroke-miterlimit:10;}
	.st60{fill:none;stroke:#E90302;stroke-width:6;stroke-linecap:round;stroke-miterlimit:10;}
	
		.st61{clip-path:url(#SVGID_00000170279179700119638250000006935434631614701466_);fill:#FCCF72;stroke:#1A2276;stroke-width:6;stroke-miterlimit:10;}
	
		.st62{clip-path:url(#SVGID_00000073723644860958408730000005086289899543652230_);fill:#FCCF72;stroke:#1A2276;stroke-width:6;stroke-miterlimit:10;}
	
		.st63{clip-path:url(#SVGID_00000010280307924661259930000005289393089361516690_);fill:#FCCF72;stroke:#1A2276;stroke-width:6;stroke-miterlimit:10;}
	.st64{fill:none;stroke:#1A2276;stroke-width:7;stroke-miterlimit:10;}
	
		.st65{clip-path:url(#SVGID_00000168821556552062511920000006980456830689714055_);fill:#FCCF72;stroke:#1A2276;stroke-width:6;stroke-miterlimit:10;}
	.st66{clip-path:url(#SVGID_00000080895279055444481870000009749446147320698030_);}
	
		.st67{clip-path:url(#SVGID_00000093152211855983270220000008935970441063475373_);fill:#FCCF72;stroke:#1A2276;stroke-width:6;stroke-miterlimit:10;}
	
		.st68{clip-path:url(#SVGID_00000002344857418250199020000007568007435610715028_);fill:#FCCF72;stroke:#1A2276;stroke-width:6;stroke-miterlimit:10;}
	
		.st69{clip-path:url(#SVGID_00000043425605345383706490000004371297540799574452_);fill:#FCCF72;stroke:#1A2276;stroke-width:6;stroke-miterlimit:10;}
	.st70{clip-path:url(#SVGID_00000139264332268678904260000001751153675387597714_);}
	.st71{clip-path:url(#SVGID_00000036967712514617270050000009034329528800312466_);}
	.st72{clip-path:url(#SVGID_00000143579577266102021560000001324782319695519621_);}
	.st73{opacity:0.5;}
	.st74{clip-path:url(#SVGID_00000175287513021320562310000009421438333010830753_);}
	.st75{clip-path:url(#SVGID_00000066487072099949376590000017827330366463521412_);}
	.st76{fill:#FFFDFD;}
	.st77{clip-path:url(#SVGID_00000137100847805490833040000005176813755768018817_);}
	.st78{opacity:0.8;}
	
		.st79{clip-path:url(#SVGID_00000127013139975100670990000018091341894268607121_);fill:#FCCF72;stroke:#1A2276;stroke-width:6;stroke-miterlimit:10;}
	
		.st80{clip-path:url(#SVGID_00000175311862608465981920000013943119173966337442_);fill:#FCCF72;stroke:#1A2276;stroke-width:6;stroke-miterlimit:10;}
	.st81{clip-path:url(#SVGID_00000142882549458200397190000012919321620736725638_);}
	.st82{clip-path:url(#SVGID_00000026846106556926149360000009657424082494458501_);}
	.st83{clip-path:url(#SVGID_00000163769517014740809940000016608754052766618812_);}
	.st84{clip-path:url(#SVGID_00000087394995919382275840000007790940224051215009_);}
	.st85{clip-path:url(#SVGID_00000041984979303512289410000014031363176066922890_);}
	.st86{fill:none;stroke:#1A2276;stroke-width:19;stroke-miterlimit:10;}
	.st87{clip-path:url(#SVGID_00000167367469365424032620000002555591707151606406_);}
	.st88{fill:none;stroke:#1A2276;stroke-width:10;stroke-miterlimit:10;}
	.st89{font-family:'Aptly-Bold';}
	.st90{font-size:40.1137px;}
	.st91{letter-spacing:4;}
	.st92{font-size:122.4095px;}
	.st93{font-size:70.872px;}
	.st94{clip-path:url(#SVGID_00000083783394452399853810000014882944002200434345_);}
	.st95{clip-path:url(#SVGID_00000168099886567120585880000004100026508774331266_);fill:#FCCF72;}
	.st96{clip-path:url(#SVGID_00000168099886567120585880000004100026508774331266_);fill:#1A2276;}
	.st97{font-size:28px;}
	.st98{font-family:'Aptly';}
	.st99{clip-path:url(#SVGID_00000165230710599959888680000005726843139701661312_);}
	.st100{clip-path:url(#SVGID_00000008130903458463053960000007840914887638518404_);}
	.st101{clip-path:url(#SVGID_00000008130903458463053960000007840914887638518404_);fill:none;}
	.st102{clip-path:url(#SVGID_00000016067817052317327870000008138442101650379434_);fill:#8288A8;}
	.st103{clip-path:url(#SVGID_00000016067817052317327870000008138442101650379434_);fill:#FCCF72;}
	.st104{fill:#FFFFFF;stroke:#FFFFFF;stroke-width:6;stroke-miterlimit:10;}
	.st105{fill:none;stroke:#8288A8;stroke-width:6;stroke-miterlimit:10;}
	.st106{clip-path:url(#SVGID_00000042698144216268610130000004573817959820832171_);}
	.st107{clip-path:url(#SVGID_00000020379381764849840320000010787121341098431674_);}
	.st108{clip-path:url(#SVGID_00000126320425226940970770000014322974785875417490_);}
	.st109{clip-path:url(#SVGID_00000034069903206088545670000013271536560165871033_);}
	.st110{clip-path:url(#SVGID_00000052794947521730038610000009641535536159374230_);}
	.st111{fill:#EBEAD8;stroke:#1A2276;stroke-width:12;stroke-miterlimit:10;}
	.st112{fill:none;stroke:#1A2276;stroke-width:12;stroke-miterlimit:10;}
	.st113{clip-path:url(#SVGID_00000168796495715175054710000015753955389216158876_);}
	.st114{clip-path:url(#SVGID_00000173860351127515095090000011945499234949016763_);}
	.st115{clip-path:url(#SVGID_00000036957341997582318020000004910668501641723266_);}
	.st116{clip-path:url(#SVGID_00000048462351324229505360000016525293512091950984_);}
	.st117{clip-path:url(#SVGID_00000015326225020898290760000017606599435951629710_);}
	.st118{clip-path:url(#SVGID_00000061461310432701621550000001289363838899634615_);fill:#8288A8;}
	.st119{clip-path:url(#SVGID_00000061461310432701621550000001289363838899634615_);fill:#FCCF72;}
	.st120{clip-path:url(#SVGID_00000057128465442903532520000008284119283297630133_);}
	.st121{clip-path:url(#SVGID_00000033363572952681515290000017298208741810465433_);fill:#E90302;}
	.st122{clip-path:url(#SVGID_00000163780219859556065240000010709839541764234920_);fill:none;}
	.st123{clip-path:url(#SVGID_00000181786037885926281640000015731746940191400323_);}
	.st124{clip-path:url(#SVGID_00000030449796691335312850000017312510759151805570_);}
	.st125{clip-path:url(#SVGID_00000038407684761098006680000008531743171424238516_);}
	.st126{clip-path:url(#SVGID_00000097459005982514200880000010278200404815066293_);}
	.st127{clip-path:url(#SVGID_00000056424381553588632300000006263288154085803159_);}
	.st128{clip-path:url(#SVGID_00000147222168191247525540000009320647890570337927_);}
	.st129{clip-path:url(#SVGID_00000141445845914302814580000012310861652601137839_);}
	.st130{clip-path:url(#SVGID_00000067219905825503226980000011070295002327516853_);}
	.st131{clip-path:url(#SVGID_00000059995495948949697370000007310873184557134508_);}
	.st132{clip-path:url(#SVGID_00000001625190978129870990000018198007878202542745_);}
	.st133{clip-path:url(#SVGID_00000160179262824597580070000007191702425389434291_);}
	.st134{clip-path:url(#SVGID_00000083788010477614586480000007730700040222400162_);}
	.st135{clip-path:url(#SVGID_00000034776099885367710400000009671199362095304628_);fill:#EBEAD8;}
	.st136{clip-path:url(#SVGID_00000034776099885367710400000009671199362095304628_);}
	.st137{clip-path:url(#SVGID_00000074401237499551382710000000667472830759987355_);}
	.st138{clip-path:url(#SVGID_00000070095017307904796800000013157022511284342201_);}
	.st139{clip-path:url(#SVGID_00000109739271963277954840000012149514812977899453_);}
	.st140{clip-path:url(#SVGID_00000036236109476204056060000011218225530635931807_);}
	.st141{clip-path:url(#SVGID_00000124134589038158690140000014628281372885284780_);}
	.st142{fill:#ED8376;stroke:#1A2276;stroke-width:6;stroke-miterlimit:10;}
	.st143{fill:url(#);stroke:#1A2276;stroke-width:6;stroke-miterlimit:10;}
	.st144{clip-path:url(#SVGID_00000005945295519672623100000010503338206585582253_);}
	
		.st145{clip-path:url(#SVGID_00000004537798919378221170000003832634061395071906_);fill:#FCCF72;stroke:#1A2276;stroke-width:6;stroke-miterlimit:10;}
	.st146{fill:none;stroke:#FCCF72;stroke-width:6;stroke-linecap:round;stroke-miterlimit:10;}
	.st147{clip-path:url(#SVGID_00000026121958011534694420000012662421808484898474_);}
</style>
<g id="guias" class="st0">
</g>
<g id="Layer_2">
</g>
<g id="Layer_1">
</g>
<g id="web">
	<g>
		<rect x="1.1" y="0.4" class="st6" width="897" height="897"/>
		<g>
			<polygon class="st7" points="224.8,66.8 222.8,97.8 241.1,123.3 219.7,145.4 217.7,176.4 187,179.2 165.6,201.3 139.9,183.5 
				109.1,186.3 100.4,156.2 74.7,138.4 87.1,110.2 78.5,80.1 106.2,66.9 118.7,38.6 148.7,46.6 176.4,33.4 194.7,58.8 			"/>
			<g>
				<g>
					<path class="st6" d="M146.4,161.3c0-4.7,3.8-8.5,8.5-8.5c4.7,0,8.5,3.8,8.5,8.5v5.3h4.6c4.7,0,8.5,3.8,8.5,8.5
						s-3.8,8.5-8.5,8.5h-12.8c-4,0-7.3-2.7-8.3-6.4c-0.4-1-0.6-2-0.6-3.2V161.3z"/>
					<path class="st5" d="M168,184.8h-12.8c-4.4,0-8.2-2.9-9.3-7.2c-0.4-1.1-0.7-2.3-0.7-3.5v-12.8c0-5.3,4.3-9.6,9.6-9.6
						c5.3,0,9.6,4.3,9.6,9.6v4.3h3.5c5.3,0,9.6,4.3,9.6,9.6S173.3,184.8,168,184.8z M154.9,153.9c-4.1,0-7.4,3.3-7.4,7.4v12.8
						c0,1,0.2,1.9,0.5,2.8l0,0.1c0.8,3.3,3.8,5.6,7.2,5.6H168c4.1,0,7.4-3.3,7.4-7.4s-3.3-7.4-7.4-7.4h-5.7v-6.4
						C162.4,157.2,159,153.9,154.9,153.9z"/>
				</g>
				<g>
					<line class="st6" x1="176.5" y1="177.1" x2="147.1" y2="177.1"/>
					<rect x="147.1" y="176.1" class="st5" width="29.4" height="2.1"/>
				</g>
				<g>
					<line class="st6" x1="163.4" y1="166.7" x2="159" y2="172.5"/>
					
						<rect x="157.5" y="168.5" transform="matrix(0.6034 -0.7974 0.7974 0.6034 -71.3168 195.8081)" class="st5" width="7.3" height="2.1"/>
				</g>
				<g>
					<line class="st6" x1="167.7" y1="167.4" x2="163.2" y2="173.2"/>
					
						<rect x="161.8" y="169.3" transform="matrix(0.6034 -0.7974 0.7974 0.6034 -70.1946 199.4835)" class="st5" width="7.3" height="2.1"/>
				</g>
				<g>
					<line class="st6" x1="171.9" y1="168.1" x2="167.5" y2="174"/>
					
						<rect x="166" y="170" transform="matrix(0.6034 -0.7974 0.7974 0.6034 -69.0723 203.1589)" class="st5" width="7.3" height="2.1"/>
				</g>
				<g>
					<circle class="st6" cx="154" cy="167.6" r="3.5"/>
					<path class="st5" d="M154,172.2c-2.5,0-4.6-2.1-4.6-4.6c0-2.5,2.1-4.6,4.6-4.6c2.5,0,4.6,2.1,4.6,4.6
						C158.6,170.1,156.6,172.2,154,172.2z M154,165.1c-1.4,0-2.5,1.1-2.5,2.5s1.1,2.5,2.5,2.5s2.5-1.1,2.5-2.5
						S155.4,165.1,154,165.1z"/>
				</g>
				<g>
					<g>
						<path class="st6" d="M113.8,161.3c0-4.7,3.8-8.5,8.5-8.5s8.5,3.8,8.5,8.5v5.3h4.6c4.7,0,8.5,3.8,8.5,8.5s-3.8,8.5-8.5,8.5
							h-12.8c-4,0-7.3-2.7-8.3-6.4c-0.4-1-0.6-2-0.6-3.2V161.3z"/>
						<path class="st5" d="M135.4,184.8h-12.8c-4.4,0-8.2-2.9-9.3-7.2c-0.4-1.1-0.7-2.3-0.7-3.5v-12.8c0-5.3,4.3-9.6,9.6-9.6
							c5.3,0,9.6,4.3,9.6,9.6v4.3h3.5c5.3,0,9.6,4.3,9.6,9.6S140.7,184.8,135.4,184.8z M122.3,153.9c-4.1,0-7.4,3.3-7.4,7.4v12.8
							c0,1,0.2,1.9,0.5,2.8l0,0.1c0.8,3.3,3.8,5.6,7.2,5.6h12.8c4.1,0,7.4-3.3,7.4-7.4s-3.3-7.4-7.4-7.4h-5.7v-6.4
							C129.7,157.2,126.4,153.9,122.3,153.9z"/>
					</g>
					<g>
						<line class="st6" x1="143.9" y1="177.1" x2="114.5" y2="177.1"/>
						<rect x="114.5" y="176.1" class="st5" width="29.4" height="2.1"/>
					</g>
					<g>
						<line class="st6" x1="130.8" y1="166.7" x2="126.4" y2="172.5"/>
						
							<rect x="124.9" y="168.5" transform="matrix(0.6034 -0.7974 0.7974 0.6034 -84.2577 169.7868)" class="st5" width="7.3" height="2.1"/>
					</g>
					<g>
						<line class="st6" x1="135" y1="167.4" x2="130.6" y2="173.2"/>
						
							<rect x="129.2" y="169.3" transform="matrix(0.6034 -0.7974 0.7974 0.6034 -83.1354 173.4622)" class="st5" width="7.3" height="2.1"/>
					</g>
					<g>
						<line class="st6" x1="139.3" y1="168.1" x2="134.9" y2="174"/>
						
							<rect x="133.4" y="170" transform="matrix(0.6034 -0.7974 0.7974 0.6034 -82.0132 177.1376)" class="st5" width="7.3" height="2.1"/>
					</g>
					<g>
						<circle class="st6" cx="121.4" cy="167.6" r="3.5"/>
						<path class="st5" d="M121.4,172.2c-2.5,0-4.6-2.1-4.6-4.6c0-2.5,2.1-4.6,4.6-4.6s4.6,2.1,4.6,4.6
							C126,170.1,123.9,172.2,121.4,172.2z M121.4,165.1c-1.4,0-2.5,1.1-2.5,2.5s1.1,2.5,2.5,2.5c1.4,0,2.5-1.1,2.5-2.5
							S122.8,165.1,121.4,165.1z"/>
					</g>
				</g>
				<g>
					<ellipse class="st6" cx="148.3" cy="124.8" rx="38.1" ry="29.8"/>
					<path class="st5" d="M148.3,155.7c-19.3,0-29,0-34-3.9c-5.2-4-5.2-11.7-5.2-26.9s0-22.9,5.2-26.9c5.1-3.9,14.7-3.9,34-3.9
						c19.3,0,29,0,34,3.7c5.2,3.8,5.2,11.1,5.2,25.5l0,1.6l0,1.6c0,14.4,0,21.7-5.2,25.5C177.3,155.7,167.6,155.7,148.3,155.7z
						 M148.3,96.1c-18.8,0-28.2,0-32.7,3.5c-4.4,3.4-4.4,10.7-4.4,25.2s0,21.8,4.4,25.2c4.5,3.5,13.9,3.5,32.7,3.5
						c18.8,0,28.3,0,32.7-3.3c4.3-3.2,4.3-10.1,4.3-23.8l0-1.6l0-1.6c0-13.7,0-20.6-4.3-23.8C176.6,96.1,167.2,96.1,148.3,96.1z"/>
				</g>
				<g>
					<path class="st8" d="M148.5,144c-38.8,0-38.3-12.2-38.3-11.5c0,27.8,0.2,27.8,38.1,27.8c37.3,0,38.1,0,38.1-27.8
						C186.5,131.8,186.7,144,148.5,144z"/>
					<path class="st5" d="M148.4,161.4c-19.2,0-28.9,0-33.9-3.7c-5.3-3.8-5.3-11.4-5.3-25.2h0c0-0.5,0.2-0.7,0.3-0.8l0.5-0.5
						l1.3,0.5v0.7c0.1,0.5,2,10.5,37.2,10.5c35.1,0,36.9-10.2,36.9-10.6l0.1-1l2,0.1l0,1c0,14.4-0.2,21.5-5.5,25.2
						C176.9,161.4,167.3,161.4,148.4,161.4z M111.3,136.5c0,10.8,0.5,16.6,4.4,19.4c4.5,3.3,13.9,3.3,32.7,3.3
						c18.5,0,27.8,0,32.4-3.3c4-2.8,4.6-8.5,4.6-19.5c-0.9,0.9-2.1,1.9-3.7,2.9c-6.6,3.8-17.8,5.7-33.1,5.7
						c-13.4,0-23.6-1.4-30.5-4.3C114.7,139.4,112.6,137.9,111.3,136.5z"/>
				</g>
				<g>
					<line class="st6" x1="181.8" y1="112.8" x2="126.3" y2="112.8"/>
					<rect x="126.3" y="111.7" class="st5" width="55.5" height="2.1"/>
				</g>
				<g>
					<line class="st6" x1="119.8" y1="112.1" x2="119.8" y2="119.1"/>
					<rect x="118.7" y="112.1" class="st5" width="2.1" height="7.1"/>
				</g>
				<g>
					<path class="st6" d="M174.5,123.2c0,0-1.6-4.6-6.5-3.8c-4.9,0.8-5.5,3.8-5.5,3.8"/>
					<path class="st5" d="M173.5,123.5c-0.1-0.2-1.4-3.8-5.4-3.1c-4,0.7-4.6,2.9-4.6,3l-2.1-0.4c0-0.2,0.7-3.7,6.3-4.7
						c4.6-0.8,7.1,2.6,7.7,4.5L173.5,123.5z"/>
				</g>
				<g>
					<path class="st6" d="M152.2,123.5c0,0-1.6-4.6-6.5-3.8c-4.9,0.8-5.5,3.8-5.5,3.8"/>
					<path class="st5" d="M151.2,123.9c-0.1-0.2-1.4-3.8-5.4-3.1c-4,0.7-4.6,2.9-4.6,3l-2.1-0.4c0-0.2,0.7-3.7,6.3-4.7
						c4.6-0.8,7.1,2.6,7.7,4.5L151.2,123.9z"/>
				</g>
				<g>
					<path class="st6" d="M164.4,127.7c0,0,1.3,5.3-4.4,6.1c-6,0.9-6.4-5.1-6.4-5.1"/>
					<path class="st5" d="M158.7,135c-1.5,0-2.8-0.4-3.8-1.3c-2.2-1.8-2.5-4.8-2.5-4.9l2.1-0.2c0,0,0.2,2.2,1.7,3.4
						c0.9,0.7,2,0.9,3.5,0.7c1.4-0.2,2.5-0.8,3-1.6c0.9-1.4,0.5-3.2,0.5-3.2l2.1-0.5c0,0.1,0.6,2.7-0.8,4.9
						c-0.9,1.4-2.4,2.2-4.5,2.5C159.6,135,159.2,135,158.7,135z"/>
				</g>
				<g>
					<path class="st6" d="M102.1,127.5c4.3-1.9,9.3,0.1,11.2,4.4l5.1,11.7c1.9,4.3-0.1,9.3-4.4,11.2c-4.3,1.9-9.3-0.1-11.2-4.4
						l-5.1-11.7C95.8,134.4,97.8,129.4,102.1,127.5z"/>
					<path class="st5" d="M110.7,156.6c-1.2,0-2.4-0.2-3.5-0.7c-2.4-0.9-4.3-2.7-5.3-5.1l-5.1-11.7c-2.1-4.8,0.1-10.5,4.9-12.6
						c2.3-1,4.9-1.1,7.3-0.1c2.4,0.9,4.3,2.7,5.3,5.1l5.1,11.7c1,2.3,1.1,4.9,0.1,7.3c-0.9,2.4-2.7,4.3-5.1,5.3
						C113.3,156.3,112,156.6,110.7,156.6z M105.5,127.8c-1,0-2,0.2-3,0.6c-1.8,0.8-3.2,2.3-3.9,4.1c-0.7,1.9-0.7,3.9,0.1,5.7
						l5.1,11.7c1.6,3.8,6,5.5,9.8,3.8c1.8-0.8,3.2-2.3,3.9-4.1c0.7-1.9,0.7-3.9-0.1-5.7l-5.1-11.7
						C111.1,129.5,108.4,127.8,105.5,127.8z"/>
				</g>
				<g>
					<circle class="st5" cx="117.7" cy="97.2" r="13.5"/>
				</g>
				<g>
					<circle class="st5" cx="161.7" cy="81.5" r="13.5"/>
				</g>
				<g>
					<ellipse class="st5" cx="141.5" cy="85.8" rx="24.5" ry="18.4"/>
				</g>
				<g>
					<ellipse class="st5" cx="169.9" cy="85.8" rx="24.5" ry="18.4"/>
				</g>
				<g>
					<g>
						<ellipse class="st6" cx="190.9" cy="115.6" rx="11.4" ry="9.6"/>
						<path class="st5" d="M190.9,126.2c-6.9,0-12.5-4.8-12.5-10.7c0-5.9,5.6-10.7,12.5-10.7c6.9,0,12.5,4.8,12.5,10.7
							C203.3,121.4,197.7,126.2,190.9,126.2z M190.9,107c-5.7,0-10.3,3.8-10.3,8.6c0,4.7,4.6,8.6,10.3,8.6c5.7,0,10.3-3.8,10.3-8.6
							C201.2,110.8,196.6,107,190.9,107z"/>
					</g>
					<g>
						<path class="st6" d="M204.4,85.6c-2.5-1.3-5.7-0.1-7.1,2.6c0,0.1-0.1,0.1-0.1,0.2l0,0l-3.8,7.6v-8.5h0c0-0.1,0-0.1,0-0.2
							c0-3.1-2.3-5.5-5.2-5.5c-2.9,0-5.2,2.5-5.2,5.5c0,0.1,0,0.1,0,0.2h0v15.3h8.6l7.9,4l6.9-13.7l0,0c0-0.1,0.1-0.1,0.1-0.2
							C207.9,90.2,206.9,86.9,204.4,85.6z"/>
						<path class="st5" d="M200,108.1l-8.6-4.3H182V86.4h0.1c0.4-3.2,3-5.7,6.2-5.7s5.8,2.5,6.2,5.7h0l0,0.7c0,0.1,0,0.1,0,0.2
							c0,0,0,0,0,0.1l0,0.1v4.1l2.3-4.5l0,0c0.8-1.2,1.9-2.1,3.2-2.6c1.6-0.6,3.3-0.5,4.8,0.2c1.5,0.8,2.6,2.1,3.1,3.7
							c0.4,1.4,0.3,2.8-0.1,4.1l0,0l-0.3,0.6c0,0.1-0.1,0.1-0.1,0.2c0,0,0,0,0,0.1l-0.1,0.1L200,108.1z M184.1,101.7h7.8l7.2,3.6
							l5.9-11.7l0,0l0.5-1c0,0,0-0.1,0.1-0.1l0,0c0.5-1.1,0.7-2.3,0.3-3.4c-0.3-1.1-1-2-2-2.4c-1-0.5-2.1-0.5-3.1-0.1
							c-1.1,0.4-2,1.2-2.5,2.3l0,0c0,0,0,0.1,0,0.1l-0.5,1l0,0l-5.3,10.6v-12h0l0-1.3c0-2.5-1.8-4.5-4.1-4.5s-4.1,2-4.1,4.5l0,0.2
							l0,1.1h0V101.7z"/>
					</g>
					<g>
						<path class="st6" d="M192,109.3c-2.3,1.1-3.3,4.1-2.1,6.6c1.2,2.6,4.1,3.8,6.4,2.7c0,0,0.1-0.1,0.1-0.1l0,0l7.8-3.2
							c4.4-3.7,0.9-10.5-4.3-9.4l-7.8,3.2l0,0C192.1,109.3,192.1,109.3,192,109.3z"/>
						<path class="st5" d="M194.5,120.2c-2.3,0-4.5-1.4-5.6-3.8c-1.3-2.8-0.5-6,1.8-7.6l0-0.1l1-0.4l7.9-3.3l0.1,0
							c2.8-0.6,5.6,0.7,6.9,3.4c1.4,2.7,0.7,5.8-1.7,7.9l-0.1,0.1l-8,3.3c0,0,0,0-0.1,0c-0.2,0.1-0.3,0.1-0.5,0.2l-0.4,0.1l0,0
							C195.5,120.1,195,120.2,194.5,120.2z M192,109.3l0.4,1c-1.8,0.8-2.5,3.2-1.6,5.2c0.9,2.1,3.2,3.1,5,2.2l0.1-0.1l1-0.5l0,0.1
							l6.7-2.8c1.8-1.7,1.7-3.8,1-5.2c-0.7-1.3-2.2-2.7-4.5-2.3l-6.7,2.8l0,0l-1.1,0.5L192,109.3L192,109.3z"/>
					</g>
					<g>
						<path class="st6" d="M188.9,102.6c-2.8,1.3-4.1,4.4-2.9,7c1.2,2.6,4.4,3.7,7.2,2.4c0.1,0,0.1-0.1,0.2-0.1l0,0l9.3-3.9
							c5.3-4.2,1.8-10.9-4.3-9.4l-9.3,3.9l0,0C189,102.5,188.9,102.5,188.9,102.6z"/>
						<path class="st5" d="M190.8,113.5c-2.4,0-4.7-1.3-5.7-3.5c-0.7-1.5-0.7-3.2-0.1-4.8c0.5-1.3,1.5-2.4,2.7-3.2l0-0.1l1-0.4
							l9.4-3.9c3.8-1,6.5,0.9,7.6,3.1c1.4,2.8,0.4,6-2.4,8.2l-0.1,0.1l-9.4,4c0,0-0.1,0-0.1,0c-0.2,0.1-0.4,0.2-0.6,0.2l-0.3,0.1
							l0,0C192.1,113.4,191.4,113.5,190.8,113.5z M189.3,103.5c-1.1,0.5-1.9,1.4-2.4,2.4c-0.4,1-0.4,2.2,0,3.1
							c0.9,2.1,3.5,2.9,5.8,1.9l0.1-0.1l1-0.5l0,0.1l8.2-3.4c2.3-1.9,2.4-4,1.7-5.5c-0.7-1.3-2.4-2.7-5.1-2l-9.2,3.9
							C189.4,103.5,189.4,103.5,189.3,103.5L189.3,103.5z"/>
					</g>
					<g>
						<path class="st6" d="M183.5,102.9c-2.4-0.9-5.2,0.6-6.2,3.3c-1,2.7,0.2,5.6,2.6,6.4c0.1,0,0.1,0,0.2,0l0,0l7.8,3.2
							c5.7,0.4,8-6.9,3.5-9.7l-7.8-3.2l0,0C183.6,102.9,183.6,102.9,183.5,102.9z"/>
						<path class="st5" d="M188.4,116.9c-0.2,0-0.4,0-0.5,0l-0.2,0l-8-3.3c0,0-0.1,0-0.1,0c-0.2-0.1-0.3-0.1-0.5-0.2l-0.3-0.1l0,0
							c-2.4-1.4-3.5-4.5-2.5-7.5c0.6-1.5,1.6-2.8,3-3.5c1.1-0.6,2.4-0.8,3.6-0.6l0-0.1l1,0.4l7.9,3.2l0.1,0c2.4,1.5,3.5,4.5,2.5,7.2
							C193.7,115.2,191.3,116.9,188.4,116.9z M188.2,114.8c2.5,0.1,3.9-1.5,4.4-3c0.5-1.4,0.3-3.5-1.6-4.7l-7.7-3.2c0,0-0.1,0-0.1,0
							l0,0c-0.9-0.3-1.9-0.2-2.8,0.2c-0.9,0.5-1.6,1.3-2,2.4c-0.8,2.1,0.1,4.4,2,5.1l0.1,0l1,0.3l0,0.1L188.2,114.8z"/>
					</g>
				</g>
			</g>
		</g>
		<g>
			<g>
				<polygon class="st8" points="828.7,410 70.6,462.8 70.6,396 828.7,343.2 				"/>
			</g>
			<text transform="matrix(1 -6.972903e-02 0 1 115.9871 443.0118)" class="st6 st89 st90 st91">INCREÍBLE · FANTÁSTICA · APOTEÓSICA</text>
		</g>
		<g>
			<polygon class="st5" points="65.6,157.4 833.7,103.8 833.7,331 65.6,384.6 			"/>
			<path class="st6" d="M828.7,109.2v217.2L70.6,379.2V162L828.7,109.2 M838.7,98.5L828,99.2L69.9,152.1l-9.3,0.6v9.3v217.2V390
				l10.7-0.7l758.1-52.9l9.3-0.6v-9.3V109.2V98.5L838.7,98.5z"/>
		</g>
		<g>
			<text transform="matrix(1 -6.972903e-02 0 1 184.0863 326.145)" class="st10 st89 st92">responsive</text>
			<text transform="matrix(1 -6.972903e-02 0 1 189.0863 317.7267)" class="st5 st89 st92">responsive</text>
			<text transform="matrix(1 -6.972903e-02 0 1 196.4781 309.7862)" class="st6 st89 st92">responsive</text>
		</g>
		<g>
			<g>
				<path class="st5" d="M225.6,498.8c-6.7,0-12-5.3-12-12V471c0-8.9,4-17.2,11.1-22.8l2.8-2.2c2.4-1.8,5.2-3.5,8.6-3.5
					c6.7,0,12.4,5.6,12.4,12.2c0,3.9-1.7,7.3-4.8,9.7l-2.5,1.9c-0.1,0.1-0.3,0.2-0.4,0.4l0.9,0.5c4.5,2.4,7.3,5.1,7.3,11.3v8.5
					c0,6.7-5.3,12-12,12H225.6z M188.1,498.8c-6.7,0-12-5.3-12-12V471c0-8.9,4-17.2,11.1-22.8l2.8-2.2c2.4-1.8,5.2-3.5,8.6-3.5
					c6.7,0,12.4,5.6,12.4,12.2c0,3.9-1.7,7.3-4.8,9.7l-2.5,1.9c-0.1,0.1-0.3,0.2-0.4,0.4l0.9,0.5c4.5,2.4,7.3,5.1,7.3,11.3v8.5
					c0,6.7-5.3,12-12,12H188.1z"/>
				<path class="st6" d="M236,447.4c3.8,0,7.4,3.2,7.4,7.2c0,1.8-0.5,4-2.9,5.8l-2.5,2c-2,1.6-3.2,2.7-3.2,4.9
					c0,1.8,1.3,2.7,3.4,3.8l1.1,0.5c3.4,1.8,4.7,3.1,4.7,6.8v8.5c0,4-3.1,7-7,7h-11.3c-4,0-7-3.1-7-7V471c0-8.1,4-14.8,9.2-18.9
					l2.7-2.2C232.6,448.3,234.2,447.4,236,447.4 M198.6,447.4c3.8,0,7.4,3.2,7.4,7.2c0,1.8-0.5,4-2.9,5.8l-2.5,2
					c-2,1.6-3.2,2.7-3.2,4.9c0,1.8,1.3,2.7,3.4,3.8l1.1,0.5c3.4,1.8,4.7,3.1,4.7,6.8v8.5c0,4-3.1,7-7,7h-11.3c-4,0-7-3.1-7-7V471
					c0-8.1,4-14.8,9.2-18.9l2.7-2.2C195.2,448.3,196.8,447.4,198.6,447.4 M236,437.4c-4.9,0-8.6,2.3-11.6,4.5l-0.1,0.1l-0.1,0.1
					l-2.7,2.2c-2.3,1.8-4.3,3.9-6.1,6.2c-1.9-7.4-8.9-13.1-16.8-13.1c-4.9,0-8.6,2.3-11.6,4.5l-0.1,0.1l-0.1,0.1l-2.7,2.2
					c-8.2,6.5-12.9,16.2-12.9,26.7v15.8c0,9.5,7.5,17,17,17h11.3c5.3,0,9.9-2.3,13-6c3.1,3.7,7.8,6,13,6h11.3c9.5,0,17-7.5,17-17
					v-8.5c0-5.9-2.1-9.7-4.9-12.2c2.9-3.1,4.4-7.1,4.4-11.5C253.4,445.3,245.4,437.4,236,437.4L236,437.4z"/>
			</g>
		</g>
		<g>
			<text transform="matrix(0.9762 -7.598437e-02 2.250000e-03 1 268.2108 135.2341)" class="st5 st89 st93">webconsejos</text>
			<g>
				<g>
					<path class="st10" d="M672.6,89.9c0.9,2.4,2.4,3.5,4.8,3.3c1.4-0.1,1.8-0.3,4.9-2.1c0.4-0.2,0.9-0.4,1.3-0.4
						c1.2-0.1,2.4,1,2.4,2.3c0,2.5-4.4,5.2-9,5.6c-6.4,0.5-10.9-3.6-10.9-9.9c0-6.6,4.4-11.7,10.3-12.2c5.6-0.4,10,3.9,10,9.9
						c0,1.7-0.8,2.5-2.6,2.6L672.6,89.9z M680.5,85.1c-0.3-1.2-0.5-1.6-0.9-2.2c-0.7-1-1.8-1.5-3.1-1.4c-2,0.2-3.3,1.4-4.2,4.2
						L680.5,85.1z"/>
					<path class="st10" d="M695.1,76.9c1.8-1.5,3.1-2,4.9-2.2c5.2-0.4,9.3,4.1,9.4,10.3c0,6.3-4,11.4-9.3,11.9c-2.2,0.2-3.7-0.4-5-2
						c-0.7,1.6-1.5,2.4-2.8,2.5c-1.8,0.1-3.1-1.1-3.1-3l-0.1-23.7c0-1.5,0-1.9,0.4-2.6c0.4-1,1.5-1.7,2.6-1.8
						c1.1-0.1,2.1,0.5,2.6,1.4c0.4,0.7,0.4,1,0.4,2.5L695.1,76.9z M695.1,86.1c0,3.1,1.8,5.2,4.2,5.1c2.3-0.2,4.1-2.6,4.1-5.7
						c0-3-1.8-5.2-4.1-5C696.9,80.7,695.1,83.1,695.1,86.1z"/>
					<path class="st10" d="M711.9,77.5c0-2.2,1.2-3.7,3.1-3.9c1.4-0.1,2.2,0.5,2.8,1.9c1.8-1.8,3.2-2.5,5.5-2.7
						c2.1-0.2,3.8,0.3,5.2,1.4c1.6,1.3,2.2,2.8,2.2,5.8l0,10.1c0,1.5,0,1.9-0.4,2.6c-0.4,1-1.5,1.7-2.6,1.8
						c-1.1,0.1-2.2-0.5-2.6-1.4c-0.4-0.7-0.4-1-0.4-2.5l0-8.7c0-2.4-1.3-3.8-3.4-3.6c-1.9,0.1-3.4,1.9-3.4,3.9l0,8.9
						c0,1.5,0,1.9-0.4,2.6c-0.4,1-1.5,1.7-2.6,1.8c-1.1,0.1-2.2-0.5-2.6-1.4c-0.4-0.7-0.4-1-0.4-2.5L711.9,77.5z"/>
					<path class="st10" d="M734.9,76.2c0-1.5,0-1.9,0.4-2.6c0.4-1,1.5-1.7,2.6-1.8c1.1-0.1,2.1,0.5,2.6,1.4c0.4,0.7,0.4,1,0.4,2.5
						l0,13.7c0,1.5,0,1.9-0.4,2.6c-0.4,1-1.5,1.7-2.6,1.8c-1.1,0.1-2.2-0.5-2.6-1.4c-0.4-0.7-0.4-1-0.4-2.5L734.9,76.2z M744.3,65.6
						c0-1.4-1.2-2.5-2.8-2.6v0l-0.1,0c-0.2,0-0.4,0-0.5,0c-0.2,0-0.4,0-0.6,0.1l-4.8,0.4c-0.2,0-0.4,0-0.5,0c-2,0.2-3.6,1.6-3.6,3.2
						c0,1.6,1.6,2.8,3.5,2.7c0,0,0.1,0,0.1,0l6.5-0.6C743.2,68.3,744.3,67,744.3,65.6z"/>
					<path class="st10" d="M759.7,74.3c0,1.4-1.1,2.8-2.3,2.9c-0.7,0.1-0.7,0.1-2.5-0.6c-0.9-0.4-1.7-0.5-2.3-0.5
						c-1,0.1-1.6,0.5-1.6,1.2c0,0.8,0.3,1,3.2,1.9c2.7,0.9,3.5,1.3,4.6,2.3c0.9,1,1.5,2.2,1.5,3.7c0,4.1-3.2,7.1-7.9,7.5
						c-4.1,0.3-7.7-1.5-7.7-3.9c0-1.4,1.2-2.9,2.5-3c0.7-0.1,0.7-0.1,3.1,0.9c1,0.4,1.8,0.5,2.4,0.5c1-0.1,1.8-0.8,1.8-1.6
						c0-0.7-0.5-1.1-2.3-1.6c-3-0.9-3.8-1.3-4.8-1.9c-1.4-0.9-2.1-2.3-2.1-4.3c0-3.8,3.3-6.9,7.7-7.3
						C756.5,70.3,759.7,72,759.7,74.3z"/>
					<path class="st10" d="M770.1,63.7c0,2-1.5,3.7-3.5,3.9c-2,0.2-3.5-1.3-3.5-3.3c0-2,1.6-3.7,3.6-3.8
						C768.6,60.3,770.1,61.8,770.1,63.7z M763.6,74c0-1.5,0-1.9,0.4-2.6c0.4-1,1.5-1.7,2.6-1.8c1.1-0.1,2.1,0.5,2.6,1.4
						c0.4,0.7,0.4,1,0.4,2.5l0,13.7c0,1.5,0,1.9-0.4,2.6c-0.4,1-1.5,1.7-2.6,1.8c-1.1,0.1-2.2-0.5-2.6-1.4c-0.4-0.7-0.4-1-0.4-2.5
						L763.6,74z"/>
					<path class="st10" d="M773.9,72.6c0-2.1,1.2-3.7,3-3.8c1.2-0.1,1.8,0.3,2.9,1.8c1.7-1.7,3.1-2.4,5.3-2.6c1.5-0.1,3,0.1,4.1,0.7
						c0.6,0.3,1,0.6,1.7,1.5c2.4-2.2,4-3,6.3-3.2c4.2-0.3,7.2,2.5,7.3,6.6l0,10.8c0,1.5,0,1.9-0.4,2.6c-0.4,1-1.5,1.7-2.6,1.8
						c-1.1,0.1-2.2-0.5-2.6-1.4c-0.4-0.7-0.4-1-0.4-2.5l0-9.4c0-1.9-1.2-3.1-3.1-3s-3.1,1.5-3.1,3.4l0,9.4c0,1.5,0,1.9-0.4,2.6
						c-0.4,1-1.5,1.7-2.6,1.8c-1.1,0.1-2.2-0.5-2.6-1.4c-0.4-0.7-0.4-1-0.4-2.5l0-8.8c0-2.4-1.2-3.7-3.1-3.5
						c-1.8,0.1-3.1,1.6-3.1,3.4l0,9.4c0,1.5,0,1.9-0.4,2.6c-0.4,1-1.5,1.7-2.6,1.8c-1.1,0.1-2.2-0.5-2.6-1.4c-0.4-0.7-0.4-1-0.4-2.5
						L773.9,72.6z"/>
					<path class="st10" d="M827.6,83.1c0,2.2-1.2,3.7-3,3.9c-1.4,0.1-2.4-0.6-3-2.2c-1.5,2-2.7,2.8-4.9,2.9
						c-2.2,0.2-4.2-0.5-5.9-1.9c-2.4-2-3.6-4.8-3.6-8.5c0-3.4,1-6,3.1-8.4c1.8-2,3.9-3.1,6.3-3.3c2.1-0.2,3.4,0.4,5.1,2
						c0.7-1.7,1.5-2.4,3-2.5c1.7-0.1,3,1.2,3,2.9L827.6,83.1z M813.1,76.9c0,3.2,1.6,5.2,4.2,5.1c2.5-0.2,4.1-2.5,4.1-5.7
						c0-3.1-1.7-5.2-4.2-5C814.7,71.5,813.1,73.8,813.1,76.9z"/>
				</g>
				<g>
					<path class="st5" d="M663.2,79c-0.4-0.7-1.1-1.2-1.9-1.3c-0.2,0-0.5-0.1-0.7,0c-0.2,0-0.5,0.1-0.7,0.1
						c-0.8,0.3-1.6,0.9-1.9,1.6c-0.3,0.5-0.3,0.9-0.4,1.5c0,0.3,0,10.8,0,10.8c0,1-0.3,1.5-0.6,1.9c-0.4,0.4-0.9,0.6-1.4,0.7
						c-0.6,0-1.1-0.2-1.5-0.6c-0.3-0.4-0.6-0.8-0.6-1.7l0-10.1l0,0c0-1.2-0.1-1.6-0.4-2.2c-0.4-0.7-1.1-1.2-1.9-1.3
						c-0.2,0-0.5-0.1-0.7,0c-0.2,0-0.5,0.1-0.7,0.1c-0.8,0.3-1.6,0.9-1.9,1.6c-0.3,0.5-0.3,0.9-0.4,1.5c0,0.2,0,0.8,0,0.8l0,10
						c0,1-0.3,1.5-0.6,1.9c-0.4,0.4-0.9,0.6-1.4,0.7c-0.6,0-1.1-0.2-1.5-0.6c-0.3-0.4-0.6-0.8-0.6-1.7l-0.1-9.7c0-1.5,0-1.8-0.4-2.5
						c-0.4-0.7-1.1-1.2-1.9-1.3c-0.2,0-0.5-0.1-0.7,0c-0.2,0-0.5,0.1-0.7,0.1c-0.8,0.3-1.6,0.9-1.9,1.6c-0.3,0.5-0.3,0.9-0.4,1.5
						c0,0.3,0,11,0,11c0,3,1,4.8,2.7,6c1.5,1.1,3.4,1.6,5.2,1.4c1.6-0.1,2.9-0.5,4-1.3l0.5-0.4c0.3-0.2,0.6-0.4,0.8-0.4
						c0.3,0,0.5,0.1,0.8,0.2l0.6,0.3c1.1,0.6,2.5,0.8,4,0.6c1.9-0.1,3.6-0.9,5.1-2.2c1.7-1.5,2.7-3.4,2.7-6.4l0-9.9
						C663.6,80,663.5,79.7,663.2,79z"/>
					<g>
						<g>
							<path class="st9" d="M650.4,71.6c-6,0.6-11,0.1-11-1c0-0.4,0.7-0.7,1.7-1.2c4.4-2,6.7-2.6,10.8-2.6c2.9,0,6.2-0.2,8.5,1.1
								c0.6,0.2,0.9,0.4,0.9,0.7C661.3,69.6,656.4,71,650.4,71.6z M666.7,68.2c-0.1-2.8-5.1-4.3-16.4-3.3c-10.7,1-16.3,3.5-16.3,6.3
								c0.1,4.3,7.4,5.9,16.5,5C659.5,75.4,666.7,72.5,666.7,68.2z"/>
						</g>
					</g>
				</g>
			</g>
		</g>
		<path class="st6" d="M788.4,805.5c-26.9,0-49,0-58.8-20.8c-18.1,1.5-41.6,1.5-72,1.5c-28.9,0-51.2,0-68.6-1.2
			c-0.8,1.4-1.7,2.8-2.7,4.2c-6.3,8.4-15.4,13.1-25.6,13.3c-4.1,0.1-8.4,0.1-14,0.1c-2.5,0-5.1,0-7.6,0c-2.4,0-4.8,0-7.2,0
			c-7.4,0-14.8,0-22.2,0c-8,0-16,0-24,0H484c-2.6,0-5.1-0.2-7.4-0.7c-1.7,0.5-3.7,0.8-5.9,0.8l-0.6,0c-17.4,0-34.8,0-52.2,0l-20.4,0
			c-0.7,0-1.5,0-2.2,0c-9.7-0.3-16.7-7.3-17.2-17c0-0.5,0-0.9,0-1.3l0-86.9c0-4.6,1.2-8.4,3.6-11.5c0-0.3,0-0.6,0-0.8
			c0-2.8,0-5.7,0-8.5c0-7.5,3.8-13.2,9.8-15.9c0-1.7,0-7.6,0-7.6h-6.7v-9.9h-6.6v-10h0v-23c-0.1-0.7-0.1-1.5-0.1-2.3c0-1,0-2,0-3
			l0-1.6v-12.8l6.7-0.5v-10.8h6.7v-6.5h34v6.5h6.6v10.2h6.7l0,47.3c2.6-1.8,5.3-3.5,7.9-5.3l3.4-2.2c3.7-2.5,7.7-3.7,11.8-3.7
			c3.9,0,7.8,1.2,11.3,3.6c3.7,2.5,8.3,7.4,9,16.2c0.1,1.1,0.1,2,0.1,2.7l0,10c11-7.6,23.9-11.6,38.3-12c0.1-13,0.6-23.9,2-33.1
			c-1.2-3.4-2-6.4-2.4-8.6c-0.9-4.1-1.5-8.1-0.1-12c1.6-6.2,6.1-14.5,18.1-22c14.3-8.9,36.6-14.7,66.3-17.2
			c7.3-25.4,29.1-72.1,90.9-72.1h0.1c39.3,0,69.3,19.8,85.1,55.8c4.5,2.6,8.6,7.4,10.8,16c1.2,1.5,2.2,3,3.1,4.4
			c21.2,2.3,34.5,14.7,34.5,32.8c0,18-9.8,29.3-22.7,34.7c0.2,0,0.3,0,0.5,0c19.5,0,28.1,0.2,34.7,2.6c13.2,4.8,13.7,16.9,14,22.7
			c0.1,1.6-0.1,3-0.5,4.3c1,5.7,1,12.2,1,20.7c0,1.6,0,3.1,0,4.5l0,3.7c0,9.4,0,18.1,0,25.9c0.2,51.4,0.2,72.6-12.6,85.5
			c-10.8,10.8-26.3,10.8-46,10.8C797,805.5,788.4,805.5,788.4,805.5z M425.6,679.5 M425.6,660.7c0.9,0.4,1.8,0.9,2.6,1.5
			c0-2.4,0-4.7,0-7.1c0-0.7,0-1.3,0.1-2h-2.7V660.7z"/>
		<g>
			<ellipse class="st6" cx="657.5" cy="672.6" rx="123.3" ry="96.4"/>
			<path class="st5" d="M657.5,772.4c-62.4,0-93.7,0-110-12.1c-16.8-12.4-16.8-35.9-16.8-82.6l0-5.1l0-5.1c0-46.7,0-70.2,16.8-82.6
				c16.3-12.1,47.6-12.1,110-12.1c62.4,0,93.7,0,110,12.8c16.7,13.1,16.7,37.8,16.7,87s0,74-16.7,87
				C751.2,772.4,719.9,772.4,657.5,772.4z M657.5,579.7c-60.9,0-91.4,0-105.9,10.7c-14,10.4-14,32.7-14,77.1l0,5.1l0,5.1
				c0,44.4,0,66.7,14,77.1c14.5,10.7,45.1,10.7,105.9,10.7c60.8,0,91.3,0,105.8-11.3c14.1-11,14.1-34.6,14.1-81.6
				c0-47,0-70.6-14.1-81.6C748.8,579.7,718.3,579.7,657.5,579.7z"/>
		</g>
		<g>
			<path class="st10" d="M757.9,636.6c0,16.7-14.9,16.7-36.2,16.7c-21.7,0-21.3,0-21.3-16.7c0-16.7-0.4-16.7,21.3-16.7
				C743,619.9,757.9,619.9,757.9,636.6z"/>
		</g>
		<g>
			<path class="st10" d="M757.9,708.9c0,16.7-14.9,16.7-36.2,16.7c-21.7,0-21.3,0-21.3-16.7c0-16.7-0.4-16.7,21.3-16.7
				C743,692.2,757.9,692.2,757.9,708.9z"/>
		</g>
		<g>
			<path class="st10" d="M759,675.6c0,6.2-14.3,8.5-35.6,8.5c-21.7,0-22,2.3-22-8.5c0-14.5,0.3-11,22-11
				C744.8,664.6,759,658.9,759,675.6z"/>
		</g>
		<g>
			<defs>
				<ellipse id="SVGID_00000008867424550285742370000004946209788119441030_" cx="657.5" cy="676.1" rx="123.3" ry="96.4"/>
			</defs>
			<clipPath id="SVGID_00000093138173415376411320000000307708966482030005_">
				<use xlink:href="#SVGID_00000008867424550285742370000004946209788119441030_"  style="overflow:visible;"/>
			</clipPath>
			<g style="clip-path:url(#SVGID_00000093138173415376411320000000307708966482030005_);">
				<path class="st9" d="M630.5,653.1c-95.3,0-97.6-54.2-97.6-56.3c0-90.1,0.5-28.1,123.3-28.1c120.6,0,123.3-62,123.3,28.1
					C779.7,598.9,702.8,653.1,630.5,653.1z"/>
				<path class="st5" d="M630.5,656.6c-99.8,0-101-59.1-101-59.7c0-33.3,0-45.8,6.6-50.5c5.1-3.7,12.2-1.2,23.9,2.8
					c17.5,6,46.9,16.2,96.3,16.2c48.1,0,77.4-10,94.9-16c12.1-4.2,19.5-6.7,24.8-2.9c6.7,4.8,7,16.7,7.1,50.4c0,1.6,0,3.1-14.7,12.6
					c-7.3,4.7-19.2,11.9-34.7,19.5C707.9,641.5,669,656.6,630.5,656.6z M542.3,551.4c-0.9,0-1.7,0.2-2.2,0.5
					c-3.8,2.7-3.7,18.6-3.7,44.9c0,0.5,1.3,52.9,94.1,52.9c67,0,137.5-47.3,145.7-54.2c0-22.8-0.1-40.6-4.2-43.5
					c-2.5-1.8-9.2,0.6-18.6,3.8c-17.9,6.1-47.8,16.4-97.1,16.4c-50.6,0-80.6-10.4-98.5-16.5C551.1,553.3,545.5,551.4,542.3,551.4z"
					/>
			</g>
		</g>
		<g>
			<circle class="st5" cx="671.5" cy="608.8" r="8.4"/>
		</g>
		<g>
			<circle class="st5" cx="641" cy="608.8" r="8.4"/>
		</g>
		<g>
			<circle class="st5" cx="610.5" cy="608.8" r="8.4"/>
		</g>
		<g>
			<polygon class="st5" points="590.6,602.2 583.9,595.5 577.3,602.2 570.6,595.5 564,602.2 570.6,608.8 564,615.5 570.6,622.1 
				577.3,615.5 583.9,622.1 590.6,615.5 583.9,608.8 			"/>
		</g>
		<g>
			<circle class="st20" cx="656" cy="678.1" r="13.5"/>
		</g>
		<g>
			<circle class="st5" cx="656" cy="678.1" r="9.3"/>
		</g>
		<g>
			<circle class="st20" cx="605" cy="678.1" r="13.5"/>
		</g>
		<g>
			<circle class="st5" cx="605" cy="678.1" r="9.3"/>
		</g>
		<g>
			<path class="st8" d="M628.5,723.7c-29,0-35.5-11.8-36.1-13.1c-0.8-1.7-0.1-3.8,1.6-4.6c1.7-0.8,3.7-0.1,4.6,1.5
				c0.2,0.3,5.6,9.3,29.9,9.3c25.3,0,33.5-9.8,33.6-9.9c1.2-1.5,3.3-1.7,4.8-0.6c1.5,1.2,1.8,3.3,0.6,4.8
				C667.1,711.7,657.5,723.7,628.5,723.7z"/>
		</g>
		<g>
			<g>
				<path class="st5" d="M553.6,762.5c0.6,0,1.1,0.1,1.7,0.1c7.2,0,14.3,0,21.5,0c0.6,0,1.2,0,1.8,0.1c1.8,0.3,3,1.8,2.5,3.5
					c-1.6,5-2.6,10.3-5.9,14.7c-3.7,4.9-8.7,7.7-14.9,7.9c-9.5,0.2-19,0.1-28.5,0.1c-15.9,0-31.9,0-47.8,0c-3.2,0-6.3-0.6-9.3-2.3
					c-0.7,2.4-2.7,2.3-4.6,2.3c-23.9,0-47.9,0-71.8,0c-0.8,0-1.7,0-2.5,0c-2.4-0.1-3.7-1.4-3.9-3.8c0-0.3,0-0.6,0-0.8
					c0-28.9,0-57.9,0-86.8c0-2.6,0.7-3.6,3.2-4.6c0.2-0.1,0.5-0.6,0.5-0.9c0-5.1-0.1-10.2-0.1-15.4c0-2.6,1-3.6,3.7-3.7
					c1.7-0.1,3.3-0.1,5,0c1,0.1,1.2-0.1,1.2-1.1c0-7.2,0-14.3,0-21.5c0-3.3,0-6.5,0-9.8c0-0.4-0.1-0.8-0.1-1.2c-2.2,0-4.4,0-6.6,0
					c0-2.1,0-4.1,0-6.4c2.2,0,4.4,0,6.7,0c0-1.2,0-2.3,0-3.5c-4.4,0-8.8,0-13.3,0c0-2.1,0-4.1,0-6.4c1.2,0,2.3,0,3.5,0c3,0,6,0,9,0
					c0.3,0,0.8-0.4,0.8-0.6c0.1-0.9,0-1.9,0-2.9c-4.5,0-8.9,0-13.3,0c0-2.1,0-4.2,0-6.3c0.6,0,1.1-0.1,1.6-0.1c3.5,0,7,0,10.5,0
					c1,0,1.3-0.3,1.3-1.3c-0.1-0.7,0-1.5,0-2.3c-0.4,0-0.7-0.1-1-0.1c-3.8,0-7.6,0-11.5,0.1c-0.8,0-1.1-0.3-1.1-1.1
					c0.1-1.6,0-3.3,0-5.1c0.5,0,1-0.1,1.5-0.1c3.7,0,7.4,0,11.1-0.1c0.3,0,0.8-0.4,0.8-0.6c0.1-0.9,0-1.9,0-2.9c-2.3,0-4.5,0-6.8,0
					c0-2.2,0-4.4,0-6.6c2.2,0,4.4,0,6.7,0c0-2.2,0-4.3,0-6.5c2.1,0,4.2,0,6.4,0c0,2.1,0,4.2,0,6.5c2.3,0,4.4,0,6.6,0
					c0,2.2,0,4.4,0,6.6c-2.1,0-4.3,0-6.5,0c0,1.2,0,2.4,0,3.6c4.4,0,8.7,0,13.2,0c0,2.2,0,4.2,0,6.3c-4.4,0-8.7,0-13.1,0
					c0,1.1,0,2.3,0,3.5c4.3,0,8.7,0,13.1,0c0,2.2,0,4.2,0,6.4c-4.4,0-8.7,0-13.2,0c0,1.2,0,2.4,0,3.6c4.4,0,8.7,0,13.2,0
					c0,2.2,0,4.3,0,6.4c-4.4,0-8.7,0-13.1,0c0,1.2,0,2.3,0,3.6c2.1,0,4.3,0,6.5,0c0,2.1,0,4.2,0,6.3c-2.2,0-4.3,0-6.5,0
					c0,11.2,0,22.3,0,33.6c1.2,0,2.4,0,3.6,0c1,0,2.1-0.1,3.1,0c2.2,0.2,3.2,1.3,3.2,3.4c0,5.2,0,10.3-0.1,15.5
					c0,0.6,0.1,0.9,0.7,1.1c1.9,0.5,2.7,1.5,2.7,3.5c0,6,0,12.1,0,18.1c0,2.7,0,5.4,0,8.1c0.3,0,0.6,0.1,0.9,0.1c2.8,0,5.6,0,8.4,0
					c0.8,0,1.1-0.3,1.1-1.1c0-2.9,0-5.8-0.1-8.6c-0.1-1.8,0.8-2.9,2.3-3.4c0.9-0.3,1.1-0.8,1-1.6c0-4.7,0-9.5,0-14.2
					c0-3.1,0.4-3.5,3.3-4.6c0-0.4,0-0.9,0-1.4c0-10.9,0-21.9,0-32.8c0-2.6,1-4.6,3.1-6c4.2-2.8,8.4-5.6,12.6-8.4
					c2.5-1.7,5.1-2.1,7.7-0.3c2.1,1.4,2.9,3.6,3.1,6c0.1,0.6,0,1.3,0,1.9c0,12.4,0,24.8,0,37.2c0,0.4,0,0.9,0,1.3
					c0,2.6,0.2,2.9,2.5,3.9c12.6-21.9,31.2-32.4,56.5-30.8c22.8,3.2,38.7,15.5,47,37c4.6,11.9,4.7,24.2,0.7,36.3
					c-4,12.1-11.2,21.8-21.7,29.1C553.5,762.4,553.6,762.4,553.6,762.5z M521.6,762.5C521.6,762.5,521.6,762.5,521.6,762.5
					c5.6,0,11.2,0,16.8,0c0.7,0,1.3-0.1,1.9-0.4c8.6-3.4,15.7-8.8,21.2-16.2c8.8-12,11.8-25.4,8.9-40c-2.7-13.6-10.1-24.2-21.6-31.8
					c-9.9-6.6-20.9-9-32.7-7.7c-10.7,1.2-20,5.4-27.9,12.5c-6.5,5.8-11,13-13.8,21.2c-0.8,2.5-1.4,5.2-2,7.8
					c-0.1,0.6-0.4,1.4,0.5,1.7c1.9,0.7,2.2,2.3,2.2,4c0,6.3,0,12.5,0,18.8c0,1,0.2,2.1,0.6,3.1c5.3,12.1,13.9,20.9,26.1,26.2
					c1.3,0.6,2.8,0.8,4.2,0.8C511.2,762.6,516.4,762.5,521.6,762.5z M418.5,722.6c0-0.2,0.1-0.2,0.1-0.3c0-7.3,0-14.6,0-22
					c0-0.9-0.4-1.1-1.2-1.1c-5.3,0-10.6,0-15.9,0c-0.9,0-1.9,0-2.8,0c0,27.8,0,55.4,0,83.1c5.6,0,11,0,16.7,0c0-1.6,0-3.2,0-4.8
					c0-16.9,0-33.9,0-50.8C415.3,723.9,415.7,723.3,418.5,722.6z M421.7,782.4c9,0,17.9,0,26.8,0c0-17.8,0-35.5,0-53.2
					c-9,0-17.8,0-26.8,0C421.7,746.9,421.7,764.6,421.7,782.4z M475.1,769c0,2.4,0,4.8,0,7.1c0,3.6,0.3,4.1,3.8,5.3
					c0.5,0.2,1,0.4,1.5,0.4c2.8,0.2,5.6,0.5,8.5,0.6c23.1,0.1,46.2,0.1,69.2,0.1c1.6,0,3.2-0.1,4.7-0.5c5.6-1.3,10.3-7,10.7-12.6
					c0-0.1-0.1-0.2-0.1-0.4C540.6,769,507.9,769,475.1,769z M468.3,715.8c-8.7,0-17.2,0-25.7,0c-0.7,0-0.9,0.3-0.9,0.9
					c0,1.4,0,2.8,0,4.3c0,1.6,0,1.6,1.6,1.6c2.9,0,5.8,0,8.7,0.2c1.9,0.1,2.8,1.2,2.9,3.1c0,0.4,0,0.8,0,1.2c0,14.5,0,29,0,43.5
					c0,3.6,0,7.2,0,10.7c0,0.9,0.2,1.3,1.2,1.2c1.6-0.1,3.2,0,4.8,0c2.4,0,4.8,0,7.3,0C468.3,760.2,468.3,738.1,468.3,715.8z
					 M465.2,696c-6.8,0-13.5,0-20.3,0c0,0.7,0,1.3,0,2c0,3.4,0.1,6.8,0.1,10.3c0,0.9,0.2,1.1,1.1,1.1c5.9,0,11.8,0,17.7,0
					c0.5,0,0.9,0,1.5-0.1C465.2,704.8,465.2,700.4,465.2,696z M401.8,692.8c4.3,0,8.6,0,12.9,0c0.2,0,0.6-0.5,0.6-0.8c0-4,0-8,0-12
					c0-0.3-0.4-0.7-0.7-0.7c-4.1,0-8.2,0-12.3,0c-0.1,0-0.3,0.1-0.5,0.1C401.8,683.8,401.8,688.2,401.8,692.8z M489.4,762.6
					c0.1-0.1,0.1-0.2,0.2-0.3c-5.6-4-10.4-8.7-14.4-14.6c0,5.2,0,10,0,14.9C479.9,762.6,484.7,762.6,489.4,762.6z"/>
			</g>
			<g>
				<path class="st20" d="M521.6,762.5c-5.2,0-10.4,0.1-15.6,0c-1.4,0-2.9-0.3-4.2-0.8c-12.2-5.2-20.8-14.1-26.1-26.2
					c-0.4-0.9-0.6-2-0.6-3.1c-0.1-6.3,0-12.5,0-18.8c0-1.7-0.4-3.3-2.2-4c-0.9-0.3-0.6-1.1-0.5-1.7c0.6-2.6,1.1-5.2,2-7.8
					c2.8-8.3,7.3-15.4,13.8-21.2c8-7.1,17.3-11.3,27.9-12.5c11.8-1.3,22.8,1.1,32.7,7.7c11.5,7.6,18.9,18.2,21.6,31.8
					c2.9,14.6,0,28-8.9,40c-5.5,7.4-12.6,12.8-21.2,16.2c-0.6,0.2-1.3,0.4-1.9,0.4C532.8,762.5,527.2,762.5,521.6,762.5
					C521.6,762.5,521.6,762.5,521.6,762.5z M521.8,672.8c-24.1,0-43.5,19.3-43.4,43.5c0.1,23.8,19.2,42.4,42.6,42.7
					c24.2,0.3,43.5-19.3,43.6-42.8C564.7,692.3,545.7,673.1,521.8,672.8z"/>
			</g>
			<g>
				<path class="st20" d="M418.5,722.6c-2.8,0.8-3.2,1.4-3.2,4.3c0,16.9,0,33.9,0,50.8c0,1.6,0,3.1,0,4.8c-5.6,0-11.1,0-16.7,0
					c0-27.7,0-55.4,0-83.1c1,0,1.9,0,2.8,0c5.3,0,10.6,0,15.9,0c0.8,0,1.2,0.1,1.2,1.1c0,7.3,0,14.6,0,22
					C418.6,722.3,418.6,722.4,418.5,722.6z"/>
			</g>
			<g>
				<path class="st20" d="M421.7,782.4c0-17.8,0-35.5,0-53.2c8.9,0,17.8,0,26.8,0c0,17.7,0,35.4,0,53.2
					C439.6,782.4,430.7,782.4,421.7,782.4z"/>
			</g>
			<g>
				<path class="st20" d="M475.1,769c32.8,0,65.5,0,98.1,0c0.1,0.2,0.1,0.3,0.1,0.4c-0.4,5.7-5.1,11.3-10.7,12.6
					c-1.5,0.4-3.1,0.5-4.7,0.5c-23.1,0-46.2,0-69.2-0.1c-2.8,0-5.6-0.3-8.5-0.6c-0.5,0-1-0.3-1.5-0.4c-3.4-1.3-3.8-1.7-3.8-5.3
					C475.1,773.8,475.1,771.4,475.1,769z"/>
			</g>
			<g>
				<path class="st20" d="M468.3,715.8c0,22.3,0,44.4,0,66.6c-2.5,0-4.9,0-7.3,0c-1.6,0-3.2-0.1-4.8,0c-1,0.1-1.2-0.3-1.2-1.2
					c0-3.6,0-7.2,0-10.7c0-14.5,0-29,0-43.5c0-0.4,0-0.8,0-1.2c-0.1-1.9-1.1-3-2.9-3.1c-2.9-0.1-5.8-0.1-8.7-0.2
					c-1.6,0-1.6,0-1.6-1.6c0-1.4,0-2.8,0-4.3c0-0.6,0.2-0.9,0.9-0.9C451.1,715.8,459.7,715.8,468.3,715.8z"/>
			</g>
			<g>
				<path class="st20" d="M465.2,696c0,4.4,0,8.7,0,13.2c-0.5,0-1,0.1-1.5,0.1c-5.9,0-11.8,0-17.7,0c-0.8,0-1.1-0.2-1.1-1.1
					c0-3.4-0.1-6.8-0.1-10.3c0-0.6,0-1.2,0-2C451.7,696,458.4,696,465.2,696z"/>
			</g>
			<g>
				<path class="st20" d="M401.8,692.8c0-4.6,0-9,0-13.5c0.2-0.1,0.3-0.1,0.5-0.1c4.1,0,8.2,0,12.3,0c0.2,0,0.7,0.5,0.7,0.7
					c0,4,0.1,8,0,12c0,0.3-0.4,0.8-0.6,0.8C410.4,692.8,406.2,692.8,401.8,692.8z"/>
			</g>
			<g>
				<path class="st20" d="M489.4,762.6c-4.7,0-9.5,0-14.3,0c0-4.9,0-9.7,0-14.9c4,5.8,8.8,10.6,14.4,14.6
					C489.5,762.3,489.4,762.5,489.4,762.6z"/>
			</g>
			<g>
				<path class="st5" d="M521.8,672.8c23.9,0.3,42.9,19.5,42.8,43.4c-0.1,23.6-19.4,43.1-43.6,42.8c-23.4-0.3-42.5-18.9-42.6-42.7
					C478.3,692.2,497.7,672.9,521.8,672.8z M523.9,717.9c-1.2-1.2-2.4-2.4-3.7-3.5c-0.8-0.7-0.6-1.1,0-1.8c8-8,16.1-16,24.1-24
					c0.6-0.6,0.7-1-0.1-1.5c-1.5-1-3.1-2.1-4.6-3.1c-0.8-0.6-1.4-0.4-2.1,0.3c-11.2,11.3-22.4,22.6-33.7,33.8
					c-4.4,4.4-8.8,8.7-13.2,13.1c-2.1,2.1-2,1.6-0.4,4.1c2,3.2,4.5,6.1,7.4,8.5c14,12,34.8,11.6,48.5-0.7
					c13.9-12.6,16-33.8,4.9-48.9c-0.5-0.6-1-1.2-1.5-1.8C541,701,532.5,709.4,523.9,717.9z M531.8,680.7
					c-13.8-3.7-28.4-0.6-39.2,12.7c-5.1,6.2-7.3,13.5-7.7,21.4c-0.2,3.9,0.6,7.8,1.4,11.5C501.5,711,516.7,695.9,531.8,680.7z"/>
			</g>
			<g>
				<path class="st6" d="M523.9,717.9c8.5-8.5,17.1-16.9,25.7-25.5c0.5,0.6,1,1.2,1.5,1.8c11.1,15.1,9,36.2-4.9,48.9
					c-13.6,12.4-34.4,12.7-48.5,0.7c-2.9-2.5-5.4-5.3-7.4-8.5c-1.5-2.5-1.7-2,0.4-4.1c4.4-4.4,8.8-8.7,13.2-13.1
					c11.2-11.3,22.5-22.5,33.7-33.8c0.7-0.7,1.3-0.9,2.1-0.3c1.5,1.1,3,2.1,4.6,3.1c0.7,0.5,0.7,0.9,0.1,1.5c-8,8-16,16-24.1,24
					c-0.7,0.7-0.8,1.1,0,1.8C521.5,715.5,522.7,716.7,523.9,717.9z M509.6,723.5c1.4,1.5,2.8,3,4,4.4c2.2-2.2,4.4-4.4,6.2-6.3
					c-1.3-1.4-2.7-2.9-4.1-4.5C513.7,719.3,511.6,721.4,509.6,723.5z"/>
			</g>
			<g>
				<path class="st6" d="M531.8,680.7c-15.2,15.2-30.3,30.3-45.5,45.6c-0.8-3.7-1.7-7.6-1.4-11.5c0.4-7.9,2.7-15.2,7.7-21.4
					C503.4,680.1,518.1,677,531.8,680.7z"/>
			</g>
			<g>
				<path class="st5" d="M509.6,723.5c2-2.1,4.1-4.2,6.2-6.3c1.4,1.6,2.8,3.1,4.1,4.5c-1.9,1.9-4,4-6.2,6.3
					C512.4,726.6,511,725,509.6,723.5z"/>
			</g>
		</g>
		
			<ellipse transform="matrix(5.410947e-02 -0.9985 0.9985 5.410947e-02 -118.0265 1300.9532)" class="st8" cx="627.7" cy="712.8" rx="11.5" ry="20.6"/>
		
			<ellipse transform="matrix(5.410947e-02 -0.9985 0.9985 5.410947e-02 -131.7141 1311.7455)" class="st8" cx="626.5" cy="725.4" rx="11.5" ry="20.6"/>
		<g>
			<path class="st76" d="M614,574.1c0,0,6.3-79.4,81.2-79.3s81.2,79.3,81.2,79.3H614z"/>
			<path class="st5" d="M780.7,578.1h-171l0.3-4.3c0.1-0.8,1.8-20.9,13-41.3c10.5-19,31.5-41.7,72.1-41.7c0,0,0.1,0,0.1,0
				c40.6,0,61.7,22.7,72.2,41.8c11.2,20.3,12.9,40.4,13,41.2L780.7,578.1z M618.6,570.1h153.2c-1.1-6.8-4.1-20.4-11.6-33.9
				c-13.8-24.8-35.6-37.4-65-37.4c0,0-0.1,0-0.1,0c-29.4,0-51.3,12.6-65,37.6C622.6,549.8,619.7,563.4,618.6,570.1z"/>
		</g>
		<g>
			<path class="st5" d="M640.4,571.8l-8-0.7c0-0.6,5.4-57.9,60.8-57.9c0,0,0.1,0,0.1,0c55.5,0.1,60.9,57.3,60.9,57.9l-8,0.7
				c-0.2-2.1-4.8-50.4-52.9-50.5c0,0,0,0-0.1,0C645.2,521.3,640.6,569.7,640.4,571.8z"/>
		</g>
		<g>
			<path class="st5" d="M665.6,571.2l-8-0.8c1-10.9,10.2-31.5,37.6-31.5c0,0,0,0,0,0c27.4,0,36.6,20.6,37.6,31.5l-8,0.7
				c-0.1-1-2.8-24.2-29.6-24.2c0,0,0,0,0,0C668.2,547,665.7,570.2,665.6,571.2z"/>
		</g>
		<g>
			<path class="st76" d="M727.2,570.6c0,0,9.3-19.4,28-19.4c26.1,0,29.8,19.4,29.8,19.4s29.8-1.8,29.8,19.4
				c0,26.5-29.8,24.7-29.8,24.7h-65.9c0,0-25.5,1.8-25.5-24.7C693.6,567,727.2,570.6,727.2,570.6z"/>
			<path class="st5" d="M786.2,618.7c-0.6,0-1,0-1.3,0h-65.7c-1.6,0.1-13.2,0.4-21.4-7.4c-5.4-5-8.2-12.2-8.2-21.4
				c0-6.5,2.3-11.8,6.7-15.8c8.5-7.6,22.7-8,28.6-7.8c3.4-5.7,13.3-19.3,30.3-19.3c15,0,23.4,6,27.8,11.1c2.6,3,4.2,6.1,5,8.3
				c5.6,0.1,17.3,1.3,24.6,8.2c4.2,3.9,6.3,9.1,6.3,15.3c0,8.4-2.7,15.2-8,20.2C802.6,618,790.4,618.7,786.2,618.7z M719.1,610.7
				l66.2,0c0.1,0,12.8,0.6,20.2-6.4c3.6-3.4,5.4-8.1,5.4-14.3c0-3.9-1.2-7-3.8-9.4c-7.1-6.7-21.7-6-21.8-6l-3.5,0.2l-0.7-3.4
				c-0.1-0.6-3.6-16.1-25.9-16.1c-15.9,0-24.3,17-24.4,17.1l-1.2,2.5l-2.8-0.3c-0.3,0-17.1-1.6-25.1,5.6c-2.7,2.5-4,5.7-4,9.8
				c0,6.8,1.9,12,5.6,15.4c6.1,5.8,15.5,5.2,15.6,5.2L719.1,610.7z"/>
		</g>
		<path class="st6" d="M841.9,683.2c-0.2,111.5,5.3,108.5-53.5,108.5c-59.2,0-49.4-3.9-52.7-108.5c-1.3-41.4-1-41.5,53.1-41.5
			C841.9,641.7,841.9,641.7,841.9,683.2z"/>
		<path class="st5" d="M796.8,795.1c-1.3,0-2.6,0-4,0l-4.4,0c-25.1,0-39.7-0.5-47.3-11.2c-7.1-9.9-7.4-27.2-7.9-61.6
			c-0.2-11.3-0.4-24.1-0.8-39.1c-0.6-20-1-31,5.5-37.6c7.2-7.4,20.9-7.4,51-7.4c29.4,0,42.8,0,50.1,7.2c6.5,6.5,6.5,17.6,6.5,37.7
			l0,0c0,9.4,0,18.1,0,25.9c0.1,48.4,0.2,68.4-9.6,78.2C828.4,794.7,816.9,795.1,796.8,795.1z M788.8,645.1c-27.3,0-41,0-46.1,5.3
			c-4.4,4.5-4.1,15.1-3.5,32.6c0.5,15,0.7,27.9,0.8,39.2c0.5,31.9,0.8,49.5,6.6,57.7c5.4,7.5,16.9,8.3,41.7,8.3l4.4,0
			c20.8,0,32.2,0,38-5.8c7.8-7.8,7.8-28.4,7.6-73.4c0-7.9-0.1-16.5,0-26l3.4,0l-3.4,0c0-18.3,0-28.3-4.4-32.8
			C828.8,645.1,815.4,645.1,788.8,645.1z"/>
		<path class="st10" d="M832,667.7c0,7.2-6.4,7.2-15.6,7.2c-9.3,0-9.2,0-9.2-7.2s-0.2-7.2,9.2-7.2C825.6,660.5,832,660.5,832,667.7z
			"/>
		<path class="st10" d="M832,698.8c0,7.2-6.4,7.2-15.6,7.2c-9.3,0-9.2,0-9.2-7.2s-0.2-7.2,9.2-7.2C825.6,691.6,832,691.6,832,698.8z
			"/>
		<path class="st10" d="M832.5,684.4c0,2.7-6.1,3.7-15.3,3.7c-9.3,0-9.5,1-9.5-3.7c0-6.2,0.1-4.7,9.5-4.7
			C826.4,679.7,832.5,677.3,832.5,684.4z"/>
		<g>
			<defs>
				<ellipse id="SVGID_00000116214980201085271430000007619602776290267314_" cx="788.8" cy="675" rx="53.1" ry="31.8"/>
			</defs>
			<clipPath id="SVGID_00000005988773669891699910000007068693167410557061_">
				<use xlink:href="#SVGID_00000116214980201085271430000007619602776290267314_"  style="overflow:visible;"/>
			</clipPath>
			<path style="clip-path:url(#SVGID_00000005988773669891699910000007068693167410557061_);fill:#FCCF72;" d="M777.2,674.8
				c-41,0-42-23.3-42-24.2c0-38.7,0.2-12.1,53.1-12.1c51.9,0,53-26.7,53.1,12.1C841.4,651.4,808.3,674.8,777.2,674.8z"/>
			<path style="clip-path:url(#SVGID_00000005988773669891699910000007068693167410557061_);fill:#1A2276;" d="M777.2,678.2
				c-44.9,0-45.4-27.4-45.4-27.7c0-15.5,0-20.7,3.7-23.3c3-2.2,6.6-0.9,12.1,1c7.4,2.6,19.9,6.8,40.8,6.8c20.4,0,32.8-4.3,40.2-6.8
				c5.6-1.9,9.3-3.2,12.5-1c3.9,2.7,3.9,8.8,3.9,23.3c0,1.7-0.3,2.6-7.2,7.1c-3.2,2.1-8.4,5.2-15.1,8.5
				C811.1,671.6,794.1,678.2,777.2,678.2z M739.5,633c-0.8,2-0.8,9.2-0.8,17.6c0,0.8,0.9,20.8,38.5,20.8c26.7,0,55.2-18.2,60.7-22.3
				c0-6.7-0.1-14.2-1-16.1c-1.1,0-3.8,0.9-6.2,1.8c-7.8,2.7-20.9,7.2-42.4,7.2c-22.1,0-35.2-4.5-43-7.2
				C743,633.9,740.6,633,739.5,633z"/>
		</g>
		<circle class="st5" cx="794.8" cy="655.7" r="3.6"/>
		<circle class="st5" cx="781.7" cy="655.7" r="3.6"/>
		<circle class="st5" cx="768.6" cy="655.7" r="3.6"/>
		<polygon class="st5" points="760,652.9 757.2,650 754.3,652.9 751.4,650 748.6,652.9 751.4,655.7 748.6,658.6 751.4,661.4 
			754.3,658.6 757.2,661.4 760,658.6 757.2,655.7 		"/>
		<circle class="st20" cx="788.2" cy="685.5" r="5.8"/>
		<circle class="st5" cx="788.2" cy="685.5" r="4"/>
		<circle class="st20" cx="766.2" cy="685.5" r="5.8"/>
		<circle class="st5" cx="766.2" cy="685.5" r="4"/>
		<path class="st8" d="M776.3,707.1c-13.4,0-16.8-5.6-17.3-6.8l6.2-3c0,0,0-0.1-0.1-0.2c0,0,2.1,3,11.2,3c9.6,0,12.8-3.4,12.9-3.5
			c1.2-1.5,3.3-1.8,4.8-0.6c1.5,1.2,1.8,3.3,0.6,4.8C794.2,701.6,789.5,707.1,776.3,707.1z"/>
		
			<ellipse transform="matrix(5.410947e-02 -0.9985 0.9985 5.410947e-02 36.603 1438.2458)" class="st8" cx="777.4" cy="699.8" rx="4.9" ry="8.9"/>
		
			<ellipse transform="matrix(5.410947e-02 -0.9985 0.9985 5.410947e-02 30.7145 1442.8888)" class="st8" cx="777" cy="705.2" rx="4.9" ry="8.9"/>
		<g class="st78">
			<defs>
				<path id="SVGID_00000065068986544077165270000009481341568766860190_" class="st78" d="M788.4,805.5c-26.9,0-49,0-58.8-20.8
					c-18.1,1.5-41.6,1.5-72,1.5c-28.9,0-51.2,0-68.6-1.2c-0.8,1.4-1.7,2.8-2.7,4.2c-6.3,8.4-15.4,13.1-25.6,13.3
					c-4.1,0.1-8.4,0.1-14,0.1c-2.5,0-5.1,0-7.6,0c-2.4,0-4.8,0-7.2,0c-7.4,0-14.8,0-22.2,0c-8,0-16,0-24,0H484
					c-2.6,0-5.1-0.2-7.4-0.7c-1.7,0.5-3.7,0.8-5.9,0.8l-0.6,0c-17.4,0-34.8,0-52.2,0l-20.4,0c-0.7,0-1.5,0-2.2,0
					c-9.7-0.3-16.7-7.3-17.2-17c0-0.5,0-0.9,0-1.3l0-86.9c0-4.6,1.2-8.4,3.6-11.5c0-0.3,0-0.6,0-0.8c0-2.8,0-5.7,0-8.5
					c0-7.5,3.8-13.2,9.8-15.9c0-1.7,0-7.6,0-7.6h-6.7v-9.9h-6.6v-10h0v-23c-0.1-0.7-0.1-1.5-0.1-2.3c0-1,0-2,0-3l0-1.6v-12.8
					l6.7-0.5v-10.8h6.7v-6.5h34v6.5h6.6v10.2h6.7l0,47.3c2.6-1.8,5.3-3.5,7.9-5.3l3.4-2.2c3.7-2.5,7.7-3.7,11.8-3.7
					c3.9,0,7.8,1.2,11.3,3.6c3.7,2.5,8.3,7.4,9,16.2c0.1,1.1,0.1,2,0.1,2.7l0,10c11-7.6,23.9-11.6,38.3-12c0.1-13,0.6-23.9,2-33.1
					c-1.2-3.4-2-6.4-2.4-8.6c-0.9-4.1-1.5-8.1-0.1-12c1.6-6.2,6.1-14.5,18.1-22c14.3-8.9,36.6-14.7,66.3-17.2
					c7.3-25.4,29.1-72.1,90.9-72.1h0.1c39.3,0,69.3,19.8,85.1,55.8c4.5,2.6,8.6,7.4,10.8,16c1.2,1.5,2.2,3,3.1,4.4
					c21.2,2.3,34.5,14.7,34.5,32.8c0,18-9.8,29.3-22.7,34.7c0.2,0,0.3,0,0.5,0c19.5,0,28.1,0.2,34.7,2.6c13.2,4.8,13.7,16.9,14,22.7
					c0.1,1.6-0.1,3-0.5,4.3c1,5.7,1,12.2,1,20.7c0,1.6,0,3.1,0,4.5l0,3.7c0,9.4,0,18.1,0,25.9c0.2,51.4,0.2,72.6-12.6,85.5
					c-10.8,10.8-26.3,10.8-46,10.8C797,805.5,788.4,805.5,788.4,805.5z M425.6,679.5 M425.6,660.7c0.9,0.4,1.8,0.9,2.6,1.5
					c0-2.4,0-4.7,0-7.1c0-0.7,0-1.3,0.1-2h-2.7V660.7z"/>
			</defs>
			<clipPath id="SVGID_00000162321848888200345940000010780723936637512091_">
				<use xlink:href="#SVGID_00000065068986544077165270000009481341568766860190_"  style="overflow:visible;"/>
			</clipPath>
		</g>
		<rect x="91.5" y="515.3" class="st49" width="300" height="368.3"/>
		<text transform="matrix(1 0 0 1 91.5194 538.356)"><tspan x="0" y="0" class="st89 st97">Aplica un diseño responsive</tspan><tspan x="295.5" y="0" class="st98 st97"> </tspan><tspan x="0" y="33.6" class="st98 st97">¿Quien tiene ordenador? Al</tspan><tspan x="282" y="33.6" class="st98 st97">-</tspan><tspan x="0" y="67.2" class="st98 st97">gunas personas. ¿Quién </tspan><tspan x="0" y="100.8" class="st98 st97">tiene móvil? Casi todo el </tspan><tspan x="0" y="134.4" class="st98 st97">mundo. Cuando diseñes tu </tspan><tspan x="0" y="168" class="st98 st97">web ten en cuenta cómo va </tspan><tspan x="0" y="201.6" class="st98 st97">a verse también en móviles. </tspan><tspan x="0" y="235.2" class="st98 st97">Incluso te diría que pienses </tspan><tspan x="0" y="268.8" class="st98 st97">antes en cómo se va a ver </tspan><tspan x="0" y="302.4" class="st98 st97">en pantallas pequeñas. </tspan></text>
	</g>
	<g>
		<defs>
			<rect id="SVGID_00000113340777657590068300000012397314231453202322_" x="-19.3" y="-20" width="937.8" height="937.8"/>
		</defs>
		<clipPath id="SVGID_00000032643855726448299440000007876486480693710525_">
			<use xlink:href="#SVGID_00000113340777657590068300000012397314231453202322_"  style="overflow:visible;"/>
		</clipPath>
		<g style="opacity:0.24;clip-path:url(#SVGID_00000032643855726448299440000007876486480693710525_);">
			
				<image style="overflow:visible;" width="872" height="872" xlink:href="DD8FE7C30CE1B4BB.png"  transform="matrix(1.2948 0 0 1.2948 -122.5 -117)">
			</image>
		</g>
	</g>
</g>
<g id="halftone">
	<g class="st73">
		<defs>
			<path id="SVGID_00000103263523968005580880000005327437112305389446_" class="st73" d="M951.5,1037v-51h-203v51h-52v-51H684
				v-57.2c-30.5-2.5-54.5-28.2-54.5-59.3c0-20.4,10.6-39.3,27.5-50.2V736c0-13.2,10.8-24,24-24h49.5c2.2-3.8,5-7.1,8.4-9.9
				c4.1-3.3,8.9-5.7,13.9-7c-0.2-0.5-0.4-1-0.6-1.5c-31.7-8-54.7-36.9-54.7-70.2c0-9.9,2-19.5,5.8-28.5l11-25.7l11,25.7
				c5.1,12,14.9,21.3,26.8,26c0.5-4,0.9-7.8,1.4-11.4c3-25.8,5-42.9,18.4-54.6c12.2-10.6,31-14.4,71.9-14.4
				c38.9,0,58.9,4.5,71.3,16.1c13.1,12.3,15.3,29.8,18.3,54.2c0.4,3.2,0.8,6.6,1.3,10.1c11.9-4.7,21.7-14,26.9-26l11-25.7l11,25.7
				c3.9,9,5.8,18.6,5.8,28.5c0,17.5-6.3,34.4-17.8,47.6c-9.7,11.1-22.6,19-36.7,22.6c-2.7,6.1-6.5,11.3-11.6,15.6
				c1.1,0.9,2.2,1.9,3.2,2.9h92.4c13.2,0,24,10.8,24,24v82.7c17.5,10.7,28.5,29.9,28.5,50.8c0,31.5-24.5,57.3-55.5,59.4V986h-12.5
				v51H951.5z"/>
		</defs>
		<clipPath id="SVGID_00000116924550767241068340000005498653465197749892_">
			<use xlink:href="#SVGID_00000103263523968005580880000005327437112305389446_"  style="overflow:visible;"/>
		</clipPath>
	</g>
</g>
</svg>
