<?xml version="1.0" encoding="utf-8"?>
<!-- Generator: Adobe Illustrator 27.3.1, SVG Export Plug-In . SVG Version: 6.00 Build 0)  -->
<svg version="1.1" xmlns="http://www.w3.org/2000/svg" xmlns:xlink="http://www.w3.org/1999/xlink" x="0px" y="0px"
	 viewBox="0 0 900 900" style="enable-background:new 0 0 900 900;" xml:space="preserve">
<style type="text/css">
	.st0{display:none;}
	.st1{display:inline;opacity:0.28;}
	.st2{fill:none;stroke:#000000;stroke-width:0.75;stroke-miterlimit:10;}
	.st3{fill:none;stroke:#000000;stroke-width:4;stroke-linecap:round;stroke-linejoin:round;stroke-miterlimit:10;}
	.st4{fill:#FCCF72;stroke:#1A2276;stroke-width:6;stroke-miterlimit:10;}
	.st5{fill:#1A2276;}
	.st6{fill:#EBEAD8;}
	.st7{fill:#ED8376;stroke:#E90302;stroke-width:17;stroke-linecap:round;stroke-linejoin:round;stroke-miterlimit:10;}
	.st8{fill:#E90302;}
	.st9{fill:#FCCF72;}
	.st10{fill:#8288A8;}
	.st11{fill:#EBEAD8;stroke:#1A2276;stroke-width:6;stroke-miterlimit:10;}
	.st12{fill:none;stroke:#1A2276;stroke-width:6;stroke-miterlimit:10;}
	.st13{fill:#E90302;stroke:#1A2276;stroke-width:6;stroke-miterlimit:10;}
	.st14{fill:#EBBFAF;}
	
		.st15{clip-path:url(#SVGID_00000057834618802966732160000015398983893238033067_);fill:#FCCF72;stroke:#1A2276;stroke-width:6;stroke-miterlimit:10;}
	
		.st16{clip-path:url(#SVGID_00000092435328565497441310000013315035421315010446_);fill:#FCCF72;stroke:#1A2276;stroke-width:6;stroke-miterlimit:10;}
	
		.st17{clip-path:url(#SVGID_00000072993034134892992180000014777642507001174951_);fill:#FCCF72;stroke:#1A2276;stroke-width:6;stroke-miterlimit:10;}
	
		.st18{clip-path:url(#SVGID_00000076570733324242527840000001196188900477638037_);fill:#FCCF72;stroke:#1A2276;stroke-width:6;stroke-miterlimit:10;}
	
		.st19{clip-path:url(#SVGID_00000169550190569330262390000012204268582238686093_);fill:#FCCF72;stroke:#1A2276;stroke-width:6;stroke-miterlimit:10;}
	.st20{fill:#FFFFFF;}
	
		.st21{clip-path:url(#SVGID_00000178202162601614063560000001105854319580778881_);fill:#FCCF72;stroke:#1A2276;stroke-width:6;stroke-miterlimit:10;}
	.st22{fill:none;stroke:#1A2276;stroke-width:6;stroke-linecap:round;stroke-miterlimit:10;}
	
		.st23{clip-path:url(#SVGID_00000045601103741137472050000002688391993296550328_);fill:#FCCF72;stroke:#1A2276;stroke-width:6;stroke-miterlimit:10;}
	
		.st24{clip-path:url(#SVGID_00000000193366944881704870000010778505877715955856_);fill:#FCCF72;stroke:#1A2276;stroke-width:6;stroke-miterlimit:10;}
	
		.st25{clip-path:url(#SVGID_00000076567632949595531460000002412726961524492735_);fill:#FCCF72;stroke:#1A2276;stroke-width:6;stroke-miterlimit:10;}
	
		.st26{clip-path:url(#SVGID_00000068647185161159146590000001118857082440038019_);fill:#FCCF72;stroke:#1A2276;stroke-width:6;stroke-miterlimit:10;}
	
		.st27{clip-path:url(#SVGID_00000149341577123909925620000014584228418270149003_);fill:#FCCF72;stroke:#1A2276;stroke-width:6;stroke-miterlimit:10;}
	
		.st28{clip-path:url(#SVGID_00000121991089286520088780000005883536924252431744_);fill:#FCCF72;stroke:#1A2276;stroke-width:6;stroke-miterlimit:10;}
	.st29{fill:none;stroke:#000000;stroke-width:4;stroke-miterlimit:10;}
	.st30{fill:#FCCF72;stroke:#000000;stroke-width:4;stroke-miterlimit:10;}
	.st31{fill:none;stroke:#000000;stroke-width:5;stroke-linecap:round;stroke-miterlimit:10;}
	
		.st32{clip-path:url(#SVGID_00000083801358446687480820000012265800460830149526_);fill:#FCCF72;stroke:#1A2276;stroke-width:6;stroke-miterlimit:10;}
	
		.st33{clip-path:url(#SVGID_00000044147177188231365660000005016441046090798989_);fill:#FCCF72;stroke:#1A2276;stroke-width:6;stroke-miterlimit:10;}
	
		.st34{clip-path:url(#SVGID_00000114787293323895436980000014561661575544668050_);fill:#FCCF72;stroke:#1A2276;stroke-width:6;stroke-miterlimit:10;}
	
		.st35{clip-path:url(#SVGID_00000064321076362488700100000015141342279585171643_);fill:#FCCF72;stroke:#1A2276;stroke-width:6;stroke-miterlimit:10;}
	.st36{fill:#E90302;stroke:#EBBFAF;stroke-width:6;stroke-miterlimit:10;}
	.st37{clip-path:url(#SVGID_00000112603210550970056800000001336737002084338587_);fill:#FCCF72;}
	.st38{clip-path:url(#SVGID_00000112603210550970056800000001336737002084338587_);fill:#1A2276;}
	.st39{clip-path:url(#SVGID_00000023274718079163988110000011716255305401934478_);fill:#8288A8;}
	.st40{fill:#020202;}
	.st41{clip-path:url(#SVGID_00000080165176353865462510000010993541605869589663_);}
	.st42{fill:#EBEAD8;stroke:#1A2276;stroke-width:3;stroke-miterlimit:10;}
	.st43{fill:#8288A8;stroke:#8288A8;stroke-miterlimit:10;}
	.st44{fill:#1A2276;stroke:#FCCF72;stroke-width:6;stroke-miterlimit:10;}
	.st45{fill:none;stroke:#EBEAD8;stroke-width:6;stroke-miterlimit:10;}
	.st46{fill:#8288A8;stroke:#1A2276;stroke-width:6;stroke-miterlimit:10;}
	.st47{fill:#FCCF72;stroke:#8288A8;stroke-width:6;stroke-miterlimit:10;}
	.st48{clip-path:url(#SVGID_00000127747827533217729930000015612464893592953233_);}
	.st49{fill:none;}
	.st50{font-family:'Aptly-Bold';}
	.st51{font-size:40.1137px;}
	.st52{letter-spacing:4;}
	.st53{font-size:99.3693px;}
	.st54{fill:#ED8376;}
	.st55{fill:url(#);}
	.st56{fill:#1A2276;stroke:url(#);stroke-miterlimit:10;}
	.st57{fill:#ED8376;stroke:#E90302;stroke-width:6;stroke-linecap:round;stroke-linejoin:round;stroke-miterlimit:10;}
	.st58{fill:none;stroke:#E90302;stroke-width:6;stroke-linecap:round;stroke-linejoin:round;stroke-miterlimit:10;}
	.st59{fill:none;stroke:#E90302;stroke-width:5;stroke-linecap:round;stroke-linejoin:round;stroke-miterlimit:10;}
	.st60{fill:#FFFFFF;stroke:#000000;stroke-width:6;stroke-miterlimit:10;}
	.st61{fill:#FFFDFD;stroke:#1A2276;stroke-width:7;stroke-miterlimit:10;}
	
		.st62{clip-path:url(#SVGID_00000083055947636933154150000018436073878010264743_);fill:#FCCF72;stroke:#1A2276;stroke-width:6;stroke-miterlimit:10;}
	
		.st63{clip-path:url(#SVGID_00000003795265413609945810000008284187577228968349_);fill:#FCCF72;stroke:#1A2276;stroke-width:6;stroke-miterlimit:10;}
	.st64{fill:none;stroke:#E90302;stroke-width:6;stroke-linecap:round;stroke-miterlimit:10;}
	
		.st65{clip-path:url(#SVGID_00000083060282764750418280000017692094590827529406_);fill:#FCCF72;stroke:#1A2276;stroke-width:6;stroke-miterlimit:10;}
	
		.st66{clip-path:url(#SVGID_00000002378033847649727540000018170200597391956353_);fill:#FCCF72;stroke:#1A2276;stroke-width:6;stroke-miterlimit:10;}
	
		.st67{clip-path:url(#SVGID_00000170256596817071571810000004033418020823674505_);fill:#FCCF72;stroke:#1A2276;stroke-width:6;stroke-miterlimit:10;}
	.st68{fill:none;stroke:#1A2276;stroke-width:7;stroke-miterlimit:10;}
	
		.st69{clip-path:url(#SVGID_00000144325771932245597260000006901074467475467452_);fill:#FCCF72;stroke:#1A2276;stroke-width:6;stroke-miterlimit:10;}
	.st70{clip-path:url(#SVGID_00000038373529792363947040000017838058581558210717_);}
	
		.st71{clip-path:url(#SVGID_00000010301561079597383240000018286832280925322386_);fill:#FCCF72;stroke:#1A2276;stroke-width:6;stroke-miterlimit:10;}
	
		.st72{clip-path:url(#SVGID_00000077295078470163696300000016069326873796936579_);fill:#FCCF72;stroke:#1A2276;stroke-width:6;stroke-miterlimit:10;}
	
		.st73{clip-path:url(#SVGID_00000163034771760585795670000002487751851527214745_);fill:#FCCF72;stroke:#1A2276;stroke-width:6;stroke-miterlimit:10;}
	.st74{clip-path:url(#SVGID_00000115504708630358601710000001570588985585732536_);}
	.st75{clip-path:url(#SVGID_00000074423399682823890290000010664413427578039439_);}
	.st76{clip-path:url(#SVGID_00000155838006257971792820000004527265677094867135_);}
	.st77{opacity:0.5;}
	.st78{clip-path:url(#SVGID_00000069395019318498807290000012332899977413922466_);}
	.st79{clip-path:url(#SVGID_00000045592622651428738130000011594330288182993842_);}
	.st80{fill:#FFFDFD;}
	.st81{clip-path:url(#SVGID_00000072255853324635664390000009444265964324704441_);}
	.st82{opacity:0.8;}
	
		.st83{clip-path:url(#SVGID_00000093898813578883697950000003797713829747450527_);fill:#FCCF72;stroke:#1A2276;stroke-width:6;stroke-miterlimit:10;}
	
		.st84{clip-path:url(#SVGID_00000129204983434855557520000003990094141810726573_);fill:#FCCF72;stroke:#1A2276;stroke-width:6;stroke-miterlimit:10;}
	.st85{clip-path:url(#SVGID_00000007424156690677713760000005053770150843294120_);}
	.st86{clip-path:url(#SVGID_00000003788513486814199290000003215138141230725525_);}
	.st87{clip-path:url(#SVGID_00000037676378191277601840000014520807308248289924_);}
	.st88{clip-path:url(#SVGID_00000018219411885239929890000002951480831778803647_);}
	.st89{clip-path:url(#SVGID_00000118399440649670293150000016332719236032869805_);}
	.st90{fill:none;stroke:#1A2276;stroke-width:19;stroke-miterlimit:10;}
	.st91{clip-path:url(#SVGID_00000101103962600792986450000013219538293713578631_);}
	.st92{fill:none;stroke:#1A2276;stroke-width:10;stroke-miterlimit:10;}
	.st93{clip-path:url(#SVGID_00000152957429964944939910000011710907055681424264_);}
	.st94{clip-path:url(#SVGID_00000139982665399423169220000016546450518394703786_);fill:#FCCF72;}
	.st95{clip-path:url(#SVGID_00000139982665399423169220000016546450518394703786_);fill:#1A2276;}
	.st96{clip-path:url(#SVGID_00000160900965033726793830000008781221861176380592_);}
	.st97{clip-path:url(#SVGID_00000062172170880283162980000009455469896520259206_);}
	.st98{clip-path:url(#SVGID_00000062172170880283162980000009455469896520259206_);fill:none;}
	.st99{clip-path:url(#SVGID_00000183250003835495018520000000324256297912545677_);fill:#8288A8;}
	.st100{clip-path:url(#SVGID_00000183250003835495018520000000324256297912545677_);fill:#FCCF72;}
	.st101{fill:#FFFFFF;stroke:#FFFFFF;stroke-width:6;stroke-miterlimit:10;}
	.st102{fill:none;stroke:#8288A8;stroke-width:6;stroke-miterlimit:10;}
	.st103{clip-path:url(#SVGID_00000059276622428989386570000014309021964107294863_);}
	.st104{clip-path:url(#SVGID_00000165231109873962389980000004973267916328918461_);}
	.st105{clip-path:url(#SVGID_00000026854746683213628980000005086242838259290009_);}
	.st106{clip-path:url(#SVGID_00000041270902082929885960000003784050128795473331_);}
	.st107{clip-path:url(#SVGID_00000021811721752776939910000004890518726171679618_);}
	.st108{fill:#EBEAD8;stroke:#1A2276;stroke-width:12;stroke-miterlimit:10;}
	.st109{fill:none;stroke:#1A2276;stroke-width:12;stroke-miterlimit:10;}
	.st110{clip-path:url(#SVGID_00000001654440170616633180000005646756700345304505_);}
	.st111{clip-path:url(#SVGID_00000119100965780551467470000018080153093051202734_);}
	.st112{clip-path:url(#SVGID_00000135685560907527246770000003793456710332633484_);}
	.st113{clip-path:url(#SVGID_00000033349361382316111420000001778786686731064971_);}
	.st114{clip-path:url(#SVGID_00000165937512992036118590000008942356143779959444_);}
	.st115{clip-path:url(#SVGID_00000049908371449253385500000007424438255047430050_);fill:#8288A8;}
	.st116{clip-path:url(#SVGID_00000049908371449253385500000007424438255047430050_);fill:#FCCF72;}
	.st117{clip-path:url(#SVGID_00000134947839247219495920000010164342616203368895_);}
	.st118{clip-path:url(#SVGID_00000172407842455721254000000016064609829244843665_);fill:#E90302;}
	.st119{clip-path:url(#SVGID_00000020363970813327568490000016497946211289736625_);fill:none;}
	.st120{clip-path:url(#SVGID_00000104700194204694466460000016910649489866366101_);}
	.st121{clip-path:url(#SVGID_00000057857834285443727160000002243355721054029207_);}
	.st122{clip-path:url(#SVGID_00000026129873334295695640000016576973222833537683_);}
	.st123{clip-path:url(#SVGID_00000183929280147046055960000011603551390216763299_);}
	.st124{clip-path:url(#SVGID_00000115500341154951720560000000331112159907259009_);}
	.st125{clip-path:url(#SVGID_00000023966882297604294030000017832462794503426186_);}
	.st126{clip-path:url(#SVGID_00000021803069109512371100000017654517812627320202_);}
	.st127{clip-path:url(#SVGID_00000163793429601869696370000004603602011354372256_);}
	.st128{clip-path:url(#SVGID_00000052799564646890032780000009548803118784963746_);}
	.st129{clip-path:url(#SVGID_00000090982880024245613210000014564591654595384448_);}
	.st130{clip-path:url(#SVGID_00000129924098872446343260000015018967126332937143_);}
	.st131{clip-path:url(#SVGID_00000096033242907060286710000011539848752843539881_);}
	.st132{clip-path:url(#SVGID_00000124845068566192160330000004798414859001970355_);fill:#EBEAD8;}
	.st133{clip-path:url(#SVGID_00000124845068566192160330000004798414859001970355_);}
	.st134{clip-path:url(#SVGID_00000047776662751291360160000014985338685968107967_);}
	.st135{clip-path:url(#SVGID_00000072264328286234925510000015589261049867727550_);}
	.st136{clip-path:url(#SVGID_00000038391734012050782980000018240962002993320852_);}
	.st137{clip-path:url(#SVGID_00000062180394207497325720000012985244796038518681_);}
	.st138{clip-path:url(#SVGID_00000121968199557583209120000010052600981569830315_);}
	.st139{fill:#ED8376;stroke:#1A2276;stroke-width:6;stroke-miterlimit:10;}
	.st140{fill:url(#);stroke:#1A2276;stroke-width:6;stroke-miterlimit:10;}
	.st141{clip-path:url(#SVGID_00000069369148709419287150000006497712973253136012_);}
	
		.st142{clip-path:url(#SVGID_00000145755989150883881720000015971569069967685022_);fill:#FCCF72;stroke:#1A2276;stroke-width:6;stroke-miterlimit:10;}
	.st143{fill:none;stroke:#FCCF72;stroke-width:6;stroke-linecap:round;stroke-miterlimit:10;}
	.st144{font-size:28px;}
	.st145{font-family:'Aptly';}
	.st146{font-size:70.9205px;}
	.st147{clip-path:url(#SVGID_00000119814924352544295380000004288142399231328694_);}
</style>
<g id="guias" class="st0">
</g>
<g id="Layer_2">
</g>
<g id="Layer_1">
	<rect x="1.5" class="st6" width="899" height="896"/>
	<g>
		<polygon class="st7" points="225.2,65.4 223.2,96.4 241.5,121.9 220.1,144 218.1,175 187.4,177.8 166,199.9 140.3,182.1 
			109.5,184.9 100.8,154.8 75.1,137 87.5,108.8 78.9,78.7 106.6,65.5 119.1,37.2 149.1,45.2 176.8,32 195.2,57.4 		"/>
		<g>
			<g>
				<path class="st6" d="M146.8,159.9c0-4.7,3.8-8.5,8.5-8.5c4.7,0,8.5,3.8,8.5,8.5v5.3h4.6c4.7,0,8.5,3.8,8.5,8.5s-3.8,8.5-8.5,8.5
					h-12.8c-4,0-7.3-2.7-8.3-6.4c-0.4-1-0.6-2-0.6-3.2V159.9z"/>
				<path class="st5" d="M168.4,183.4h-12.8c-4.4,0-8.2-2.9-9.3-7.2c-0.4-1.1-0.7-2.3-0.7-3.5v-12.8c0-5.3,4.3-9.6,9.6-9.6
					c5.3,0,9.6,4.3,9.6,9.6v4.3h3.5c5.3,0,9.6,4.3,9.6,9.6C178,179.1,173.7,183.4,168.4,183.4z M155.3,152.5c-4.1,0-7.4,3.3-7.4,7.4
					v12.8c0,1,0.2,1.9,0.5,2.8l0,0.1c0.8,3.3,3.8,5.6,7.2,5.6h12.8c4.1,0,7.4-3.3,7.4-7.4c0-4.1-3.3-7.4-7.4-7.4h-5.7v-6.4
					C162.8,155.8,159.4,152.5,155.3,152.5z"/>
			</g>
			<g>
				<line class="st6" x1="176.9" y1="175.7" x2="147.5" y2="175.7"/>
				<rect x="147.5" y="174.7" class="st5" width="29.4" height="2.1"/>
			</g>
			<g>
				<line class="st6" x1="163.8" y1="165.3" x2="159.4" y2="171.1"/>
				
					<rect x="157.9" y="167.1" transform="matrix(0.6034 -0.7974 0.7974 0.6034 -70.047 195.5779)" class="st5" width="7.3" height="2.1"/>
			</g>
			<g>
				<line class="st6" x1="168.1" y1="166" x2="163.6" y2="171.9"/>
				
					<rect x="162.2" y="167.9" transform="matrix(0.6034 -0.7974 0.7974 0.6034 -68.9248 199.2533)" class="st5" width="7.3" height="2.1"/>
			</g>
			<g>
				<line class="st6" x1="172.3" y1="166.7" x2="167.9" y2="172.6"/>
				
					<rect x="166.4" y="168.6" transform="matrix(0.6034 -0.7974 0.7974 0.6034 -67.8025 202.9287)" class="st5" width="7.3" height="2.1"/>
			</g>
			<g>
				<circle class="st6" cx="154.4" cy="166.2" r="3.5"/>
				<path class="st5" d="M154.4,170.8c-2.5,0-4.6-2.1-4.6-4.6c0-2.5,2.1-4.6,4.6-4.6s4.6,2.1,4.6,4.6
					C159,168.7,157,170.8,154.4,170.8z M154.4,163.7c-1.4,0-2.5,1.1-2.5,2.5s1.1,2.5,2.5,2.5s2.5-1.1,2.5-2.5
					S155.8,163.7,154.4,163.7z"/>
			</g>
			<g>
				<g>
					<path class="st6" d="M114.2,159.9c0-4.7,3.8-8.5,8.5-8.5s8.5,3.8,8.5,8.5v5.3h4.6c4.7,0,8.5,3.8,8.5,8.5s-3.8,8.5-8.5,8.5H123
						c-4,0-7.3-2.7-8.3-6.4c-0.4-1-0.6-2-0.6-3.2V159.9z"/>
					<path class="st5" d="M135.8,183.4H123c-4.4,0-8.2-2.9-9.3-7.2c-0.4-1.1-0.7-2.3-0.7-3.5v-12.8c0-5.3,4.3-9.6,9.6-9.6
						c5.3,0,9.6,4.3,9.6,9.6v4.3h3.5c5.3,0,9.6,4.3,9.6,9.6C145.4,179.1,141.1,183.4,135.8,183.4z M122.7,152.5
						c-4.1,0-7.4,3.3-7.4,7.4v12.8c0,1,0.2,1.9,0.5,2.8l0,0.1c0.8,3.3,3.8,5.6,7.2,5.6h12.8c4.1,0,7.4-3.3,7.4-7.4
						c0-4.1-3.3-7.4-7.4-7.4h-5.7v-6.4C130.1,155.8,126.8,152.5,122.7,152.5z"/>
				</g>
				<g>
					<line class="st6" x1="144.3" y1="175.7" x2="114.9" y2="175.7"/>
					<rect x="114.9" y="174.7" class="st5" width="29.4" height="2.1"/>
				</g>
				<g>
					<line class="st6" x1="131.2" y1="165.3" x2="126.8" y2="171.1"/>
					
						<rect x="125.3" y="167.1" transform="matrix(0.6034 -0.7974 0.7974 0.6034 -82.9879 169.5565)" class="st5" width="7.3" height="2.1"/>
				</g>
				<g>
					<line class="st6" x1="135.5" y1="166" x2="131" y2="171.9"/>
					
						<rect x="129.6" y="167.9" transform="matrix(0.6034 -0.7974 0.7974 0.6034 -81.8656 173.2319)" class="st5" width="7.3" height="2.1"/>
				</g>
				<g>
					<line class="st6" x1="139.7" y1="166.7" x2="135.3" y2="172.6"/>
					
						<rect x="133.8" y="168.6" transform="matrix(0.6034 -0.7974 0.7974 0.6034 -80.7434 176.9074)" class="st5" width="7.3" height="2.1"/>
				</g>
				<g>
					<circle class="st6" cx="121.8" cy="166.2" r="3.5"/>
					<path class="st5" d="M121.8,170.8c-2.5,0-4.6-2.1-4.6-4.6c0-2.5,2.1-4.6,4.6-4.6s4.6,2.1,4.6,4.6
						C126.4,168.7,124.3,170.8,121.8,170.8z M121.8,163.7c-1.4,0-2.5,1.1-2.5,2.5s1.1,2.5,2.5,2.5c1.4,0,2.5-1.1,2.5-2.5
						S123.2,163.7,121.8,163.7z"/>
				</g>
			</g>
			<g>
				<ellipse class="st6" cx="148.7" cy="123.4" rx="38.1" ry="29.8"/>
				<path class="st5" d="M148.7,154.3c-19.3,0-29,0-34-3.9c-5.2-4-5.2-11.7-5.2-26.9s0-22.9,5.2-26.9c5.1-3.9,14.7-3.9,34-3.9
					c19.3,0,29,0,34,3.7c5.2,3.8,5.2,11.1,5.2,25.5l0,1.6l0,1.6c0,14.4,0,21.7-5.2,25.5C177.7,154.3,168,154.3,148.7,154.3z
					 M148.7,94.7c-18.8,0-28.2,0-32.7,3.5c-4.4,3.4-4.4,10.7-4.4,25.2s0,21.8,4.4,25.2c4.5,3.5,13.9,3.5,32.7,3.5
					c18.8,0,28.3,0,32.7-3.3c4.3-3.2,4.3-10.1,4.3-23.8l0-1.6l0-1.6c0-13.7,0-20.6-4.3-23.8C177,94.7,167.6,94.7,148.7,94.7z"/>
			</g>
			<g>
				<path class="st8" d="M148.9,142.6c-38.8,0-38.3-12.2-38.3-11.5c0,27.8,0.2,27.8,38.1,27.8c37.3,0,38.1,0,38.1-27.8
					C186.9,130.4,187.1,142.6,148.9,142.6z"/>
				<path class="st5" d="M148.8,160c-19.2,0-28.9,0-33.9-3.7c-5.3-3.8-5.3-11.4-5.3-25.2h0c0-0.5,0.2-0.7,0.3-0.8l0.5-0.5l1.3,0.5
					v0.7c0.1,0.5,2,10.5,37.2,10.5c35.1,0,36.9-10.2,36.9-10.6l0.1-1l2,0.1l0,1c0,14.4-0.2,21.5-5.5,25.2
					C177.3,160,167.8,160,148.8,160z M111.7,135.1c0,10.8,0.5,16.6,4.4,19.4c4.5,3.3,13.9,3.3,32.7,3.3c18.5,0,27.8,0,32.4-3.3
					c4-2.8,4.6-8.5,4.6-19.5c-0.9,0.9-2.1,1.9-3.7,2.9c-6.6,3.8-17.8,5.7-33.1,5.7c-13.4,0-23.6-1.4-30.5-4.3
					C115.1,138,113,136.5,111.7,135.1z"/>
			</g>
			<g>
				<line class="st6" x1="182.2" y1="111.4" x2="126.7" y2="111.4"/>
				<rect x="126.7" y="110.3" class="st5" width="55.5" height="2.1"/>
			</g>
			<g>
				<line class="st6" x1="120.2" y1="110.7" x2="120.2" y2="117.7"/>
				<rect x="119.1" y="110.7" class="st5" width="2.1" height="7.1"/>
			</g>
			<g>
				<path class="st6" d="M174.9,121.8c0,0-1.6-4.6-6.5-3.8c-4.9,0.8-5.5,3.8-5.5,3.8"/>
				<path class="st5" d="M173.9,122.1c-0.1-0.2-1.4-3.8-5.4-3.1c-4,0.7-4.6,2.9-4.6,3l-2.1-0.4c0-0.2,0.7-3.7,6.3-4.7
					c4.6-0.8,7.1,2.6,7.7,4.5L173.9,122.1z"/>
			</g>
			<g>
				<path class="st6" d="M152.6,122.1c0,0-1.6-4.6-6.5-3.8c-4.9,0.8-5.5,3.8-5.5,3.8"/>
				<path class="st5" d="M151.6,122.5c-0.1-0.2-1.4-3.8-5.4-3.1c-4,0.7-4.6,2.9-4.6,3l-2.1-0.4c0-0.2,0.7-3.7,6.3-4.7
					c4.6-0.8,7.1,2.6,7.7,4.5L151.6,122.5z"/>
			</g>
			<g>
				<path class="st6" d="M164.8,126.3c0,0,1.3,5.3-4.4,6.1c-6,0.9-6.4-5.1-6.4-5.1"/>
				<path class="st5" d="M159.1,133.6c-1.5,0-2.8-0.4-3.8-1.3c-2.2-1.8-2.5-4.8-2.5-4.9l2.1-0.2c0,0,0.2,2.2,1.7,3.4
					c0.9,0.7,2,0.9,3.5,0.7c1.4-0.2,2.5-0.8,3-1.6c0.9-1.4,0.5-3.2,0.5-3.2l2.1-0.5c0,0.1,0.6,2.7-0.8,4.9c-0.9,1.4-2.4,2.2-4.5,2.5
					C160,133.6,159.6,133.6,159.1,133.6z"/>
			</g>
			<g>
				<path class="st6" d="M102.5,126.1c4.3-1.9,9.3,0.1,11.2,4.4l5.1,11.7c1.9,4.3-0.1,9.3-4.4,11.2c-4.3,1.9-9.3-0.1-11.2-4.4
					l-5.1-11.7C96.2,133,98.2,128,102.5,126.1z"/>
				<path class="st5" d="M111.1,155.2c-1.2,0-2.4-0.2-3.5-0.7c-2.4-0.9-4.3-2.7-5.3-5.1l-5.1-11.7c-2.1-4.8,0.1-10.5,4.9-12.6
					c2.3-1,4.9-1.1,7.3-0.1c2.4,0.9,4.3,2.7,5.3,5.1l5.1,11.7c1,2.3,1.1,4.9,0.1,7.3c-0.9,2.4-2.7,4.3-5.1,5.3
					C113.7,154.9,112.4,155.2,111.1,155.2z M105.9,126.5c-1,0-2,0.2-3,0.6c-1.8,0.8-3.2,2.3-3.9,4.1c-0.7,1.9-0.7,3.9,0.1,5.7
					l5.1,11.7c1.6,3.8,6,5.5,9.8,3.8c1.8-0.8,3.2-2.3,3.9-4.1c0.7-1.9,0.7-3.9-0.1-5.7l-5.1-11.7
					C111.5,128.1,108.8,126.5,105.9,126.5z"/>
			</g>
			<g>
				<circle class="st5" cx="118.1" cy="95.8" r="13.5"/>
			</g>
			<g>
				<circle class="st5" cx="162.1" cy="80.2" r="13.5"/>
			</g>
			<g>
				<ellipse class="st5" cx="141.9" cy="84.4" rx="24.5" ry="18.4"/>
			</g>
			<g>
				<ellipse class="st5" cx="170.3" cy="84.4" rx="24.5" ry="18.4"/>
			</g>
			<g>
				<g>
					<ellipse class="st6" cx="191.3" cy="114.2" rx="11.4" ry="9.6"/>
					<path class="st5" d="M191.3,124.8c-6.9,0-12.5-4.8-12.5-10.7s5.6-10.7,12.5-10.7c6.9,0,12.5,4.8,12.5,10.7
						S198.1,124.8,191.3,124.8z M191.3,105.6c-5.7,0-10.3,3.8-10.3,8.6c0,4.7,4.6,8.6,10.3,8.6c5.7,0,10.3-3.8,10.3-8.6
						C201.6,109.4,197,105.6,191.3,105.6z"/>
				</g>
				<g>
					<path class="st6" d="M204.8,84.2c-2.5-1.3-5.7-0.1-7.1,2.6c0,0.1-0.1,0.1-0.1,0.2l0,0l-3.8,7.6v-8.5h0c0-0.1,0-0.1,0-0.2
						c0-3.1-2.3-5.5-5.2-5.5s-5.2,2.5-5.2,5.5c0,0.1,0,0.1,0,0.2h0v15.3h8.6l7.9,4l6.9-13.7l0,0c0-0.1,0.1-0.1,0.1-0.2
						C208.3,88.8,207.3,85.5,204.8,84.2z"/>
					<path class="st5" d="M200.4,106.8l-8.6-4.3h-9.4V85h0.1c0.4-3.2,3-5.7,6.2-5.7s5.8,2.5,6.2,5.7h0l0,0.7c0,0.1,0,0.1,0,0.2
						c0,0,0,0,0,0.1l0,0.1v4.1l2.3-4.5l0,0c0.8-1.2,1.9-2.1,3.2-2.6c1.6-0.6,3.3-0.5,4.8,0.2c1.5,0.8,2.6,2.1,3.1,3.7
						c0.4,1.4,0.3,2.8-0.1,4.1l0,0l-0.3,0.6c0,0.1-0.1,0.1-0.1,0.2c0,0,0,0,0,0.1l-0.1,0.1L200.4,106.8z M184.5,100.3h7.8l7.2,3.6
						l5.9-11.7l0,0l0.5-1c0,0,0-0.1,0.1-0.1l0,0c0.5-1.1,0.7-2.3,0.3-3.4c-0.3-1.1-1-2-2-2.4c-1-0.5-2.1-0.5-3.1-0.1
						c-1.1,0.4-2,1.2-2.5,2.3l0,0c0,0,0,0.1,0,0.1l-0.5,1l0,0l-5.3,10.6v-12h0l0-1.3c0-2.5-1.8-4.5-4.1-4.5s-4.1,2-4.1,4.5l0,0.2
						l0,1.1h0V100.3z"/>
				</g>
				<g>
					<path class="st6" d="M192.4,107.9c-2.3,1.1-3.3,4.1-2.1,6.6c1.2,2.6,4.1,3.8,6.4,2.7c0,0,0.1-0.1,0.1-0.1l0,0l7.8-3.2
						c4.4-3.7,0.9-10.5-4.3-9.4l-7.8,3.2l0,0C192.5,107.9,192.5,107.9,192.4,107.9z"/>
					<path class="st5" d="M194.9,118.8c-2.3,0-4.5-1.4-5.6-3.8c-1.3-2.8-0.5-6,1.8-7.6l0-0.1l1-0.4l7.9-3.3l0.1,0
						c2.8-0.6,5.6,0.7,6.9,3.4c1.4,2.7,0.7,5.8-1.7,7.9l-0.1,0.1l-8,3.3c0,0,0,0-0.1,0c-0.2,0.1-0.3,0.1-0.5,0.2l-0.4,0.1l0,0
						C195.9,118.7,195.4,118.8,194.9,118.8z M192.4,107.9l0.4,1c-1.8,0.8-2.5,3.2-1.6,5.2c0.9,2.1,3.2,3.1,5,2.2l0.1-0.1l1-0.5
						l0,0.1l6.7-2.8c1.8-1.7,1.7-3.8,1-5.2c-0.7-1.3-2.2-2.7-4.5-2.3l-6.7,2.8l0,0l-1.1,0.5L192.4,107.9L192.4,107.9z"/>
				</g>
				<g>
					<path class="st6" d="M189.3,101.2c-2.8,1.3-4.1,4.4-2.9,7c1.2,2.6,4.4,3.7,7.2,2.4c0.1,0,0.1-0.1,0.2-0.1l0,0l9.3-3.9
						c5.3-4.2,1.8-10.9-4.3-9.4l-9.3,3.9l0,0C189.4,101.1,189.3,101.1,189.3,101.2z"/>
					<path class="st5" d="M191.2,112.2c-2.4,0-4.7-1.3-5.7-3.5c-0.7-1.5-0.7-3.2-0.1-4.8c0.5-1.3,1.5-2.4,2.7-3.2l0-0.1l1-0.4
						l9.4-3.9c3.8-1,6.5,0.9,7.6,3.1c1.4,2.8,0.4,6-2.4,8.2l-0.1,0.1l-9.4,4c0,0-0.1,0-0.1,0c-0.2,0.1-0.4,0.2-0.6,0.2l-0.3,0.1l0,0
						C192.5,112,191.8,112.2,191.2,112.2z M189.7,102.1c-1.1,0.5-1.9,1.4-2.4,2.4c-0.4,1-0.4,2.2,0,3.1c0.9,2.1,3.5,2.9,5.8,1.9
						l0.1-0.1l1-0.5l0,0.1l8.2-3.4c2.3-1.9,2.4-4,1.7-5.5c-0.7-1.3-2.4-2.7-5.1-2l-9.2,3.9C189.8,102.1,189.8,102.1,189.7,102.1
						L189.7,102.1z"/>
				</g>
				<g>
					<path class="st6" d="M183.9,101.5c-2.4-0.9-5.2,0.6-6.2,3.3s0.2,5.6,2.6,6.4c0.1,0,0.1,0,0.2,0l0,0l7.8,3.2
						c5.7,0.4,8-6.9,3.5-9.7l-7.8-3.2l0,0C184,101.5,184,101.5,183.9,101.5z"/>
					<path class="st5" d="M188.8,115.5c-0.2,0-0.4,0-0.5,0l-0.2,0l-8-3.3c0,0-0.1,0-0.1,0c-0.2-0.1-0.3-0.1-0.5-0.2l-0.3-0.1l0,0
						c-2.4-1.4-3.5-4.5-2.5-7.5c0.6-1.5,1.6-2.8,3-3.5c1.1-0.6,2.4-0.8,3.6-0.6l0-0.1l1,0.4l7.9,3.2l0.1,0c2.4,1.5,3.5,4.5,2.5,7.2
						C194.1,113.8,191.7,115.5,188.8,115.5z M188.6,113.4c2.5,0.1,3.9-1.5,4.4-3c0.5-1.4,0.3-3.5-1.6-4.7l-7.7-3.2c0,0-0.1,0-0.1,0
						l0,0c-0.9-0.3-1.9-0.2-2.8,0.2c-0.9,0.5-1.6,1.3-2,2.4c-0.8,2.1,0.1,4.4,2,5.1l0.1,0l1,0.3l0,0.1L188.6,113.4z"/>
				</g>
			</g>
		</g>
	</g>
	<g>
		<g>
			<polygon class="st8" points="829.1,408.6 71,461.4 71,394.7 829.1,341.8 			"/>
		</g>
		<text transform="matrix(1 -6.972903e-02 0 1 116.3905 441.6202)" class="st6 st50 st51 st52">INCREÍBLE · FANTÁSTICA · APOTEÓSICA</text>
	</g>
	<g>
		<polygon class="st5" points="66,156 834.1,102.4 834.1,329.7 66,383.2 		"/>
		<path class="st6" d="M829.1,107.8V325L71,377.8V160.6L829.1,107.8 M839.1,97.1l-10.7,0.7L70.3,150.7l-9.3,0.6v9.3v217.2v10.7
			l10.7-0.7L829.8,335l9.3-0.6V325V107.8V97.1L839.1,97.1z"/>
	</g>
	<g>
		<text transform="matrix(1 -6.972903e-02 0 1 200.7223 307.4152)" class="st10 st50 st53">la seguridad</text>
		<text transform="matrix(1 -6.972903e-02 0 1 205.7809 300.3441)" class="st5 st50 st53">la seguridad</text>
		<text transform="matrix(1 -6.972903e-02 0 1 212.8667 292.0576)" class="st6 st50 st53">la seguridad</text>
	</g>
</g>
<g id="web">
	<rect x="91.9" y="513.9" class="st49" width="336.6" height="368.3"/>
	<text transform="matrix(1 0 0 1 91.9229 536.9644)"><tspan x="0" y="0" class="st50 st144">Ten muy en cuenta la seguridad </tspan><tspan x="0" y="33.6" class="st50 st144">de tu web.</tspan><tspan x="111.4" y="33.6" class="st145 st144"> Si no quieres que el </tspan><tspan x="0" y="67.2" class="st145 st144">trabajo de meses o incluso </tspan><tspan x="0" y="100.8" class="st145 st144">años se vayan al garete en </tspan><tspan x="0" y="134.4" class="st145 st144">minutos, ten en cuenta estos </tspan><tspan x="0" y="168" class="st145 st144">consejos. Realiza copias de se</tspan><tspan x="321.5" y="168" class="st145 st144">-</tspan><tspan x="0" y="201.6" class="st145 st144">guridad frecuentes, instala un </tspan><tspan x="0" y="235.2" class="st145 st144">plugin de seguridad para evitar </tspan><tspan x="0" y="268.8" class="st145 st144">ataques y ten actualizados los </tspan><tspan x="0" y="302.4" class="st145 st144">plugins y los temas.</tspan></text>
	<g>
		<g>
			<path class="st5" d="M226,497.4c-6.7,0-12-5.3-12-12v-15.8c0-8.9,4-17.2,11.1-22.8l2.8-2.2c2.4-1.8,5.2-3.5,8.6-3.5
				c6.7,0,12.4,5.6,12.4,12.2c0,3.9-1.7,7.3-4.8,9.7l-2.5,1.9c-0.1,0.1-0.3,0.2-0.4,0.4l0.9,0.5c4.5,2.4,7.3,5.1,7.3,11.3v8.5
				c0,6.7-5.3,12-12,12H226z M188.5,497.4c-6.7,0-12-5.3-12-12v-15.8c0-8.9,4-17.2,11.1-22.8l2.8-2.2c2.4-1.8,5.2-3.5,8.6-3.5
				c6.7,0,12.4,5.6,12.4,12.2c0,3.9-1.7,7.3-4.8,9.7l-2.5,1.9c-0.1,0.1-0.3,0.2-0.4,0.4l0.9,0.5c4.5,2.4,7.3,5.1,7.3,11.3v8.5
				c0,6.7-5.3,12-12,12H188.5z"/>
			<path class="st6" d="M236.4,446c3.8,0,7.4,3.2,7.4,7.2c0,1.8-0.5,4-2.9,5.8l-2.5,2c-2,1.6-3.2,2.7-3.2,4.9c0,1.8,1.3,2.7,3.4,3.8
				l1.1,0.5c3.4,1.8,4.7,3.1,4.7,6.8v8.5c0,4-3.1,7-7,7H226c-4,0-7-3.1-7-7v-15.8c0-8.1,4-14.8,9.2-18.9l2.7-2.2
				C233,446.9,234.6,446,236.4,446 M199,446c3.8,0,7.4,3.2,7.4,7.2c0,1.8-0.5,4-2.9,5.8l-2.5,2c-2,1.6-3.2,2.7-3.2,4.9
				c0,1.8,1.3,2.7,3.4,3.8l1.1,0.5c3.4,1.8,4.7,3.1,4.7,6.8v8.5c0,4-3.1,7-7,7h-11.3c-4,0-7-3.1-7-7v-15.8c0-8.1,4-14.8,9.2-18.9
				l2.7-2.2C195.6,446.9,197.2,446,199,446 M236.4,436c-4.9,0-8.6,2.3-11.6,4.5l-0.1,0.1l-0.1,0.1l-2.7,2.2
				c-2.3,1.8-4.3,3.9-6.1,6.2c-1.9-7.4-8.9-13.1-16.8-13.1c-4.9,0-8.6,2.3-11.6,4.5l-0.1,0.1l-0.1,0.1l-2.7,2.2
				c-8.2,6.5-12.9,16.2-12.9,26.7v15.8c0,9.5,7.5,17,17,17h11.3c5.3,0,9.9-2.3,13-6c3.1,3.7,7.8,6,13,6h11.3c9.5,0,17-7.5,17-17
				v-8.5c0-5.9-2.1-9.7-4.9-12.2c2.9-3.1,4.4-7.1,4.4-11.5C253.8,443.9,245.8,436,236.4,436L236.4,436z"/>
		</g>
	</g>
	<g>
		<text transform="matrix(0.9762 -7.598437e-02 2.250000e-03 1 268.2312 133.8202)" class="st5 st50 st146">webconsejos</text>
		<g>
			<g>
				<path class="st10" d="M672.9,88.5c0.9,2.4,2.4,3.5,4.8,3.3c1.4-0.1,1.8-0.3,4.9-2.1c0.4-0.2,0.9-0.4,1.3-0.4
					c1.2-0.1,2.4,1,2.4,2.3c0,2.5-4.4,5.2-9,5.6c-6.4,0.5-10.9-3.6-11-9.9c0-6.6,4.4-11.7,10.3-12.2c5.6-0.4,10,3.9,10,9.9
					c0,1.7-0.8,2.5-2.6,2.6L672.9,88.5z M680.8,83.7c-0.3-1.2-0.5-1.6-0.9-2.2c-0.7-1-1.8-1.5-3.1-1.4c-2,0.2-3.3,1.4-4.2,4.2
					L680.8,83.7z"/>
				<path class="st10" d="M695.4,75.4c1.8-1.5,3.1-2,4.9-2.2c5.2-0.4,9.3,4.1,9.4,10.3c0,6.3-4,11.5-9.3,11.9c-2.3,0.2-3.7-0.4-5-2
					c-0.7,1.6-1.5,2.4-2.8,2.5c-1.8,0.1-3.1-1.1-3.1-3l-0.1-23.7c0-1.5,0-1.9,0.4-2.6c0.4-1,1.5-1.7,2.6-1.8
					c1.1-0.1,2.1,0.5,2.6,1.4c0.4,0.7,0.4,1,0.4,2.5L695.4,75.4z M695.4,84.6c0,3.1,1.8,5.2,4.2,5.1c2.3-0.2,4.1-2.6,4.1-5.7
					c0-3-1.8-5.2-4.1-5C697.2,79.2,695.4,81.6,695.4,84.6z"/>
				<path class="st10" d="M712.3,76c0-2.2,1.2-3.7,3.1-3.9c1.4-0.1,2.2,0.5,2.8,1.9c1.8-1.8,3.2-2.5,5.5-2.7
					c2.1-0.2,3.8,0.3,5.2,1.4c1.6,1.3,2.2,2.8,2.2,5.8l0,10.1c0,1.5,0,1.9-0.4,2.6c-0.4,1-1.5,1.7-2.6,1.8c-1.1,0.1-2.2-0.5-2.6-1.4
					c-0.4-0.7-0.4-1-0.4-2.5l0-8.7c0-2.4-1.3-3.8-3.4-3.6c-1.9,0.1-3.4,1.9-3.4,3.9l0,8.9c0,1.5,0,1.9-0.4,2.6
					c-0.4,1-1.5,1.7-2.6,1.8c-1.1,0.1-2.2-0.5-2.6-1.4c-0.4-0.7-0.4-1-0.4-2.5L712.3,76z"/>
				<path class="st10" d="M735.2,74.8c0-1.5,0-1.9,0.4-2.6c0.4-1,1.5-1.7,2.6-1.8c1.1-0.1,2.1,0.5,2.6,1.4c0.4,0.7,0.4,1,0.4,2.5
					l0,13.7c0,1.5,0,1.9-0.4,2.6c-0.4,1-1.5,1.7-2.6,1.8c-1.1,0.1-2.2-0.5-2.6-1.4c-0.4-0.7-0.4-1-0.4-2.5L735.2,74.8z M744.7,64.1
					c0-1.4-1.2-2.5-2.8-2.6l0,0l-0.1,0c-0.2,0-0.4,0-0.5,0c-0.2,0-0.4,0-0.6,0.1l-4.8,0.4c-0.2,0-0.4,0-0.5,0
					c-2,0.2-3.6,1.6-3.6,3.2c0,1.6,1.6,2.8,3.5,2.7c0,0,0.1,0,0.1,0l6.5-0.6C743.5,66.8,744.7,65.5,744.7,64.1z"/>
				<path class="st10" d="M760,72.8c0,1.4-1.1,2.8-2.3,2.9c-0.7,0.1-0.7,0.1-2.5-0.6c-0.9-0.4-1.7-0.5-2.3-0.5
					c-1,0.1-1.6,0.5-1.6,1.2c0,0.8,0.3,1,3.2,1.9c2.7,0.9,3.5,1.3,4.6,2.3c0.9,1,1.5,2.2,1.5,3.8c0,4.1-3.2,7.1-7.9,7.5
					c-4.1,0.3-7.7-1.5-7.7-3.9c0-1.4,1.2-2.9,2.5-3c0.7-0.1,0.7-0.1,3.1,0.9c1,0.4,1.8,0.5,2.4,0.5c1-0.1,1.8-0.8,1.8-1.6
					c0-0.7-0.5-1.1-2.3-1.6c-3-0.9-3.8-1.3-4.8-1.9c-1.4-0.9-2.1-2.3-2.1-4.3c0-3.8,3.3-6.9,7.7-7.3C756.8,68.8,760,70.6,760,72.8z"
					/>
				<path class="st10" d="M770.5,62.3c0,2-1.5,3.7-3.5,3.9c-2,0.2-3.5-1.3-3.5-3.3c0-2,1.6-3.7,3.6-3.8
					C768.9,58.8,770.5,60.3,770.5,62.3z M764,72.5c0-1.5,0-1.9,0.4-2.6c0.4-1,1.5-1.7,2.6-1.8c1.1-0.1,2.1,0.5,2.6,1.4
					c0.4,0.7,0.4,1,0.4,2.5l0,13.7c0,1.5,0,1.9-0.4,2.6c-0.4,1-1.5,1.7-2.6,1.8c-1.1,0.1-2.2-0.5-2.6-1.4c-0.4-0.7-0.4-1-0.4-2.5
					L764,72.5z"/>
				<path class="st10" d="M774.2,71.2c0-2.1,1.2-3.7,3-3.8c1.2-0.1,1.8,0.3,2.9,1.8c1.7-1.7,3.1-2.4,5.3-2.6c1.5-0.1,3,0.1,4.1,0.7
					c0.6,0.3,1,0.6,1.7,1.5c2.4-2.2,4-3,6.3-3.2c4.2-0.3,7.3,2.5,7.3,6.6l0,10.8c0,1.5,0,1.9-0.4,2.6c-0.4,1-1.5,1.7-2.6,1.8
					c-1.1,0.1-2.2-0.5-2.6-1.4c-0.4-0.7-0.4-1-0.4-2.5l0-9.4c0-1.9-1.2-3.1-3.1-3s-3.1,1.5-3.1,3.4l0,9.4c0,1.5,0,1.9-0.4,2.6
					c-0.4,1-1.5,1.7-2.6,1.8c-1.1,0.1-2.2-0.5-2.6-1.4c-0.4-0.7-0.4-1-0.4-2.5l0-8.8c0-2.4-1.2-3.7-3.1-3.5
					c-1.8,0.1-3.1,1.6-3.1,3.4l0,9.4c0,1.5,0,1.9-0.4,2.6c-0.4,1-1.5,1.7-2.6,1.8c-1.1,0.1-2.2-0.5-2.6-1.4c-0.4-0.7-0.4-1-0.4-2.5
					L774.2,71.2z"/>
				<path class="st10" d="M828,81.7c0,2.2-1.2,3.8-3,3.9c-1.4,0.1-2.4-0.6-3-2.2c-1.5,2.1-2.7,2.8-4.9,2.9c-2.2,0.2-4.2-0.5-5.9-1.9
					c-2.4-2-3.6-4.8-3.6-8.5c0-3.4,1-6,3.1-8.4c1.8-2,3.9-3.1,6.3-3.3c2.1-0.2,3.4,0.4,5.1,2c0.7-1.7,1.6-2.4,3-2.5
					c1.7-0.1,3,1.2,3,2.9L828,81.7z M813.5,75.4c0,3.2,1.6,5.3,4.2,5.1c2.5-0.2,4.1-2.5,4.1-5.7c0-3.2-1.7-5.2-4.2-5
					C815.1,70,813.5,72.3,813.5,75.4z"/>
			</g>
			<g>
				<path class="st5" d="M663.4,77.6c-0.4-0.7-1.1-1.2-1.9-1.3c-0.2,0-0.5-0.1-0.7,0c-0.2,0-0.5,0.1-0.7,0.1
					c-0.8,0.3-1.6,0.9-1.9,1.6c-0.3,0.5-0.4,0.9-0.4,1.5c0,0.3,0,10.8,0,10.8c0,1-0.3,1.5-0.6,1.9c-0.4,0.4-0.9,0.6-1.4,0.7
					c-0.6,0-1.1-0.2-1.5-0.6c-0.3-0.4-0.6-0.8-0.6-1.7l0-10.1l0,0c0-1.2-0.1-1.6-0.4-2.2c-0.4-0.7-1.1-1.2-1.9-1.3
					c-0.2,0-0.5-0.1-0.7,0c-0.2,0-0.5,0.1-0.7,0.1c-0.8,0.3-1.6,0.9-1.9,1.6c-0.3,0.5-0.4,0.9-0.4,1.5c0,0.2,0,0.8,0,0.8l0,10
					c0,1-0.3,1.5-0.6,1.9c-0.4,0.4-0.9,0.6-1.4,0.7c-0.6,0-1.1-0.2-1.5-0.6c-0.3-0.4-0.6-0.8-0.6-1.7l-0.1-9.7c0-1.5,0-1.8-0.4-2.5
					c-0.4-0.7-1.1-1.2-1.9-1.3c-0.2,0-0.5-0.1-0.7,0c-0.2,0-0.5,0.1-0.7,0.1c-0.8,0.3-1.6,0.9-1.9,1.6c-0.3,0.5-0.4,0.9-0.4,1.5
					c0,0.3,0,11,0,11c0,3,1,4.8,2.7,6c1.5,1.1,3.4,1.6,5.2,1.4c1.6-0.1,2.9-0.5,4-1.3l0.5-0.4c0.3-0.2,0.6-0.4,0.8-0.4
					c0.3,0,0.5,0.1,0.8,0.2l0.6,0.3c1.1,0.6,2.5,0.8,4,0.6c1.9-0.1,3.6-0.9,5.1-2.2c1.7-1.5,2.7-3.4,2.7-6.4l0-10
					C663.9,78.6,663.8,78.3,663.4,77.6z"/>
				<g>
					<g>
						<path class="st9" d="M650.6,70.1c-6,0.6-11,0.1-11-1c0-0.4,0.7-0.7,1.7-1.2c4.4-2,6.7-2.6,10.8-2.6c2.9,0,6.2-0.2,8.5,1.1
							c0.6,0.2,0.9,0.4,0.9,0.7C661.6,68.2,656.7,69.6,650.6,70.1z M667,66.7c-0.1-2.8-5.1-4.3-16.4-3.3c-10.7,1-16.3,3.5-16.3,6.3
							c0.1,4.3,7.4,5.9,16.5,5C659.7,74,667,71.1,667,66.7z"/>
					</g>
				</g>
			</g>
		</g>
	</g>
	<g>
		<g>
			
				<ellipse transform="matrix(0.1421 -0.9899 0.9899 0.1421 -35.2969 1260.6014)" class="st6" cx="709.6" cy="650.7" rx="93.2" ry="119.3"/>
			<path class="st5" d="M695.9,746.2c-59.7-8.6-89.7-12.9-103.7-26.7c-14.4-14.2-11.2-36.7-4.7-81.4l0.7-4.9l0.7-4.9
				c6.4-44.8,9.6-67.2,27.4-76.8c17.3-9.3,47.3-5,107,3.5c59.7,8.6,89.7,12.9,103.6,27.4c14.2,14.8,10.8,38.5,4.1,85.6
				c-6.8,47.1-10.2,70.8-28,81C785.6,759.1,755.6,754.8,695.9,746.2z M722.4,561.7c-58.3-8.4-87.5-12.6-102.9-4.3
				c-14.9,8-17.9,29.4-24,71.9l-0.7,4.9l-0.7,4.9c-6.1,42.5-9.2,63.9,2.8,75.7c12.4,12.3,41.7,16.5,99.9,24.8
				c58.2,8.4,87.4,12.6,102.9,3.7c15-8.6,18.3-31.2,24.7-76.2s9.7-67.6-2.3-80.1C809.8,574.2,780.6,570,722.4,561.7z"/>
		</g>
		<g>
			<path class="st10" d="M819.5,631.2c-2.3,15.9-15.7,14-34.8,11.3c-19.5-2.8-19.1-2.7-16.9-18.7c2.3-15.9,1.9-16,21.4-13.2
				C808.4,613.4,821.8,615.3,819.5,631.2z"/>
		</g>
		<g>
			<path class="st10" d="M807.2,716.9c-2.3,15.9-15.7,14-34.8,11.3c-19.5-2.8-19.1-2.7-16.9-18.7c2.3-15.9,1.9-16,21.4-13.2
				C796.1,699,809.5,701,807.2,716.9z"/>
		</g>
		<g>
			<path class="st10" d="M814.3,675c-1.3,9.2-14.6,10.7-33.8,8c-19.5-2.8-20.2,0.6-17.9-15.4c3.1-21.4,2.6-16.3,22.1-13.5
				C803.8,656.8,817.8,650.3,814.3,675z"/>
		</g>
		<g>
			<defs>
				
					<ellipse id="SVGID_00000158728278129744001410000001674750364756876934_" transform="matrix(0.1421 -0.9899 0.9899 0.1421 -37.3388 1262.801)" cx="709.9" cy="652.9" rx="93.2" ry="117.7"/>
			</defs>
			<clipPath id="SVGID_00000013177895138390515250000016535878507070397102_">
				<use xlink:href="#SVGID_00000158728278129744001410000001674750364756876934_"  style="overflow:visible;"/>
			</clipPath>
			<g style="clip-path:url(#SVGID_00000013177895138390515250000016535878507070397102_);">
				<path class="st9" d="M687.5,627.3c-90-12.9-84.7-65.2-84.4-67.1c12.3-86.2,4.3-26.8,120.3-10.2
					c113.9,16.3,124.9-42.6,112.6,43.6C835.8,595.6,755.8,637.1,687.5,627.3z"/>
				<path class="st5" d="M687,630.6c-94.3-13.5-87.3-70.3-87.2-70.9c4.6-32,6.3-43.9,13.3-47.5c5.4-2.8,11.7,0.5,22.2,6
					c15.7,8.2,42,21.8,88.7,28.5c45.4,6.5,74.5,0.9,91.8-2.5c12-2.3,19.3-3.8,23.8,0.6c5.7,5.5,4.4,16.9-0.2,49.3
					c-0.2,1.5-1.3,2.3-1.8,2.7C828.4,603.7,751.1,639.8,687,630.6z M618.2,517.9c-0.9-0.1-1.5-0.1-2.1,0.2c-3.9,2-6.1,17.3-9.7,42.5
					c-0.1,0.5-6,50.8,81.6,63.4c63.2,9.1,136.3-26.7,145-32.1c3.1-21.8,5.5-38.9,2-42.2c-2.1-2-8.7-0.7-18,1.1
					c-17.7,3.4-47.5,9.2-94,2.5c-47.8-6.9-74.7-20.8-90.8-29.2C626.2,521,621.2,518.4,618.2,517.9z"/>
			</g>
		</g>
		<g>
			<circle class="st5" cx="731.7" cy="591.5" r="8.1"/>
		</g>
		<g>
			<circle class="st5" cx="702.5" cy="587.3" r="8.1"/>
		</g>
		<g>
			<circle class="st5" cx="673.3" cy="583.1" r="8.1"/>
		</g>
		<g>
			<g>
				<circle class="st8" cx="619.3" cy="674.5" r="4.3"/>
			</g>
			<g>
				<circle class="st8" cx="622.6" cy="651.5" r="4.3"/>
			</g>
			<g>
				<circle class="st8" cx="605.7" cy="660.2" r="4.3"/>
			</g>
		</g>
		<g>
			<polygon class="st5" points="655.2,574 649.8,566.7 642.5,572.2 637,564.9 629.7,570.4 635.2,577.7 627.9,583.1 633.4,590.4 
				640.6,584.9 646.1,592.2 653.4,586.8 647.9,579.5 			"/>
		</g>
		<g>
			<g>
				<g>
					<g>
						<circle class="st20" cx="701.9" cy="662.8" r="13.1"/>
					</g>
					<g>
						<circle class="st5" cx="701.9" cy="662.8" r="8.9"/>
					</g>
				</g>
				<g>
					<circle class="st20" cx="654.1" cy="655.9" r="13.1"/>
				</g>
				<g>
					<circle class="st5" cx="654.1" cy="655.9" r="8.9"/>
				</g>
			</g>
			<g>
				<path class="st5" d="M670.4,702.8c-27.8-4-32.3-16.2-32.8-17.5c-0.5-1.8,0.4-3.6,2.2-4.2c1.7-0.5,3.6,0.4,4.1,2.1
					c0.1,0.3,4.1,9.7,27.4,13c24.2,3.5,33.4-4.8,33.5-4.8c1.3-1.2,3.4-1.2,4.7,0.1c1.3,1.3,1.2,3.4-0.1,4.7
					C709,696.6,698.2,706.8,670.4,702.8z"/>
			</g>
		</g>
		<g>
			<g>
				<circle class="st8" cx="731.5" cy="667.9" r="4.3"/>
			</g>
			<g>
				<circle class="st8" cx="728.2" cy="691" r="4.3"/>
			</g>
			<g>
				<circle class="st8" cx="745.1" cy="682.2" r="4.3"/>
			</g>
		</g>
	</g>
	<g id="GLFjhS_00000085237547890092183090000015305136520773472426_">
		<path class="st20" d="M467.1,634.6C467.1,634.6,467.1,634.6,467.1,634.6c-0.1,8.8-0.1,17.5-0.1,26.3c0,3.4,0.1,6.9,0.5,10.3
			c0.8,7.3,2.5,14.4,5,21.4c4.8,13.1,11.8,25,20.3,36c10.3,13.3,22.6,24.6,36.2,34.5c7.4,5.4,15.2,10.3,23.3,14.6
			c0.4,0.2,1.2,0.4,1.6,0.2c3.4-1.9,6.9-3.8,10.3-5.9c18.4-11.2,34.6-24.9,48.2-41.7c7.5-9.3,13.8-19.3,18.6-30.2
			c5.3-12,8.4-24.5,8.5-37.6c0-19.1,0-38.1,0-57.2c0-2.1,0-4.2,0-6.3c0-0.8-0.2-1.2-1-1.4c-7.8-2.3-15.5-4.6-23.3-7
			c-20-6-40-12.1-60-18.1c-1.1-0.3-2.2-0.4-3.3-0.1c-4.6,1.4-9.2,2.7-13.8,4.1c-14.1,4.3-28.3,8.6-42.4,12.9
			c-9.1,2.8-18.2,5.5-27.3,8.2c-0.9,0.3-1.2,0.7-1.2,1.7C467.1,610.9,467.1,622.7,467.1,634.6z"/>
		<g>
			<path class="st5" d="M553.4,782.9c-1.2,0-2.4-0.3-3.4-0.9c-8-4.2-16-9.3-23.9-15c-14.8-10.7-26.9-22.3-37.2-35.5
				c-9.5-12.2-16.4-24.5-21.1-37.4c-2.6-7.3-4.4-14.9-5.2-22.5c-0.4-3.7-0.5-7.4-0.5-10.8c0-6.3,0-12.7,0-18.8c0-2.5,0-12.5,0-12.5
				h0.1v-2.1c0-9.5,0-18.9,0-28.4c0-3.2,1.7-5.5,4.8-6.5c9.1-2.7,18.2-5.5,27.3-8.2l16.9-5.1c8.5-2.6,17-5.2,25.5-7.7
				c2.1-0.6,4.1-1.2,6.2-1.8c2.5-0.7,5-1.5,7.5-2.2c1-0.3,2-0.4,2.9-0.4c1.1,0,2.1,0.2,3.3,0.5c20,6.1,40,12.1,60,18.1l0.4,0.1
				c7.6,2.3,15.2,4.6,22.9,6.9c2.9,0.9,4.6,3.2,4.6,6.2c0,1.2,0,2.5,0,3.7c0,0.9,0,1.7,0,2.6l0,15.9c0,13.8,0,27.6,0,41.3
				c0,13.2-2.9,26.1-8.9,39.6c-4.8,10.9-11.1,21.1-19.3,31.3c-13.3,16.5-30,31-49.5,42.9c-3.4,2.1-6.9,4-10.4,6
				C555.4,782.6,554.4,782.9,553.4,782.9z M484.7,610.9c0,14.6,0.1,30.2,0.1,50.1c0,5.9,0.6,11.3,1.7,16.4c2,8.8,5.6,17.5,10.9,26.5
				c5.5,9.3,12.4,18.1,21.1,26.9c8.5,8.6,18.3,16.5,30,24V591.7c-3.7,1.1-27.3,8.3-27.3,8.3C509,603.6,496.9,607.3,484.7,610.9z"/>
			<path class="st6" d="M553.3,572c0.6,0,1.2,0.1,1.8,0.3c20,6.1,40,12.1,60,18.1c7.8,2.3,15.5,4.7,23.3,7c0.8,0.2,1,0.7,1,1.4
				c0,2.1,0,4.2,0,6.3c0,19.1,0,38.1,0,57.2c0,13.2-3.2,25.6-8.5,37.6c-4.8,10.9-11.2,20.9-18.6,30.2
				c-13.6,16.8-29.8,30.5-48.2,41.7c-3.4,2.1-6.8,4-10.3,5.9c-0.1,0.1-0.3,0.1-0.5,0.1c-0.4,0-0.8-0.1-1.1-0.3
				c-8.1-4.3-15.9-9.2-23.3-14.6c-13.6-9.9-25.8-21.2-36.2-34.5c-8.6-11-15.6-22.9-20.3-36c-2.5-6.9-4.2-14.1-5-21.4
				c-0.4-3.4-0.5-6.9-0.5-10.3c-0.1-8.8,0-17.5,0-26.3c0,0,0,0,0.1,0c0-11.8,0-23.7,0-35.5c0-0.9,0.3-1.4,1.2-1.7
				c9.1-2.7,18.2-5.5,27.3-8.2c14.1-4.3,28.3-8.6,42.4-12.9c4.6-1.4,9.2-2.7,13.8-4.1C552.3,572.1,552.8,572,553.3,572 M553.4,763.6
				c0-59.5,0-118.9,0-178.4c-0.6,0.1-1.2,0.2-1.7,0.4c-9,2.7-17.9,5.4-26.9,8.1c-14.6,4.4-29.2,8.8-43.8,13.2
				c-1,0.3-1.3,0.7-1.3,1.8c0,17.5,0.1,35,0.1,52.5c0,5.9,0.5,11.8,1.9,17.5c2.3,9.9,6.3,19.2,11.4,27.9c6,10.3,13.5,19.4,21.8,27.9
				c11.3,11.4,24.1,20.9,37.9,29.1C553,763.5,553.2,763.5,553.4,763.6 M553.3,562L553.3,562L553.3,562c-1.5,0-3,0.2-4.4,0.7
				c-2.5,0.8-5,1.5-7.5,2.2c-2.1,0.6-4.2,1.2-6.3,1.9c-8.4,2.5-16.7,5.1-25.1,7.6c-5.8,1.7-11.5,3.5-17.3,5.2
				c-9.2,2.8-18.3,5.5-27.3,8.2c-5.1,1.5-8.3,5.9-8.3,11.3c0,8.5,0,17.1,0,25.5h-0.1v10c0,2.5,0,5,0,7.5c0,6.2,0,12.5,0,18.8
				c0,3.6,0.1,7.4,0.5,11.3c0.9,8.1,2.7,16,5.5,23.7c4.9,13.4,12,26.1,21.8,38.8c10.5,13.5,23,25.5,38.2,36.5
				c8,5.8,16.3,11,24.5,15.3c1.7,0.9,3.8,1.4,5.8,1.4c1.9,0,3.7-0.5,5.3-1.3c3.4-1.9,7.1-3.9,10.6-6.1c20-12.2,37.1-27,50.8-44
				c8.5-10.5,15-21.1,20-32.4c6.2-14.2,9.3-27.8,9.3-41.6c0-13.8,0-27.9,0-41.5c0-5.2,0-10.5,0-15.7c0-0.9,0-1.8,0-2.6
				c0-1.2,0-2.4,0-3.6c0-5.2-3.2-9.6-8.2-11.1c-7.6-2.3-15.4-4.6-22.9-6.9l-0.3-0.1c-20-6-40-12.1-60-18.1
				C556.4,562.2,554.8,562,553.3,562L553.3,562z M489.8,614.6c10.8-3.2,21.7-6.5,32.3-9.7l5.6-1.7c3.8-1.2,7.6-2.3,11.4-3.5
				c1.4-0.4,2.8-0.9,4.3-1.3v147c-8-5.7-15.1-11.7-21.4-18.1c-8.4-8.5-15.1-17-20.3-25.9c-5-8.5-8.4-16.7-10.3-25.1
				c-1.1-4.7-1.6-9.8-1.6-15.3C489.8,642.8,489.8,628.2,489.8,614.6L489.8,614.6z"/>
		</g>
		<path class="st9" d="M553.4,585.1c0,59.6,0,118.9,0,178.4c-0.3,0-0.5,0-0.6-0.1c-13.8-8.2-26.6-17.6-37.9-29.1
			c-8.3-8.4-15.8-17.6-21.8-27.9c-5.2-8.8-9.2-18-11.4-27.9c-1.3-5.8-1.9-11.6-1.9-17.5c0-17.5,0-35-0.1-52.5c0-1.1,0.3-1.5,1.3-1.8
			c14.6-4.4,29.2-8.8,43.8-13.2c9-2.7,17.9-5.4,26.9-8.1C552.2,585.3,552.8,585.3,553.4,585.1z"/>
	</g>
</g>
<g id="halftone">
	
		<image style="overflow:visible;opacity:0.24;" width="872" height="872" xlink:href="D98A50443B5B9917.png"  transform="matrix(1.2385 0 0 1.2385 -79.5 -79)">
	</image>
</g>
</svg>
