<?xml version="1.0" encoding="utf-8"?>
<!-- Generator: Adobe Illustrator 27.3.1, SVG Export Plug-In . SVG Version: 6.00 Build 0)  -->
<svg version="1.1" xmlns="http://www.w3.org/2000/svg" xmlns:xlink="http://www.w3.org/1999/xlink" x="0px" y="0px"
	 viewBox="0 0 900 900" style="enable-background:new 0 0 900 900;" xml:space="preserve">
<style type="text/css">
	.st0{fill:none;}
	.st1{fill:#FCCF72;}
	.st2{display:none;}
	.st3{display:inline;opacity:0.28;}
	.st4{fill:none;stroke:#000000;stroke-width:0.75;stroke-miterlimit:10;}
	.st5{fill:none;stroke:#000000;stroke-width:4;stroke-linecap:round;stroke-linejoin:round;stroke-miterlimit:10;}
	.st6{fill:#FCCF72;stroke:#1A2276;stroke-width:6;stroke-miterlimit:10;}
	.st7{fill:#1A2276;}
	.st8{fill:#EBEAD8;}
	.st9{fill:#ED8376;stroke:#E90302;stroke-width:17;stroke-linecap:round;stroke-linejoin:round;stroke-miterlimit:10;}
	.st10{fill:#E90302;}
	.st11{fill:#8288A8;}
	.st12{fill:#EBEAD8;stroke:#1A2276;stroke-width:6;stroke-miterlimit:10;}
	.st13{fill:none;stroke:#1A2276;stroke-width:6;stroke-miterlimit:10;}
	.st14{fill:#E90302;stroke:#1A2276;stroke-width:6;stroke-miterlimit:10;}
	.st15{fill:#EBBFAF;}
	
		.st16{clip-path:url(#SVGID_00000169556742348696417230000008388970961774899345_);fill:#FCCF72;stroke:#1A2276;stroke-width:6;stroke-miterlimit:10;}
	
		.st17{clip-path:url(#SVGID_00000140709473750034566650000002918711726083198380_);fill:#FCCF72;stroke:#1A2276;stroke-width:6;stroke-miterlimit:10;}
	
		.st18{clip-path:url(#SVGID_00000158738866937691850990000012138401525972081848_);fill:#FCCF72;stroke:#1A2276;stroke-width:6;stroke-miterlimit:10;}
	
		.st19{clip-path:url(#SVGID_00000030449561016864477470000009087899112466615431_);fill:#FCCF72;stroke:#1A2276;stroke-width:6;stroke-miterlimit:10;}
	
		.st20{clip-path:url(#SVGID_00000169518160806045270910000010890096107452747425_);fill:#FCCF72;stroke:#1A2276;stroke-width:6;stroke-miterlimit:10;}
	.st21{fill:#FFFFFF;}
	
		.st22{clip-path:url(#SVGID_00000113319057284666142440000006742778104965371813_);fill:#FCCF72;stroke:#1A2276;stroke-width:6;stroke-miterlimit:10;}
	.st23{fill:none;stroke:#1A2276;stroke-width:6;stroke-linecap:round;stroke-miterlimit:10;}
	
		.st24{clip-path:url(#SVGID_00000060738966033883548360000011431355170666192775_);fill:#FCCF72;stroke:#1A2276;stroke-width:6;stroke-miterlimit:10;}
	
		.st25{clip-path:url(#SVGID_00000057111344417092323630000017257807716693520515_);fill:#FCCF72;stroke:#1A2276;stroke-width:6;stroke-miterlimit:10;}
	
		.st26{clip-path:url(#SVGID_00000033335526466906126510000008442245117175680439_);fill:#FCCF72;stroke:#1A2276;stroke-width:6;stroke-miterlimit:10;}
	
		.st27{clip-path:url(#SVGID_00000164489657060353306260000003592296116606679948_);fill:#FCCF72;stroke:#1A2276;stroke-width:6;stroke-miterlimit:10;}
	
		.st28{clip-path:url(#SVGID_00000172424435557864532610000013416057561351924658_);fill:#FCCF72;stroke:#1A2276;stroke-width:6;stroke-miterlimit:10;}
	
		.st29{clip-path:url(#SVGID_00000134943404942936999010000004696426932912800433_);fill:#FCCF72;stroke:#1A2276;stroke-width:6;stroke-miterlimit:10;}
	.st30{fill:none;stroke:#000000;stroke-width:4;stroke-miterlimit:10;}
	.st31{fill:#FCCF72;stroke:#000000;stroke-width:4;stroke-miterlimit:10;}
	.st32{fill:none;stroke:#000000;stroke-width:5;stroke-linecap:round;stroke-miterlimit:10;}
	
		.st33{clip-path:url(#SVGID_00000139273120800531562310000002877684533605244823_);fill:#FCCF72;stroke:#1A2276;stroke-width:6;stroke-miterlimit:10;}
	
		.st34{clip-path:url(#SVGID_00000165203219181306424460000013232456971644672406_);fill:#FCCF72;stroke:#1A2276;stroke-width:6;stroke-miterlimit:10;}
	
		.st35{clip-path:url(#SVGID_00000106126087721718938330000013854610341851115137_);fill:#FCCF72;stroke:#1A2276;stroke-width:6;stroke-miterlimit:10;}
	
		.st36{clip-path:url(#SVGID_00000171689763468789987380000015985865717013492096_);fill:#FCCF72;stroke:#1A2276;stroke-width:6;stroke-miterlimit:10;}
	.st37{fill:#E90302;stroke:#EBBFAF;stroke-width:6;stroke-miterlimit:10;}
	.st38{clip-path:url(#SVGID_00000137837073789554503800000015375417038758505623_);fill:#FCCF72;}
	.st39{clip-path:url(#SVGID_00000137837073789554503800000015375417038758505623_);fill:#1A2276;}
	.st40{clip-path:url(#SVGID_00000134942847806630233900000015888213708814530741_);fill:#8288A8;}
	.st41{fill:#020202;}
	.st42{clip-path:url(#SVGID_00000049931482315519095550000005751084924544369845_);}
	.st43{fill:#EBEAD8;stroke:#1A2276;stroke-width:3;stroke-miterlimit:10;}
	.st44{fill:#8288A8;stroke:#8288A8;stroke-miterlimit:10;}
	.st45{fill:#1A2276;stroke:#FCCF72;stroke-width:6;stroke-miterlimit:10;}
	.st46{fill:none;stroke:#EBEAD8;stroke-width:6;stroke-miterlimit:10;}
	.st47{fill:#8288A8;stroke:#1A2276;stroke-width:6;stroke-miterlimit:10;}
	.st48{fill:#FCCF72;stroke:#8288A8;stroke-width:6;stroke-miterlimit:10;}
	.st49{clip-path:url(#SVGID_00000018229685512864312670000003340325955639559590_);}
	.st50{font-family:'Aptly-Bold';}
	.st51{font-size:40.1137px;}
	.st52{letter-spacing:4;}
	.st53{font-size:109.4088px;}
	.st54{fill:#ED8376;}
	.st55{fill:url(#Unnamed_Pattern);}
	.st56{fill:#1A2276;stroke:url(#);stroke-miterlimit:10;}
	.st57{fill:url(#SVGID_00000080915345612765027990000011718128078070581924_);}
	.st58{fill:url(#SVGID_00000183250102918369796160000005863990662336419224_);}
	.st59{fill:url(#SVGID_00000116217578861339083040000002094397935726038146_);}
	.st60{fill:#ED8376;stroke:#E90302;stroke-width:6;stroke-linecap:round;stroke-linejoin:round;stroke-miterlimit:10;}
	.st61{fill:none;stroke:#E90302;stroke-width:6;stroke-linecap:round;stroke-linejoin:round;stroke-miterlimit:10;}
	.st62{fill:none;stroke:#E90302;stroke-width:5;stroke-linecap:round;stroke-linejoin:round;stroke-miterlimit:10;}
	.st63{fill:#FFFFFF;stroke:#000000;stroke-width:6;stroke-miterlimit:10;}
	.st64{fill:#FFFDFD;stroke:#1A2276;stroke-width:7;stroke-miterlimit:10;}
	
		.st65{clip-path:url(#SVGID_00000065040341140735502150000010307072356542590383_);fill:#FCCF72;stroke:#1A2276;stroke-width:6;stroke-miterlimit:10;}
	
		.st66{clip-path:url(#SVGID_00000091719884270337070230000000046807959999258301_);fill:#FCCF72;stroke:#1A2276;stroke-width:6;stroke-miterlimit:10;}
	.st67{fill:none;stroke:#E90302;stroke-width:6;stroke-linecap:round;stroke-miterlimit:10;}
	
		.st68{clip-path:url(#SVGID_00000022528932560056963210000011581893951141239726_);fill:#FCCF72;stroke:#1A2276;stroke-width:6;stroke-miterlimit:10;}
	
		.st69{clip-path:url(#SVGID_00000064350569203329204220000000862686013451426183_);fill:#FCCF72;stroke:#1A2276;stroke-width:6;stroke-miterlimit:10;}
	
		.st70{clip-path:url(#SVGID_00000093874278214115369990000017643041319551612834_);fill:#FCCF72;stroke:#1A2276;stroke-width:6;stroke-miterlimit:10;}
	.st71{fill:none;stroke:#1A2276;stroke-width:7;stroke-miterlimit:10;}
	
		.st72{clip-path:url(#SVGID_00000176019314494094632870000015496002230425147527_);fill:#FCCF72;stroke:#1A2276;stroke-width:6;stroke-miterlimit:10;}
	.st73{clip-path:url(#SVGID_00000140703196250810263830000016423825478011218108_);}
	
		.st74{clip-path:url(#SVGID_00000003093269735741934330000013334304425087812995_);fill:#FCCF72;stroke:#1A2276;stroke-width:6;stroke-miterlimit:10;}
	
		.st75{clip-path:url(#SVGID_00000003816860328278237140000016078146189922844800_);fill:#FCCF72;stroke:#1A2276;stroke-width:6;stroke-miterlimit:10;}
	
		.st76{clip-path:url(#SVGID_00000062901386759510680360000006902453173885436548_);fill:#FCCF72;stroke:#1A2276;stroke-width:6;stroke-miterlimit:10;}
	.st77{clip-path:url(#SVGID_00000143595180983761807950000012192335409154553741_);}
	.st78{clip-path:url(#SVGID_00000001628269410030407340000015389937033959784342_);}
	.st79{clip-path:url(#SVGID_00000127020386144696700130000017457957028147278240_);}
	.st80{opacity:0.5;}
	.st81{clip-path:url(#SVGID_00000106839155619730691410000007289736383940848773_);}
	.st82{clip-path:url(#SVGID_00000149344796585787706440000010547691073752379828_);}
	.st83{fill:#FFFDFD;}
	.st84{clip-path:url(#SVGID_00000070117979493275521060000008180957390890317498_);}
	.st85{opacity:0.8;}
	
		.st86{clip-path:url(#SVGID_00000062885048944544587020000008378215168991489931_);fill:#FCCF72;stroke:#1A2276;stroke-width:6;stroke-miterlimit:10;}
	
		.st87{clip-path:url(#SVGID_00000039109796690162277780000004825512282247514270_);fill:#FCCF72;stroke:#1A2276;stroke-width:6;stroke-miterlimit:10;}
	.st88{clip-path:url(#SVGID_00000100370875447806229740000006038037725317607570_);}
	.st89{clip-path:url(#SVGID_00000091698620475429239760000009941970673119315348_);}
	.st90{clip-path:url(#SVGID_00000087374883970162616680000008305135132089657747_);}
	.st91{clip-path:url(#SVGID_00000028298669815904298680000012999721822368250276_);}
	.st92{clip-path:url(#SVGID_00000012448578055449587500000018187662395127382451_);}
	.st93{fill:none;stroke:#1A2276;stroke-width:19;stroke-miterlimit:10;}
	.st94{clip-path:url(#SVGID_00000103980602006729202340000005622545623936520894_);}
	.st95{fill:none;stroke:#1A2276;stroke-width:10;stroke-miterlimit:10;}
	.st96{clip-path:url(#SVGID_00000075155402815540421400000013977813357649364395_);}
	.st97{clip-path:url(#SVGID_00000046324952187569595280000001815053260424695962_);fill:#FCCF72;}
	.st98{clip-path:url(#SVGID_00000046324952187569595280000001815053260424695962_);fill:#1A2276;}
	.st99{clip-path:url(#SVGID_00000078034967272362696510000014813927714354051728_);}
	.st100{clip-path:url(#SVGID_00000016764404981161618580000006023867525164609726_);}
	.st101{clip-path:url(#SVGID_00000016764404981161618580000006023867525164609726_);fill:none;}
	.st102{clip-path:url(#SVGID_00000132078849083232838930000003145370903220929178_);fill:#8288A8;}
	.st103{clip-path:url(#SVGID_00000132078849083232838930000003145370903220929178_);fill:#FCCF72;}
	.st104{fill:#FFFFFF;stroke:#FFFFFF;stroke-width:6;stroke-miterlimit:10;}
	.st105{fill:none;stroke:#8288A8;stroke-width:6;stroke-miterlimit:10;}
	.st106{clip-path:url(#SVGID_00000065786499952379749200000003840145136292777368_);}
	.st107{clip-path:url(#SVGID_00000033359465581460098980000013950203787927905448_);}
	.st108{clip-path:url(#SVGID_00000142172845145686444180000015560373513355241647_);}
	.st109{clip-path:url(#SVGID_00000129179109848194243750000002806446463936689342_);}
	.st110{clip-path:url(#SVGID_00000058566254853949973980000005854024548956538030_);}
	.st111{fill:#EBEAD8;stroke:#1A2276;stroke-width:12;stroke-miterlimit:10;}
	.st112{fill:none;stroke:#1A2276;stroke-width:12;stroke-miterlimit:10;}
	.st113{clip-path:url(#SVGID_00000029726010226058362960000017134214833071898523_);}
	.st114{clip-path:url(#SVGID_00000041294691374335694430000014150691598560261016_);}
	.st115{clip-path:url(#SVGID_00000002368087057708378370000014859755564489414570_);}
	.st116{clip-path:url(#SVGID_00000151509736506530934760000018421195130866808203_);}
	.st117{clip-path:url(#SVGID_00000121999342821690289540000011454136678467268761_);}
	.st118{clip-path:url(#SVGID_00000083083856868723544220000011714428392366645655_);fill:#8288A8;}
	.st119{clip-path:url(#SVGID_00000083083856868723544220000011714428392366645655_);fill:#FCCF72;}
	.st120{clip-path:url(#SVGID_00000103973393183204449780000016054482555197534640_);}
	.st121{clip-path:url(#SVGID_00000183236663156561872410000007520461746733469069_);fill:#E90302;}
	.st122{clip-path:url(#SVGID_00000150790378529770419700000002685227028331290557_);fill:none;}
	.st123{clip-path:url(#SVGID_00000128444381976268783580000005068173959605357482_);}
	.st124{clip-path:url(#SVGID_00000081627365254251764370000014730136838663935406_);}
	.st125{clip-path:url(#SVGID_00000021083236788771939490000000336680457994012574_);}
	.st126{clip-path:url(#SVGID_00000039817153539649699610000003082564337577830323_);}
	.st127{clip-path:url(#SVGID_00000102508742272066993660000011373843825806109594_);}
	.st128{clip-path:url(#SVGID_00000114754323858771224680000014767781611842647982_);}
	.st129{clip-path:url(#SVGID_00000075851931064406402400000004344044773079575216_);}
	.st130{clip-path:url(#SVGID_00000083077462124350554700000007900097484220463540_);}
	.st131{clip-path:url(#SVGID_00000037659752704888919350000012278943918324501133_);}
	.st132{clip-path:url(#SVGID_00000102516833646103962400000007728017760209497249_);}
	.st133{clip-path:url(#SVGID_00000097494644069397097380000016159251935513600926_);}
	.st134{clip-path:url(#SVGID_00000140722093630291985550000002983379857314533308_);}
	.st135{clip-path:url(#SVGID_00000168798315624221410990000004984517021643882938_);fill:#EBEAD8;}
	.st136{clip-path:url(#SVGID_00000168798315624221410990000004984517021643882938_);}
	.st137{clip-path:url(#SVGID_00000053524028789283942630000007158696239364241031_);}
	.st138{clip-path:url(#SVGID_00000000925681382129194200000000180202941050230705_);}
	.st139{clip-path:url(#SVGID_00000121242485988777929060000008850814679243721627_);}
	.st140{clip-path:url(#SVGID_00000159470299827481923580000007653769097446672552_);}
	.st141{clip-path:url(#SVGID_00000146469162507960297640000009922134992819464070_);}
	.st142{fill:#ED8376;stroke:#1A2276;stroke-width:6;stroke-miterlimit:10;}
	.st143{fill:url(#Unnamed_Pattern);stroke:#1A2276;stroke-width:6;stroke-miterlimit:10;}
	.st144{font-size:28px;}
	.st145{font-family:'Aptly';}
	.st146{font-size:70.9205px;}
	.st147{clip-path:url(#SVGID_00000118387978618640306400000000448055116142635172_);}
	
		.st148{fill:url(#SVGID_00000082363555860678473790000014119498214127217031_);stroke:#1A2276;stroke-width:6;stroke-miterlimit:10;}
	.st149{fill:url(#SVGID_00000163035055608957163300000002473752181695071903_);}
	.st150{fill:url(#SVGID_00000116217524072543694910000009723556013519489980_);}
	
		.st151{clip-path:url(#SVGID_00000103983649364723496780000003228642566652089534_);fill:#FCCF72;stroke:#1A2276;stroke-width:6;stroke-miterlimit:10;}
	.st152{fill:none;stroke:#FCCF72;stroke-width:6;stroke-linecap:round;stroke-miterlimit:10;}
	.st153{clip-path:url(#SVGID_00000101081215479145817510000006169467151742376620_);}
</style>
<pattern  x="-2209.5" y="-2801" width="40" height="40" patternUnits="userSpaceOnUse" id="Unnamed_Pattern" viewBox="0 -40 40 40" style="overflow:visible;">
	<g>
		<rect y="-40" class="st0" width="40" height="40"/>
		<rect y="-40" class="st1" width="40" height="40"/>
	</g>
</pattern>
<g id="guias" class="st2">
</g>
<g id="Layer_2">
</g>
<g id="Layer_1">
	<rect x="-0.5" y="1" class="st8" width="897" height="897"/>
	<g>
		<polygon class="st9" points="223.2,67.4 221.2,98.4 239.5,123.9 218.1,146 216.1,177 185.4,179.8 164,201.9 138.3,184.1 
			107.5,186.9 98.8,156.8 73.1,139 85.5,110.8 76.9,80.7 104.6,67.5 117.1,39.2 147.1,47.2 174.8,34 193.2,59.4 		"/>
		<g>
			<g>
				<path class="st8" d="M144.8,161.9c0-4.7,3.8-8.5,8.5-8.5c4.7,0,8.5,3.8,8.5,8.5v5.3h4.6c4.7,0,8.5,3.8,8.5,8.5s-3.8,8.5-8.5,8.5
					h-12.8c-4,0-7.3-2.7-8.3-6.4c-0.4-1-0.6-2-0.6-3.2V161.9z"/>
				<path class="st7" d="M166.4,185.4h-12.8c-4.4,0-8.2-2.9-9.3-7.2c-0.4-1.1-0.7-2.3-0.7-3.5v-12.8c0-5.3,4.3-9.6,9.6-9.6
					c5.3,0,9.6,4.3,9.6,9.6v4.3h3.5c5.3,0,9.6,4.3,9.6,9.6C176,181.1,171.7,185.4,166.4,185.4z M153.3,154.5c-4.1,0-7.4,3.3-7.4,7.4
					v12.8c0,1,0.2,1.9,0.5,2.8l0,0.1c0.8,3.3,3.8,5.6,7.2,5.6h12.8c4.1,0,7.4-3.3,7.4-7.4c0-4.1-3.3-7.4-7.4-7.4h-5.7v-6.4
					C160.8,157.8,157.4,154.5,153.3,154.5z"/>
			</g>
			<g>
				<line class="st8" x1="174.9" y1="177.7" x2="145.5" y2="177.7"/>
				<rect x="145.5" y="176.7" class="st7" width="29.4" height="2.1"/>
			</g>
			<g>
				<line class="st8" x1="161.8" y1="167.3" x2="157.4" y2="173.1"/>
				
					<rect x="155.9" y="169.1" transform="matrix(0.6034 -0.7974 0.7974 0.6034 -72.435 194.7762)" class="st7" width="7.3" height="2.1"/>
			</g>
			<g>
				<line class="st8" x1="166.1" y1="168" x2="161.6" y2="173.9"/>
				
					<rect x="160.2" y="169.9" transform="matrix(0.6034 -0.7974 0.7974 0.6034 -71.3127 198.4516)" class="st7" width="7.3" height="2.1"/>
			</g>
			<g>
				<line class="st8" x1="170.3" y1="168.7" x2="165.9" y2="174.6"/>
				
					<rect x="164.4" y="170.6" transform="matrix(0.6034 -0.7974 0.7974 0.6034 -70.1905 202.127)" class="st7" width="7.3" height="2.1"/>
			</g>
			<g>
				<circle class="st8" cx="152.4" cy="168.2" r="3.5"/>
				<path class="st7" d="M152.4,172.8c-2.5,0-4.6-2.1-4.6-4.6c0-2.5,2.1-4.6,4.6-4.6s4.6,2.1,4.6,4.6
					C157,170.7,155,172.8,152.4,172.8z M152.4,165.7c-1.4,0-2.5,1.1-2.5,2.5s1.1,2.5,2.5,2.5s2.5-1.1,2.5-2.5
					S153.8,165.7,152.4,165.7z"/>
			</g>
			<g>
				<g>
					<path class="st8" d="M112.2,161.9c0-4.7,3.8-8.5,8.5-8.5s8.5,3.8,8.5,8.5v5.3h4.6c4.7,0,8.5,3.8,8.5,8.5s-3.8,8.5-8.5,8.5H121
						c-4,0-7.3-2.7-8.3-6.4c-0.4-1-0.6-2-0.6-3.2V161.9z"/>
					<path class="st7" d="M133.8,185.4H121c-4.4,0-8.2-2.9-9.3-7.2c-0.4-1.1-0.7-2.3-0.7-3.5v-12.8c0-5.3,4.3-9.6,9.6-9.6
						c5.3,0,9.6,4.3,9.6,9.6v4.3h3.5c5.3,0,9.6,4.3,9.6,9.6C143.4,181.1,139.1,185.4,133.8,185.4z M120.7,154.5
						c-4.1,0-7.4,3.3-7.4,7.4v12.8c0,1,0.2,1.9,0.5,2.8l0,0.1c0.8,3.3,3.8,5.6,7.2,5.6h12.8c4.1,0,7.4-3.3,7.4-7.4
						c0-4.1-3.3-7.4-7.4-7.4h-5.7v-6.4C128.1,157.8,124.8,154.5,120.7,154.5z"/>
				</g>
				<g>
					<line class="st8" x1="142.3" y1="177.7" x2="112.9" y2="177.7"/>
					<rect x="112.9" y="176.7" class="st7" width="29.4" height="2.1"/>
				</g>
				<g>
					<line class="st8" x1="129.2" y1="167.3" x2="124.8" y2="173.1"/>
					
						<rect x="123.3" y="169.1" transform="matrix(0.6034 -0.7974 0.7974 0.6034 -85.3759 168.7549)" class="st7" width="7.3" height="2.1"/>
				</g>
				<g>
					<line class="st8" x1="133.5" y1="168" x2="129" y2="173.9"/>
					
						<rect x="127.6" y="169.9" transform="matrix(0.6034 -0.7974 0.7974 0.6034 -84.2536 172.4303)" class="st7" width="7.3" height="2.1"/>
				</g>
				<g>
					<line class="st8" x1="137.7" y1="168.7" x2="133.3" y2="174.6"/>
					
						<rect x="131.8" y="170.6" transform="matrix(0.6034 -0.7974 0.7974 0.6034 -83.1313 176.1057)" class="st7" width="7.3" height="2.1"/>
				</g>
				<g>
					<circle class="st8" cx="119.8" cy="168.2" r="3.5"/>
					<path class="st7" d="M119.8,172.8c-2.5,0-4.6-2.1-4.6-4.6c0-2.5,2.1-4.6,4.6-4.6s4.6,2.1,4.6,4.6
						C124.4,170.7,122.3,172.8,119.8,172.8z M119.8,165.7c-1.4,0-2.5,1.1-2.5,2.5s1.1,2.5,2.5,2.5c1.4,0,2.5-1.1,2.5-2.5
						S121.2,165.7,119.8,165.7z"/>
				</g>
			</g>
			<g>
				<ellipse class="st8" cx="146.7" cy="125.4" rx="38.1" ry="29.8"/>
				<path class="st7" d="M146.7,156.3c-19.3,0-29,0-34-3.9c-5.2-4-5.2-11.7-5.2-26.9s0-22.9,5.2-26.9c5.1-3.9,14.7-3.9,34-3.9
					c19.3,0,29,0,34,3.7c5.2,3.8,5.2,11.1,5.2,25.5l0,1.6l0,1.6c0,14.4,0,21.7-5.2,25.5C175.7,156.3,166,156.3,146.7,156.3z
					 M146.7,96.7c-18.8,0-28.2,0-32.7,3.5c-4.4,3.4-4.4,10.7-4.4,25.2s0,21.8,4.4,25.2c4.5,3.5,13.9,3.5,32.7,3.5
					c18.8,0,28.3,0,32.7-3.3c4.3-3.2,4.3-10.1,4.3-23.8l0-1.6l0-1.6c0-13.7,0-20.6-4.3-23.8C175,96.7,165.6,96.7,146.7,96.7z"/>
			</g>
			<g>
				<path class="st10" d="M146.9,144.6c-38.8,0-38.3-12.2-38.3-11.5c0,27.8,0.2,27.8,38.1,27.8c37.3,0,38.1,0,38.1-27.8
					C184.9,132.4,185.1,144.6,146.9,144.6z"/>
				<path class="st7" d="M146.8,162c-19.2,0-28.9,0-33.9-3.7c-5.3-3.8-5.3-11.4-5.3-25.2h0c0-0.5,0.2-0.7,0.3-0.8l0.5-0.5l1.3,0.5
					v0.7c0.1,0.5,2,10.5,37.2,10.5c35.1,0,36.9-10.2,36.9-10.6l0.1-1l2,0.1l0,1c0,14.4-0.2,21.5-5.5,25.2
					C175.3,162,165.8,162,146.8,162z M109.7,137.1c0,10.8,0.5,16.6,4.4,19.4c4.5,3.3,13.9,3.3,32.7,3.3c18.5,0,27.8,0,32.4-3.3
					c4-2.8,4.6-8.5,4.6-19.5c-0.9,0.9-2.1,1.9-3.7,2.9c-6.6,3.8-17.8,5.7-33.1,5.7c-13.4,0-23.6-1.4-30.5-4.3
					C113.1,140,111,138.5,109.7,137.1z"/>
			</g>
			<g>
				<line class="st8" x1="180.2" y1="113.4" x2="124.7" y2="113.4"/>
				<rect x="124.7" y="112.3" class="st7" width="55.5" height="2.1"/>
			</g>
			<g>
				<line class="st8" x1="118.2" y1="112.7" x2="118.2" y2="119.7"/>
				<rect x="117.1" y="112.7" class="st7" width="2.1" height="7.1"/>
			</g>
			<g>
				<path class="st8" d="M172.9,123.8c0,0-1.6-4.6-6.5-3.8c-4.9,0.8-5.5,3.8-5.5,3.8"/>
				<path class="st7" d="M171.9,124.1c-0.1-0.2-1.4-3.8-5.4-3.1c-4,0.7-4.6,2.9-4.6,3l-2.1-0.4c0-0.2,0.7-3.7,6.3-4.7
					c4.6-0.8,7.1,2.6,7.7,4.5L171.9,124.1z"/>
			</g>
			<g>
				<path class="st8" d="M150.6,124.1c0,0-1.6-4.6-6.5-3.8c-4.9,0.8-5.5,3.8-5.5,3.8"/>
				<path class="st7" d="M149.6,124.5c-0.1-0.2-1.4-3.8-5.4-3.1c-4,0.7-4.6,2.9-4.6,3l-2.1-0.4c0-0.2,0.7-3.7,6.3-4.7
					c4.6-0.8,7.1,2.6,7.7,4.5L149.6,124.5z"/>
			</g>
			<g>
				<path class="st8" d="M162.8,128.3c0,0,1.3,5.3-4.4,6.1c-6,0.9-6.4-5.1-6.4-5.1"/>
				<path class="st7" d="M157.1,135.6c-1.5,0-2.8-0.4-3.8-1.3c-2.2-1.8-2.5-4.8-2.5-4.9l2.1-0.2c0,0,0.2,2.2,1.7,3.4
					c0.9,0.7,2,0.9,3.5,0.7c1.4-0.2,2.5-0.8,3-1.6c0.9-1.4,0.5-3.2,0.5-3.2l2.1-0.5c0,0.1,0.6,2.7-0.8,4.9c-0.9,1.4-2.4,2.2-4.5,2.5
					C158,135.6,157.6,135.6,157.1,135.6z"/>
			</g>
			<g>
				<path class="st8" d="M100.5,128.1c4.3-1.9,9.3,0.1,11.2,4.4l5.1,11.7c1.9,4.3-0.1,9.3-4.4,11.2c-4.3,1.9-9.3-0.1-11.2-4.4
					l-5.1-11.7C94.2,135,96.2,130,100.5,128.1z"/>
				<path class="st7" d="M109.1,157.2c-1.2,0-2.4-0.2-3.5-0.7c-2.4-0.9-4.3-2.7-5.3-5.1l-5.1-11.7c-2.1-4.8,0.1-10.5,4.9-12.6
					c2.3-1,4.9-1.1,7.3-0.1c2.4,0.9,4.3,2.7,5.3,5.1l5.1,11.7c1,2.3,1.1,4.9,0.1,7.3c-0.9,2.4-2.7,4.3-5.1,5.3
					C111.7,156.9,110.4,157.2,109.1,157.2z M103.9,128.5c-1,0-2,0.2-3,0.6c-1.8,0.8-3.2,2.3-3.9,4.1c-0.7,1.9-0.7,3.9,0.1,5.7
					l5.1,11.7c1.6,3.8,6,5.5,9.8,3.8c1.8-0.8,3.2-2.3,3.9-4.1c0.7-1.9,0.7-3.9-0.1-5.7l-5.1-11.7
					C109.5,130.1,106.8,128.5,103.9,128.5z"/>
			</g>
			<g>
				<circle class="st7" cx="116.1" cy="97.8" r="13.5"/>
			</g>
			<g>
				<circle class="st7" cx="160.1" cy="82.2" r="13.5"/>
			</g>
			<g>
				<ellipse class="st7" cx="139.9" cy="86.4" rx="24.5" ry="18.4"/>
			</g>
			<g>
				<ellipse class="st7" cx="168.3" cy="86.4" rx="24.5" ry="18.4"/>
			</g>
			<g>
				<g>
					<ellipse class="st8" cx="189.3" cy="116.2" rx="11.4" ry="9.6"/>
					<path class="st7" d="M189.3,126.8c-6.9,0-12.5-4.8-12.5-10.7s5.6-10.7,12.5-10.7c6.9,0,12.5,4.8,12.5,10.7
						S196.1,126.8,189.3,126.8z M189.3,107.6c-5.7,0-10.3,3.8-10.3,8.6c0,4.7,4.6,8.6,10.3,8.6c5.7,0,10.3-3.8,10.3-8.6
						C199.6,111.4,195,107.6,189.3,107.6z"/>
				</g>
				<g>
					<path class="st8" d="M202.8,86.2c-2.5-1.3-5.7-0.1-7.1,2.6c0,0.1-0.1,0.1-0.1,0.2l0,0l-3.8,7.6v-8.5h0c0-0.1,0-0.1,0-0.2
						c0-3.1-2.3-5.5-5.2-5.5s-5.2,2.5-5.2,5.5c0,0.1,0,0.1,0,0.2h0v15.3h8.6l7.9,4l6.9-13.7l0,0c0-0.1,0.1-0.1,0.1-0.2
						C206.3,90.8,205.3,87.5,202.8,86.2z"/>
					<path class="st7" d="M198.4,108.8l-8.6-4.3h-9.4V87h0.1c0.4-3.2,3-5.7,6.2-5.7s5.8,2.5,6.2,5.7h0l0,0.7c0,0.1,0,0.1,0,0.2
						c0,0,0,0,0,0.1l0,0.1v4.1l2.3-4.5l0,0c0.8-1.2,1.9-2.1,3.2-2.6c1.6-0.6,3.3-0.5,4.8,0.2c1.5,0.8,2.6,2.1,3.1,3.7
						c0.4,1.4,0.3,2.8-0.1,4.1l0,0l-0.3,0.6c0,0.1-0.1,0.1-0.1,0.2c0,0,0,0,0,0.1l-0.1,0.1L198.4,108.8z M182.5,102.3h7.8l7.2,3.6
						l5.9-11.7l0,0l0.5-1c0,0,0-0.1,0.1-0.1l0,0c0.5-1.1,0.7-2.3,0.3-3.4c-0.3-1.1-1-2-2-2.4c-1-0.5-2.1-0.5-3.1-0.1
						c-1.1,0.4-2,1.2-2.5,2.3l0,0c0,0,0,0.1,0,0.1l-0.5,1l0,0l-5.3,10.6v-12h0l0-1.3c0-2.5-1.8-4.5-4.1-4.5s-4.1,2-4.1,4.5l0,0.2
						l0,1.1h0V102.3z"/>
				</g>
				<g>
					<path class="st8" d="M190.4,109.9c-2.3,1.1-3.3,4.1-2.1,6.6c1.2,2.6,4.1,3.8,6.4,2.7c0,0,0.1-0.1,0.1-0.1l0,0l7.8-3.2
						c4.4-3.7,0.9-10.5-4.3-9.4l-7.8,3.2l0,0C190.5,109.9,190.5,109.9,190.4,109.9z"/>
					<path class="st7" d="M192.9,120.8c-2.3,0-4.5-1.4-5.6-3.8c-1.3-2.8-0.5-6,1.8-7.6l0-0.1l1-0.4l7.9-3.3l0.1,0
						c2.8-0.6,5.6,0.7,6.9,3.4c1.4,2.7,0.7,5.8-1.7,7.9l-0.1,0.1l-8,3.3c0,0,0,0-0.1,0c-0.2,0.1-0.3,0.1-0.5,0.2l-0.4,0.1l0,0
						C193.9,120.7,193.4,120.8,192.9,120.8z M190.4,109.9l0.4,1c-1.8,0.8-2.5,3.2-1.6,5.2c0.9,2.1,3.2,3.1,5,2.2l0.1-0.1l1-0.5
						l0,0.1l6.7-2.8c1.8-1.7,1.7-3.8,1-5.2c-0.7-1.3-2.2-2.7-4.5-2.3l-6.7,2.8l0,0l-1.1,0.5L190.4,109.9L190.4,109.9z"/>
				</g>
				<g>
					<path class="st8" d="M187.3,103.2c-2.8,1.3-4.1,4.4-2.9,7c1.2,2.6,4.4,3.7,7.2,2.4c0.1,0,0.1-0.1,0.2-0.1l0,0l9.3-3.9
						c5.3-4.2,1.8-10.9-4.3-9.4l-9.3,3.9l0,0C187.4,103.1,187.3,103.1,187.3,103.2z"/>
					<path class="st7" d="M189.2,114.2c-2.4,0-4.7-1.3-5.7-3.5c-0.7-1.5-0.7-3.2-0.1-4.8c0.5-1.3,1.5-2.4,2.7-3.2l0-0.1l1-0.4
						l9.4-3.9c3.8-1,6.5,0.9,7.6,3.1c1.4,2.8,0.4,6-2.4,8.2l-0.1,0.1l-9.4,4c0,0-0.1,0-0.1,0c-0.2,0.1-0.4,0.2-0.6,0.2l-0.3,0.1l0,0
						C190.5,114,189.8,114.2,189.2,114.2z M187.7,104.1c-1.1,0.5-1.9,1.4-2.4,2.4c-0.4,1-0.4,2.2,0,3.1c0.9,2.1,3.5,2.9,5.8,1.9
						l0.1-0.1l1-0.5l0,0.1l8.2-3.4c2.3-1.9,2.4-4,1.7-5.5c-0.7-1.3-2.4-2.7-5.1-2l-9.2,3.9C187.8,104.1,187.8,104.1,187.7,104.1
						L187.7,104.1z"/>
				</g>
				<g>
					<path class="st8" d="M181.9,103.5c-2.4-0.9-5.2,0.6-6.2,3.3s0.2,5.6,2.6,6.4c0.1,0,0.1,0,0.2,0l0,0l7.8,3.2
						c5.7,0.4,8-6.9,3.5-9.7l-7.8-3.2l0,0C182,103.5,182,103.5,181.9,103.5z"/>
					<path class="st7" d="M186.8,117.5c-0.2,0-0.4,0-0.5,0l-0.2,0l-8-3.3c0,0-0.1,0-0.1,0c-0.2-0.1-0.3-0.1-0.5-0.2l-0.3-0.1l0,0
						c-2.4-1.4-3.5-4.5-2.5-7.5c0.6-1.5,1.6-2.8,3-3.5c1.1-0.6,2.4-0.8,3.6-0.6l0-0.1l1,0.4l7.9,3.2l0.1,0c2.4,1.5,3.5,4.5,2.5,7.2
						C192.1,115.8,189.7,117.5,186.8,117.5z M186.6,115.4c2.5,0.1,3.9-1.5,4.4-3c0.5-1.4,0.3-3.5-1.6-4.7l-7.7-3.2c0,0-0.1,0-0.1,0
						l0,0c-0.9-0.3-1.9-0.2-2.8,0.2c-0.9,0.5-1.6,1.3-2,2.4c-0.8,2.1,0.1,4.4,2,5.1l0.1,0l1,0.3l0,0.1L186.6,115.4z"/>
				</g>
			</g>
		</g>
	</g>
	<g>
		<g>
			<polygon class="st10" points="827.1,410.6 69,463.4 69,396.7 827.1,343.8 			"/>
		</g>
		<text transform="matrix(1 -6.972903e-02 0 1 114.3905 443.6202)" class="st8 st50 st51 st52">INCREÍBLE · FANTÁSTICA · APOTEÓSICA</text>
	</g>
	<g>
		<polygon class="st7" points="64,158 832.1,104.4 832.1,331.7 64,385.2 		"/>
		<path class="st8" d="M827.1,109.8V327L69,379.8V162.6L827.1,109.8 M837.1,99.1l-10.7,0.7L68.3,152.7l-9.3,0.6v9.3v217.2v10.7
			l10.7-0.7L827.8,337l9.3-0.6V327V109.8V99.1L837.1,99.1z"/>
	</g>
	<g>
		<text transform="matrix(1 -6.972903e-02 0 1 166.5748 320.2049)" class="st11 st50 st53">Mima tu web</text>
		<text transform="matrix(1 -6.972903e-02 0 1 171.0434 309.4988)" class="st7 st50 st53">Mima tu web</text>
		<text transform="matrix(1 -6.972903e-02 0 1 181.2248 300.1151)" class="st8 st50 st53">Mima tu web</text>
	</g>
</g>
<g id="web">
	<rect x="89.9" y="515.9" class="st0" width="301.6" height="368.3"/>
	<text transform="matrix(1 0 0 1 89.9229 538.9644)"><tspan x="0" y="0" class="st50 st144">Cuida las páginas “olvida</tspan><tspan x="266.2" y="0" class="st50 st144">-</tspan><tspan x="0" y="33.6" class="st50 st144">das”. </tspan><tspan x="62.6" y="33.6" class="st145 st144">Mima tu web en todos </tspan><tspan x="0" y="67.2" class="st145 st144">los detalles. Siempre hay </tspan><tspan x="0" y="100.8" class="st145 st144">secciones o páginas que da </tspan><tspan x="0" y="134.4" class="st145 st144">pereza perfeccionar. Déjalo </tspan><tspan x="0" y="168" class="st145 st144">para el final, si quieres, </tspan><tspan x="0" y="201.6" class="st145 st144">pero no lo dejes, tenlas en </tspan><tspan x="0" y="235.2" class="st145 st144">cuenta. Todos los detalles </tspan><tspan x="0" y="268.8" class="st145 st144">son importantes. </tspan></text>
	<g>
		<g>
			<path class="st7" d="M224,499.4c-6.7,0-12-5.3-12-12v-15.8c0-8.9,4-17.2,11.1-22.8l2.8-2.2c2.4-1.8,5.2-3.5,8.6-3.5
				c6.7,0,12.4,5.6,12.4,12.2c0,3.9-1.7,7.3-4.8,9.7l-2.4,1.9c-0.1,0.1-0.3,0.2-0.5,0.4l0.9,0.5c4.5,2.4,7.3,5.1,7.3,11.3v8.5
				c0,6.7-5.3,12-12,12H224z M186.6,499.4c-6.7,0-12-5.3-12-12v-15.8c0-8.9,4-17.2,11.1-22.8l2.8-2.2c2.4-1.8,5.2-3.5,8.6-3.5
				c6.7,0,12.4,5.6,12.4,12.2c0,3.9-1.7,7.3-4.8,9.7l-2.5,1.9c-0.1,0.1-0.3,0.2-0.4,0.4l0.9,0.5c4.5,2.4,7.3,5.1,7.3,11.3v8.5
				c0,6.7-5.3,12-12,12H186.6z"/>
			<path class="st8" d="M234.4,448c3.8,0,7.4,3.2,7.4,7.2c0,1.8-0.5,4-2.9,5.8l-2.5,2c-2,1.6-3.2,2.7-3.2,4.9c0,1.8,1.3,2.7,3.4,3.8
				l1.1,0.5c3.4,1.8,4.7,3.1,4.7,6.8v8.5c0,4-3.1,7-7,7H224c-4,0-7-3.1-7-7v-15.8c0-8.1,4-14.8,9.2-18.9l2.7-2.2
				C231,448.9,232.6,448,234.4,448 M197,448c3.8,0,7.4,3.2,7.4,7.2c0,1.8-0.5,4-2.9,5.8l-2.5,2c-2,1.6-3.2,2.7-3.2,4.9
				c0,1.8,1.3,2.7,3.4,3.8l1.1,0.5c3.4,1.8,4.7,3.1,4.7,6.8v8.5c0,4-3.1,7-7,7h-11.3c-4,0-7-3.1-7-7v-15.8c0-8.1,4-14.8,9.2-18.9
				l2.7-2.2C193.6,448.9,195.2,448,197,448 M234.4,438c-4.9,0-8.6,2.3-11.6,4.5l-0.1,0.1l-0.1,0.1l-2.7,2.2
				c-2.3,1.8-4.3,3.9-6.1,6.2c-1.9-7.4-8.9-13.1-16.8-13.1c-4.9,0-8.6,2.3-11.6,4.5l-0.1,0.1l-0.1,0.1l-2.7,2.2
				c-8.2,6.5-12.9,16.2-12.9,26.7v15.8c0,9.5,7.5,17,17,17h11.3c5.3,0,9.9-2.3,13-6c3.1,3.7,7.8,6,13,6h11.3c9.5,0,17-7.5,17-17
				v-8.5c0-5.9-2.1-9.7-4.9-12.2c2.9-3.1,4.4-7.1,4.4-11.5C251.8,445.9,243.8,438,234.4,438L234.4,438z"/>
		</g>
	</g>
	<g>
		<text transform="matrix(0.9762 -7.598437e-02 2.250000e-03 1 266.2312 135.8202)" class="st7 st50 st146">webconsejos</text>
		<g>
			<g>
				<path class="st11" d="M670.9,90.5c0.9,2.4,2.4,3.5,4.8,3.3c1.4-0.1,1.8-0.3,4.9-2.1c0.4-0.2,0.9-0.4,1.3-0.4
					c1.2-0.1,2.4,1,2.4,2.3c0,2.5-4.4,5.2-9,5.6c-6.4,0.5-10.9-3.6-11-9.9c0-6.6,4.4-11.7,10.3-12.2c5.6-0.4,10,3.9,10,9.9
					c0,1.7-0.8,2.5-2.6,2.6L670.9,90.5z M678.8,85.7c-0.3-1.2-0.5-1.6-0.9-2.2c-0.7-1-1.8-1.5-3.1-1.4c-2,0.2-3.3,1.4-4.2,4.2
					L678.8,85.7z"/>
				<path class="st11" d="M693.4,77.4c1.8-1.5,3.1-2,4.9-2.2c5.2-0.4,9.3,4.1,9.4,10.3c0,6.3-4,11.5-9.3,11.9c-2.3,0.2-3.7-0.4-5-2
					c-0.7,1.6-1.5,2.4-2.8,2.5c-1.8,0.1-3.1-1.1-3.1-3l-0.1-23.7c0-1.5,0-1.9,0.4-2.6c0.4-1,1.5-1.7,2.6-1.8
					c1.1-0.1,2.1,0.5,2.6,1.4c0.4,0.7,0.4,1,0.4,2.5L693.4,77.4z M693.4,86.6c0,3.1,1.8,5.2,4.2,5.1c2.3-0.2,4.1-2.6,4.1-5.7
					c0-3-1.8-5.2-4.1-5C695.2,81.2,693.4,83.6,693.4,86.6z"/>
				<path class="st11" d="M710.3,78c0-2.2,1.2-3.7,3.1-3.9c1.4-0.1,2.2,0.5,2.8,1.9c1.8-1.8,3.2-2.5,5.5-2.7
					c2.1-0.2,3.8,0.3,5.2,1.4c1.6,1.3,2.2,2.8,2.2,5.8l0,10.1c0,1.5,0,1.9-0.4,2.6c-0.4,1-1.5,1.7-2.6,1.8c-1.1,0.1-2.2-0.5-2.6-1.4
					c-0.4-0.7-0.4-1-0.4-2.5l0-8.7c0-2.4-1.3-3.8-3.4-3.6c-1.9,0.1-3.4,1.9-3.4,3.9l0,8.9c0,1.5,0,1.9-0.4,2.6
					c-0.4,1-1.5,1.7-2.6,1.8c-1.1,0.1-2.2-0.5-2.6-1.4c-0.4-0.7-0.4-1-0.4-2.5L710.3,78z"/>
				<path class="st11" d="M733.2,76.8c0-1.5,0-1.9,0.4-2.6c0.4-1,1.5-1.7,2.6-1.8c1.1-0.1,2.1,0.5,2.6,1.4c0.4,0.7,0.4,1,0.4,2.5
					l0,13.7c0,1.5,0,1.9-0.4,2.6c-0.4,1-1.5,1.7-2.6,1.8c-1.1,0.1-2.2-0.5-2.6-1.4c-0.4-0.7-0.4-1-0.4-2.5L733.2,76.8z M742.7,66.1
					c0-1.4-1.2-2.5-2.8-2.6l0,0l-0.1,0c-0.2,0-0.4,0-0.5,0c-0.2,0-0.4,0-0.6,0.1l-4.8,0.4c-0.2,0-0.4,0-0.5,0
					c-2,0.2-3.6,1.6-3.6,3.2c0,1.6,1.6,2.8,3.5,2.7c0,0,0.1,0,0.1,0l6.5-0.6C741.5,68.8,742.7,67.5,742.7,66.1z"/>
				<path class="st11" d="M758,74.8c0,1.4-1.1,2.8-2.3,2.9c-0.7,0.1-0.7,0.1-2.5-0.6c-0.9-0.4-1.7-0.5-2.3-0.5
					c-1,0.1-1.6,0.5-1.6,1.2c0,0.8,0.3,1,3.2,1.9c2.7,0.9,3.5,1.3,4.6,2.3c0.9,1,1.5,2.2,1.5,3.8c0,4.1-3.2,7.1-7.9,7.5
					c-4.1,0.3-7.7-1.5-7.7-3.9c0-1.4,1.2-2.9,2.5-3c0.7-0.1,0.7-0.1,3.1,0.9c1,0.4,1.8,0.5,2.4,0.5c1-0.1,1.8-0.8,1.8-1.6
					c0-0.7-0.5-1.1-2.3-1.6c-3-0.9-3.8-1.3-4.8-1.9c-1.4-0.9-2.1-2.3-2.1-4.3c0-3.8,3.3-6.9,7.7-7.3C754.8,70.8,758,72.6,758,74.8z"
					/>
				<path class="st11" d="M768.5,64.3c0,2-1.5,3.7-3.5,3.9c-2,0.2-3.5-1.3-3.5-3.3c0-2,1.6-3.7,3.6-3.8
					C766.9,60.8,768.5,62.3,768.5,64.3z M762,74.5c0-1.5,0-1.9,0.4-2.6c0.4-1,1.5-1.7,2.6-1.8c1.1-0.1,2.1,0.5,2.6,1.4
					c0.4,0.7,0.4,1,0.4,2.5l0,13.7c0,1.5,0,1.9-0.4,2.6c-0.4,1-1.5,1.7-2.6,1.8c-1.1,0.1-2.2-0.5-2.6-1.4c-0.4-0.7-0.4-1-0.4-2.5
					L762,74.5z"/>
				<path class="st11" d="M772.2,73.2c0-2.1,1.2-3.7,3-3.8c1.2-0.1,1.8,0.3,2.9,1.8c1.7-1.7,3.1-2.4,5.3-2.6c1.5-0.1,3,0.1,4.1,0.7
					c0.6,0.3,1,0.6,1.7,1.5c2.4-2.2,4-3,6.3-3.2c4.2-0.3,7.3,2.5,7.3,6.6l0,10.8c0,1.5,0,1.9-0.4,2.6c-0.4,1-1.5,1.7-2.6,1.8
					c-1.1,0.1-2.2-0.5-2.6-1.4c-0.4-0.7-0.4-1-0.4-2.5l0-9.4c0-1.9-1.2-3.1-3.1-3s-3.1,1.5-3.1,3.4l0,9.4c0,1.5,0,1.9-0.4,2.6
					c-0.4,1-1.5,1.7-2.6,1.8c-1.1,0.1-2.2-0.5-2.6-1.4c-0.4-0.7-0.4-1-0.4-2.5l0-8.8c0-2.4-1.2-3.7-3.1-3.5
					c-1.8,0.1-3.1,1.6-3.1,3.4l0,9.4c0,1.5,0,1.9-0.4,2.6c-0.4,1-1.5,1.7-2.6,1.8c-1.1,0.1-2.2-0.5-2.6-1.4c-0.4-0.7-0.4-1-0.4-2.5
					L772.2,73.2z"/>
				<path class="st11" d="M826,83.7c0,2.2-1.2,3.8-3,3.9c-1.4,0.1-2.4-0.6-3-2.2c-1.5,2.1-2.7,2.8-4.9,2.9c-2.2,0.2-4.2-0.5-5.9-1.9
					c-2.4-2-3.6-4.8-3.6-8.5c0-3.4,1-6,3.1-8.4c1.8-2,3.9-3.1,6.3-3.3c2.1-0.2,3.4,0.4,5.1,2c0.7-1.7,1.6-2.4,3-2.5
					c1.7-0.1,3,1.2,3,2.9L826,83.7z M811.5,77.4c0,3.2,1.6,5.3,4.2,5.1c2.5-0.2,4.1-2.5,4.1-5.7c0-3.2-1.7-5.2-4.2-5
					C813.1,72,811.5,74.3,811.5,77.4z"/>
			</g>
			<g>
				<path class="st7" d="M661.4,79.6c-0.4-0.7-1.1-1.2-1.9-1.3c-0.2,0-0.5-0.1-0.7,0c-0.2,0-0.5,0.1-0.7,0.1
					c-0.8,0.3-1.6,0.9-1.9,1.6c-0.3,0.5-0.4,0.9-0.4,1.5c0,0.3,0,10.8,0,10.8c0,1-0.3,1.5-0.6,1.9c-0.4,0.4-0.9,0.6-1.4,0.7
					c-0.6,0-1.1-0.2-1.5-0.6c-0.3-0.4-0.6-0.8-0.6-1.7l0-10.1l0,0c0-1.2-0.1-1.6-0.4-2.2c-0.4-0.7-1.1-1.2-1.9-1.3
					c-0.2,0-0.5-0.1-0.7,0c-0.2,0-0.5,0.1-0.7,0.1c-0.8,0.3-1.6,0.9-1.9,1.6c-0.3,0.5-0.4,0.9-0.4,1.5c0,0.2,0,0.8,0,0.8l0,10
					c0,1-0.3,1.5-0.6,1.9c-0.4,0.4-0.9,0.6-1.4,0.7c-0.6,0-1.1-0.2-1.5-0.6c-0.3-0.4-0.6-0.8-0.6-1.7l-0.1-9.7c0-1.5,0-1.8-0.4-2.5
					c-0.4-0.7-1.1-1.2-1.9-1.3c-0.2,0-0.5-0.1-0.7,0c-0.2,0-0.5,0.1-0.7,0.1c-0.8,0.3-1.6,0.9-1.9,1.6c-0.3,0.5-0.4,0.9-0.4,1.5
					c0,0.3,0,11,0,11c0,3,1,4.8,2.7,6c1.5,1.1,3.4,1.6,5.2,1.4c1.6-0.1,2.9-0.5,4-1.3l0.5-0.4c0.3-0.2,0.6-0.4,0.8-0.4
					c0.3,0,0.5,0.1,0.8,0.2l0.6,0.3c1.1,0.6,2.5,0.8,4,0.6c1.9-0.1,3.6-0.9,5.1-2.2c1.7-1.5,2.7-3.4,2.7-6.4l0-10
					C661.9,80.6,661.8,80.3,661.4,79.6z"/>
				<g>
					<g>
						<path class="st1" d="M648.6,72.1c-6,0.6-11,0.1-11-1c0-0.4,0.7-0.7,1.7-1.2c4.4-2,6.7-2.6,10.8-2.6c2.9,0,6.2-0.2,8.5,1.1
							c0.6,0.2,0.9,0.4,0.9,0.7C659.6,70.2,654.7,71.6,648.6,72.1z M665,68.7c-0.1-2.8-5.1-4.3-16.4-3.3c-10.7,1-16.3,3.5-16.3,6.3
							c0.1,4.3,7.4,5.9,16.5,5C657.7,76,665,73.1,665,68.7z"/>
					</g>
				</g>
			</g>
		</g>
	</g>
	<g>
		<defs>
			<rect id="SVGID_00000118358238903131076950000016158246120318973068_" x="1.7" y="1.8" width="897" height="897"/>
		</defs>
		<clipPath id="SVGID_00000145020512297137343670000008033682734767058099_">
			<use xlink:href="#SVGID_00000118358238903131076950000016158246120318973068_"  style="overflow:visible;"/>
		</clipPath>
	</g>
	<g>
		<g>
			
				<ellipse transform="matrix(0.1421 -0.9899 0.9899 0.1421 -11.1807 1232.1866)" class="st8" cx="705.3" cy="622.5" rx="93.2" ry="119.3"/>
			<path class="st7" d="M691.6,718.1c-59.7-8.6-89.7-12.9-103.7-26.7c-14.4-14.2-11.2-36.7-4.7-81.4l0.7-4.9l0.7-4.9
				c6.4-44.8,9.6-67.2,27.4-76.8c17.3-9.3,47.3-5,107,3.5c59.7,8.6,89.7,12.9,103.6,27.4c14.2,14.8,10.8,38.5,4.1,85.6
				c-6.8,47.1-10.2,70.8-28,81C781.3,731,751.3,726.7,691.6,718.1z M718,533.6c-58.3-8.4-87.5-12.6-102.9-4.3
				c-14.9,8-17.9,29.4-24,71.9l-0.7,4.9l-0.7,4.9c-6.1,42.5-9.2,63.9,2.8,75.7c12.4,12.3,41.7,16.5,99.9,24.8
				c58.2,8.4,87.4,12.6,102.9,3.7c15-8.6,18.3-31.2,24.7-76.2s9.7-67.6-2.3-80.1C805.5,546.1,776.3,541.9,718,533.6z"/>
		</g>
		<g>
			<path class="st11" d="M815.2,603.1c-2.3,15.9-15.7,14-34.8,11.3c-19.5-2.8-19.1-2.7-16.9-18.7c2.3-15.9,1.9-16,21.4-13.2
				C804.1,585.2,817.5,587.2,815.2,603.1z"/>
		</g>
		<g>
			<path class="st11" d="M802.9,688.8c-2.3,15.9-15.7,14-34.8,11.3c-19.5-2.8-19.1-2.7-16.9-18.7c2.3-15.9,1.9-16,21.4-13.2
				C791.8,670.9,805.2,672.9,802.9,688.8z"/>
		</g>
		<g>
			<path class="st11" d="M809.9,646.9c-1.3,9.2-14.6,10.7-33.8,8c-19.5-2.8-20.2,0.6-17.9-15.4c3.1-21.4,2.6-16.3,22.1-13.5
				C799.5,628.7,813.5,622.2,809.9,646.9z"/>
		</g>
		<g>
			<defs>
				
					<ellipse id="SVGID_00000088116883620617291880000011086072294746396316_" transform="matrix(0.1421 -0.9899 0.9899 0.1421 -13.2226 1234.3862)" cx="705.5" cy="624.8" rx="93.2" ry="117.7"/>
			</defs>
			<clipPath id="SVGID_00000152978002297074827000000012346019759635430018_">
				<use xlink:href="#SVGID_00000088116883620617291880000011086072294746396316_"  style="overflow:visible;"/>
			</clipPath>
			<g style="clip-path:url(#SVGID_00000152978002297074827000000012346019759635430018_);">
				<path class="st1" d="M683.2,599.2c-90-12.9-84.7-65.2-84.4-67.1c12.3-86.2,4.3-26.8,120.3-10.2
					c113.9,16.3,124.9-42.6,112.6,43.6C831.4,567.5,751.4,609,683.2,599.2z"/>
				<path class="st7" d="M682.7,602.5c-94.3-13.5-87.3-70.3-87.2-70.9c4.6-32,6.3-43.9,13.3-47.5c5.4-2.8,11.7,0.5,22.2,6
					c15.7,8.2,42,21.8,88.7,28.5c45.4,6.5,74.5,0.9,91.8-2.5c12-2.3,19.3-3.8,23.8,0.6c5.7,5.5,4.4,16.9-0.2,49.3
					c-0.2,1.5-1.3,2.3-1.8,2.7C824.1,575.5,746.8,611.7,682.7,602.5z M613.8,489.8c-0.9-0.1-1.5-0.1-2.1,0.2
					c-3.9,2-6.1,17.3-9.7,42.5c-0.1,0.5-6,50.8,81.6,63.4c63.2,9.1,136.3-26.7,145-32.1c3.1-21.8,5.5-38.9,2-42.2
					c-2.1-2-8.7-0.7-18,1.1c-17.7,3.4-47.5,9.2-94,2.5c-47.8-6.9-74.7-20.8-90.8-29.2C621.9,492.9,616.9,490.3,613.8,489.8z"/>
			</g>
		</g>
		<g>
			<circle class="st7" cx="727.4" cy="563.4" r="8.1"/>
		</g>
		<g>
			<circle class="st7" cx="698.2" cy="559.2" r="8.1"/>
		</g>
		<g>
			<circle class="st7" cx="669" cy="555" r="8.1"/>
		</g>
		<g>
			<g>
				<circle class="st10" cx="615" cy="646.4" r="4.3"/>
			</g>
			<g>
				<circle class="st10" cx="618.3" cy="623.4" r="4.3"/>
			</g>
			<g>
				<circle class="st10" cx="601.4" cy="632.1" r="4.3"/>
			</g>
		</g>
		<g>
			<polygon class="st7" points="650.9,545.9 645.4,538.6 638.1,544.1 632.7,536.8 625.4,542.3 630.9,549.5 623.6,555 629,562.3 
				636.3,556.8 641.8,564.1 649,558.6 643.6,551.4 			"/>
		</g>
		<g>
			<g>
				<g>
					<g>
						<circle class="st21" cx="697.6" cy="634.7" r="13.1"/>
					</g>
					<g>
						<circle class="st7" cx="697.6" cy="634.7" r="8.9"/>
					</g>
				</g>
				<g>
					<circle class="st21" cx="649.8" cy="627.8" r="13.1"/>
				</g>
				<g>
					<circle class="st7" cx="649.8" cy="627.8" r="8.9"/>
				</g>
			</g>
			<g>
				<path class="st7" d="M666.1,674.7c-27.8-4-32.3-16.2-32.8-17.5c-0.5-1.8,0.4-3.6,2.2-4.2c1.7-0.5,3.6,0.4,4.1,2.1
					c0.1,0.3,4.1,9.7,27.4,13c24.2,3.5,33.4-4.8,33.5-4.8c1.3-1.2,3.4-1.2,4.7,0.1c1.3,1.3,1.2,3.4-0.1,4.7
					C704.7,668.5,693.8,678.7,666.1,674.7z"/>
			</g>
		</g>
		<g>
			<g>
				<circle class="st10" cx="727.2" cy="639.8" r="4.3"/>
			</g>
			<g>
				<circle class="st10" cx="723.9" cy="662.9" r="4.3"/>
			</g>
			<g>
				<circle class="st10" cx="740.8" cy="654.1" r="4.3"/>
			</g>
		</g>
	</g>
	<g>
		<path class="st13" d="M438.3,760.4c0,0,5.4-36.2,49-62.6c43.6-26.3,56.8-100.1,56.8-100.1"/>
		<g>
			<ellipse class="st142" cx="543.8" cy="569.5" rx="25.3" ry="23.8"/>
			<ellipse class="st142" cx="543.8" cy="626.5" rx="25.3" ry="23.8"/>
			
				<ellipse transform="matrix(1.901372e-02 -0.9998 0.9998 1.901372e-02 -20.4558 1177.6311)" class="st142" cx="589.9" cy="599.2" rx="15.6" ry="38.5"/>
			
				<ellipse transform="matrix(1.901372e-02 -0.9998 0.9998 1.901372e-02 -108.2645 1082.9896)" class="st142" cx="497.8" cy="596.7" rx="15.6" ry="38.5"/>
			
				<ellipse transform="matrix(0.3003 -0.9538 0.9538 0.3003 -183.2605 983.4144)" class="st142" cx="578.7" cy="616.6" rx="17.3" ry="34.6"/>
			
				<ellipse transform="matrix(0.3003 -0.9538 0.9538 0.3003 -196.418 890.8141)" class="st142" cx="509" cy="579.3" rx="17.3" ry="34.6"/>
			
				<ellipse transform="matrix(0.9762 -0.2168 0.2168 0.9762 -112.7101 140.4982)" class="st142" cx="584" cy="583.9" rx="36.4" ry="16.5"/>
			
				<ellipse transform="matrix(0.9762 -0.2168 0.2168 0.9762 -120.7015 123.7586)" class="st142" cx="503.7" cy="612" rx="36.4" ry="16.5"/>
			
				<pattern  id="SVGID_00000075133625581940678870000003664128124904988549_" xlink:href="#Unnamed_Pattern" patternTransform="matrix(0.5874 0 0 0.3631 -2129.009 -2322.8325)">
			</pattern>
			
				<ellipse style="fill:url(#SVGID_00000075133625581940678870000003664128124904988549_);stroke:#1A2276;stroke-width:6;stroke-miterlimit:10;" cx="544.1" cy="597.8" rx="37.3" ry="23.1"/>
		</g>
		<g>
			<path class="st12" d="M531.6,702.2c6.7-18.8-3-39.5-21.8-46.2l-51-18.3c-18.8-6.7-39.5,3-46.2,21.8c-6.7,18.8,3,39.5,21.8,46.2
				l51,18.3C504.2,730.7,524.9,721,531.6,702.2z"/>
			<line class="st13" x1="497.4" y1="677.1" x2="533.7" y2="690.1"/>
			<line class="st13" x1="491.3" y1="694.1" x2="527.6" y2="707.1"/>
		</g>
	</g>
</g>
<g id="halftone">
	
		<image style="overflow:visible;opacity:0.24;" width="872" height="872" xlink:href="4F782CE9E6DC612.png"  transform="matrix(1.2385 0 0 1.2385 -110.5 -74)">
	</image>
</g>
</svg>
