<?xml version="1.0" encoding="utf-8"?>
<!-- Generator: Adobe Illustrator 27.3.1, SVG Export Plug-In . SVG Version: 6.00 Build 0)  -->
<svg version="1.1" xmlns="http://www.w3.org/2000/svg" xmlns:xlink="http://www.w3.org/1999/xlink" x="0px" y="0px"
	 viewBox="0 0 900 900" style="enable-background:new 0 0 900 900;" xml:space="preserve">
<style type="text/css">
	.st0{display:none;}
	.st1{display:inline;opacity:0.28;}
	.st2{fill:none;stroke:#000000;stroke-width:0.75;stroke-miterlimit:10;}
	.st3{fill:none;stroke:#000000;stroke-width:4;stroke-linecap:round;stroke-linejoin:round;stroke-miterlimit:10;}
	.st4{fill:#FCCF72;stroke:#1A2276;stroke-width:6;stroke-miterlimit:10;}
	.st5{fill:#1A2276;}
	.st6{fill:#EBEAD8;}
	.st7{fill:#ED8376;stroke:#E90302;stroke-width:17;stroke-linecap:round;stroke-linejoin:round;stroke-miterlimit:10;}
	.st8{fill:#E90302;}
	.st9{fill:#FCCF72;}
	.st10{fill:#8288A8;}
	.st11{fill:#EBEAD8;stroke:#1A2276;stroke-width:6;stroke-miterlimit:10;}
	.st12{fill:none;stroke:#1A2276;stroke-width:6;stroke-miterlimit:10;}
	.st13{fill:#E90302;stroke:#1A2276;stroke-width:6;stroke-miterlimit:10;}
	.st14{fill:#EBBFAF;}
	
		.st15{clip-path:url(#SVGID_00000169537452926375141300000012386366069707205545_);fill:#FCCF72;stroke:#1A2276;stroke-width:6;stroke-miterlimit:10;}
	
		.st16{clip-path:url(#SVGID_00000016763908892640071560000015792676580591891127_);fill:#FCCF72;stroke:#1A2276;stroke-width:6;stroke-miterlimit:10;}
	
		.st17{clip-path:url(#SVGID_00000173883231315237929850000001493405700301976756_);fill:#FCCF72;stroke:#1A2276;stroke-width:6;stroke-miterlimit:10;}
	
		.st18{clip-path:url(#SVGID_00000031209508723333583660000003660918542072956315_);fill:#FCCF72;stroke:#1A2276;stroke-width:6;stroke-miterlimit:10;}
	
		.st19{clip-path:url(#SVGID_00000134249513474229828590000001277948247231805873_);fill:#FCCF72;stroke:#1A2276;stroke-width:6;stroke-miterlimit:10;}
	.st20{fill:#FFFFFF;}
	
		.st21{clip-path:url(#SVGID_00000168091617983884632190000014213622572020596103_);fill:#FCCF72;stroke:#1A2276;stroke-width:6;stroke-miterlimit:10;}
	.st22{fill:none;stroke:#1A2276;stroke-width:6;stroke-linecap:round;stroke-miterlimit:10;}
	
		.st23{clip-path:url(#SVGID_00000044158069181263815620000016885089429274182801_);fill:#FCCF72;stroke:#1A2276;stroke-width:6;stroke-miterlimit:10;}
	
		.st24{clip-path:url(#SVGID_00000026130809413331344830000010179834456648436624_);fill:#FCCF72;stroke:#1A2276;stroke-width:6;stroke-miterlimit:10;}
	
		.st25{clip-path:url(#SVGID_00000116228781328181684700000001062418203774805659_);fill:#FCCF72;stroke:#1A2276;stroke-width:6;stroke-miterlimit:10;}
	
		.st26{clip-path:url(#SVGID_00000146474916420301618180000016622816681578718386_);fill:#FCCF72;stroke:#1A2276;stroke-width:6;stroke-miterlimit:10;}
	
		.st27{clip-path:url(#SVGID_00000078042460249866882210000016673804995130247828_);fill:#FCCF72;stroke:#1A2276;stroke-width:6;stroke-miterlimit:10;}
	
		.st28{clip-path:url(#SVGID_00000157302690715699979540000001431865603717784722_);fill:#FCCF72;stroke:#1A2276;stroke-width:6;stroke-miterlimit:10;}
	.st29{fill:none;stroke:#000000;stroke-width:4;stroke-miterlimit:10;}
	.st30{fill:#FCCF72;stroke:#000000;stroke-width:4;stroke-miterlimit:10;}
	.st31{fill:none;stroke:#000000;stroke-width:5;stroke-linecap:round;stroke-miterlimit:10;}
	
		.st32{clip-path:url(#SVGID_00000149367941532239040110000010358902583790292897_);fill:#FCCF72;stroke:#1A2276;stroke-width:6;stroke-miterlimit:10;}
	
		.st33{clip-path:url(#SVGID_00000021113898321908735110000000178283606674684600_);fill:#FCCF72;stroke:#1A2276;stroke-width:6;stroke-miterlimit:10;}
	
		.st34{clip-path:url(#SVGID_00000117635715877782003350000015805969765235542185_);fill:#FCCF72;stroke:#1A2276;stroke-width:6;stroke-miterlimit:10;}
	
		.st35{clip-path:url(#SVGID_00000058548404305816976850000011923486184258099624_);fill:#FCCF72;stroke:#1A2276;stroke-width:6;stroke-miterlimit:10;}
	.st36{fill:#E90302;stroke:#EBBFAF;stroke-width:6;stroke-miterlimit:10;}
	.st37{clip-path:url(#SVGID_00000005248124090003506470000004405674957605983107_);fill:#FCCF72;}
	.st38{clip-path:url(#SVGID_00000005248124090003506470000004405674957605983107_);fill:#1A2276;}
	.st39{clip-path:url(#SVGID_00000029044446811936657410000004707470715873356430_);fill:#8288A8;}
	.st40{fill:#020202;}
	.st41{clip-path:url(#SVGID_00000074405493622223182720000009786819545845627551_);}
	.st42{fill:#EBEAD8;stroke:#1A2276;stroke-width:3;stroke-miterlimit:10;}
	.st43{fill:#8288A8;stroke:#8288A8;stroke-miterlimit:10;}
	.st44{font-family:'Aptly-Bold';}
	.st45{font-size:40.1137px;}
	.st46{letter-spacing:4;}
	.st47{font-size:122.4095px;}
	.st48{fill:#1A2276;stroke:#FCCF72;stroke-width:6;stroke-miterlimit:10;}
	.st49{fill:none;stroke:#EBEAD8;stroke-width:6;stroke-miterlimit:10;}
	.st50{fill:#8288A8;stroke:#1A2276;stroke-width:6;stroke-miterlimit:10;}
	.st51{fill:#FCCF72;stroke:#8288A8;stroke-width:6;stroke-miterlimit:10;}
	.st52{clip-path:url(#SVGID_00000080194350593720748210000014109392475220823464_);}
	.st53{fill:none;}
	.st54{fill:#ED8376;}
	.st55{fill:url(#);}
	.st56{fill:#1A2276;stroke:url(#);stroke-miterlimit:10;}
	.st57{fill:#ED8376;stroke:#E90302;stroke-width:6;stroke-linecap:round;stroke-linejoin:round;stroke-miterlimit:10;}
	.st58{fill:none;stroke:#E90302;stroke-width:6;stroke-linecap:round;stroke-linejoin:round;stroke-miterlimit:10;}
	.st59{fill:none;stroke:#E90302;stroke-width:5;stroke-linecap:round;stroke-linejoin:round;stroke-miterlimit:10;}
	.st60{fill:#FFFFFF;stroke:#000000;stroke-width:6;stroke-miterlimit:10;}
	.st61{fill:#FFFDFD;stroke:#1A2276;stroke-width:7;stroke-miterlimit:10;}
	
		.st62{clip-path:url(#SVGID_00000078754749785511273270000017474600220534779544_);fill:#FCCF72;stroke:#1A2276;stroke-width:6;stroke-miterlimit:10;}
	
		.st63{clip-path:url(#SVGID_00000024695653698688475190000006316252304498812586_);fill:#FCCF72;stroke:#1A2276;stroke-width:6;stroke-miterlimit:10;}
	.st64{fill:none;stroke:#E90302;stroke-width:6;stroke-linecap:round;stroke-miterlimit:10;}
	
		.st65{clip-path:url(#SVGID_00000055671235558106088110000011318431586611413398_);fill:#FCCF72;stroke:#1A2276;stroke-width:6;stroke-miterlimit:10;}
	
		.st66{clip-path:url(#SVGID_00000046297767457990655670000010362822173564232362_);fill:#FCCF72;stroke:#1A2276;stroke-width:6;stroke-miterlimit:10;}
	
		.st67{clip-path:url(#SVGID_00000176730640498830085330000002657845025487775106_);fill:#FCCF72;stroke:#1A2276;stroke-width:6;stroke-miterlimit:10;}
	.st68{fill:none;stroke:#1A2276;stroke-width:7;stroke-miterlimit:10;}
	
		.st69{clip-path:url(#SVGID_00000149341519243013151110000000991570537457543567_);fill:#FCCF72;stroke:#1A2276;stroke-width:6;stroke-miterlimit:10;}
	.st70{clip-path:url(#SVGID_00000053508909703180143360000017233507527690781084_);}
	
		.st71{clip-path:url(#SVGID_00000072989011975640723130000009551013897506823615_);fill:#FCCF72;stroke:#1A2276;stroke-width:6;stroke-miterlimit:10;}
	
		.st72{clip-path:url(#SVGID_00000106148975395425143680000006246358416673669524_);fill:#FCCF72;stroke:#1A2276;stroke-width:6;stroke-miterlimit:10;}
	
		.st73{clip-path:url(#SVGID_00000054983964456004718390000008754918842504669364_);fill:#FCCF72;stroke:#1A2276;stroke-width:6;stroke-miterlimit:10;}
	.st74{clip-path:url(#SVGID_00000015336551989664289730000012636924279661850242_);}
	.st75{clip-path:url(#SVGID_00000161619886248709450610000010682768111407133831_);}
	.st76{clip-path:url(#SVGID_00000154413398064195374140000013379992232918996118_);}
	.st77{opacity:0.5;}
	.st78{clip-path:url(#SVGID_00000095318868548736686120000016119874918877810341_);}
	.st79{clip-path:url(#SVGID_00000124152081412279666310000014737231425199387554_);}
	.st80{fill:#FFFDFD;}
	.st81{clip-path:url(#SVGID_00000103978158623827346280000017893126648693718718_);}
	.st82{opacity:0.8;}
	
		.st83{clip-path:url(#SVGID_00000038413297856126094060000015487602879089789577_);fill:#FCCF72;stroke:#1A2276;stroke-width:6;stroke-miterlimit:10;}
	
		.st84{clip-path:url(#SVGID_00000147202961455988803910000015175278747317011618_);fill:#FCCF72;stroke:#1A2276;stroke-width:6;stroke-miterlimit:10;}
	.st85{clip-path:url(#SVGID_00000130642694974311810690000012263413082695003029_);}
	.st86{clip-path:url(#SVGID_00000032607905371543467370000016391745594288270270_);}
	.st87{clip-path:url(#SVGID_00000162346065714713534500000017046087623585982596_);}
	.st88{clip-path:url(#SVGID_00000147903868434510340990000003482068297924430267_);}
	.st89{clip-path:url(#SVGID_00000169535872165390675410000002347075447338570924_);}
	.st90{fill:none;stroke:#1A2276;stroke-width:19;stroke-miterlimit:10;}
	.st91{clip-path:url(#SVGID_00000016761710913481685280000016833179176691239315_);}
	.st92{fill:none;stroke:#1A2276;stroke-width:10;stroke-miterlimit:10;}
	.st93{clip-path:url(#SVGID_00000003795973260198679990000014014996797406216845_);}
	.st94{clip-path:url(#SVGID_00000013893665081561001880000012806223580607944068_);fill:#FCCF72;}
	.st95{clip-path:url(#SVGID_00000013893665081561001880000012806223580607944068_);fill:#1A2276;}
	.st96{clip-path:url(#SVGID_00000065782513700706684470000017245364325776525205_);}
	.st97{clip-path:url(#SVGID_00000060708815113123151780000016596960309837029515_);}
	.st98{clip-path:url(#SVGID_00000060708815113123151780000016596960309837029515_);fill:none;}
	.st99{clip-path:url(#SVGID_00000127750441528583996670000013273608957178698166_);fill:#8288A8;}
	.st100{clip-path:url(#SVGID_00000127750441528583996670000013273608957178698166_);fill:#FCCF72;}
	.st101{fill:#FFFFFF;stroke:#FFFFFF;stroke-width:6;stroke-miterlimit:10;}
	.st102{fill:none;stroke:#8288A8;stroke-width:6;stroke-miterlimit:10;}
	.st103{clip-path:url(#SVGID_00000066489950261501184390000000712808173733509783_);}
	.st104{clip-path:url(#SVGID_00000127764632446191344550000009765761045413620901_);}
	.st105{clip-path:url(#SVGID_00000155836286488167046530000014344439233108210073_);}
	.st106{font-size:28px;}
	.st107{font-family:'Aptly';}
	.st108{font-size:70.9205px;}
	.st109{clip-path:url(#SVGID_00000181066728009048313540000009862300993235990965_);}
	.st110{clip-path:url(#SVGID_00000126300246822050390600000014119743553556284583_);}
	.st111{fill:#EBEAD8;stroke:#1A2276;stroke-width:12;stroke-miterlimit:10;}
	.st112{fill:none;stroke:#1A2276;stroke-width:12;stroke-miterlimit:10;}
	.st113{clip-path:url(#SVGID_00000112617621227241816920000010548061084292045225_);}
	.st114{clip-path:url(#SVGID_00000165224293611006036570000003620967889565820084_);}
	.st115{clip-path:url(#SVGID_00000172400052678122411820000002848974035166378641_);}
	.st116{clip-path:url(#SVGID_00000129901725915940036290000017280687811821717398_);}
	.st117{clip-path:url(#SVGID_00000112601737412560580610000011488311405268225454_);}
	.st118{clip-path:url(#SVGID_00000181775377400533591440000003626757713065621407_);fill:#8288A8;}
	.st119{clip-path:url(#SVGID_00000181775377400533591440000003626757713065621407_);fill:#FCCF72;}
	.st120{clip-path:url(#SVGID_00000165934636973626853160000002250291579081270453_);}
	.st121{clip-path:url(#SVGID_00000116935836241184330350000009556958600679653028_);fill:#E90302;}
	.st122{clip-path:url(#SVGID_00000040558795936584265350000013587391895402429353_);fill:none;}
	.st123{clip-path:url(#SVGID_00000061435055818352356970000012626200367037241232_);}
	.st124{clip-path:url(#SVGID_00000182503183839453546450000007780996599159074944_);}
	.st125{clip-path:url(#SVGID_00000098216618998588247890000000558678183783985031_);}
	.st126{clip-path:url(#SVGID_00000164483851092367933560000002444264519524437925_);}
	.st127{clip-path:url(#SVGID_00000121267340869643270450000015554275520454998679_);}
	.st128{clip-path:url(#SVGID_00000150096111147575620630000016168941143936102274_);}
	.st129{clip-path:url(#SVGID_00000087393796366707399510000015756591905577129361_);}
	.st130{clip-path:url(#SVGID_00000001640556145976096530000007919088228270144945_);}
	.st131{clip-path:url(#SVGID_00000127751057461814368030000007722356443278785672_);}
	.st132{clip-path:url(#SVGID_00000099660185280902514220000007702436095624896145_);}
	.st133{clip-path:url(#SVGID_00000072983482253227285840000008136366701164397243_);}
	.st134{clip-path:url(#SVGID_00000026121035707565957000000015781977865467791022_);}
	.st135{clip-path:url(#SVGID_00000178899102441117266350000010941655404263575697_);fill:#EBEAD8;}
	.st136{clip-path:url(#SVGID_00000178899102441117266350000010941655404263575697_);}
	.st137{clip-path:url(#SVGID_00000011023471288609369700000014614021042069662909_);}
	.st138{clip-path:url(#SVGID_00000005952979187474442690000005954063995968592831_);}
	.st139{clip-path:url(#SVGID_00000118368458300417144710000015561141178262427265_);}
	.st140{clip-path:url(#SVGID_00000056426408654326510040000001929700161778230171_);}
	.st141{clip-path:url(#SVGID_00000031887148151202065370000004603857208678473637_);}
	.st142{fill:#ED8376;stroke:#1A2276;stroke-width:6;stroke-miterlimit:10;}
	.st143{fill:url(#);stroke:#1A2276;stroke-width:6;stroke-miterlimit:10;}
	.st144{clip-path:url(#SVGID_00000026163771307542334620000015179600047169141417_);}
	
		.st145{clip-path:url(#SVGID_00000036966542122191608910000009763032139957244325_);fill:#FCCF72;stroke:#1A2276;stroke-width:6;stroke-miterlimit:10;}
	.st146{fill:none;stroke:#FCCF72;stroke-width:6;stroke-linecap:round;stroke-miterlimit:10;}
	.st147{clip-path:url(#SVGID_00000117670169412497476730000001095800215978067880_);}
</style>
<g id="guias" class="st0">
</g>
<g id="Layer_2">
</g>
<g id="Layer_1">
	<rect x="1.5" y="1" class="st6" width="897" height="897"/>
	<g>
		<polygon class="st7" points="225.2,67.4 223.2,98.4 241.5,123.9 220.1,146 218.1,177 187.4,179.8 166,201.9 140.3,184.1 
			109.5,186.9 100.8,156.8 75.1,139 87.5,110.8 78.9,80.7 106.6,67.5 119.1,39.2 149.1,47.2 176.8,34 195.2,59.4 		"/>
		<g>
			<g>
				<path class="st6" d="M146.8,161.9c0-4.7,3.8-8.5,8.5-8.5c4.7,0,8.5,3.8,8.5,8.5v5.3h4.6c4.7,0,8.5,3.8,8.5,8.5s-3.8,8.5-8.5,8.5
					h-12.8c-4,0-7.3-2.7-8.3-6.4c-0.4-1-0.6-2-0.6-3.2V161.9z"/>
				<path class="st5" d="M168.4,185.4h-12.8c-4.4,0-8.2-2.9-9.3-7.2c-0.4-1.1-0.7-2.3-0.7-3.5v-12.8c0-5.3,4.3-9.6,9.6-9.6
					c5.3,0,9.6,4.3,9.6,9.6v4.3h3.5c5.3,0,9.6,4.3,9.6,9.6C178,181.1,173.7,185.4,168.4,185.4z M155.3,154.5c-4.1,0-7.4,3.3-7.4,7.4
					v12.8c0,1,0.2,1.9,0.5,2.8l0,0.1c0.8,3.3,3.8,5.6,7.2,5.6h12.8c4.1,0,7.4-3.3,7.4-7.4c0-4.1-3.3-7.4-7.4-7.4h-5.7v-6.4
					C162.8,157.8,159.4,154.5,155.3,154.5z"/>
			</g>
			<g>
				<line class="st6" x1="176.9" y1="177.7" x2="147.5" y2="177.7"/>
				<rect x="147.5" y="176.7" class="st5" width="29.4" height="2.1"/>
			</g>
			<g>
				<line class="st6" x1="163.8" y1="167.3" x2="159.4" y2="173.1"/>
				
					<rect x="157.9" y="169.1" transform="matrix(0.6034 -0.7974 0.7974 0.6034 -71.6418 196.371)" class="st5" width="7.3" height="2.1"/>
			</g>
			<g>
				<line class="st6" x1="168.1" y1="168" x2="163.6" y2="173.9"/>
				
					<rect x="162.2" y="169.9" transform="matrix(0.6034 -0.7974 0.7974 0.6034 -70.5196 200.0464)" class="st5" width="7.3" height="2.1"/>
			</g>
			<g>
				<line class="st6" x1="172.3" y1="168.7" x2="167.9" y2="174.6"/>
				
					<rect x="166.4" y="170.6" transform="matrix(0.6034 -0.7974 0.7974 0.6034 -69.3973 203.7218)" class="st5" width="7.3" height="2.1"/>
			</g>
			<g>
				<circle class="st6" cx="154.4" cy="168.2" r="3.5"/>
				<path class="st5" d="M154.4,172.8c-2.5,0-4.6-2.1-4.6-4.6c0-2.5,2.1-4.6,4.6-4.6s4.6,2.1,4.6,4.6
					C159,170.7,157,172.8,154.4,172.8z M154.4,165.7c-1.4,0-2.5,1.1-2.5,2.5s1.1,2.5,2.5,2.5s2.5-1.1,2.5-2.5
					S155.8,165.7,154.4,165.7z"/>
			</g>
			<g>
				<g>
					<path class="st6" d="M114.2,161.9c0-4.7,3.8-8.5,8.5-8.5s8.5,3.8,8.5,8.5v5.3h4.6c4.7,0,8.5,3.8,8.5,8.5s-3.8,8.5-8.5,8.5H123
						c-4,0-7.3-2.7-8.3-6.4c-0.4-1-0.6-2-0.6-3.2V161.9z"/>
					<path class="st5" d="M135.8,185.4H123c-4.4,0-8.2-2.9-9.3-7.2c-0.4-1.1-0.7-2.3-0.7-3.5v-12.8c0-5.3,4.3-9.6,9.6-9.6
						c5.3,0,9.6,4.3,9.6,9.6v4.3h3.5c5.3,0,9.6,4.3,9.6,9.6C145.4,181.1,141.1,185.4,135.8,185.4z M122.7,154.5
						c-4.1,0-7.4,3.3-7.4,7.4v12.8c0,1,0.2,1.9,0.5,2.8l0,0.1c0.8,3.3,3.8,5.6,7.2,5.6h12.8c4.1,0,7.4-3.3,7.4-7.4
						c0-4.1-3.3-7.4-7.4-7.4h-5.7v-6.4C130.1,157.8,126.8,154.5,122.7,154.5z"/>
				</g>
				<g>
					<line class="st6" x1="144.3" y1="177.7" x2="114.9" y2="177.7"/>
					<rect x="114.9" y="176.7" class="st5" width="29.4" height="2.1"/>
				</g>
				<g>
					<line class="st6" x1="131.2" y1="167.3" x2="126.8" y2="173.1"/>
					
						<rect x="125.3" y="169.1" transform="matrix(0.6034 -0.7974 0.7974 0.6034 -84.5827 170.3497)" class="st5" width="7.3" height="2.1"/>
				</g>
				<g>
					<line class="st6" x1="135.5" y1="168" x2="131" y2="173.9"/>
					
						<rect x="129.6" y="169.9" transform="matrix(0.6034 -0.7974 0.7974 0.6034 -83.4605 174.0251)" class="st5" width="7.3" height="2.1"/>
				</g>
				<g>
					<line class="st6" x1="139.7" y1="168.7" x2="135.3" y2="174.6"/>
					
						<rect x="133.8" y="170.6" transform="matrix(0.6034 -0.7974 0.7974 0.6034 -82.3382 177.7005)" class="st5" width="7.3" height="2.1"/>
				</g>
				<g>
					<circle class="st6" cx="121.8" cy="168.2" r="3.5"/>
					<path class="st5" d="M121.8,172.8c-2.5,0-4.6-2.1-4.6-4.6c0-2.5,2.1-4.6,4.6-4.6s4.6,2.1,4.6,4.6
						C126.4,170.7,124.3,172.8,121.8,172.8z M121.8,165.7c-1.4,0-2.5,1.1-2.5,2.5s1.1,2.5,2.5,2.5c1.4,0,2.5-1.1,2.5-2.5
						S123.2,165.7,121.8,165.7z"/>
				</g>
			</g>
			<g>
				<ellipse class="st6" cx="148.7" cy="125.4" rx="38.1" ry="29.8"/>
				<path class="st5" d="M148.7,156.3c-19.3,0-29,0-34-3.9c-5.2-4-5.2-11.7-5.2-26.9s0-22.9,5.2-26.9c5.1-3.9,14.7-3.9,34-3.9
					c19.3,0,29,0,34,3.7c5.2,3.8,5.2,11.1,5.2,25.5l0,1.6l0,1.6c0,14.4,0,21.7-5.2,25.5C177.7,156.3,168,156.3,148.7,156.3z
					 M148.7,96.7c-18.8,0-28.2,0-32.7,3.5c-4.4,3.4-4.4,10.7-4.4,25.2s0,21.8,4.4,25.2c4.5,3.5,13.9,3.5,32.7,3.5
					c18.8,0,28.3,0,32.7-3.3c4.3-3.2,4.3-10.1,4.3-23.8l0-1.6l0-1.6c0-13.7,0-20.6-4.3-23.8C177,96.7,167.6,96.7,148.7,96.7z"/>
			</g>
			<g>
				<path class="st8" d="M148.9,144.6c-38.8,0-38.3-12.2-38.3-11.5c0,27.8,0.2,27.8,38.1,27.8c37.3,0,38.1,0,38.1-27.8
					C186.9,132.4,187.1,144.6,148.9,144.6z"/>
				<path class="st5" d="M148.8,162c-19.2,0-28.9,0-33.9-3.7c-5.3-3.8-5.3-11.4-5.3-25.2h0c0-0.5,0.2-0.7,0.3-0.8l0.5-0.5l1.3,0.5
					v0.7c0.1,0.5,2,10.5,37.2,10.5c35.1,0,36.9-10.2,36.9-10.6l0.1-1l2,0.1l0,1c0,14.4-0.2,21.5-5.5,25.2
					C177.3,162,167.8,162,148.8,162z M111.7,137.1c0,10.8,0.5,16.6,4.4,19.4c4.5,3.3,13.9,3.3,32.7,3.3c18.5,0,27.8,0,32.4-3.3
					c4-2.8,4.6-8.5,4.6-19.5c-0.9,0.9-2.1,1.9-3.7,2.9c-6.6,3.8-17.8,5.7-33.1,5.7c-13.4,0-23.6-1.4-30.5-4.3
					C115.1,140,113,138.5,111.7,137.1z"/>
			</g>
			<g>
				<line class="st6" x1="182.2" y1="113.4" x2="126.7" y2="113.4"/>
				<rect x="126.7" y="112.3" class="st5" width="55.5" height="2.1"/>
			</g>
			<g>
				<line class="st6" x1="120.2" y1="112.7" x2="120.2" y2="119.7"/>
				<rect x="119.1" y="112.7" class="st5" width="2.1" height="7.1"/>
			</g>
			<g>
				<path class="st6" d="M174.9,123.8c0,0-1.6-4.6-6.5-3.8c-4.9,0.8-5.5,3.8-5.5,3.8"/>
				<path class="st5" d="M173.9,124.1c-0.1-0.2-1.4-3.8-5.4-3.1c-4,0.7-4.6,2.9-4.6,3l-2.1-0.4c0-0.2,0.7-3.7,6.3-4.7
					c4.6-0.8,7.1,2.6,7.7,4.5L173.9,124.1z"/>
			</g>
			<g>
				<path class="st6" d="M152.6,124.1c0,0-1.6-4.6-6.5-3.8c-4.9,0.8-5.5,3.8-5.5,3.8"/>
				<path class="st5" d="M151.6,124.5c-0.1-0.2-1.4-3.8-5.4-3.1c-4,0.7-4.6,2.9-4.6,3l-2.1-0.4c0-0.2,0.7-3.7,6.3-4.7
					c4.6-0.8,7.1,2.6,7.7,4.5L151.6,124.5z"/>
			</g>
			<g>
				<path class="st6" d="M164.8,128.3c0,0,1.3,5.3-4.4,6.1c-6,0.9-6.4-5.1-6.4-5.1"/>
				<path class="st5" d="M159.1,135.6c-1.5,0-2.8-0.4-3.8-1.3c-2.2-1.8-2.5-4.8-2.5-4.9l2.1-0.2c0,0,0.2,2.2,1.7,3.4
					c0.9,0.7,2,0.9,3.5,0.7c1.4-0.2,2.5-0.8,3-1.6c0.9-1.4,0.5-3.2,0.5-3.2l2.1-0.5c0,0.1,0.6,2.7-0.8,4.9c-0.9,1.4-2.4,2.2-4.5,2.5
					C160,135.6,159.6,135.6,159.1,135.6z"/>
			</g>
			<g>
				<path class="st6" d="M102.5,128.1c4.3-1.9,9.3,0.1,11.2,4.4l5.1,11.7c1.9,4.3-0.1,9.3-4.4,11.2c-4.3,1.9-9.3-0.1-11.2-4.4
					l-5.1-11.7C96.2,135,98.2,130,102.5,128.1z"/>
				<path class="st5" d="M111.1,157.2c-1.2,0-2.4-0.2-3.5-0.7c-2.4-0.9-4.3-2.7-5.3-5.1l-5.1-11.7c-2.1-4.8,0.1-10.5,4.9-12.6
					c2.3-1,4.9-1.1,7.3-0.1c2.4,0.9,4.3,2.7,5.3,5.1l5.1,11.7c1,2.3,1.1,4.9,0.1,7.3c-0.9,2.4-2.7,4.3-5.1,5.3
					C113.7,156.9,112.4,157.2,111.1,157.2z M105.9,128.5c-1,0-2,0.2-3,0.6c-1.8,0.8-3.2,2.3-3.9,4.1c-0.7,1.9-0.7,3.9,0.1,5.7
					l5.1,11.7c1.6,3.8,6,5.5,9.8,3.8c1.8-0.8,3.2-2.3,3.9-4.1c0.7-1.9,0.7-3.9-0.1-5.7l-5.1-11.7
					C111.5,130.1,108.8,128.5,105.9,128.5z"/>
			</g>
			<g>
				<circle class="st5" cx="118.1" cy="97.8" r="13.5"/>
			</g>
			<g>
				<circle class="st5" cx="162.1" cy="82.2" r="13.5"/>
			</g>
			<g>
				<ellipse class="st5" cx="141.9" cy="86.4" rx="24.5" ry="18.4"/>
			</g>
			<g>
				<ellipse class="st5" cx="170.3" cy="86.4" rx="24.5" ry="18.4"/>
			</g>
			<g>
				<g>
					<ellipse class="st6" cx="191.3" cy="116.2" rx="11.4" ry="9.6"/>
					<path class="st5" d="M191.3,126.8c-6.9,0-12.5-4.8-12.5-10.7s5.6-10.7,12.5-10.7c6.9,0,12.5,4.8,12.5,10.7
						S198.1,126.8,191.3,126.8z M191.3,107.6c-5.7,0-10.3,3.8-10.3,8.6c0,4.7,4.6,8.6,10.3,8.6c5.7,0,10.3-3.8,10.3-8.6
						C201.6,111.4,197,107.6,191.3,107.6z"/>
				</g>
				<g>
					<path class="st6" d="M204.8,86.2c-2.5-1.3-5.7-0.1-7.1,2.6c0,0.1-0.1,0.1-0.1,0.2l0,0l-3.8,7.6v-8.5h0c0-0.1,0-0.1,0-0.2
						c0-3.1-2.3-5.5-5.2-5.5s-5.2,2.5-5.2,5.5c0,0.1,0,0.1,0,0.2h0v15.3h8.6l7.9,4l6.9-13.7l0,0c0-0.1,0.1-0.1,0.1-0.2
						C208.3,90.8,207.3,87.5,204.8,86.2z"/>
					<path class="st5" d="M200.4,108.8l-8.6-4.3h-9.4V87h0.1c0.4-3.2,3-5.7,6.2-5.7s5.8,2.5,6.2,5.7h0l0,0.7c0,0.1,0,0.1,0,0.2
						c0,0,0,0,0,0.1l0,0.1v4.1l2.3-4.5l0,0c0.8-1.2,1.9-2.1,3.2-2.6c1.6-0.6,3.3-0.5,4.8,0.2c1.5,0.8,2.6,2.1,3.1,3.7
						c0.4,1.4,0.3,2.8-0.1,4.1l0,0l-0.3,0.6c0,0.1-0.1,0.1-0.1,0.2c0,0,0,0,0,0.1l-0.1,0.1L200.4,108.8z M184.5,102.3h7.8l7.2,3.6
						l5.9-11.7l0,0l0.5-1c0,0,0-0.1,0.1-0.1l0,0c0.5-1.1,0.7-2.3,0.3-3.4c-0.3-1.1-1-2-2-2.4c-1-0.5-2.1-0.5-3.1-0.1
						c-1.1,0.4-2,1.2-2.5,2.3l0,0c0,0,0,0.1,0,0.1l-0.5,1l0,0l-5.3,10.6v-12h0l0-1.3c0-2.5-1.8-4.5-4.1-4.5s-4.1,2-4.1,4.5l0,0.2
						l0,1.1h0V102.3z"/>
				</g>
				<g>
					<path class="st6" d="M192.4,109.9c-2.3,1.1-3.3,4.1-2.1,6.6c1.2,2.6,4.1,3.8,6.4,2.7c0,0,0.1-0.1,0.1-0.1l0,0l7.8-3.2
						c4.4-3.7,0.9-10.5-4.3-9.4l-7.8,3.2l0,0C192.5,109.9,192.5,109.9,192.4,109.9z"/>
					<path class="st5" d="M194.9,120.8c-2.3,0-4.5-1.4-5.6-3.8c-1.3-2.8-0.5-6,1.8-7.6l0-0.1l1-0.4l7.9-3.3l0.1,0
						c2.8-0.6,5.6,0.7,6.9,3.4c1.4,2.7,0.7,5.8-1.7,7.9l-0.1,0.1l-8,3.3c0,0,0,0-0.1,0c-0.2,0.1-0.3,0.1-0.5,0.2l-0.4,0.1l0,0
						C195.9,120.7,195.4,120.8,194.9,120.8z M192.4,109.9l0.4,1c-1.8,0.8-2.5,3.2-1.6,5.2c0.9,2.1,3.2,3.1,5,2.2l0.1-0.1l1-0.5
						l0,0.1l6.7-2.8c1.8-1.7,1.7-3.8,1-5.2c-0.7-1.3-2.2-2.7-4.5-2.3l-6.7,2.8l0,0l-1.1,0.5L192.4,109.9L192.4,109.9z"/>
				</g>
				<g>
					<path class="st6" d="M189.3,103.2c-2.8,1.3-4.1,4.4-2.9,7c1.2,2.6,4.4,3.7,7.2,2.4c0.1,0,0.1-0.1,0.2-0.1l0,0l9.3-3.9
						c5.3-4.2,1.8-10.9-4.3-9.4l-9.3,3.9l0,0C189.4,103.1,189.3,103.1,189.3,103.2z"/>
					<path class="st5" d="M191.2,114.2c-2.4,0-4.7-1.3-5.7-3.5c-0.7-1.5-0.7-3.2-0.1-4.8c0.5-1.3,1.5-2.4,2.7-3.2l0-0.1l1-0.4
						l9.4-3.9c3.8-1,6.5,0.9,7.6,3.1c1.4,2.8,0.4,6-2.4,8.2l-0.1,0.1l-9.4,4c0,0-0.1,0-0.1,0c-0.2,0.1-0.4,0.2-0.6,0.2l-0.3,0.1l0,0
						C192.5,114,191.8,114.2,191.2,114.2z M189.7,104.1c-1.1,0.5-1.9,1.4-2.4,2.4c-0.4,1-0.4,2.2,0,3.1c0.9,2.1,3.5,2.9,5.8,1.9
						l0.1-0.1l1-0.5l0,0.1l8.2-3.4c2.3-1.9,2.4-4,1.7-5.5c-0.7-1.3-2.4-2.7-5.1-2l-9.2,3.9C189.8,104.1,189.8,104.1,189.7,104.1
						L189.7,104.1z"/>
				</g>
				<g>
					<path class="st6" d="M183.9,103.5c-2.4-0.9-5.2,0.6-6.2,3.3s0.2,5.6,2.6,6.4c0.1,0,0.1,0,0.2,0l0,0l7.8,3.2
						c5.7,0.4,8-6.9,3.5-9.7l-7.8-3.2l0,0C184,103.5,184,103.5,183.9,103.5z"/>
					<path class="st5" d="M188.8,117.5c-0.2,0-0.4,0-0.5,0l-0.2,0l-8-3.3c0,0-0.1,0-0.1,0c-0.2-0.1-0.3-0.1-0.5-0.2l-0.3-0.1l0,0
						c-2.4-1.4-3.5-4.5-2.5-7.5c0.6-1.5,1.6-2.8,3-3.5c1.1-0.6,2.4-0.8,3.6-0.6l0-0.1l1,0.4l7.9,3.2l0.1,0c2.4,1.5,3.5,4.5,2.5,7.2
						C194.1,115.8,191.7,117.5,188.8,117.5z M188.6,115.4c2.5,0.1,3.9-1.5,4.4-3c0.5-1.4,0.3-3.5-1.6-4.7l-7.7-3.2c0,0-0.1,0-0.1,0
						l0,0c-0.9-0.3-1.9-0.2-2.8,0.2c-0.9,0.5-1.6,1.3-2,2.4c-0.8,2.1,0.1,4.4,2,5.1l0.1,0l1,0.3l0,0.1L188.6,115.4z"/>
				</g>
			</g>
		</g>
	</g>
	<g>
		<g>
			<polygon class="st8" points="829.1,410.6 71,463.4 71,396.7 829.1,343.8 			"/>
		</g>
		<text transform="matrix(1 -6.972903e-02 0 1 116.3905 443.6202)" class="st6 st44 st45 st46">INCREÍBLE · FANTÁSTICA · APOTEÓSICA</text>
	</g>
	<g>
		<g>
			<polygon class="st5" points="66,158 834.1,104.4 834.1,331.7 66,385.2 			"/>
			<path class="st6" d="M829.1,109.8V327L71,379.8V162.6L829.1,109.8 M839.1,99.1l-10.7,0.7L70.3,152.7l-9.3,0.6v9.3v217.2v10.7
				l10.7-0.7L829.8,337l9.3-0.6V327V109.8V99.1L839.1,99.1z"/>
		</g>
		<g>
			<text transform="matrix(1 -6.972903e-02 0 1 198.8818 323.5103)" class="st5 st44 st47">El dominio</text>
			<text transform="matrix(1 -6.972903e-02 0 1 198.4897 326.7534)" class="st10 st44 st47">El dominio</text>
			<text transform="matrix(1 -6.972903e-02 0 1 204.4898 320.3351)" class="st5 st44 st47">El dominio</text>
			<text transform="matrix(1 -6.972903e-02 0 1 214.8816 312.3946)" class="st6 st44 st47">El dominio</text>
		</g>
	</g>
</g>
<g id="web">
	<g>
		<g>
			<path class="st6" d="M720.3,821.6V771H518.7v50.7H467V771h-12.4v-56.8c-30.3-2.5-54.1-28-54.1-58.9c0-20.3,10.5-39.1,27.3-49.8
				v-82.8c0-13.1,10.7-23.8,23.8-23.8h49.2c2.1-3.7,5-7.1,8.4-9.8c4.1-3.3,8.8-5.7,13.8-7c-0.2-0.5-0.4-1-0.6-1.4
				c-31.5-7.9-54.3-36.7-54.3-69.7c0-9.8,2-19.3,5.8-28.3l11-25.5l11,25.5c5.1,11.9,14.8,21.2,26.6,25.8c0.5-4,0.9-7.8,1.3-11.3
				c3-25.7,4.9-42.6,18.3-54.3c12.1-10.6,30.8-14.3,71.4-14.3c38.6,0,58.5,4.5,70.8,16c13,12.2,15.2,29.6,18.2,53.8
				c0.4,3.2,0.8,6.5,1.3,10.1c11.8-4.6,21.6-13.9,26.7-25.8l11-25.5l11,25.5c3.8,9,5.8,18.5,5.8,28.3c0,17.4-6.3,34.2-17.7,47.2
				c-9.7,11.1-22.4,18.9-36.5,22.5c-2.7,6.1-6.5,11.2-11.5,15.5c1.1,0.9,2.2,1.9,3.2,2.8h91.8c13.1,0,23.8,10.7,23.8,23.8v82.2
				c17.4,10.6,28.3,29.7,28.3,50.4c0,31.3-24.4,56.9-55.1,59V771H772v50.7H720.3z"/>
		</g>
		<g>
			<path class="st6" d="M720.3,821.6V771H518.7v50.7H467V771h-12.4v-56.8c-30.3-2.5-54.1-28-54.1-58.9c0-20.3,10.5-39.1,27.3-49.8
				v-82.8c0-13.1,10.7-23.8,23.8-23.8h49.2c2.1-3.7,5-7.1,8.4-9.8c4.1-3.3,8.8-5.7,13.8-7c-0.2-0.5-0.4-1-0.6-1.4
				c-31.5-7.9-54.3-36.7-54.3-69.7c0-9.8,2-19.3,5.8-28.3l11-25.5l11,25.5c5.1,11.9,14.8,21.2,26.6,25.8c0.5-4,0.9-7.8,1.3-11.3
				c3-25.7,4.9-42.6,18.3-54.3c12.1-10.6,30.8-14.3,71.4-14.3c38.6,0,58.5,4.5,70.8,16c13,12.2,15.2,29.6,18.2,53.8
				c0.4,3.2,0.8,6.5,1.3,10.1c11.8-4.6,21.6-13.9,26.7-25.8l11-25.5l11,25.5c3.8,9,5.8,18.5,5.8,28.3c0,17.4-6.3,34.2-17.7,47.2
				c-9.7,11.1-22.4,18.9-36.5,22.5c-2.7,6.1-6.5,11.2-11.5,15.5c1.1,0.9,2.2,1.9,3.2,2.8h91.8c13.1,0,23.8,10.7,23.8,23.8v82.2
				c17.4,10.6,28.3,29.7,28.3,50.4c0,31.3-24.4,56.9-55.1,59V771H772v50.7H720.3z"/>
		</g>
		<g>
			<path class="st6" d="M720.3,821.6V771H518.7v50.7H467V771h-12.4v-56.8c-30.3-2.5-54.1-28-54.1-58.9c0-20.3,10.5-39.1,27.3-49.8
				v-82.8c0-13.1,10.7-23.8,23.8-23.8h49.2c2.1-3.7,5-7.1,8.4-9.8c4.1-3.3,8.8-5.7,13.8-7c-0.2-0.5-0.4-1-0.6-1.4
				c-31.5-7.9-54.3-36.7-54.3-69.7c0-9.8,2-19.3,5.8-28.3l11-25.5l11,25.5c5.1,11.9,14.8,21.2,26.6,25.8c0.5-4,0.9-7.8,1.3-11.3
				c3-25.7,4.9-42.6,18.3-54.3c12.1-10.6,30.8-14.3,71.4-14.3c38.6,0,58.5,4.5,70.8,16c13,12.2,15.2,29.6,18.2,53.8
				c0.4,3.2,0.8,6.5,1.3,10.1c11.8-4.6,21.6-13.9,26.7-25.8l11-25.5l11,25.5c3.8,9,5.8,18.5,5.8,28.3c0,17.4-6.3,34.2-17.7,47.2
				c-9.7,11.1-22.4,18.9-36.5,22.5c-2.7,6.1-6.5,11.2-11.5,15.5c1.1,0.9,2.2,1.9,3.2,2.8h91.8c13.1,0,23.8,10.7,23.8,23.8v82.2
				c17.4,10.6,28.3,29.7,28.3,50.4c0,31.3-24.4,56.9-55.1,59V771H772v50.7H720.3z"/>
		</g>
		<g>
			<path class="st8" d="M799.3,612v-89.4c0-6.6-5.4-11.9-11.9-11.9h-96.6c-6.2-6.2-13.1-11.6-20.7-16c14.2-4.8,21.6-12.7,24.7-24.5
				c29-4.2,51.3-29.2,51.3-59.3c0-8.4-1.7-16.4-4.8-23.6c-8.2,19.2-26.1,33.2-47.6,35.9c0-0.1,0-0.2,0-0.3
				c-9.7-63.3,0.4-82.5-80.2-82.5c-82.1,0-71.1,14.6-81,82.5c0,0.1,0,0.2,0,0.3c-21.5-2.7-39.4-16.7-47.6-35.9
				c-3.1,7.2-4.8,15.2-4.8,23.6c0,30.2,22.4,55.3,51.5,59.4c3.5,13.6,12.4,21.6,29.8,26.1c-3.4,2.1-6.6,4.4-9.7,6.9l-1.4-1.7
				c-8.3-10.2-23.4-11.7-33.5-3.4c-4.1,3.3-6.8,7.8-8,12.5h-57.1c-6.6,0-11.9,5.4-11.9,11.9v89.8c-16.1,7.5-27.3,23.8-27.3,42.8
				c0,26.1,21.1,47.2,47.2,47.2c2.4,0,4.7-0.2,7-0.5V759H479v50.7h27.8V759h225.5v50.7H760V759h12.4v-57.3c2.6,0.4,5.2,0.7,7.9,0.7
				c26.1,0,47.2-21.1,47.2-47.2C827.6,635.9,815.9,619.3,799.3,612z"/>
		</g>
		<g>
			<path class="st8" d="M787.3,692.5H451.7c-6.6,0-12-5.4-12-12V522.7c0-6.6,5.4-12,12-12h335.5c6.6,0,12,5.4,12,12v157.8
				C799.3,687.1,793.9,692.5,787.3,692.5z"/>
			<path class="st14" d="M787.4,695.5H451.7c-8.2,0-14.9-6.7-14.9-14.9V522.7c0-8.2,6.7-14.9,14.9-14.9h335.7
				c8.2,0,14.9,6.7,14.9,14.9v157.9C802.3,688.8,795.6,695.5,787.4,695.5z M451.7,513.7c-4.9,0-8.9,4-8.9,8.9v157.9
				c0,4.9,4,8.9,8.9,8.9h335.7c4.9,0,8.9-4,8.9-8.9V522.7c0-4.9-4-8.9-8.9-8.9H451.7z"/>
		</g>
		<g>
			<rect x="466.5" y="662.7" class="st8" width="305.9" height="96.3"/>
			<path class="st14" d="M775.4,762H463.6V659.7h311.9V762z M469.5,756.1h300v-90.4h-300V756.1z"/>
		</g>
		<g>
			<circle class="st8" cx="459.6" cy="655.3" r="47.2"/>
			<path class="st14" d="M459.6,705.4c-27.7,0-50.2-22.5-50.2-50.2c0-27.7,22.5-50.2,50.2-50.2s50.2,22.5,50.2,50.2
				C509.8,682.9,487.3,705.4,459.6,705.4z M459.6,611.1c-24.4,0-44.2,19.8-44.2,44.2c0,24.4,19.8,44.2,44.2,44.2
				c24.4,0,44.2-19.8,44.2-44.2C503.8,630.9,484,611.1,459.6,611.1z"/>
		</g>
		<g>
			<circle class="st8" cx="780.4" cy="655.3" r="47.2"/>
			<path class="st14" d="M780.4,705.4c-27.7,0-50.2-22.5-50.2-50.2c0-27.7,22.5-50.2,50.2-50.2c27.7,0,50.2,22.5,50.2,50.2
				C830.6,682.9,808.1,705.4,780.4,705.4z M780.4,611.1c-24.4,0-44.2,19.8-44.2,44.2c0,24.4,19.8,44.2,44.2,44.2
				c24.4,0,44.2-19.8,44.2-44.2C824.6,630.9,804.8,611.1,780.4,611.1z"/>
		</g>
		<g>
			<path class="st9" d="M539.9,423.6c-24.7,0-46-15-55.1-36.4c-3.1,7.2-4.8,15.2-4.8,23.6c0,33.1,26.9,60,60,60s60-26.9,60-60
				c0-8.4-1.7-16.4-4.8-23.6C585.9,408.6,564.7,423.6,539.9,423.6z"/>
			<path class="st5" d="M539.9,473.8c-34.7,0-63-28.2-63-63c0-8.6,1.7-16.9,5.1-24.8l2.7-6.4l2.7,6.4c9,21,29.6,34.6,52.4,34.6
				c22.8,0,43.4-13.6,52.4-34.6l2.7-6.4l2.7,6.4c3.4,7.9,5.1,16.2,5.1,24.8C602.9,445.6,574.7,473.8,539.9,473.8z M485.2,394.8
				c-1.5,5.2-2.3,10.6-2.3,16.1c0,31.4,25.6,57,57,57c31.4,0,57-25.6,57-57c0-5.5-0.8-10.9-2.3-16.1c-11.1,19.5-31.9,31.8-54.7,31.8
				C517.1,426.6,496.3,414.3,485.2,394.8z"/>
		</g>
		<g>
			<path class="st9" d="M686.2,423.6c-24.7,0-46-15-55.1-36.4c-3.1,7.2-4.8,15.2-4.8,23.6c0,33.1,26.9,60,60,60
				c33.1,0,60-26.9,60-60c0-8.4-1.7-16.4-4.8-23.6C732.1,408.6,710.9,423.6,686.2,423.6z"/>
			<path class="st5" d="M686.2,473.8c-34.7,0-63-28.2-63-63c0-8.6,1.7-16.9,5.1-24.8l2.7-6.4l2.7,6.4c9,21,29.6,34.6,52.4,34.6
				c22.8,0,43.4-13.6,52.4-34.6l2.7-6.4l2.7,6.4c3.4,7.9,5.1,16.2,5.1,24.8C749.1,445.6,720.9,473.8,686.2,473.8z M631.4,394.8
				c-1.5,5.2-2.3,10.6-2.3,16.1c0,31.4,25.6,57,57,57c31.4,0,57-25.6,57-57c0-5.5-0.8-10.9-2.3-16.1c-11.1,19.5-31.9,31.8-54.7,31.8
				S642.6,414.3,631.4,394.8z"/>
		</g>
		<g>
			<path class="st6" d="M693.7,422.8c9,58.5,1.9,78-78.7,78c-82.1,0-91.5-15.7-82.5-78c9.8-67.8-1.1-82.5,81-82.5
				C694,340.4,683.9,359.5,693.7,422.8z"/>
			<path class="st5" d="M614.9,503.8c-45.5,0-67.7-5.1-78.9-18c-11.3-13-10.9-33.1-6.5-63.4c1.3-9,2.3-17.2,3.1-24.4
				c2.7-23.6,4.5-39.2,15.3-48.6c10.3-8.9,27.4-12.1,65.5-12.1c36.1,0,54.2,3.8,64.7,13.6c10.7,10,12.5,25.2,15.4,48.4
				c0.8,6.8,1.8,14.6,3.1,23c4.6,30,5.1,49.9-6.2,63C679.2,498.5,657.3,503.8,614.9,503.8z M613.4,343.3c-36,0-52.7,2.9-61.6,10.6
				c-9,7.9-10.6,21.8-13.3,44.8c-0.8,7.2-1.8,15.4-3.1,24.5c-5.4,37.6-2.1,50.3,5.1,58.6c9.9,11.5,30.8,16,74.4,16
				c39.9,0,61.1-4.9,71-16.3c9.8-11.4,9.2-30,4.8-58.2c-1.3-8.5-2.3-16.3-3.1-23.2c-2.7-21.8-4.5-36.3-13.5-44.8
				C664.9,346.8,647.4,343.3,613.4,343.3z"/>
		</g>
		<g>
			<path class="st6" d="M554.7,430.6c0,0,3.4-9.8,13.8-8s11.5,8,11.5,8"/>
			<path class="st5" d="M557.5,431.6l-5.6-2c1.5-4.2,6.9-11.7,17.1-10c12.3,2.1,13.9,10.1,14,10.4l-5.9,1.1c0-0.1-1.1-4.3-9.1-5.6
				C560.4,424.2,557.8,430.8,557.5,431.6z"/>
		</g>
		<g>
			<path class="st6" d="M601.9,431.3c0,0,3.4-9.8,13.8-8s11.5,8,11.5,8"/>
			<path class="st5" d="M604.7,432.3l-5.6-2c1.5-4.2,6.9-11.7,17.1-10c12.3,2.1,13.9,10.1,14,10.4l-5.9,1.1c0-0.1-1.1-4.3-9.1-5.6
				C607.4,424.9,604.8,432,604.7,432.3z"/>
		</g>
		<g>
			<path class="st6" d="M579.7,440.2c0,0-2.8,14,7.9,12.9c10.8-1,11.5-10.7,11.5-10.7"/>
			<path class="st5" d="M586.6,456.2c-3.7,0-6-1.6-7.3-3c-4.2-4.6-2.7-12.7-2.5-13.6l5.8,1.2l-2.9-0.6l2.9,0.6
				c-0.3,1.5-0.8,6.4,1.1,8.4c0.3,0.3,1.1,1.2,3.6,1c7.9-0.8,8.7-7.3,8.8-8l5.9,0.5c-0.3,4.2-3.7,12.4-14.2,13.4
				C587.5,456.1,587,456.2,586.6,456.2z"/>
		</g>
		<g>
			<defs>
				<path id="SVGID_00000129907893066637833220000003240429883208831622_" d="M690.7,422.3c8.7,56.6,1.8,75.5-76.3,75.5
					c-79.5,0-88.6-15.2-79.9-75.5c9.5-65.7-1.1-79.9,78.4-79.9C691.1,342.4,681.3,361,690.7,422.3z"/>
			</defs>
			<clipPath id="SVGID_00000144320557364192442510000002636200138259612047_">
				<use xlink:href="#SVGID_00000129907893066637833220000003240429883208831622_"  style="overflow:visible;"/>
			</clipPath>
			<g style="clip-path:url(#SVGID_00000144320557364192442510000002636200138259612047_);">
				<path class="st9" d="M640.6,278.5c-20.5,0-38.3,11.6-47.1,28.7c-7.4-3.9-15.8-6.2-24.8-6.2c-29.3,0-53,23.7-53,53s23.7,53,53,53
					c20.5,0,38.3-11.6,47.1-28.7c7.4,3.9,15.8,6.2,24.8,6.2c29.3,0,53-23.7,53-53S669.9,278.5,640.6,278.5z"/>
			</g>
			<g style="clip-path:url(#SVGID_00000144320557364192442510000002636200138259612047_);">
				<path class="st5" d="M568.7,410c-30.9,0-56-25.1-56-56s25.1-56,56-56c8.1,0,16.2,1.8,23.6,5.2c10-17.2,28.3-27.7,48.3-27.7
					c30.9,0,56,25.1,56,56c0,30.9-25.1,56-56,56c-8.1,0-16.2-1.8-23.6-5.2C607,399.5,588.8,410,568.7,410z M568.7,304
					c-27.6,0-50,22.4-50,50c0,27.6,22.4,50,50,50c18.8,0,35.8-10.4,44.4-27.1l1.4-2.7l2.7,1.4c7.2,3.8,15.3,5.8,23.4,5.8
					c27.6,0,50-22.4,50-50c0-27.6-22.4-50-50-50c-18.8,0-35.8,10.4-44.4,27.1l-1.4,2.7l-2.7-1.4C585,306,576.9,304,568.7,304z"/>
			</g>
		</g>
		<g>
			<circle class="st6" cx="617" cy="590.6" r="104.3"/>
			<path class="st5" d="M617,697.8c-59.1,0-107.3-48.1-107.3-107.3S557.9,483.3,617,483.3c59.1,0,107.3,48.1,107.3,107.3
				S676.2,697.8,617,697.8z M617,489.3c-55.9,0-101.3,45.4-101.3,101.3S561.2,691.9,617,691.9c55.9,0,101.3-45.4,101.3-101.3
				S672.9,489.3,617,489.3z"/>
		</g>
		<g>
			<circle class="st6" cx="629.7" cy="641.6" r="4.4"/>
			<path class="st5" d="M629.7,649c-4,0-7.3-3.3-7.3-7.3s3.3-7.3,7.3-7.3c4,0,7.3,3.3,7.3,7.3S633.7,649,629.7,649z M629.7,640.2
				c-0.8,0-1.4,0.6-1.4,1.4c0,0.8,0.6,1.4,1.4,1.4c0.8,0,1.4-0.6,1.4-1.4C631.1,640.9,630.4,640.2,629.7,640.2z"/>
		</g>
		<g>
			<defs>
				<circle id="SVGID_00000125587828808139331720000001120064010690589337_" cx="617" cy="593.2" r="104.3"/>
			</defs>
			<clipPath id="SVGID_00000119831808433930597700000007400546920848672901_">
				<use xlink:href="#SVGID_00000125587828808139331720000001120064010690589337_"  style="overflow:visible;"/>
			</clipPath>
			<g style="clip-path:url(#SVGID_00000119831808433930597700000007400546920848672901_);">
				<path class="st10" d="M721.3,584.5c0,57.6-53.2,8.3-110.8,8.3c-57.6,0-97.7,49.3-97.7-8.3S559.4,480.2,617,480.2
					C674.6,480.2,721.3,526.9,721.3,584.5z"/>
			</g>
		</g>
		<g>
			<path class="st6" d="M674.1,592.8c8.3,10.2,23.4,11.7,33.5,3.4l27.7-22.6c10.2-8.3,11.7-23.4,3.4-33.5
				c-8.3-10.2-23.4-11.7-33.5-3.4l-27.7,22.6C667.3,567.6,665.8,582.6,674.1,592.8z"/>
			<path class="st5" d="M692.6,604.5c-7.8,0-15.5-3.4-20.8-9.8c-9.4-11.4-7.7-28.4,3.8-37.7l27.7-22.6c11.4-9.4,28.4-7.7,37.7,3.8
				c9.4,11.4,7.7,28.4-3.8,37.7l-27.7,22.6C704.6,602.5,698.6,604.5,692.6,604.5z M720.2,534.2c-4.6,0-9.3,1.5-13.2,4.7l-27.7,22.6
				c-8.9,7.3-10.2,20.4-2.9,29.4c7.3,8.9,20.4,10.2,29.4,2.9l27.7-22.6c8.9-7.3,10.2-20.4,2.9-29.4
				C732.3,536.8,726.3,534.2,720.2,534.2z"/>
		</g>
		<g>
			
				<rect x="677.3" y="587" transform="matrix(0.7741 -0.633 0.633 0.7741 -217.6256 570.0749)" class="st5" width="25.5" height="6"/>
		</g>
		<g>
			
				<rect x="669.8" y="577.8" transform="matrix(0.7741 -0.633 0.633 0.7741 -213.4896 563.2149)" class="st5" width="25.5" height="6"/>
		</g>
		<g>
			<path class="st6" d="M569.6,562.8c10.2-8.3,11.7-23.4,3.4-33.5l-22.6-27.7c-8.3-10.2-23.4-11.7-33.5-3.4
				c-10.2,8.3-11.7,23.4-3.4,33.5l22.6,27.7C544.3,569.6,559.4,571.1,569.6,562.8z"/>
			<path class="st5" d="M554.5,571.1c-7.8,0-15.5-3.4-20.8-9.8l-22.6-27.7c-9.4-11.4-7.7-28.4,3.8-37.7c11.4-9.4,28.4-7.7,37.7,3.8
				l22.6,27.7c9.4,11.4,7.7,28.4-3.8,37.7h0C566.5,569.2,560.5,571.1,554.5,571.1z M531.8,495.8c-4.6,0-9.3,1.5-13.2,4.7
				c-8.9,7.3-10.2,20.4-2.9,29.4l22.6,27.7c7.3,8.9,20.4,10.2,29.3,2.9l0,0c8.9-7.3,10.2-20.4,2.9-29.4L548,503.5
				C543.9,498.4,537.9,495.8,531.8,495.8z"/>
		</g>
		<g>
			
				<rect x="563.8" y="534.1" transform="matrix(0.7741 -0.6331 0.6331 0.7741 -218.1545 482.3313)" class="st5" width="6" height="25.5"/>
		</g>
		<g>
			
				<rect x="554.6" y="541.7" transform="matrix(0.7741 -0.6331 0.6331 0.7741 -225.0162 478.2065)" class="st5" width="6" height="25.5"/>
		</g>
		<g>
			<ellipse class="st9" cx="543" cy="675.1" rx="39.2" ry="57.1"/>
			<path class="st5" d="M543,735.2c-23.3,0-42.2-27-42.2-60.1c0-33.1,18.9-60.1,42.2-60.1s42.2,27,42.2,60.1
				C585.2,708.3,566.3,735.2,543,735.2z M543,621c-20,0-36.3,24.3-36.3,54.1s16.3,54.1,36.3,54.1s36.3-24.3,36.3-54.1
				S563,621,543,621z"/>
		</g>
		<g>
			<ellipse class="st9" cx="719.8" cy="673.1" rx="39.2" ry="57.1"/>
			<path class="st5" d="M719.8,733.2c-23.3,0-42.2-27-42.2-60.1s18.9-60.1,42.2-60.1s42.2,27,42.2,60.1S743.1,733.2,719.8,733.2z
				 M719.8,619c-20,0-36.3,24.3-36.3,54.1s16.3,54.1,36.3,54.1s36.3-24.3,36.3-54.1S739.8,619,719.8,619z"/>
		</g>
		<g>
			<rect x="479" y="759" class="st8" width="27.8" height="50.7"/>
			<path class="st14" d="M509.8,812.7H476v-56.6h33.8V812.7z M481.9,806.7h21.9V762h-21.9V806.7z"/>
		</g>
		<g>
			<rect x="732.2" y="759" class="st8" width="27.8" height="50.7"/>
			<path class="st14" d="M763,812.7h-33.8v-56.6H763V812.7z M735.2,806.7h21.9V762h-21.9V806.7z"/>
		</g>
		<g class="st77">
			<defs>
				<path id="SVGID_00000078015143115832797910000011601426154486172806_" class="st77" d="M720.3,821.6V771H518.7v50.7H467V771
					h-12.4v-56.8c-30.3-2.5-54.1-28-54.1-58.9c0-20.3,10.5-39.1,27.3-49.8v-82.8c0-13.1,10.7-23.8,23.8-23.8h49.2
					c2.1-3.7,5-7.1,8.4-9.8c4.1-3.3,8.8-5.7,13.8-7c-0.2-0.5-0.4-1-0.6-1.4c-31.5-7.9-54.3-36.7-54.3-69.7c0-9.8,2-19.3,5.8-28.3
					l11-25.5l11,25.5c5.1,11.9,14.8,21.2,26.6,25.8c0.5-4,0.9-7.8,1.3-11.3c3-25.7,4.9-42.6,18.3-54.3
					c12.1-10.6,30.8-14.3,71.4-14.3c38.6,0,58.5,4.5,70.8,16c13,12.2,15.2,29.6,18.2,53.8c0.4,3.2,0.8,6.5,1.3,10.1
					c11.8-4.6,21.6-13.9,26.7-25.8l11-25.5l11,25.5c3.8,9,5.8,18.5,5.8,28.3c0,17.4-6.3,34.2-17.7,47.2
					c-9.7,11.1-22.4,18.9-36.5,22.5c-2.7,6.1-6.5,11.2-11.5,15.5c1.1,0.9,2.2,1.9,3.2,2.8h91.8c13.1,0,23.8,10.7,23.8,23.8v82.2
					c17.4,10.6,28.3,29.7,28.3,50.4c0,31.3-24.4,56.9-55.1,59V771H772v50.7H720.3z"/>
			</defs>
			<clipPath id="SVGID_00000110461472485546709730000009304095665686903718_">
				<use xlink:href="#SVGID_00000078015143115832797910000011601426154486172806_"  style="overflow:visible;"/>
			</clipPath>
		</g>
	</g>
	<rect x="91.9" y="515.9" class="st53" width="273.6" height="368.3"/>
	<text transform="matrix(1 0 0 1 91.9229 538.9648)"><tspan x="0" y="0" class="st44 st106">Elige un buen dominio.</tspan><tspan x="233.1" y="0" class="st107 st106"> El </tspan><tspan x="0" y="33.6" class="st107 st106">nombre que le pondrás a </tspan><tspan x="0" y="67.2" class="st107 st106">tu web y la extensión </tspan><tspan x="0" y="100.8" class="st107 st106">(.com, .es, .org, etc.) de</tspan><tspan x="251.9" y="100.8" class="st107 st106">-</tspan><tspan x="0" y="134.4" class="st107 st106">terminará bastante el </tspan><tspan x="0" y="168" class="st107 st106">éxito o fracaso de tu </tspan><tspan x="0" y="201.6" class="st107 st106">idea. Es como darle </tspan><tspan x="0" y="235.2" class="st107 st106">nombre a un hijo. Dedí</tspan><tspan x="231.8" y="235.2" class="st107 st106">-</tspan><tspan x="0" y="268.8" class="st107 st106">cale tiempo y cariño a </tspan><tspan x="0" y="302.4" class="st107 st106">esta decisión.</tspan></text>
	<g>
		<g>
			<path class="st5" d="M226,499.4c-6.7,0-12-5.3-12-12v-15.8c0-8.9,4-17.2,11.1-22.8l2.8-2.2c2.4-1.8,5.2-3.5,8.6-3.5
				c6.7,0,12.4,5.6,12.4,12.2c0,3.9-1.7,7.3-4.8,9.7l-2.4,1.9c-0.1,0.1-0.3,0.2-0.5,0.4l0.9,0.5c4.5,2.4,7.3,5.1,7.3,11.3v8.5
				c0,6.7-5.3,12-12,12H226z M188.6,499.4c-6.7,0-12-5.3-12-12v-15.8c0-8.9,4-17.2,11.1-22.8l2.8-2.2c2.4-1.8,5.2-3.5,8.6-3.5
				c6.7,0,12.4,5.6,12.4,12.2c0,3.9-1.7,7.3-4.8,9.7l-2.5,1.9c-0.1,0.1-0.3,0.2-0.4,0.4l0.9,0.5c4.5,2.4,7.3,5.1,7.3,11.3v8.5
				c0,6.7-5.3,12-12,12H188.6z"/>
			<path class="st6" d="M236.4,448c3.8,0,7.4,3.2,7.4,7.2c0,1.8-0.5,4-2.9,5.8l-2.5,2c-2,1.6-3.2,2.7-3.2,4.9c0,1.8,1.3,2.7,3.4,3.8
				l1.1,0.5c3.4,1.8,4.7,3.1,4.7,6.8v8.5c0,4-3.1,7-7,7H226c-4,0-7-3.1-7-7v-15.8c0-8.1,4-14.8,9.2-18.9l2.7-2.2
				C233,448.9,234.6,448,236.4,448 M199,448c3.8,0,7.4,3.2,7.4,7.2c0,1.8-0.5,4-2.9,5.8l-2.5,2c-2,1.6-3.2,2.7-3.2,4.9
				c0,1.8,1.3,2.7,3.4,3.8l1.1,0.5c3.4,1.8,4.7,3.1,4.7,6.8v8.5c0,4-3.1,7-7,7h-11.3c-4,0-7-3.1-7-7v-15.8c0-8.1,4-14.8,9.2-18.9
				l2.7-2.2C195.6,448.9,197.2,448,199,448 M236.4,438c-4.9,0-8.6,2.3-11.6,4.5l-0.1,0.1l-0.1,0.1l-2.7,2.2
				c-2.3,1.8-4.3,3.9-6.1,6.2c-1.9-7.4-8.9-13.1-16.8-13.1c-4.9,0-8.6,2.3-11.6,4.5l-0.1,0.1l-0.1,0.1l-2.7,2.2
				c-8.2,6.5-12.9,16.2-12.9,26.7v15.8c0,9.5,7.5,17,17,17h11.3c5.3,0,9.9-2.3,13-6c3.1,3.7,7.8,6,13,6h11.3c9.5,0,17-7.5,17-17
				v-8.5c0-5.9-2.1-9.7-4.9-12.2c2.9-3.1,4.4-7.1,4.4-11.5C253.8,445.9,245.8,438,236.4,438L236.4,438z"/>
		</g>
	</g>
	<g>
		<text transform="matrix(0.9762 -7.598437e-02 2.250000e-03 1 268.2312 135.8202)" class="st5 st44 st108">webconsejos</text>
		<g>
			<g>
				<path class="st10" d="M672.9,90.5c0.9,2.4,2.4,3.5,4.8,3.3c1.4-0.1,1.8-0.3,4.9-2.1c0.4-0.2,0.9-0.4,1.3-0.4
					c1.2-0.1,2.4,1,2.4,2.3c0,2.5-4.4,5.2-9,5.6c-6.4,0.5-10.9-3.6-11-9.9c0-6.6,4.4-11.7,10.3-12.2c5.6-0.4,10,3.9,10,9.9
					c0,1.7-0.8,2.5-2.6,2.6L672.9,90.5z M680.8,85.7c-0.3-1.2-0.5-1.6-0.9-2.2c-0.7-1-1.8-1.5-3.1-1.4c-2,0.2-3.3,1.4-4.2,4.2
					L680.8,85.7z"/>
				<path class="st10" d="M695.4,77.4c1.8-1.5,3.1-2,4.9-2.2c5.2-0.4,9.3,4.1,9.4,10.3c0,6.3-4,11.5-9.3,11.9c-2.3,0.2-3.7-0.4-5-2
					c-0.7,1.6-1.5,2.4-2.8,2.5c-1.8,0.1-3.1-1.1-3.1-3l-0.1-23.7c0-1.5,0-1.9,0.4-2.6c0.4-1,1.5-1.7,2.6-1.8
					c1.1-0.1,2.1,0.5,2.6,1.4c0.4,0.7,0.4,1,0.4,2.5L695.4,77.4z M695.4,86.6c0,3.1,1.8,5.2,4.2,5.1c2.3-0.2,4.1-2.6,4.1-5.7
					c0-3-1.8-5.2-4.1-5C697.2,81.2,695.4,83.6,695.4,86.6z"/>
				<path class="st10" d="M712.3,78c0-2.2,1.2-3.7,3.1-3.9c1.4-0.1,2.2,0.5,2.8,1.9c1.8-1.8,3.2-2.5,5.5-2.7
					c2.1-0.2,3.8,0.3,5.2,1.4c1.6,1.3,2.2,2.8,2.2,5.8l0,10.1c0,1.5,0,1.9-0.4,2.6c-0.4,1-1.5,1.7-2.6,1.8c-1.1,0.1-2.2-0.5-2.6-1.4
					c-0.4-0.7-0.4-1-0.4-2.5l0-8.7c0-2.4-1.3-3.8-3.4-3.6c-1.9,0.1-3.4,1.9-3.4,3.9l0,8.9c0,1.5,0,1.9-0.4,2.6
					c-0.4,1-1.5,1.7-2.6,1.8c-1.1,0.1-2.2-0.5-2.6-1.4c-0.4-0.7-0.4-1-0.4-2.5L712.3,78z"/>
				<path class="st10" d="M735.2,76.8c0-1.5,0-1.9,0.4-2.6c0.4-1,1.5-1.7,2.6-1.8c1.1-0.1,2.1,0.5,2.6,1.4c0.4,0.7,0.4,1,0.4,2.5
					l0,13.7c0,1.5,0,1.9-0.4,2.6c-0.4,1-1.5,1.7-2.6,1.8c-1.1,0.1-2.2-0.5-2.6-1.4c-0.4-0.7-0.4-1-0.4-2.5L735.2,76.8z M744.7,66.1
					c0-1.4-1.2-2.5-2.8-2.6l0,0l-0.1,0c-0.2,0-0.4,0-0.5,0c-0.2,0-0.4,0-0.6,0.1l-4.8,0.4c-0.2,0-0.4,0-0.5,0
					c-2,0.2-3.6,1.6-3.6,3.2c0,1.6,1.6,2.8,3.5,2.7c0,0,0.1,0,0.1,0l6.5-0.6C743.5,68.8,744.7,67.5,744.7,66.1z"/>
				<path class="st10" d="M760,74.8c0,1.4-1.1,2.8-2.3,2.9c-0.7,0.1-0.7,0.1-2.5-0.6c-0.9-0.4-1.7-0.5-2.3-0.5
					c-1,0.1-1.6,0.5-1.6,1.2c0,0.8,0.3,1,3.2,1.9c2.7,0.9,3.5,1.3,4.6,2.3c0.9,1,1.5,2.2,1.5,3.8c0,4.1-3.2,7.1-7.9,7.5
					c-4.1,0.3-7.7-1.5-7.7-3.9c0-1.4,1.2-2.9,2.5-3c0.7-0.1,0.7-0.1,3.1,0.9c1,0.4,1.8,0.5,2.4,0.5c1-0.1,1.8-0.8,1.8-1.6
					c0-0.7-0.5-1.1-2.3-1.6c-3-0.9-3.8-1.3-4.8-1.9c-1.4-0.9-2.1-2.3-2.1-4.3c0-3.8,3.3-6.9,7.7-7.3C756.8,70.8,760,72.6,760,74.8z"
					/>
				<path class="st10" d="M770.5,64.3c0,2-1.5,3.7-3.5,3.9c-2,0.2-3.5-1.3-3.5-3.3c0-2,1.6-3.7,3.6-3.8
					C768.9,60.8,770.5,62.3,770.5,64.3z M764,74.5c0-1.5,0-1.9,0.4-2.6c0.4-1,1.5-1.7,2.6-1.8c1.1-0.1,2.1,0.5,2.6,1.4
					c0.4,0.7,0.4,1,0.4,2.5l0,13.7c0,1.5,0,1.9-0.4,2.6c-0.4,1-1.5,1.7-2.6,1.8c-1.1,0.1-2.2-0.5-2.6-1.4c-0.4-0.7-0.4-1-0.4-2.5
					L764,74.5z"/>
				<path class="st10" d="M774.2,73.2c0-2.1,1.2-3.7,3-3.8c1.2-0.1,1.8,0.3,2.9,1.8c1.7-1.7,3.1-2.4,5.3-2.6c1.5-0.1,3,0.1,4.1,0.7
					c0.6,0.3,1,0.6,1.7,1.5c2.4-2.2,4-3,6.3-3.2c4.2-0.3,7.3,2.5,7.3,6.6l0,10.8c0,1.5,0,1.9-0.4,2.6c-0.4,1-1.5,1.7-2.6,1.8
					c-1.1,0.1-2.2-0.5-2.6-1.4c-0.4-0.7-0.4-1-0.4-2.5l0-9.4c0-1.9-1.2-3.1-3.1-3s-3.1,1.5-3.1,3.4l0,9.4c0,1.5,0,1.9-0.4,2.6
					c-0.4,1-1.5,1.7-2.6,1.8c-1.1,0.1-2.2-0.5-2.6-1.4c-0.4-0.7-0.4-1-0.4-2.5l0-8.8c0-2.4-1.2-3.7-3.1-3.5
					c-1.8,0.1-3.1,1.6-3.1,3.4l0,9.4c0,1.5,0,1.9-0.4,2.6c-0.4,1-1.5,1.7-2.6,1.8c-1.1,0.1-2.2-0.5-2.6-1.4c-0.4-0.7-0.4-1-0.4-2.5
					L774.2,73.2z"/>
				<path class="st10" d="M828,83.7c0,2.2-1.2,3.8-3,3.9c-1.4,0.1-2.4-0.6-3-2.2c-1.5,2.1-2.7,2.8-4.9,2.9c-2.2,0.2-4.2-0.5-5.9-1.9
					c-2.4-2-3.6-4.8-3.6-8.5c0-3.4,1-6,3.1-8.4c1.8-2,3.9-3.1,6.3-3.3c2.1-0.2,3.4,0.4,5.1,2c0.7-1.7,1.6-2.4,3-2.5
					c1.7-0.1,3,1.2,3,2.9L828,83.7z M813.5,77.4c0,3.2,1.6,5.3,4.2,5.1c2.5-0.2,4.1-2.5,4.1-5.7c0-3.2-1.7-5.2-4.2-5
					C815.1,72,813.5,74.3,813.5,77.4z"/>
			</g>
			<g>
				<path class="st5" d="M663.4,79.6c-0.4-0.7-1.1-1.2-1.9-1.3c-0.2,0-0.5-0.1-0.7,0c-0.2,0-0.5,0.1-0.7,0.1
					c-0.8,0.3-1.6,0.9-1.9,1.6c-0.3,0.5-0.4,0.9-0.4,1.5c0,0.3,0,10.8,0,10.8c0,1-0.3,1.5-0.6,1.9c-0.4,0.4-0.9,0.6-1.4,0.7
					c-0.6,0-1.1-0.2-1.5-0.6c-0.3-0.4-0.6-0.8-0.6-1.7l0-10.1l0,0c0-1.2-0.1-1.6-0.4-2.2c-0.4-0.7-1.1-1.2-1.9-1.3
					c-0.2,0-0.5-0.1-0.7,0c-0.2,0-0.5,0.1-0.7,0.1c-0.8,0.3-1.6,0.9-1.9,1.6c-0.3,0.5-0.4,0.9-0.4,1.5c0,0.2,0,0.8,0,0.8l0,10
					c0,1-0.3,1.5-0.6,1.9c-0.4,0.4-0.9,0.6-1.4,0.7c-0.6,0-1.1-0.2-1.5-0.6c-0.3-0.4-0.6-0.8-0.6-1.7l-0.1-9.7c0-1.5,0-1.8-0.4-2.5
					c-0.4-0.7-1.1-1.2-1.9-1.3c-0.2,0-0.5-0.1-0.7,0c-0.2,0-0.5,0.1-0.7,0.1c-0.8,0.3-1.6,0.9-1.9,1.6c-0.3,0.5-0.4,0.9-0.4,1.5
					c0,0.3,0,11,0,11c0,3,1,4.8,2.7,6c1.5,1.1,3.4,1.6,5.2,1.4c1.6-0.1,2.9-0.5,4-1.3l0.5-0.4c0.3-0.2,0.6-0.4,0.8-0.4
					c0.3,0,0.5,0.1,0.8,0.2l0.6,0.3c1.1,0.6,2.5,0.8,4,0.6c1.9-0.1,3.6-0.9,5.1-2.2c1.7-1.5,2.7-3.4,2.7-6.4l0-10
					C663.9,80.6,663.8,80.3,663.4,79.6z"/>
				<g>
					<g>
						<path class="st9" d="M650.6,72.1c-6,0.6-11,0.1-11-1c0-0.4,0.7-0.7,1.7-1.2c4.4-2,6.7-2.6,10.8-2.6c2.9,0,6.2-0.2,8.5,1.1
							c0.6,0.2,0.9,0.4,0.9,0.7C661.6,70.2,656.7,71.6,650.6,72.1z M667,68.7c-0.1-2.8-5.1-4.3-16.4-3.3c-10.7,1-16.3,3.5-16.3,6.3
							c0.1,4.3,7.4,5.9,16.5,5C659.7,76,667,73.1,667,68.7z"/>
					</g>
				</g>
			</g>
		</g>
	</g>
	<g>
		<defs>
			<rect id="SVGID_00000101079973192051751940000018166308415107155344_" x="-21.1" y="-16" width="944.6" height="944.6"/>
		</defs>
		<clipPath id="SVGID_00000098206066753646867370000015555177535940459403_">
			<use xlink:href="#SVGID_00000101079973192051751940000018166308415107155344_"  style="overflow:visible;"/>
		</clipPath>
		<g style="opacity:0.24;clip-path:url(#SVGID_00000098206066753646867370000015555177535940459403_);">
			
				<image style="overflow:visible;" width="872" height="872" xlink:href="9D0398442DBCF5A.png"  transform="matrix(1.3042 0 0 1.3042 -118.5 -136)">
			</image>
		</g>
	</g>
</g>
<g id="halftone">
</g>
</svg>
