<?xml version="1.0" encoding="utf-8"?>
<!-- Generator: Adobe Illustrator 27.3.1, SVG Export Plug-In . SVG Version: 6.00 Build 0)  -->
<svg version="1.1" xmlns="http://www.w3.org/2000/svg" xmlns:xlink="http://www.w3.org/1999/xlink" x="0px" y="0px"
	 viewBox="0 0 900 900" style="enable-background:new 0 0 900 900;" xml:space="preserve">
<style type="text/css">
	.st0{display:none;}
	.st1{display:inline;opacity:0.28;}
	.st2{fill:none;stroke:#000000;stroke-width:0.75;stroke-miterlimit:10;}
	.st3{fill:none;stroke:#000000;stroke-width:4;stroke-linecap:round;stroke-linejoin:round;stroke-miterlimit:10;}
	.st4{fill:#FCCF72;stroke:#1A2276;stroke-width:6;stroke-miterlimit:10;}
	.st5{fill:#1A2276;}
	.st6{fill:#EBEAD8;}
	.st7{fill:#ED8376;stroke:#E90302;stroke-width:17;stroke-linecap:round;stroke-linejoin:round;stroke-miterlimit:10;}
	.st8{fill:#E90302;}
	.st9{fill:#FCCF72;}
	.st10{fill:#8288A8;}
	.st11{fill:#EBEAD8;stroke:#1A2276;stroke-width:6;stroke-miterlimit:10;}
	.st12{fill:none;stroke:#1A2276;stroke-width:6;stroke-miterlimit:10;}
	.st13{fill:#E90302;stroke:#1A2276;stroke-width:6;stroke-miterlimit:10;}
	.st14{fill:#EBBFAF;}
	
		.st15{clip-path:url(#SVGID_00000101788594418939495300000013151217858768162954_);fill:#FCCF72;stroke:#1A2276;stroke-width:6;stroke-miterlimit:10;}
	
		.st16{clip-path:url(#SVGID_00000115497194692293362080000014589855189985282181_);fill:#FCCF72;stroke:#1A2276;stroke-width:6;stroke-miterlimit:10;}
	
		.st17{clip-path:url(#SVGID_00000129196294344039263760000012337020600363269810_);fill:#FCCF72;stroke:#1A2276;stroke-width:6;stroke-miterlimit:10;}
	
		.st18{clip-path:url(#SVGID_00000108269127132677053530000004189545809170951074_);fill:#FCCF72;stroke:#1A2276;stroke-width:6;stroke-miterlimit:10;}
	
		.st19{clip-path:url(#SVGID_00000096758047389879892170000008989439976162605239_);fill:#FCCF72;stroke:#1A2276;stroke-width:6;stroke-miterlimit:10;}
	.st20{fill:#FFFFFF;}
	
		.st21{clip-path:url(#SVGID_00000114779597452043040370000015754960490135704990_);fill:#FCCF72;stroke:#1A2276;stroke-width:6;stroke-miterlimit:10;}
	.st22{fill:none;stroke:#1A2276;stroke-width:6;stroke-linecap:round;stroke-miterlimit:10;}
	
		.st23{clip-path:url(#SVGID_00000052066982354884397380000017991759973790777517_);fill:#FCCF72;stroke:#1A2276;stroke-width:6;stroke-miterlimit:10;}
	
		.st24{clip-path:url(#SVGID_00000173851175715333016040000014743978068353278599_);fill:#FCCF72;stroke:#1A2276;stroke-width:6;stroke-miterlimit:10;}
	
		.st25{clip-path:url(#SVGID_00000109728714425413052500000005777820607118462908_);fill:#FCCF72;stroke:#1A2276;stroke-width:6;stroke-miterlimit:10;}
	
		.st26{clip-path:url(#SVGID_00000031911524011953180500000002171510290159008938_);fill:#FCCF72;stroke:#1A2276;stroke-width:6;stroke-miterlimit:10;}
	
		.st27{clip-path:url(#SVGID_00000080194593890668161490000008763278140193449347_);fill:#FCCF72;stroke:#1A2276;stroke-width:6;stroke-miterlimit:10;}
	
		.st28{clip-path:url(#SVGID_00000157299399831335601040000013299960391447901108_);fill:#FCCF72;stroke:#1A2276;stroke-width:6;stroke-miterlimit:10;}
	.st29{fill:none;stroke:#000000;stroke-width:4;stroke-miterlimit:10;}
	.st30{fill:#FCCF72;stroke:#000000;stroke-width:4;stroke-miterlimit:10;}
	.st31{fill:none;stroke:#000000;stroke-width:5;stroke-linecap:round;stroke-miterlimit:10;}
	
		.st32{clip-path:url(#SVGID_00000009551738431876360220000008670054682957428380_);fill:#FCCF72;stroke:#1A2276;stroke-width:6;stroke-miterlimit:10;}
	
		.st33{clip-path:url(#SVGID_00000081609555129797509470000000027611943755178165_);fill:#FCCF72;stroke:#1A2276;stroke-width:6;stroke-miterlimit:10;}
	
		.st34{clip-path:url(#SVGID_00000101813545332964273970000006834161313146394795_);fill:#FCCF72;stroke:#1A2276;stroke-width:6;stroke-miterlimit:10;}
	
		.st35{clip-path:url(#SVGID_00000132087490582750946820000018088559107844815778_);fill:#FCCF72;stroke:#1A2276;stroke-width:6;stroke-miterlimit:10;}
	.st36{fill:#E90302;stroke:#EBBFAF;stroke-width:6;stroke-miterlimit:10;}
	.st37{clip-path:url(#SVGID_00000064312401442816292690000001052774967251426729_);fill:#FCCF72;}
	.st38{clip-path:url(#SVGID_00000064312401442816292690000001052774967251426729_);fill:#1A2276;}
	.st39{clip-path:url(#SVGID_00000018229902257850656390000018129424330450903472_);fill:#8288A8;}
	.st40{fill:#020202;}
	.st41{clip-path:url(#SVGID_00000111895902832323348180000017300206910660612771_);}
	.st42{fill:#EBEAD8;stroke:#1A2276;stroke-width:3;stroke-miterlimit:10;}
	.st43{fill:#8288A8;stroke:#8288A8;stroke-miterlimit:10;}
	.st44{fill:#1A2276;stroke:#FCCF72;stroke-width:6;stroke-miterlimit:10;}
	.st45{fill:none;stroke:#EBEAD8;stroke-width:6;stroke-miterlimit:10;}
	.st46{fill:#8288A8;stroke:#1A2276;stroke-width:6;stroke-miterlimit:10;}
	.st47{fill:#FCCF72;stroke:#8288A8;stroke-width:6;stroke-miterlimit:10;}
	.st48{clip-path:url(#SVGID_00000005234752861596391240000014708393196639636116_);}
	.st49{fill:none;}
	.st50{fill:#ED8376;}
	.st51{fill:url(#);}
	.st52{fill:#1A2276;stroke:url(#);stroke-miterlimit:10;}
	.st53{fill:#ED8376;stroke:#E90302;stroke-width:6;stroke-linecap:round;stroke-linejoin:round;stroke-miterlimit:10;}
	.st54{fill:none;stroke:#E90302;stroke-width:6;stroke-linecap:round;stroke-linejoin:round;stroke-miterlimit:10;}
	.st55{fill:none;stroke:#E90302;stroke-width:5;stroke-linecap:round;stroke-linejoin:round;stroke-miterlimit:10;}
	.st56{fill:#FFFFFF;stroke:#000000;stroke-width:6;stroke-miterlimit:10;}
	.st57{fill:#FFFDFD;stroke:#1A2276;stroke-width:7;stroke-miterlimit:10;}
	
		.st58{clip-path:url(#SVGID_00000044871441267173905590000015529533420446884781_);fill:#FCCF72;stroke:#1A2276;stroke-width:6;stroke-miterlimit:10;}
	
		.st59{clip-path:url(#SVGID_00000177464586558315703140000006143468437439369867_);fill:#FCCF72;stroke:#1A2276;stroke-width:6;stroke-miterlimit:10;}
	.st60{fill:none;stroke:#E90302;stroke-width:6;stroke-linecap:round;stroke-miterlimit:10;}
	
		.st61{clip-path:url(#SVGID_00000035500144173432680790000011834548226475054988_);fill:#FCCF72;stroke:#1A2276;stroke-width:6;stroke-miterlimit:10;}
	
		.st62{clip-path:url(#SVGID_00000106837118965439018190000017830854771711094176_);fill:#FCCF72;stroke:#1A2276;stroke-width:6;stroke-miterlimit:10;}
	
		.st63{clip-path:url(#SVGID_00000183929758144343312980000000488789619512673691_);fill:#FCCF72;stroke:#1A2276;stroke-width:6;stroke-miterlimit:10;}
	.st64{fill:none;stroke:#1A2276;stroke-width:7;stroke-miterlimit:10;}
	
		.st65{clip-path:url(#SVGID_00000021801854064926207230000016937299554159801492_);fill:#FCCF72;stroke:#1A2276;stroke-width:6;stroke-miterlimit:10;}
	.st66{clip-path:url(#SVGID_00000106117561730519597900000008570154165228689585_);}
	
		.st67{clip-path:url(#SVGID_00000116931991777972432730000001273548735198252986_);fill:#FCCF72;stroke:#1A2276;stroke-width:6;stroke-miterlimit:10;}
	
		.st68{clip-path:url(#SVGID_00000100364239590043053740000002695020335758390429_);fill:#FCCF72;stroke:#1A2276;stroke-width:6;stroke-miterlimit:10;}
	
		.st69{clip-path:url(#SVGID_00000115508662254193335970000002538314443762631337_);fill:#FCCF72;stroke:#1A2276;stroke-width:6;stroke-miterlimit:10;}
	.st70{clip-path:url(#SVGID_00000143587544613508386840000012342643875145259143_);}
	.st71{clip-path:url(#SVGID_00000132778341795811093760000016014733383412372373_);}
	.st72{clip-path:url(#SVGID_00000163069628335428353340000017541467694833423776_);}
	.st73{opacity:0.5;}
	.st74{clip-path:url(#SVGID_00000168836131610445943010000001199899486331689606_);}
	.st75{clip-path:url(#SVGID_00000071521072069827755030000003415331721399647152_);}
	.st76{fill:#FFFDFD;}
	.st77{clip-path:url(#SVGID_00000005958826958846502160000006016902227125353903_);}
	.st78{opacity:0.8;}
	
		.st79{clip-path:url(#SVGID_00000005952943137825654590000015674623587555991462_);fill:#FCCF72;stroke:#1A2276;stroke-width:6;stroke-miterlimit:10;}
	
		.st80{clip-path:url(#SVGID_00000012436954131280775980000006474804725755203492_);fill:#FCCF72;stroke:#1A2276;stroke-width:6;stroke-miterlimit:10;}
	.st81{clip-path:url(#SVGID_00000152249865656003554910000010540286485230773379_);}
	.st82{clip-path:url(#SVGID_00000078040101994862936110000016089597113331528369_);}
	.st83{clip-path:url(#SVGID_00000080170383071070744010000005252720309930482854_);}
	.st84{clip-path:url(#SVGID_00000060016116754204776190000003622522562294758031_);}
	.st85{clip-path:url(#SVGID_00000128457397484014158370000008870150842831499959_);}
	.st86{fill:none;stroke:#1A2276;stroke-width:19;stroke-miterlimit:10;}
	.st87{clip-path:url(#SVGID_00000168079588213498924910000014947605423708899253_);}
	.st88{fill:none;stroke:#1A2276;stroke-width:10;stroke-miterlimit:10;}
	.st89{clip-path:url(#SVGID_00000143599564043321532840000015483062802189133208_);}
	.st90{clip-path:url(#SVGID_00000023272239288799104260000007034323024948883112_);fill:#FCCF72;}
	.st91{clip-path:url(#SVGID_00000023272239288799104260000007034323024948883112_);fill:#1A2276;}
	.st92{clip-path:url(#SVGID_00000014626638465955997310000012830223112257512603_);}
	.st93{clip-path:url(#SVGID_00000158004751823192148860000000634878504840363930_);}
	.st94{clip-path:url(#SVGID_00000158004751823192148860000000634878504840363930_);fill:none;}
	.st95{font-family:'Aptly-Bold';}
	.st96{font-size:40.1137px;}
	.st97{letter-spacing:4;}
	.st98{font-size:76.8274px;}
	.st99{font-size:28px;}
	.st100{font-family:'Aptly';}
	.st101{font-size:70.9205px;}
	.st102{clip-path:url(#SVGID_00000169530116054058796860000009495862207708411024_);fill:#8288A8;}
	.st103{clip-path:url(#SVGID_00000169530116054058796860000009495862207708411024_);fill:#FCCF72;}
	.st104{fill:#FFFFFF;stroke:#FFFFFF;stroke-width:6;stroke-miterlimit:10;}
	.st105{fill:none;stroke:#8288A8;stroke-width:6;stroke-miterlimit:10;}
	.st106{clip-path:url(#SVGID_00000108275153036282470330000008442838086661825672_);}
	.st107{clip-path:url(#SVGID_00000181046578812796972600000000783867359328904383_);}
	.st108{clip-path:url(#SVGID_00000074440505868723054920000013201310195819538095_);}
	.st109{clip-path:url(#SVGID_00000101078742412056922570000011092021992461065403_);}
	.st110{clip-path:url(#SVGID_00000159439860767096210330000008468162523852828308_);}
	.st111{fill:#EBEAD8;stroke:#1A2276;stroke-width:12;stroke-miterlimit:10;}
	.st112{fill:none;stroke:#1A2276;stroke-width:12;stroke-miterlimit:10;}
	.st113{clip-path:url(#SVGID_00000176008745323233368150000017018250105932753803_);}
	.st114{clip-path:url(#SVGID_00000085958914080452068730000011154471546175302827_);}
	.st115{clip-path:url(#SVGID_00000044893883257614391130000011500840249996172715_);}
	.st116{clip-path:url(#SVGID_00000074440602261206145710000008104437496031113109_);}
	.st117{clip-path:url(#SVGID_00000170982863986225970480000006663495158663838090_);}
	.st118{clip-path:url(#SVGID_00000047036534543922922000000018444428301066560672_);fill:#8288A8;}
	.st119{clip-path:url(#SVGID_00000047036534543922922000000018444428301066560672_);fill:#FCCF72;}
	.st120{clip-path:url(#SVGID_00000173881564664299461380000013018288545289351816_);}
	.st121{clip-path:url(#SVGID_00000021833557332655520630000007542718891846589609_);fill:#E90302;}
	.st122{clip-path:url(#SVGID_00000074418050840982584310000002399343814394204063_);fill:none;}
	.st123{clip-path:url(#SVGID_00000073715105362910589560000001731204381205986489_);}
	.st124{clip-path:url(#SVGID_00000041276444309248261960000006772756404446804875_);}
	.st125{clip-path:url(#SVGID_00000093871978137511744500000013440819852993002158_);}
	.st126{clip-path:url(#SVGID_00000155855117858291725020000015198738422739863980_);}
	.st127{clip-path:url(#SVGID_00000165926087024674986360000013282521322806964097_);}
	.st128{clip-path:url(#SVGID_00000160158873873223484650000012093591252374354359_);}
	.st129{clip-path:url(#SVGID_00000008110027691587943240000011095526925342049164_);}
	.st130{clip-path:url(#SVGID_00000054263973000165699910000004577139958403569340_);}
	.st131{clip-path:url(#SVGID_00000129907690316044724530000010728122188949673102_);}
	.st132{clip-path:url(#SVGID_00000066484432760716548050000014133999667472950144_);}
	.st133{clip-path:url(#SVGID_00000008858480378100130590000004691858575182240701_);}
	.st134{clip-path:url(#SVGID_00000004539530069604799510000014271889213433748402_);}
	.st135{clip-path:url(#SVGID_00000124856294973958214710000016484819467924680855_);fill:#EBEAD8;}
	.st136{clip-path:url(#SVGID_00000124856294973958214710000016484819467924680855_);}
	.st137{clip-path:url(#SVGID_00000133499539677335869110000018236418857827221150_);}
	.st138{clip-path:url(#SVGID_00000159453519110610219610000015066077204979644348_);}
	.st139{clip-path:url(#SVGID_00000147911094630976229040000012520985623944057264_);}
	.st140{clip-path:url(#SVGID_00000045577649486194720460000010003955888887931305_);}
	.st141{clip-path:url(#SVGID_00000129888847870532774690000009110836158701449884_);}
	.st142{fill:#ED8376;stroke:#1A2276;stroke-width:6;stroke-miterlimit:10;}
	.st143{fill:url(#);stroke:#1A2276;stroke-width:6;stroke-miterlimit:10;}
	.st144{clip-path:url(#SVGID_00000142133998622487382400000003306048106200300961_);}
	
		.st145{clip-path:url(#SVGID_00000132809258371687691180000007705637558855412628_);fill:#FCCF72;stroke:#1A2276;stroke-width:6;stroke-miterlimit:10;}
	.st146{fill:none;stroke:#FCCF72;stroke-width:6;stroke-linecap:round;stroke-miterlimit:10;}
	.st147{clip-path:url(#SVGID_00000176044366149016205850000001422383366640141699_);}
</style>
<g id="guias" class="st0">
</g>
<g id="Layer_2">
</g>
<g id="Layer_1">
</g>
<g id="web">
	<g>
		<rect x="1.5" y="1" class="st6" width="897" height="897"/>
		<g>
			<polygon class="st7" points="225.2,67.4 223.2,98.4 241.5,123.9 220.1,146 218.1,177 187.4,179.8 166,201.9 140.3,184.1 
				109.5,186.9 100.8,156.8 75.1,139 87.5,110.8 78.9,80.7 106.6,67.5 119.1,39.2 149.1,47.2 176.8,34 195.2,59.4 			"/>
			<g>
				<g>
					<path class="st6" d="M146.8,161.9c0-4.7,3.8-8.5,8.5-8.5c4.7,0,8.5,3.8,8.5,8.5v5.3h4.6c4.7,0,8.5,3.8,8.5,8.5
						s-3.8,8.5-8.5,8.5h-12.8c-4,0-7.3-2.7-8.3-6.4c-0.4-1-0.6-2-0.6-3.2V161.9z"/>
					<path class="st5" d="M168.4,185.4h-12.8c-4.4,0-8.2-2.9-9.3-7.2c-0.4-1.1-0.7-2.3-0.7-3.5v-12.8c0-5.3,4.3-9.6,9.6-9.6
						c5.3,0,9.6,4.3,9.6,9.6v4.3h3.5c5.3,0,9.6,4.3,9.6,9.6C178,181.1,173.7,185.4,168.4,185.4z M155.3,154.5
						c-4.1,0-7.4,3.3-7.4,7.4v12.8c0,1,0.2,1.9,0.5,2.8l0,0.1c0.8,3.3,3.8,5.6,7.2,5.6h12.8c4.1,0,7.4-3.3,7.4-7.4
						c0-4.1-3.3-7.4-7.4-7.4h-5.7v-6.4C162.8,157.8,159.4,154.5,155.3,154.5z"/>
				</g>
				<g>
					<line class="st6" x1="176.9" y1="177.7" x2="147.5" y2="177.7"/>
					<rect x="147.5" y="176.7" class="st5" width="29.4" height="2.1"/>
				</g>
				<g>
					<line class="st6" x1="163.8" y1="167.3" x2="159.4" y2="173.1"/>
					
						<rect x="157.9" y="169.1" transform="matrix(0.6034 -0.7974 0.7974 0.6034 -71.6418 196.371)" class="st5" width="7.3" height="2.1"/>
				</g>
				<g>
					<line class="st6" x1="168.1" y1="168" x2="163.6" y2="173.9"/>
					
						<rect x="162.2" y="169.9" transform="matrix(0.6034 -0.7974 0.7974 0.6034 -70.5196 200.0464)" class="st5" width="7.3" height="2.1"/>
				</g>
				<g>
					<line class="st6" x1="172.3" y1="168.7" x2="167.9" y2="174.6"/>
					
						<rect x="166.4" y="170.6" transform="matrix(0.6034 -0.7974 0.7974 0.6034 -69.3973 203.7218)" class="st5" width="7.3" height="2.1"/>
				</g>
				<g>
					<circle class="st6" cx="154.4" cy="168.2" r="3.5"/>
					<path class="st5" d="M154.4,172.8c-2.5,0-4.6-2.1-4.6-4.6c0-2.5,2.1-4.6,4.6-4.6s4.6,2.1,4.6,4.6
						C159,170.7,157,172.8,154.4,172.8z M154.4,165.7c-1.4,0-2.5,1.1-2.5,2.5s1.1,2.5,2.5,2.5s2.5-1.1,2.5-2.5
						S155.8,165.7,154.4,165.7z"/>
				</g>
				<g>
					<g>
						<path class="st6" d="M114.2,161.9c0-4.7,3.8-8.5,8.5-8.5s8.5,3.8,8.5,8.5v5.3h4.6c4.7,0,8.5,3.8,8.5,8.5s-3.8,8.5-8.5,8.5H123
							c-4,0-7.3-2.7-8.3-6.4c-0.4-1-0.6-2-0.6-3.2V161.9z"/>
						<path class="st5" d="M135.8,185.4H123c-4.4,0-8.2-2.9-9.3-7.2c-0.4-1.1-0.7-2.3-0.7-3.5v-12.8c0-5.3,4.3-9.6,9.6-9.6
							c5.3,0,9.6,4.3,9.6,9.6v4.3h3.5c5.3,0,9.6,4.3,9.6,9.6C145.4,181.1,141.1,185.4,135.8,185.4z M122.7,154.5
							c-4.1,0-7.4,3.3-7.4,7.4v12.8c0,1,0.2,1.9,0.5,2.8l0,0.1c0.8,3.3,3.8,5.6,7.2,5.6h12.8c4.1,0,7.4-3.3,7.4-7.4
							c0-4.1-3.3-7.4-7.4-7.4h-5.7v-6.4C130.1,157.8,126.8,154.5,122.7,154.5z"/>
					</g>
					<g>
						<line class="st6" x1="144.3" y1="177.7" x2="114.9" y2="177.7"/>
						<rect x="114.9" y="176.7" class="st5" width="29.4" height="2.1"/>
					</g>
					<g>
						<line class="st6" x1="131.2" y1="167.3" x2="126.8" y2="173.1"/>
						
							<rect x="125.3" y="169.1" transform="matrix(0.6034 -0.7974 0.7974 0.6034 -84.5827 170.3497)" class="st5" width="7.3" height="2.1"/>
					</g>
					<g>
						<line class="st6" x1="135.5" y1="168" x2="131" y2="173.9"/>
						
							<rect x="129.6" y="169.9" transform="matrix(0.6034 -0.7974 0.7974 0.6034 -83.4605 174.0251)" class="st5" width="7.3" height="2.1"/>
					</g>
					<g>
						<line class="st6" x1="139.7" y1="168.7" x2="135.3" y2="174.6"/>
						
							<rect x="133.8" y="170.6" transform="matrix(0.6034 -0.7974 0.7974 0.6034 -82.3382 177.7005)" class="st5" width="7.3" height="2.1"/>
					</g>
					<g>
						<circle class="st6" cx="121.8" cy="168.2" r="3.5"/>
						<path class="st5" d="M121.8,172.8c-2.5,0-4.6-2.1-4.6-4.6c0-2.5,2.1-4.6,4.6-4.6s4.6,2.1,4.6,4.6
							C126.4,170.7,124.3,172.8,121.8,172.8z M121.8,165.7c-1.4,0-2.5,1.1-2.5,2.5s1.1,2.5,2.5,2.5c1.4,0,2.5-1.1,2.5-2.5
							S123.2,165.7,121.8,165.7z"/>
					</g>
				</g>
				<g>
					<ellipse class="st6" cx="148.7" cy="125.4" rx="38.1" ry="29.8"/>
					<path class="st5" d="M148.7,156.3c-19.3,0-29,0-34-3.9c-5.2-4-5.2-11.7-5.2-26.9s0-22.9,5.2-26.9c5.1-3.9,14.7-3.9,34-3.9
						c19.3,0,29,0,34,3.7c5.2,3.8,5.2,11.1,5.2,25.5l0,1.6l0,1.6c0,14.4,0,21.7-5.2,25.5C177.7,156.3,168,156.3,148.7,156.3z
						 M148.7,96.7c-18.8,0-28.2,0-32.7,3.5c-4.4,3.4-4.4,10.7-4.4,25.2s0,21.8,4.4,25.2c4.5,3.5,13.9,3.5,32.7,3.5
						c18.8,0,28.3,0,32.7-3.3c4.3-3.2,4.3-10.1,4.3-23.8l0-1.6l0-1.6c0-13.7,0-20.6-4.3-23.8C177,96.7,167.6,96.7,148.7,96.7z"/>
				</g>
				<g>
					<path class="st8" d="M148.9,144.6c-38.8,0-38.3-12.2-38.3-11.5c0,27.8,0.2,27.8,38.1,27.8c37.3,0,38.1,0,38.1-27.8
						C186.9,132.4,187.1,144.6,148.9,144.6z"/>
					<path class="st5" d="M148.8,162c-19.2,0-28.9,0-33.9-3.7c-5.3-3.8-5.3-11.4-5.3-25.2h0c0-0.5,0.2-0.7,0.3-0.8l0.5-0.5l1.3,0.5
						v0.7c0.1,0.5,2,10.5,37.2,10.5c35.1,0,36.9-10.2,36.9-10.6l0.1-1l2,0.1l0,1c0,14.4-0.2,21.5-5.5,25.2
						C177.3,162,167.8,162,148.8,162z M111.7,137.1c0,10.8,0.5,16.6,4.4,19.4c4.5,3.3,13.9,3.3,32.7,3.3c18.5,0,27.8,0,32.4-3.3
						c4-2.8,4.6-8.5,4.6-19.5c-0.9,0.9-2.1,1.9-3.7,2.9c-6.6,3.8-17.8,5.7-33.1,5.7c-13.4,0-23.6-1.4-30.5-4.3
						C115.1,140,113,138.5,111.7,137.1z"/>
				</g>
				<g>
					<line class="st6" x1="182.2" y1="113.4" x2="126.7" y2="113.4"/>
					<rect x="126.7" y="112.3" class="st5" width="55.5" height="2.1"/>
				</g>
				<g>
					<line class="st6" x1="120.2" y1="112.7" x2="120.2" y2="119.7"/>
					<rect x="119.1" y="112.7" class="st5" width="2.1" height="7.1"/>
				</g>
				<g>
					<path class="st6" d="M174.9,123.8c0,0-1.6-4.6-6.5-3.8c-4.9,0.8-5.5,3.8-5.5,3.8"/>
					<path class="st5" d="M173.9,124.1c-0.1-0.2-1.4-3.8-5.4-3.1c-4,0.7-4.6,2.9-4.6,3l-2.1-0.4c0-0.2,0.7-3.7,6.3-4.7
						c4.6-0.8,7.1,2.6,7.7,4.5L173.9,124.1z"/>
				</g>
				<g>
					<path class="st6" d="M152.6,124.1c0,0-1.6-4.6-6.5-3.8c-4.9,0.8-5.5,3.8-5.5,3.8"/>
					<path class="st5" d="M151.6,124.5c-0.1-0.2-1.4-3.8-5.4-3.1c-4,0.7-4.6,2.9-4.6,3l-2.1-0.4c0-0.2,0.7-3.7,6.3-4.7
						c4.6-0.8,7.1,2.6,7.7,4.5L151.6,124.5z"/>
				</g>
				<g>
					<path class="st6" d="M164.8,128.3c0,0,1.3,5.3-4.4,6.1c-6,0.9-6.4-5.1-6.4-5.1"/>
					<path class="st5" d="M159.1,135.6c-1.5,0-2.8-0.4-3.8-1.3c-2.2-1.8-2.5-4.8-2.5-4.9l2.1-0.2c0,0,0.2,2.2,1.7,3.4
						c0.9,0.7,2,0.9,3.5,0.7c1.4-0.2,2.5-0.8,3-1.6c0.9-1.4,0.5-3.2,0.5-3.2l2.1-0.5c0,0.1,0.6,2.7-0.8,4.9
						c-0.9,1.4-2.4,2.2-4.5,2.5C160,135.6,159.6,135.6,159.1,135.6z"/>
				</g>
				<g>
					<path class="st6" d="M102.5,128.1c4.3-1.9,9.3,0.1,11.2,4.4l5.1,11.7c1.9,4.3-0.1,9.3-4.4,11.2c-4.3,1.9-9.3-0.1-11.2-4.4
						l-5.1-11.7C96.2,135,98.2,130,102.5,128.1z"/>
					<path class="st5" d="M111.1,157.2c-1.2,0-2.4-0.2-3.5-0.7c-2.4-0.9-4.3-2.7-5.3-5.1l-5.1-11.7c-2.1-4.8,0.1-10.5,4.9-12.6
						c2.3-1,4.9-1.1,7.3-0.1c2.4,0.9,4.3,2.7,5.3,5.1l5.1,11.7c1,2.3,1.1,4.9,0.1,7.3c-0.9,2.4-2.7,4.3-5.1,5.3
						C113.7,156.9,112.4,157.2,111.1,157.2z M105.9,128.5c-1,0-2,0.2-3,0.6c-1.8,0.8-3.2,2.3-3.9,4.1c-0.7,1.9-0.7,3.9,0.1,5.7
						l5.1,11.7c1.6,3.8,6,5.5,9.8,3.8c1.8-0.8,3.2-2.3,3.9-4.1c0.7-1.9,0.7-3.9-0.1-5.7l-5.1-11.7
						C111.5,130.1,108.8,128.5,105.9,128.5z"/>
				</g>
				<g>
					<circle class="st5" cx="118.1" cy="97.8" r="13.5"/>
				</g>
				<g>
					<circle class="st5" cx="162.1" cy="82.2" r="13.5"/>
				</g>
				<g>
					<ellipse class="st5" cx="141.9" cy="86.4" rx="24.5" ry="18.4"/>
				</g>
				<g>
					<ellipse class="st5" cx="170.3" cy="86.4" rx="24.5" ry="18.4"/>
				</g>
				<g>
					<g>
						<ellipse class="st6" cx="191.3" cy="116.2" rx="11.4" ry="9.6"/>
						<path class="st5" d="M191.3,126.8c-6.9,0-12.5-4.8-12.5-10.7s5.6-10.7,12.5-10.7c6.9,0,12.5,4.8,12.5,10.7
							S198.1,126.8,191.3,126.8z M191.3,107.6c-5.7,0-10.3,3.8-10.3,8.6c0,4.7,4.6,8.6,10.3,8.6c5.7,0,10.3-3.8,10.3-8.6
							C201.6,111.4,197,107.6,191.3,107.6z"/>
					</g>
					<g>
						<path class="st6" d="M204.8,86.2c-2.5-1.3-5.7-0.1-7.1,2.6c0,0.1-0.1,0.1-0.1,0.2l0,0l-3.8,7.6v-8.5h0c0-0.1,0-0.1,0-0.2
							c0-3.1-2.3-5.5-5.2-5.5s-5.2,2.5-5.2,5.5c0,0.1,0,0.1,0,0.2h0v15.3h8.6l7.9,4l6.9-13.7l0,0c0-0.1,0.1-0.1,0.1-0.2
							C208.3,90.8,207.3,87.5,204.8,86.2z"/>
						<path class="st5" d="M200.4,108.8l-8.6-4.3h-9.4V87h0.1c0.4-3.2,3-5.7,6.2-5.7s5.8,2.5,6.2,5.7h0l0,0.7c0,0.1,0,0.1,0,0.2
							c0,0,0,0,0,0.1l0,0.1v4.1l2.3-4.5l0,0c0.8-1.2,1.9-2.1,3.2-2.6c1.6-0.6,3.3-0.5,4.8,0.2c1.5,0.8,2.6,2.1,3.1,3.7
							c0.4,1.4,0.3,2.8-0.1,4.1l0,0l-0.3,0.6c0,0.1-0.1,0.1-0.1,0.2c0,0,0,0,0,0.1l-0.1,0.1L200.4,108.8z M184.5,102.3h7.8l7.2,3.6
							l5.9-11.7l0,0l0.5-1c0,0,0-0.1,0.1-0.1l0,0c0.5-1.1,0.7-2.3,0.3-3.4c-0.3-1.1-1-2-2-2.4c-1-0.5-2.1-0.5-3.1-0.1
							c-1.1,0.4-2,1.2-2.5,2.3l0,0c0,0,0,0.1,0,0.1l-0.5,1l0,0l-5.3,10.6v-12h0l0-1.3c0-2.5-1.8-4.5-4.1-4.5s-4.1,2-4.1,4.5l0,0.2
							l0,1.1h0V102.3z"/>
					</g>
					<g>
						<path class="st6" d="M192.4,109.9c-2.3,1.1-3.3,4.1-2.1,6.6c1.2,2.6,4.1,3.8,6.4,2.7c0,0,0.1-0.1,0.1-0.1l0,0l7.8-3.2
							c4.4-3.7,0.9-10.5-4.3-9.4l-7.8,3.2l0,0C192.5,109.9,192.5,109.9,192.4,109.9z"/>
						<path class="st5" d="M194.9,120.8c-2.3,0-4.5-1.4-5.6-3.8c-1.3-2.8-0.5-6,1.8-7.6l0-0.1l1-0.4l7.9-3.3l0.1,0
							c2.8-0.6,5.6,0.7,6.9,3.4c1.4,2.7,0.7,5.8-1.7,7.9l-0.1,0.1l-8,3.3c0,0,0,0-0.1,0c-0.2,0.1-0.3,0.1-0.5,0.2l-0.4,0.1l0,0
							C195.9,120.7,195.4,120.8,194.9,120.8z M192.4,109.9l0.4,1c-1.8,0.8-2.5,3.2-1.6,5.2c0.9,2.1,3.2,3.1,5,2.2l0.1-0.1l1-0.5
							l0,0.1l6.7-2.8c1.8-1.7,1.7-3.8,1-5.2c-0.7-1.3-2.2-2.7-4.5-2.3l-6.7,2.8l0,0l-1.1,0.5L192.4,109.9L192.4,109.9z"/>
					</g>
					<g>
						<path class="st6" d="M189.3,103.2c-2.8,1.3-4.1,4.4-2.9,7c1.2,2.6,4.4,3.7,7.2,2.4c0.1,0,0.1-0.1,0.2-0.1l0,0l9.3-3.9
							c5.3-4.2,1.8-10.9-4.3-9.4l-9.3,3.9l0,0C189.4,103.1,189.3,103.1,189.3,103.2z"/>
						<path class="st5" d="M191.2,114.2c-2.4,0-4.7-1.3-5.7-3.5c-0.7-1.5-0.7-3.2-0.1-4.8c0.5-1.3,1.5-2.4,2.7-3.2l0-0.1l1-0.4
							l9.4-3.9c3.8-1,6.5,0.9,7.6,3.1c1.4,2.8,0.4,6-2.4,8.2l-0.1,0.1l-9.4,4c0,0-0.1,0-0.1,0c-0.2,0.1-0.4,0.2-0.6,0.2l-0.3,0.1
							l0,0C192.5,114,191.8,114.2,191.2,114.2z M189.7,104.1c-1.1,0.5-1.9,1.4-2.4,2.4c-0.4,1-0.4,2.2,0,3.1
							c0.9,2.1,3.5,2.9,5.8,1.9l0.1-0.1l1-0.5l0,0.1l8.2-3.4c2.3-1.9,2.4-4,1.7-5.5c-0.7-1.3-2.4-2.7-5.1-2l-9.2,3.9
							C189.8,104.1,189.8,104.1,189.7,104.1L189.7,104.1z"/>
					</g>
					<g>
						<path class="st6" d="M183.9,103.5c-2.4-0.9-5.2,0.6-6.2,3.3s0.2,5.6,2.6,6.4c0.1,0,0.1,0,0.2,0l0,0l7.8,3.2
							c5.7,0.4,8-6.9,3.5-9.7l-7.8-3.2l0,0C184,103.5,184,103.5,183.9,103.5z"/>
						<path class="st5" d="M188.8,117.5c-0.2,0-0.4,0-0.5,0l-0.2,0l-8-3.3c0,0-0.1,0-0.1,0c-0.2-0.1-0.3-0.1-0.5-0.2l-0.3-0.1l0,0
							c-2.4-1.4-3.5-4.5-2.5-7.5c0.6-1.5,1.6-2.8,3-3.5c1.1-0.6,2.4-0.8,3.6-0.6l0-0.1l1,0.4l7.9,3.2l0.1,0c2.4,1.5,3.5,4.5,2.5,7.2
							C194.1,115.8,191.7,117.5,188.8,117.5z M188.6,115.4c2.5,0.1,3.9-1.5,4.4-3c0.5-1.4,0.3-3.5-1.6-4.7l-7.7-3.2c0,0-0.1,0-0.1,0
							l0,0c-0.9-0.3-1.9-0.2-2.8,0.2c-0.9,0.5-1.6,1.3-2,2.4c-0.8,2.1,0.1,4.4,2,5.1l0.1,0l1,0.3l0,0.1L188.6,115.4z"/>
					</g>
				</g>
			</g>
		</g>
		<g>
			<g>
				<polygon class="st8" points="829.1,410.6 71,463.4 71,396.7 829.1,343.8 				"/>
			</g>
			<text transform="matrix(1 -6.972903e-02 0 1 116.3905 443.6202)" class="st6 st95 st96 st97">INCREÍBLE · FANTÁSTICA · APOTEÓSICA</text>
		</g>
		<g>
			<polygon class="st5" points="66,158 834.1,104.4 834.1,331.7 66,385.2 			"/>
			<path class="st6" d="M829.1,109.8V327L71,379.8V162.6L829.1,109.8 M839.1,99.1l-10.7,0.7L70.3,152.7l-9.3,0.6v9.3v217.2v10.7
				l10.7-0.7L829.8,337l9.3-0.6V327V109.8V99.1L839.1,99.1z"/>
		</g>
		<g>
			<text transform="matrix(1 -6.972903e-02 0 1 110.3333 314.8924)" class="st10 st95 st98">CONTENIDOS FRECUENTES</text>
			<text transform="matrix(1 -6.972903e-02 0 1 118.0158 307.8479)" class="st5 st95 st98">CONTENIDOS FRECUENTES</text>
			<text transform="matrix(1 -6.972903e-02 0 1 126.129 302.4253)" class="st6 st95 st98">CONTENIDOS FRECUENTES</text>
		</g>
		<rect x="91.9" y="515.9" class="st49" width="283.6" height="368.3"/>
		<text transform="matrix(1 0 0 1 91.9229 538.9648)"><tspan x="0" y="0" class="st95 st99">Incluye contenidos fre</tspan><tspan x="237.6" y="0" class="st95 st99">-</tspan><tspan x="0" y="33.6" class="st95 st99">cuentemente. </tspan><tspan x="153" y="33.6" class="st100 st99">No dejes </tspan><tspan x="0" y="67.2" class="st100 st99">aparcado el fantástico </tspan><tspan x="0" y="100.8" class="st100 st99">trabajo que has hecho. </tspan><tspan x="0" y="134.4" class="st100 st99">Como un jardín, una web </tspan><tspan x="0" y="168" class="st100 st99">hay que cuidarla un poco </tspan><tspan x="0" y="201.6" class="st100 st99">todos los días. Seguro que </tspan><tspan x="0" y="235.2" class="st100 st99">hay cosas que mejorar. </tspan><tspan x="0" y="268.8" class="st100 st99">Ponte manos a la obra.</tspan></text>
		<g>
			<g>
				<path class="st5" d="M226,499.4c-6.7,0-12-5.3-12-12v-15.8c0-8.9,4-17.2,11.1-22.8l2.8-2.2c2.4-1.8,5.2-3.5,8.6-3.5
					c6.7,0,12.4,5.6,12.4,12.2c0,3.9-1.7,7.3-4.8,9.7l-2.4,1.9c-0.1,0.1-0.3,0.2-0.5,0.4l0.9,0.5c4.5,2.4,7.3,5.1,7.3,11.3v8.5
					c0,6.7-5.3,12-12,12H226z M188.5,499.4c-6.7,0-12-5.3-12-12v-15.8c0-8.9,4-17.2,11.1-22.8l2.8-2.2c2.4-1.8,5.2-3.5,8.6-3.5
					c6.7,0,12.4,5.6,12.4,12.2c0,3.9-1.7,7.3-4.8,9.7l-2.4,1.9c-0.1,0.1-0.3,0.2-0.5,0.4l0.9,0.5c4.5,2.4,7.3,5.1,7.3,11.3v8.5
					c0,6.7-5.3,12-12,12H188.5z"/>
				<path class="st6" d="M236.4,448c3.8,0,7.4,3.2,7.4,7.2c0,1.8-0.5,4-2.9,5.8l-2.5,2c-2,1.6-3.2,2.7-3.2,4.9
					c0,1.8,1.3,2.7,3.4,3.8l1.1,0.5c3.4,1.8,4.7,3.1,4.7,6.8v8.5c0,4-3.1,7-7,7H226c-4,0-7-3.1-7-7v-15.8c0-8.1,4-14.8,9.2-18.9
					l2.7-2.2C233,448.9,234.6,448,236.4,448 M199,448c3.8,0,7.4,3.2,7.4,7.2c0,1.8-0.5,4-2.9,5.8l-2.5,2c-2,1.6-3.2,2.7-3.2,4.9
					c0,1.8,1.3,2.7,3.4,3.8l1.1,0.5c3.4,1.8,4.7,3.1,4.7,6.8v8.5c0,4-3.1,7-7,7h-11.3c-4,0-7-3.1-7-7v-15.8c0-8.1,4-14.8,9.2-18.9
					l2.7-2.2C195.6,448.9,197.2,448,199,448 M236.4,438c-4.9,0-8.6,2.3-11.6,4.5l-0.1,0.1l-0.1,0.1l-2.7,2.2
					c-2.3,1.8-4.3,3.9-6.1,6.2c-1.9-7.4-8.9-13.1-16.8-13.1c-4.9,0-8.6,2.3-11.6,4.5l-0.1,0.1l-0.1,0.1l-2.7,2.2
					c-8.2,6.5-12.9,16.2-12.9,26.7v15.8c0,9.5,7.5,17,17,17h11.3c5.3,0,9.9-2.3,13-6c3.1,3.7,7.8,6,13,6h11.3c9.5,0,17-7.5,17-17
					v-8.5c0-5.9-2.1-9.7-4.9-12.2c2.9-3.1,4.4-7.1,4.4-11.5C253.8,445.9,245.8,438,236.4,438L236.4,438z"/>
			</g>
		</g>
		<g>
			<text transform="matrix(0.9762 -7.598437e-02 2.250000e-03 1 268.2312 135.8202)" class="st5 st95 st101">webconsejos</text>
			<g>
				<g>
					<path class="st10" d="M672.9,90.5c0.9,2.4,2.4,3.5,4.8,3.3c1.4-0.1,1.8-0.3,4.9-2.1c0.4-0.2,0.9-0.4,1.3-0.4
						c1.2-0.1,2.4,1,2.4,2.3c0,2.5-4.4,5.2-9,5.6c-6.4,0.5-10.9-3.6-11-9.9c0-6.6,4.4-11.7,10.3-12.2c5.6-0.4,10,3.9,10,9.9
						c0,1.7-0.8,2.5-2.6,2.6L672.9,90.5z M680.8,85.7c-0.3-1.2-0.5-1.6-0.9-2.2c-0.7-1-1.8-1.5-3.1-1.4c-2,0.2-3.3,1.4-4.2,4.2
						L680.8,85.7z"/>
					<path class="st10" d="M695.4,77.4c1.8-1.5,3.1-2,4.9-2.2c5.2-0.4,9.3,4.1,9.4,10.3c0,6.3-4,11.5-9.3,11.9c-2.3,0.2-3.7-0.4-5-2
						c-0.7,1.6-1.5,2.4-2.8,2.5c-1.8,0.1-3.1-1.1-3.1-3l-0.1-23.7c0-1.5,0-1.9,0.4-2.6c0.4-1,1.5-1.7,2.6-1.8
						c1.1-0.1,2.1,0.5,2.6,1.4c0.4,0.7,0.4,1,0.4,2.5L695.4,77.4z M695.4,86.6c0,3.1,1.8,5.2,4.2,5.1c2.3-0.2,4.1-2.6,4.1-5.7
						c0-3-1.8-5.2-4.1-5C697.2,81.2,695.4,83.6,695.4,86.6z"/>
					<path class="st10" d="M712.3,78c0-2.2,1.2-3.7,3.1-3.9c1.4-0.1,2.2,0.5,2.8,1.9c1.8-1.8,3.2-2.5,5.5-2.7
						c2.1-0.2,3.8,0.3,5.2,1.4c1.6,1.3,2.2,2.8,2.2,5.8l0,10.1c0,1.5,0,1.9-0.4,2.6c-0.4,1-1.5,1.7-2.6,1.8
						c-1.1,0.1-2.2-0.5-2.6-1.4c-0.4-0.7-0.4-1-0.4-2.5l0-8.7c0-2.4-1.3-3.8-3.4-3.6c-1.9,0.1-3.4,1.9-3.4,3.9l0,8.9
						c0,1.5,0,1.9-0.4,2.6c-0.4,1-1.5,1.7-2.6,1.8c-1.1,0.1-2.2-0.5-2.6-1.4c-0.4-0.7-0.4-1-0.4-2.5L712.3,78z"/>
					<path class="st10" d="M735.2,76.8c0-1.5,0-1.9,0.4-2.6c0.4-1,1.5-1.7,2.6-1.8c1.1-0.1,2.1,0.5,2.6,1.4c0.4,0.7,0.4,1,0.4,2.5
						l0,13.7c0,1.5,0,1.9-0.4,2.6c-0.4,1-1.5,1.7-2.6,1.8c-1.1,0.1-2.2-0.5-2.6-1.4c-0.4-0.7-0.4-1-0.4-2.5L735.2,76.8z M744.7,66.1
						c0-1.4-1.2-2.5-2.8-2.6l0,0l-0.1,0c-0.2,0-0.4,0-0.5,0c-0.2,0-0.4,0-0.6,0.1l-4.8,0.4c-0.2,0-0.4,0-0.5,0
						c-2,0.2-3.6,1.6-3.6,3.2c0,1.6,1.6,2.8,3.5,2.7c0,0,0.1,0,0.1,0l6.5-0.6C743.5,68.8,744.7,67.5,744.7,66.1z"/>
					<path class="st10" d="M760,74.8c0,1.4-1.1,2.8-2.3,2.9c-0.7,0.1-0.7,0.1-2.5-0.6c-0.9-0.4-1.7-0.5-2.3-0.5
						c-1,0.1-1.6,0.5-1.6,1.2c0,0.8,0.3,1,3.2,1.9c2.7,0.9,3.5,1.3,4.6,2.3c0.9,1,1.5,2.2,1.5,3.8c0,4.1-3.2,7.1-7.9,7.5
						c-4.1,0.3-7.7-1.5-7.7-3.9c0-1.4,1.2-2.9,2.5-3c0.7-0.1,0.7-0.1,3.1,0.9c1,0.4,1.8,0.5,2.4,0.5c1-0.1,1.8-0.8,1.8-1.6
						c0-0.7-0.5-1.1-2.3-1.6c-3-0.9-3.8-1.3-4.8-1.9c-1.4-0.9-2.1-2.3-2.1-4.3c0-3.8,3.3-6.9,7.7-7.3C756.8,70.8,760,72.6,760,74.8z
						"/>
					<path class="st10" d="M770.5,64.3c0,2-1.5,3.7-3.5,3.9c-2,0.2-3.5-1.3-3.5-3.3c0-2,1.6-3.7,3.6-3.8
						C768.9,60.8,770.5,62.3,770.5,64.3z M764,74.5c0-1.5,0-1.9,0.4-2.6c0.4-1,1.5-1.7,2.6-1.8c1.1-0.1,2.1,0.5,2.6,1.4
						c0.4,0.7,0.4,1,0.4,2.5l0,13.7c0,1.5,0,1.9-0.4,2.6c-0.4,1-1.5,1.7-2.6,1.8c-1.1,0.1-2.2-0.5-2.6-1.4c-0.4-0.7-0.4-1-0.4-2.5
						L764,74.5z"/>
					<path class="st10" d="M774.2,73.2c0-2.1,1.2-3.7,3-3.8c1.2-0.1,1.8,0.3,2.9,1.8c1.7-1.7,3.1-2.4,5.3-2.6c1.5-0.1,3,0.1,4.1,0.7
						c0.6,0.3,1,0.6,1.7,1.5c2.4-2.2,4-3,6.3-3.2c4.2-0.3,7.3,2.5,7.3,6.6l0,10.8c0,1.5,0,1.9-0.4,2.6c-0.4,1-1.5,1.7-2.6,1.8
						c-1.1,0.1-2.2-0.5-2.6-1.4c-0.4-0.7-0.4-1-0.4-2.5l0-9.4c0-1.9-1.2-3.1-3.1-3s-3.1,1.5-3.1,3.4l0,9.4c0,1.5,0,1.9-0.4,2.6
						c-0.4,1-1.5,1.7-2.6,1.8c-1.1,0.1-2.2-0.5-2.6-1.4c-0.4-0.7-0.4-1-0.4-2.5l0-8.8c0-2.4-1.2-3.7-3.1-3.5
						c-1.8,0.1-3.1,1.6-3.1,3.4l0,9.4c0,1.5,0,1.9-0.4,2.6c-0.4,1-1.5,1.7-2.6,1.8c-1.1,0.1-2.2-0.5-2.6-1.4c-0.4-0.7-0.4-1-0.4-2.5
						L774.2,73.2z"/>
					<path class="st10" d="M828,83.7c0,2.2-1.2,3.8-3,3.9c-1.4,0.1-2.4-0.6-3-2.2c-1.5,2.1-2.7,2.8-4.9,2.9
						c-2.2,0.2-4.2-0.5-5.9-1.9c-2.4-2-3.6-4.8-3.6-8.5c0-3.4,1-6,3.1-8.4c1.8-2,3.9-3.1,6.3-3.3c2.1-0.2,3.4,0.4,5.1,2
						c0.7-1.7,1.6-2.4,3-2.5c1.7-0.1,3,1.2,3,2.9L828,83.7z M813.5,77.4c0,3.2,1.6,5.3,4.2,5.1c2.5-0.2,4.1-2.5,4.1-5.7
						c0-3.2-1.7-5.2-4.2-5C815.1,72,813.5,74.3,813.5,77.4z"/>
				</g>
				<g>
					<path class="st5" d="M663.4,79.6c-0.4-0.7-1.1-1.2-1.9-1.3c-0.2,0-0.5-0.1-0.7,0c-0.2,0-0.5,0.1-0.7,0.1
						c-0.8,0.3-1.6,0.9-1.9,1.6c-0.3,0.5-0.4,0.9-0.4,1.5c0,0.3,0,10.8,0,10.8c0,1-0.3,1.5-0.6,1.9c-0.4,0.4-0.9,0.6-1.4,0.7
						c-0.6,0-1.1-0.2-1.5-0.6c-0.3-0.4-0.6-0.8-0.6-1.7l0-10.1l0,0c0-1.2-0.1-1.6-0.4-2.2c-0.4-0.7-1.1-1.2-1.9-1.3
						c-0.2,0-0.5-0.1-0.7,0c-0.2,0-0.5,0.1-0.7,0.1c-0.8,0.3-1.6,0.9-1.9,1.6c-0.3,0.5-0.4,0.9-0.4,1.5c0,0.2,0,0.8,0,0.8l0,10
						c0,1-0.3,1.5-0.6,1.9c-0.4,0.4-0.9,0.6-1.4,0.7c-0.6,0-1.1-0.2-1.5-0.6c-0.3-0.4-0.6-0.8-0.6-1.7l-0.1-9.7c0-1.5,0-1.8-0.4-2.5
						c-0.4-0.7-1.1-1.2-1.9-1.3c-0.2,0-0.5-0.1-0.7,0c-0.2,0-0.5,0.1-0.7,0.1c-0.8,0.3-1.6,0.9-1.9,1.6c-0.3,0.5-0.4,0.9-0.4,1.5
						c0,0.3,0,11,0,11c0,3,1,4.8,2.7,6c1.5,1.1,3.4,1.6,5.2,1.4c1.6-0.1,2.9-0.5,4-1.3l0.5-0.4c0.3-0.2,0.6-0.4,0.8-0.4
						c0.3,0,0.5,0.1,0.8,0.2l0.6,0.3c1.1,0.6,2.5,0.8,4,0.6c1.9-0.1,3.6-0.9,5.1-2.2c1.7-1.5,2.7-3.4,2.7-6.4l0-10
						C663.9,80.6,663.8,80.3,663.4,79.6z"/>
					<g>
						<g>
							<path class="st9" d="M650.6,72.1c-6,0.6-11,0.1-11-1c0-0.4,0.7-0.7,1.7-1.2c4.4-2,6.7-2.6,10.8-2.6c2.9,0,6.2-0.2,8.5,1.1
								c0.6,0.2,0.9,0.4,0.9,0.7C661.6,70.2,656.7,71.6,650.6,72.1z M667,68.7c-0.1-2.8-5.1-4.3-16.4-3.3c-10.7,1-16.3,3.5-16.3,6.3
								c0.1,4.3,7.4,5.9,16.5,5C659.7,76,667,73.1,667,68.7z"/>
						</g>
					</g>
				</g>
			</g>
		</g>
		<g>
			<path class="st6" d="M605.4,821.8c-110.5,0-164.9-0.8-194.3-19.2c-31.7-19.9-31.7-56.6-31.7-123.2l0-14.8
				c-0.1-67.8-0.1-105.2,34-124.6c31.3-17.9,90.4-17.9,208.1-17.9l15.6,0c7.1,0,14.9,0,22.9,0c-1.8-5.7-3-8.9-3.7-10.7
				c-3.9-10.2-2.8-21.3,3-29.8c4.8-6.9,11.9-10.9,19.6-10.9c0.6,0,1.2,0,1.8,0.1c5.6,0.5,10.2,2.9,13.4,7c0.5,0.6,0.9,1.2,1.2,1.8
				c-1.1-9.8-2.3-21.3-3.4-32.9c-6-65.2-1.8-70,1.6-73.8c2.2-2.5,5.2-3.9,8.5-3.9l0.2,0c4.5,0.1,12.9,1.9,18.9,13.3
				c2.6,5,3.7,9.8,3.9,10.4l0.1,0.6l8.7,91.1l0.4,0.4v-76c0-16.5,13.2-30,29.5-30s29.5,13.5,29.5,30v12.6l6-30.5
				c1.7-8.7,7.4-18.9,17.8-18.9c2.8,0,5.5,0.8,8.2,2.3c6.6,3.8,7.8,11.1,5.2,33.7l32.8-17.8l13.3,24.7l-17.6,121.6l-8.2,25.8
				c12.8,22.8,12.8,56.2,12.8,109.4c0,71.3,0,110.5-33.8,131c-31.4,18.9-90.5,18.9-208.3,19L605.4,821.8z M808.7,532
				c1.7,0.5,3.4,1,5.1,1.6l2.7-9.2l4.6-55.9C816.1,495.6,810.8,521.6,808.7,532z M703.8,522.4c2.5,0,5,0.1,7.3,0.1l-9.1-9.3
				L703.8,522.4z"/>
			<path class="st5" d="M840,563.8l9.4-29.4l17-117.5l-7-13l-24,13l-9.1,109.4l-6.1,20.8c-7.9-3.9-17.6-6.8-29.7-8.9l7.4-3.5
				c0,0,31-146.8,22.5-151.6c-8.4-4.8-11.3,9.8-11.3,9.8l-23.3,119l-2.5,2v-105c0-11-8.7-20-19.5-20s-19.5,9-19.5,20v100.9l-20-20.9
				l-9-94c0,0-3.4-15.6-13.2-15.8c-9.8-0.2,6.5,126.6,6.5,126.6l26.8,27.5c-12.1-0.5-25.3-0.7-40-0.9l-7.1-36.9
				c0,0,2.4-13.8-8.4-14.6c-10.8-0.9-19.7,12.9-14.3,27c1.9,4.9,4.9,14.3,7.9,24.3c-15.9-0.1-33.2-0.1-52.1-0.1
				c-236.5,0.1-232.1,0.1-232.1,139.9s-4.3,139.9,232.2,139.8c232.1-0.1,232.1-0.1,232.1-139.9C853.7,617.4,853.7,584.1,840,563.8z"
				/>
			<g>
				<g>
					<defs>
						<ellipse id="SVGID_00000065782070464475073160000010957509395024840627_" cx="621.7" cy="674.3" rx="232.1" ry="139.9"/>
					</defs>
					<clipPath id="SVGID_00000176733663973689927150000018168316721394290367_">
						<use xlink:href="#SVGID_00000065782070464475073160000010957509395024840627_"  style="overflow:visible;"/>
					</clipPath>
					
						<rect x="375.9" y="519.9" style="clip-path:url(#SVGID_00000176733663973689927150000018168316721394290367_);fill:#8288A8;" width="502.9" height="263.2"/>
					<path style="clip-path:url(#SVGID_00000176733663973689927150000018168316721394290367_);fill:#FCCF72;" d="M368.3,627.2
						c0,0,99.5-53.6,141.9-34.9s76,51.4,99.5,48.7c23.5-2.7,13.9-13.9,46.5-26.3s54.7,26.5,62.8,26.3c8.2-0.2,61.1-26.3,61.1-26.3
						h32.3l31.1,26.4l35.9-26.4v219.1H352.8L368.3,627.2z"/>
				</g>
				<g>
					<g>
						<ellipse class="st12" cx="621.6" cy="671.9" rx="232.1" ry="139.9"/>
					</g>
				</g>
				<g>
					<path class="st8" d="M763.9,388.9c-10.8,0-19.5,9-19.5,20v317h39v-317C783.4,397.8,774.6,388.9,763.9,388.9z"/>
					<path class="st8" d="M775.4,520.3l10.5-8.4l23.3-119c0,0,2.8-14.6,11.3-9.8c8.4,4.8-22.5,151.6-22.5,151.6l-22.5,10.6V520.3z"
						/>
					<path class="st8" d="M750.6,516.3l-26.2-27.4l-9-94c0,0-3.4-15.6-13.2-15.8c-9.8-0.2,6.5,126.6,6.5,126.6l42,43.1V516.3z"/>
					<path class="st8" d="M750.4,584.1l-33.8-14l-17.8-20.4l-10.4-54.3c0,0,2.4-13.8-8.4-14.6c-10.8-0.9-19.7,12.9-14.3,27
						c5.4,14.1,19.6,63.9,19.6,63.9l29.8,26.2l35.2,10.9V584.1z"/>
					<polygon class="st8" points="757.4,636.9 796.4,627.9 826.3,526.3 835.4,416.9 859.4,403.9 866.4,416.9 849.4,534.4 
						811.9,651.9 757.4,657.5 					"/>
				</g>
				<g>
					<path class="st8" d="M471.7,552.9c-4.4,0-8.1,3.7-8.1,8.3v130.9h16.1V561.2C479.7,556.6,476.1,552.9,471.7,552.9z"/>
					<path class="st8" d="M476.4,607.2l4.3-3.5l9.6-49.1c0,0,1.2-6,4.7-4c3.5,2-9.3,62.6-9.3,62.6l-9.3,4.4V607.2z"/>
					<path class="st8" d="M466.2,605.5l-10.8-11.3l-3.7-38.8c0,0-1.4-6.4-5.5-6.5c-4-0.1,2.7,52.3,2.7,52.3l17.3,17.8V605.5z"/>
					<path class="st8" d="M466.1,633.5l-14-5.8l-7.3-8.4l-4.3-22.4c0,0,1-5.7-3.5-6s-8.1,5.3-5.9,11.2c2.2,5.8,8.1,26.4,8.1,26.4
						l12.3,10.8l14.5,4.5V633.5z"/>
					<polygon class="st8" points="469,655.3 485.1,651.6 497.5,609.7 501.2,564.5 511.1,559.1 514,564.5 507,613 491.5,661.5 
						469,663.8 					"/>
				</g>
				<g id="hqTBtq_00000021101688780960758150000008272714524662759837_">
					<g>
						<path class="st5" d="M530.8,730.2c-0.4-0.6-0.8-0.9-1.5-1.2c-3.2-1-6.3-1.9-9.4-3.1c-1.8-0.7-2.4-2.7-1.6-4.5
							c0.8-1.7,2.7-2.4,4.4-1.7c0.9,0.4,1.8,0.7,2.7,1.1c0.4,0.1,0.7,0.2,1.4,0.4c-2.2-5.8-3.9-11.4-4.9-17.2
							c-0.5-2.9-0.9-5.9-1.3-8.9c-0.1-0.9-0.4-1.4-1.1-1.8c-2-1.2-4.1-2.4-6.1-3.6c-1.3-0.8-2-2.2-1.7-3.7c0.3-1.4,1.5-2.6,3-2.7
							c0.7,0,1.5,0.2,2.2,0.5c1,0.5,2,1.1,3.1,1.6c0.3-4.6,0.7-9.1,1-13.8c-1.1,0.3-2.1,0.6-3.2,0.9c-2.2,0.6-4.1-0.4-4.6-2.3
							c-0.5-2,0.6-3.7,2.8-4.4c1.9-0.6,3.8-1.1,5.7-1.8c0.4-0.1,0.9-0.7,1-1.1c4.3-18,13-33.5,26-46.7c0.5-0.5,0.6-1,0.3-1.7
							c-1.4-3.8-2.3-7.8-2.3-11.9c0-2.2,1.3-3.6,3.2-3.7c2-0.1,3.4,1.4,3.6,3.5c0.3,2.6,0.7,5.2,1,7.9c4.5-3.3,8.8-6.3,13.1-9.4
							c-0.7-0.4-1.5-0.8-2.2-1.2c-1.8-1.1-2.4-3.1-1.4-4.7c1-1.7,2.9-2.2,4.8-1.2c1.9,1,3.9,1.9,5.8,2.8c0.4,0.2,1,0.2,1.4,0
							c7.8-3.7,16-6.4,24.6-7.9c0.2,0,0.4-0.1,0.5-0.2c-0.5-2.2-1-4.2-1.4-6.3c-0.1-0.5-0.1-1.1-0.1-1.7c0.1-1.8,1.5-3.2,3.2-3.3
							c1.8-0.1,3.2,1.1,3.6,2.9c0.4,2.1,1,4.3,1.4,6.4c0.2,0.9,0.7,1.1,1.6,1c7.4-0.7,14.7-0.5,22,0.4c0.4,0.1,1-0.2,1.3-0.5
							c2.4-2.6,4.8-5.3,7.1-7.9c1.2-1.3,2.9-1.7,4.3-1c1.4,0.7,2.2,2.3,1.7,3.8c-0.2,0.6-0.5,1.2-0.9,1.7c-1.5,1.8-3,3.6-4.6,5.6
							c9.7,2.3,18.8,5.8,27.4,10.9c0.3-1.2,0.5-2.4,0.9-3.5c0.8-2.5,1.7-5.1,2.7-7.5c0.9-2.1,2.9-2.8,4.7-1.9
							c1.8,0.9,2.4,2.8,1.5,4.8c-1.6,3.6-2.7,7.4-3.2,11.4c-0.1,0.7,0.1,1,0.6,1.4c6.5,4.5,12.3,9.8,17.5,15.8
							c0.4,0.5,0.8,0.5,1.4,0.4c2.3-0.4,4.6-0.7,6.9-0.9c2.1-0.2,3.7,1.2,3.9,3.2c0.1,1.9-1.4,3.5-3.5,3.6c-1,0.1-2.1,0.2-3.3,0.3
							c0.3,0.4,0.5,0.8,0.7,1.1c3.8,5.4,7.1,11.1,9.8,17.1c0.2,0.5,0.9,1,1.4,1.2c1.8,0.6,3.6,1.1,5.4,1.7c2.2,0.6,3.3,2.4,2.7,4.3
							c-0.5,1.9-2.4,2.9-4.6,2.3c-0.4-0.1-0.8-0.2-1.4-0.4c4.4,13.7,5.8,27.6,4.2,41.8c2.7-0.2,5.2-0.5,7.7-0.6
							c2.3-0.1,3.8,1.1,4,3.1c0.1,1.9-1.2,3.5-3.1,3.7c-2.9,0.3-5.8,0.6-8.7,0.9c-0.6,0.1-0.9,0.2-1.1,0.9
							c-1.1,5.9-2.9,11.7-5.2,17.6c1.3,0.6,2.5,1.2,3.8,1.7c2,0.8,2.8,2.9,1.9,4.7c-0.8,1.6-2.5,2.3-4.3,1.7
							c-1.4-0.5-2.7-1.1-4.2-1.7c-0.1,0.3-0.3,0.6-0.5,0.9c-4.9,9.7-11.3,18.4-19,26.1c-0.4,0.3-0.6,1-0.5,1.5
							c0.1,2.4-1.7,4.1-4.2,3.7c-0.4-0.1-1.1,0-1.4,0.3c-7.8,6.4-16.4,11.6-25.7,15.4c-0.1,0-0.1,0.1-0.2,0.3c0.4,0,0.8,0,1.2,0
							c6.6,0,13.3,0,19.9,0c2.3,0,3.8,1.3,3.9,3.2c0.1,2.1-1.4,3.7-3.6,3.7c-6,0-12,0-18,0c-32.6,0-65.2,0-97.8,0
							c-2.5,0-4-1.2-4-3.3c-0.1-2.1,1.4-3.6,3.9-3.6c6.6,0,13.2,0,19.8,0c0.4,0,0.8,0,1.1,0c-11.9-5.1-22.5-12.1-31.8-21.1
							c-1.2,1.7-2.3,3.3-3.4,4.9c-1.4,1.9-3.5,2.3-5.1,1c-1.6-1.2-1.7-3.3-0.4-5.1c1.4-2,2.7-4,3.9-5.8 M575,631.9
							c2.4,0.8,4.6,1.5,6.8,2.2c6.1,1.7,12.4,2.3,18.7,2.6c2.1,0.1,3.5,1.6,3.4,3.5c-0.1,1.9-1.6,3.4-3.7,3.3
							c-4.1-0.3-8.3-0.6-12.4-1.1c-5.7-0.7-11.2-2.3-16.5-4.6c-0.2,0.2-0.4,0.5-0.5,0.7c-2.9,4.1-6.2,7.7-9.9,11.1
							c-9.3,8.5-20,14.6-31.6,19.2c-0.8,0.3-1.1,0.7-1.3,1.5c-1,6.3-1.4,12.5-1.2,18.9c0,0.8,0.3,1.3,0.9,1.8c3,2.3,6,4.6,8.9,7.2
							c7.4,6.7,13.5,14.4,17,23.9c0,0.1,0.1,0.2,0.4,0.5c2.8-0.8,5.6-1.6,8.4-2.5c9.2-3.2,17.5-8.2,25.1-14.2c1.7-1.4,3.8-1.2,5,0.3
							c1.3,1.5,1,3.6-0.7,5c-8.4,6.7-17.5,12.2-27.8,15.6c-2.8,1-5.7,1.7-8.6,2.6c0,0.1,0,0.3,0,0.4c0.9,6.4,0.1,12.6-2.2,18.6
							c-0.4,1-0.2,1.5,0.5,2.2c20.7,19.9,45.4,28.8,74.1,26.1c18.6-1.8,34.9-9,49.2-20.9c0.7-0.6,0.8-1.1,0.4-1.9
							c-2.5-6.2-4-12.5-4.1-19.2c-0.1-6.7,1.4-12.9,5-18.6c3.2-5,7.6-8.7,12.8-11.5c0.7-0.4,1-0.7,0.9-1.5c-0.3-2.4-0.5-4.8-0.6-7.2
							c-0.4-8.1,0.3-16.1,1.8-24.1c0.3-1.8,1.7-2.8,3.4-2.8c2.4,0,3.8,2,3.3,4.7c-1.3,7.5-1.9,15-1.6,22.6c0.1,1.6,0.3,3.2,0.4,4.8
							c3.3-0.9,6.4-1.7,9.5-2.5c0.3-0.1,0.6-0.5,0.7-0.8c0.2-1.5,0.4-2.9,0.5-4.4c1.1-13.6-0.7-26.9-5.5-39.7
							c-0.3-0.8-0.7-1.2-1.5-1.5c-6.7-2.6-13-5.9-18.7-10.3c-0.7-0.6-1.4-1.1-2.2-1.8c-0.2,0.5-0.3,0.8-0.5,1.2
							c-1.3,3.9-1.7,7.9-1.4,11.9c0.1,1.6-0.4,2.8-1.9,3.6c-2.3,1.2-4.8-0.3-5-3.2c-0.4-6.2,0.4-12.2,3.1-17.9
							c0.3-0.7,0.3-1.2-0.2-1.8c-5.7-7.1-8.6-15.3-8.6-24.4c0-0.8-0.3-1.2-1-1.6c-8.8-5.4-18.3-9.1-28.4-11.5
							c-2.5-0.6-4.3-0.4-6.3,1.4c-2.1,1.8-4.5,3.1-7.1,4.8c2.9,0.9,5.7,1.8,8.5,2.5c5,1.2,10.1,1.8,15.2,2c2.6,0.1,4.2,2.1,3.5,4.4
							c-0.4,1.6-1.9,2.6-3.8,2.4c-3.2-0.3-6.5-0.5-9.7-0.9c-7.4-1-14.5-3-21.2-6.6c-0.5-0.2-1.2-0.3-1.7-0.1
							c-4.7,1.5-9.6,2.3-14.5,2.5c-8.2,0.3-16.1-1-23.9-3.4c-0.6-0.2-1.4-0.1-1.9,0.1c-6,3.2-11.5,7-16.5,11.4
							c-0.3,0.3-0.6,0.5-0.8,0.8c2.8,4.8,6.6,8.4,11.3,11.4c0.5-0.9,0.9-1.8,1.3-2.6c1-1.8,2.9-2.5,4.5-1.7c1.8,0.9,2.5,2.8,1.6,4.8
							C576,629.9,575.6,630.7,575,631.9z M530.3,660.8c13.8-6.3,26-14.2,35-26.4c-5.2-3.3-9.4-7.3-12.7-12.3
							C542,633.2,534.6,645.9,530.3,660.8z M693.8,710.7c-5,3-9,6.8-11.2,12.1c-2.4,5.6-2.6,11.5-1.5,17.4c0.6,3.1,1.5,6.2,2.3,9.4
							c0.4-0.2,0.5-0.3,0.6-0.3c7-7.2,12.7-15.3,17-24.4c0.3-0.6,0.1-0.9-0.3-1.4c-2.2-2.5-3.9-5.3-5.1-8.3
							C694.9,713.7,694.4,712.3,693.8,710.7z M547.1,723.6c-4.1-10.1-10.9-17.3-18.9-23.9c0,0.4,0,0.5,0,0.7
							c1.2,7.7,3.5,15.1,6.6,22.2c0.1,0.3,0.5,0.6,0.8,0.6C539.3,723.3,543,723.4,547.1,723.6z M585.7,600.1
							c7.8,2,15.6,2.2,23.4,0.4c-1.5-1.8-2.8-3.4-4.2-5c-0.2-0.2-0.8-0.3-1.2-0.3c-4.2,1-8.4,1.9-12.6,3
							C589.3,598.7,587.5,599.5,585.7,600.1z M538.7,730.3c2.7,4.7,5.6,9,9,13.1c1.3-4.5,1.7-8.9,1-13.4c-1.7,0.1-3.3,0.2-4.9,0.3
							C542.2,730.3,540.6,730.3,538.7,730.3z M674.6,613.3c-0.1,0.1-0.2,0.2-0.3,0.2c0,4.1,3.4,12.3,6.1,14.9
							c1.8-1.4,3.7-2.8,5.7-4.4C682.3,620.4,678.5,616.8,674.6,613.3z M685,633.5c4.3,3.9,9,6.8,13.9,9.2c0.1-0.1,0.2-0.2,0.3-0.3
							c-2.8-4.3-5.6-8.6-8.5-13.1C688.6,630.9,686.8,632.2,685,633.5z M707.6,705.7c-0.1-0.1-0.2-0.2-0.3-0.3
							c-2.2,0.7-4.4,1.4-6.6,2.1c-0.2,0.1-0.5,0.7-0.4,1c0.4,1.4,0.9,2.9,1.5,4.3c0.6,1.4,1.4,2.7,2.1,4.1c0.1,0,0.3,0,0.4-0.1
							C705.5,713.1,706.5,709.4,707.6,705.7z M612.9,594.2c-0.1,0.1-0.1,0.2-0.2,0.4c1.2,1,2.5,2.1,3.7,3.1c0.2,0.1,0.6,0.2,0.7,0.2
							c2.2-1.1,4.4-2.2,6.5-3.2c0-0.1-0.1-0.2-0.1-0.4C620.1,594.2,616.5,594.2,612.9,594.2z"/>
						<path class="st5" d="M651.8,697.7c-1.1,1.1-2,2.1-2.9,3.1c-4,4.7-6.4,10-6.6,16.2c0,1.5,0.2,2.9,0.3,4.4
							c0.2,1.5-0.1,2.9-1.5,3.8c-1.2,0.7-2.5,0.9-3.6,0c-0.7-0.6-1.4-1.5-1.6-2.4c-1.5-8.6,0.4-16.6,5.5-23.6c2.2-3,4.8-5.6,7.5-8.6
							c-2.7-5.3-6.6-10.2-11.1-14.5c-2.5,2.7-5,5.3-7.4,7.9c-1,1-2.1,2-3.2,2.9c-1.6,1.3-3.7,1.1-4.9-0.4c-1.2-1.5-1-3.6,0.6-4.9
							c3.6-3,6.8-6.3,9.6-10.2c-0.3-0.3-0.6-0.6-1-0.8c-3.3-2.1-6.6-4.3-9.9-6.3c-1.8-1.1-2.5-3-1.6-4.8c0.9-1.7,2.9-2.4,4.7-1.3
							c3.5,2,6.9,4.3,10.3,6.4c0.4,0.3,0.8,0.5,1.3,0.9c0.3-0.6,0.6-1.1,0.9-1.6c2.5-4.9,4.1-10,5.1-15.4c0.2-0.8-0.1-1.2-0.7-1.7
							c-9-6.9-13.5-16.1-13.7-27.4c0-2.8,2.5-4.5,4.9-3.4c1.4,0.7,2,1.9,2,3.4c-0.1,7.3,2.5,13.5,7.4,18.8c0.3,0.3,0.6,0.5,1.2,0.7
							c-0.2-2.6-0.3-5.2-0.5-7.8c0-0.6-0.2-1.2-0.3-1.8c-0.3-2,0.8-3.7,2.6-4.1c2-0.4,3.9,0.8,4.1,2.9c0.4,4,0.5,8,0.7,12.1
							c0,0,0,0.1,0,0.1c-0.2,3.8-0.3,3.8,3.3,5.3c1.9,0.7,3.8,1.4,5.8,2c2.1,0.6,3.2,2.4,2.6,4.3c-0.5,1.9-2.4,3-4.4,2.3
							c-2.9-0.9-5.7-1.9-8.6-2.9c-0.3,1.1-0.5,2.3-0.8,3.4c-1.3,5-3.2,9.9-5.8,14.4c-0.3,0.5-0.5,0.8,0,1.3c5,4.7,9.3,10,12.6,16.1
							c0,0.1,0.1,0.1,0.2,0.2c2-1,3.9-2.2,5.9-3.1c2.7-1.3,5.4-2.4,8.1-3.5c2.1-0.9,4,0,4.7,1.9c0.7,1.9-0.3,3.6-2.3,4.6
							c-4.3,2-8.5,4.1-12.7,6.1c-0.8,0.4-0.9,0.8-0.6,1.7c1.9,5.8,2.7,11.7,2.3,17.8c-0.2,2.2-1.6,3.6-3.7,3.4
							c-2-0.1-3.3-1.6-3.1-3.8c0.2-4.2-0.1-8.4-1.2-12.5C652.1,698.8,652,698.3,651.8,697.7z"/>
						<path class="st5" d="M571.5,680.2c3.4,1.3,6.7,2.1,10.2,2.5c8.4,1.1,16.7,0.2,24.7-2.3c0.8-0.2,1.6-0.5,2.4-0.4
							c1.6,0.1,2.9,1.4,3.1,3c0.2,1.6-0.7,3.1-2.4,3.6c-4,1-8,2.2-12.1,2.8c-9.3,1.5-18.4,0.7-27.3-2.4c-0.1-0.1-0.3-0.1-0.5-0.1
							c-0.7,4.3-0.3,8.5,0.8,12.7c0.3,1,0.6,2,1,3c0.7,1.9-0.2,3.9-2,4.5c-1.8,0.7-3.7-0.2-4.4-2.1c-2.3-6.4-3-12.9-2-19.6
							c0.1-1,0-1.5-0.9-2c-4.2-2.2-8.1-5-11.5-8.3c-0.9-0.9-1.5-2-1.3-3.3c0.2-1.3,1-2.3,2.3-2.7c1.4-0.4,2.6-0.2,3.6,0.9
							c2.7,2.8,5.9,5,9.3,6.9c0.2,0.1,0.5,0.2,0.7,0.3c1.2-2,2.3-4,3.6-5.9c4.2-6.1,10-10.3,16.5-13.5c1.8-0.9,3.8-0.1,4.6,1.6
							c0.8,1.7,0.2,3.6-1.6,4.6c-4,2.1-7.8,4.4-10.8,7.8c-1.9,2.2-3.4,4.7-5.1,7.1C571.8,679.3,571.7,679.8,571.5,680.2z"/>
						<path class="st5" d="M615.7,754.1c-2.5-7.2-1.8-14,1-20.8c0.2-0.4,0.3-0.8,0.5-1.2c1-1.9,2.9-2.6,4.6-1.7
							c1.8,0.8,2.4,2.8,1.6,4.7c-1.5,3.2-2.4,6.6-2.4,10.2c0,3.1,0.7,6,2.3,8.7c0.4,0.7,0.9,0.9,1.6,0.9c7.2-0.2,14-1.8,20.7-4.3
							c0.3-0.1,0.5-0.2,0.8-0.3c1.9-0.6,3.8,0.2,4.4,2c0.7,1.8-0.2,3.7-2.1,4.5c-5.1,2-10.3,3.4-15.7,4.2c-0.3,0.1-0.7,0.1-1.1,0.4
							c0.7,0.3,1.4,0.7,2.2,1c1.9,0.9,2.7,2.7,2,4.5c-0.8,1.8-2.7,2.6-4.7,1.7c-3.8-1.6-7.3-3.7-10.3-6.5c-0.4-0.4-1-0.6-1.6-0.6
							c-15.4-1.4-27.5-8.6-36.4-21.1c-0.3-0.5-0.6-0.9-0.9-1.4c-1.1-1.9-0.6-3.9,1.2-4.9c1.7-1,3.7-0.4,4.7,1.4
							c1.8,3.1,4,5.8,6.6,8.2c5.6,5.3,12.2,8.7,19.7,10.3C614.8,754,615.2,754,615.7,754.1z"/>
					</g>
				</g>
			</g>
		</g>
	</g>
	<g>
		<defs>
			<rect id="SVGID_00000016762340371491797150000007593283102492375945_" x="-23.1" y="-4" width="946.6" height="922.6"/>
		</defs>
		<clipPath id="SVGID_00000021107935993388329620000007217965259599558017_">
			<use xlink:href="#SVGID_00000016762340371491797150000007593283102492375945_"  style="overflow:visible;"/>
		</clipPath>
		<g style="opacity:0.24;clip-path:url(#SVGID_00000021107935993388329620000007217965259599558017_);">
			
				<image style="overflow:visible;" width="872" height="872" xlink:href="958812832CF3605B.png"  transform="matrix(1.307 0 0 1.2738 -130.9593 -130.2832)">
			</image>
		</g>
	</g>
</g>
<g id="halftone">
</g>
</svg>
