<?xml version="1.0" encoding="utf-8"?>
<!-- Generator: Adobe Illustrator 27.3.1, SVG Export Plug-In . SVG Version: 6.00 Build 0)  -->
<svg version="1.1" xmlns="http://www.w3.org/2000/svg" xmlns:xlink="http://www.w3.org/1999/xlink" x="0px" y="0px"
	 viewBox="0 0 900 900" style="enable-background:new 0 0 900 900;" xml:space="preserve">
<style type="text/css">
	.st0{display:none;}
	.st1{display:inline;opacity:0.28;}
	.st2{fill:none;stroke:#000000;stroke-width:0.75;stroke-miterlimit:10;}
	.st3{fill:none;stroke:#000000;stroke-width:4;stroke-linecap:round;stroke-linejoin:round;stroke-miterlimit:10;}
	.st4{fill:#FCCF72;stroke:#1A2276;stroke-width:6;stroke-miterlimit:10;}
	.st5{fill:#1A2276;}
	.st6{fill:#EBEAD8;}
	.st7{fill:#ED8376;stroke:#E90302;stroke-width:17;stroke-linecap:round;stroke-linejoin:round;stroke-miterlimit:10;}
	.st8{fill:#E90302;}
	.st9{fill:#FCCF72;}
	.st10{fill:#8288A8;}
	.st11{fill:#EBEAD8;stroke:#1A2276;stroke-width:6;stroke-miterlimit:10;}
	.st12{fill:none;stroke:#1A2276;stroke-width:6;stroke-miterlimit:10;}
	.st13{fill:#E90302;stroke:#1A2276;stroke-width:6;stroke-miterlimit:10;}
	.st14{fill:#EBBFAF;}
	
		.st15{clip-path:url(#SVGID_00000119098399959692178060000009788064825295706002_);fill:#FCCF72;stroke:#1A2276;stroke-width:6;stroke-miterlimit:10;}
	
		.st16{clip-path:url(#SVGID_00000173855964925147005620000002116288074402935458_);fill:#FCCF72;stroke:#1A2276;stroke-width:6;stroke-miterlimit:10;}
	
		.st17{clip-path:url(#SVGID_00000178894621615168643770000015216430078890561209_);fill:#FCCF72;stroke:#1A2276;stroke-width:6;stroke-miterlimit:10;}
	
		.st18{clip-path:url(#SVGID_00000093872032223236659230000012870269772635877285_);fill:#FCCF72;stroke:#1A2276;stroke-width:6;stroke-miterlimit:10;}
	
		.st19{clip-path:url(#SVGID_00000011736768599805239530000004735633848093331105_);fill:#FCCF72;stroke:#1A2276;stroke-width:6;stroke-miterlimit:10;}
	.st20{fill:#FFFFFF;}
	
		.st21{clip-path:url(#SVGID_00000104686712103899596270000002192785423417055145_);fill:#FCCF72;stroke:#1A2276;stroke-width:6;stroke-miterlimit:10;}
	.st22{fill:none;stroke:#1A2276;stroke-width:6;stroke-linecap:round;stroke-miterlimit:10;}
	
		.st23{clip-path:url(#SVGID_00000182516726358883307410000002204043690403219629_);fill:#FCCF72;stroke:#1A2276;stroke-width:6;stroke-miterlimit:10;}
	
		.st24{clip-path:url(#SVGID_00000108292208152569362030000004998566653592530080_);fill:#FCCF72;stroke:#1A2276;stroke-width:6;stroke-miterlimit:10;}
	
		.st25{clip-path:url(#SVGID_00000104690015974694557780000002649707062101728918_);fill:#FCCF72;stroke:#1A2276;stroke-width:6;stroke-miterlimit:10;}
	
		.st26{clip-path:url(#SVGID_00000181798696995164971920000006733652415745582746_);fill:#FCCF72;stroke:#1A2276;stroke-width:6;stroke-miterlimit:10;}
	
		.st27{clip-path:url(#SVGID_00000027570998644511370050000008897404825563487157_);fill:#FCCF72;stroke:#1A2276;stroke-width:6;stroke-miterlimit:10;}
	
		.st28{clip-path:url(#SVGID_00000073680151036625737210000016362568703637487034_);fill:#FCCF72;stroke:#1A2276;stroke-width:6;stroke-miterlimit:10;}
	.st29{fill:none;stroke:#000000;stroke-width:4;stroke-miterlimit:10;}
	.st30{fill:#FCCF72;stroke:#000000;stroke-width:4;stroke-miterlimit:10;}
	.st31{fill:none;stroke:#000000;stroke-width:5;stroke-linecap:round;stroke-miterlimit:10;}
	
		.st32{clip-path:url(#SVGID_00000023272107330788601850000017665761086508738694_);fill:#FCCF72;stroke:#1A2276;stroke-width:6;stroke-miterlimit:10;}
	
		.st33{clip-path:url(#SVGID_00000183210434701776062480000009790771734565868950_);fill:#FCCF72;stroke:#1A2276;stroke-width:6;stroke-miterlimit:10;}
	
		.st34{clip-path:url(#SVGID_00000139972245512012564420000010061870965795741828_);fill:#FCCF72;stroke:#1A2276;stroke-width:6;stroke-miterlimit:10;}
	
		.st35{clip-path:url(#SVGID_00000057120090171844295650000007237012987200160703_);fill:#FCCF72;stroke:#1A2276;stroke-width:6;stroke-miterlimit:10;}
	.st36{fill:#E90302;stroke:#EBBFAF;stroke-width:6;stroke-miterlimit:10;}
	.st37{clip-path:url(#SVGID_00000019654551043602182990000006518910063678811579_);fill:#FCCF72;}
	.st38{clip-path:url(#SVGID_00000019654551043602182990000006518910063678811579_);fill:#1A2276;}
	.st39{clip-path:url(#SVGID_00000017516174667874035300000014153809972296730532_);fill:#8288A8;}
	.st40{fill:#020202;}
	.st41{clip-path:url(#SVGID_00000011719403358645198010000014601747468899159742_);}
	.st42{fill:#EBEAD8;stroke:#1A2276;stroke-width:3;stroke-miterlimit:10;}
	.st43{fill:#8288A8;stroke:#8288A8;stroke-miterlimit:10;}
	.st44{fill:#1A2276;stroke:#FCCF72;stroke-width:6;stroke-miterlimit:10;}
	.st45{fill:none;stroke:#EBEAD8;stroke-width:6;stroke-miterlimit:10;}
	.st46{fill:#8288A8;stroke:#1A2276;stroke-width:6;stroke-miterlimit:10;}
	.st47{fill:#FCCF72;stroke:#8288A8;stroke-width:6;stroke-miterlimit:10;}
	.st48{clip-path:url(#SVGID_00000001632557447378479270000016380887236230988705_);}
	.st49{fill:none;}
	.st50{fill:#ED8376;}
	.st51{fill:url(#);}
	.st52{fill:#1A2276;stroke:url(#);stroke-miterlimit:10;}
	.st53{font-family:'Aptly-Bold';}
	.st54{font-size:40.1137px;}
	.st55{letter-spacing:4;}
	.st56{font-size:108.8137px;}
	.st57{fill:#ED8376;stroke:#E90302;stroke-width:6;stroke-linecap:round;stroke-linejoin:round;stroke-miterlimit:10;}
	.st58{fill:none;stroke:#E90302;stroke-width:6;stroke-linecap:round;stroke-linejoin:round;stroke-miterlimit:10;}
	.st59{fill:none;stroke:#E90302;stroke-width:5;stroke-linecap:round;stroke-linejoin:round;stroke-miterlimit:10;}
	.st60{fill:#FFFFFF;stroke:#000000;stroke-width:6;stroke-miterlimit:10;}
	.st61{fill:#FFFDFD;stroke:#1A2276;stroke-width:7;stroke-miterlimit:10;}
	
		.st62{clip-path:url(#SVGID_00000132073821525713558660000012319788603934057633_);fill:#FCCF72;stroke:#1A2276;stroke-width:6;stroke-miterlimit:10;}
	
		.st63{clip-path:url(#SVGID_00000160869909486274899750000003025158182873751470_);fill:#FCCF72;stroke:#1A2276;stroke-width:6;stroke-miterlimit:10;}
	.st64{fill:none;stroke:#E90302;stroke-width:6;stroke-linecap:round;stroke-miterlimit:10;}
	
		.st65{clip-path:url(#SVGID_00000023969050218294244610000001519033269122361768_);fill:#FCCF72;stroke:#1A2276;stroke-width:6;stroke-miterlimit:10;}
	
		.st66{clip-path:url(#SVGID_00000113313619348140002380000001774844277225786558_);fill:#FCCF72;stroke:#1A2276;stroke-width:6;stroke-miterlimit:10;}
	
		.st67{clip-path:url(#SVGID_00000119111496238803387370000012876526998624918169_);fill:#FCCF72;stroke:#1A2276;stroke-width:6;stroke-miterlimit:10;}
	.st68{fill:none;stroke:#1A2276;stroke-width:7;stroke-miterlimit:10;}
	
		.st69{clip-path:url(#SVGID_00000036935647364863472700000007193098154778732700_);fill:#FCCF72;stroke:#1A2276;stroke-width:6;stroke-miterlimit:10;}
	.st70{clip-path:url(#SVGID_00000172438276449868508240000011899622517613211787_);}
	
		.st71{clip-path:url(#SVGID_00000147910412398234131950000012270208561139326101_);fill:#FCCF72;stroke:#1A2276;stroke-width:6;stroke-miterlimit:10;}
	
		.st72{clip-path:url(#SVGID_00000166635125278437215200000008792957689158140860_);fill:#FCCF72;stroke:#1A2276;stroke-width:6;stroke-miterlimit:10;}
	
		.st73{clip-path:url(#SVGID_00000176000946476097420490000004003019983264172208_);fill:#FCCF72;stroke:#1A2276;stroke-width:6;stroke-miterlimit:10;}
	.st74{clip-path:url(#SVGID_00000018956514105388981500000006631305852138917286_);}
	.st75{clip-path:url(#SVGID_00000072988178658154562140000006223907067383216315_);}
	.st76{clip-path:url(#SVGID_00000044148743594638619930000001291104806734656680_);}
	.st77{opacity:0.5;}
	.st78{clip-path:url(#SVGID_00000052785078037992558090000000110671375328458399_);}
	.st79{clip-path:url(#SVGID_00000101808967523248827550000011638710543908321722_);}
	.st80{fill:#FFFDFD;}
	.st81{clip-path:url(#SVGID_00000060711492289486453370000000416542564877452980_);}
	.st82{opacity:0.8;}
	
		.st83{clip-path:url(#SVGID_00000108998157114064541330000003460850388643877280_);fill:#FCCF72;stroke:#1A2276;stroke-width:6;stroke-miterlimit:10;}
	
		.st84{clip-path:url(#SVGID_00000167356031597374928170000008132760456909635982_);fill:#FCCF72;stroke:#1A2276;stroke-width:6;stroke-miterlimit:10;}
	.st85{clip-path:url(#SVGID_00000075162945921285187530000001934821499894204044_);}
	.st86{clip-path:url(#SVGID_00000146472314685122159070000010339679891744621987_);}
	.st87{clip-path:url(#SVGID_00000021109921042731542590000017990843495572797607_);}
	.st88{clip-path:url(#SVGID_00000183223354844946646180000007170429371896744832_);}
	.st89{clip-path:url(#SVGID_00000037683040839613417030000012134871009911606666_);}
	.st90{fill:none;stroke:#1A2276;stroke-width:19;stroke-miterlimit:10;}
	.st91{clip-path:url(#SVGID_00000135654597718552449750000012950709820288579207_);}
	.st92{fill:none;stroke:#1A2276;stroke-width:10;stroke-miterlimit:10;}
	.st93{clip-path:url(#SVGID_00000138547870696052328900000014121665718971530167_);}
	.st94{clip-path:url(#SVGID_00000137823255621298297210000017674844999691037838_);fill:#FCCF72;}
	.st95{clip-path:url(#SVGID_00000137823255621298297210000017674844999691037838_);fill:#1A2276;}
	.st96{clip-path:url(#SVGID_00000139252443718291032630000014279083739433030287_);}
	.st97{clip-path:url(#SVGID_00000160911884144094128310000015970210637539592855_);}
	.st98{clip-path:url(#SVGID_00000160911884144094128310000015970210637539592855_);fill:none;}
	.st99{clip-path:url(#SVGID_00000103971408989199926280000012102069953916457658_);fill:#8288A8;}
	.st100{clip-path:url(#SVGID_00000103971408989199926280000012102069953916457658_);fill:#FCCF72;}
	.st101{fill:#FFFFFF;stroke:#FFFFFF;stroke-width:6;stroke-miterlimit:10;}
	.st102{fill:none;stroke:#8288A8;stroke-width:6;stroke-miterlimit:10;}
	.st103{clip-path:url(#SVGID_00000111164668142531354360000002485028012588311946_);}
	.st104{clip-path:url(#SVGID_00000006689211717390862670000017781348078135103669_);}
	.st105{clip-path:url(#SVGID_00000161609958385433738280000003049272698928925118_);}
	.st106{clip-path:url(#SVGID_00000152986009469029938110000008095361648514059175_);}
	.st107{clip-path:url(#SVGID_00000023257789002975103610000002146044433369020845_);}
	.st108{fill:#EBEAD8;stroke:#1A2276;stroke-width:12;stroke-miterlimit:10;}
	.st109{fill:none;stroke:#1A2276;stroke-width:12;stroke-miterlimit:10;}
	.st110{clip-path:url(#SVGID_00000099659139640038706330000006496372251840299657_);}
	.st111{clip-path:url(#SVGID_00000075875239814433740240000012471021057417518475_);}
	.st112{clip-path:url(#SVGID_00000018219694329804540280000000039214812068037015_);}
	.st113{clip-path:url(#SVGID_00000018951632942582188010000011243362058811821471_);}
	.st114{clip-path:url(#SVGID_00000173843572081034166550000010866890034399402163_);}
	.st115{clip-path:url(#SVGID_00000113311112034349772060000012718975445299081365_);fill:#8288A8;}
	.st116{clip-path:url(#SVGID_00000113311112034349772060000012718975445299081365_);fill:#FCCF72;}
	.st117{clip-path:url(#SVGID_00000066495827569500090850000001752752363311222403_);}
	.st118{clip-path:url(#SVGID_00000016072824971386710490000003979761285482546049_);fill:#E90302;}
	.st119{clip-path:url(#SVGID_00000139252858738737966460000003744462373289442746_);fill:none;}
	.st120{clip-path:url(#SVGID_00000160181289641744003770000012522411271887239317_);}
	.st121{clip-path:url(#SVGID_00000005247206196316480670000017722317240720962975_);}
	.st122{clip-path:url(#SVGID_00000166655649473501008720000012441925995835690399_);}
	.st123{clip-path:url(#SVGID_00000173872392003422827960000013753501132465026954_);}
	.st124{clip-path:url(#SVGID_00000139275907119652738430000012907173753268051848_);}
	.st125{clip-path:url(#SVGID_00000148626668483754353370000003088345514543661495_);}
	.st126{clip-path:url(#SVGID_00000088842702768375454710000015403447881153047999_);}
	.st127{clip-path:url(#SVGID_00000059283879349540662570000018440888507495151798_);}
	.st128{clip-path:url(#SVGID_00000029038021075963525210000009983475036230853522_);}
	.st129{clip-path:url(#SVGID_00000026883325887742592230000002171584294405906080_);}
	.st130{clip-path:url(#SVGID_00000004535949234777580230000010438676151037234108_);}
	.st131{clip-path:url(#SVGID_00000051371849389470685590000004152969697757054613_);}
	.st132{clip-path:url(#SVGID_00000070104734434528246610000007833303672966695297_);fill:#EBEAD8;}
	.st133{clip-path:url(#SVGID_00000070104734434528246610000007833303672966695297_);}
	.st134{clip-path:url(#SVGID_00000116235671334403788850000005741107386698803607_);}
	.st135{clip-path:url(#SVGID_00000181769866382980296140000012821228582536849319_);}
	.st136{clip-path:url(#SVGID_00000078763364431607048200000002416893556332180153_);}
	.st137{clip-path:url(#SVGID_00000025435322383652872140000012134115658382755987_);}
	.st138{clip-path:url(#SVGID_00000153667645461145627720000013990992702014270894_);}
	.st139{fill:#ED8376;stroke:#1A2276;stroke-width:6;stroke-miterlimit:10;}
	.st140{fill:url(#);stroke:#1A2276;stroke-width:6;stroke-miterlimit:10;}
	.st141{clip-path:url(#SVGID_00000161591764454326154530000004171014656838884539_);}
	.st142{font-size:28px;}
	.st143{font-family:'Aptly';}
	.st144{font-size:70.9205px;}
	
		.st145{clip-path:url(#SVGID_00000098201039910540928980000010584753123210679447_);fill:#FCCF72;stroke:#1A2276;stroke-width:6;stroke-miterlimit:10;}
	.st146{fill:none;stroke:#FCCF72;stroke-width:6;stroke-linecap:round;stroke-miterlimit:10;}
	.st147{clip-path:url(#SVGID_00000052821910963065479400000008034284501873628092_);}
</style>
<g id="guias" class="st0">
</g>
<g id="Layer_2">
</g>
<g id="Layer_1">
	<rect x="-0.5" y="2" class="st6" width="899" height="896"/>
	<g>
		<polygon class="st7" points="223.2,67.4 221.2,98.4 239.5,123.9 218.1,146 216.1,177 185.4,179.8 164,201.9 138.3,184.1 
			107.5,186.9 98.8,156.8 73.1,139 85.5,110.8 76.9,80.7 104.6,67.5 117.1,39.2 147.1,47.2 174.8,34 193.2,59.4 		"/>
		<g>
			<g>
				<path class="st6" d="M144.8,161.9c0-4.7,3.8-8.5,8.5-8.5c4.7,0,8.5,3.8,8.5,8.5v5.3h4.6c4.7,0,8.5,3.8,8.5,8.5s-3.8,8.5-8.5,8.5
					h-12.8c-4,0-7.3-2.7-8.3-6.4c-0.4-1-0.6-2-0.6-3.2V161.9z"/>
				<path class="st5" d="M166.4,185.4h-12.8c-4.4,0-8.2-2.9-9.3-7.2c-0.4-1.1-0.7-2.3-0.7-3.5v-12.8c0-5.3,4.3-9.6,9.6-9.6
					c5.3,0,9.6,4.3,9.6,9.6v4.3h3.5c5.3,0,9.6,4.3,9.6,9.6C176,181.1,171.7,185.4,166.4,185.4z M153.3,154.5c-4.1,0-7.4,3.3-7.4,7.4
					v12.8c0,1,0.2,1.9,0.5,2.8l0,0.1c0.8,3.3,3.8,5.6,7.2,5.6h12.8c4.1,0,7.4-3.3,7.4-7.4c0-4.1-3.3-7.4-7.4-7.4h-5.7v-6.4
					C160.8,157.8,157.4,154.5,153.3,154.5z"/>
			</g>
			<g>
				<line class="st6" x1="174.9" y1="177.7" x2="145.5" y2="177.7"/>
				<rect x="145.5" y="176.7" class="st5" width="29.4" height="2.1"/>
			</g>
			<g>
				<line class="st6" x1="161.8" y1="167.3" x2="157.4" y2="173.1"/>
				
					<rect x="155.9" y="169.1" transform="matrix(0.6034 -0.7974 0.7974 0.6034 -72.435 194.7762)" class="st5" width="7.3" height="2.1"/>
			</g>
			<g>
				<line class="st6" x1="166.1" y1="168" x2="161.6" y2="173.9"/>
				
					<rect x="160.2" y="169.9" transform="matrix(0.6034 -0.7974 0.7974 0.6034 -71.3127 198.4516)" class="st5" width="7.3" height="2.1"/>
			</g>
			<g>
				<line class="st6" x1="170.3" y1="168.7" x2="165.9" y2="174.6"/>
				
					<rect x="164.4" y="170.6" transform="matrix(0.6034 -0.7974 0.7974 0.6034 -70.1905 202.127)" class="st5" width="7.3" height="2.1"/>
			</g>
			<g>
				<circle class="st6" cx="152.4" cy="168.2" r="3.5"/>
				<path class="st5" d="M152.4,172.8c-2.5,0-4.6-2.1-4.6-4.6c0-2.5,2.1-4.6,4.6-4.6s4.6,2.1,4.6,4.6
					C157,170.7,155,172.8,152.4,172.8z M152.4,165.7c-1.4,0-2.5,1.1-2.5,2.5s1.1,2.5,2.5,2.5s2.5-1.1,2.5-2.5
					S153.8,165.7,152.4,165.7z"/>
			</g>
			<g>
				<g>
					<path class="st6" d="M112.2,161.9c0-4.7,3.8-8.5,8.5-8.5s8.5,3.8,8.5,8.5v5.3h4.6c4.7,0,8.5,3.8,8.5,8.5s-3.8,8.5-8.5,8.5H121
						c-4,0-7.3-2.7-8.3-6.4c-0.4-1-0.6-2-0.6-3.2V161.9z"/>
					<path class="st5" d="M133.8,185.4H121c-4.4,0-8.2-2.9-9.3-7.2c-0.4-1.1-0.7-2.3-0.7-3.5v-12.8c0-5.3,4.3-9.6,9.6-9.6
						c5.3,0,9.6,4.3,9.6,9.6v4.3h3.5c5.3,0,9.6,4.3,9.6,9.6C143.4,181.1,139.1,185.4,133.8,185.4z M120.7,154.5
						c-4.1,0-7.4,3.3-7.4,7.4v12.8c0,1,0.2,1.9,0.5,2.8l0,0.1c0.8,3.3,3.8,5.6,7.2,5.6h12.8c4.1,0,7.4-3.3,7.4-7.4
						c0-4.1-3.3-7.4-7.4-7.4h-5.7v-6.4C128.1,157.8,124.8,154.5,120.7,154.5z"/>
				</g>
				<g>
					<line class="st6" x1="142.3" y1="177.7" x2="112.9" y2="177.7"/>
					<rect x="112.9" y="176.7" class="st5" width="29.4" height="2.1"/>
				</g>
				<g>
					<line class="st6" x1="129.2" y1="167.3" x2="124.8" y2="173.1"/>
					
						<rect x="123.3" y="169.1" transform="matrix(0.6034 -0.7974 0.7974 0.6034 -85.3759 168.7549)" class="st5" width="7.3" height="2.1"/>
				</g>
				<g>
					<line class="st6" x1="133.5" y1="168" x2="129" y2="173.9"/>
					
						<rect x="127.6" y="169.9" transform="matrix(0.6034 -0.7974 0.7974 0.6034 -84.2536 172.4303)" class="st5" width="7.3" height="2.1"/>
				</g>
				<g>
					<line class="st6" x1="137.7" y1="168.7" x2="133.3" y2="174.6"/>
					
						<rect x="131.8" y="170.6" transform="matrix(0.6034 -0.7974 0.7974 0.6034 -83.1313 176.1057)" class="st5" width="7.3" height="2.1"/>
				</g>
				<g>
					<circle class="st6" cx="119.8" cy="168.2" r="3.5"/>
					<path class="st5" d="M119.8,172.8c-2.5,0-4.6-2.1-4.6-4.6c0-2.5,2.1-4.6,4.6-4.6s4.6,2.1,4.6,4.6
						C124.4,170.7,122.3,172.8,119.8,172.8z M119.8,165.7c-1.4,0-2.5,1.1-2.5,2.5s1.1,2.5,2.5,2.5c1.4,0,2.5-1.1,2.5-2.5
						S121.2,165.7,119.8,165.7z"/>
				</g>
			</g>
			<g>
				<ellipse class="st6" cx="146.7" cy="125.4" rx="38.1" ry="29.8"/>
				<path class="st5" d="M146.7,156.3c-19.3,0-29,0-34-3.9c-5.2-4-5.2-11.7-5.2-26.9s0-22.9,5.2-26.9c5.1-3.9,14.7-3.9,34-3.9
					c19.3,0,29,0,34,3.7c5.2,3.8,5.2,11.1,5.2,25.5l0,1.6l0,1.6c0,14.4,0,21.7-5.2,25.5C175.7,156.3,166,156.3,146.7,156.3z
					 M146.7,96.7c-18.8,0-28.2,0-32.7,3.5c-4.4,3.4-4.4,10.7-4.4,25.2s0,21.8,4.4,25.2c4.5,3.5,13.9,3.5,32.7,3.5
					c18.8,0,28.3,0,32.7-3.3c4.3-3.2,4.3-10.1,4.3-23.8l0-1.6l0-1.6c0-13.7,0-20.6-4.3-23.8C175,96.7,165.6,96.7,146.7,96.7z"/>
			</g>
			<g>
				<path class="st8" d="M146.9,144.6c-38.8,0-38.3-12.2-38.3-11.5c0,27.8,0.2,27.8,38.1,27.8c37.3,0,38.1,0,38.1-27.8
					C184.9,132.4,185.1,144.6,146.9,144.6z"/>
				<path class="st5" d="M146.8,162c-19.2,0-28.9,0-33.9-3.7c-5.3-3.8-5.3-11.4-5.3-25.2h0c0-0.5,0.2-0.7,0.3-0.8l0.5-0.5l1.3,0.5
					v0.7c0.1,0.5,2,10.5,37.2,10.5c35.1,0,36.9-10.2,36.9-10.6l0.1-1l2,0.1l0,1c0,14.4-0.2,21.5-5.5,25.2
					C175.3,162,165.8,162,146.8,162z M109.7,137.1c0,10.8,0.5,16.6,4.4,19.4c4.5,3.3,13.9,3.3,32.7,3.3c18.5,0,27.8,0,32.4-3.3
					c4-2.8,4.6-8.5,4.6-19.5c-0.9,0.9-2.1,1.9-3.7,2.9c-6.6,3.8-17.8,5.7-33.1,5.7c-13.4,0-23.6-1.4-30.5-4.3
					C113.1,140,111,138.5,109.7,137.1z"/>
			</g>
			<g>
				<line class="st6" x1="180.2" y1="113.4" x2="124.7" y2="113.4"/>
				<rect x="124.7" y="112.3" class="st5" width="55.5" height="2.1"/>
			</g>
			<g>
				<line class="st6" x1="118.2" y1="112.7" x2="118.2" y2="119.7"/>
				<rect x="117.1" y="112.7" class="st5" width="2.1" height="7.1"/>
			</g>
			<g>
				<path class="st6" d="M172.9,123.8c0,0-1.6-4.6-6.5-3.8c-4.9,0.8-5.5,3.8-5.5,3.8"/>
				<path class="st5" d="M171.9,124.1c-0.1-0.2-1.4-3.8-5.4-3.1c-4,0.7-4.6,2.9-4.6,3l-2.1-0.4c0-0.2,0.7-3.7,6.3-4.7
					c4.6-0.8,7.1,2.6,7.7,4.5L171.9,124.1z"/>
			</g>
			<g>
				<path class="st6" d="M150.6,124.1c0,0-1.6-4.6-6.5-3.8c-4.9,0.8-5.5,3.8-5.5,3.8"/>
				<path class="st5" d="M149.6,124.5c-0.1-0.2-1.4-3.8-5.4-3.1c-4,0.7-4.6,2.9-4.6,3l-2.1-0.4c0-0.2,0.7-3.7,6.3-4.7
					c4.6-0.8,7.1,2.6,7.7,4.5L149.6,124.5z"/>
			</g>
			<g>
				<path class="st6" d="M162.8,128.3c0,0,1.3,5.3-4.4,6.1c-6,0.9-6.4-5.1-6.4-5.1"/>
				<path class="st5" d="M157.1,135.6c-1.5,0-2.8-0.4-3.8-1.3c-2.2-1.8-2.5-4.8-2.5-4.9l2.1-0.2c0,0,0.2,2.2,1.7,3.4
					c0.9,0.7,2,0.9,3.5,0.7c1.4-0.2,2.5-0.8,3-1.6c0.9-1.4,0.5-3.2,0.5-3.2l2.1-0.5c0,0.1,0.6,2.7-0.8,4.9c-0.9,1.4-2.4,2.2-4.5,2.5
					C158,135.6,157.6,135.6,157.1,135.6z"/>
			</g>
			<g>
				<path class="st6" d="M100.5,128.1c4.3-1.9,9.3,0.1,11.2,4.4l5.1,11.7c1.9,4.3-0.1,9.3-4.4,11.2c-4.3,1.9-9.3-0.1-11.2-4.4
					l-5.1-11.7C94.2,135,96.2,130,100.5,128.1z"/>
				<path class="st5" d="M109.1,157.2c-1.2,0-2.4-0.2-3.5-0.7c-2.4-0.9-4.3-2.7-5.3-5.1l-5.1-11.7c-2.1-4.8,0.1-10.5,4.9-12.6
					c2.3-1,4.9-1.1,7.3-0.1c2.4,0.9,4.3,2.7,5.3,5.1l5.1,11.7c1,2.3,1.1,4.9,0.1,7.3c-0.9,2.4-2.7,4.3-5.1,5.3
					C111.7,156.9,110.4,157.2,109.1,157.2z M103.9,128.5c-1,0-2,0.2-3,0.6c-1.8,0.8-3.2,2.3-3.9,4.1c-0.7,1.9-0.7,3.9,0.1,5.7
					l5.1,11.7c1.6,3.8,6,5.5,9.8,3.8c1.8-0.8,3.2-2.3,3.9-4.1c0.7-1.9,0.7-3.9-0.1-5.7l-5.1-11.7
					C109.5,130.1,106.8,128.5,103.9,128.5z"/>
			</g>
			<g>
				<circle class="st5" cx="116.1" cy="97.8" r="13.5"/>
			</g>
			<g>
				<circle class="st5" cx="160.1" cy="82.2" r="13.5"/>
			</g>
			<g>
				<ellipse class="st5" cx="139.9" cy="86.4" rx="24.5" ry="18.4"/>
			</g>
			<g>
				<ellipse class="st5" cx="168.3" cy="86.4" rx="24.5" ry="18.4"/>
			</g>
			<g>
				<g>
					<ellipse class="st6" cx="189.3" cy="116.2" rx="11.4" ry="9.6"/>
					<path class="st5" d="M189.3,126.8c-6.9,0-12.5-4.8-12.5-10.7s5.6-10.7,12.5-10.7c6.9,0,12.5,4.8,12.5,10.7
						S196.1,126.8,189.3,126.8z M189.3,107.6c-5.7,0-10.3,3.8-10.3,8.6c0,4.7,4.6,8.6,10.3,8.6c5.7,0,10.3-3.8,10.3-8.6
						C199.6,111.4,195,107.6,189.3,107.6z"/>
				</g>
				<g>
					<path class="st6" d="M202.8,86.2c-2.5-1.3-5.7-0.1-7.1,2.6c0,0.1-0.1,0.1-0.1,0.2l0,0l-3.8,7.6v-8.5h0c0-0.1,0-0.1,0-0.2
						c0-3.1-2.3-5.5-5.2-5.5s-5.2,2.5-5.2,5.5c0,0.1,0,0.1,0,0.2h0v15.3h8.6l7.9,4l6.9-13.7l0,0c0-0.1,0.1-0.1,0.1-0.2
						C206.3,90.8,205.3,87.5,202.8,86.2z"/>
					<path class="st5" d="M198.4,108.8l-8.6-4.3h-9.4V87h0.1c0.4-3.2,3-5.7,6.2-5.7s5.8,2.5,6.2,5.7h0l0,0.7c0,0.1,0,0.1,0,0.2
						c0,0,0,0,0,0.1l0,0.1v4.1l2.3-4.5l0,0c0.8-1.2,1.9-2.1,3.2-2.6c1.6-0.6,3.3-0.5,4.8,0.2c1.5,0.8,2.6,2.1,3.1,3.7
						c0.4,1.4,0.3,2.8-0.1,4.1l0,0l-0.3,0.6c0,0.1-0.1,0.1-0.1,0.2c0,0,0,0,0,0.1l-0.1,0.1L198.4,108.8z M182.5,102.3h7.8l7.2,3.6
						l5.9-11.7l0,0l0.5-1c0,0,0-0.1,0.1-0.1l0,0c0.5-1.1,0.7-2.3,0.3-3.4c-0.3-1.1-1-2-2-2.4c-1-0.5-2.1-0.5-3.1-0.1
						c-1.1,0.4-2,1.2-2.5,2.3l0,0c0,0,0,0.1,0,0.1l-0.5,1l0,0l-5.3,10.6v-12h0l0-1.3c0-2.5-1.8-4.5-4.1-4.5s-4.1,2-4.1,4.5l0,0.2
						l0,1.1h0V102.3z"/>
				</g>
				<g>
					<path class="st6" d="M190.4,109.9c-2.3,1.1-3.3,4.1-2.1,6.6c1.2,2.6,4.1,3.8,6.4,2.7c0,0,0.1-0.1,0.1-0.1l0,0l7.8-3.2
						c4.4-3.7,0.9-10.5-4.3-9.4l-7.8,3.2l0,0C190.5,109.9,190.5,109.9,190.4,109.9z"/>
					<path class="st5" d="M192.9,120.8c-2.3,0-4.5-1.4-5.6-3.8c-1.3-2.8-0.5-6,1.8-7.6l0-0.1l1-0.4l7.9-3.3l0.1,0
						c2.8-0.6,5.6,0.7,6.9,3.4c1.4,2.7,0.7,5.8-1.7,7.9l-0.1,0.1l-8,3.3c0,0,0,0-0.1,0c-0.2,0.1-0.3,0.1-0.5,0.2l-0.4,0.1l0,0
						C193.9,120.7,193.4,120.8,192.9,120.8z M190.4,109.9l0.4,1c-1.8,0.8-2.5,3.2-1.6,5.2c0.9,2.1,3.2,3.1,5,2.2l0.1-0.1l1-0.5
						l0,0.1l6.7-2.8c1.8-1.7,1.7-3.8,1-5.2c-0.7-1.3-2.2-2.7-4.5-2.3l-6.7,2.8l0,0l-1.1,0.5L190.4,109.9L190.4,109.9z"/>
				</g>
				<g>
					<path class="st6" d="M187.3,103.2c-2.8,1.3-4.1,4.4-2.9,7c1.2,2.6,4.4,3.7,7.2,2.4c0.1,0,0.1-0.1,0.2-0.1l0,0l9.3-3.9
						c5.3-4.2,1.8-10.9-4.3-9.4l-9.3,3.9l0,0C187.4,103.1,187.3,103.1,187.3,103.2z"/>
					<path class="st5" d="M189.2,114.2c-2.4,0-4.7-1.3-5.7-3.5c-0.7-1.5-0.7-3.2-0.1-4.8c0.5-1.3,1.5-2.4,2.7-3.2l0-0.1l1-0.4
						l9.4-3.9c3.8-1,6.5,0.9,7.6,3.1c1.4,2.8,0.4,6-2.4,8.2l-0.1,0.1l-9.4,4c0,0-0.1,0-0.1,0c-0.2,0.1-0.4,0.2-0.6,0.2l-0.3,0.1l0,0
						C190.5,114,189.8,114.2,189.2,114.2z M187.7,104.1c-1.1,0.5-1.9,1.4-2.4,2.4c-0.4,1-0.4,2.2,0,3.1c0.9,2.1,3.5,2.9,5.8,1.9
						l0.1-0.1l1-0.5l0,0.1l8.2-3.4c2.3-1.9,2.4-4,1.7-5.5c-0.7-1.3-2.4-2.7-5.1-2l-9.2,3.9C187.8,104.1,187.8,104.1,187.7,104.1
						L187.7,104.1z"/>
				</g>
				<g>
					<path class="st6" d="M181.9,103.5c-2.4-0.9-5.2,0.6-6.2,3.3s0.2,5.6,2.6,6.4c0.1,0,0.1,0,0.2,0l0,0l7.8,3.2
						c5.7,0.4,8-6.9,3.5-9.7l-7.8-3.2l0,0C182,103.5,182,103.5,181.9,103.5z"/>
					<path class="st5" d="M186.8,117.5c-0.2,0-0.4,0-0.5,0l-0.2,0l-8-3.3c0,0-0.1,0-0.1,0c-0.2-0.1-0.3-0.1-0.5-0.2l-0.3-0.1l0,0
						c-2.4-1.4-3.5-4.5-2.5-7.5c0.6-1.5,1.6-2.8,3-3.5c1.1-0.6,2.4-0.8,3.6-0.6l0-0.1l1,0.4l7.9,3.2l0.1,0c2.4,1.5,3.5,4.5,2.5,7.2
						C192.1,115.8,189.7,117.5,186.8,117.5z M186.6,115.4c2.5,0.1,3.9-1.5,4.4-3c0.5-1.4,0.3-3.5-1.6-4.7l-7.7-3.2c0,0-0.1,0-0.1,0
						l0,0c-0.9-0.3-1.9-0.2-2.8,0.2c-0.9,0.5-1.6,1.3-2,2.4c-0.8,2.1,0.1,4.4,2,5.1l0.1,0l1,0.3l0,0.1L186.6,115.4z"/>
				</g>
			</g>
		</g>
	</g>
	<g>
		<g>
			<polygon class="st8" points="827.1,410.6 69,463.4 69,396.7 827.1,343.8 			"/>
		</g>
		<text transform="matrix(1 -6.972903e-02 0 1 114.3905 443.6202)" class="st6 st53 st54 st55">INCREÍBLE · FANTÁSTICA · APOTEÓSICA</text>
	</g>
	<g>
		<polygon class="st5" points="64,158 832.1,104.4 832.1,331.7 64,385.2 		"/>
		<path class="st6" d="M827.1,109.8V327L69,379.8V162.6L827.1,109.8 M837.1,99.1l-10.7,0.7L68.3,152.7l-9.3,0.6v9.3v217.2v10.7
			l10.7-0.7L827.8,337l9.3-0.6V327V109.8V99.1L837.1,99.1z"/>
	</g>
	<g>
		<text transform="matrix(1 -6.972903e-02 0 1 174.7262 323.7993)" class="st10 st53 st56">ponle cariño</text>
		<text transform="matrix(1 -6.972903e-02 0 1 179.1705 314.9621)" class="st5 st53 st56">ponle cariño</text>
		<text transform="matrix(1 -6.972903e-02 0 1 188.025 305.8886)" class="st6 st53 st56">ponle cariño</text>
	</g>
	<path class="st57" d="M522.5,593.8c0-53,58.5-33.7,92.2,0c40.3-32.7,99.8-53,99.8,0c0,53-96,96.3-96,96S522.5,646.8,522.5,593.8z"
		/>
	<path class="st57" d="M585.5,671.8c0-53,58.5-33.7,92.2,0c40.3-32.7,99.8-53,99.8,0c0,53-96,96.3-96,96S585.5,724.8,585.5,671.8z"
		/>
	<path class="st57" d="M509.5,717.8c0-53,58.5-33.7,92.2,0c40.3-32.7,99.8-53,99.8,0c0,53-96,96.3-96,96S509.5,770.8,509.5,717.8z"
		/>
	<g>
		<polyline class="st58" points="637.7,540.9 637.7,591.7 655.8,591.7 		"/>
		<path class="st4" d="M626.9,494.8c-19,0-35.1,11.5-40.1,27.3l-52.6-17.6l5.6,64.4l47.6-24.2c5.6,14.9,21.2,25.7,39.6,25.7
			c23.1,0,41.8-16.9,41.8-37.8C668.7,511.8,650,494.8,626.9,494.8z"/>
		<polyline class="st58" points="616.1,552.4 616.1,603.2 634.2,603.2 		"/>
		<circle class="st4" cx="654.6" cy="502.4" r="25.6"/>
		<polygon class="st57" points="681.2,473 658.2,498.4 690.8,509.6 679.4,491.3 		"/>
		<path class="st59" d="M641.3,491.2c0,0,0-5.5,5.1-5.5c5.1,0,5.7,5.5,5.7,5.5"/>
	</g>
	<g>
		<path class="st5" d="M716,511.3c-6.9,0-12.5-5.6-12.5-12.5c0-5.8,4-10.7,9.4-12.1v-22.8h15.8l-1.1,39.9l-0.6,1.1
			C724.8,508.8,720.6,511.3,716,511.3z"/>
		<path class="st6" d="M723.6,468.9l-0.9,33.5c-1.3,2.3-3.8,3.9-6.6,3.9c-4.2,0-7.5-3.4-7.5-7.5c0-4.2,3.4-7.5,7.5-7.5
			c0.6,0,1.2,0.1,1.8,0.2v-22.6H723.6 M733.8,458.9h-10.3h-5.7h-10v10v14.4c-5.6,2.9-9.4,8.8-9.4,15.5c0,9.7,7.9,17.5,17.5,17.5
			c6.4,0,12.2-3.5,15.3-9l1.2-2.1l0.1-2.4l0.9-33.5L733.8,458.9L733.8,458.9z"/>
	</g>
	<g>
		<path class="st5" d="M794.7,496.4c-6.9,0-12.5-5.6-12.5-12.5c0-5.8,4-10.7,9.4-12.1V449h15.8l-1.1,39.9l-0.6,1.1
			C803.4,494,799.2,496.4,794.7,496.4z"/>
		<path class="st6" d="M802.2,454l-0.9,33.5c-1.3,2.3-3.8,3.9-6.6,3.9c-4.2,0-7.5-3.4-7.5-7.5s3.4-7.5,7.5-7.5
			c0.6,0,1.2,0.1,1.8,0.2V454H802.2 M812.5,444h-10.3h-5.7h-10v10v14.4c-5.6,2.9-9.4,8.8-9.4,15.5c0,9.7,7.9,17.5,17.5,17.5
			c6.4,0,12.2-3.5,15.3-9l1.2-2.1l0.1-2.4l0.9-33.5L812.5,444L812.5,444z"/>
	</g>
	<g>
		<path class="st5" d="M745.9,490.8c-6.9,0-12.5-5.6-12.5-12.5c0-5.8,4-10.7,9.4-12.1v-21.6l29.4-8h11.5l-1.1,39.9l-0.6,1.1
			c-2.2,4-6.4,6.5-11,6.5c-6.9,0-12.5-5.6-12.5-12.5c0-5.8,4-10.7,9.4-12.1v-5.8l-9.6,2.8l-0.8,27l-0.6,1.1
			C754.6,488.3,750.4,490.8,745.9,490.8z"/>
		<path class="st6" d="M778.5,441.5l-0.9,33.5c-1.3,2.3-3.8,3.9-6.6,3.9c-4.2,0-7.5-3.4-7.5-7.5s3.4-7.5,7.5-7.5
			c0.6,0,1.2,0.1,1.8,0.2v-17.3l-19.4,5.6h-0.1l-0.8,29.5c-1.3,2.3-3.8,3.9-6.6,3.9c-4.2,0-7.5-3.4-7.5-7.5s3.4-7.5,7.5-7.5
			c0.6,0,1.2,0.1,1.8,0.2v-18.6v-4l5.3-1.4l19.8-5.4H778.5 M788.8,431.5h-10.3h-5.7h-1.3l-1.3,0.4l-19.8,5.4l-5.3,1.4l-7.4,2v7.6v4
			v10.4c-5.6,2.9-9.4,8.8-9.4,15.5c0,9.7,7.9,17.5,17.5,17.5c6.4,0,12.2-3.5,15.3-9l0.3-0.6c2.7,1.8,6,2.8,9.4,2.8
			c6.4,0,12.2-3.5,15.3-9l1.2-2.1l0.1-2.4l0.9-33.5L788.8,431.5L788.8,431.5z"/>
	</g>
</g>
<g id="web">
	<rect x="89.9" y="515.9" class="st49" width="323.6" height="368.3"/>
	<text transform="matrix(1 0 0 1 89.9229 538.9644)"><tspan x="0" y="0" class="st53 st142">Ponle cariño</tspan><tspan x="0" y="33.6" class="st143 st142">No te metas en este fregado </tspan><tspan x="0" y="67.2" class="st143 st142">por obligación. Hazlo con </tspan><tspan x="0" y="100.8" class="st143 st142">gusto, cuida los detalles, </tspan><tspan x="0" y="134.4" class="st143 st142">mantén la sencillez y todo </tspan><tspan x="0" y="168" class="st143 st142">fluirá mucho mejor, tú lo n</tspan><tspan x="291" y="168" class="st143 st142">-</tspan><tspan x="0" y="201.6" class="st143 st142">tarás y tus clientes también. </tspan><tspan x="0" y="235.2" class="st143 st142">¡Adelante siempre con cariño</tspan><tspan x="307.3" y="235.2" class="st53 st142">!</tspan></text>
	<g>
		<g>
			<path class="st5" d="M224,499.4c-6.7,0-12-5.3-12-12v-15.8c0-8.9,4-17.2,11.1-22.8l2.8-2.2c2.4-1.8,5.2-3.5,8.6-3.5
				c6.7,0,12.4,5.6,12.4,12.2c0,3.9-1.7,7.3-4.8,9.7l-2.5,1.9c-0.1,0.1-0.3,0.2-0.4,0.4l0.9,0.5c4.5,2.4,7.3,5.1,7.3,11.3v8.5
				c0,6.7-5.3,12-12,12H224z M186.5,499.4c-6.7,0-12-5.3-12-12v-15.8c0-8.9,4-17.2,11.1-22.8l2.8-2.2c2.4-1.8,5.2-3.5,8.6-3.5
				c6.7,0,12.4,5.6,12.4,12.2c0,3.9-1.7,7.3-4.8,9.7l-2.5,1.9c-0.1,0.1-0.3,0.2-0.4,0.4l0.9,0.5c4.5,2.4,7.3,5.1,7.3,11.3v8.5
				c0,6.7-5.3,12-12,12H186.5z"/>
			<path class="st6" d="M234.4,448c3.8,0,7.4,3.2,7.4,7.2c0,1.8-0.5,4-2.9,5.8l-2.5,2c-2,1.6-3.2,2.7-3.2,4.9c0,1.8,1.3,2.7,3.4,3.8
				l1.1,0.5c3.4,1.8,4.7,3.1,4.7,6.8v8.5c0,4-3.1,7-7,7H224c-4,0-7-3.1-7-7v-15.8c0-8.1,4-14.8,9.2-18.9l2.7-2.2
				C231,448.9,232.6,448,234.4,448 M197,448c3.8,0,7.4,3.2,7.4,7.2c0,1.8-0.5,4-2.9,5.8l-2.5,2c-2,1.6-3.2,2.7-3.2,4.9
				c0,1.8,1.3,2.7,3.4,3.8l1.1,0.5c3.4,1.8,4.7,3.1,4.7,6.8v8.5c0,4-3.1,7-7,7h-11.3c-4,0-7-3.1-7-7v-15.8c0-8.1,4-14.8,9.2-18.9
				l2.7-2.2C193.6,448.9,195.2,448,197,448 M234.4,438c-4.9,0-8.6,2.3-11.6,4.5l-0.1,0.1l-0.1,0.1l-2.7,2.2
				c-2.3,1.8-4.3,3.9-6.1,6.2c-1.9-7.4-8.9-13.1-16.8-13.1c-4.9,0-8.6,2.3-11.6,4.5l-0.1,0.1l-0.1,0.1l-2.7,2.2
				c-8.2,6.5-12.9,16.2-12.9,26.7v15.8c0,9.5,7.5,17,17,17h11.3c5.3,0,9.9-2.3,13-6c3.1,3.7,7.8,6,13,6h11.3c9.5,0,17-7.5,17-17
				v-8.5c0-5.9-2.1-9.7-4.9-12.2c2.9-3.1,4.4-7.1,4.4-11.5C251.8,445.9,243.8,438,234.4,438L234.4,438z"/>
		</g>
	</g>
	<g>
		<text transform="matrix(0.9762 -7.598437e-02 2.250000e-03 1 266.2312 135.8202)" class="st5 st53 st144">webconsejos</text>
		<g>
			<g>
				<path class="st10" d="M670.9,90.5c0.9,2.4,2.4,3.5,4.8,3.3c1.4-0.1,1.8-0.3,4.9-2.1c0.4-0.2,0.9-0.4,1.3-0.4
					c1.2-0.1,2.4,1,2.4,2.3c0,2.5-4.4,5.2-9,5.6c-6.4,0.5-10.9-3.6-11-9.9c0-6.6,4.4-11.7,10.3-12.2c5.6-0.4,10,3.9,10,9.9
					c0,1.7-0.8,2.5-2.6,2.6L670.9,90.5z M678.8,85.7c-0.3-1.2-0.5-1.6-0.9-2.2c-0.7-1-1.8-1.5-3.1-1.4c-2,0.2-3.3,1.4-4.2,4.2
					L678.8,85.7z"/>
				<path class="st10" d="M693.4,77.4c1.8-1.5,3.1-2,4.9-2.2c5.2-0.4,9.3,4.1,9.4,10.3c0,6.3-4,11.5-9.3,11.9c-2.3,0.2-3.7-0.4-5-2
					c-0.7,1.6-1.5,2.4-2.8,2.5c-1.8,0.1-3.1-1.1-3.1-3l-0.1-23.7c0-1.5,0-1.9,0.4-2.6c0.4-1,1.5-1.7,2.6-1.8
					c1.1-0.1,2.1,0.5,2.6,1.4c0.4,0.7,0.4,1,0.4,2.5L693.4,77.4z M693.4,86.6c0,3.1,1.8,5.2,4.2,5.1c2.3-0.2,4.1-2.6,4.1-5.7
					c0-3-1.8-5.2-4.1-5C695.2,81.2,693.4,83.6,693.4,86.6z"/>
				<path class="st10" d="M710.3,78c0-2.2,1.2-3.7,3.1-3.9c1.4-0.1,2.2,0.5,2.8,1.9c1.8-1.8,3.2-2.5,5.5-2.7
					c2.1-0.2,3.8,0.3,5.2,1.4c1.6,1.3,2.2,2.8,2.2,5.8l0,10.1c0,1.5,0,1.9-0.4,2.6c-0.4,1-1.5,1.7-2.6,1.8c-1.1,0.1-2.2-0.5-2.6-1.4
					c-0.4-0.7-0.4-1-0.4-2.5l0-8.7c0-2.4-1.3-3.8-3.4-3.6c-1.9,0.1-3.4,1.9-3.4,3.9l0,8.9c0,1.5,0,1.9-0.4,2.6
					c-0.4,1-1.5,1.7-2.6,1.8c-1.1,0.1-2.2-0.5-2.6-1.4c-0.4-0.7-0.4-1-0.4-2.5L710.3,78z"/>
				<path class="st10" d="M733.2,76.8c0-1.5,0-1.9,0.4-2.6c0.4-1,1.5-1.7,2.6-1.8c1.1-0.1,2.1,0.5,2.6,1.4c0.4,0.7,0.4,1,0.4,2.5
					l0,13.7c0,1.5,0,1.9-0.4,2.6c-0.4,1-1.5,1.7-2.6,1.8c-1.1,0.1-2.2-0.5-2.6-1.4c-0.4-0.7-0.4-1-0.4-2.5L733.2,76.8z M742.7,66.1
					c0-1.4-1.2-2.5-2.8-2.6l0,0l-0.1,0c-0.2,0-0.4,0-0.5,0c-0.2,0-0.4,0-0.6,0.1l-4.8,0.4c-0.2,0-0.4,0-0.5,0
					c-2,0.2-3.6,1.6-3.6,3.2c0,1.6,1.6,2.8,3.5,2.7c0,0,0.1,0,0.1,0l6.5-0.6C741.5,68.8,742.7,67.5,742.7,66.1z"/>
				<path class="st10" d="M758,74.8c0,1.4-1.1,2.8-2.3,2.9c-0.7,0.1-0.7,0.1-2.5-0.6c-0.9-0.4-1.7-0.5-2.3-0.5
					c-1,0.1-1.6,0.5-1.6,1.2c0,0.8,0.3,1,3.2,1.9c2.7,0.9,3.5,1.3,4.6,2.3c0.9,1,1.5,2.2,1.5,3.8c0,4.1-3.2,7.1-7.9,7.5
					c-4.1,0.3-7.7-1.5-7.7-3.9c0-1.4,1.2-2.9,2.5-3c0.7-0.1,0.7-0.1,3.1,0.9c1,0.4,1.8,0.5,2.4,0.5c1-0.1,1.8-0.8,1.8-1.6
					c0-0.7-0.5-1.1-2.3-1.6c-3-0.9-3.8-1.3-4.8-1.9c-1.4-0.9-2.1-2.3-2.1-4.3c0-3.8,3.3-6.9,7.7-7.3C754.8,70.8,758,72.6,758,74.8z"
					/>
				<path class="st10" d="M768.5,64.3c0,2-1.5,3.7-3.5,3.9c-2,0.2-3.5-1.3-3.5-3.3c0-2,1.6-3.7,3.6-3.8
					C766.9,60.8,768.5,62.3,768.5,64.3z M762,74.5c0-1.5,0-1.9,0.4-2.6c0.4-1,1.5-1.7,2.6-1.8c1.1-0.1,2.1,0.5,2.6,1.4
					c0.4,0.7,0.4,1,0.4,2.5l0,13.7c0,1.5,0,1.9-0.4,2.6c-0.4,1-1.5,1.7-2.6,1.8c-1.1,0.1-2.2-0.5-2.6-1.4c-0.4-0.7-0.4-1-0.4-2.5
					L762,74.5z"/>
				<path class="st10" d="M772.2,73.2c0-2.1,1.2-3.7,3-3.8c1.2-0.1,1.8,0.3,2.9,1.8c1.7-1.7,3.1-2.4,5.3-2.6c1.5-0.1,3,0.1,4.1,0.7
					c0.6,0.3,1,0.6,1.7,1.5c2.4-2.2,4-3,6.3-3.2c4.2-0.3,7.3,2.5,7.3,6.6l0,10.8c0,1.5,0,1.9-0.4,2.6c-0.4,1-1.5,1.7-2.6,1.8
					c-1.1,0.1-2.2-0.5-2.6-1.4c-0.4-0.7-0.4-1-0.4-2.5l0-9.4c0-1.9-1.2-3.1-3.1-3s-3.1,1.5-3.1,3.4l0,9.4c0,1.5,0,1.9-0.4,2.6
					c-0.4,1-1.5,1.7-2.6,1.8c-1.1,0.1-2.2-0.5-2.6-1.4c-0.4-0.7-0.4-1-0.4-2.5l0-8.8c0-2.4-1.2-3.7-3.1-3.5
					c-1.8,0.1-3.1,1.6-3.1,3.4l0,9.4c0,1.5,0,1.9-0.4,2.6c-0.4,1-1.5,1.7-2.6,1.8c-1.1,0.1-2.2-0.5-2.6-1.4c-0.4-0.7-0.4-1-0.4-2.5
					L772.2,73.2z"/>
				<path class="st10" d="M826,83.7c0,2.2-1.2,3.8-3,3.9c-1.4,0.1-2.4-0.6-3-2.2c-1.5,2.1-2.7,2.8-4.9,2.9c-2.2,0.2-4.2-0.5-5.9-1.9
					c-2.4-2-3.6-4.8-3.6-8.5c0-3.4,1-6,3.1-8.4c1.8-2,3.9-3.1,6.3-3.3c2.1-0.2,3.4,0.4,5.1,2c0.7-1.7,1.6-2.4,3-2.5
					c1.7-0.1,3,1.2,3,2.9L826,83.7z M811.5,77.4c0,3.2,1.6,5.3,4.2,5.1c2.5-0.2,4.1-2.5,4.1-5.7c0-3.2-1.7-5.2-4.2-5
					C813.1,72,811.5,74.3,811.5,77.4z"/>
			</g>
			<g>
				<path class="st5" d="M661.4,79.6c-0.4-0.7-1.1-1.2-1.9-1.3c-0.2,0-0.5-0.1-0.7,0c-0.2,0-0.5,0.1-0.7,0.1
					c-0.8,0.3-1.6,0.9-1.9,1.6c-0.3,0.5-0.4,0.9-0.4,1.5c0,0.3,0,10.8,0,10.8c0,1-0.3,1.5-0.6,1.9c-0.4,0.4-0.9,0.6-1.4,0.7
					c-0.6,0-1.1-0.2-1.5-0.6c-0.3-0.4-0.6-0.8-0.6-1.7l0-10.1l0,0c0-1.2-0.1-1.6-0.4-2.2c-0.4-0.7-1.1-1.2-1.9-1.3
					c-0.2,0-0.5-0.1-0.7,0c-0.2,0-0.5,0.1-0.7,0.1c-0.8,0.3-1.6,0.9-1.9,1.6c-0.3,0.5-0.4,0.9-0.4,1.5c0,0.2,0,0.8,0,0.8l0,10
					c0,1-0.3,1.5-0.6,1.9c-0.4,0.4-0.9,0.6-1.4,0.7c-0.6,0-1.1-0.2-1.5-0.6c-0.3-0.4-0.6-0.8-0.6-1.7l-0.1-9.7c0-1.5,0-1.8-0.4-2.5
					c-0.4-0.7-1.1-1.2-1.9-1.3c-0.2,0-0.5-0.1-0.7,0c-0.2,0-0.5,0.1-0.7,0.1c-0.8,0.3-1.6,0.9-1.9,1.6c-0.3,0.5-0.4,0.9-0.4,1.5
					c0,0.3,0,11,0,11c0,3,1,4.8,2.7,6c1.5,1.1,3.4,1.6,5.2,1.4c1.6-0.1,2.9-0.5,4-1.3l0.5-0.4c0.3-0.2,0.6-0.4,0.8-0.4
					c0.3,0,0.5,0.1,0.8,0.2l0.6,0.3c1.1,0.6,2.5,0.8,4,0.6c1.9-0.1,3.6-0.9,5.1-2.2c1.7-1.5,2.7-3.4,2.7-6.4l0-10
					C661.9,80.6,661.8,80.3,661.4,79.6z"/>
				<g>
					<g>
						<path class="st9" d="M648.6,72.1c-6,0.6-11,0.1-11-1c0-0.4,0.7-0.7,1.7-1.2c4.4-2,6.7-2.6,10.8-2.6c2.9,0,6.2-0.2,8.5,1.1
							c0.6,0.2,0.9,0.4,0.9,0.7C659.6,70.2,654.7,71.6,648.6,72.1z M665,68.7c-0.1-2.8-5.1-4.3-16.4-3.3c-10.7,1-16.3,3.5-16.3,6.3
							c0.1,4.3,7.4,5.9,16.5,5C657.7,76,665,73.1,665,68.7z"/>
					</g>
				</g>
			</g>
		</g>
	</g>
</g>
<g id="halftone">
	
		<image style="overflow:visible;opacity:0.24;" width="872" height="872" xlink:href="5D3DCB8AB894D62D.png"  transform="matrix(1.2385 0 0 1.2385 -133.5 -124)">
	</image>
</g>
</svg>
