<?xml version="1.0" encoding="utf-8"?>
<!-- Generator: Adobe Illustrator 27.3.1, SVG Export Plug-In . SVG Version: 6.00 Build 0)  -->
<svg version="1.1" xmlns="http://www.w3.org/2000/svg" xmlns:xlink="http://www.w3.org/1999/xlink" x="0px" y="0px"
	 viewBox="0 0 900 900" style="enable-background:new 0 0 900 900;" xml:space="preserve">
<style type="text/css">
	.st0{display:none;}
	.st1{display:inline;opacity:0.28;}
	.st2{fill:none;stroke:#000000;stroke-width:0.75;stroke-miterlimit:10;}
	.st3{fill:none;stroke:#000000;stroke-width:4;stroke-linecap:round;stroke-linejoin:round;stroke-miterlimit:10;}
	.st4{fill:#FCCF72;stroke:#1A2276;stroke-width:6;stroke-miterlimit:10;}
	.st5{fill:#1A2276;}
	.st6{fill:#EBEAD8;}
	.st7{fill:#ED8376;stroke:#E90302;stroke-width:17;stroke-linecap:round;stroke-linejoin:round;stroke-miterlimit:10;}
	.st8{fill:#E90302;}
	.st9{fill:#FCCF72;}
	.st10{fill:#8288A8;}
	.st11{fill:#EBEAD8;stroke:#1A2276;stroke-width:6;stroke-miterlimit:10;}
	.st12{fill:none;stroke:#1A2276;stroke-width:6;stroke-miterlimit:10;}
	.st13{fill:#E90302;stroke:#1A2276;stroke-width:6;stroke-miterlimit:10;}
	.st14{fill:#EBBFAF;}
	
		.st15{clip-path:url(#SVGID_00000066512870201642793010000012806325715265709240_);fill:#FCCF72;stroke:#1A2276;stroke-width:6;stroke-miterlimit:10;}
	
		.st16{clip-path:url(#SVGID_00000165197489293293709180000011466481108276855691_);fill:#FCCF72;stroke:#1A2276;stroke-width:6;stroke-miterlimit:10;}
	
		.st17{clip-path:url(#SVGID_00000149356279608357408120000004519099707027369088_);fill:#FCCF72;stroke:#1A2276;stroke-width:6;stroke-miterlimit:10;}
	
		.st18{clip-path:url(#SVGID_00000119826112056820915450000018439777603954597284_);fill:#FCCF72;stroke:#1A2276;stroke-width:6;stroke-miterlimit:10;}
	
		.st19{clip-path:url(#SVGID_00000173840367513219458600000004968378994389786000_);fill:#FCCF72;stroke:#1A2276;stroke-width:6;stroke-miterlimit:10;}
	.st20{fill:#FFFFFF;}
	
		.st21{clip-path:url(#SVGID_00000003788891748820041990000006892145175037039491_);fill:#FCCF72;stroke:#1A2276;stroke-width:6;stroke-miterlimit:10;}
	.st22{fill:none;stroke:#1A2276;stroke-width:6;stroke-linecap:round;stroke-miterlimit:10;}
	
		.st23{clip-path:url(#SVGID_00000021838842115184423200000002739131129479542430_);fill:#FCCF72;stroke:#1A2276;stroke-width:6;stroke-miterlimit:10;}
	
		.st24{clip-path:url(#SVGID_00000142870919590527031640000010548220558923609277_);fill:#FCCF72;stroke:#1A2276;stroke-width:6;stroke-miterlimit:10;}
	
		.st25{clip-path:url(#SVGID_00000183966708238613166030000014898019657381416088_);fill:#FCCF72;stroke:#1A2276;stroke-width:6;stroke-miterlimit:10;}
	
		.st26{clip-path:url(#SVGID_00000169537553604778893040000009334734612362674835_);fill:#FCCF72;stroke:#1A2276;stroke-width:6;stroke-miterlimit:10;}
	
		.st27{clip-path:url(#SVGID_00000071548558714099323980000000132384788010703252_);fill:#FCCF72;stroke:#1A2276;stroke-width:6;stroke-miterlimit:10;}
	
		.st28{clip-path:url(#SVGID_00000171687369369672967520000000615031569067046550_);fill:#FCCF72;stroke:#1A2276;stroke-width:6;stroke-miterlimit:10;}
	.st29{fill:none;stroke:#000000;stroke-width:4;stroke-miterlimit:10;}
	.st30{fill:#FCCF72;stroke:#000000;stroke-width:4;stroke-miterlimit:10;}
	.st31{fill:none;stroke:#000000;stroke-width:5;stroke-linecap:round;stroke-miterlimit:10;}
	
		.st32{clip-path:url(#SVGID_00000081616133686508603060000006166080976285090721_);fill:#FCCF72;stroke:#1A2276;stroke-width:6;stroke-miterlimit:10;}
	
		.st33{clip-path:url(#SVGID_00000150822650096199560970000006413645922815976378_);fill:#FCCF72;stroke:#1A2276;stroke-width:6;stroke-miterlimit:10;}
	
		.st34{clip-path:url(#SVGID_00000014603666857265113600000008443385954065728917_);fill:#FCCF72;stroke:#1A2276;stroke-width:6;stroke-miterlimit:10;}
	
		.st35{clip-path:url(#SVGID_00000138557635252091912170000008634527025389846198_);fill:#FCCF72;stroke:#1A2276;stroke-width:6;stroke-miterlimit:10;}
	.st36{fill:#E90302;stroke:#EBBFAF;stroke-width:6;stroke-miterlimit:10;}
	.st37{clip-path:url(#SVGID_00000092421388891513063980000014362636169975403664_);fill:#FCCF72;}
	.st38{clip-path:url(#SVGID_00000092421388891513063980000014362636169975403664_);fill:#1A2276;}
	.st39{clip-path:url(#SVGID_00000137852587902090070490000001790829227693652619_);fill:#8288A8;}
	.st40{fill:#020202;}
	.st41{clip-path:url(#SVGID_00000114781815510628696780000011210620411044808095_);}
	.st42{fill:#EBEAD8;stroke:#1A2276;stroke-width:3;stroke-miterlimit:10;}
	.st43{fill:#8288A8;stroke:#8288A8;stroke-miterlimit:10;}
	.st44{fill:#1A2276;stroke:#FCCF72;stroke-width:6;stroke-miterlimit:10;}
	.st45{fill:none;stroke:#EBEAD8;stroke-width:6;stroke-miterlimit:10;}
	.st46{fill:#8288A8;stroke:#1A2276;stroke-width:6;stroke-miterlimit:10;}
	.st47{fill:#FCCF72;stroke:#8288A8;stroke-width:6;stroke-miterlimit:10;}
	.st48{clip-path:url(#SVGID_00000077288422584614120850000001062796926607583147_);}
	.st49{fill:none;}
	.st50{fill:#ED8376;}
	.st51{fill:url(#);}
	.st52{fill:#1A2276;stroke:url(#);stroke-miterlimit:10;}
	.st53{fill:#ED8376;stroke:#E90302;stroke-width:6;stroke-linecap:round;stroke-linejoin:round;stroke-miterlimit:10;}
	.st54{fill:none;stroke:#E90302;stroke-width:6;stroke-linecap:round;stroke-linejoin:round;stroke-miterlimit:10;}
	.st55{fill:none;stroke:#E90302;stroke-width:5;stroke-linecap:round;stroke-linejoin:round;stroke-miterlimit:10;}
	.st56{fill:#FFFFFF;stroke:#000000;stroke-width:6;stroke-miterlimit:10;}
	.st57{fill:#FFFDFD;stroke:#1A2276;stroke-width:7;stroke-miterlimit:10;}
	
		.st58{clip-path:url(#SVGID_00000020398639928005678720000016634997043567176585_);fill:#FCCF72;stroke:#1A2276;stroke-width:6;stroke-miterlimit:10;}
	
		.st59{clip-path:url(#SVGID_00000030485851083774918090000017531063552152462008_);fill:#FCCF72;stroke:#1A2276;stroke-width:6;stroke-miterlimit:10;}
	.st60{fill:none;stroke:#E90302;stroke-width:6;stroke-linecap:round;stroke-miterlimit:10;}
	
		.st61{clip-path:url(#SVGID_00000037672711812881756590000009241630253616083110_);fill:#FCCF72;stroke:#1A2276;stroke-width:6;stroke-miterlimit:10;}
	
		.st62{clip-path:url(#SVGID_00000140001039292249348220000004822727551940726664_);fill:#FCCF72;stroke:#1A2276;stroke-width:6;stroke-miterlimit:10;}
	
		.st63{clip-path:url(#SVGID_00000135649441782186640160000005259487326564230805_);fill:#FCCF72;stroke:#1A2276;stroke-width:6;stroke-miterlimit:10;}
	.st64{fill:none;stroke:#1A2276;stroke-width:7;stroke-miterlimit:10;}
	
		.st65{clip-path:url(#SVGID_00000060020570971681972600000013173405247211256451_);fill:#FCCF72;stroke:#1A2276;stroke-width:6;stroke-miterlimit:10;}
	.st66{clip-path:url(#SVGID_00000125575036933658234220000013541740000494411652_);}
	
		.st67{clip-path:url(#SVGID_00000097492335764821958310000016422124808019390891_);fill:#FCCF72;stroke:#1A2276;stroke-width:6;stroke-miterlimit:10;}
	
		.st68{clip-path:url(#SVGID_00000162313761613743494870000008974384135026139569_);fill:#FCCF72;stroke:#1A2276;stroke-width:6;stroke-miterlimit:10;}
	
		.st69{clip-path:url(#SVGID_00000023274442701718855240000014721068632767189376_);fill:#FCCF72;stroke:#1A2276;stroke-width:6;stroke-miterlimit:10;}
	.st70{clip-path:url(#SVGID_00000033364131960157931290000001079285043791098274_);}
	.st71{clip-path:url(#SVGID_00000099651501462786806980000004384567664880555697_);}
	.st72{clip-path:url(#SVGID_00000000209355759014424730000011329801093174126490_);}
	.st73{opacity:0.5;}
	.st74{clip-path:url(#SVGID_00000043448314036168085210000008441012590380458425_);}
	.st75{clip-path:url(#SVGID_00000121988361887312553330000010505052579385849730_);}
	.st76{fill:#FFFDFD;}
	.st77{clip-path:url(#SVGID_00000176734753060484360260000013267735703077690773_);}
	.st78{opacity:0.8;}
	
		.st79{clip-path:url(#SVGID_00000021814597155651122530000008969827848766076856_);fill:#FCCF72;stroke:#1A2276;stroke-width:6;stroke-miterlimit:10;}
	
		.st80{clip-path:url(#SVGID_00000106116683786755983580000008866043197489043369_);fill:#FCCF72;stroke:#1A2276;stroke-width:6;stroke-miterlimit:10;}
	.st81{clip-path:url(#SVGID_00000160181468095716185650000010155846020203316148_);}
	.st82{clip-path:url(#SVGID_00000047037278890072382700000005041236859864847249_);}
	.st83{clip-path:url(#SVGID_00000180326317223408663950000004791908866006052499_);}
	.st84{clip-path:url(#SVGID_00000176044676532930389360000011234327130031698096_);}
	.st85{clip-path:url(#SVGID_00000078017860746862475570000012028790172611841939_);}
	.st86{fill:none;stroke:#1A2276;stroke-width:19;stroke-miterlimit:10;}
	.st87{clip-path:url(#SVGID_00000070828339256706531850000003389815992213643656_);}
	.st88{fill:none;stroke:#1A2276;stroke-width:10;stroke-miterlimit:10;}
	.st89{clip-path:url(#SVGID_00000043450744290758736780000010426455384325763200_);}
	.st90{clip-path:url(#SVGID_00000088129542540512436930000002628119359670589333_);fill:#FCCF72;}
	.st91{clip-path:url(#SVGID_00000088129542540512436930000002628119359670589333_);fill:#1A2276;}
	.st92{clip-path:url(#SVGID_00000152228804009527826540000003080776842322537911_);}
	.st93{clip-path:url(#SVGID_00000016789110507051155920000012352726334049285796_);}
	.st94{clip-path:url(#SVGID_00000016789110507051155920000012352726334049285796_);fill:none;}
	.st95{clip-path:url(#SVGID_00000067930797878480780880000012071996083502414262_);fill:#8288A8;}
	.st96{clip-path:url(#SVGID_00000067930797878480780880000012071996083502414262_);fill:#FCCF72;}
	.st97{fill:#FFFFFF;stroke:#FFFFFF;stroke-width:6;stroke-miterlimit:10;}
	.st98{fill:none;stroke:#8288A8;stroke-width:6;stroke-miterlimit:10;}
	.st99{clip-path:url(#SVGID_00000017512676071276360090000016048301731134865563_);}
	.st100{clip-path:url(#SVGID_00000098915888510064733110000004781886294697157775_);}
	.st101{clip-path:url(#SVGID_00000023981401416030126290000002928522609653512073_);}
	.st102{clip-path:url(#SVGID_00000099637527609238329840000003719232848404049326_);}
	.st103{clip-path:url(#SVGID_00000104670418929194452410000007385496581875143345_);}
	.st104{fill:#EBEAD8;stroke:#1A2276;stroke-width:12;stroke-miterlimit:10;}
	.st105{fill:none;stroke:#1A2276;stroke-width:12;stroke-miterlimit:10;}
	.st106{clip-path:url(#SVGID_00000152949007158974193270000008882576923815507374_);}
	.st107{clip-path:url(#SVGID_00000144332894726282074500000017052812260204372357_);}
	.st108{clip-path:url(#SVGID_00000087394651433197981310000017736128093635236256_);}
	.st109{font-family:'Aptly-Bold';}
	.st110{font-size:19.8006px;}
	.st111{letter-spacing:1;}
	.st112{font-size:60.4227px;}
	.st113{clip-path:url(#SVGID_00000177457529555397521890000015579335245377327787_);}
	.st114{clip-path:url(#SVGID_00000015329144629306358280000015559332689197501339_);}
	.st115{font-size:13.8211px;}
	.st116{font-family:'Aptly';}
	.st117{font-family:'AmericanTypewriter-Bold';}
	.st118{font-size:58.2307px;}
	.st119{font-size:34.5528px;}
	.st120{clip-path:url(#SVGID_00000127024197415379837820000015967536382735012518_);fill:#8288A8;}
	.st121{clip-path:url(#SVGID_00000127024197415379837820000015967536382735012518_);fill:#FCCF72;}
	.st122{clip-path:url(#SVGID_00000016785747602408231740000017685625026696081325_);}
	.st123{clip-path:url(#SVGID_00000033330889512377481380000001384372276598244527_);fill:#E90302;}
	.st124{clip-path:url(#SVGID_00000181089717903662455960000007585980510224981413_);fill:none;}
	.st125{clip-path:url(#SVGID_00000129888507250357783700000013620083311924119459_);}
	.st126{clip-path:url(#SVGID_00000175281645495748909670000008063374637423935418_);}
	.st127{clip-path:url(#SVGID_00000084514634368749206100000011231543837383099321_);}
	.st128{clip-path:url(#SVGID_00000142881923196099165620000017990356338078721449_);}
	.st129{clip-path:url(#SVGID_00000135655569633805459240000007589450031050519484_);}
	.st130{clip-path:url(#SVGID_00000083049844490484901990000014589789073279234691_);}
	.st131{clip-path:url(#SVGID_00000104705693050320989930000011770795160232131747_);}
	.st132{clip-path:url(#SVGID_00000104691334918342870410000009892787050614334890_);}
	.st133{clip-path:url(#SVGID_00000103976694045240357100000016451581612255930245_);}
	.st134{clip-path:url(#SVGID_00000129919107922627882040000010955593233126518920_);}
	.st135{clip-path:url(#SVGID_00000161627041068516390570000004109703044980261008_);}
	.st136{clip-path:url(#SVGID_00000020396561884093023350000003951563771453633166_);}
	.st137{clip-path:url(#SVGID_00000067208932091784578160000008671105119755578041_);fill:#EBEAD8;}
	.st138{clip-path:url(#SVGID_00000067208932091784578160000008671105119755578041_);}
	.st139{clip-path:url(#SVGID_00000039826505062301384340000003129784813066870974_);}
	.st140{clip-path:url(#SVGID_00000090980866181802961090000007562218752677478543_);}
	.st141{clip-path:url(#SVGID_00000044162897365051231470000011975213643121327285_);}
	.st142{clip-path:url(#SVGID_00000053505647538228071660000002554368867540032695_);}
	.st143{clip-path:url(#SVGID_00000085967470948600928920000005468427462882185900_);}
	.st144{fill:#ED8376;stroke:#1A2276;stroke-width:6;stroke-miterlimit:10;}
	.st145{fill:url(#);stroke:#1A2276;stroke-width:6;stroke-miterlimit:10;}
	.st146{clip-path:url(#SVGID_00000040554783393107908990000005579326149403126673_);}
	
		.st147{clip-path:url(#SVGID_00000044883700854872961600000002746302482978495150_);fill:#FCCF72;stroke:#1A2276;stroke-width:6;stroke-miterlimit:10;}
	.st148{fill:none;stroke:#FCCF72;stroke-width:6;stroke-linecap:round;stroke-miterlimit:10;}
	.st149{clip-path:url(#SVGID_00000098220728342915301980000007007753424203837090_);}
</style>
<g id="guias" class="st0">
</g>
<g id="Layer_2">
</g>
<g id="Layer_1">
</g>
<g id="web">
	<g>
		<g>
			<g>
				<polygon class="st8" points="420.1,197.4 45.9,223.5 45.9,190.6 420.1,164.5 				"/>
			</g>
			<text transform="matrix(1 -6.972903e-02 0 1 68.3728 213.756)" class="st6 st109 st110 st111">INCREÍBLE · FANTÁSTICA · APOTEÓSICA</text>
		</g>
		<g>
			<g>
				<polygon class="st5" points="40.9,70.4 425.1,43.6 425.1,160.9 40.9,187.6 				"/>
				<path class="st6" d="M420.1,49v107.2L45.9,182.3V75.1L420.1,49 M430.1,38.3L419.4,39L45.2,65.1l-9.3,0.6v9.3v107.2V193l10.7-0.7
					l374.2-26.1l9.3-0.6v-9.3V49V38.3L430.1,38.3z"/>
			</g>
			<g>
				<text transform="matrix(1 -6.972903e-02 0 1 109.0914 154.4685)" class="st5 st109 st112">El dominio</text>
				<text transform="matrix(1 -6.972903e-02 0 1 108.8985 156.0694)" class="st10 st109 st112">El dominio</text>
				<text transform="matrix(1 -6.972903e-02 0 1 111.86 152.901)" class="st5 st109 st112">El dominio</text>
				<text transform="matrix(1 -6.972903e-02 0 1 116.9892 148.9818)" class="st6 st109 st112">El dominio</text>
			</g>
		</g>
		<g>
			<g>
				<path class="st6" d="M366.5,400.3v-25h-99.5v25h-25.5v-25h-6.1v-28c-14.9-1.2-26.7-13.8-26.7-29.1c0-10,5.2-19.3,13.5-24.6
					v-40.9c0-6.5,5.3-11.8,11.8-11.8h24.3c1.1-1.8,2.4-3.5,4.1-4.9c2-1.6,4.3-2.8,6.8-3.4c-0.1-0.2-0.2-0.5-0.3-0.7
					c-15.5-3.9-26.8-18.1-26.8-34.4c0-4.8,1-9.5,2.9-14l5.4-12.6l5.4,12.6c2.5,5.9,7.3,10.4,13.1,12.7c0.2-2,0.5-3.8,0.7-5.6
					c1.5-12.7,2.4-21,9-26.8c6-5.2,15.2-7.1,35.2-7.1c19.1,0,28.9,2.2,35,7.9c6.4,6,7.5,14.6,9,26.6c0.2,1.6,0.4,3.2,0.6,5
					c5.8-2.3,10.6-6.9,13.2-12.8l5.4-12.6l5.4,12.6c1.9,4.4,2.9,9.1,2.9,14c0,8.6-3.1,16.9-8.7,23.3c-4.8,5.5-11.1,9.3-18,11.1
					c-1.3,3-3.2,5.5-5.7,7.6c0.5,0.5,1.1,0.9,1.6,1.4h45.3c6.5,0,11.8,5.3,11.8,11.8v40.6c8.6,5.2,14,14.6,14,24.9
					c0,15.4-12,28.1-27.2,29.1v28h-6.1v25H366.5z"/>
			</g>
			<g>
				<path class="st6" d="M366.5,400.3v-25h-99.5v25h-25.5v-25h-6.1v-28c-14.9-1.2-26.7-13.8-26.7-29.1c0-10,5.2-19.3,13.5-24.6
					v-40.9c0-6.5,5.3-11.8,11.8-11.8h24.3c1.1-1.8,2.4-3.5,4.1-4.9c2-1.6,4.3-2.8,6.8-3.4c-0.1-0.2-0.2-0.5-0.3-0.7
					c-15.5-3.9-26.8-18.1-26.8-34.4c0-4.8,1-9.5,2.9-14l5.4-12.6l5.4,12.6c2.5,5.9,7.3,10.4,13.1,12.7c0.2-2,0.5-3.8,0.7-5.6
					c1.5-12.7,2.4-21,9-26.8c6-5.2,15.2-7.1,35.2-7.1c19.1,0,28.9,2.2,35,7.9c6.4,6,7.5,14.6,9,26.6c0.2,1.6,0.4,3.2,0.6,5
					c5.8-2.3,10.6-6.9,13.2-12.8l5.4-12.6l5.4,12.6c1.9,4.4,2.9,9.1,2.9,14c0,8.6-3.1,16.9-8.7,23.3c-4.8,5.5-11.1,9.3-18,11.1
					c-1.3,3-3.2,5.5-5.7,7.6c0.5,0.5,1.1,0.9,1.6,1.4h45.3c6.5,0,11.8,5.3,11.8,11.8v40.6c8.6,5.2,14,14.6,14,24.9
					c0,15.4-12,28.1-27.2,29.1v28h-6.1v25H366.5z"/>
			</g>
			<g>
				<path class="st6" d="M366.5,400.3v-25h-99.5v25h-25.5v-25h-6.1v-28c-14.9-1.2-26.7-13.8-26.7-29.1c0-10,5.2-19.3,13.5-24.6
					v-40.9c0-6.5,5.3-11.8,11.8-11.8h24.3c1.1-1.8,2.4-3.5,4.1-4.9c2-1.6,4.3-2.8,6.8-3.4c-0.1-0.2-0.2-0.5-0.3-0.7
					c-15.5-3.9-26.8-18.1-26.8-34.4c0-4.8,1-9.5,2.9-14l5.4-12.6l5.4,12.6c2.5,5.9,7.3,10.4,13.1,12.7c0.2-2,0.5-3.8,0.7-5.6
					c1.5-12.7,2.4-21,9-26.8c6-5.2,15.2-7.1,35.2-7.1c19.1,0,28.9,2.2,35,7.9c6.4,6,7.5,14.6,9,26.6c0.2,1.6,0.4,3.2,0.6,5
					c5.8-2.3,10.6-6.9,13.2-12.8l5.4-12.6l5.4,12.6c1.9,4.4,2.9,9.1,2.9,14c0,8.6-3.1,16.9-8.7,23.3c-4.8,5.5-11.1,9.3-18,11.1
					c-1.3,3-3.2,5.5-5.7,7.6c0.5,0.5,1.1,0.9,1.6,1.4h45.3c6.5,0,11.8,5.3,11.8,11.8v40.6c8.6,5.2,14,14.6,14,24.9
					c0,15.4-12,28.1-27.2,29.1v28h-6.1v25H366.5z"/>
			</g>
			<g>
				<path class="st8" d="M405.4,296.9v-44.1c0-3.2-2.6-5.9-5.9-5.9h-47.7c-3-3-6.5-5.7-10.2-7.9c7-2.4,10.7-6.3,12.2-12.1
					c14.3-2.1,25.3-14.4,25.3-29.3c0-4.1-0.9-8.1-2.4-11.7c-4.1,9.5-12.9,16.4-23.5,17.7c0,0,0-0.1,0-0.1
					c-4.8-31.3,0.2-40.7-39.6-40.7c-40.5,0-35.1,7.2-40,40.7c0,0,0,0.1,0,0.1c-10.6-1.3-19.5-8.2-23.5-17.7
					c-1.5,3.6-2.4,7.5-2.4,11.7c0,14.9,11.1,27.3,25.4,29.3c1.7,6.7,6.1,10.7,14.7,12.9c-1.7,1.1-3.3,2.2-4.8,3.4l-0.7-0.8
					c-4.1-5-11.5-5.8-16.6-1.7c-2,1.7-3.3,3.8-3.9,6.2h-28.2c-3.2,0-5.9,2.6-5.9,5.9v44.3c-8,3.7-13.5,11.8-13.5,21.1
					c0,12.9,10.4,23.3,23.3,23.3c1.2,0,2.3-0.1,3.4-0.3v28.2h6.1v25H261v-25h111.3v25h13.7v-25h6.1v-28.3c1.3,0.2,2.6,0.3,3.9,0.3
					c12.9,0,23.3-10.4,23.3-23.3C419.4,308.7,413.6,300.5,405.4,296.9z"/>
			</g>
			<g>
				<path class="st8" d="M393.4,336.6H240c-6.6,0-12-5.4-12-12v-65.7c0-6.6,5.4-12,12-12h153.5c6.6,0,12,5.4,12,12v65.7
					C405.4,331.2,400,336.6,393.4,336.6z"/>
				<path class="st14" d="M399.5,338.1H233.8c-4.1,0-7.4-3.3-7.4-7.4v-78c0-4.1,3.3-7.4,7.4-7.4h165.7c4.1,0,7.4,3.3,7.4,7.4v78
					C406.9,334.8,403.6,338.1,399.5,338.1z M233.8,248.4c-2.4,0-4.4,2-4.4,4.4v78c0,2.4,2,4.4,4.4,4.4h165.7c2.4,0,4.4-2,4.4-4.4
					v-78c0-2.4-2-4.4-4.4-4.4H233.8z"/>
			</g>
			<g>
				<rect x="241.2" y="321.9" class="st8" width="151" height="47.6"/>
				<path class="st14" d="M393.7,370.9H239.7v-50.5h153.9V370.9z M242.7,368h148.1v-44.6H242.7V368z"/>
			</g>
			<g>
				<circle class="st8" cx="237.8" cy="318.2" r="23.3"/>
				<path class="st14" d="M237.8,343c-13.7,0-24.8-11.1-24.8-24.8c0-13.7,11.1-24.8,24.8-24.8s24.8,11.1,24.8,24.8
					C262.5,331.9,251.4,343,237.8,343z M237.8,296.4c-12,0-21.8,9.8-21.8,21.8c0,12,9.8,21.8,21.8,21.8s21.8-9.8,21.8-21.8
					C259.6,306.2,249.8,296.4,237.8,296.4z"/>
			</g>
			<g>
				<circle class="st8" cx="396.1" cy="318.2" r="23.3"/>
				<path class="st14" d="M396.1,343c-13.7,0-24.8-11.1-24.8-24.8c0-13.7,11.1-24.8,24.8-24.8s24.8,11.1,24.8,24.8
					C420.9,331.9,409.8,343,396.1,343z M396.1,296.4c-12,0-21.8,9.8-21.8,21.8c0,12,9.8,21.8,21.8,21.8s21.8-9.8,21.8-21.8
					C417.9,306.2,408.1,296.4,396.1,296.4z"/>
			</g>
			<g>
				<path class="st9" d="M277.4,203.9c-12.2,0-22.7-7.4-27.2-18c-1.5,3.6-2.4,7.5-2.4,11.7c0,16.4,13.3,29.6,29.6,29.6
					c16.4,0,29.6-13.3,29.6-29.6c0-4.1-0.9-8.1-2.4-11.7C300.1,196.5,289.6,203.9,277.4,203.9z"/>
				<path class="st5" d="M277.4,228.7c-17.1,0-31.1-13.9-31.1-31.1c0-4.2,0.8-8.4,2.5-12.2l1.4-3.2l1.4,3.2
					c4.4,10.4,14.6,17.1,25.9,17.1c11.3,0,21.4-6.7,25.9-17.1l1.4-3.2l1.4,3.2c1.7,3.9,2.5,8,2.5,12.2
					C308.5,214.7,294.6,228.7,277.4,228.7z M250.4,189.7c-0.8,2.6-1.1,5.2-1.1,7.9c0,15.5,12.6,28.1,28.1,28.1
					c15.5,0,28.1-12.6,28.1-28.1c0-2.7-0.4-5.4-1.1-7.9c-5.5,9.6-15.7,15.7-27,15.7C266.2,205.3,255.9,199.3,250.4,189.7z"/>
			</g>
			<g>
				<path class="st9" d="M349.6,203.9c-12.2,0-22.7-7.4-27.2-18c-1.5,3.6-2.4,7.5-2.4,11.7c0,16.4,13.3,29.6,29.6,29.6
					c16.4,0,29.6-13.3,29.6-29.6c0-4.1-0.9-8.1-2.4-11.7C372.3,196.5,361.8,203.9,349.6,203.9z"/>
				<path class="st5" d="M349.6,228.7c-17.1,0-31.1-13.9-31.1-31.1c0-4.2,0.8-8.4,2.5-12.2l1.4-3.2l1.4,3.2
					c4.4,10.4,14.6,17.1,25.9,17.1c11.3,0,21.4-6.7,25.9-17.1l1.4-3.2l1.4,3.2c1.7,3.9,2.5,8,2.5,12.2
					C380.7,214.7,366.7,228.7,349.6,228.7z M322.6,189.7c-0.8,2.6-1.1,5.2-1.1,7.9c0,15.5,12.6,28.1,28.1,28.1
					c15.5,0,28.1-12.6,28.1-28.1c0-2.7-0.4-5.4-1.1-7.9c-5.5,9.6-15.7,15.7-27,15.7C338.3,205.3,328.1,199.3,322.6,189.7z"/>
			</g>
			<g>
				<path class="st6" d="M353.3,203.5c4.4,28.9,0.9,38.5-38.9,38.5c-40.5,0-45.2-7.8-40.7-38.5c4.9-33.5-0.6-40.7,40-40.7
					C353.5,162.8,348.5,172.2,353.3,203.5z"/>
				<path class="st5" d="M314.4,243.5c-22.5,0-33.4-2.5-38.9-8.9c-5.6-6.4-5.4-16.3-3.2-31.3c0.6-4.5,1.1-8.5,1.5-12
					c1.4-11.6,2.2-19.3,7.6-24c5.1-4.4,13.5-6,32.3-6c17.8,0,26.8,1.9,31.9,6.7c5.3,4.9,6.2,12.5,7.6,23.9c0.4,3.4,0.9,7.2,1.5,11.4
					c2.3,14.8,2.5,24.6-3.1,31.1C346.2,240.8,335.4,243.5,314.4,243.5z M313.7,164.3c-17.8,0-26,1.4-30.4,5.3
					c-4.5,3.9-5.2,10.7-6.6,22.1c-0.4,3.6-0.9,7.6-1.5,12.1c-2.7,18.6-1,24.8,2.5,28.9c4.9,5.7,15.2,7.9,36.7,7.9
					c19.7,0,30.2-2.4,35-8.1c4.8-5.6,4.5-14.8,2.4-28.7c-0.6-4.2-1.1-8-1.5-11.4c-1.3-10.8-2.2-17.9-6.7-22.1
					C339.1,166,330.4,164.3,313.7,164.3z"/>
			</g>
			<g>
				<path class="st6" d="M284.7,207.3c0,0,1.7-4.8,6.8-4s5.7,4,5.7,4"/>
				<path class="st5" d="M286.1,207.8l-2.8-1c0.7-2.1,3.4-5.8,8.5-4.9c6.1,1,6.9,5,6.9,5.2l-2.9,0.5c0,0-0.6-2.1-4.5-2.8
					C287.5,204.2,286.2,207.4,286.1,207.8z"/>
			</g>
			<g>
				<path class="st6" d="M308,207.7c0,0,1.7-4.8,6.8-4c5.1,0.9,5.7,4,5.7,4"/>
				<path class="st5" d="M309.4,208.2l-2.8-1c0.7-2.1,3.4-5.8,8.5-4.9c6.1,1,6.9,5,6.9,5.2l-2.9,0.5c0,0-0.6-2.1-4.5-2.8
					C310.7,204.5,309.4,208,309.4,208.2z"/>
			</g>
			<g>
				<path class="st6" d="M297,212.1c0,0-1.4,6.9,3.9,6.4s5.7-5.3,5.7-5.3"/>
				<path class="st5" d="M300.4,219.9c-1.8,0-3-0.8-3.6-1.5c-2.1-2.3-1.3-6.3-1.2-6.7l2.9,0.6l-1.4-0.3l1.4,0.3
					c-0.1,0.8-0.4,3.1,0.5,4.2c0.1,0.1,0.5,0.6,1.8,0.5c3.9-0.4,4.3-3.6,4.3-3.9l2.9,0.2c-0.2,2.1-1.8,6.1-7,6.6
					C300.9,219.9,300.6,219.9,300.4,219.9z"/>
			</g>
			<g>
				<defs>
					<path id="SVGID_00000112592436477498740050000002510477427961930662_" d="M351.9,203.2c4.3,28,0.9,37.3-37.6,37.3
						c-39.2,0-43.7-7.5-39.4-37.3c4.7-32.4-0.5-39.4,38.7-39.4C352,163.8,347.2,173,351.9,203.2z"/>
				</defs>
				<clipPath id="SVGID_00000075158898790299762980000000789360446469932450_">
					<use xlink:href="#SVGID_00000112592436477498740050000002510477427961930662_"  style="overflow:visible;"/>
				</clipPath>
				<g style="clip-path:url(#SVGID_00000075158898790299762980000000789360446469932450_);">
					<path class="st9" d="M327.1,132.3c-10.1,0-18.9,5.7-23.2,14.2c-3.7-1.9-7.8-3-12.2-3c-14.5,0-26.2,11.7-26.2,26.2
						s11.7,26.2,26.2,26.2c10.1,0,18.9-5.7,23.2-14.2c3.7,1.9,7.8,3,12.2,3c14.5,0,26.2-11.7,26.2-26.2
						C353.3,144,341.6,132.3,327.1,132.3z"/>
				</g>
				<g style="clip-path:url(#SVGID_00000075158898790299762980000000789360446469932450_);">
					<path class="st5" d="M291.6,197.2c-15.2,0-27.6-12.4-27.6-27.6s12.4-27.6,27.6-27.6c4,0,8,0.9,11.6,2.6
						c5-8.5,14-13.7,23.9-13.7c15.2,0,27.6,12.4,27.6,27.6c0,15.2-12.4,27.6-27.6,27.6c-4,0-8-0.9-11.6-2.6
						C310.5,192,301.5,197.2,291.6,197.2z M291.6,144.8c-13.6,0-24.7,11.1-24.7,24.7c0,13.6,11.1,24.7,24.7,24.7
						c9.3,0,17.7-5.1,21.9-13.4l0.7-1.3l1.3,0.7c3.5,1.9,7.5,2.9,11.6,2.9c13.6,0,24.7-11.1,24.7-24.7c0-13.6-11.1-24.7-24.7-24.7
						c-9.3,0-17.7,5.1-21.9,13.4l-0.7,1.3l-1.3-0.7C299.6,145.8,295.6,144.8,291.6,144.8z"/>
				</g>
			</g>
			<g>
				<circle class="st6" cx="315.5" cy="286.3" r="51.5"/>
				<path class="st5" d="M315.5,339.2c-29.2,0-52.9-23.8-52.9-52.9c0-29.2,23.8-52.9,52.9-52.9s52.9,23.8,52.9,52.9
					C368.4,315.5,344.7,339.2,315.5,339.2z M315.5,236.3c-27.6,0-50,22.4-50,50c0,27.6,22.4,50,50,50s50-22.4,50-50
					C365.5,258.7,343,236.3,315.5,236.3z"/>
			</g>
			<g>
				<circle class="st6" cx="321.7" cy="311.5" r="2.2"/>
				<path class="st5" d="M321.7,315.1c-2,0-3.6-1.6-3.6-3.6s1.6-3.6,3.6-3.6s3.6,1.6,3.6,3.6S323.7,315.1,321.7,315.1z M321.7,310.8
					c-0.4,0-0.7,0.3-0.7,0.7c0,0.4,0.3,0.7,0.7,0.7c0.4,0,0.7-0.3,0.7-0.7C322.4,311.1,322.1,310.8,321.7,310.8z"/>
			</g>
			<g>
				<defs>
					<circle id="SVGID_00000179611671395503070110000006109304731346881444_" cx="315.5" cy="287.6" r="51.5"/>
				</defs>
				<clipPath id="SVGID_00000070832342933504850120000005349169461223962499_">
					<use xlink:href="#SVGID_00000179611671395503070110000006109304731346881444_"  style="overflow:visible;"/>
				</clipPath>
				<g style="clip-path:url(#SVGID_00000070832342933504850120000005349169461223962499_);">
					<path class="st10" d="M366.9,283.3c0,28.4-26.3,4.1-54.7,4.1s-48.2,24.3-48.2-4.1c0-28.4,23-51.5,51.5-51.5
						S366.9,254.8,366.9,283.3z"/>
				</g>
			</g>
			<g>
				<path class="st6" d="M343.6,287.4c4.1,5,11.5,5.8,16.6,1.7l13.7-11.2c5-4.1,5.8-11.5,1.7-16.6c-4.1-5-11.5-5.8-16.6-1.7
					l-13.7,11.2C340.3,274.9,339.5,282.4,343.6,287.4z"/>
				<path class="st5" d="M352.8,293.2c-3.8,0-7.6-1.7-10.3-4.9c-4.6-5.6-3.8-14,1.9-18.6l13.7-11.2c5.7-4.6,14-3.8,18.6,1.9
					c4.6,5.6,3.8,14-1.9,18.6l-13.7,11.2C358.7,292.2,355.7,293.2,352.8,293.2z M366.4,258.5c-2.3,0-4.6,0.8-6.5,2.3L346.2,272
					c-4.4,3.6-5,10.1-1.5,14.5c3.6,4.4,10.1,5,14.5,1.5l13.7-11.2c4.4-3.6,5-10.1,1.5-14.5C372.4,259.8,369.4,258.5,366.4,258.5z"/>
			</g>
			<g>
				
					<rect x="345.2" y="284.5" transform="matrix(0.7741 -0.633 0.633 0.7741 -101.659 287.1134)" class="st5" width="12.6" height="2.9"/>
			</g>
			<g>
				
					<rect x="341.5" y="280" transform="matrix(0.7741 -0.633 0.633 0.7741 -99.6174 283.7273)" class="st5" width="12.6" height="2.9"/>
			</g>
			<g>
				<path class="st6" d="M292,272.6c5-4.1,5.8-11.5,1.7-16.6l-11.2-13.7c-4.1-5-11.5-5.8-16.6-1.7c-5,4.1-5.8,11.5-1.7,16.6
					l11.2,13.7C279.6,276,287,276.7,292,272.6z"/>
				<path class="st5" d="M284.6,276.7c-3.8,0-7.6-1.7-10.3-4.9l-11.2-13.7c-4.6-5.7-3.8-14,1.9-18.6c5.7-4.6,14-3.8,18.6,1.9
					l11.2,13.7c4.6,5.6,3.8,14-1.9,18.6h0C290.5,275.7,287.5,276.7,284.6,276.7z M273.4,239.5c-2.3,0-4.6,0.8-6.5,2.3
					c-4.4,3.6-5,10.1-1.5,14.5l11.2,13.7c3.6,4.4,10.1,5,14.5,1.5l0,0c4.4-3.6,5-10.1,1.5-14.5l-11.2-13.7
					C279.3,240.8,276.4,239.5,273.4,239.5z"/>
			</g>
			<g>
				
					<rect x="289.2" y="258.4" transform="matrix(0.7741 -0.6331 0.6331 0.7741 -101.9196 243.8024)" class="st5" width="2.9" height="12.6"/>
			</g>
			<g>
				
					<rect x="284.6" y="262.2" transform="matrix(0.7741 -0.6331 0.6331 0.7741 -105.3064 241.7664)" class="st5" width="2.9" height="12.6"/>
			</g>
			<g>
				<ellipse class="st9" cx="278.9" cy="328" rx="19.4" ry="28.2"/>
				<path class="st5" d="M278.9,357.7c-11.5,0-20.8-13.3-20.8-29.7c0-16.4,9.3-29.7,20.8-29.7c11.5,0,20.8,13.3,20.8,29.7
					C299.8,344.4,290.4,357.7,278.9,357.7z M278.9,301.3c-9.9,0-17.9,12-17.9,26.7s8,26.7,17.9,26.7c9.9,0,17.9-12,17.9-26.7
					S288.8,301.3,278.9,301.3z"/>
			</g>
			<g>
				<ellipse class="st9" cx="366.2" cy="327" rx="19.4" ry="28.2"/>
				<path class="st5" d="M366.2,356.7c-11.5,0-20.8-13.3-20.8-29.7c0-16.4,9.3-29.7,20.8-29.7c11.5,0,20.8,13.3,20.8,29.7
					C387,343.4,377.7,356.7,366.2,356.7z M366.2,300.3c-9.9,0-17.9,12-17.9,26.7s8,26.7,17.9,26.7c9.9,0,17.9-12,17.9-26.7
					S376.1,300.3,366.2,300.3z"/>
			</g>
			<g>
				<rect x="247.3" y="369.5" class="st8" width="13.7" height="25"/>
				<path class="st14" d="M262.5,395.9h-16.7V368h16.7V395.9z M248.8,393h10.8v-22.1h-10.8V393z"/>
			</g>
			<g>
				<rect x="372.3" y="369.5" class="st8" width="13.7" height="25"/>
				<path class="st14" d="M387.5,395.9h-16.7V368h16.7V395.9z M373.8,393h10.8v-22.1h-10.8V393z"/>
			</g>
			<g class="st73">
				<defs>
					<path id="SVGID_00000129178200591236248380000008809233417936038823_" class="st73" d="M366.5,400.3v-25h-99.5v25h-25.5v-25
						h-6.1v-28c-14.9-1.2-26.7-13.8-26.7-29.1c0-10,5.2-19.3,13.5-24.6v-40.9c0-6.5,5.3-11.8,11.8-11.8h24.3
						c1.1-1.8,2.4-3.5,4.1-4.9c2-1.6,4.3-2.8,6.8-3.4c-0.1-0.2-0.2-0.5-0.3-0.7c-15.5-3.9-26.8-18.1-26.8-34.4c0-4.8,1-9.5,2.9-14
						l5.4-12.6l5.4,12.6c2.5,5.9,7.3,10.4,13.1,12.7c0.2-2,0.5-3.8,0.7-5.6c1.5-12.7,2.4-21,9-26.8c6-5.2,15.2-7.1,35.2-7.1
						c19.1,0,28.9,2.2,35,7.9c6.4,6,7.5,14.6,9,26.6c0.2,1.6,0.4,3.2,0.6,5c5.8-2.3,10.6-6.9,13.2-12.8l5.4-12.6l5.4,12.6
						c1.9,4.4,2.9,9.1,2.9,14c0,8.6-3.1,16.9-8.7,23.3c-4.8,5.5-11.1,9.3-18,11.1c-1.3,3-3.2,5.5-5.7,7.6c0.5,0.5,1.1,0.9,1.6,1.4
						h45.3c6.5,0,11.8,5.3,11.8,11.8v40.6c8.6,5.2,14,14.6,14,24.9c0,15.4-12,28.1-27.2,29.1v28h-6.1v25H366.5z"/>
				</defs>
				<clipPath id="SVGID_00000148619236810905566860000004145117959394625166_">
					<use xlink:href="#SVGID_00000129178200591236248380000008809233417936038823_"  style="overflow:visible;"/>
				</clipPath>
			</g>
		</g>
		<rect x="56.3" y="249.4" class="st49" width="135" height="181.8"/>
		<text transform="matrix(1 0 0 1 56.2682 260.8218)"><tspan x="0" y="0" class="st109 st115">Elige un buen dominio.</tspan><tspan x="115.1" y="0" class="st116 st115"> El </tspan><tspan x="0" y="16.6" class="st116 st115">nombre que le pondrás a </tspan><tspan x="0" y="33.2" class="st116 st115">tu web y la extensión </tspan><tspan x="0" y="49.8" class="st116 st115">(.com, .es, .org, etc.) </tspan><tspan x="0" y="66.3" class="st116 st115">determinará bastante el </tspan><tspan x="0" y="82.9" class="st116 st115">éxito o fracaso de tu </tspan><tspan x="0" y="99.5" class="st116 st115">idea. Es como darle </tspan><tspan x="0" y="116.1" class="st116 st115">nombre a un hijo. Dedí</tspan><tspan x="114.4" y="116.1" class="st116 st115">-</tspan><tspan x="0" y="132.7" class="st116 st115">cale tiempo y cariño a </tspan><tspan x="0" y="149.3" class="st116 st115">esta decisión.</tspan></text>
		<g>
			<g>
				<path class="st5" d="M122.4,243.8c-2.6,0-4.9-1.1-6.4-2.9c-1.5,1.8-3.8,2.9-6.4,2.9H104c-4.7,0-8.5-3.7-8.5-8.5v-7.8
					c0-5.2,2.3-10,6.4-13.2l1.4-1.1c1.5-1.1,3.3-2.2,5.8-2.2c3.9,0,7.3,2.7,8.3,6.4c0.8-1.1,1.8-2.1,2.9-3l1.4-1.1
					c1.5-1.1,3.3-2.2,5.8-2.2c4.7,0,8.6,3.9,8.6,8.6c0,2.2-0.8,4.1-2.1,5.7c1.4,1.3,2.4,3.1,2.4,6.1v4.2c0,4.7-3.7,8.5-8.5,8.5
					H122.4z"/>
				<path class="st6" d="M127.6,215.9c1.9,0,3.6,1.6,3.6,3.6c0,0.9-0.3,2-1.4,2.8l-1.2,1c-1,0.8-1.6,1.3-1.6,2.4
					c0,0.9,0.6,1.3,1.7,1.9l0.5,0.3c1.7,0.9,2.3,1.5,2.3,3.4v4.2c0,2-1.5,3.5-3.5,3.5h-5.6c-2,0-3.5-1.5-3.5-3.5v-7.8
					c0-4,2-7.3,4.5-9.3l1.3-1.1C125.9,216.4,126.7,215.9,127.6,215.9 M109.1,215.9c1.9,0,3.6,1.6,3.6,3.6c0,0.9-0.3,2-1.4,2.8
					l-1.2,1c-1,0.8-1.6,1.3-1.6,2.4c0,0.9,0.6,1.3,1.7,1.9l0.5,0.3c1.7,0.9,2.3,1.5,2.3,3.4v4.2c0,2-1.5,3.5-3.5,3.5H104
					c-2,0-3.5-1.5-3.5-3.5v-7.8c0-4,2-7.3,4.5-9.3l1.3-1.1C107.4,216.4,108.2,215.9,109.1,215.9 M127.6,205.9
					c-4.4,0-7.6,2.4-8.8,3.2l-0.1,0.1l-0.1,0.1l-0.2,0.2c-2.4-2.2-5.7-3.6-9.3-3.6c-4.4,0-7.6,2.4-8.8,3.2l-0.1,0.1l-0.1,0.1
					l-1.3,1.1c-5.3,4.2-8.3,10.4-8.3,17.1v7.8c0,7.4,6,13.5,13.5,13.5h5.6c2.3,0,4.5-0.6,6.4-1.6c1.9,1,4.1,1.6,6.4,1.6h5.6
					c7.4,0,13.5-6,13.5-13.5v-4.2c0-2.3-0.5-4.4-1.4-6.2c0.7-1.7,1.1-3.5,1.1-5.5C141.2,212,135.1,205.9,127.6,205.9L127.6,205.9z"
					/>
			</g>
		</g>
	</g>
	<g>
		<g>
			<g>
				<polygon class="st8" points="417.6,571.5 43.4,597.6 43.4,564.6 417.6,538.5 				"/>
			</g>
			<text transform="matrix(1 -6.972903e-02 0 1 65.8343 587.7797)" class="st6 st109 st110 st111">INCREÍBLE · FANTÁSTICA · APOTEÓSICA</text>
		</g>
		<g>
			<polygon class="st5" points="38.4,444.4 422.6,417.6 422.6,534.9 38.4,561.7 			"/>
			<path class="st6" d="M417.6,423v107.2L43.4,556.3V449.1L417.6,423 M427.6,412.3l-10.7,0.7L42.7,439.1l-9.3,0.6v9.3v107.2V567
				l10.7-0.7l374.2-26.1l9.3-0.6v-9.3V423V412.3L427.6,412.3z"/>
		</g>
		<g>
			<text transform="matrix(1 -6.972903e-02 0 1 106.359 530.0931)" class="st10 st109 st112">El hosting</text>
			<text transform="matrix(1 -6.972903e-02 0 1 109.3216 526.9252)" class="st5 st109 st112">El hosting</text>
			<text transform="matrix(1 -6.972903e-02 0 1 114.4507 523.005)" class="st6 st109 st112">el hosting</text>
		</g>
		<g>
			<text transform="matrix(1 0 0 1 212.1126 720.1268)" class="st6 st117 st118">; )</text>
			<path class="st6" d="M194.4,789.9V765h35c-12.2-0.8-20-2.6-26.2-7.2c-11.9-8.8-11.9-23.4-11.9-47.4v-4.9c0-24.1,0-38.6,11.9-47.4
				c10.4-7.7,8-7.7,41.1-7.7c1.7,0,3.4,0,5,0c0.6-3.1,1.5-5.7,2.7-7.9c2.3-4,5.7-7,10.6-9c0.5-0.2,0.9-0.4,1.4-0.6
				c-0.5-0.2-1-0.4-1.4-0.6c-14.3-5.9-14.3-18.3-14.3-35.4c0-17.1,0-29.5,14.3-35.4c11.3-4.7,30.8-4.7,73.3-4.7
				c45.7,0,65.5,0.5,77.1,5.3c14.8,6.1,14.8,18.1,14.8,34.8c0,17.2,0,29.6-14.9,35.5c-0.7,0.3-1.5,0.5-2.2,0.8
				c0.8,0.3,1.6,0.6,2.3,0.9c14.8,6.1,14.8,18.1,14.8,34.8c0,17.2,0,29.6-14.9,35.5c-0.7,0.3-1.5,0.5-2.2,0.8
				c0.8,0.3,1.6,0.6,2.3,0.9c14.8,6.1,14.8,18.1,14.8,34.8c0,17.2,0,29.6-14.9,35.5c-3,1.2-6.5,2-11,2.7v10.3H369v-8.5
				c-9.4,0.1-20.6,0.1-33.1,0.1c-11.4,0-21.5,0-30.1-0.1v8.4h-0.5v0.6H194.4z"/>
			<path class="st6" d="M300.2,631.3c9.7,0.2,21.4,0.2,35.6,0.2c15.5,0,28.2,0,38.7-0.2v3.3c-10.3-0.3-23-0.3-38.7-0.3
				c-14.2,0-25.9,0-35.6,0.2V631.3z M257.3,765.5c1.4,2,3.2,3.7,5.8,5h-5.8V765.5z M374.5,706.6c-10.3-0.3-23-0.3-38.7-0.3
				c-10,0-18.8,0-26.5,0.1c0-1,0-2,0-2.9c7.7,0.1,16.5,0.1,26.6,0.1c15.5,0,28.2,0,38.7-0.2V706.6z"/>
			<g>
				<g>
					<g>
						<g>
							<rect x="278.3" y="630.3" class="st10" width="21.9" height="9.5"/>
						</g>
						<g>
							<rect x="374.5" y="630.3" class="st10" width="21.9" height="9.5"/>
						</g>
						<g>
							<path class="st10" d="M421.1,597c0,33.4,0,33.4-85.3,33.4c-80.8,0-80.8,0-80.8-33.4c0-33.4,0-33.4,80.8-33.4
								C421.1,563.6,421.1,565.2,421.1,597z"/>
							<path class="st5" d="M335.8,631.5c-40.5,0-60.9,0-71.2-4.3c-10.8-4.5-10.8-13.7-10.8-30.3s0-25.8,10.8-30.3
								c10.3-4.3,30.7-4.3,71.2-4.3c43.9,0,64.3,0.5,75,4.9c11.4,4.7,11.4,13.6,11.4,29.7c0,16.7,0,25.8-11.4,30.3
								C400,631.5,378.6,631.5,335.8,631.5z M335.8,564.8c-40.2,0-60.4,0-70.3,4.1c-9.4,3.9-9.4,11.5-9.4,28.1
								c0,16.6,0,24.2,9.4,28.1c9.9,4.1,30.1,4.1,70.3,4.1c42.4,0,63.7,0,74.2-4.1c9.9-3.9,9.9-11.5,9.9-28.1
								c0-15.6,0-23.4-9.9-27.5C399.7,565.2,379.5,564.8,335.8,564.8z"/>
						</g>
						<g>
							<path class="st5" d="M400.7,618.7c-0.1-4-3.3-7.3-7.3-7.3s-7.3,3.2-7.3,7.3h0v10.5h14.7L400.7,618.7L400.7,618.7z"/>
						</g>
						<g>
							<path class="st5" d="M381.7,618.7c-0.1-4-3.3-7.3-7.3-7.3s-7.3,3.2-7.3,7.3h0v10.5h14.7L381.7,618.7L381.7,618.7z"/>
						</g>
						<g>
							<path class="st5" d="M362.6,618.7c-0.1-4-3.3-7.3-7.3-7.3s-7.3,3.2-7.3,7.3h0v10.5h14.7L362.6,618.7L362.6,618.7z"/>
						</g>
						<g>
							<path class="st5" d="M343.5,618.7c-0.1-4-3.3-7.3-7.3-7.3s-7.3,3.2-7.3,7.3h0v10.5h14.7L343.5,618.7L343.5,618.7z"/>
						</g>
						<g>
							<path class="st5" d="M324.4,618.7c-0.1-4-3.3-7.3-7.3-7.3s-7.3,3.2-7.3,7.3h0v10.5h14.7L324.4,618.7L324.4,618.7z"/>
						</g>
						<g>
							<path class="st5" d="M305.4,618.7c-0.1-4-3.3-7.3-7.3-7.3s-7.3,3.2-7.3,7.3h0v10.5h14.7L305.4,618.7L305.4,618.7z"/>
						</g>
						<g>
							<path class="st5" d="M286.3,618.7c-0.1-4-3.3-7.3-7.3-7.3c-4,0-7.3,3.2-7.3,7.3h0v10.5h14.7L286.3,618.7L286.3,618.7z"/>
						</g>
						<g>
							<g>
								<path class="st5" d="M405.9,598.5c0,2,0.1-2.8-69.5-2.8c-66,0-66.2,5.6-66.2,2.8c0-27.3,0-27.3,66-27.3
									C405.9,571.3,405.9,572.6,405.9,598.5z"/>
							</g>
							<g>
								<circle class="st9" cx="286.5" cy="584.4" r="3.4"/>
								<path class="st10" d="M286.5,589c-2.5,0-4.6-2-4.6-4.6c0-2.5,2-4.6,4.6-4.6c2.5,0,4.6,2,4.6,4.6
									C291.1,587,289,589,286.5,589z M286.5,582.3c-1.2,0-2.2,1-2.2,2.2c0,1.2,1,2.2,2.2,2.2c1.2,0,2.2-1,2.2-2.2
									C288.7,583.2,287.7,582.3,286.5,582.3z"/>
							</g>
							<g>
								<circle class="st9" cx="299.2" cy="584.4" r="3.4"/>
								<path class="st10" d="M299.2,589c-2.5,0-4.6-2-4.6-4.6c0-2.5,2-4.6,4.6-4.6c2.5,0,4.6,2,4.6,4.6
									C303.8,587,301.7,589,299.2,589z M299.2,582.3c-1.2,0-2.2,1-2.2,2.2c0,1.2,1,2.2,2.2,2.2c1.2,0,2.2-1,2.2-2.2
									C301.4,583.2,300.4,582.3,299.2,582.3z"/>
							</g>
							<g>
								<circle class="st9" cx="311.9" cy="584.4" r="3.4"/>
								<path class="st10" d="M311.9,589c-2.5,0-4.6-2-4.6-4.6c0-2.5,2-4.6,4.6-4.6c2.5,0,4.6,2,4.6,4.6
									C316.5,587,314.4,589,311.9,589z M311.9,582.3c-1.2,0-2.2,1-2.2,2.2c0,1.2,1,2.2,2.2,2.2c1.2,0,2.2-1,2.2-2.2
									C314.1,583.2,313.1,582.3,311.9,582.3z"/>
							</g>
							<g>
								<circle class="st9" cx="324.6" cy="584.4" r="3.4"/>
								<path class="st10" d="M324.6,589c-2.5,0-4.6-2-4.6-4.6c0-2.5,2-4.6,4.6-4.6c2.5,0,4.6,2,4.6,4.6
									C329.2,587,327.2,589,324.6,589z M324.6,582.3c-1.2,0-2.2,1-2.2,2.2c0,1.2,1,2.2,2.2,2.2c1.2,0,2.2-1,2.2-2.2
									C326.8,583.2,325.8,582.3,324.6,582.3z"/>
							</g>
						</g>
						<g>
							<rect x="346.7" y="580.3" class="st10" width="19.5" height="7.9"/>
						</g>
						<g>
							<rect x="372.1" y="580.3" class="st10" width="19.5" height="7.9"/>
						</g>
					</g>
					<g>
						<g>
							<rect x="278.3" y="702.3" class="st10" width="21.9" height="9.5"/>
						</g>
						<g>
							<rect x="374.5" y="702.3" class="st10" width="21.9" height="9.5"/>
						</g>
						<g>
							<path class="st10" d="M421.1,668.9c0,33.4,0,33.4-85.3,33.4c-80.8,0-80.8,0-80.8-33.4c0-33.4,0-33.4,80.8-33.4
								C421.1,635.5,421.1,637.1,421.1,668.9z"/>
							<path class="st5" d="M335.8,703.5c-40.5,0-60.9,0-71.2-4.3c-10.8-4.5-10.8-13.7-10.8-30.3s0-25.8,10.8-30.3
								c10.3-4.3,30.7-4.3,71.2-4.3c43.9,0,64.3,0.5,75,4.9c11.4,4.7,11.4,13.6,11.4,29.7c0,16.7,0,25.8-11.4,30.3
								C400,703.5,378.6,703.5,335.8,703.5z M335.8,636.7c-40.2,0-60.4,0-70.3,4.1c-9.4,3.9-9.4,11.5-9.4,28.1
								c0,16.6,0,24.2,9.4,28.1c9.9,4.1,30.1,4.1,70.3,4.1c42.4,0,63.7,0,74.2-4.1c9.9-3.9,9.9-11.5,9.9-28.1
								c0-15.6,0-23.4-9.9-27.5C399.7,637.2,379.5,636.7,335.8,636.7z"/>
						</g>
						<g>
							<path class="st5" d="M400.7,690.6c-0.1-4-3.3-7.3-7.3-7.3s-7.3,3.2-7.3,7.3h0v10.5h14.7L400.7,690.6L400.7,690.6z"/>
						</g>
						<g>
							<path class="st5" d="M381.7,690.6c-0.1-4-3.3-7.3-7.3-7.3s-7.3,3.2-7.3,7.3h0v10.5h14.7L381.7,690.6L381.7,690.6z"/>
						</g>
						<g>
							<path class="st5" d="M362.6,690.6c-0.1-4-3.3-7.3-7.3-7.3s-7.3,3.2-7.3,7.3h0v10.5h14.7L362.6,690.6L362.6,690.6z"/>
						</g>
						<g>
							<path class="st5" d="M343.5,690.6c-0.1-4-3.3-7.3-7.3-7.3s-7.3,3.2-7.3,7.3h0v10.5h14.7L343.5,690.6L343.5,690.6z"/>
						</g>
						<g>
							<path class="st5" d="M324.4,690.6c-0.1-4-3.3-7.3-7.3-7.3s-7.3,3.2-7.3,7.3h0v10.5h14.7L324.4,690.6L324.4,690.6z"/>
						</g>
						<g>
							<path class="st5" d="M305.4,690.6c-0.1-4-3.3-7.3-7.3-7.3s-7.3,3.2-7.3,7.3h0v10.5h14.7L305.4,690.6L305.4,690.6z"/>
						</g>
						<g>
							<path class="st5" d="M286.3,690.6c-0.1-4-3.3-7.3-7.3-7.3c-4,0-7.3,3.2-7.3,7.3h0v10.5h14.7L286.3,690.6L286.3,690.6z"/>
						</g>
						<g>
							<g>
								<path class="st5" d="M405.9,670.5c0,2,0.1-2.8-69.5-2.8c-66,0-66.2,5.6-66.2,2.8c0-27.3,0-27.3,66-27.3
									C405.9,643.2,405.9,644.5,405.9,670.5z"/>
							</g>
							<g>
								<circle class="st9" cx="286.5" cy="656.4" r="3.4"/>
								<path class="st10" d="M286.5,661c-2.5,0-4.6-2-4.6-4.6c0-2.5,2-4.6,4.6-4.6c2.5,0,4.6,2,4.6,4.6
									C291.1,658.9,289,661,286.5,661z M286.5,654.2c-1.2,0-2.2,1-2.2,2.2c0,1.2,1,2.2,2.2,2.2c1.2,0,2.2-1,2.2-2.2
									C288.7,655.2,287.7,654.2,286.5,654.2z"/>
							</g>
							<g>
								<circle class="st9" cx="299.2" cy="656.4" r="3.4"/>
								<path class="st10" d="M299.2,661c-2.5,0-4.6-2-4.6-4.6c0-2.5,2-4.6,4.6-4.6c2.5,0,4.6,2,4.6,4.6
									C303.8,658.9,301.7,661,299.2,661z M299.2,654.2c-1.2,0-2.2,1-2.2,2.2c0,1.2,1,2.2,2.2,2.2c1.2,0,2.2-1,2.2-2.2
									C301.4,655.2,300.4,654.2,299.2,654.2z"/>
							</g>
							<g>
								<circle class="st9" cx="311.9" cy="656.4" r="3.4"/>
								<path class="st10" d="M311.9,661c-2.5,0-4.6-2-4.6-4.6c0-2.5,2-4.6,4.6-4.6c2.5,0,4.6,2,4.6,4.6
									C316.5,658.9,314.4,661,311.9,661z M311.9,654.2c-1.2,0-2.2,1-2.2,2.2c0,1.2,1,2.2,2.2,2.2c1.2,0,2.2-1,2.2-2.2
									C314.1,655.2,313.1,654.2,311.9,654.2z"/>
							</g>
							<g>
								<circle class="st9" cx="324.6" cy="656.4" r="3.4"/>
								<path class="st10" d="M324.6,661c-2.5,0-4.6-2-4.6-4.6c0-2.5,2-4.6,4.6-4.6c2.5,0,4.6,2,4.6,4.6
									C329.2,658.9,327.2,661,324.6,661z M324.6,654.2c-1.2,0-2.2,1-2.2,2.2c0,1.2,1,2.2,2.2,2.2c1.2,0,2.2-1,2.2-2.2
									C326.8,655.2,325.8,654.2,324.6,654.2z"/>
							</g>
						</g>
						<g>
							<rect x="346.7" y="652.2" class="st10" width="19.5" height="7.9"/>
						</g>
						<g>
							<rect x="372.1" y="652.2" class="st10" width="19.5" height="7.9"/>
						</g>
					</g>
					<g>
						<g>
							<rect x="278.3" y="774.2" class="st10" width="21.9" height="9.5"/>
						</g>
						<g>
							<rect x="374.5" y="774.2" class="st10" width="21.9" height="9.5"/>
						</g>
						<g>
							<path class="st10" d="M421.1,740.9c0,33.4,0,33.4-85.3,33.4c-80.8,0-80.8,0-80.8-33.4c0-33.4,0-33.4,80.8-33.4
								C421.1,707.5,421.1,709.1,421.1,740.9z"/>
							<path class="st5" d="M335.8,775.4c-40.5,0-60.9,0-71.2-4.3c-10.8-4.5-10.8-13.7-10.8-30.3s0-25.8,10.8-30.3
								c10.3-4.3,30.7-4.3,71.2-4.3c43.9,0,64.3,0.5,75,4.9c11.4,4.7,11.4,13.6,11.4,29.7c0,16.7,0,25.8-11.4,30.3
								C400,775.4,378.6,775.4,335.8,775.4z M335.8,708.7c-40.2,0-60.4,0-70.3,4.1c-9.4,3.9-9.4,11.5-9.4,28.1
								c0,16.6,0,24.2,9.4,28.1c9.9,4.1,30.1,4.1,70.3,4.1c42.4,0,63.7,0,74.2-4.1c9.9-3.9,9.9-11.5,9.9-28.1
								c0-15.6,0-23.4-9.9-27.5C399.7,709.1,379.5,708.7,335.8,708.7z"/>
						</g>
						<g>
							<path class="st5" d="M400.7,762.6c-0.1-4-3.3-7.3-7.3-7.3s-7.3,3.2-7.3,7.3h0V773h14.7L400.7,762.6L400.7,762.6z"/>
						</g>
						<g>
							<path class="st5" d="M381.7,762.6c-0.1-4-3.3-7.3-7.3-7.3s-7.3,3.2-7.3,7.3h0V773h14.7L381.7,762.6L381.7,762.6z"/>
						</g>
						<g>
							<path class="st5" d="M362.6,762.6c-0.1-4-3.3-7.3-7.3-7.3s-7.3,3.2-7.3,7.3h0V773h14.7L362.6,762.6L362.6,762.6z"/>
						</g>
						<g>
							<path class="st5" d="M343.5,762.6c-0.1-4-3.3-7.3-7.3-7.3s-7.3,3.2-7.3,7.3h0V773h14.7L343.5,762.6L343.5,762.6z"/>
						</g>
						<g>
							<path class="st5" d="M324.4,762.6c-0.1-4-3.3-7.3-7.3-7.3s-7.3,3.2-7.3,7.3h0V773h14.7L324.4,762.6L324.4,762.6z"/>
						</g>
						<g>
							<path class="st5" d="M305.4,762.6c-0.1-4-3.3-7.3-7.3-7.3s-7.3,3.2-7.3,7.3h0V773h14.7L305.4,762.6L305.4,762.6z"/>
						</g>
						<g>
							<path class="st5" d="M286.3,762.6c-0.1-4-3.3-7.3-7.3-7.3c-4,0-7.3,3.2-7.3,7.3h0V773h14.7L286.3,762.6L286.3,762.6z"/>
						</g>
						<g>
							<g>
								<path class="st5" d="M405.9,742.4c0,2,0.1-2.8-69.5-2.8c-66,0-66.2,5.6-66.2,2.8c0-27.3,0-27.3,66-27.3
									C405.9,715.2,405.9,716.5,405.9,742.4z"/>
							</g>
							<g>
								<circle class="st9" cx="286.5" cy="728.3" r="3.4"/>
								<path class="st10" d="M286.5,732.9c-2.5,0-4.6-2-4.6-4.6c0-2.5,2-4.6,4.6-4.6c2.5,0,4.6,2,4.6,4.6
									C291.1,730.9,289,732.9,286.5,732.9z M286.5,726.2c-1.2,0-2.2,1-2.2,2.2c0,1.2,1,2.2,2.2,2.2c1.2,0,2.2-1,2.2-2.2
									C288.7,727.1,287.7,726.2,286.5,726.2z"/>
							</g>
							<g>
								<circle class="st9" cx="299.2" cy="728.3" r="3.4"/>
								<path class="st10" d="M299.2,732.9c-2.5,0-4.6-2-4.6-4.6c0-2.5,2-4.6,4.6-4.6c2.5,0,4.6,2,4.6,4.6
									C303.8,730.9,301.7,732.9,299.2,732.9z M299.2,726.2c-1.2,0-2.2,1-2.2,2.2c0,1.2,1,2.2,2.2,2.2c1.2,0,2.2-1,2.2-2.2
									C301.4,727.1,300.4,726.2,299.2,726.2z"/>
							</g>
							<g>
								<circle class="st9" cx="311.9" cy="728.3" r="3.4"/>
								<path class="st10" d="M311.9,732.9c-2.5,0-4.6-2-4.6-4.6c0-2.5,2-4.6,4.6-4.6c2.5,0,4.6,2,4.6,4.6
									C316.5,730.9,314.4,732.9,311.9,732.9z M311.9,726.2c-1.2,0-2.2,1-2.2,2.2c0,1.2,1,2.2,2.2,2.2c1.2,0,2.2-1,2.2-2.2
									C314.1,727.1,313.1,726.2,311.9,726.2z"/>
							</g>
							<g>
								<circle class="st9" cx="324.6" cy="728.3" r="3.4"/>
								<path class="st10" d="M324.6,732.9c-2.5,0-4.6-2-4.6-4.6c0-2.5,2-4.6,4.6-4.6c2.5,0,4.6,2,4.6,4.6
									C329.2,730.9,327.2,732.9,324.6,732.9z M324.6,726.2c-1.2,0-2.2,1-2.2,2.2c0,1.2,1,2.2,2.2,2.2c1.2,0,2.2-1,2.2-2.2
									C326.8,727.1,325.8,726.2,324.6,726.2z"/>
							</g>
						</g>
						<g>
							<rect x="346.7" y="724.2" class="st10" width="19.5" height="7.9"/>
						</g>
						<g>
							<rect x="372.1" y="724.2" class="st10" width="19.5" height="7.9"/>
						</g>
					</g>
				</g>
				<g>
					<path class="st4" d="M263.2,758.1c-31.9,0-46.5,0-55.4-6.6c-9.7-7.2-9.7-19.9-9.7-43v-4.9c0-23.1,0-35.8,9.7-43
						c8.9-6.6,23.5-6.6,55.4-6.6c31.9,0,46.5,0,55.5,7c9.6,7.5,9.6,20,9.6,45s0,37.6-9.6,45C309.7,758.1,295.1,758.1,263.2,758.1z"
						/>
					<ellipse class="st44" cx="263.2" cy="706.1" rx="59.5" ry="46.5"/>
				</g>
				<rect x="243.6" y="758.2" class="st4" width="32.7" height="10.5"/>
				<rect x="201.2" y="768.7" class="st4" width="117.3" height="13.8"/>
				<text transform="matrix(1 0 0 1 231.0042 718.3279)" class="st6 st117 st118">; )</text>
			</g>
		</g>
		<rect x="53.7" y="623.4" class="st49" width="135" height="181.8"/>
		<text transform="matrix(1 0 0 1 53.7308 634.8445)"><tspan x="0" y="0" class="st109 st115">Contrata un hosting (de </tspan><tspan x="0" y="16.6" class="st109 st115">pago).</tspan><tspan x="32.7" y="16.6" class="st116 st115"> Donde tenga </tspan><tspan x="0" y="33.2" class="st116 st115">alojada tu web es otro </tspan><tspan x="0" y="49.8" class="st116 st115">factor determinante para </tspan><tspan x="0" y="66.3" class="st116 st115">favorecer la velocidad de </tspan><tspan x="0" y="82.9" class="st116 st115">tu sitio, la escalabilidad y </tspan><tspan x="0" y="99.5" class="st116 st115">la solución de problemas </tspan><tspan x="0" y="116.1" class="st116 st115">técnicos que puedan </tspan><tspan x="0" y="132.7" class="st116 st115">surgir. Elige uno que </tspan><tspan x="0" y="149.3" class="st116 st115">tenga buen servicio al </tspan><tspan x="0" y="165.9" class="st116 st115">cliente.</tspan></text>
		<g>
			<g>
				<path class="st5" d="M119.9,617.9c-2.6,0-4.9-1.1-6.4-2.9c-1.5,1.8-3.8,2.9-6.4,2.9h-5.6c-4.7,0-8.5-3.7-8.5-8.5v-7.8
					c0-5.2,2.3-10,6.4-13.2l1.4-1.1c1.5-1.1,3.3-2.2,5.8-2.2c3.9,0,7.3,2.7,8.3,6.4c0.8-1.1,1.8-2.1,2.9-3l1.4-1.1
					c1.5-1.1,3.3-2.2,5.8-2.2c4.7,0,8.6,3.9,8.6,8.6c0,2.2-0.8,4.1-2.1,5.7c1.4,1.3,2.4,3.1,2.4,6.1v4.2c0,4.7-3.7,8.5-8.5,8.5
					H119.9z"/>
				<path class="st6" d="M125,589.9c1.9,0,3.6,1.6,3.6,3.6c0,0.9-0.3,2-1.4,2.8l-1.2,1c-1,0.8-1.6,1.3-1.6,2.4
					c0,0.9,0.6,1.3,1.7,1.9l0.5,0.3c1.7,0.9,2.3,1.5,2.3,3.4v4.2c0,2-1.5,3.5-3.5,3.5h-5.6c-2,0-3.5-1.5-3.5-3.5v-7.8
					c0-4,2-7.3,4.5-9.3l1.3-1.1C123.4,590.4,124.2,589.9,125,589.9 M106.6,589.9c1.9,0,3.6,1.6,3.6,3.6c0,0.9-0.3,2-1.4,2.8l-1.2,1
					c-1,0.8-1.6,1.3-1.6,2.4c0,0.9,0.6,1.3,1.7,1.9l0.5,0.3c1.7,0.9,2.3,1.5,2.3,3.4v4.2c0,2-1.5,3.5-3.5,3.5h-5.6
					c-2,0-3.5-1.5-3.5-3.5v-7.8c0-4,2-7.3,4.5-9.3l1.3-1.1C104.9,590.4,105.7,589.9,106.6,589.9 M125,579.9c-4.4,0-7.6,2.4-8.8,3.2
					l-0.1,0.1l-0.1,0.1l-0.2,0.2c-2.4-2.2-5.7-3.6-9.3-3.6c-4.4,0-7.6,2.4-8.8,3.2l-0.1,0.1l-0.1,0.1l-1.3,1.1
					c-5.3,4.2-8.3,10.4-8.3,17.1v7.8c0,7.4,6,13.5,13.5,13.5h5.6c2.3,0,4.5-0.6,6.4-1.6c1.9,1,4.1,1.6,6.4,1.6h5.6
					c7.4,0,13.5-6,13.5-13.5v-4.2c0-2.3-0.5-4.4-1.4-6.2c0.7-1.7,1.1-3.5,1.1-5.5C138.7,586,132.6,579.9,125,579.9L125,579.9z"/>
			</g>
		</g>
	</g>
	<g>
		<g>
			<polygon class="st8" points="847.1,587.5 472.9,613.6 472.9,580.6 847.1,554.6 			"/>
		</g>
		<text transform="matrix(1 -6.972903e-02 0 1 495.3747 603.8279)" class="st6 st109 st110 st111">INCREÍBLE · FANTÁSTICA · APOTEÓSICA</text>
		<g>
			<polygon class="st5" points="467.9,460.5 852.1,433.7 852.1,550.9 467.9,577.7 			"/>
			<path class="st6" d="M847.1,439v107.2l-374.2,26.1V465.1L847.1,439 M857.1,428.3l-10.7,0.7l-374.2,26.1l-9.3,0.6v9.3v107.2v10.7
				l10.7-0.7l374.2-26.1l9.3-0.6v-9.3V439V428.3L857.1,428.3z"/>
		</g>
		<text transform="matrix(1 -6.972903e-02 0 1 515.1986 546.2537)" class="st10 st109 st112">el buscador</text>
		<text transform="matrix(1 -6.972903e-02 0 1 518.1612 542.5921)" class="st5 st109 st112">el buscador</text>
		<text transform="matrix(1 -6.972903e-02 0 1 523.2903 538.6719)" class="st6 st109 st112">el buscador</text>
		<rect x="483.3" y="639.5" class="st49" width="148.9" height="181.8"/>
		<text transform="matrix(1 0 0 1 483.2707 650.8931)"><tspan x="0" y="0" class="st109 st115">Haz fácil la navegación por </tspan><tspan x="0" y="16.6" class="st109 st115">tu página. </tspan><tspan x="54.7" y="16.6" class="st116 st115">Pónselo fácil a </tspan><tspan x="0" y="33.2" class="st116 st115">tus visitantes. Nadie va a </tspan><tspan x="0" y="49.8" class="st116 st115">estrujarse los sesos para </tspan><tspan x="0" y="66.3" class="st116 st115">encontrar tus productos o </tspan><tspan x="0" y="82.9" class="st116 st115">servicios. Ofréceles menús </tspan><tspan x="0" y="99.5" class="st116 st115">de navegación intuitivos, un </tspan><tspan x="0" y="116.1" class="st116 st115">buscador interno, botones </tspan><tspan x="0" y="132.7" class="st116 st115">fáciles de ver y de clicar, </tspan><tspan x="0" y="149.3" class="st116 st115">etc.</tspan></text>
		<g>
			<path class="st5" d="M549.4,633.9c-2.6,0-4.9-1.1-6.4-2.9c-1.5,1.8-3.8,2.9-6.4,2.9H531c-4.7,0-8.5-3.7-8.5-8.5v-7.8
				c0-5.2,2.3-10,6.4-13.2l1.4-1.1c1.5-1.1,3.3-2.2,5.8-2.2c3.9,0,7.3,2.7,8.3,6.4c0.8-1.1,1.8-2.1,2.9-3l1.4-1.2
				c1.5-1.1,3.3-2.2,5.8-2.2c4.7,0,8.6,3.9,8.6,8.6c0,2.2-0.8,4.1-2.1,5.7c1.4,1.3,2.4,3.1,2.4,6.1v4.2c0,4.7-3.7,8.5-8.5,8.5H549.4
				z"/>
			<path class="st6" d="M554.6,606c1.9,0,3.6,1.6,3.6,3.6c0,0.9-0.3,2-1.4,2.8l-1.2,1c-1,0.8-1.6,1.3-1.6,2.4c0,0.9,0.6,1.3,1.7,1.9
				l0.5,0.3c1.7,0.9,2.3,1.5,2.3,3.4v4.2c0,2-1.5,3.5-3.5,3.5h-5.6c-2,0-3.5-1.5-3.5-3.5v-7.8c0-4,2-7.3,4.5-9.3l1.3-1.1
				C552.9,606.4,553.7,606,554.6,606 M536.1,606c1.9,0,3.6,1.6,3.6,3.6c0,0.9-0.3,2-1.4,2.8l-1.2,1c-1,0.8-1.6,1.3-1.6,2.4
				c0,0.9,0.6,1.3,1.7,1.9l0.5,0.3c1.7,0.9,2.3,1.5,2.3,3.4v4.2c0,2-1.5,3.5-3.5,3.5H531c-2,0-3.5-1.5-3.5-3.5v-7.8
				c0-4,2-7.3,4.5-9.3l1.3-1.1C534.4,606.4,535.2,606,536.1,606 M554.6,596c-4.4,0-7.6,2.4-8.8,3.2l-0.1,0.1l-0.1,0.1l-0.2,0.2
				c-2.4-2.2-5.7-3.6-9.3-3.6c-4.4,0-7.6,2.4-8.8,3.2l-0.1,0.1l-0.1,0.1l-1.3,1.1c-5.3,4.2-8.3,10.4-8.3,17.1v7.8
				c0,7.4,6,13.5,13.5,13.5h5.6c2.3,0,4.5-0.6,6.4-1.6c1.9,1,4.1,1.6,6.4,1.6h5.6c7.4,0,13.5-6,13.5-13.5v-4.2
				c0-2.3-0.5-4.4-1.4-6.2c0.7-1.7,1.1-3.5,1.1-5.5C568.2,602.1,562.1,596,554.6,596L554.6,596z"/>
		</g>
		<ellipse class="st11" cx="665.2" cy="665.1" rx="14.8" ry="20.4"/>
		<ellipse class="st11" cx="812.3" cy="665.1" rx="14.8" ry="20.4"/>
		<g>
			<path class="st11" d="M809.5,672.4c0.5,26.4,0,55.3-70.9,55.4c-37.4,0-71.1-11.2-70.9-55.4c0.2-55.4,25.6-69.9,71.1-69.9
				C796.1,602.5,808.6,626.9,809.5,672.4z"/>
			<path class="st11" d="M689.9,669.3c0,0,3-8.6,12.2-7.1c9.2,1.6,10.2,7.1,10.2,7.1"/>
			<path class="st11" d="M760.4,669.3c0,0,3-8.6,12.2-7.1c9.2,1.6,10.2,7.1,10.2,7.1"/>
			<path class="st11" d="M730.4,677.7c0,0-2.5,12.3,7,11.4c9.5-0.9,10.1-9.4,10.1-9.4"/>
		</g>
		<path class="st4" d="M710.1,560.1c-10.4-6.4,3.2-27.4,13.6-21c10.4,6.4,11.7,18.8,10.2,21.3C732,563.4,720.5,566.5,710.1,560.1z"
			/>
		<path class="st4" d="M747,538.7c10.9-5.4,21.4,17.4,10.5,22.8c-10.9,5.4-22.1-0.1-23.4-2.8C732.5,555.5,736.1,544.1,747,538.7z"/>
		<path class="st4" d="M808.8,597.6c12.7,23.2,0.8,45.5-70.1,45.5c-37.4,0-87.7-4.3-71.7-45.5c8.4-21.7,27.5-36.9,65.1-36.9
			C789.5,560.7,802.7,586.4,808.8,597.6z"/>
		<path class="st12" d="M664.2,606.9c0,0,27,19,68.9,17.4s79.5-17.1,79.5-17.1"/>
		<path class="st12" d="M726.1,560.9c0,0-18.7,12.5-25,22.9c-11.2,18.5-5.3,33.6-5.3,33.6"/>
		<path class="st12" d="M744.4,560.6c0,0,18.7,12.5,25,22.9c11.2,18.5,5.3,33.6,5.3,33.6"/>
		<polygon class="st5" points="667.7,672.4 680.1,672.4 689.9,638.2 675.9,629.9 669.3,651.1 		"/>
		<polygon class="st5" points="808.6,672.2 796.2,672.2 786.4,638.1 800.3,629.7 807,651 		"/>
		<path class="st5" d="M720.3,684.7c-9.9,2.6-11.9,19.8-25.1,23.9s-10.6-12.7-10.6-12.7c0-0.1,0.1-0.2,0.1-0.3c0-2-6.2-3.6-13.8-3.6
			c-7.6,0-13.8,1.6-13.8,3.6c0,0.3-0.3,4.5,0.6,7.6c6.6,21.7,27.1,25.7,40.2,19.7c13.2-5.9,20.5-21.1,22.4-26.4
			c2.6-7.3,12.5-7.9,12.5-7.9V684C732.8,684,729.6,682.2,720.3,684.7z"/>
		<g>
			<rect x="769.4" y="715" class="st5" width="15.3" height="82.1"/>
			<g>
				<circle class="st86" cx="776.3" cy="679.7" r="37.9"/>
				<g>
					<path class="st11" d="M730,768.2c0,14.9,12,26.9,26.9,26.9h40.4c14.9,0,26.9-12,26.9-26.9c0-14.9-12-26.9-26.9-26.9h-40.4
						C742.1,741.3,730,753.3,730,768.2z"/>
					<line class="st12" x1="760.3" y1="777.2" x2="731.6" y2="777.2"/>
					<line class="st12" x1="760.3" y1="763.7" x2="731.6" y2="763.7"/>
				</g>
			</g>
		</g>
		<g>
			<defs>
				<polygon id="SVGID_00000150103961752635400520000015768722877233229465_" points="882.5,828.5 439.7,828.5 441.2,450.6 884,423 
									"/>
			</defs>
			<clipPath id="SVGID_00000015344767572586569000000017036537140675894191_">
				<use xlink:href="#SVGID_00000150103961752635400520000015768722877233229465_"  style="overflow:visible;"/>
			</clipPath>
		</g>
	</g>
	<g>
		<g>
			<g>
				<polygon class="st8" points="837.2,197.4 463,223.5 463,190.6 837.2,164.5 				"/>
			</g>
			<text transform="matrix(1 -6.972903e-02 0 1 485.423 213.7564)" class="st6 st109 st110 st111">INCREÍBLE · FANTÁSTICA · APOTEÓSICA</text>
		</g>
		<g>
			<polygon class="st5" points="458,70.4 842.2,43.6 842.2,160.9 458,187.6 			"/>
			<path class="st6" d="M837.2,49v107.2L463,182.3V75.1L837.2,49 M847.2,38.3L836.5,39L462.3,65.1l-9.3,0.6v9.3v107.2V193l10.7-0.7
				l374.2-26.1l9.3-0.6v-9.3V49V38.3L847.2,38.3z"/>
		</g>
		<g>
			<text transform="matrix(1 -6.972903e-02 0 1 482.5102 144.2231)" class="st10 st109 st119">CONTENIDOS ACTUALIZADOS</text>
			<text transform="matrix(1 -6.972903e-02 0 1 484.4849 140.5611)" class="st5 st109 st119">CONTENIDOS ACTUALIZADOS</text>
			<text transform="matrix(1 -6.972903e-02 0 1 487.1464 136.6421)" class="st6 st109 st119">CONTENIDOS ACTUALIZADOS</text>
		</g>
		<rect x="473.3" y="249.4" class="st49" width="140" height="181.8"/>
		<text transform="matrix(1 0 0 1 473.319 260.8211)"><tspan x="0" y="0" class="st109 st115">Incluye contenidos </tspan><tspan x="0" y="16.6" class="st109 st115">frecuentemente. </tspan><tspan x="90.9" y="16.6" class="st116 st115">No dejes </tspan><tspan x="0" y="33.2" class="st116 st115">aparcado el fantástico </tspan><tspan x="0" y="49.8" class="st116 st115">trabajo que has hecho. </tspan><tspan x="0" y="66.3" class="st116 st115">Como un jardín, una web </tspan><tspan x="0" y="82.9" class="st116 st115">hay que cuidarla un poco </tspan><tspan x="0" y="99.5" class="st116 st115">todos los días. Seguro que </tspan><tspan x="0" y="116.1" class="st116 st115">hay cosas que mejorar. </tspan><tspan x="0" y="132.7" class="st116 st115">Ponte manos a la obra.</tspan></text>
		<g>
			<g>
				<path class="st5" d="M539.5,243.8c-2.6,0-4.9-1.1-6.4-2.9c-1.5,1.8-3.8,2.9-6.4,2.9H521c-4.7,0-8.5-3.7-8.5-8.5v-7.8
					c0-5.2,2.3-10,6.4-13.2l1.4-1.1c1.5-1.1,3.3-2.2,5.8-2.2c3.9,0,7.3,2.7,8.3,6.4c0.8-1.1,1.8-2.1,2.9-3l1.4-1.1
					c1.5-1.1,3.3-2.2,5.8-2.2c4.7,0,8.6,3.9,8.6,8.6c0,2.2-0.8,4.1-2.2,5.7c1.4,1.3,2.4,3.1,2.4,6v4.2c0,4.7-3.7,8.5-8.5,8.5H539.5z
					"/>
				<path class="st6" d="M544.6,215.9c1.9,0,3.6,1.6,3.6,3.6c0,0.9-0.3,2-1.4,2.8l-1.2,1c-1,0.8-1.6,1.3-1.6,2.4
					c0,0.9,0.6,1.3,1.7,1.9l0.5,0.3c1.7,0.9,2.3,1.5,2.3,3.4v4.2c0,2-1.5,3.5-3.5,3.5h-5.6c-2,0-3.5-1.5-3.5-3.5v-7.8
					c0-4,2-7.3,4.5-9.3l1.3-1.1C543,216.4,543.7,215.9,544.6,215.9 M526.2,215.9c1.9,0,3.6,1.6,3.6,3.6c0,0.9-0.3,2-1.4,2.8l-1.2,1
					c-1,0.8-1.6,1.3-1.6,2.4c0,0.9,0.6,1.3,1.7,1.9l0.5,0.3c1.7,0.9,2.3,1.5,2.3,3.4v4.2c0,2-1.5,3.5-3.5,3.5H521
					c-2,0-3.5-1.5-3.5-3.5v-7.8c0-4,2-7.3,4.5-9.3l1.3-1.1C524.5,216.4,525.3,215.9,526.2,215.9 M544.6,205.9
					c-4.4,0-7.6,2.4-8.8,3.2l-0.1,0.1l-0.1,0.1l-0.2,0.2c-2.4-2.2-5.7-3.6-9.3-3.6c-4.4,0-7.6,2.4-8.8,3.2l-0.1,0.1l-0.1,0.1
					l-1.3,1.1c-5.3,4.2-8.3,10.4-8.3,17.1v7.8c0,7.4,6,13.5,13.5,13.5h5.6c2.3,0,4.5-0.6,6.4-1.6c1.9,1,4.1,1.6,6.4,1.6h5.6
					c7.4,0,13.5-6,13.5-13.5v-4.2c0-2.3-0.5-4.4-1.4-6.2c0.7-1.7,1.1-3.5,1.1-5.5C558.3,212,552.2,205.9,544.6,205.9L544.6,205.9z"
					/>
			</g>
		</g>
		<g>
			<path class="st6" d="M726.8,400.4c-54.5,0-81.4-0.4-95.9-9.5c-15.6-9.8-15.6-27.9-15.6-60.8l0-7.3c0-33.5,0-51.9,16.8-61.5
				c15.5-8.8,44.6-8.8,102.7-8.9l7.7,0c3.5,0,7.4,0,11.3,0c-0.9-2.8-1.5-4.4-1.8-5.3c-1.9-5-1.4-10.5,1.5-14.7
				c2.3-3.4,5.9-5.4,9.7-5.4c0.3,0,0.6,0,0.9,0c2.8,0.2,5,1.4,6.6,3.5c0.2,0.3,0.4,0.6,0.6,0.9c-0.5-4.8-1.1-10.5-1.7-16.2
				c-3-32.2-0.9-34.5,0.8-36.4c1.1-1.2,2.6-1.9,4.2-1.9l0.1,0c2.2,0,6.4,1,9.3,6.6c1.3,2.5,1.8,4.9,1.9,5.1l0.1,0.3l4.3,45l0.2,0.2
				v-37.5c0-8.2,6.5-14.8,14.6-14.8c8,0,14.6,6.6,14.6,14.8v6.2l2.9-15.1c0.8-4.3,3.6-9.3,8.8-9.3c1.4,0,2.7,0.4,4,1.1
				c3.3,1.9,3.9,5.5,2.6,16.6l16.2-8.8l6.6,12.2l-8.7,60l-4.1,12.7c6.3,11.2,6.3,27.7,6.3,54c0,35.2,0,54.6-16.7,64.6
				c-15.5,9.3-44.7,9.4-102.8,9.4L726.8,400.4z M827.1,257.4c0.9,0.2,1.7,0.5,2.5,0.8l1.3-4.5l2.3-27.6
				C830.8,239.4,828.2,252.3,827.1,257.4z M775.3,252.6c1.2,0,2.4,0,3.6,0.1l-4.5-4.6L775.3,252.6z"/>
			<path class="st5" d="M842.6,273.1l4.6-14.5l8.4-58l-3.5-6.4l-11.8,6.4l-4.5,54l-3,10.2c-3.9-1.9-8.7-3.4-14.7-4.4l3.6-1.7
				c0,0,15.3-72.4,11.1-74.8c-4.2-2.4-5.6,4.8-5.6,4.8l-11.5,58.7l-1.2,1v-51.8c0-5.5-4.3-9.9-9.6-9.9s-9.6,4.4-9.6,9.9v49.8
				l-9.9-10.3l-4.4-46.4c0,0-1.7-7.7-6.5-7.8c-4.8-0.1,3.2,62.5,3.2,62.5L791,258c-5.9-0.2-12.5-0.4-19.7-0.4l-3.5-18.2
				c0,0,1.2-6.8-4.2-7.2c-5.3-0.4-9.7,6.4-7,13.3c0.9,2.4,2.4,7.1,3.9,12c-7.9,0-16.4,0-25.7,0c-116.7,0-114.6,0-114.6,69.1
				s-2.1,69,114.6,69c114.6,0,114.6,0,114.6-69.1C849.4,299.5,849.4,283.1,842.6,273.1z"/>
			<g>
				<g>
					<defs>
						<ellipse id="SVGID_00000018209328362946239550000015944878710888482188_" cx="734.8" cy="327.6" rx="114.6" ry="69"/>
					</defs>
					<clipPath id="SVGID_00000062157943176530559590000005690182791960474779_">
						<use xlink:href="#SVGID_00000018209328362946239550000015944878710888482188_"  style="overflow:visible;"/>
					</clipPath>
					
						<rect x="613.5" y="251.4" style="clip-path:url(#SVGID_00000062157943176530559590000005690182791960474779_);fill:#8288A8;" width="248.2" height="129.9"/>
					<path style="clip-path:url(#SVGID_00000062157943176530559590000005690182791960474779_);fill:#FCCF72;" d="M609.8,304.4
						c0,0,49.1-26.5,70.1-17.2s37.5,25.4,49.1,24s6.8-6.9,23-13c16.1-6.1,27,13.1,31,13c4-0.1,30.1-13,30.1-13h16l15.4,13l17.7-13
						v108.2h-260L609.8,304.4z"/>
				</g>
				<g>
					<g>
						<ellipse class="st12" cx="734.8" cy="326.5" rx="114.6" ry="69"/>
					</g>
				</g>
				<g>
					<path class="st8" d="M805,186.7c-5.3,0-9.6,4.4-9.6,9.9v156.5h19.3V196.6C814.6,191.2,810.3,186.7,805,186.7z"/>
					<path class="st8" d="M810.7,251.6l5.2-4.1l11.5-58.7c0,0,1.4-7.2,5.6-4.8s-11.1,74.8-11.1,74.8l-11.1,5.2V251.6z"/>
					<path class="st8" d="M798.4,249.6l-12.9-13.5l-4.4-46.4c0,0-1.7-7.7-6.5-7.8c-4.8-0.1,3.2,62.5,3.2,62.5l20.7,21.3V249.6z"/>
					<path class="st8" d="M798.3,283.1l-16.7-6.9l-8.8-10.1l-5.1-26.8c0,0,1.2-6.8-4.2-7.2c-5.3-0.4-9.7,6.4-7,13.3
						c2.7,7,9.7,31.5,9.7,31.5l14.7,12.9l17.4,5.4V283.1z"/>
					<polygon class="st8" points="801.8,309.2 821,304.7 835.8,254.6 840.3,200.6 852.1,194.1 855.6,200.6 847.2,258.6 828.7,316.6 
						801.8,319.3 					"/>
				</g>
				<g>
					<path class="st8" d="M660.8,267.7c-2.2,0-4,1.8-4,4.1v64.6h7.9v-64.6C664.7,269.5,663,267.7,660.8,267.7z"/>
					<path class="st8" d="M663.1,294.5l2.1-1.7l4.8-24.3c0,0,0.6-3,2.3-2c1.7,1-4.6,30.9-4.6,30.9l-4.6,2.2V294.5z"/>
					<path class="st8" d="M658.1,293.7l-5.3-5.6l-1.8-19.2c0,0-0.7-3.2-2.7-3.2s1.3,25.8,1.3,25.8l8.6,8.8V293.7z"/>
					<path class="st8" d="M658,307.5l-6.9-2.8l-3.6-4.2l-2.1-11.1c0,0,0.5-2.8-1.7-3c-2.2-0.2-4,2.6-2.9,5.5c1.1,2.9,4,13,4,13
						l6.1,5.3l7.2,2.2V307.5z"/>
					<polygon class="st8" points="659.4,318.3 667.4,316.4 673.5,295.7 675.3,273.4 680.2,270.8 681.7,273.4 678.2,297.4 
						670.5,321.3 659.4,322.5 					"/>
				</g>
				<g id="hqTBtq_00000016791598091799745070000017010102261554007689_">
					<g>
						<path class="st5" d="M690,355.2c-0.2-0.3-0.4-0.5-0.7-0.6c-1.6-0.5-3.1-0.9-4.7-1.5c-0.9-0.3-1.2-1.4-0.8-2.2
							c0.4-0.8,1.3-1.2,2.2-0.8c0.4,0.2,0.9,0.4,1.3,0.5c0.2,0.1,0.4,0.1,0.7,0.2c-1.1-2.8-1.9-5.6-2.4-8.5
							c-0.3-1.5-0.5-2.9-0.6-4.4c0-0.4-0.2-0.7-0.6-0.9c-1-0.6-2-1.2-3-1.8c-0.7-0.4-1-1.1-0.8-1.8c0.1-0.7,0.7-1.3,1.5-1.3
							c0.4,0,0.7,0.1,1.1,0.2c0.5,0.2,1,0.5,1.5,0.8c0.2-2.3,0.3-4.5,0.5-6.8c-0.5,0.1-1,0.3-1.6,0.4c-1.1,0.3-2-0.2-2.3-1.1
							c-0.3-1,0.3-1.8,1.4-2.2c0.9-0.3,1.9-0.6,2.8-0.9c0.2-0.1,0.4-0.3,0.5-0.5c2.1-8.9,6.4-16.5,12.8-23c0.3-0.3,0.3-0.5,0.2-0.8
							c-0.7-1.9-1.1-3.9-1.1-5.9c0-1.1,0.6-1.8,1.6-1.8c1,0,1.7,0.7,1.8,1.7c0.1,1.3,0.3,2.6,0.5,3.9c2.2-1.6,4.3-3.1,6.5-4.6
							c-0.3-0.2-0.7-0.4-1.1-0.6c-0.9-0.5-1.2-1.5-0.7-2.3c0.5-0.8,1.5-1.1,2.4-0.6c0.9,0.5,1.9,1,2.9,1.4c0.2,0.1,0.5,0.1,0.7,0
							c3.9-1.8,7.9-3.2,12.1-3.9c0.1,0,0.2-0.1,0.2-0.1c-0.2-1.1-0.5-2.1-0.7-3.1c-0.1-0.3-0.1-0.6-0.1-0.8c0-0.9,0.7-1.6,1.6-1.6
							c0.9-0.1,1.6,0.6,1.8,1.4c0.2,1.1,0.5,2.1,0.7,3.2c0.1,0.4,0.4,0.5,0.8,0.5c3.6-0.4,7.3-0.3,10.9,0.2c0.2,0,0.5-0.1,0.7-0.3
							c1.2-1.3,2.4-2.6,3.5-3.9c0.6-0.6,1.4-0.9,2.1-0.5c0.7,0.4,1.1,1.1,0.9,1.9c-0.1,0.3-0.2,0.6-0.4,0.8
							c-0.7,0.9-1.5,1.8-2.3,2.8c4.8,1.1,9.3,2.9,13.5,5.4c0.2-0.6,0.2-1.2,0.4-1.7c0.4-1.3,0.8-2.5,1.3-3.7c0.4-1,1.4-1.4,2.3-0.9
							c0.9,0.4,1.2,1.4,0.7,2.4c-0.8,1.8-1.3,3.7-1.6,5.6c0,0.3,0,0.5,0.3,0.7c3.2,2.2,6.1,4.8,8.6,7.8c0.2,0.2,0.4,0.3,0.7,0.2
							c1.1-0.2,2.3-0.3,3.4-0.5c1-0.1,1.8,0.6,1.9,1.6c0.1,1-0.7,1.7-1.7,1.8c-0.5,0-1,0.1-1.6,0.1c0.1,0.2,0.2,0.4,0.3,0.5
							c1.9,2.7,3.5,5.5,4.8,8.5c0.1,0.3,0.4,0.5,0.7,0.6c0.9,0.3,1.8,0.6,2.7,0.8c1.1,0.3,1.6,1.2,1.4,2.1c-0.2,0.9-1.2,1.4-2.3,1.1
							c-0.2-0.1-0.4-0.1-0.7-0.2c2.2,6.8,2.8,13.6,2.1,20.7c1.3-0.1,2.5-0.2,3.8-0.3c1.1-0.1,1.9,0.6,2,1.5c0.1,1-0.6,1.7-1.5,1.8
							c-1.4,0.2-2.9,0.3-4.3,0.4c-0.3,0-0.5,0.1-0.5,0.4c-0.6,2.9-1.4,5.8-2.6,8.7c0.6,0.3,1.2,0.6,1.9,0.8c1,0.4,1.4,1.4,0.9,2.3
							c-0.4,0.8-1.2,1.1-2.1,0.8c-0.7-0.2-1.3-0.6-2.1-0.9c-0.1,0.1-0.2,0.3-0.2,0.5c-2.4,4.8-5.6,9.1-9.4,12.9
							c-0.2,0.2-0.3,0.5-0.3,0.8c0,1.2-0.9,2-2.1,1.8c-0.2,0-0.5,0-0.7,0.1c-3.8,3.2-8.1,5.7-12.7,7.6c0,0-0.1,0-0.1,0.2
							c0.2,0,0.4,0,0.6,0c3.3,0,6.6,0,9.8,0c1.1,0,1.9,0.6,1.9,1.6c0.1,1.1-0.7,1.8-1.8,1.8c-3,0-5.9,0-8.9,0c-16.1,0-32.2,0-48.3,0
							c-1.2,0-2-0.6-2-1.6c0-1.1,0.7-1.8,1.9-1.8c3.3,0,6.5,0,9.8,0c0.2,0,0.4,0,0.6,0c-5.9-2.5-11.1-6-15.7-10.4
							c-0.6,0.8-1.1,1.6-1.7,2.4c-0.7,0.9-1.7,1.1-2.5,0.5c-0.8-0.6-0.9-1.6-0.2-2.5c0.7-1,1.3-2,1.9-2.9 M711.8,306.7
							c1.2,0.4,2.3,0.8,3.4,1.1c3,0.8,6.1,1.1,9.2,1.3c1,0,1.7,0.8,1.7,1.7c0,1-0.8,1.7-1.8,1.6c-2-0.1-4.1-0.3-6.1-0.5
							c-2.8-0.4-5.5-1.1-8.1-2.3c-0.1,0.1-0.2,0.2-0.3,0.3c-1.4,2-3.1,3.8-4.9,5.5c-4.6,4.2-9.9,7.2-15.6,9.5
							c-0.4,0.1-0.6,0.3-0.6,0.7c-0.5,3.1-0.7,6.2-0.6,9.3c0,0.4,0.1,0.6,0.5,0.9c1.5,1.2,3,2.3,4.4,3.5c3.7,3.3,6.7,7.1,8.4,11.8
							c0,0.1,0.1,0.1,0.2,0.2c1.4-0.4,2.8-0.8,4.1-1.2c4.6-1.6,8.6-4.1,12.4-7c0.8-0.7,1.9-0.6,2.5,0.2c0.6,0.8,0.5,1.8-0.3,2.5
							c-4.2,3.3-8.7,6-13.7,7.7c-1.4,0.5-2.8,0.8-4.3,1.3c0,0.1,0,0.1,0,0.2c0.5,3.2,0,6.2-1.1,9.2c-0.2,0.5-0.1,0.8,0.3,1.1
							c10.2,9.8,22.4,14.2,36.6,12.9c9.2-0.9,17.2-4.5,24.3-10.3c0.4-0.3,0.4-0.5,0.2-0.9c-1.2-3-2-6.2-2-9.5c0-3.3,0.7-6.4,2.5-9.2
							c1.6-2.5,3.8-4.3,6.3-5.7c0.3-0.2,0.5-0.3,0.4-0.8c-0.2-1.2-0.3-2.4-0.3-3.5c-0.2-4,0.2-8,0.9-11.9c0.2-0.9,0.8-1.4,1.7-1.4
							c1.2,0,1.9,1,1.6,2.3c-0.7,3.7-0.9,7.4-0.8,11.1c0,0.8,0.1,1.6,0.2,2.4c1.6-0.4,3.2-0.8,4.7-1.2c0.1,0,0.3-0.2,0.3-0.4
							c0.1-0.7,0.2-1.4,0.2-2.2c0.6-6.7-0.4-13.3-2.7-19.6c-0.1-0.4-0.3-0.6-0.7-0.8c-3.3-1.3-6.4-2.9-9.2-5.1
							c-0.4-0.3-0.7-0.6-1.1-0.9c-0.1,0.2-0.2,0.4-0.2,0.6c-0.6,1.9-0.8,3.9-0.7,5.9c0.1,0.8-0.2,1.4-0.9,1.8
							c-1.1,0.6-2.4-0.2-2.5-1.6c-0.2-3.1,0.2-6,1.5-8.8c0.2-0.4,0.2-0.6-0.1-0.9c-2.8-3.5-4.2-7.5-4.3-12c0-0.4-0.2-0.6-0.5-0.8
							c-4.4-2.7-9.1-4.5-14-5.7c-1.2-0.3-2.1-0.2-3.1,0.7c-1,0.9-2.2,1.5-3.5,2.4c1.5,0.4,2.8,0.9,4.2,1.2c2.5,0.6,5,0.9,7.5,1
							c1.3,0.1,2.1,1,1.7,2.2c-0.2,0.8-0.9,1.3-1.9,1.2c-1.6-0.1-3.2-0.2-4.8-0.5c-3.7-0.5-7.2-1.5-10.4-3.3
							c-0.2-0.1-0.6-0.1-0.8-0.1c-2.3,0.7-4.7,1.1-7.2,1.2c-4,0.2-7.9-0.5-11.8-1.7c-0.3-0.1-0.7-0.1-0.9,0.1
							c-2.9,1.6-5.7,3.4-8.2,5.6c-0.1,0.1-0.3,0.3-0.4,0.4c1.4,2.4,3.3,4.2,5.6,5.6c0.2-0.5,0.4-0.9,0.7-1.3
							c0.5-0.9,1.4-1.2,2.2-0.8c0.9,0.4,1.2,1.4,0.8,2.4C712.3,305.7,712.1,306.1,711.8,306.7z M689.7,321c6.8-3.1,12.8-7,17.3-13
							c-2.6-1.6-4.6-3.6-6.3-6.1C695.5,307.3,691.8,313.6,689.7,321z M770.4,345.6c-2.5,1.5-4.4,3.3-5.6,6c-1.2,2.8-1.3,5.7-0.8,8.6
							c0.3,1.5,0.7,3,1.1,4.6c0.2-0.1,0.2-0.1,0.3-0.2c3.5-3.6,6.3-7.6,8.4-12c0.1-0.3,0.1-0.5-0.1-0.7c-1.1-1.2-1.9-2.6-2.5-4.1
							C770.9,347.1,770.7,346.4,770.4,345.6z M698,351.9c-2-5-5.4-8.5-9.3-11.8c0,0.2,0,0.3,0,0.3c0.6,3.8,1.7,7.5,3.3,11
							c0.1,0.1,0.2,0.3,0.4,0.3C694.1,351.8,696,351.9,698,351.9z M717.1,291c3.9,1,7.7,1.1,11.6,0.2c-0.7-0.9-1.4-1.7-2.1-2.5
							c-0.1-0.1-0.4-0.2-0.6-0.1c-2.1,0.5-4.1,0.9-6.2,1.5C718.8,290.3,718,290.7,717.1,291z M693.9,355.3c1.3,2.3,2.7,4.4,4.5,6.5
							c0.7-2.2,0.9-4.4,0.5-6.6c-0.8,0-1.6,0.1-2.4,0.1C695.6,355.3,694.8,355.3,693.9,355.3z M760.9,297.5c0,0-0.1,0.1-0.1,0.1
							c0,2,1.7,6.1,3,7.4c0.9-0.7,1.8-1.4,2.8-2.2C764.7,301,762.8,299.3,760.9,297.5z M766,307.5c2.1,1.9,4.4,3.4,6.9,4.5
							c0.1,0,0.1-0.1,0.2-0.1c-1.4-2.1-2.8-4.2-4.2-6.5C767.9,306.2,767,306.8,766,307.5z M777.2,343.1c-0.1-0.1-0.1-0.1-0.2-0.2
							c-1.1,0.3-2.2,0.7-3.2,1c-0.1,0-0.2,0.3-0.2,0.5c0.2,0.7,0.5,1.4,0.8,2.1c0.3,0.7,0.7,1.3,1,2c0.1,0,0.1,0,0.2,0
							C776.2,346.8,776.7,344.9,777.2,343.1z M730.5,288.1c0,0.1-0.1,0.1-0.1,0.2c0.6,0.5,1.2,1,1.8,1.5c0.1,0.1,0.3,0.1,0.4,0.1
							c1.1-0.5,2.1-1.1,3.2-1.6c0-0.1,0-0.1-0.1-0.2C734,288.1,732.3,288.1,730.5,288.1z"/>
						<path class="st5" d="M749.7,339.2c-0.5,0.6-1,1-1.4,1.5c-2,2.3-3.2,4.9-3.2,8c0,0.7,0.1,1.5,0.2,2.2c0.1,0.8-0.1,1.4-0.8,1.9
							c-0.6,0.4-1.2,0.4-1.8,0c-0.4-0.3-0.7-0.7-0.8-1.2c-0.8-4.3,0.2-8.2,2.7-11.7c1.1-1.5,2.4-2.8,3.7-4.2c-1.3-2.6-3.2-5-5.5-7.2
							c-1.2,1.3-2.4,2.6-3.7,3.9c-0.5,0.5-1,1-1.6,1.4c-0.8,0.6-1.8,0.6-2.4-0.2c-0.6-0.7-0.5-1.8,0.3-2.4c1.8-1.5,3.4-3.1,4.8-5
							c-0.2-0.1-0.3-0.3-0.5-0.4c-1.6-1-3.2-2.1-4.9-3.1c-0.9-0.5-1.3-1.5-0.8-2.4c0.4-0.8,1.5-1.2,2.3-0.7c1.7,1,3.4,2.1,5.1,3.2
							c0.2,0.1,0.4,0.3,0.6,0.4c0.2-0.3,0.3-0.5,0.4-0.8c1.2-2.4,2-5,2.5-7.6c0.1-0.4,0-0.6-0.3-0.8c-4.4-3.4-6.7-7.9-6.8-13.5
							c0-1.4,1.2-2.2,2.4-1.7c0.7,0.3,1,0.9,1,1.7c-0.1,3.6,1.2,6.7,3.7,9.3c0.1,0.1,0.3,0.3,0.6,0.4c-0.1-1.3-0.2-2.6-0.2-3.9
							c0-0.3-0.1-0.6-0.1-0.9c-0.2-1,0.4-1.8,1.3-2c1-0.2,1.9,0.4,2,1.4c0.2,2,0.2,4,0.4,6c0,0,0,0,0,0.1c-0.1,1.9-0.1,1.9,1.6,2.6
							c0.9,0.4,1.9,0.7,2.9,1c1,0.3,1.6,1.2,1.3,2.1c-0.3,1-1.2,1.5-2.2,1.2c-1.4-0.4-2.8-0.9-4.2-1.4c-0.1,0.5-0.3,1.1-0.4,1.7
							c-0.7,2.5-1.6,4.9-2.9,7.1c-0.1,0.2-0.3,0.4,0,0.7c2.5,2.3,4.6,4.9,6.2,7.9c0,0,0.1,0,0.1,0.1c1-0.5,1.9-1.1,2.9-1.5
							c1.3-0.6,2.7-1.2,4-1.7c1-0.4,2,0,2.3,0.9c0.4,0.9-0.1,1.8-1.1,2.3c-2.1,1-4.2,2-6.3,3c-0.4,0.2-0.5,0.4-0.3,0.8
							c1,2.9,1.3,5.8,1.1,8.8c-0.1,1.1-0.8,1.8-1.8,1.7c-1-0.1-1.6-0.8-1.6-1.9c0.1-2.1-0.1-4.1-0.6-6.2
							C749.9,339.7,749.8,339.5,749.7,339.2z"/>
						<path class="st5" d="M710,330.6c1.7,0.6,3.3,1,5,1.2c4.2,0.6,8.2,0.1,12.2-1.1c0.4-0.1,0.8-0.2,1.2-0.2c0.8,0,1.4,0.7,1.5,1.5
							c0.1,0.8-0.4,1.6-1.2,1.8c-2,0.5-4,1.1-6,1.4c-4.6,0.7-9.1,0.3-13.5-1.2c-0.1,0-0.2,0-0.3-0.1c-0.3,2.1-0.2,4.2,0.4,6.3
							c0.1,0.5,0.3,1,0.5,1.5c0.3,1-0.1,1.9-1,2.2c-0.9,0.3-1.8-0.1-2.2-1.1c-1.1-3.1-1.5-6.4-1-9.7c0.1-0.5,0-0.7-0.4-1
							c-2.1-1.1-4-2.4-5.7-4.1c-0.5-0.5-0.8-1-0.6-1.6c0.1-0.7,0.5-1.1,1.1-1.3c0.7-0.2,1.3-0.1,1.8,0.4c1.3,1.4,2.9,2.5,4.6,3.4
							c0.1,0.1,0.2,0.1,0.3,0.2c0.6-1,1.1-2,1.8-2.9c2.1-3,4.9-5.1,8.2-6.7c0.9-0.4,1.9,0,2.3,0.8c0.4,0.9,0.1,1.8-0.8,2.3
							c-2,1-3.9,2.2-5.4,3.8c-0.9,1.1-1.7,2.3-2.5,3.5C710.2,330.1,710.1,330.3,710,330.6z"/>
						<path class="st5" d="M731.9,367c-1.3-3.5-0.9-6.9,0.5-10.2c0.1-0.2,0.2-0.4,0.3-0.6c0.5-0.9,1.4-1.3,2.3-0.8
							c0.9,0.4,1.2,1.4,0.8,2.3c-0.7,1.6-1.2,3.3-1.2,5c0,1.5,0.3,3,1.1,4.3c0.2,0.3,0.4,0.4,0.8,0.4c3.5-0.1,6.9-0.9,10.2-2.1
							c0.1,0,0.3-0.1,0.4-0.1c0.9-0.3,1.9,0.1,2.2,1c0.3,0.9-0.1,1.8-1,2.2c-2.5,1-5.1,1.7-7.7,2.1c-0.2,0-0.3,0.1-0.5,0.2
							c0.4,0.2,0.7,0.3,1.1,0.5c0.9,0.4,1.3,1.4,1,2.2c-0.4,0.9-1.3,1.3-2.3,0.9c-1.9-0.8-3.6-1.8-5.1-3.2c-0.2-0.2-0.5-0.3-0.8-0.3
							c-7.6-0.7-13.6-4.2-18-10.4c-0.2-0.2-0.3-0.5-0.4-0.7c-0.5-0.9-0.3-1.9,0.6-2.4c0.8-0.5,1.8-0.2,2.3,0.7c0.9,1.5,2,2.8,3.3,4
							c2.8,2.6,6,4.3,9.7,5.1C731.4,367,731.6,367,731.9,367z"/>
					</g>
				</g>
			</g>
		</g>
	</g>
</g>
<g id="halftone">
</g>
</svg>
