<?xml version="1.0" encoding="utf-8"?>
<!-- Generator: Adobe Illustrator 27.3.1, SVG Export Plug-In . SVG Version: 6.00 Build 0)  -->
<svg version="1.1" xmlns="http://www.w3.org/2000/svg" xmlns:xlink="http://www.w3.org/1999/xlink" x="0px" y="0px"
	 viewBox="0 0 900 900" style="enable-background:new 0 0 900 900;" xml:space="preserve">
<style type="text/css">
	.st0{display:none;}
	.st1{display:inline;opacity:0.28;}
	.st2{fill:none;stroke:#000000;stroke-width:0.75;stroke-miterlimit:10;}
	.st3{fill:none;stroke:#000000;stroke-width:4;stroke-linecap:round;stroke-linejoin:round;stroke-miterlimit:10;}
	.st4{fill:#FCCF72;stroke:#1A2276;stroke-width:6;stroke-miterlimit:10;}
	.st5{fill:#1A2276;}
	.st6{fill:#EBEAD8;}
	.st7{fill:#ED8376;stroke:#E90302;stroke-width:17;stroke-linecap:round;stroke-linejoin:round;stroke-miterlimit:10;}
	.st8{fill:#E90302;}
	.st9{fill:#FCCF72;}
	.st10{fill:#8288A8;}
	.st11{fill:#EBEAD8;stroke:#1A2276;stroke-width:6;stroke-miterlimit:10;}
	.st12{fill:none;stroke:#1A2276;stroke-width:6;stroke-miterlimit:10;}
	.st13{fill:#E90302;stroke:#1A2276;stroke-width:6;stroke-miterlimit:10;}
	.st14{fill:#EBBFAF;}
	
		.st15{clip-path:url(#SVGID_00000032607639563647958450000012249850646635997576_);fill:#FCCF72;stroke:#1A2276;stroke-width:6;stroke-miterlimit:10;}
	
		.st16{clip-path:url(#SVGID_00000051371215296673181930000002881929471518238101_);fill:#FCCF72;stroke:#1A2276;stroke-width:6;stroke-miterlimit:10;}
	
		.st17{clip-path:url(#SVGID_00000045577030227745816310000004546700510569414287_);fill:#FCCF72;stroke:#1A2276;stroke-width:6;stroke-miterlimit:10;}
	
		.st18{clip-path:url(#SVGID_00000055704422423648156310000017451141959214774157_);fill:#FCCF72;stroke:#1A2276;stroke-width:6;stroke-miterlimit:10;}
	
		.st19{clip-path:url(#SVGID_00000168076239463477583590000002204774713526340785_);fill:#FCCF72;stroke:#1A2276;stroke-width:6;stroke-miterlimit:10;}
	.st20{fill:#FFFFFF;}
	
		.st21{clip-path:url(#SVGID_00000024697086761505357930000006104407125136350380_);fill:#FCCF72;stroke:#1A2276;stroke-width:6;stroke-miterlimit:10;}
	.st22{fill:none;stroke:#1A2276;stroke-width:6;stroke-linecap:round;stroke-miterlimit:10;}
	
		.st23{clip-path:url(#SVGID_00000027586940939201175500000008055735681586696327_);fill:#FCCF72;stroke:#1A2276;stroke-width:6;stroke-miterlimit:10;}
	
		.st24{clip-path:url(#SVGID_00000161616055793228854100000004946789316090638269_);fill:#FCCF72;stroke:#1A2276;stroke-width:6;stroke-miterlimit:10;}
	
		.st25{clip-path:url(#SVGID_00000165948185217303453210000004324378095755919806_);fill:#FCCF72;stroke:#1A2276;stroke-width:6;stroke-miterlimit:10;}
	
		.st26{clip-path:url(#SVGID_00000103229448997984183640000009850062715368900262_);fill:#FCCF72;stroke:#1A2276;stroke-width:6;stroke-miterlimit:10;}
	
		.st27{clip-path:url(#SVGID_00000090982995448705725840000009618563205556951430_);fill:#FCCF72;stroke:#1A2276;stroke-width:6;stroke-miterlimit:10;}
	
		.st28{clip-path:url(#SVGID_00000067208567237426853580000012414287479507708340_);fill:#FCCF72;stroke:#1A2276;stroke-width:6;stroke-miterlimit:10;}
	.st29{fill:none;stroke:#000000;stroke-width:4;stroke-miterlimit:10;}
	.st30{fill:#FCCF72;stroke:#000000;stroke-width:4;stroke-miterlimit:10;}
	.st31{fill:none;stroke:#000000;stroke-width:5;stroke-linecap:round;stroke-miterlimit:10;}
	
		.st32{clip-path:url(#SVGID_00000091719528928454251710000016778588444074041996_);fill:#FCCF72;stroke:#1A2276;stroke-width:6;stroke-miterlimit:10;}
	
		.st33{clip-path:url(#SVGID_00000044899721830261679200000015330088426586757773_);fill:#FCCF72;stroke:#1A2276;stroke-width:6;stroke-miterlimit:10;}
	
		.st34{clip-path:url(#SVGID_00000021078922028300663000000011097012400773955487_);fill:#FCCF72;stroke:#1A2276;stroke-width:6;stroke-miterlimit:10;}
	
		.st35{clip-path:url(#SVGID_00000023978531216052483700000003440546230251674510_);fill:#FCCF72;stroke:#1A2276;stroke-width:6;stroke-miterlimit:10;}
	.st36{fill:#E90302;stroke:#EBBFAF;stroke-width:6;stroke-miterlimit:10;}
	.st37{clip-path:url(#SVGID_00000125583328263442768990000012734026845608959418_);fill:#FCCF72;}
	.st38{clip-path:url(#SVGID_00000125583328263442768990000012734026845608959418_);fill:#1A2276;}
	.st39{clip-path:url(#SVGID_00000122696933568657942350000013572315882375980455_);fill:#8288A8;}
	.st40{fill:#020202;}
	.st41{clip-path:url(#SVGID_00000164512784427155439500000016600172528708855430_);}
	.st42{fill:#EBEAD8;stroke:#1A2276;stroke-width:3;stroke-miterlimit:10;}
	.st43{fill:#8288A8;stroke:#8288A8;stroke-miterlimit:10;}
	.st44{fill:#1A2276;stroke:#FCCF72;stroke-width:6;stroke-miterlimit:10;}
	.st45{fill:none;stroke:#EBEAD8;stroke-width:6;stroke-miterlimit:10;}
	.st46{fill:#8288A8;stroke:#1A2276;stroke-width:6;stroke-miterlimit:10;}
	.st47{fill:#FCCF72;stroke:#8288A8;stroke-width:6;stroke-miterlimit:10;}
	.st48{clip-path:url(#SVGID_00000133491884797480027190000012832977852260623260_);}
	.st49{fill:none;}
	.st50{font-family:'Aptly-Bold';}
	.st51{font-size:40.1137px;}
	.st52{letter-spacing:4;}
	.st53{font-size:99.3693px;}
	.st54{fill:#ED8376;}
	.st55{fill:url(#);}
	.st56{fill:#1A2276;stroke:url(#);stroke-miterlimit:10;}
	.st57{fill:#ED8376;stroke:#E90302;stroke-width:6;stroke-linecap:round;stroke-linejoin:round;stroke-miterlimit:10;}
	.st58{fill:none;stroke:#E90302;stroke-width:6;stroke-linecap:round;stroke-linejoin:round;stroke-miterlimit:10;}
	.st59{fill:none;stroke:#E90302;stroke-width:5;stroke-linecap:round;stroke-linejoin:round;stroke-miterlimit:10;}
	.st60{fill:#FFFFFF;stroke:#000000;stroke-width:6;stroke-miterlimit:10;}
	.st61{fill:#FFFDFD;stroke:#1A2276;stroke-width:7;stroke-miterlimit:10;}
	
		.st62{clip-path:url(#SVGID_00000105420492155224787840000005262943665226177708_);fill:#FCCF72;stroke:#1A2276;stroke-width:6;stroke-miterlimit:10;}
	
		.st63{clip-path:url(#SVGID_00000125573281184019297040000016965333083696857478_);fill:#FCCF72;stroke:#1A2276;stroke-width:6;stroke-miterlimit:10;}
	.st64{fill:none;stroke:#E90302;stroke-width:6;stroke-linecap:round;stroke-miterlimit:10;}
	
		.st65{clip-path:url(#SVGID_00000058550897903139046400000004828060574354948506_);fill:#FCCF72;stroke:#1A2276;stroke-width:6;stroke-miterlimit:10;}
	
		.st66{clip-path:url(#SVGID_00000072993820594026638630000016853451783579315119_);fill:#FCCF72;stroke:#1A2276;stroke-width:6;stroke-miterlimit:10;}
	
		.st67{clip-path:url(#SVGID_00000129924172802206715500000000277428936815056299_);fill:#FCCF72;stroke:#1A2276;stroke-width:6;stroke-miterlimit:10;}
	.st68{fill:none;stroke:#1A2276;stroke-width:7;stroke-miterlimit:10;}
	
		.st69{clip-path:url(#SVGID_00000043426200427812436870000001260586284821166727_);fill:#FCCF72;stroke:#1A2276;stroke-width:6;stroke-miterlimit:10;}
	.st70{clip-path:url(#SVGID_00000015343821944438150120000007147470144050113468_);}
	
		.st71{clip-path:url(#SVGID_00000181803088711846152030000007016703602024865964_);fill:#FCCF72;stroke:#1A2276;stroke-width:6;stroke-miterlimit:10;}
	
		.st72{clip-path:url(#SVGID_00000044167945875024008410000008455117028561399694_);fill:#FCCF72;stroke:#1A2276;stroke-width:6;stroke-miterlimit:10;}
	
		.st73{clip-path:url(#SVGID_00000048490594319455986770000004994803088400308133_);fill:#FCCF72;stroke:#1A2276;stroke-width:6;stroke-miterlimit:10;}
	.st74{clip-path:url(#SVGID_00000027603892931699879750000007743345883266946952_);}
	.st75{clip-path:url(#SVGID_00000036964843325347208530000016944094580274112688_);}
	.st76{clip-path:url(#SVGID_00000055706405724291651450000001415877164613344934_);}
	.st77{opacity:0.5;}
	.st78{clip-path:url(#SVGID_00000181796333079940940200000007983404318652738716_);}
	.st79{clip-path:url(#SVGID_00000150797314898857830350000007640768217490978703_);}
	.st80{fill:#FFFDFD;}
	.st81{clip-path:url(#SVGID_00000163784896403640786890000014089259290352929431_);}
	.st82{opacity:0.8;}
	
		.st83{clip-path:url(#SVGID_00000171719039890623753170000008627740516179483583_);fill:#FCCF72;stroke:#1A2276;stroke-width:6;stroke-miterlimit:10;}
	
		.st84{clip-path:url(#SVGID_00000165923102585277362930000006776931201036090517_);fill:#FCCF72;stroke:#1A2276;stroke-width:6;stroke-miterlimit:10;}
	.st85{clip-path:url(#SVGID_00000012462242720641390040000014669410397498504083_);}
	.st86{clip-path:url(#SVGID_00000176742655065117078640000006714560003373090458_);}
	.st87{clip-path:url(#SVGID_00000011740382829076571620000010791756809344573874_);}
	.st88{clip-path:url(#SVGID_00000083066721025484610520000006796352274963537542_);}
	.st89{clip-path:url(#SVGID_00000049936541350429249330000002063586970775921311_);}
	.st90{fill:none;stroke:#1A2276;stroke-width:19;stroke-miterlimit:10;}
	.st91{clip-path:url(#SVGID_00000138538118787095111760000008291600546947477400_);}
	.st92{fill:none;stroke:#1A2276;stroke-width:10;stroke-miterlimit:10;}
	.st93{clip-path:url(#SVGID_00000027564723169147862720000005115853224496699317_);}
	.st94{clip-path:url(#SVGID_00000088816496586027918130000015003837035971764873_);fill:#FCCF72;}
	.st95{clip-path:url(#SVGID_00000088816496586027918130000015003837035971764873_);fill:#1A2276;}
	.st96{clip-path:url(#SVGID_00000165213777513973345590000009917538830870749572_);}
	.st97{clip-path:url(#SVGID_00000024680432388038522670000018220643036517048716_);}
	.st98{clip-path:url(#SVGID_00000024680432388038522670000018220643036517048716_);fill:none;}
	.st99{clip-path:url(#SVGID_00000178916870781489383660000001799458912674181564_);fill:#8288A8;}
	.st100{clip-path:url(#SVGID_00000178916870781489383660000001799458912674181564_);fill:#FCCF72;}
	.st101{fill:#FFFFFF;stroke:#FFFFFF;stroke-width:6;stroke-miterlimit:10;}
	.st102{fill:none;stroke:#8288A8;stroke-width:6;stroke-miterlimit:10;}
	.st103{clip-path:url(#SVGID_00000065757758972797940250000017890457304033433273_);}
	.st104{clip-path:url(#SVGID_00000021084276551317176710000008273005612541778601_);}
	.st105{clip-path:url(#SVGID_00000039107410136884177320000004596454019318367394_);}
	.st106{clip-path:url(#SVGID_00000043458923621861485010000005516078959483091109_);}
	.st107{clip-path:url(#SVGID_00000005975013933819016000000001092635464004285317_);}
	.st108{fill:#EBEAD8;stroke:#1A2276;stroke-width:12;stroke-miterlimit:10;}
	.st109{fill:none;stroke:#1A2276;stroke-width:12;stroke-miterlimit:10;}
	.st110{clip-path:url(#SVGID_00000098923556794247431910000008103003286186693778_);}
	.st111{clip-path:url(#SVGID_00000080885715223756245890000016475293753695816323_);}
	.st112{clip-path:url(#SVGID_00000175321200361107427100000010938215456198569895_);}
	.st113{clip-path:url(#SVGID_00000129890035351404291500000010367192646308373386_);}
	.st114{clip-path:url(#SVGID_00000132800924014501087320000000607261699721749394_);}
	.st115{clip-path:url(#SVGID_00000156567497896436310750000012761161687457555619_);fill:#8288A8;}
	.st116{clip-path:url(#SVGID_00000156567497896436310750000012761161687457555619_);fill:#FCCF72;}
	.st117{clip-path:url(#SVGID_00000152970009342045373740000006120511511639968912_);}
	.st118{clip-path:url(#SVGID_00000085971352517833692760000010759908804382033539_);fill:#E90302;}
	.st119{clip-path:url(#SVGID_00000114762555677273417030000006246436429035859336_);fill:none;}
	.st120{clip-path:url(#SVGID_00000039113632578822551160000009661376950702408602_);}
	.st121{clip-path:url(#SVGID_00000163765288927392551300000005468542918862742201_);}
	.st122{clip-path:url(#SVGID_00000170966934343282741690000006182077862919566252_);}
	.st123{clip-path:url(#SVGID_00000097497353735382473020000009644488166601979309_);}
	.st124{clip-path:url(#SVGID_00000091717853549964590380000009043129440404880574_);}
	.st125{clip-path:url(#SVGID_00000083081880355702735490000001550203281492738953_);}
	.st126{clip-path:url(#SVGID_00000109750989668938743200000001575145084513310080_);}
	.st127{clip-path:url(#SVGID_00000154403688856880773790000013309603720924569220_);}
	.st128{clip-path:url(#SVGID_00000103961329474270016360000008187999930185023621_);}
	.st129{clip-path:url(#SVGID_00000056424170287515153770000014873263332521161370_);}
	.st130{clip-path:url(#SVGID_00000181062091144327737780000000305260713361446326_);}
	.st131{clip-path:url(#SVGID_00000009585148248392652770000011058945182319151771_);}
	.st132{clip-path:url(#SVGID_00000150814080686568242160000005963786211853175214_);fill:#EBEAD8;}
	.st133{clip-path:url(#SVGID_00000150814080686568242160000005963786211853175214_);}
	.st134{clip-path:url(#SVGID_00000011008641368833883290000011109218358383246768_);}
	.st135{clip-path:url(#SVGID_00000147183402601554081230000003771687759533490607_);}
	.st136{clip-path:url(#SVGID_00000004531032590694427080000011306801058519394463_);}
	.st137{clip-path:url(#SVGID_00000140006106379819927840000003180216097108484795_);}
	.st138{clip-path:url(#SVGID_00000018222374874900049850000007471577827634298266_);}
	.st139{fill:#ED8376;stroke:#1A2276;stroke-width:6;stroke-miterlimit:10;}
	.st140{fill:url(#);stroke:#1A2276;stroke-width:6;stroke-miterlimit:10;}
	.st141{clip-path:url(#SVGID_00000028319293296169891310000000956169272301475233_);}
	.st142{font-size:28px;}
	.st143{font-family:'Aptly';}
	.st144{font-size:70.9205px;}
	
		.st145{clip-path:url(#SVGID_00000104707112266831315880000010270456711758425754_);fill:#FCCF72;stroke:#1A2276;stroke-width:6;stroke-miterlimit:10;}
	.st146{fill:none;stroke:#FCCF72;stroke-width:6;stroke-linecap:round;stroke-miterlimit:10;}
	.st147{clip-path:url(#SVGID_00000066513628112675109210000016689930509567081603_);}
</style>
<g id="guias" class="st0">
</g>
<g id="Layer_2">
</g>
<g id="Layer_1">
	<rect x="-0.5" y="2" class="st6" width="899" height="896"/>
	<g>
		<polygon class="st7" points="223.2,67.4 221.2,98.4 239.5,123.9 218.1,146 216.1,177 185.4,179.8 164,201.9 138.3,184.1 
			107.5,186.9 98.8,156.8 73.1,139 85.5,110.8 76.9,80.7 104.6,67.5 117.1,39.2 147.1,47.2 174.8,34 193.2,59.4 		"/>
		<g>
			<g>
				<path class="st6" d="M144.8,161.9c0-4.7,3.8-8.5,8.5-8.5c4.7,0,8.5,3.8,8.5,8.5v5.3h4.6c4.7,0,8.5,3.8,8.5,8.5s-3.8,8.5-8.5,8.5
					h-12.8c-4,0-7.3-2.7-8.3-6.4c-0.4-1-0.6-2-0.6-3.2V161.9z"/>
				<path class="st5" d="M166.4,185.4h-12.8c-4.4,0-8.2-2.9-9.3-7.2c-0.4-1.1-0.7-2.3-0.7-3.5v-12.8c0-5.3,4.3-9.6,9.6-9.6
					c5.3,0,9.6,4.3,9.6,9.6v4.3h3.5c5.3,0,9.6,4.3,9.6,9.6C176,181.1,171.7,185.4,166.4,185.4z M153.3,154.5c-4.1,0-7.4,3.3-7.4,7.4
					v12.8c0,1,0.2,1.9,0.5,2.8l0,0.1c0.8,3.3,3.8,5.6,7.2,5.6h12.8c4.1,0,7.4-3.3,7.4-7.4c0-4.1-3.3-7.4-7.4-7.4h-5.7v-6.4
					C160.8,157.8,157.4,154.5,153.3,154.5z"/>
			</g>
			<g>
				<line class="st6" x1="174.9" y1="177.7" x2="145.5" y2="177.7"/>
				<rect x="145.5" y="176.7" class="st5" width="29.4" height="2.1"/>
			</g>
			<g>
				<line class="st6" x1="161.8" y1="167.3" x2="157.4" y2="173.1"/>
				
					<rect x="155.9" y="169.1" transform="matrix(0.6034 -0.7974 0.7974 0.6034 -72.435 194.7762)" class="st5" width="7.3" height="2.1"/>
			</g>
			<g>
				<line class="st6" x1="166.1" y1="168" x2="161.6" y2="173.9"/>
				
					<rect x="160.2" y="169.9" transform="matrix(0.6034 -0.7974 0.7974 0.6034 -71.3127 198.4516)" class="st5" width="7.3" height="2.1"/>
			</g>
			<g>
				<line class="st6" x1="170.3" y1="168.7" x2="165.9" y2="174.6"/>
				
					<rect x="164.4" y="170.6" transform="matrix(0.6034 -0.7974 0.7974 0.6034 -70.1905 202.127)" class="st5" width="7.3" height="2.1"/>
			</g>
			<g>
				<circle class="st6" cx="152.4" cy="168.2" r="3.5"/>
				<path class="st5" d="M152.4,172.8c-2.5,0-4.6-2.1-4.6-4.6c0-2.5,2.1-4.6,4.6-4.6s4.6,2.1,4.6,4.6
					C157,170.7,155,172.8,152.4,172.8z M152.4,165.7c-1.4,0-2.5,1.1-2.5,2.5s1.1,2.5,2.5,2.5s2.5-1.1,2.5-2.5
					S153.8,165.7,152.4,165.7z"/>
			</g>
			<g>
				<g>
					<path class="st6" d="M112.2,161.9c0-4.7,3.8-8.5,8.5-8.5s8.5,3.8,8.5,8.5v5.3h4.6c4.7,0,8.5,3.8,8.5,8.5s-3.8,8.5-8.5,8.5H121
						c-4,0-7.3-2.7-8.3-6.4c-0.4-1-0.6-2-0.6-3.2V161.9z"/>
					<path class="st5" d="M133.8,185.4H121c-4.4,0-8.2-2.9-9.3-7.2c-0.4-1.1-0.7-2.3-0.7-3.5v-12.8c0-5.3,4.3-9.6,9.6-9.6
						c5.3,0,9.6,4.3,9.6,9.6v4.3h3.5c5.3,0,9.6,4.3,9.6,9.6C143.4,181.1,139.1,185.4,133.8,185.4z M120.7,154.5
						c-4.1,0-7.4,3.3-7.4,7.4v12.8c0,1,0.2,1.9,0.5,2.8l0,0.1c0.8,3.3,3.8,5.6,7.2,5.6h12.8c4.1,0,7.4-3.3,7.4-7.4
						c0-4.1-3.3-7.4-7.4-7.4h-5.7v-6.4C128.1,157.8,124.8,154.5,120.7,154.5z"/>
				</g>
				<g>
					<line class="st6" x1="142.3" y1="177.7" x2="112.9" y2="177.7"/>
					<rect x="112.9" y="176.7" class="st5" width="29.4" height="2.1"/>
				</g>
				<g>
					<line class="st6" x1="129.2" y1="167.3" x2="124.8" y2="173.1"/>
					
						<rect x="123.3" y="169.1" transform="matrix(0.6034 -0.7974 0.7974 0.6034 -85.3759 168.7549)" class="st5" width="7.3" height="2.1"/>
				</g>
				<g>
					<line class="st6" x1="133.5" y1="168" x2="129" y2="173.9"/>
					
						<rect x="127.6" y="169.9" transform="matrix(0.6034 -0.7974 0.7974 0.6034 -84.2536 172.4303)" class="st5" width="7.3" height="2.1"/>
				</g>
				<g>
					<line class="st6" x1="137.7" y1="168.7" x2="133.3" y2="174.6"/>
					
						<rect x="131.8" y="170.6" transform="matrix(0.6034 -0.7974 0.7974 0.6034 -83.1313 176.1057)" class="st5" width="7.3" height="2.1"/>
				</g>
				<g>
					<circle class="st6" cx="119.8" cy="168.2" r="3.5"/>
					<path class="st5" d="M119.8,172.8c-2.5,0-4.6-2.1-4.6-4.6c0-2.5,2.1-4.6,4.6-4.6s4.6,2.1,4.6,4.6
						C124.4,170.7,122.3,172.8,119.8,172.8z M119.8,165.7c-1.4,0-2.5,1.1-2.5,2.5s1.1,2.5,2.5,2.5c1.4,0,2.5-1.1,2.5-2.5
						S121.2,165.7,119.8,165.7z"/>
				</g>
			</g>
			<g>
				<ellipse class="st6" cx="146.7" cy="125.4" rx="38.1" ry="29.8"/>
				<path class="st5" d="M146.7,156.3c-19.3,0-29,0-34-3.9c-5.2-4-5.2-11.7-5.2-26.9s0-22.9,5.2-26.9c5.1-3.9,14.7-3.9,34-3.9
					c19.3,0,29,0,34,3.7c5.2,3.8,5.2,11.1,5.2,25.5l0,1.6l0,1.6c0,14.4,0,21.7-5.2,25.5C175.7,156.3,166,156.3,146.7,156.3z
					 M146.7,96.7c-18.8,0-28.2,0-32.7,3.5c-4.4,3.4-4.4,10.7-4.4,25.2s0,21.8,4.4,25.2c4.5,3.5,13.9,3.5,32.7,3.5
					c18.8,0,28.3,0,32.7-3.3c4.3-3.2,4.3-10.1,4.3-23.8l0-1.6l0-1.6c0-13.7,0-20.6-4.3-23.8C175,96.7,165.6,96.7,146.7,96.7z"/>
			</g>
			<g>
				<path class="st8" d="M146.9,144.6c-38.8,0-38.3-12.2-38.3-11.5c0,27.8,0.2,27.8,38.1,27.8c37.3,0,38.1,0,38.1-27.8
					C184.9,132.4,185.1,144.6,146.9,144.6z"/>
				<path class="st5" d="M146.8,162c-19.2,0-28.9,0-33.9-3.7c-5.3-3.8-5.3-11.4-5.3-25.2h0c0-0.5,0.2-0.7,0.3-0.8l0.5-0.5l1.3,0.5
					v0.7c0.1,0.5,2,10.5,37.2,10.5c35.1,0,36.9-10.2,36.9-10.6l0.1-1l2,0.1l0,1c0,14.4-0.2,21.5-5.5,25.2
					C175.3,162,165.8,162,146.8,162z M109.7,137.1c0,10.8,0.5,16.6,4.4,19.4c4.5,3.3,13.9,3.3,32.7,3.3c18.5,0,27.8,0,32.4-3.3
					c4-2.8,4.6-8.5,4.6-19.5c-0.9,0.9-2.1,1.9-3.7,2.9c-6.6,3.8-17.8,5.7-33.1,5.7c-13.4,0-23.6-1.4-30.5-4.3
					C113.1,140,111,138.5,109.7,137.1z"/>
			</g>
			<g>
				<line class="st6" x1="180.2" y1="113.4" x2="124.7" y2="113.4"/>
				<rect x="124.7" y="112.3" class="st5" width="55.5" height="2.1"/>
			</g>
			<g>
				<line class="st6" x1="118.2" y1="112.7" x2="118.2" y2="119.7"/>
				<rect x="117.1" y="112.7" class="st5" width="2.1" height="7.1"/>
			</g>
			<g>
				<path class="st6" d="M172.9,123.8c0,0-1.6-4.6-6.5-3.8c-4.9,0.8-5.5,3.8-5.5,3.8"/>
				<path class="st5" d="M171.9,124.1c-0.1-0.2-1.4-3.8-5.4-3.1c-4,0.7-4.6,2.9-4.6,3l-2.1-0.4c0-0.2,0.7-3.7,6.3-4.7
					c4.6-0.8,7.1,2.6,7.7,4.5L171.9,124.1z"/>
			</g>
			<g>
				<path class="st6" d="M150.6,124.1c0,0-1.6-4.6-6.5-3.8c-4.9,0.8-5.5,3.8-5.5,3.8"/>
				<path class="st5" d="M149.6,124.5c-0.1-0.2-1.4-3.8-5.4-3.1c-4,0.7-4.6,2.9-4.6,3l-2.1-0.4c0-0.2,0.7-3.7,6.3-4.7
					c4.6-0.8,7.1,2.6,7.7,4.5L149.6,124.5z"/>
			</g>
			<g>
				<path class="st6" d="M162.8,128.3c0,0,1.3,5.3-4.4,6.1c-6,0.9-6.4-5.1-6.4-5.1"/>
				<path class="st5" d="M157.1,135.6c-1.5,0-2.8-0.4-3.8-1.3c-2.2-1.8-2.5-4.8-2.5-4.9l2.1-0.2c0,0,0.2,2.2,1.7,3.4
					c0.9,0.7,2,0.9,3.5,0.7c1.4-0.2,2.5-0.8,3-1.6c0.9-1.4,0.5-3.2,0.5-3.2l2.1-0.5c0,0.1,0.6,2.7-0.8,4.9c-0.9,1.4-2.4,2.2-4.5,2.5
					C158,135.6,157.6,135.6,157.1,135.6z"/>
			</g>
			<g>
				<path class="st6" d="M100.5,128.1c4.3-1.9,9.3,0.1,11.2,4.4l5.1,11.7c1.9,4.3-0.1,9.3-4.4,11.2c-4.3,1.9-9.3-0.1-11.2-4.4
					l-5.1-11.7C94.2,135,96.2,130,100.5,128.1z"/>
				<path class="st5" d="M109.1,157.2c-1.2,0-2.4-0.2-3.5-0.7c-2.4-0.9-4.3-2.7-5.3-5.1l-5.1-11.7c-2.1-4.8,0.1-10.5,4.9-12.6
					c2.3-1,4.9-1.1,7.3-0.1c2.4,0.9,4.3,2.7,5.3,5.1l5.1,11.7c1,2.3,1.1,4.9,0.1,7.3c-0.9,2.4-2.7,4.3-5.1,5.3
					C111.7,156.9,110.4,157.2,109.1,157.2z M103.9,128.5c-1,0-2,0.2-3,0.6c-1.8,0.8-3.2,2.3-3.9,4.1c-0.7,1.9-0.7,3.9,0.1,5.7
					l5.1,11.7c1.6,3.8,6,5.5,9.8,3.8c1.8-0.8,3.2-2.3,3.9-4.1c0.7-1.9,0.7-3.9-0.1-5.7l-5.1-11.7
					C109.5,130.1,106.8,128.5,103.9,128.5z"/>
			</g>
			<g>
				<circle class="st5" cx="116.1" cy="97.8" r="13.5"/>
			</g>
			<g>
				<circle class="st5" cx="160.1" cy="82.2" r="13.5"/>
			</g>
			<g>
				<ellipse class="st5" cx="139.9" cy="86.4" rx="24.5" ry="18.4"/>
			</g>
			<g>
				<ellipse class="st5" cx="168.3" cy="86.4" rx="24.5" ry="18.4"/>
			</g>
			<g>
				<g>
					<ellipse class="st6" cx="189.3" cy="116.2" rx="11.4" ry="9.6"/>
					<path class="st5" d="M189.3,126.8c-6.9,0-12.5-4.8-12.5-10.7s5.6-10.7,12.5-10.7c6.9,0,12.5,4.8,12.5,10.7
						S196.1,126.8,189.3,126.8z M189.3,107.6c-5.7,0-10.3,3.8-10.3,8.6c0,4.7,4.6,8.6,10.3,8.6c5.7,0,10.3-3.8,10.3-8.6
						C199.6,111.4,195,107.6,189.3,107.6z"/>
				</g>
				<g>
					<path class="st6" d="M202.8,86.2c-2.5-1.3-5.7-0.1-7.1,2.6c0,0.1-0.1,0.1-0.1,0.2l0,0l-3.8,7.6v-8.5h0c0-0.1,0-0.1,0-0.2
						c0-3.1-2.3-5.5-5.2-5.5s-5.2,2.5-5.2,5.5c0,0.1,0,0.1,0,0.2h0v15.3h8.6l7.9,4l6.9-13.7l0,0c0-0.1,0.1-0.1,0.1-0.2
						C206.3,90.8,205.3,87.5,202.8,86.2z"/>
					<path class="st5" d="M198.4,108.8l-8.6-4.3h-9.4V87h0.1c0.4-3.2,3-5.7,6.2-5.7s5.8,2.5,6.2,5.7h0l0,0.7c0,0.1,0,0.1,0,0.2
						c0,0,0,0,0,0.1l0,0.1v4.1l2.3-4.5l0,0c0.8-1.2,1.9-2.1,3.2-2.6c1.6-0.6,3.3-0.5,4.8,0.2c1.5,0.8,2.6,2.1,3.1,3.7
						c0.4,1.4,0.3,2.8-0.1,4.1l0,0l-0.3,0.6c0,0.1-0.1,0.1-0.1,0.2c0,0,0,0,0,0.1l-0.1,0.1L198.4,108.8z M182.5,102.3h7.8l7.2,3.6
						l5.9-11.7l0,0l0.5-1c0,0,0-0.1,0.1-0.1l0,0c0.5-1.1,0.7-2.3,0.3-3.4c-0.3-1.1-1-2-2-2.4c-1-0.5-2.1-0.5-3.1-0.1
						c-1.1,0.4-2,1.2-2.5,2.3l0,0c0,0,0,0.1,0,0.1l-0.5,1l0,0l-5.3,10.6v-12h0l0-1.3c0-2.5-1.8-4.5-4.1-4.5s-4.1,2-4.1,4.5l0,0.2
						l0,1.1h0V102.3z"/>
				</g>
				<g>
					<path class="st6" d="M190.4,109.9c-2.3,1.1-3.3,4.1-2.1,6.6c1.2,2.6,4.1,3.8,6.4,2.7c0,0,0.1-0.1,0.1-0.1l0,0l7.8-3.2
						c4.4-3.7,0.9-10.5-4.3-9.4l-7.8,3.2l0,0C190.5,109.9,190.5,109.9,190.4,109.9z"/>
					<path class="st5" d="M192.9,120.8c-2.3,0-4.5-1.4-5.6-3.8c-1.3-2.8-0.5-6,1.8-7.6l0-0.1l1-0.4l7.9-3.3l0.1,0
						c2.8-0.6,5.6,0.7,6.9,3.4c1.4,2.7,0.7,5.8-1.7,7.9l-0.1,0.1l-8,3.3c0,0,0,0-0.1,0c-0.2,0.1-0.3,0.1-0.5,0.2l-0.4,0.1l0,0
						C193.9,120.7,193.4,120.8,192.9,120.8z M190.4,109.9l0.4,1c-1.8,0.8-2.5,3.2-1.6,5.2c0.9,2.1,3.2,3.1,5,2.2l0.1-0.1l1-0.5
						l0,0.1l6.7-2.8c1.8-1.7,1.7-3.8,1-5.2c-0.7-1.3-2.2-2.7-4.5-2.3l-6.7,2.8l0,0l-1.1,0.5L190.4,109.9L190.4,109.9z"/>
				</g>
				<g>
					<path class="st6" d="M187.3,103.2c-2.8,1.3-4.1,4.4-2.9,7c1.2,2.6,4.4,3.7,7.2,2.4c0.1,0,0.1-0.1,0.2-0.1l0,0l9.3-3.9
						c5.3-4.2,1.8-10.9-4.3-9.4l-9.3,3.9l0,0C187.4,103.1,187.3,103.1,187.3,103.2z"/>
					<path class="st5" d="M189.2,114.2c-2.4,0-4.7-1.3-5.7-3.5c-0.7-1.5-0.7-3.2-0.1-4.8c0.5-1.3,1.5-2.4,2.7-3.2l0-0.1l1-0.4
						l9.4-3.9c3.8-1,6.5,0.9,7.6,3.1c1.4,2.8,0.4,6-2.4,8.2l-0.1,0.1l-9.4,4c0,0-0.1,0-0.1,0c-0.2,0.1-0.4,0.2-0.6,0.2l-0.3,0.1l0,0
						C190.5,114,189.8,114.2,189.2,114.2z M187.7,104.1c-1.1,0.5-1.9,1.4-2.4,2.4c-0.4,1-0.4,2.2,0,3.1c0.9,2.1,3.5,2.9,5.8,1.9
						l0.1-0.1l1-0.5l0,0.1l8.2-3.4c2.3-1.9,2.4-4,1.7-5.5c-0.7-1.3-2.4-2.7-5.1-2l-9.2,3.9C187.8,104.1,187.8,104.1,187.7,104.1
						L187.7,104.1z"/>
				</g>
				<g>
					<path class="st6" d="M181.9,103.5c-2.4-0.9-5.2,0.6-6.2,3.3s0.2,5.6,2.6,6.4c0.1,0,0.1,0,0.2,0l0,0l7.8,3.2
						c5.7,0.4,8-6.9,3.5-9.7l-7.8-3.2l0,0C182,103.5,182,103.5,181.9,103.5z"/>
					<path class="st5" d="M186.8,117.5c-0.2,0-0.4,0-0.5,0l-0.2,0l-8-3.3c0,0-0.1,0-0.1,0c-0.2-0.1-0.3-0.1-0.5-0.2l-0.3-0.1l0,0
						c-2.4-1.4-3.5-4.5-2.5-7.5c0.6-1.5,1.6-2.8,3-3.5c1.1-0.6,2.4-0.8,3.6-0.6l0-0.1l1,0.4l7.9,3.2l0.1,0c2.4,1.5,3.5,4.5,2.5,7.2
						C192.1,115.8,189.7,117.5,186.8,117.5z M186.6,115.4c2.5,0.1,3.9-1.5,4.4-3c0.5-1.4,0.3-3.5-1.6-4.7l-7.7-3.2c0,0-0.1,0-0.1,0
						l0,0c-0.9-0.3-1.9-0.2-2.8,0.2c-0.9,0.5-1.6,1.3-2,2.4c-0.8,2.1,0.1,4.4,2,5.1l0.1,0l1,0.3l0,0.1L186.6,115.4z"/>
				</g>
			</g>
		</g>
	</g>
	<g>
		<g>
			<polygon class="st8" points="827.1,410.6 69,463.4 69,396.7 827.1,343.8 			"/>
		</g>
		<text transform="matrix(1 -6.972903e-02 0 1 114.3905 443.6202)" class="st6 st50 st51 st52">INCREÍBLE · FANTÁSTICA · APOTEÓSICA</text>
	</g>
	<g>
		<polygon class="st5" points="64,158 832.1,104.4 832.1,331.7 64,385.2 		"/>
		<path class="st6" d="M827.1,109.8V327L69,379.8V162.6L827.1,109.8 M837.1,99.1l-10.7,0.7L68.3,152.7l-9.3,0.6v9.3v217.2v10.7
			l10.7-0.7L827.8,337l9.3-0.6V327V109.8V99.1L837.1,99.1z"/>
	</g>
	<g>
		<text transform="matrix(1 -6.972903e-02 0 1 110.7223 322.4152)" class="st10 st50 st53">Usa las métricas</text>
		<text transform="matrix(1 -6.972903e-02 0 1 114.7808 313.3441)" class="st5 st50 st53">Usa las métricas</text>
		<text transform="matrix(1 -6.972903e-02 0 1 122.8667 304.0576)" class="st6 st50 st53">Usa las métricas</text>
	</g>
</g>
<g id="web">
	<rect x="89.9" y="515.9" class="st49" width="323.6" height="368.3"/>
	<text transform="matrix(1 0 0 1 89.9229 538.9644)"><tspan x="0" y="0" class="st50 st142">Usa las métricas</tspan><tspan x="0" y="33.6" class="st143 st142">Aunque tu web sea buenísima, </tspan><tspan x="0" y="67.2" class="st143 st142">siempre habrá aspectos que </tspan><tspan x="0" y="100.8" class="st143 st142">mejorar. Tendrás competi</tspan><tspan x="270.3" y="100.8" class="st143 st142">-</tspan><tspan x="0" y="134.4" class="st143 st142">dores y querrás hacerle igual </tspan><tspan x="0" y="168" class="st143 st142">o mejor de bien. Mide (sin ob</tspan><tspan x="304.1" y="168" class="st143 st142">-</tspan><tspan x="0" y="201.6" class="st143 st142">sesionarte) qué funciona y </tspan><tspan x="0" y="235.2" class="st143 st142">qué no funciona en tu web. </tspan><tspan x="0" y="268.8" class="st143 st142">Seguro que se te ocurren </tspan><tspan x="0" y="302.4" class="st143 st142">ideas para hacerlo aún mejor.</tspan></text>
	<g>
		<g>
			<path class="st5" d="M224,499.4c-6.7,0-12-5.3-12-12v-15.8c0-8.9,4-17.2,11.1-22.8l2.8-2.2c2.4-1.8,5.2-3.5,8.6-3.5
				c6.7,0,12.4,5.6,12.4,12.2c0,3.9-1.7,7.3-4.8,9.7l-2.5,1.9c-0.1,0.1-0.3,0.2-0.4,0.4l0.9,0.5c4.5,2.4,7.3,5.1,7.3,11.3v8.5
				c0,6.7-5.3,12-12,12H224z M186.5,499.4c-6.7,0-12-5.3-12-12v-15.8c0-8.9,4-17.2,11.1-22.8l2.8-2.2c2.4-1.8,5.2-3.5,8.6-3.5
				c6.7,0,12.4,5.6,12.4,12.2c0,3.9-1.7,7.3-4.8,9.7l-2.5,1.9c-0.1,0.1-0.3,0.2-0.4,0.4l0.9,0.5c4.5,2.4,7.3,5.1,7.3,11.3v8.5
				c0,6.7-5.3,12-12,12H186.5z"/>
			<path class="st6" d="M234.4,448c3.8,0,7.4,3.2,7.4,7.2c0,1.8-0.5,4-2.9,5.8l-2.5,2c-2,1.6-3.2,2.7-3.2,4.9c0,1.8,1.3,2.7,3.4,3.8
				l1.1,0.5c3.4,1.8,4.7,3.1,4.7,6.8v8.5c0,4-3.1,7-7,7H224c-4,0-7-3.1-7-7v-15.8c0-8.1,4-14.8,9.2-18.9l2.7-2.2
				C231,448.9,232.6,448,234.4,448 M197,448c3.8,0,7.4,3.2,7.4,7.2c0,1.8-0.5,4-2.9,5.8l-2.5,2c-2,1.6-3.2,2.7-3.2,4.9
				c0,1.8,1.3,2.7,3.4,3.8l1.1,0.5c3.4,1.8,4.7,3.1,4.7,6.8v8.5c0,4-3.1,7-7,7h-11.3c-4,0-7-3.1-7-7v-15.8c0-8.1,4-14.8,9.2-18.9
				l2.7-2.2C193.6,448.9,195.2,448,197,448 M234.4,438c-4.9,0-8.6,2.3-11.6,4.5l-0.1,0.1l-0.1,0.1l-2.7,2.2
				c-2.3,1.8-4.3,3.9-6.1,6.2c-1.9-7.4-8.9-13.1-16.8-13.1c-4.9,0-8.6,2.3-11.6,4.5l-0.1,0.1l-0.1,0.1l-2.7,2.2
				c-8.2,6.5-12.9,16.2-12.9,26.7v15.8c0,9.5,7.5,17,17,17h11.3c5.3,0,9.9-2.3,13-6c3.1,3.7,7.8,6,13,6h11.3c9.5,0,17-7.5,17-17
				v-8.5c0-5.9-2.1-9.7-4.9-12.2c2.9-3.1,4.4-7.1,4.4-11.5C251.8,445.9,243.8,438,234.4,438L234.4,438z"/>
		</g>
	</g>
	<g>
		<text transform="matrix(0.9762 -7.598437e-02 2.250000e-03 1 266.2312 135.8202)" class="st5 st50 st144">webconsejos</text>
		<g>
			<g>
				<path class="st10" d="M670.9,90.5c0.9,2.4,2.4,3.5,4.8,3.3c1.4-0.1,1.8-0.3,4.9-2.1c0.4-0.2,0.9-0.4,1.3-0.4
					c1.2-0.1,2.4,1,2.4,2.3c0,2.5-4.4,5.2-9,5.6c-6.4,0.5-10.9-3.6-11-9.9c0-6.6,4.4-11.7,10.3-12.2c5.6-0.4,10,3.9,10,9.9
					c0,1.7-0.8,2.5-2.6,2.6L670.9,90.5z M678.8,85.7c-0.3-1.2-0.5-1.6-0.9-2.2c-0.7-1-1.8-1.5-3.1-1.4c-2,0.2-3.3,1.4-4.2,4.2
					L678.8,85.7z"/>
				<path class="st10" d="M693.4,77.4c1.8-1.5,3.1-2,4.9-2.2c5.2-0.4,9.3,4.1,9.4,10.3c0,6.3-4,11.5-9.3,11.9c-2.3,0.2-3.7-0.4-5-2
					c-0.7,1.6-1.5,2.4-2.8,2.5c-1.8,0.1-3.1-1.1-3.1-3l-0.1-23.7c0-1.5,0-1.9,0.4-2.6c0.4-1,1.5-1.7,2.6-1.8
					c1.1-0.1,2.1,0.5,2.6,1.4c0.4,0.7,0.4,1,0.4,2.5L693.4,77.4z M693.4,86.6c0,3.1,1.8,5.2,4.2,5.1c2.3-0.2,4.1-2.6,4.1-5.7
					c0-3-1.8-5.2-4.1-5C695.2,81.2,693.4,83.6,693.4,86.6z"/>
				<path class="st10" d="M710.3,78c0-2.2,1.2-3.7,3.1-3.9c1.4-0.1,2.2,0.5,2.8,1.9c1.8-1.8,3.2-2.5,5.5-2.7
					c2.1-0.2,3.8,0.3,5.2,1.4c1.6,1.3,2.2,2.8,2.2,5.8l0,10.1c0,1.5,0,1.9-0.4,2.6c-0.4,1-1.5,1.7-2.6,1.8c-1.1,0.1-2.2-0.5-2.6-1.4
					c-0.4-0.7-0.4-1-0.4-2.5l0-8.7c0-2.4-1.3-3.8-3.4-3.6c-1.9,0.1-3.4,1.9-3.4,3.9l0,8.9c0,1.5,0,1.9-0.4,2.6
					c-0.4,1-1.5,1.7-2.6,1.8c-1.1,0.1-2.2-0.5-2.6-1.4c-0.4-0.7-0.4-1-0.4-2.5L710.3,78z"/>
				<path class="st10" d="M733.2,76.8c0-1.5,0-1.9,0.4-2.6c0.4-1,1.5-1.7,2.6-1.8c1.1-0.1,2.1,0.5,2.6,1.4c0.4,0.7,0.4,1,0.4,2.5
					l0,13.7c0,1.5,0,1.9-0.4,2.6c-0.4,1-1.5,1.7-2.6,1.8c-1.1,0.1-2.2-0.5-2.6-1.4c-0.4-0.7-0.4-1-0.4-2.5L733.2,76.8z M742.7,66.1
					c0-1.4-1.2-2.5-2.8-2.6l0,0l-0.1,0c-0.2,0-0.4,0-0.5,0c-0.2,0-0.4,0-0.6,0.1l-4.8,0.4c-0.2,0-0.4,0-0.5,0
					c-2,0.2-3.6,1.6-3.6,3.2c0,1.6,1.6,2.8,3.5,2.7c0,0,0.1,0,0.1,0l6.5-0.6C741.5,68.8,742.7,67.5,742.7,66.1z"/>
				<path class="st10" d="M758,74.8c0,1.4-1.1,2.8-2.3,2.9c-0.7,0.1-0.7,0.1-2.5-0.6c-0.9-0.4-1.7-0.5-2.3-0.5
					c-1,0.1-1.6,0.5-1.6,1.2c0,0.8,0.3,1,3.2,1.9c2.7,0.9,3.5,1.3,4.6,2.3c0.9,1,1.5,2.2,1.5,3.8c0,4.1-3.2,7.1-7.9,7.5
					c-4.1,0.3-7.7-1.5-7.7-3.9c0-1.4,1.2-2.9,2.5-3c0.7-0.1,0.7-0.1,3.1,0.9c1,0.4,1.8,0.5,2.4,0.5c1-0.1,1.8-0.8,1.8-1.6
					c0-0.7-0.5-1.1-2.3-1.6c-3-0.9-3.8-1.3-4.8-1.9c-1.4-0.9-2.1-2.3-2.1-4.3c0-3.8,3.3-6.9,7.7-7.3C754.8,70.8,758,72.6,758,74.8z"
					/>
				<path class="st10" d="M768.5,64.3c0,2-1.5,3.7-3.5,3.9c-2,0.2-3.5-1.3-3.5-3.3c0-2,1.6-3.7,3.6-3.8
					C766.9,60.8,768.5,62.3,768.5,64.3z M762,74.5c0-1.5,0-1.9,0.4-2.6c0.4-1,1.5-1.7,2.6-1.8c1.1-0.1,2.1,0.5,2.6,1.4
					c0.4,0.7,0.4,1,0.4,2.5l0,13.7c0,1.5,0,1.9-0.4,2.6c-0.4,1-1.5,1.7-2.6,1.8c-1.1,0.1-2.2-0.5-2.6-1.4c-0.4-0.7-0.4-1-0.4-2.5
					L762,74.5z"/>
				<path class="st10" d="M772.2,73.2c0-2.1,1.2-3.7,3-3.8c1.2-0.1,1.8,0.3,2.9,1.8c1.7-1.7,3.1-2.4,5.3-2.6c1.5-0.1,3,0.1,4.1,0.7
					c0.6,0.3,1,0.6,1.7,1.5c2.4-2.2,4-3,6.3-3.2c4.2-0.3,7.3,2.5,7.3,6.6l0,10.8c0,1.5,0,1.9-0.4,2.6c-0.4,1-1.5,1.7-2.6,1.8
					c-1.1,0.1-2.2-0.5-2.6-1.4c-0.4-0.7-0.4-1-0.4-2.5l0-9.4c0-1.9-1.2-3.1-3.1-3s-3.1,1.5-3.1,3.4l0,9.4c0,1.5,0,1.9-0.4,2.6
					c-0.4,1-1.5,1.7-2.6,1.8c-1.1,0.1-2.2-0.5-2.6-1.4c-0.4-0.7-0.4-1-0.4-2.5l0-8.8c0-2.4-1.2-3.7-3.1-3.5
					c-1.8,0.1-3.1,1.6-3.1,3.4l0,9.4c0,1.5,0,1.9-0.4,2.6c-0.4,1-1.5,1.7-2.6,1.8c-1.1,0.1-2.2-0.5-2.6-1.4c-0.4-0.7-0.4-1-0.4-2.5
					L772.2,73.2z"/>
				<path class="st10" d="M826,83.7c0,2.2-1.2,3.8-3,3.9c-1.4,0.1-2.4-0.6-3-2.2c-1.5,2.1-2.7,2.8-4.9,2.9c-2.2,0.2-4.2-0.5-5.9-1.9
					c-2.4-2-3.6-4.8-3.6-8.5c0-3.4,1-6,3.1-8.4c1.8-2,3.9-3.1,6.3-3.3c2.1-0.2,3.4,0.4,5.1,2c0.7-1.7,1.6-2.4,3-2.5
					c1.7-0.1,3,1.2,3,2.9L826,83.7z M811.5,77.4c0,3.2,1.6,5.3,4.2,5.1c2.5-0.2,4.1-2.5,4.1-5.7c0-3.2-1.7-5.2-4.2-5
					C813.1,72,811.5,74.3,811.5,77.4z"/>
			</g>
			<g>
				<path class="st5" d="M661.4,79.6c-0.4-0.7-1.1-1.2-1.9-1.3c-0.2,0-0.5-0.1-0.7,0c-0.2,0-0.5,0.1-0.7,0.1
					c-0.8,0.3-1.6,0.9-1.9,1.6c-0.3,0.5-0.4,0.9-0.4,1.5c0,0.3,0,10.8,0,10.8c0,1-0.3,1.5-0.6,1.9c-0.4,0.4-0.9,0.6-1.4,0.7
					c-0.6,0-1.1-0.2-1.5-0.6c-0.3-0.4-0.6-0.8-0.6-1.7l0-10.1l0,0c0-1.2-0.1-1.6-0.4-2.2c-0.4-0.7-1.1-1.2-1.9-1.3
					c-0.2,0-0.5-0.1-0.7,0c-0.2,0-0.5,0.1-0.7,0.1c-0.8,0.3-1.6,0.9-1.9,1.6c-0.3,0.5-0.4,0.9-0.4,1.5c0,0.2,0,0.8,0,0.8l0,10
					c0,1-0.3,1.5-0.6,1.9c-0.4,0.4-0.9,0.6-1.4,0.7c-0.6,0-1.1-0.2-1.5-0.6c-0.3-0.4-0.6-0.8-0.6-1.7l-0.1-9.7c0-1.5,0-1.8-0.4-2.5
					c-0.4-0.7-1.1-1.2-1.9-1.3c-0.2,0-0.5-0.1-0.7,0c-0.2,0-0.5,0.1-0.7,0.1c-0.8,0.3-1.6,0.9-1.9,1.6c-0.3,0.5-0.4,0.9-0.4,1.5
					c0,0.3,0,11,0,11c0,3,1,4.8,2.7,6c1.5,1.1,3.4,1.6,5.2,1.4c1.6-0.1,2.9-0.5,4-1.3l0.5-0.4c0.3-0.2,0.6-0.4,0.8-0.4
					c0.3,0,0.5,0.1,0.8,0.2l0.6,0.3c1.1,0.6,2.5,0.8,4,0.6c1.9-0.1,3.6-0.9,5.1-2.2c1.7-1.5,2.7-3.4,2.7-6.4l0-10
					C661.9,80.6,661.8,80.3,661.4,79.6z"/>
				<g>
					<g>
						<path class="st9" d="M648.6,72.1c-6,0.6-11,0.1-11-1c0-0.4,0.7-0.7,1.7-1.2c4.4-2,6.7-2.6,10.8-2.6c2.9,0,6.2-0.2,8.5,1.1
							c0.6,0.2,0.9,0.4,0.9,0.7C659.6,70.2,654.7,71.6,648.6,72.1z M665,68.7c-0.1-2.8-5.1-4.3-16.4-3.3c-10.7,1-16.3,3.5-16.3,6.3
							c0.1,4.3,7.4,5.9,16.5,5C657.7,76,665,73.1,665,68.7z"/>
					</g>
				</g>
			</g>
		</g>
	</g>
	<g>
		<g>
			
				<ellipse transform="matrix(7.498862e-02 -0.9972 0.9972 7.498862e-02 -120.821 1252.3213)" class="st11" cx="614.6" cy="691.3" rx="98.3" ry="125.7"/>
			<path class="st10" d="M719.4,662.3c-1.3,16.9-16.4,15.8-38.1,14.2c-22.1-1.7-21.7-1.6-20.4-18.6c1.3-16.9,0.9-17,22.9-15.3
				C705.5,644.3,720.7,645.4,719.4,662.3z"/>
			<path class="st10" d="M713.9,735.8c-1.3,16.9-16.4,15.8-38.1,14.2c-22.1-1.7-21.7-1.6-20.4-18.6c1.3-16.9,0.9-17,22.9-15.3
				C700,717.7,715.1,718.9,713.9,735.8z"/>
			<path class="st10" d="M717.6,702.1c-0.5,6.3-15.1,7.5-36.8,5.9c-22.1-1.7-22.5,0.7-21.7-10.3c1.1-14.7,1.1-11.2,23.2-9.5
				C703.9,689.8,718.8,685.1,717.6,702.1z"/>
			<g>
				<defs>
					
						<ellipse id="SVGID_00000036963352045477495940000011692163964123648669_" transform="matrix(7.498862e-02 -0.9972 0.9972 7.498862e-02 -122.8009 1254.9424)" cx="615" cy="693.7" rx="98.3" ry="124"/>
				</defs>
				<clipPath id="SVGID_00000096017811225679449580000016977498791038547614_">
					<use xlink:href="#SVGID_00000036963352045477495940000011692163964123648669_"  style="overflow:visible;"/>
				</clipPath>
				
					<path style="clip-path:url(#SVGID_00000096017811225679449580000016977498791038547614_);fill:#FCCF72;stroke:#1A2276;stroke-width:6;stroke-miterlimit:10;" d="
					M589.7,668.3c-95.5-7.2-93.7-62.5-93.5-64.6c6.8-91.6,2.7-28.5,125.8-19.3c120.9,9.1,128.4-53.7,121.5,37.9
					C743.4,624.4,662.2,673.7,589.7,668.3z"/>
			</g>
			<circle class="st5" cx="633.7" cy="627.5" r="8.6"/>
			<circle class="st5" cx="602.7" cy="625.2" r="8.6"/>
			<circle class="st5" cx="571.6" cy="622.8" r="8.6"/>
			<polygon class="st5" points="551.9,614.6 545.7,607.3 538.4,613.5 532.2,606.3 524.9,612.5 531.2,619.8 523.9,626.1 530.1,633.3 
				537.4,627.1 543.7,634.3 550.9,628.1 544.7,620.8 			"/>
			<circle class="st20" cx="612.7" cy="696.8" r="13.8"/>
			<circle class="st5" cx="612.7" cy="696.8" r="9.4"/>
			<circle class="st20" cx="560.7" cy="692.8" r="13.8"/>
			<circle class="st5" cx="560.7" cy="692.8" r="9.4"/>
			<path class="st22" d="M548.7,723.6c0,0,4.6,11.8,32.7,13.9c28.1,2.1,37.7-8.6,37.7-8.6"/>
			<circle class="st12" cx="560.7" cy="692.8" r="20.2"/>
			<circle class="st12" cx="612.1" cy="696.7" r="20.2"/>
			<line class="st12" x1="580.9" y1="694.6" x2="591.4" y2="695.4"/>
			<line class="st12" x1="540.1" y1="691.5" x2="488.8" y2="687.7"/>
			<line class="st12" x1="634.5" y1="698.6" x2="659" y2="700.5"/>
		</g>
		<g>
			<rect x="469.8" y="480.9" class="st5" width="59.6" height="91.3"/>
			<rect x="549.7" y="444.1" class="st5" width="59.6" height="128.1"/>
			<rect x="629.6" y="493.6" class="st5" width="59.6" height="78.6"/>
			<g>
				<rect x="704.5" y="396" class="st5" width="69.6" height="181.2"/>
				<path class="st6" d="M769.1,401v171.2h-59.6V401H769.1 M779.1,391h-10h-59.6h-10v10v171.2v10h10h59.6h10v-10V401V391L779.1,391z
					"/>
			</g>
			<polyline class="st146" points="499.6,480.9 575.7,532.9 659.4,498.6 739.3,438.6 			"/>
		</g>
	</g>
</g>
<g id="halftone">
	
		<image style="overflow:visible;opacity:0.24;" width="872" height="872" xlink:href="48912CE4EA1C89D9.png"  transform="matrix(1.2385 0 0 1.2385 -82.5 -77)">
	</image>
</g>
</svg>
