<?xml version="1.0" encoding="utf-8"?>
<!-- Generator: Adobe Illustrator 27.3.1, SVG Export Plug-In . SVG Version: 6.00 Build 0)  -->
<svg version="1.1" xmlns="http://www.w3.org/2000/svg" xmlns:xlink="http://www.w3.org/1999/xlink" x="0px" y="0px"
	 viewBox="0 0 900 900" style="enable-background:new 0 0 900 900;" xml:space="preserve">
<style type="text/css">
	.st0{display:none;}
	.st1{display:inline;opacity:0.28;}
	.st2{fill:none;stroke:#000000;stroke-width:0.75;stroke-miterlimit:10;}
	.st3{fill:none;stroke:#000000;stroke-width:4;stroke-linecap:round;stroke-linejoin:round;stroke-miterlimit:10;}
	.st4{fill:#FCCF72;stroke:#1A2276;stroke-width:6;stroke-miterlimit:10;}
	.st5{fill:#1A2276;}
	.st6{fill:#EBEAD8;}
	.st7{fill:#ED8376;stroke:#E90302;stroke-width:17;stroke-linecap:round;stroke-linejoin:round;stroke-miterlimit:10;}
	.st8{fill:#E90302;}
	.st9{fill:#FCCF72;}
	.st10{fill:#8288A8;}
	.st11{fill:#EBEAD8;stroke:#1A2276;stroke-width:6;stroke-miterlimit:10;}
	.st12{fill:none;stroke:#1A2276;stroke-width:6;stroke-miterlimit:10;}
	.st13{fill:#E90302;stroke:#1A2276;stroke-width:6;stroke-miterlimit:10;}
	.st14{fill:#EBBFAF;}
	
		.st15{clip-path:url(#SVGID_00000164492488061994961490000000729285365551450810_);fill:#FCCF72;stroke:#1A2276;stroke-width:6;stroke-miterlimit:10;}
	
		.st16{clip-path:url(#SVGID_00000147212212139797198400000000480587736714966706_);fill:#FCCF72;stroke:#1A2276;stroke-width:6;stroke-miterlimit:10;}
	
		.st17{clip-path:url(#SVGID_00000075867947939826193330000016729324804340376229_);fill:#FCCF72;stroke:#1A2276;stroke-width:6;stroke-miterlimit:10;}
	
		.st18{clip-path:url(#SVGID_00000020367607498244789340000017587601905282834343_);fill:#FCCF72;stroke:#1A2276;stroke-width:6;stroke-miterlimit:10;}
	
		.st19{clip-path:url(#SVGID_00000119835241466444415380000002572377340362064059_);fill:#FCCF72;stroke:#1A2276;stroke-width:6;stroke-miterlimit:10;}
	.st20{fill:#FFFFFF;}
	
		.st21{clip-path:url(#SVGID_00000094601637357892573440000012510108575403602102_);fill:#FCCF72;stroke:#1A2276;stroke-width:6;stroke-miterlimit:10;}
	.st22{fill:none;stroke:#1A2276;stroke-width:6;stroke-linecap:round;stroke-miterlimit:10;}
	
		.st23{clip-path:url(#SVGID_00000038381878416576538590000013035400707603133585_);fill:#FCCF72;stroke:#1A2276;stroke-width:6;stroke-miterlimit:10;}
	
		.st24{clip-path:url(#SVGID_00000049940164132276187430000013172683532745855132_);fill:#FCCF72;stroke:#1A2276;stroke-width:6;stroke-miterlimit:10;}
	
		.st25{clip-path:url(#SVGID_00000163792718442428359230000009281710992017058468_);fill:#FCCF72;stroke:#1A2276;stroke-width:6;stroke-miterlimit:10;}
	
		.st26{clip-path:url(#SVGID_00000175315892429240841530000017487791562521849731_);fill:#FCCF72;stroke:#1A2276;stroke-width:6;stroke-miterlimit:10;}
	
		.st27{clip-path:url(#SVGID_00000022548754781362734590000017988675199328164004_);fill:#FCCF72;stroke:#1A2276;stroke-width:6;stroke-miterlimit:10;}
	
		.st28{clip-path:url(#SVGID_00000011011084785276756000000003898050139088591518_);fill:#FCCF72;stroke:#1A2276;stroke-width:6;stroke-miterlimit:10;}
	.st29{fill:none;stroke:#000000;stroke-width:4;stroke-miterlimit:10;}
	.st30{fill:#FCCF72;stroke:#000000;stroke-width:4;stroke-miterlimit:10;}
	.st31{fill:none;stroke:#000000;stroke-width:5;stroke-linecap:round;stroke-miterlimit:10;}
	
		.st32{clip-path:url(#SVGID_00000176003370051699820720000015587270671442509991_);fill:#FCCF72;stroke:#1A2276;stroke-width:6;stroke-miterlimit:10;}
	
		.st33{clip-path:url(#SVGID_00000022524959502993527570000011589734356711993738_);fill:#FCCF72;stroke:#1A2276;stroke-width:6;stroke-miterlimit:10;}
	
		.st34{clip-path:url(#SVGID_00000109711658425879635490000013286174026790074010_);fill:#FCCF72;stroke:#1A2276;stroke-width:6;stroke-miterlimit:10;}
	
		.st35{clip-path:url(#SVGID_00000107546612214660197360000017894826955148309432_);fill:#FCCF72;stroke:#1A2276;stroke-width:6;stroke-miterlimit:10;}
	.st36{fill:#E90302;stroke:#EBBFAF;stroke-width:6;stroke-miterlimit:10;}
	.st37{clip-path:url(#SVGID_00000142857960682119828050000000549308197185106074_);fill:#FCCF72;}
	.st38{clip-path:url(#SVGID_00000142857960682119828050000000549308197185106074_);fill:#1A2276;}
	.st39{clip-path:url(#SVGID_00000160888557859588675140000009690051108768255373_);fill:#8288A8;}
	.st40{fill:#020202;}
	.st41{clip-path:url(#SVGID_00000025417950886684730050000016368020723077499267_);}
	.st42{fill:#EBEAD8;stroke:#1A2276;stroke-width:3;stroke-miterlimit:10;}
	.st43{fill:#8288A8;stroke:#8288A8;stroke-miterlimit:10;}
	.st44{fill:#1A2276;stroke:#FCCF72;stroke-width:6;stroke-miterlimit:10;}
	.st45{fill:none;stroke:#EBEAD8;stroke-width:6;stroke-miterlimit:10;}
	.st46{fill:#8288A8;stroke:#1A2276;stroke-width:6;stroke-miterlimit:10;}
	.st47{fill:#FCCF72;stroke:#8288A8;stroke-width:6;stroke-miterlimit:10;}
	.st48{clip-path:url(#SVGID_00000078044047598048591060000014036986070158038711_);}
	.st49{fill:none;}
	.st50{font-family:'Aptly-Bold';}
	.st51{font-size:40.1137px;}
	.st52{letter-spacing:4;}
	.st53{font-size:122.4095px;}
	.st54{fill:#ED8376;}
	.st55{fill:url(#);}
	.st56{fill:#1A2276;stroke:url(#);stroke-miterlimit:10;}
	.st57{fill:#ED8376;stroke:#E90302;stroke-width:6;stroke-linecap:round;stroke-linejoin:round;stroke-miterlimit:10;}
	.st58{fill:none;stroke:#E90302;stroke-width:6;stroke-linecap:round;stroke-linejoin:round;stroke-miterlimit:10;}
	.st59{fill:none;stroke:#E90302;stroke-width:5;stroke-linecap:round;stroke-linejoin:round;stroke-miterlimit:10;}
	.st60{fill:#FFFFFF;stroke:#000000;stroke-width:6;stroke-miterlimit:10;}
	.st61{fill:#FFFDFD;stroke:#1A2276;stroke-width:7;stroke-miterlimit:10;}
	
		.st62{clip-path:url(#SVGID_00000174578018686062063030000012140585322830789801_);fill:#FCCF72;stroke:#1A2276;stroke-width:6;stroke-miterlimit:10;}
	
		.st63{clip-path:url(#SVGID_00000142153470671929104480000017147192501502484920_);fill:#FCCF72;stroke:#1A2276;stroke-width:6;stroke-miterlimit:10;}
	.st64{fill:none;stroke:#E90302;stroke-width:6;stroke-linecap:round;stroke-miterlimit:10;}
	
		.st65{clip-path:url(#SVGID_00000046311432059552137320000005971591924472147386_);fill:#FCCF72;stroke:#1A2276;stroke-width:6;stroke-miterlimit:10;}
	
		.st66{clip-path:url(#SVGID_00000162346268422449276980000007500647498423620791_);fill:#FCCF72;stroke:#1A2276;stroke-width:6;stroke-miterlimit:10;}
	
		.st67{clip-path:url(#SVGID_00000047047951290709242760000011802201003692753062_);fill:#FCCF72;stroke:#1A2276;stroke-width:6;stroke-miterlimit:10;}
	.st68{fill:none;stroke:#1A2276;stroke-width:7;stroke-miterlimit:10;}
	
		.st69{clip-path:url(#SVGID_00000124158497275910399930000010213600972311856809_);fill:#FCCF72;stroke:#1A2276;stroke-width:6;stroke-miterlimit:10;}
	.st70{clip-path:url(#SVGID_00000044872172746027883720000013729906345295497126_);}
	
		.st71{clip-path:url(#SVGID_00000137813538316709417860000000746594639808456833_);fill:#FCCF72;stroke:#1A2276;stroke-width:6;stroke-miterlimit:10;}
	
		.st72{clip-path:url(#SVGID_00000077304637261651148400000001828071852708163002_);fill:#FCCF72;stroke:#1A2276;stroke-width:6;stroke-miterlimit:10;}
	
		.st73{clip-path:url(#SVGID_00000158740371779718641640000013269615115528222902_);fill:#FCCF72;stroke:#1A2276;stroke-width:6;stroke-miterlimit:10;}
	.st74{clip-path:url(#SVGID_00000098900893329599070160000007778815867208623513_);}
	.st75{clip-path:url(#SVGID_00000107557247721124701480000008113273790215298239_);}
	.st76{clip-path:url(#SVGID_00000127017100944966126280000002360552087324715395_);}
	.st77{opacity:0.5;}
	.st78{clip-path:url(#SVGID_00000178900539363472296850000007773192694400680605_);}
	.st79{clip-path:url(#SVGID_00000047764166133802811730000006612886680897094809_);}
	.st80{fill:#FFFDFD;}
	.st81{clip-path:url(#SVGID_00000031196025761225080930000014918740761150248876_);}
	.st82{opacity:0.8;}
	
		.st83{clip-path:url(#SVGID_00000169556411647047231390000007662763753109791877_);fill:#FCCF72;stroke:#1A2276;stroke-width:6;stroke-miterlimit:10;}
	
		.st84{clip-path:url(#SVGID_00000121984476152554285290000001614494670038349242_);fill:#FCCF72;stroke:#1A2276;stroke-width:6;stroke-miterlimit:10;}
	.st85{clip-path:url(#SVGID_00000047750073326131012630000011671191753700518811_);}
	.st86{clip-path:url(#SVGID_00000028300174101309482990000007053870353649417392_);}
	.st87{clip-path:url(#SVGID_00000027589214681229858470000010985042638155022727_);}
	.st88{clip-path:url(#SVGID_00000084493380854381125150000011601645797668933278_);}
	.st89{clip-path:url(#SVGID_00000126314112742325992000000008327936102986660503_);}
	.st90{fill:none;stroke:#1A2276;stroke-width:19;stroke-miterlimit:10;}
	.st91{clip-path:url(#SVGID_00000061437249482908457340000000043607015189532606_);}
	.st92{fill:none;stroke:#1A2276;stroke-width:10;stroke-miterlimit:10;}
	.st93{clip-path:url(#SVGID_00000179607396253931942690000009070356891754651560_);}
	.st94{clip-path:url(#SVGID_00000106833260669533632220000005617252451236029598_);fill:#FCCF72;}
	.st95{clip-path:url(#SVGID_00000106833260669533632220000005617252451236029598_);fill:#1A2276;}
	.st96{clip-path:url(#SVGID_00000180356798599104683540000000924723714841858946_);}
	.st97{clip-path:url(#SVGID_00000127723921582723200150000001244545575007648957_);}
	.st98{clip-path:url(#SVGID_00000127723921582723200150000001244545575007648957_);fill:none;}
	.st99{clip-path:url(#SVGID_00000080918364287837338800000004428660623813362317_);fill:#8288A8;}
	.st100{clip-path:url(#SVGID_00000080918364287837338800000004428660623813362317_);fill:#FCCF72;}
	.st101{fill:#FFFFFF;stroke:#FFFFFF;stroke-width:6;stroke-miterlimit:10;}
	.st102{fill:none;stroke:#8288A8;stroke-width:6;stroke-miterlimit:10;}
	.st103{clip-path:url(#SVGID_00000051374657273810642950000013139359749544893057_);}
	.st104{clip-path:url(#SVGID_00000017483744174452409230000015355451637393665682_);}
	.st105{clip-path:url(#SVGID_00000056401206929277642820000000280916347486347697_);}
	.st106{font-size:28px;}
	.st107{font-family:'Aptly';}
	.st108{font-size:70.9205px;}
	.st109{clip-path:url(#SVGID_00000003075516816555276050000008211519727864314268_);}
	.st110{clip-path:url(#SVGID_00000065776528289293968110000000659947939076466111_);}
	.st111{fill:#EBEAD8;stroke:#1A2276;stroke-width:12;stroke-miterlimit:10;}
	.st112{fill:none;stroke:#1A2276;stroke-width:12;stroke-miterlimit:10;}
	.st113{clip-path:url(#SVGID_00000014618774086697129460000010212334033625614976_);}
	.st114{clip-path:url(#SVGID_00000173874041453595982100000000441847797129215660_);}
	.st115{clip-path:url(#SVGID_00000129910847137056638140000014673958078736955270_);}
	.st116{clip-path:url(#SVGID_00000054952730754468716790000009535999615087262882_);}
	.st117{clip-path:url(#SVGID_00000127040764792818425370000015742314131610479294_);}
	.st118{clip-path:url(#SVGID_00000080199686622983064710000003833018187237709701_);fill:#8288A8;}
	.st119{clip-path:url(#SVGID_00000080199686622983064710000003833018187237709701_);fill:#FCCF72;}
	.st120{clip-path:url(#SVGID_00000039119005895854730610000006586651158899825573_);}
	.st121{clip-path:url(#SVGID_00000087409822440418192390000004908994272260444589_);fill:#E90302;}
	.st122{clip-path:url(#SVGID_00000047055916429499548350000010491786190899109035_);fill:none;}
	.st123{clip-path:url(#SVGID_00000090289586545476059850000000125657431033385398_);}
	.st124{clip-path:url(#SVGID_00000121977296879644019060000011700112206168967085_);}
	.st125{clip-path:url(#SVGID_00000104684741170555681310000003577768891223636392_);}
	.st126{clip-path:url(#SVGID_00000026128222640295600810000012187183423997201085_);}
	.st127{clip-path:url(#SVGID_00000012460269034912729240000011949222871874461840_);}
	.st128{clip-path:url(#SVGID_00000168818888639566851000000000135887736108613512_);}
	.st129{clip-path:url(#SVGID_00000069386456540300418070000010039270371394279349_);}
	.st130{clip-path:url(#SVGID_00000028290118976265460450000011012526661327996045_);}
	.st131{clip-path:url(#SVGID_00000047774532724504020050000011670760562381077403_);}
	.st132{clip-path:url(#SVGID_00000165920565693768575880000010004912256762283170_);}
	.st133{clip-path:url(#SVGID_00000087413750397532540810000017839473799147536282_);}
	.st134{clip-path:url(#SVGID_00000003793672592902889410000004285075672952843403_);}
	.st135{clip-path:url(#SVGID_00000150072440048264206810000009967832918443095685_);fill:#EBEAD8;}
	.st136{clip-path:url(#SVGID_00000150072440048264206810000009967832918443095685_);}
	.st137{clip-path:url(#SVGID_00000040550563732491373320000001031433324960985791_);}
	.st138{clip-path:url(#SVGID_00000109002007876623952800000009807097894176743580_);}
	.st139{clip-path:url(#SVGID_00000143575096816116875850000015905316169214265261_);}
	.st140{clip-path:url(#SVGID_00000000201130433974797480000015603467807551455411_);}
	.st141{clip-path:url(#SVGID_00000059289544426983302960000005773222866182170763_);}
	.st142{fill:#ED8376;stroke:#1A2276;stroke-width:6;stroke-miterlimit:10;}
	.st143{fill:url(#);stroke:#1A2276;stroke-width:6;stroke-miterlimit:10;}
	.st144{clip-path:url(#SVGID_00000145025314355275957560000007097876327975619230_);}
	
		.st145{clip-path:url(#SVGID_00000067931172413663503200000015026374043089912747_);fill:#FCCF72;stroke:#1A2276;stroke-width:6;stroke-miterlimit:10;}
	.st146{fill:none;stroke:#FCCF72;stroke-width:6;stroke-linecap:round;stroke-miterlimit:10;}
	.st147{clip-path:url(#SVGID_00000148647128883361172800000001938535982170894002_);}
</style>
<g id="guias" class="st0">
	<g class="st1">
		<line class="st2" x1="2" y1="180" x2="2" y2="525"/>
		<line class="st2" x1="14" y1="180" x2="14" y2="525"/>
		<g>
			<line class="st2" x1="22.5" y1="189.5" x2="-322.5" y2="189.5"/>
			<line class="st2" x1="22.5" y1="201.5" x2="-322.5" y2="201.5"/>
			<line class="st2" x1="22.5" y1="213.5" x2="-322.5" y2="213.5"/>
			<line class="st2" x1="22.5" y1="225.5" x2="-322.5" y2="225.5"/>
			<line class="st2" x1="22.5" y1="237.5" x2="-322.5" y2="237.5"/>
			<line class="st2" x1="22.5" y1="249.5" x2="-322.5" y2="249.5"/>
			<line class="st2" x1="22.5" y1="261.5" x2="-322.5" y2="261.5"/>
			<line class="st2" x1="22.5" y1="273.5" x2="-322.5" y2="273.5"/>
			<line class="st2" x1="22.5" y1="285.5" x2="-322.5" y2="285.5"/>
			<line class="st2" x1="22.5" y1="297.5" x2="-322.5" y2="297.5"/>
			<line class="st2" x1="22.5" y1="309.5" x2="-322.5" y2="309.5"/>
			<line class="st2" x1="22.5" y1="321.5" x2="-322.5" y2="321.5"/>
			<line class="st2" x1="22.5" y1="333.5" x2="-322.5" y2="333.5"/>
			<line class="st2" x1="22.5" y1="345.5" x2="-322.5" y2="345.5"/>
			<line class="st2" x1="22.5" y1="357.5" x2="-322.5" y2="357.5"/>
			<line class="st2" x1="22.5" y1="369.5" x2="-322.5" y2="369.5"/>
			<line class="st2" x1="22.5" y1="381.5" x2="-322.5" y2="381.5"/>
			<line class="st2" x1="22.5" y1="393.5" x2="-322.5" y2="393.5"/>
			<line class="st2" x1="22.5" y1="405.5" x2="-322.5" y2="405.5"/>
			<line class="st2" x1="22.5" y1="417.5" x2="-322.5" y2="417.5"/>
			<line class="st2" x1="22.5" y1="429.5" x2="-322.5" y2="429.5"/>
			<line class="st2" x1="22.5" y1="441.5" x2="-322.5" y2="441.5"/>
			<line class="st2" x1="22.5" y1="453.5" x2="-322.5" y2="453.5"/>
			<line class="st2" x1="22.5" y1="465.5" x2="-322.5" y2="465.5"/>
			<line class="st2" x1="22.5" y1="477.5" x2="-322.5" y2="477.5"/>
			<line class="st2" x1="22.5" y1="489.5" x2="-322.5" y2="489.5"/>
			<line class="st2" x1="22.5" y1="501.5" x2="-322.5" y2="501.5"/>
			<line class="st2" x1="22.5" y1="513.5" x2="-322.5" y2="513.5"/>
			<line class="st2" x1="22.5" y1="525.5" x2="-322.5" y2="525.5"/>
		</g>
	</g>
</g>
<g id="Layer_2">
</g>
<g id="Layer_1">
	<rect x="-0.5" y="1" class="st6" width="897" height="897"/>
	<g>
		<polygon class="st7" points="223.2,67.4 221.2,98.4 239.5,123.9 218.1,146 216.1,177 185.4,179.8 164,201.9 138.3,184.1 
			107.5,186.9 98.8,156.8 73.1,139 85.5,110.8 76.9,80.7 104.6,67.5 117.1,39.2 147.1,47.2 174.8,34 193.2,59.4 		"/>
		<g>
			<g>
				<path class="st6" d="M144.8,161.9c0-4.7,3.8-8.5,8.5-8.5c4.7,0,8.5,3.8,8.5,8.5v5.3h4.6c4.7,0,8.5,3.8,8.5,8.5s-3.8,8.5-8.5,8.5
					h-12.8c-4,0-7.3-2.7-8.3-6.4c-0.4-1-0.6-2-0.6-3.2V161.9z"/>
				<path class="st5" d="M166.4,185.4h-12.8c-4.4,0-8.2-2.9-9.3-7.2c-0.4-1.1-0.7-2.3-0.7-3.5v-12.8c0-5.3,4.3-9.6,9.6-9.6
					c5.3,0,9.6,4.3,9.6,9.6v4.3h3.5c5.3,0,9.6,4.3,9.6,9.6C176,181.1,171.7,185.4,166.4,185.4z M153.3,154.5c-4.1,0-7.4,3.3-7.4,7.4
					v12.8c0,1,0.2,1.9,0.5,2.8l0,0.1c0.8,3.3,3.8,5.6,7.2,5.6h12.8c4.1,0,7.4-3.3,7.4-7.4c0-4.1-3.3-7.4-7.4-7.4h-5.7v-6.4
					C160.8,157.8,157.4,154.5,153.3,154.5z"/>
			</g>
			<g>
				<line class="st6" x1="174.9" y1="177.7" x2="145.5" y2="177.7"/>
				<rect x="145.5" y="176.7" class="st5" width="29.4" height="2.1"/>
			</g>
			<g>
				<line class="st6" x1="161.8" y1="167.3" x2="157.4" y2="173.1"/>
				
					<rect x="155.9" y="169.1" transform="matrix(0.6034 -0.7974 0.7974 0.6034 -72.435 194.7762)" class="st5" width="7.3" height="2.1"/>
			</g>
			<g>
				<line class="st6" x1="166.1" y1="168" x2="161.6" y2="173.9"/>
				
					<rect x="160.2" y="169.9" transform="matrix(0.6034 -0.7974 0.7974 0.6034 -71.3127 198.4516)" class="st5" width="7.3" height="2.1"/>
			</g>
			<g>
				<line class="st6" x1="170.3" y1="168.7" x2="165.9" y2="174.6"/>
				
					<rect x="164.4" y="170.6" transform="matrix(0.6034 -0.7974 0.7974 0.6034 -70.1905 202.127)" class="st5" width="7.3" height="2.1"/>
			</g>
			<g>
				<circle class="st6" cx="152.4" cy="168.2" r="3.5"/>
				<path class="st5" d="M152.4,172.8c-2.5,0-4.6-2.1-4.6-4.6c0-2.5,2.1-4.6,4.6-4.6s4.6,2.1,4.6,4.6
					C157,170.7,155,172.8,152.4,172.8z M152.4,165.7c-1.4,0-2.5,1.1-2.5,2.5s1.1,2.5,2.5,2.5s2.5-1.1,2.5-2.5
					S153.8,165.7,152.4,165.7z"/>
			</g>
			<g>
				<g>
					<path class="st6" d="M112.2,161.9c0-4.7,3.8-8.5,8.5-8.5s8.5,3.8,8.5,8.5v5.3h4.6c4.7,0,8.5,3.8,8.5,8.5s-3.8,8.5-8.5,8.5H121
						c-4,0-7.3-2.7-8.3-6.4c-0.4-1-0.6-2-0.6-3.2V161.9z"/>
					<path class="st5" d="M133.8,185.4H121c-4.4,0-8.2-2.9-9.3-7.2c-0.4-1.1-0.7-2.3-0.7-3.5v-12.8c0-5.3,4.3-9.6,9.6-9.6
						c5.3,0,9.6,4.3,9.6,9.6v4.3h3.5c5.3,0,9.6,4.3,9.6,9.6C143.4,181.1,139.1,185.4,133.8,185.4z M120.7,154.5
						c-4.1,0-7.4,3.3-7.4,7.4v12.8c0,1,0.2,1.9,0.5,2.8l0,0.1c0.8,3.3,3.8,5.6,7.2,5.6h12.8c4.1,0,7.4-3.3,7.4-7.4
						c0-4.1-3.3-7.4-7.4-7.4h-5.7v-6.4C128.1,157.8,124.8,154.5,120.7,154.5z"/>
				</g>
				<g>
					<line class="st6" x1="142.3" y1="177.7" x2="112.9" y2="177.7"/>
					<rect x="112.9" y="176.7" class="st5" width="29.4" height="2.1"/>
				</g>
				<g>
					<line class="st6" x1="129.2" y1="167.3" x2="124.8" y2="173.1"/>
					
						<rect x="123.3" y="169.1" transform="matrix(0.6034 -0.7974 0.7974 0.6034 -85.3759 168.7549)" class="st5" width="7.3" height="2.1"/>
				</g>
				<g>
					<line class="st6" x1="133.5" y1="168" x2="129" y2="173.9"/>
					
						<rect x="127.6" y="169.9" transform="matrix(0.6034 -0.7974 0.7974 0.6034 -84.2536 172.4303)" class="st5" width="7.3" height="2.1"/>
				</g>
				<g>
					<line class="st6" x1="137.7" y1="168.7" x2="133.3" y2="174.6"/>
					
						<rect x="131.8" y="170.6" transform="matrix(0.6034 -0.7974 0.7974 0.6034 -83.1313 176.1057)" class="st5" width="7.3" height="2.1"/>
				</g>
				<g>
					<circle class="st6" cx="119.8" cy="168.2" r="3.5"/>
					<path class="st5" d="M119.8,172.8c-2.5,0-4.6-2.1-4.6-4.6c0-2.5,2.1-4.6,4.6-4.6s4.6,2.1,4.6,4.6
						C124.4,170.7,122.3,172.8,119.8,172.8z M119.8,165.7c-1.4,0-2.5,1.1-2.5,2.5s1.1,2.5,2.5,2.5c1.4,0,2.5-1.1,2.5-2.5
						S121.2,165.7,119.8,165.7z"/>
				</g>
			</g>
			<g>
				<ellipse class="st6" cx="146.7" cy="125.4" rx="38.1" ry="29.8"/>
				<path class="st5" d="M146.7,156.3c-19.3,0-29,0-34-3.9c-5.2-4-5.2-11.7-5.2-26.9s0-22.9,5.2-26.9c5.1-3.9,14.7-3.9,34-3.9
					c19.3,0,29,0,34,3.7c5.2,3.8,5.2,11.1,5.2,25.5l0,1.6l0,1.6c0,14.4,0,21.7-5.2,25.5C175.7,156.3,166,156.3,146.7,156.3z
					 M146.7,96.7c-18.8,0-28.2,0-32.7,3.5c-4.4,3.4-4.4,10.7-4.4,25.2s0,21.8,4.4,25.2c4.5,3.5,13.9,3.5,32.7,3.5
					c18.8,0,28.3,0,32.7-3.3c4.3-3.2,4.3-10.1,4.3-23.8l0-1.6l0-1.6c0-13.7,0-20.6-4.3-23.8C175,96.7,165.6,96.7,146.7,96.7z"/>
			</g>
			<g>
				<path class="st8" d="M146.9,144.6c-38.8,0-38.3-12.2-38.3-11.5c0,27.8,0.2,27.8,38.1,27.8c37.3,0,38.1,0,38.1-27.8
					C184.9,132.4,185.1,144.6,146.9,144.6z"/>
				<path class="st5" d="M146.8,162c-19.2,0-28.9,0-33.9-3.7c-5.3-3.8-5.3-11.4-5.3-25.2h0c0-0.5,0.2-0.7,0.3-0.8l0.5-0.5l1.3,0.5
					v0.7c0.1,0.5,2,10.5,37.2,10.5c35.1,0,36.9-10.2,36.9-10.6l0.1-1l2,0.1l0,1c0,14.4-0.2,21.5-5.5,25.2
					C175.3,162,165.8,162,146.8,162z M109.7,137.1c0,10.8,0.5,16.6,4.4,19.4c4.5,3.3,13.9,3.3,32.7,3.3c18.5,0,27.8,0,32.4-3.3
					c4-2.8,4.6-8.5,4.6-19.5c-0.9,0.9-2.1,1.9-3.7,2.9c-6.6,3.8-17.8,5.7-33.1,5.7c-13.4,0-23.6-1.4-30.5-4.3
					C113.1,140,111,138.5,109.7,137.1z"/>
			</g>
			<g>
				<line class="st6" x1="180.2" y1="113.4" x2="124.7" y2="113.4"/>
				<rect x="124.7" y="112.3" class="st5" width="55.5" height="2.1"/>
			</g>
			<g>
				<line class="st6" x1="118.2" y1="112.7" x2="118.2" y2="119.7"/>
				<rect x="117.1" y="112.7" class="st5" width="2.1" height="7.1"/>
			</g>
			<g>
				<path class="st6" d="M172.9,123.8c0,0-1.6-4.6-6.5-3.8c-4.9,0.8-5.5,3.8-5.5,3.8"/>
				<path class="st5" d="M171.9,124.1c-0.1-0.2-1.4-3.8-5.4-3.1c-4,0.7-4.6,2.9-4.6,3l-2.1-0.4c0-0.2,0.7-3.7,6.3-4.7
					c4.6-0.8,7.1,2.6,7.7,4.5L171.9,124.1z"/>
			</g>
			<g>
				<path class="st6" d="M150.6,124.1c0,0-1.6-4.6-6.5-3.8c-4.9,0.8-5.5,3.8-5.5,3.8"/>
				<path class="st5" d="M149.6,124.5c-0.1-0.2-1.4-3.8-5.4-3.1c-4,0.7-4.6,2.9-4.6,3l-2.1-0.4c0-0.2,0.7-3.7,6.3-4.7
					c4.6-0.8,7.1,2.6,7.7,4.5L149.6,124.5z"/>
			</g>
			<g>
				<path class="st6" d="M162.8,128.3c0,0,1.3,5.3-4.4,6.1c-6,0.9-6.4-5.1-6.4-5.1"/>
				<path class="st5" d="M157.1,135.6c-1.5,0-2.8-0.4-3.8-1.3c-2.2-1.8-2.5-4.8-2.5-4.9l2.1-0.2c0,0,0.2,2.2,1.7,3.4
					c0.9,0.7,2,0.9,3.5,0.7c1.4-0.2,2.5-0.8,3-1.6c0.9-1.4,0.5-3.2,0.5-3.2l2.1-0.5c0,0.1,0.6,2.7-0.8,4.9c-0.9,1.4-2.4,2.2-4.5,2.5
					C158,135.6,157.6,135.6,157.1,135.6z"/>
			</g>
			<g>
				<path class="st6" d="M100.5,128.1c4.3-1.9,9.3,0.1,11.2,4.4l5.1,11.7c1.9,4.3-0.1,9.3-4.4,11.2c-4.3,1.9-9.3-0.1-11.2-4.4
					l-5.1-11.7C94.2,135,96.2,130,100.5,128.1z"/>
				<path class="st5" d="M109.1,157.2c-1.2,0-2.4-0.2-3.5-0.7c-2.4-0.9-4.3-2.7-5.3-5.1l-5.1-11.7c-2.1-4.8,0.1-10.5,4.9-12.6
					c2.3-1,4.9-1.1,7.3-0.1c2.4,0.9,4.3,2.7,5.3,5.1l5.1,11.7c1,2.3,1.1,4.9,0.1,7.3c-0.9,2.4-2.7,4.3-5.1,5.3
					C111.7,156.9,110.4,157.2,109.1,157.2z M103.9,128.5c-1,0-2,0.2-3,0.6c-1.8,0.8-3.2,2.3-3.9,4.1c-0.7,1.9-0.7,3.9,0.1,5.7
					l5.1,11.7c1.6,3.8,6,5.5,9.8,3.8c1.8-0.8,3.2-2.3,3.9-4.1c0.7-1.9,0.7-3.9-0.1-5.7l-5.1-11.7
					C109.5,130.1,106.8,128.5,103.9,128.5z"/>
			</g>
			<g>
				<circle class="st5" cx="116.1" cy="97.8" r="13.5"/>
			</g>
			<g>
				<circle class="st5" cx="160.1" cy="82.2" r="13.5"/>
			</g>
			<g>
				<ellipse class="st5" cx="139.9" cy="86.4" rx="24.5" ry="18.4"/>
			</g>
			<g>
				<ellipse class="st5" cx="168.3" cy="86.4" rx="24.5" ry="18.4"/>
			</g>
			<g>
				<g>
					<ellipse class="st6" cx="189.3" cy="116.2" rx="11.4" ry="9.6"/>
					<path class="st5" d="M189.3,126.8c-6.9,0-12.5-4.8-12.5-10.7s5.6-10.7,12.5-10.7c6.9,0,12.5,4.8,12.5,10.7
						S196.1,126.8,189.3,126.8z M189.3,107.6c-5.7,0-10.3,3.8-10.3,8.6c0,4.7,4.6,8.6,10.3,8.6c5.7,0,10.3-3.8,10.3-8.6
						C199.6,111.4,195,107.6,189.3,107.6z"/>
				</g>
				<g>
					<path class="st6" d="M202.8,86.2c-2.5-1.3-5.7-0.1-7.1,2.6c0,0.1-0.1,0.1-0.1,0.2l0,0l-3.8,7.6v-8.5h0c0-0.1,0-0.1,0-0.2
						c0-3.1-2.3-5.5-5.2-5.5s-5.2,2.5-5.2,5.5c0,0.1,0,0.1,0,0.2h0v15.3h8.6l7.9,4l6.9-13.7l0,0c0-0.1,0.1-0.1,0.1-0.2
						C206.3,90.8,205.3,87.5,202.8,86.2z"/>
					<path class="st5" d="M198.4,108.8l-8.6-4.3h-9.4V87h0.1c0.4-3.2,3-5.7,6.2-5.7s5.8,2.5,6.2,5.7h0l0,0.7c0,0.1,0,0.1,0,0.2
						c0,0,0,0,0,0.1l0,0.1v4.1l2.3-4.5l0,0c0.8-1.2,1.9-2.1,3.2-2.6c1.6-0.6,3.3-0.5,4.8,0.2c1.5,0.8,2.6,2.1,3.1,3.7
						c0.4,1.4,0.3,2.8-0.1,4.1l0,0l-0.3,0.6c0,0.1-0.1,0.1-0.1,0.2c0,0,0,0,0,0.1l-0.1,0.1L198.4,108.8z M182.5,102.3h7.8l7.2,3.6
						l5.9-11.7l0,0l0.5-1c0,0,0-0.1,0.1-0.1l0,0c0.5-1.1,0.7-2.3,0.3-3.4c-0.3-1.1-1-2-2-2.4c-1-0.5-2.1-0.5-3.1-0.1
						c-1.1,0.4-2,1.2-2.5,2.3l0,0c0,0,0,0.1,0,0.1l-0.5,1l0,0l-5.3,10.6v-12h0l0-1.3c0-2.5-1.8-4.5-4.1-4.5s-4.1,2-4.1,4.5l0,0.2
						l0,1.1h0V102.3z"/>
				</g>
				<g>
					<path class="st6" d="M190.4,109.9c-2.3,1.1-3.3,4.1-2.1,6.6c1.2,2.6,4.1,3.8,6.4,2.7c0,0,0.1-0.1,0.1-0.1l0,0l7.8-3.2
						c4.4-3.7,0.9-10.5-4.3-9.4l-7.8,3.2l0,0C190.5,109.9,190.5,109.9,190.4,109.9z"/>
					<path class="st5" d="M192.9,120.8c-2.3,0-4.5-1.4-5.6-3.8c-1.3-2.8-0.5-6,1.8-7.6l0-0.1l1-0.4l7.9-3.3l0.1,0
						c2.8-0.6,5.6,0.7,6.9,3.4c1.4,2.7,0.7,5.8-1.7,7.9l-0.1,0.1l-8,3.3c0,0,0,0-0.1,0c-0.2,0.1-0.3,0.1-0.5,0.2l-0.4,0.1l0,0
						C193.9,120.7,193.4,120.8,192.9,120.8z M190.4,109.9l0.4,1c-1.8,0.8-2.5,3.2-1.6,5.2c0.9,2.1,3.2,3.1,5,2.2l0.1-0.1l1-0.5
						l0,0.1l6.7-2.8c1.8-1.7,1.7-3.8,1-5.2c-0.7-1.3-2.2-2.7-4.5-2.3l-6.7,2.8l0,0l-1.1,0.5L190.4,109.9L190.4,109.9z"/>
				</g>
				<g>
					<path class="st6" d="M187.3,103.2c-2.8,1.3-4.1,4.4-2.9,7c1.2,2.6,4.4,3.7,7.2,2.4c0.1,0,0.1-0.1,0.2-0.1l0,0l9.3-3.9
						c5.3-4.2,1.8-10.9-4.3-9.4l-9.3,3.9l0,0C187.4,103.1,187.3,103.1,187.3,103.2z"/>
					<path class="st5" d="M189.2,114.2c-2.4,0-4.7-1.3-5.7-3.5c-0.7-1.5-0.7-3.2-0.1-4.8c0.5-1.3,1.5-2.4,2.7-3.2l0-0.1l1-0.4
						l9.4-3.9c3.8-1,6.5,0.9,7.6,3.1c1.4,2.8,0.4,6-2.4,8.2l-0.1,0.1l-9.4,4c0,0-0.1,0-0.1,0c-0.2,0.1-0.4,0.2-0.6,0.2l-0.3,0.1l0,0
						C190.5,114,189.8,114.2,189.2,114.2z M187.7,104.1c-1.1,0.5-1.9,1.4-2.4,2.4c-0.4,1-0.4,2.2,0,3.1c0.9,2.1,3.5,2.9,5.8,1.9
						l0.1-0.1l1-0.5l0,0.1l8.2-3.4c2.3-1.9,2.4-4,1.7-5.5c-0.7-1.3-2.4-2.7-5.1-2l-9.2,3.9C187.8,104.1,187.8,104.1,187.7,104.1
						L187.7,104.1z"/>
				</g>
				<g>
					<path class="st6" d="M181.9,103.5c-2.4-0.9-5.2,0.6-6.2,3.3s0.2,5.6,2.6,6.4c0.1,0,0.1,0,0.2,0l0,0l7.8,3.2
						c5.7,0.4,8-6.9,3.5-9.7l-7.8-3.2l0,0C182,103.5,182,103.5,181.9,103.5z"/>
					<path class="st5" d="M186.8,117.5c-0.2,0-0.4,0-0.5,0l-0.2,0l-8-3.3c0,0-0.1,0-0.1,0c-0.2-0.1-0.3-0.1-0.5-0.2l-0.3-0.1l0,0
						c-2.4-1.4-3.5-4.5-2.5-7.5c0.6-1.5,1.6-2.8,3-3.5c1.1-0.6,2.4-0.8,3.6-0.6l0-0.1l1,0.4l7.9,3.2l0.1,0c2.4,1.5,3.5,4.5,2.5,7.2
						C192.1,115.8,189.7,117.5,186.8,117.5z M186.6,115.4c2.5,0.1,3.9-1.5,4.4-3c0.5-1.4,0.3-3.5-1.6-4.7l-7.7-3.2c0,0-0.1,0-0.1,0
						l0,0c-0.9-0.3-1.9-0.2-2.8,0.2c-0.9,0.5-1.6,1.3-2,2.4c-0.8,2.1,0.1,4.4,2,5.1l0.1,0l1,0.3l0,0.1L186.6,115.4z"/>
				</g>
			</g>
		</g>
	</g>
	<g>
		<g>
			<polygon class="st8" points="827.1,410.6 69,463.4 69,396.7 827.1,343.8 			"/>
		</g>
		<text transform="matrix(1 -6.972903e-02 0 1 114.3905 443.6202)" class="st6 st50 st51 st52">INCREÍBLE · FANTÁSTICA · APOTEÓSICA</text>
	</g>
	<g>
		<polygon class="st5" points="64,158 832.1,104.4 832.1,331.7 64,385.2 		"/>
		<path class="st6" d="M827.1,109.8V327L69,379.8V162.6L827.1,109.8 M837.1,99.1l-10.7,0.7L68.3,152.7l-9.3,0.6v9.3v217.2v10.7
			l10.7-0.7L827.8,337l9.3-0.6V327V109.8V99.1L837.1,99.1z"/>
	</g>
	<g>
		<text transform="matrix(1 -6.972903e-02 0 1 154.5517 326.981)" class="st10 st50 st53">el buscador</text>
		<text transform="matrix(1 -6.972903e-02 0 1 160.5518 319.5626)" class="st5 st50 st53">el buscador</text>
		<text transform="matrix(1 -6.972903e-02 0 1 170.9436 311.6222)" class="st6 st50 st53">el buscador</text>
	</g>
</g>
<g id="web">
	<rect x="89.9" y="515.9" class="st49" width="301.6" height="368.3"/>
	<text transform="matrix(1 0 0 1 89.9229 538.9644)"><tspan x="0" y="0" class="st50 st106">Haz fácil la navegación por </tspan><tspan x="0" y="33.6" class="st50 st106">tu página. </tspan><tspan x="110.9" y="33.6" class="st107 st106">Pónselo fácil a </tspan><tspan x="0" y="67.2" class="st107 st106">tus visitantes. Nadie va a </tspan><tspan x="0" y="100.8" class="st107 st106">estrujarse los sesos para </tspan><tspan x="0" y="134.4" class="st107 st106">encontrar tus productos o </tspan><tspan x="0" y="168" class="st107 st106">servicios. Ofréceles menús </tspan><tspan x="0" y="201.6" class="st107 st106">de navegación intuitivos, un </tspan><tspan x="0" y="235.2" class="st107 st106">buscador interno, botones </tspan><tspan x="0" y="268.8" class="st107 st106">fáciles de ver y de clicar, </tspan><tspan x="0" y="302.4" class="st107 st106">etc.</tspan></text>
	<g>
		<g>
			<path class="st5" d="M224,499.4c-6.7,0-12-5.3-12-12v-15.8c0-8.9,4-17.2,11.1-22.8l2.8-2.2c2.4-1.8,5.2-3.5,8.6-3.5
				c6.7,0,12.4,5.6,12.4,12.2c0,3.9-1.7,7.3-4.8,9.7l-2.4,1.9c-0.1,0.1-0.3,0.2-0.5,0.4l0.9,0.5c4.5,2.4,7.3,5.1,7.3,11.3v8.5
				c0,6.7-5.3,12-12,12H224z M186.6,499.4c-6.7,0-12-5.3-12-12v-15.8c0-8.9,4-17.2,11.1-22.8l2.8-2.2c2.4-1.8,5.2-3.5,8.6-3.5
				c6.7,0,12.4,5.6,12.4,12.2c0,3.9-1.7,7.3-4.8,9.7l-2.5,1.9c-0.1,0.1-0.3,0.2-0.4,0.4l0.9,0.5c4.5,2.4,7.3,5.1,7.3,11.3v8.5
				c0,6.7-5.3,12-12,12H186.6z"/>
			<path class="st6" d="M234.4,448c3.8,0,7.4,3.2,7.4,7.2c0,1.8-0.5,4-2.9,5.8l-2.5,2c-2,1.6-3.2,2.7-3.2,4.9c0,1.8,1.3,2.7,3.4,3.8
				l1.1,0.5c3.4,1.8,4.7,3.1,4.7,6.8v8.5c0,4-3.1,7-7,7H224c-4,0-7-3.1-7-7v-15.8c0-8.1,4-14.8,9.2-18.9l2.7-2.2
				C231,448.9,232.6,448,234.4,448 M197,448c3.8,0,7.4,3.2,7.4,7.2c0,1.8-0.5,4-2.9,5.8l-2.5,2c-2,1.6-3.2,2.7-3.2,4.9
				c0,1.8,1.3,2.7,3.4,3.8l1.1,0.5c3.4,1.8,4.7,3.1,4.7,6.8v8.5c0,4-3.1,7-7,7h-11.3c-4,0-7-3.1-7-7v-15.8c0-8.1,4-14.8,9.2-18.9
				l2.7-2.2C193.6,448.9,195.2,448,197,448 M234.4,438c-4.9,0-8.6,2.3-11.6,4.5l-0.1,0.1l-0.1,0.1l-2.7,2.2
				c-2.3,1.8-4.3,3.9-6.1,6.2c-1.9-7.4-8.9-13.1-16.8-13.1c-4.9,0-8.6,2.3-11.6,4.5l-0.1,0.1l-0.1,0.1l-2.7,2.2
				c-8.2,6.5-12.9,16.2-12.9,26.7v15.8c0,9.5,7.5,17,17,17h11.3c5.3,0,9.9-2.3,13-6c3.1,3.7,7.8,6,13,6h11.3c9.5,0,17-7.5,17-17
				v-8.5c0-5.9-2.1-9.7-4.9-12.2c2.9-3.1,4.4-7.1,4.4-11.5C251.8,445.9,243.8,438,234.4,438L234.4,438z"/>
		</g>
	</g>
	<g>
		<text transform="matrix(0.9762 -7.598437e-02 2.250000e-03 1 266.2312 135.8202)" class="st5 st50 st108">webconsejos</text>
		<g>
			<g>
				<path class="st10" d="M670.9,90.5c0.9,2.4,2.4,3.5,4.8,3.3c1.4-0.1,1.8-0.3,4.9-2.1c0.4-0.2,0.9-0.4,1.3-0.4
					c1.2-0.1,2.4,1,2.4,2.3c0,2.5-4.4,5.2-9,5.6c-6.4,0.5-10.9-3.6-11-9.9c0-6.6,4.4-11.7,10.3-12.2c5.6-0.4,10,3.9,10,9.9
					c0,1.7-0.8,2.5-2.6,2.6L670.9,90.5z M678.8,85.7c-0.3-1.2-0.5-1.6-0.9-2.2c-0.7-1-1.8-1.5-3.1-1.4c-2,0.2-3.3,1.4-4.2,4.2
					L678.8,85.7z"/>
				<path class="st10" d="M693.4,77.4c1.8-1.5,3.1-2,4.9-2.2c5.2-0.4,9.3,4.1,9.4,10.3c0,6.3-4,11.5-9.3,11.9c-2.3,0.2-3.7-0.4-5-2
					c-0.7,1.6-1.5,2.4-2.8,2.5c-1.8,0.1-3.1-1.1-3.1-3l-0.1-23.7c0-1.5,0-1.9,0.4-2.6c0.4-1,1.5-1.7,2.6-1.8
					c1.1-0.1,2.1,0.5,2.6,1.4c0.4,0.7,0.4,1,0.4,2.5L693.4,77.4z M693.4,86.6c0,3.1,1.8,5.2,4.2,5.1c2.3-0.2,4.1-2.6,4.1-5.7
					c0-3-1.8-5.2-4.1-5C695.2,81.2,693.4,83.6,693.4,86.6z"/>
				<path class="st10" d="M710.3,78c0-2.2,1.2-3.7,3.1-3.9c1.4-0.1,2.2,0.5,2.8,1.9c1.8-1.8,3.2-2.5,5.5-2.7
					c2.1-0.2,3.8,0.3,5.2,1.4c1.6,1.3,2.2,2.8,2.2,5.8l0,10.1c0,1.5,0,1.9-0.4,2.6c-0.4,1-1.5,1.7-2.6,1.8c-1.1,0.1-2.2-0.5-2.6-1.4
					c-0.4-0.7-0.4-1-0.4-2.5l0-8.7c0-2.4-1.3-3.8-3.4-3.6c-1.9,0.1-3.4,1.9-3.4,3.9l0,8.9c0,1.5,0,1.9-0.4,2.6
					c-0.4,1-1.5,1.7-2.6,1.8c-1.1,0.1-2.2-0.5-2.6-1.4c-0.4-0.7-0.4-1-0.4-2.5L710.3,78z"/>
				<path class="st10" d="M733.2,76.8c0-1.5,0-1.9,0.4-2.6c0.4-1,1.5-1.7,2.6-1.8c1.1-0.1,2.1,0.5,2.6,1.4c0.4,0.7,0.4,1,0.4,2.5
					l0,13.7c0,1.5,0,1.9-0.4,2.6c-0.4,1-1.5,1.7-2.6,1.8c-1.1,0.1-2.2-0.5-2.6-1.4c-0.4-0.7-0.4-1-0.4-2.5L733.2,76.8z M742.7,66.1
					c0-1.4-1.2-2.5-2.8-2.6l0,0l-0.1,0c-0.2,0-0.4,0-0.5,0c-0.2,0-0.4,0-0.6,0.1l-4.8,0.4c-0.2,0-0.4,0-0.5,0
					c-2,0.2-3.6,1.6-3.6,3.2c0,1.6,1.6,2.8,3.5,2.7c0,0,0.1,0,0.1,0l6.5-0.6C741.5,68.8,742.7,67.5,742.7,66.1z"/>
				<path class="st10" d="M758,74.8c0,1.4-1.1,2.8-2.3,2.9c-0.7,0.1-0.7,0.1-2.5-0.6c-0.9-0.4-1.7-0.5-2.3-0.5
					c-1,0.1-1.6,0.5-1.6,1.2c0,0.8,0.3,1,3.2,1.9c2.7,0.9,3.5,1.3,4.6,2.3c0.9,1,1.5,2.2,1.5,3.8c0,4.1-3.2,7.1-7.9,7.5
					c-4.1,0.3-7.7-1.5-7.7-3.9c0-1.4,1.2-2.9,2.5-3c0.7-0.1,0.7-0.1,3.1,0.9c1,0.4,1.8,0.5,2.4,0.5c1-0.1,1.8-0.8,1.8-1.6
					c0-0.7-0.5-1.1-2.3-1.6c-3-0.9-3.8-1.3-4.8-1.9c-1.4-0.9-2.1-2.3-2.1-4.3c0-3.8,3.3-6.9,7.7-7.3C754.8,70.8,758,72.6,758,74.8z"
					/>
				<path class="st10" d="M768.5,64.3c0,2-1.5,3.7-3.5,3.9c-2,0.2-3.5-1.3-3.5-3.3c0-2,1.6-3.7,3.6-3.8
					C766.9,60.8,768.5,62.3,768.5,64.3z M762,74.5c0-1.5,0-1.9,0.4-2.6c0.4-1,1.5-1.7,2.6-1.8c1.1-0.1,2.1,0.5,2.6,1.4
					c0.4,0.7,0.4,1,0.4,2.5l0,13.7c0,1.5,0,1.9-0.4,2.6c-0.4,1-1.5,1.7-2.6,1.8c-1.1,0.1-2.2-0.5-2.6-1.4c-0.4-0.7-0.4-1-0.4-2.5
					L762,74.5z"/>
				<path class="st10" d="M772.2,73.2c0-2.1,1.2-3.7,3-3.8c1.2-0.1,1.8,0.3,2.9,1.8c1.7-1.7,3.1-2.4,5.3-2.6c1.5-0.1,3,0.1,4.1,0.7
					c0.6,0.3,1,0.6,1.7,1.5c2.4-2.2,4-3,6.3-3.2c4.2-0.3,7.3,2.5,7.3,6.6l0,10.8c0,1.5,0,1.9-0.4,2.6c-0.4,1-1.5,1.7-2.6,1.8
					c-1.1,0.1-2.2-0.5-2.6-1.4c-0.4-0.7-0.4-1-0.4-2.5l0-9.4c0-1.9-1.2-3.1-3.1-3s-3.1,1.5-3.1,3.4l0,9.4c0,1.5,0,1.9-0.4,2.6
					c-0.4,1-1.5,1.7-2.6,1.8c-1.1,0.1-2.2-0.5-2.6-1.4c-0.4-0.7-0.4-1-0.4-2.5l0-8.8c0-2.4-1.2-3.7-3.1-3.5
					c-1.8,0.1-3.1,1.6-3.1,3.4l0,9.4c0,1.5,0,1.9-0.4,2.6c-0.4,1-1.5,1.7-2.6,1.8c-1.1,0.1-2.2-0.5-2.6-1.4c-0.4-0.7-0.4-1-0.4-2.5
					L772.2,73.2z"/>
				<path class="st10" d="M826,83.7c0,2.2-1.2,3.8-3,3.9c-1.4,0.1-2.4-0.6-3-2.2c-1.5,2.1-2.7,2.8-4.9,2.9c-2.2,0.2-4.2-0.5-5.9-1.9
					c-2.4-2-3.6-4.8-3.6-8.5c0-3.4,1-6,3.1-8.4c1.8-2,3.9-3.1,6.3-3.3c2.1-0.2,3.4,0.4,5.1,2c0.7-1.7,1.6-2.4,3-2.5
					c1.7-0.1,3,1.2,3,2.9L826,83.7z M811.5,77.4c0,3.2,1.6,5.3,4.2,5.1c2.5-0.2,4.1-2.5,4.1-5.7c0-3.2-1.7-5.2-4.2-5
					C813.1,72,811.5,74.3,811.5,77.4z"/>
			</g>
			<g>
				<path class="st5" d="M661.4,79.6c-0.4-0.7-1.1-1.2-1.9-1.3c-0.2,0-0.5-0.1-0.7,0c-0.2,0-0.5,0.1-0.7,0.1
					c-0.8,0.3-1.6,0.9-1.9,1.6c-0.3,0.5-0.4,0.9-0.4,1.5c0,0.3,0,10.8,0,10.8c0,1-0.3,1.5-0.6,1.9c-0.4,0.4-0.9,0.6-1.4,0.7
					c-0.6,0-1.1-0.2-1.5-0.6c-0.3-0.4-0.6-0.8-0.6-1.7l0-10.1l0,0c0-1.2-0.1-1.6-0.4-2.2c-0.4-0.7-1.1-1.2-1.9-1.3
					c-0.2,0-0.5-0.1-0.7,0c-0.2,0-0.5,0.1-0.7,0.1c-0.8,0.3-1.6,0.9-1.9,1.6c-0.3,0.5-0.4,0.9-0.4,1.5c0,0.2,0,0.8,0,0.8l0,10
					c0,1-0.3,1.5-0.6,1.9c-0.4,0.4-0.9,0.6-1.4,0.7c-0.6,0-1.1-0.2-1.5-0.6c-0.3-0.4-0.6-0.8-0.6-1.7l-0.1-9.7c0-1.5,0-1.8-0.4-2.5
					c-0.4-0.7-1.1-1.2-1.9-1.3c-0.2,0-0.5-0.1-0.7,0c-0.2,0-0.5,0.1-0.7,0.1c-0.8,0.3-1.6,0.9-1.9,1.6c-0.3,0.5-0.4,0.9-0.4,1.5
					c0,0.3,0,11,0,11c0,3,1,4.8,2.7,6c1.5,1.1,3.4,1.6,5.2,1.4c1.6-0.1,2.9-0.5,4-1.3l0.5-0.4c0.3-0.2,0.6-0.4,0.8-0.4
					c0.3,0,0.5,0.1,0.8,0.2l0.6,0.3c1.1,0.6,2.5,0.8,4,0.6c1.9-0.1,3.6-0.9,5.1-2.2c1.7-1.5,2.7-3.4,2.7-6.4l0-10
					C661.9,80.6,661.8,80.3,661.4,79.6z"/>
				<g>
					<g>
						<path class="st9" d="M648.6,72.1c-6,0.6-11,0.1-11-1c0-0.4,0.7-0.7,1.7-1.2c4.4-2,6.7-2.6,10.8-2.6c2.9,0,6.2-0.2,8.5,1.1
							c0.6,0.2,0.9,0.4,0.9,0.7C659.6,70.2,654.7,71.6,648.6,72.1z M665,68.7c-0.1-2.8-5.1-4.3-16.4-3.3c-10.7,1-16.3,3.5-16.3,6.3
							c0.1,4.3,7.4,5.9,16.5,5C657.7,76,665,73.1,665,68.7z"/>
					</g>
				</g>
			</g>
		</g>
	</g>
	<g>
		<ellipse class="st11" cx="458.5" cy="567.8" rx="30.1" ry="41.4"/>
		<ellipse class="st11" cx="756.5" cy="567.8" rx="30.1" ry="41.4"/>
		<g>
			<path class="st11" d="M750.8,582.5c1,53.5,0,112.1-143.6,112.2c-75.8,0.1-144-22.6-143.6-112.2c0.4-112.2,51.8-141.5,144-141.5
				C723.7,440.9,749.1,490.4,750.8,582.5z"/>
			<path class="st11" d="M508.5,576.2c0,0,6.1-17.4,24.6-14.3c18.6,3.1,20.6,14.3,20.6,14.3"/>
			<path class="st11" d="M651.4,576.2c0,0,6.1-17.4,24.6-14.3c18.6,3.1,20.6,14.3,20.6,14.3"/>
			<path class="st11" d="M590.5,593.4c0,0-5,24.9,14.2,23c19.2-1.9,20.5-19.1,20.5-19.1"/>
		</g>
		<path class="st4" d="M549.5,355c-21.1-12.9,6.5-55.5,27.6-42.6c21.1,12.9,23.8,38,20.6,43.1C593.9,361.8,570.6,367.9,549.5,355z"
			/>
		<path class="st4" d="M624.2,311.8c22.2-10.9,43.4,35.2,21.3,46.1c-22.2,10.9-44.8-0.2-47.5-5.6
			C594.8,345.7,602.1,322.7,624.2,311.8z"/>
		<path class="st4" d="M749.5,431c25.7,47,1.7,92.1-142,92.3c-75.8,0.1-177.6-8.7-145.3-92.3c17-44,55.8-74.7,131.9-74.7
			C710.4,356.3,737.1,408.4,749.5,431z"/>
		<path class="st12" d="M456.5,449.8c0,0,54.7,38.5,139.6,35.3c84.9-3.2,161-34.7,161-34.7"/>
		<path class="st12" d="M581.9,356.5c0,0-37.8,25.4-50.6,46.5c-22.7,37.4-10.7,68.1-10.7,68.1"/>
		<path class="st12" d="M619,355.9c0,0,37.8,25.4,50.6,46.5c22.7,37.4,10.7,68.1,10.7,68.1"/>
		<polygon class="st5" points="463.5,582.5 488.6,582.5 508.5,513.3 480.2,496.5 466.8,539.5 		"/>
		<polygon class="st5" points="749,582.1 723.9,582.1 704,513 732.3,496.1 745.7,539.1 		"/>
		<path class="st5" d="M570.1,607.4c-20,5.3-24,40.1-50.8,48.4c-26.7,8.3-21.5-25.7-21.5-25.7c0.1-0.2,0.1-0.4,0.1-0.7
			c0-4.1-12.6-7.3-28.1-7.3c-15.5,0-28.1,3.3-28.1,7.3c0,0.6-0.6,9.1,1.3,15.5c13.4,44,54.8,52,81.5,40c26.7-12,41.6-42.8,45.4-53.4
			c5.3-14.7,25.4-16,25.4-16v-9.4C595.5,606.1,589,602.4,570.1,607.4z"/>
		<g>
			<rect x="669.6" y="668.8" class="st5" width="31" height="166.4"/>
			<g>
				<circle class="st90" cx="683.6" cy="597.4" r="76.8"/>
				<g>
					<path class="st11" d="M589.8,776.6c0,30.1,24.4,54.5,54.5,54.5h81.8c30.1,0,54.5-24.4,54.5-54.5c0-30.1-24.4-54.5-54.5-54.5
						h-81.8C614.2,722.1,589.8,746.5,589.8,776.6z"/>
					<line class="st12" x1="651.2" y1="794.8" x2="593" y2="794.8"/>
					<line class="st12" x1="651.2" y1="767.5" x2="593" y2="767.5"/>
				</g>
			</g>
		</g>
	</g>
	<g>
		<defs>
			<rect id="SVGID_00000047743507483467625310000015668209225751344571_" x="1.7" y="1.8" width="897" height="897"/>
		</defs>
		<clipPath id="SVGID_00000160179904248311211340000012935767064022064830_">
			<use xlink:href="#SVGID_00000047743507483467625310000015668209225751344571_"  style="overflow:visible;"/>
		</clipPath>
		<g style="opacity:0.24;clip-path:url(#SVGID_00000160179904248311211340000012935767064022064830_);">
			
				<image style="overflow:visible;" width="872" height="872" xlink:href="E62354937CEA3596.png"  transform="matrix(1.2385 0 0 1.2385 -108.5 -126)">
			</image>
		</g>
	</g>
</g>
<g id="halftone">
</g>
</svg>
