<?xml version="1.0" encoding="utf-8"?>
<!-- Generator: Adobe Illustrator 27.3.1, SVG Export Plug-In . SVG Version: 6.00 Build 0)  -->
<svg version="1.1" xmlns="http://www.w3.org/2000/svg" xmlns:xlink="http://www.w3.org/1999/xlink" x="0px" y="0px"
	 viewBox="0 0 900 900" style="enable-background:new 0 0 900 900;" xml:space="preserve">
<style type="text/css">
	.st0{display:none;}
	.st1{display:inline;opacity:0.28;}
	.st2{fill:none;stroke:#000000;stroke-width:0.75;stroke-miterlimit:10;}
	.st3{fill:none;stroke:#000000;stroke-width:4;stroke-linecap:round;stroke-linejoin:round;stroke-miterlimit:10;}
	.st4{fill:#FCCF72;stroke:#1A2276;stroke-width:6;stroke-miterlimit:10;}
	.st5{fill:#1A2276;}
	.st6{fill:#EBEAD8;}
	.st7{fill:#ED8376;stroke:#E90302;stroke-width:17;stroke-linecap:round;stroke-linejoin:round;stroke-miterlimit:10;}
	.st8{fill:#E90302;}
	.st9{fill:#FCCF72;}
	.st10{fill:#8288A8;}
	.st11{fill:#EBEAD8;stroke:#1A2276;stroke-width:6;stroke-miterlimit:10;}
	.st12{fill:none;stroke:#1A2276;stroke-width:6;stroke-miterlimit:10;}
	.st13{fill:#E90302;stroke:#1A2276;stroke-width:6;stroke-miterlimit:10;}
	.st14{fill:#EBBFAF;}
	
		.st15{clip-path:url(#SVGID_00000062896936409352451050000002335009835271703961_);fill:#FCCF72;stroke:#1A2276;stroke-width:6;stroke-miterlimit:10;}
	
		.st16{clip-path:url(#SVGID_00000010999812582183634450000005957352393684147840_);fill:#FCCF72;stroke:#1A2276;stroke-width:6;stroke-miterlimit:10;}
	
		.st17{clip-path:url(#SVGID_00000157992177612322990410000002150292540654885551_);fill:#FCCF72;stroke:#1A2276;stroke-width:6;stroke-miterlimit:10;}
	
		.st18{clip-path:url(#SVGID_00000156572327359928629700000010414358480582383289_);fill:#FCCF72;stroke:#1A2276;stroke-width:6;stroke-miterlimit:10;}
	
		.st19{clip-path:url(#SVGID_00000150814444896584872100000012062401706399025342_);fill:#FCCF72;stroke:#1A2276;stroke-width:6;stroke-miterlimit:10;}
	.st20{fill:#FFFFFF;}
	
		.st21{clip-path:url(#SVGID_00000134967569170626291760000003919076884800400056_);fill:#FCCF72;stroke:#1A2276;stroke-width:6;stroke-miterlimit:10;}
	.st22{fill:none;stroke:#1A2276;stroke-width:6;stroke-linecap:round;stroke-miterlimit:10;}
	
		.st23{clip-path:url(#SVGID_00000165222037131892480140000007761845858749626550_);fill:#FCCF72;stroke:#1A2276;stroke-width:6;stroke-miterlimit:10;}
	
		.st24{clip-path:url(#SVGID_00000104677420331446155920000016478018899269594240_);fill:#FCCF72;stroke:#1A2276;stroke-width:6;stroke-miterlimit:10;}
	
		.st25{clip-path:url(#SVGID_00000012462013644166848280000016136250929029137082_);fill:#FCCF72;stroke:#1A2276;stroke-width:6;stroke-miterlimit:10;}
	
		.st26{clip-path:url(#SVGID_00000069367276255430565290000006862135953008830345_);fill:#FCCF72;stroke:#1A2276;stroke-width:6;stroke-miterlimit:10;}
	
		.st27{clip-path:url(#SVGID_00000101803430655203080970000016466269244285920422_);fill:#FCCF72;stroke:#1A2276;stroke-width:6;stroke-miterlimit:10;}
	
		.st28{clip-path:url(#SVGID_00000024720319716638932660000002192532338930604458_);fill:#FCCF72;stroke:#1A2276;stroke-width:6;stroke-miterlimit:10;}
	.st29{fill:none;stroke:#000000;stroke-width:4;stroke-miterlimit:10;}
	.st30{fill:#FCCF72;stroke:#000000;stroke-width:4;stroke-miterlimit:10;}
	.st31{fill:none;stroke:#000000;stroke-width:5;stroke-linecap:round;stroke-miterlimit:10;}
	
		.st32{clip-path:url(#SVGID_00000005978396283627931420000010304588616445024655_);fill:#FCCF72;stroke:#1A2276;stroke-width:6;stroke-miterlimit:10;}
	
		.st33{clip-path:url(#SVGID_00000095311253756771988210000003421337489287178634_);fill:#FCCF72;stroke:#1A2276;stroke-width:6;stroke-miterlimit:10;}
	
		.st34{clip-path:url(#SVGID_00000005263736997281987820000013906583904904530825_);fill:#FCCF72;stroke:#1A2276;stroke-width:6;stroke-miterlimit:10;}
	
		.st35{clip-path:url(#SVGID_00000000927020406810865540000000725696941978917771_);fill:#FCCF72;stroke:#1A2276;stroke-width:6;stroke-miterlimit:10;}
	.st36{fill:#E90302;stroke:#EBBFAF;stroke-width:6;stroke-miterlimit:10;}
	.st37{clip-path:url(#SVGID_00000134956586505690758520000016670604701360584354_);fill:#FCCF72;}
	.st38{clip-path:url(#SVGID_00000134956586505690758520000016670604701360584354_);fill:#1A2276;}
	.st39{clip-path:url(#SVGID_00000072989957377558545680000002935781992006950843_);fill:#8288A8;}
	.st40{fill:#020202;}
	.st41{clip-path:url(#SVGID_00000062881844451017548720000014679875816320958084_);}
	.st42{fill:#EBEAD8;stroke:#1A2276;stroke-width:3;stroke-miterlimit:10;}
	.st43{fill:#8288A8;stroke:#8288A8;stroke-miterlimit:10;}
	.st44{fill:#1A2276;stroke:#FCCF72;stroke-width:6;stroke-miterlimit:10;}
	.st45{fill:none;stroke:#EBEAD8;stroke-width:6;stroke-miterlimit:10;}
	.st46{fill:#8288A8;stroke:#1A2276;stroke-width:6;stroke-miterlimit:10;}
	.st47{fill:#FCCF72;stroke:#8288A8;stroke-width:6;stroke-miterlimit:10;}
	.st48{clip-path:url(#SVGID_00000008135333188848450230000018084357872684057529_);}
	.st49{fill:none;}
	.st50{fill:#ED8376;}
	.st51{fill:url(#);}
	.st52{fill:#1A2276;stroke:url(#);stroke-miterlimit:10;}
	.st53{fill:#ED8376;stroke:#E90302;stroke-width:6;stroke-linecap:round;stroke-linejoin:round;stroke-miterlimit:10;}
	.st54{fill:none;stroke:#E90302;stroke-width:6;stroke-linecap:round;stroke-linejoin:round;stroke-miterlimit:10;}
	.st55{fill:none;stroke:#E90302;stroke-width:5;stroke-linecap:round;stroke-linejoin:round;stroke-miterlimit:10;}
	.st56{fill:#FFFFFF;stroke:#000000;stroke-width:6;stroke-miterlimit:10;}
	.st57{fill:#FFFDFD;stroke:#1A2276;stroke-width:7;stroke-miterlimit:10;}
	
		.st58{clip-path:url(#SVGID_00000131336304168639305700000012597859169650135976_);fill:#FCCF72;stroke:#1A2276;stroke-width:6;stroke-miterlimit:10;}
	
		.st59{clip-path:url(#SVGID_00000157267819147410099200000016375646764108779424_);fill:#FCCF72;stroke:#1A2276;stroke-width:6;stroke-miterlimit:10;}
	.st60{fill:none;stroke:#E90302;stroke-width:6;stroke-linecap:round;stroke-miterlimit:10;}
	
		.st61{clip-path:url(#SVGID_00000029765087725466141490000017324374976554005145_);fill:#FCCF72;stroke:#1A2276;stroke-width:6;stroke-miterlimit:10;}
	
		.st62{clip-path:url(#SVGID_00000114782428628066015730000015651381394477498534_);fill:#FCCF72;stroke:#1A2276;stroke-width:6;stroke-miterlimit:10;}
	
		.st63{clip-path:url(#SVGID_00000052825010690835265130000008288135349364151226_);fill:#FCCF72;stroke:#1A2276;stroke-width:6;stroke-miterlimit:10;}
	.st64{fill:none;stroke:#1A2276;stroke-width:7;stroke-miterlimit:10;}
	
		.st65{clip-path:url(#SVGID_00000167393362339905445730000008379498032327899294_);fill:#FCCF72;stroke:#1A2276;stroke-width:6;stroke-miterlimit:10;}
	.st66{clip-path:url(#SVGID_00000067942557962195417130000011405446695611324832_);}
	
		.st67{clip-path:url(#SVGID_00000117637898718886922130000000259948496272738711_);fill:#FCCF72;stroke:#1A2276;stroke-width:6;stroke-miterlimit:10;}
	
		.st68{clip-path:url(#SVGID_00000065052737384012252620000014514048853765832629_);fill:#FCCF72;stroke:#1A2276;stroke-width:6;stroke-miterlimit:10;}
	
		.st69{clip-path:url(#SVGID_00000031171579695405130070000002265724499859240842_);fill:#FCCF72;stroke:#1A2276;stroke-width:6;stroke-miterlimit:10;}
	.st70{clip-path:url(#SVGID_00000090293105812135472660000018123797357968115901_);}
	.st71{clip-path:url(#SVGID_00000027594851170417688070000013410949235728204417_);}
	.st72{clip-path:url(#SVGID_00000120534848776290022970000006791525535355658642_);}
	.st73{opacity:0.5;}
	.st74{clip-path:url(#SVGID_00000045615298944012214020000001628665066482111636_);}
	.st75{clip-path:url(#SVGID_00000051357363164344794790000010601063985519355818_);}
	.st76{fill:#FFFDFD;}
	.st77{clip-path:url(#SVGID_00000062877889182887961160000017569237394368657304_);}
	.st78{opacity:0.8;}
	
		.st79{clip-path:url(#SVGID_00000056404832550941467980000006672292515139723433_);fill:#FCCF72;stroke:#1A2276;stroke-width:6;stroke-miterlimit:10;}
	
		.st80{clip-path:url(#SVGID_00000111169712237816261520000012461427274659035294_);fill:#FCCF72;stroke:#1A2276;stroke-width:6;stroke-miterlimit:10;}
	.st81{clip-path:url(#SVGID_00000085221400649709083410000003678440648884095132_);}
	.st82{clip-path:url(#SVGID_00000172428535778696328680000003979595790493360023_);}
	.st83{clip-path:url(#SVGID_00000101102064429071579250000014299528695875915707_);}
	.st84{clip-path:url(#SVGID_00000021117960412567385850000007820119125254248343_);}
	.st85{clip-path:url(#SVGID_00000083060619478698852220000013531688282197014974_);}
	.st86{fill:none;stroke:#1A2276;stroke-width:19;stroke-miterlimit:10;}
	.st87{clip-path:url(#SVGID_00000027595917625122685190000008948076642645685946_);}
	.st88{fill:none;stroke:#1A2276;stroke-width:10;stroke-miterlimit:10;}
	.st89{clip-path:url(#SVGID_00000181085682979224468530000012052753508029106603_);}
	.st90{clip-path:url(#SVGID_00000087403864099216132690000011642916056287411087_);fill:#FCCF72;}
	.st91{clip-path:url(#SVGID_00000087403864099216132690000011642916056287411087_);fill:#1A2276;}
	.st92{font-family:'Aptly-Bold';}
	.st93{font-size:40.1137px;}
	.st94{letter-spacing:4;}
	.st95{font-size:122.4095px;}
	.st96{font-size:28px;}
	.st97{font-family:'Aptly';}
	.st98{font-size:70.872px;}
	.st99{clip-path:url(#SVGID_00000147215119219431690030000015130414649370899868_);}
	.st100{clip-path:url(#SVGID_00000077325124382358896770000002135582349210290085_);}
	.st101{clip-path:url(#SVGID_00000077325124382358896770000002135582349210290085_);fill:none;}
	.st102{clip-path:url(#SVGID_00000033362018297283727020000008020076365916245380_);fill:#8288A8;}
	.st103{clip-path:url(#SVGID_00000033362018297283727020000008020076365916245380_);fill:#FCCF72;}
	.st104{fill:#FFFFFF;stroke:#FFFFFF;stroke-width:6;stroke-miterlimit:10;}
	.st105{fill:none;stroke:#8288A8;stroke-width:6;stroke-miterlimit:10;}
	.st106{clip-path:url(#SVGID_00000070804869918358614010000009449125220458814854_);}
	.st107{clip-path:url(#SVGID_00000065794012302536003330000001420182442538093999_);}
	.st108{clip-path:url(#SVGID_00000124136514843068541350000009983642140255024315_);}
	.st109{clip-path:url(#SVGID_00000017481115785096844110000017736387511507690414_);}
	.st110{clip-path:url(#SVGID_00000101099497355745039190000010445515682939201183_);}
	.st111{fill:#EBEAD8;stroke:#1A2276;stroke-width:12;stroke-miterlimit:10;}
	.st112{fill:none;stroke:#1A2276;stroke-width:12;stroke-miterlimit:10;}
	.st113{clip-path:url(#SVGID_00000182511707452913769820000014768747296661200024_);}
	.st114{clip-path:url(#SVGID_00000079451511392576987260000009699650639296484269_);}
	.st115{clip-path:url(#SVGID_00000034075517019572755570000016056877079834441138_);}
	.st116{clip-path:url(#SVGID_00000086653421379279205620000013794383960436952984_);}
	.st117{clip-path:url(#SVGID_00000060008200822316219480000016398153549887026603_);}
	.st118{clip-path:url(#SVGID_00000034778576552198917570000002349629135566715542_);fill:#8288A8;}
	.st119{clip-path:url(#SVGID_00000034778576552198917570000002349629135566715542_);fill:#FCCF72;}
	.st120{clip-path:url(#SVGID_00000183220703037246278150000012908256561719268017_);}
	.st121{clip-path:url(#SVGID_00000025428805073743813310000005213563053273441431_);fill:#E90302;}
	.st122{clip-path:url(#SVGID_00000021080307979540482750000012387352060136176051_);fill:none;}
	.st123{clip-path:url(#SVGID_00000181087870627975111050000007145655105188322738_);}
	.st124{clip-path:url(#SVGID_00000132053465028376125150000005382029065727012796_);}
	.st125{clip-path:url(#SVGID_00000077295663852853382250000003133820346984361359_);}
	.st126{clip-path:url(#SVGID_00000075843141756024374260000004040699557887015863_);}
	.st127{clip-path:url(#SVGID_00000167394131102741253140000016649335413638887303_);}
	.st128{clip-path:url(#SVGID_00000038397986065629077610000005879578860046897073_);}
	.st129{clip-path:url(#SVGID_00000158747047719873708770000004476823858370669245_);}
	.st130{clip-path:url(#SVGID_00000111904402333111283260000017411951281713891494_);}
	.st131{clip-path:url(#SVGID_00000130629712526719178270000011551140005529967253_);}
	.st132{clip-path:url(#SVGID_00000065788783123231557530000005011727634410462137_);}
	.st133{clip-path:url(#SVGID_00000053517774865544735200000003857064582049039027_);}
	.st134{clip-path:url(#SVGID_00000042711475851343755180000017884430962064418227_);}
	.st135{clip-path:url(#SVGID_00000151526468808914001940000003798233148090952378_);fill:#EBEAD8;}
	.st136{clip-path:url(#SVGID_00000151526468808914001940000003798233148090952378_);}
	.st137{clip-path:url(#SVGID_00000044166057129654129470000016790324010680640652_);}
	.st138{clip-path:url(#SVGID_00000057136116112342294330000012215053515702248073_);}
	.st139{clip-path:url(#SVGID_00000053543338403089324120000017352300880454774162_);}
	.st140{clip-path:url(#SVGID_00000150781547333366623680000002439751281713004973_);}
	.st141{clip-path:url(#SVGID_00000030466651083082346130000007665860158244760739_);}
	.st142{fill:#ED8376;stroke:#1A2276;stroke-width:6;stroke-miterlimit:10;}
	.st143{fill:url(#);stroke:#1A2276;stroke-width:6;stroke-miterlimit:10;}
	.st144{clip-path:url(#SVGID_00000101069534894619218080000014861820167294350000_);}
	
		.st145{clip-path:url(#SVGID_00000159434035012807166920000002119391805758295487_);fill:#FCCF72;stroke:#1A2276;stroke-width:6;stroke-miterlimit:10;}
	.st146{fill:none;stroke:#FCCF72;stroke-width:6;stroke-linecap:round;stroke-miterlimit:10;}
	.st147{clip-path:url(#SVGID_00000010275778685419541490000009280175897771978909_);}
</style>
<g id="guias" class="st0">
</g>
<g id="Layer_2">
</g>
<g id="Layer_1">
</g>
<g id="web">
	<g>
		<rect x="0.5" y="4" class="st6" width="897" height="897"/>
		<g>
			<polygon class="st7" points="224.2,70.4 222.2,101.4 240.5,126.9 219.1,149 217.1,180 186.4,182.8 165,204.9 139.3,187.1 
				108.5,189.9 99.8,159.8 74.1,142 86.5,113.8 77.9,83.7 105.6,70.5 118.1,42.2 148.1,50.2 175.8,37 194.2,62.4 			"/>
			<g>
				<g>
					<path class="st6" d="M145.8,164.9c0-4.7,3.8-8.5,8.5-8.5c4.7,0,8.5,3.8,8.5,8.5v5.3h4.6c4.7,0,8.5,3.8,8.5,8.5
						s-3.8,8.5-8.5,8.5h-12.8c-4,0-7.3-2.7-8.3-6.4c-0.4-1-0.6-2-0.6-3.2V164.9z"/>
					<path class="st5" d="M167.4,188.4h-12.8c-4.4,0-8.2-2.9-9.3-7.2c-0.4-1.1-0.7-2.3-0.7-3.5v-12.8c0-5.3,4.3-9.6,9.6-9.6
						c5.3,0,9.6,4.3,9.6,9.6v4.3h3.5c5.3,0,9.6,4.3,9.6,9.6C177,184.1,172.7,188.4,167.4,188.4z M154.3,157.5
						c-4.1,0-7.4,3.3-7.4,7.4v12.8c0,1,0.2,1.9,0.5,2.8l0,0.1c0.8,3.3,3.8,5.6,7.2,5.6h12.8c4.1,0,7.4-3.3,7.4-7.4
						c0-4.1-3.3-7.4-7.4-7.4h-5.7v-6.4C161.8,160.8,158.4,157.5,154.3,157.5z"/>
				</g>
				<g>
					<line class="st6" x1="175.9" y1="180.7" x2="146.5" y2="180.7"/>
					<rect x="146.5" y="179.7" class="st5" width="29.4" height="2.1"/>
				</g>
				<g>
					<line class="st6" x1="162.8" y1="170.3" x2="158.4" y2="176.1"/>
					
						<rect x="156.9" y="172.1" transform="matrix(0.6034 -0.7974 0.7974 0.6034 -74.4307 196.7633)" class="st5" width="7.3" height="2.1"/>
				</g>
				<g>
					<line class="st6" x1="167.1" y1="171" x2="162.6" y2="176.9"/>
					
						<rect x="161.2" y="172.9" transform="matrix(0.6034 -0.7974 0.7974 0.6034 -73.3084 200.4387)" class="st5" width="7.3" height="2.1"/>
				</g>
				<g>
					<line class="st6" x1="171.3" y1="171.7" x2="166.9" y2="177.6"/>
					
						<rect x="165.4" y="173.6" transform="matrix(0.6034 -0.7974 0.7974 0.6034 -72.1861 204.1141)" class="st5" width="7.3" height="2.1"/>
				</g>
				<g>
					<circle class="st6" cx="153.4" cy="171.2" r="3.5"/>
					<path class="st5" d="M153.4,175.8c-2.5,0-4.6-2.1-4.6-4.6c0-2.5,2.1-4.6,4.6-4.6s4.6,2.1,4.6,4.6
						C158,173.7,156,175.8,153.4,175.8z M153.4,168.7c-1.4,0-2.5,1.1-2.5,2.5s1.1,2.5,2.5,2.5s2.5-1.1,2.5-2.5
						S154.8,168.7,153.4,168.7z"/>
				</g>
				<g>
					<g>
						<path class="st6" d="M113.2,164.9c0-4.7,3.8-8.5,8.5-8.5s8.5,3.8,8.5,8.5v5.3h4.6c4.7,0,8.5,3.8,8.5,8.5s-3.8,8.5-8.5,8.5H122
							c-4,0-7.3-2.7-8.3-6.4c-0.4-1-0.6-2-0.6-3.2V164.9z"/>
						<path class="st5" d="M134.8,188.4H122c-4.4,0-8.2-2.9-9.3-7.2c-0.4-1.1-0.7-2.3-0.7-3.5v-12.8c0-5.3,4.3-9.6,9.6-9.6
							c5.3,0,9.6,4.3,9.6,9.6v4.3h3.5c5.3,0,9.6,4.3,9.6,9.6C144.4,184.1,140.1,188.4,134.8,188.4z M121.7,157.5
							c-4.1,0-7.4,3.3-7.4,7.4v12.8c0,1,0.2,1.9,0.5,2.8l0,0.1c0.8,3.3,3.8,5.6,7.2,5.6h12.8c4.1,0,7.4-3.3,7.4-7.4
							c0-4.1-3.3-7.4-7.4-7.4h-5.7v-6.4C129.1,160.8,125.8,157.5,121.7,157.5z"/>
					</g>
					<g>
						<line class="st6" x1="143.3" y1="180.7" x2="113.9" y2="180.7"/>
						<rect x="113.9" y="179.7" class="st5" width="29.4" height="2.1"/>
					</g>
					<g>
						<line class="st6" x1="130.2" y1="170.3" x2="125.8" y2="176.1"/>
						
							<rect x="124.3" y="172.1" transform="matrix(0.6034 -0.7974 0.7974 0.6034 -87.3715 170.742)" class="st5" width="7.3" height="2.1"/>
					</g>
					<g>
						<line class="st6" x1="134.5" y1="171" x2="130" y2="176.9"/>
						
							<rect x="128.6" y="172.9" transform="matrix(0.6034 -0.7974 0.7974 0.6034 -86.2493 174.4174)" class="st5" width="7.3" height="2.1"/>
					</g>
					<g>
						<line class="st6" x1="138.7" y1="171.7" x2="134.3" y2="177.6"/>
						
							<rect x="132.8" y="173.6" transform="matrix(0.6034 -0.7974 0.7974 0.6034 -85.127 178.0928)" class="st5" width="7.3" height="2.1"/>
					</g>
					<g>
						<circle class="st6" cx="120.8" cy="171.2" r="3.5"/>
						<path class="st5" d="M120.8,175.8c-2.5,0-4.6-2.1-4.6-4.6c0-2.5,2.1-4.6,4.6-4.6s4.6,2.1,4.6,4.6
							C125.4,173.7,123.3,175.8,120.8,175.8z M120.8,168.7c-1.4,0-2.5,1.1-2.5,2.5s1.1,2.5,2.5,2.5c1.4,0,2.5-1.1,2.5-2.5
							S122.2,168.7,120.8,168.7z"/>
					</g>
				</g>
				<g>
					<ellipse class="st6" cx="147.7" cy="128.4" rx="38.1" ry="29.8"/>
					<path class="st5" d="M147.7,159.3c-19.3,0-29,0-34-3.9c-5.2-4-5.2-11.7-5.2-26.9s0-22.9,5.2-26.9c5.1-3.9,14.7-3.9,34-3.9
						c19.3,0,29,0,34,3.7c5.2,3.8,5.2,11.1,5.2,25.5l0,1.6l0,1.6c0,14.4,0,21.7-5.2,25.5C176.7,159.3,167,159.3,147.7,159.3z
						 M147.7,99.7c-18.8,0-28.2,0-32.7,3.5c-4.4,3.4-4.4,10.7-4.4,25.2s0,21.8,4.4,25.2c4.5,3.5,13.9,3.5,32.7,3.5
						c18.8,0,28.3,0,32.7-3.3c4.3-3.2,4.3-10.1,4.3-23.8l0-1.6l0-1.6c0-13.7,0-20.6-4.3-23.8C176,99.7,166.6,99.7,147.7,99.7z"/>
				</g>
				<g>
					<path class="st8" d="M147.9,147.6c-38.8,0-38.3-12.2-38.3-11.5c0,27.8,0.2,27.8,38.1,27.8c37.3,0,38.1,0,38.1-27.8
						C185.9,135.4,186.1,147.6,147.9,147.6z"/>
					<path class="st5" d="M147.8,165c-19.2,0-28.9,0-33.9-3.7c-5.3-3.8-5.3-11.4-5.3-25.2h0c0-0.5,0.2-0.7,0.3-0.8l0.5-0.5l1.3,0.5
						v0.7c0.1,0.5,2,10.5,37.2,10.5c35.1,0,36.9-10.2,36.9-10.6l0.1-1l2,0.1l0,1c0,14.4-0.2,21.5-5.5,25.2
						C176.3,165,166.8,165,147.8,165z M110.7,140.1c0,10.8,0.5,16.6,4.4,19.4c4.5,3.3,13.9,3.3,32.7,3.3c18.5,0,27.8,0,32.4-3.3
						c4-2.8,4.6-8.5,4.6-19.5c-0.9,0.9-2.1,1.9-3.7,2.9c-6.6,3.8-17.8,5.7-33.1,5.7c-13.4,0-23.6-1.4-30.5-4.3
						C114.1,143,112,141.5,110.7,140.1z"/>
				</g>
				<g>
					<line class="st6" x1="181.2" y1="116.4" x2="125.7" y2="116.4"/>
					<rect x="125.7" y="115.3" class="st5" width="55.5" height="2.1"/>
				</g>
				<g>
					<line class="st6" x1="119.2" y1="115.7" x2="119.2" y2="122.7"/>
					<rect x="118.1" y="115.7" class="st5" width="2.1" height="7.1"/>
				</g>
				<g>
					<path class="st6" d="M173.9,126.8c0,0-1.6-4.6-6.5-3.8c-4.9,0.8-5.5,3.8-5.5,3.8"/>
					<path class="st5" d="M172.9,127.1c-0.1-0.2-1.4-3.8-5.4-3.1c-4,0.7-4.6,2.9-4.6,3l-2.1-0.4c0-0.2,0.7-3.7,6.3-4.7
						c4.6-0.8,7.1,2.6,7.7,4.5L172.9,127.1z"/>
				</g>
				<g>
					<path class="st6" d="M151.6,127.1c0,0-1.6-4.6-6.5-3.8c-4.9,0.8-5.5,3.8-5.5,3.8"/>
					<path class="st5" d="M150.6,127.5c-0.1-0.2-1.4-3.8-5.4-3.1c-4,0.7-4.6,2.9-4.6,3l-2.1-0.4c0-0.2,0.7-3.7,6.3-4.7
						c4.6-0.8,7.1,2.6,7.7,4.5L150.6,127.5z"/>
				</g>
				<g>
					<path class="st6" d="M163.8,131.3c0,0,1.3,5.3-4.4,6.1c-6,0.9-6.4-5.1-6.4-5.1"/>
					<path class="st5" d="M158.1,138.6c-1.5,0-2.8-0.4-3.8-1.3c-2.2-1.8-2.5-4.8-2.5-4.9l2.1-0.2c0,0,0.2,2.2,1.7,3.4
						c0.9,0.7,2,0.9,3.5,0.7c1.4-0.2,2.5-0.8,3-1.6c0.9-1.4,0.5-3.2,0.5-3.2l2.1-0.5c0,0.1,0.6,2.7-0.8,4.9
						c-0.9,1.4-2.4,2.2-4.5,2.5C159,138.6,158.6,138.6,158.1,138.6z"/>
				</g>
				<g>
					<path class="st6" d="M101.5,131.1c4.3-1.9,9.3,0.1,11.2,4.4l5.1,11.7c1.9,4.3-0.1,9.3-4.4,11.2c-4.3,1.9-9.3-0.1-11.2-4.4
						l-5.1-11.7C95.2,138,97.2,133,101.5,131.1z"/>
					<path class="st5" d="M110.1,160.2c-1.2,0-2.4-0.2-3.5-0.7c-2.4-0.9-4.3-2.7-5.3-5.1l-5.1-11.7c-2.1-4.8,0.1-10.5,4.9-12.6
						c2.3-1,4.9-1.1,7.3-0.1c2.4,0.9,4.3,2.7,5.3,5.1l5.1,11.7c1,2.3,1.1,4.9,0.1,7.3c-0.9,2.4-2.7,4.3-5.1,5.3
						C112.7,159.9,111.4,160.2,110.1,160.2z M104.9,131.5c-1,0-2,0.2-3,0.6c-1.8,0.8-3.2,2.3-3.9,4.1c-0.7,1.9-0.7,3.9,0.1,5.7
						l5.1,11.7c1.6,3.8,6,5.5,9.8,3.8c1.8-0.8,3.2-2.3,3.9-4.1c0.7-1.9,0.7-3.9-0.1-5.7l-5.1-11.7
						C110.5,133.1,107.8,131.5,104.9,131.5z"/>
				</g>
				<g>
					<circle class="st5" cx="117.1" cy="100.8" r="13.5"/>
				</g>
				<g>
					<circle class="st5" cx="161.1" cy="85.2" r="13.5"/>
				</g>
				<g>
					<ellipse class="st5" cx="140.9" cy="89.4" rx="24.5" ry="18.4"/>
				</g>
				<g>
					<ellipse class="st5" cx="169.3" cy="89.4" rx="24.5" ry="18.4"/>
				</g>
				<g>
					<g>
						<ellipse class="st6" cx="190.3" cy="119.2" rx="11.4" ry="9.6"/>
						<path class="st5" d="M190.3,129.8c-6.9,0-12.5-4.8-12.5-10.7s5.6-10.7,12.5-10.7c6.9,0,12.5,4.8,12.5,10.7
							S197.1,129.8,190.3,129.8z M190.3,110.6c-5.7,0-10.3,3.8-10.3,8.6c0,4.7,4.6,8.6,10.3,8.6c5.7,0,10.3-3.8,10.3-8.6
							C200.6,114.4,196,110.6,190.3,110.6z"/>
					</g>
					<g>
						<path class="st6" d="M203.8,89.2c-2.5-1.3-5.7-0.1-7.1,2.6c0,0.1-0.1,0.1-0.1,0.2l0,0l-3.8,7.6v-8.5h0c0-0.1,0-0.1,0-0.2
							c0-3.1-2.3-5.5-5.2-5.5s-5.2,2.5-5.2,5.5c0,0.1,0,0.1,0,0.2h0v15.3h8.6l7.9,4l6.9-13.7l0,0c0-0.1,0.1-0.1,0.1-0.2
							C207.3,93.8,206.3,90.5,203.8,89.2z"/>
						<path class="st5" d="M199.4,111.8l-8.6-4.3h-9.4V90h0.1c0.4-3.2,3-5.7,6.2-5.7s5.8,2.5,6.2,5.7h0l0,0.7c0,0.1,0,0.1,0,0.2
							c0,0,0,0,0,0.1l0,0.1v4.1l2.3-4.5l0,0c0.8-1.2,1.9-2.1,3.2-2.6c1.6-0.6,3.3-0.5,4.8,0.2c1.5,0.8,2.6,2.1,3.1,3.7
							c0.4,1.4,0.3,2.8-0.1,4.1l0,0l-0.3,0.6c0,0.1-0.1,0.1-0.1,0.2c0,0,0,0,0,0.1l-0.1,0.1L199.4,111.8z M183.5,105.3h7.8l7.2,3.6
							l5.9-11.7l0,0l0.5-1c0,0,0-0.1,0.1-0.1l0,0c0.5-1.1,0.7-2.3,0.3-3.4c-0.3-1.1-1-2-2-2.4c-1-0.5-2.1-0.5-3.1-0.1
							c-1.1,0.4-2,1.2-2.5,2.3l0,0c0,0,0,0.1,0,0.1l-0.5,1l0,0l-5.3,10.6v-12h0l0-1.3c0-2.5-1.8-4.5-4.1-4.5s-4.1,2-4.1,4.5l0,0.2
							l0,1.1h0V105.3z"/>
					</g>
					<g>
						<path class="st6" d="M191.4,112.9c-2.3,1.1-3.3,4.1-2.1,6.6c1.2,2.6,4.1,3.8,6.4,2.7c0,0,0.1-0.1,0.1-0.1l0,0l7.8-3.2
							c4.4-3.7,0.9-10.5-4.3-9.4l-7.8,3.2l0,0C191.5,112.9,191.5,112.9,191.4,112.9z"/>
						<path class="st5" d="M193.9,123.8c-2.3,0-4.5-1.4-5.6-3.8c-1.3-2.8-0.5-6,1.8-7.6l0-0.1l1-0.4l7.9-3.3l0.1,0
							c2.8-0.6,5.6,0.7,6.9,3.4c1.4,2.7,0.7,5.8-1.7,7.9l-0.1,0.1l-8,3.3c0,0,0,0-0.1,0c-0.2,0.1-0.3,0.1-0.5,0.2l-0.4,0.1l0,0
							C194.9,123.7,194.4,123.8,193.9,123.8z M191.4,112.9l0.4,1c-1.8,0.8-2.5,3.2-1.6,5.2c0.9,2.1,3.2,3.1,5,2.2l0.1-0.1l1-0.5
							l0,0.1l6.7-2.8c1.8-1.7,1.7-3.8,1-5.2c-0.7-1.3-2.2-2.7-4.5-2.3l-6.7,2.8l0,0l-1.1,0.5L191.4,112.9L191.4,112.9z"/>
					</g>
					<g>
						<path class="st6" d="M188.3,106.2c-2.8,1.3-4.1,4.4-2.9,7c1.2,2.6,4.4,3.7,7.2,2.4c0.1,0,0.1-0.1,0.2-0.1l0,0l9.3-3.9
							c5.3-4.2,1.8-10.9-4.3-9.4l-9.3,3.9l0,0C188.4,106.1,188.3,106.1,188.3,106.2z"/>
						<path class="st5" d="M190.2,117.2c-2.4,0-4.7-1.3-5.7-3.5c-0.7-1.5-0.7-3.2-0.1-4.8c0.5-1.3,1.5-2.4,2.7-3.2l0-0.1l1-0.4
							l9.4-3.9c3.8-1,6.5,0.9,7.6,3.1c1.4,2.8,0.4,6-2.4,8.2l-0.1,0.1l-9.4,4c0,0-0.1,0-0.1,0c-0.2,0.1-0.4,0.2-0.6,0.2l-0.3,0.1
							l0,0C191.5,117,190.8,117.2,190.2,117.2z M188.7,107.1c-1.1,0.5-1.9,1.4-2.4,2.4c-0.4,1-0.4,2.2,0,3.1
							c0.9,2.1,3.5,2.9,5.8,1.9l0.1-0.1l1-0.5l0,0.1l8.2-3.4c2.3-1.9,2.4-4,1.7-5.5c-0.7-1.3-2.4-2.7-5.1-2l-9.2,3.9
							C188.8,107.1,188.8,107.1,188.7,107.1L188.7,107.1z"/>
					</g>
					<g>
						<path class="st6" d="M182.9,106.5c-2.4-0.9-5.2,0.6-6.2,3.3s0.2,5.6,2.6,6.4c0.1,0,0.1,0,0.2,0l0,0l7.8,3.2
							c5.7,0.4,8-6.9,3.5-9.7l-7.8-3.2l0,0C183,106.5,183,106.5,182.9,106.5z"/>
						<path class="st5" d="M187.8,120.5c-0.2,0-0.4,0-0.5,0l-0.2,0l-8-3.3c0,0-0.1,0-0.1,0c-0.2-0.1-0.3-0.1-0.5-0.2l-0.3-0.1l0,0
							c-2.4-1.4-3.5-4.5-2.5-7.5c0.6-1.5,1.6-2.8,3-3.5c1.1-0.6,2.4-0.8,3.6-0.6l0-0.1l1,0.4l7.9,3.2l0.1,0c2.4,1.5,3.5,4.5,2.5,7.2
							C193.1,118.8,190.7,120.5,187.8,120.5z M187.6,118.4c2.5,0.1,3.9-1.5,4.4-3c0.5-1.4,0.3-3.5-1.6-4.7l-7.7-3.2c0,0-0.1,0-0.1,0
							l0,0c-0.9-0.3-1.9-0.2-2.8,0.2c-0.9,0.5-1.6,1.3-2,2.4c-0.8,2.1,0.1,4.4,2,5.1l0.1,0l1,0.3l0,0.1L187.6,118.4z"/>
					</g>
				</g>
			</g>
		</g>
		<g>
			<g>
				<polygon class="st8" points="828.1,413.6 70,466.4 70,399.7 828.1,346.8 				"/>
			</g>
			<text transform="matrix(1 -6.972903e-02 0 1 115.3905 446.6202)" class="st6 st92 st93 st94">INCREÍBLE · FANTÁSTICA · APOTEÓSICA</text>
		</g>
		<g>
			<polygon class="st5" points="65,161 833.1,107.4 833.1,334.7 65,388.2 			"/>
			<path class="st6" d="M828.1,112.8V330L70,382.8V165.6L828.1,112.8 M838.1,102.1l-10.7,0.7L69.3,155.7l-9.3,0.6v9.3v217.2v10.7
				l10.7-0.7L828.8,340l9.3-0.6V330V112.8V102.1L838.1,102.1z"/>
		</g>
		<g>
			<text transform="matrix(1 -6.972903e-02 0 1 268.4897 329.7534)" class="st10 st92 st95">rAPIDEZ</text>
			<text transform="matrix(1 -6.972903e-02 0 1 273.4898 322.3351)" class="st5 st92 st95">rAPIDEZ</text>
			<text transform="matrix(1 -6.972903e-02 0 1 280.8816 314.3946)" class="st6 st92 st95">rAPIDEZ</text>
		</g>
		<rect x="90.9" y="518.9" class="st49" width="332.6" height="368.3"/>
		<text transform="matrix(1 0 0 1 90.9229 541.9644)"><tspan x="0" y="0" class="st92 st96">Ten en cuenta la velocidad de </tspan><tspan x="0" y="33.6" class="st92 st96">carga.</tspan><tspan x="65.9" y="33.6" class="st97 st96"> No sobrecargues de im</tspan><tspan x="312.5" y="33.6" class="st97 st96">-</tspan><tspan x="0" y="67.2" class="st97 st96">ágenes y plugins pesados tu </tspan><tspan x="0" y="100.8" class="st97 st96">página. Manténla lo más ligera </tspan><tspan x="0" y="134.4" class="st97 st96">posible. Si tarda mucho en </tspan><tspan x="0" y="168" class="st97 st96">cargar, pocos usuarios van a </tspan><tspan x="0" y="201.6" class="st97 st96">tener la paciencia de esperar a </tspan><tspan x="0" y="235.2" class="st97 st96">ver el fantástico trabajo que </tspan><tspan x="0" y="268.8" class="st97 st96">has hecho.</tspan></text>
		<g>
			<g>
				<path class="st5" d="M225,502.4c-6.7,0-12-5.3-12-12v-15.8c0-8.9,4-17.2,11.1-22.8l2.8-2.2c2.4-1.8,5.2-3.5,8.6-3.5
					c6.7,0,12.4,5.6,12.4,12.2c0,3.9-1.7,7.3-4.8,9.7l-2.4,1.9c-0.1,0.1-0.3,0.2-0.5,0.4l0.9,0.5c4.5,2.4,7.3,5.1,7.3,11.3v8.5
					c0,6.7-5.3,12-12,12H225z M187.6,502.4c-6.7,0-12-5.3-12-12v-15.8c0-8.9,4-17.2,11.1-22.8l2.8-2.2c2.4-1.8,5.2-3.5,8.6-3.5
					c6.7,0,12.4,5.6,12.4,12.2c0,3.9-1.7,7.3-4.8,9.7l-2.5,1.9c-0.1,0.1-0.3,0.2-0.4,0.4l0.9,0.5c4.5,2.4,7.3,5.1,7.3,11.3v8.5
					c0,6.7-5.3,12-12,12H187.6z"/>
				<path class="st6" d="M235.4,451c3.8,0,7.4,3.2,7.4,7.2c0,1.8-0.5,4-2.9,5.8l-2.5,2c-2,1.6-3.2,2.7-3.2,4.9
					c0,1.8,1.3,2.7,3.4,3.8l1.1,0.5c3.4,1.8,4.7,3.1,4.7,6.8v8.5c0,4-3.1,7-7,7H225c-4,0-7-3.1-7-7v-15.8c0-8.1,4-14.8,9.2-18.9
					l2.7-2.2C232,451.9,233.6,451,235.4,451 M198,451c3.8,0,7.4,3.2,7.4,7.2c0,1.8-0.5,4-2.9,5.8l-2.5,2c-2,1.6-3.2,2.7-3.2,4.9
					c0,1.8,1.3,2.7,3.4,3.8l1.1,0.5c3.4,1.8,4.7,3.1,4.7,6.8v8.5c0,4-3.1,7-7,7h-11.3c-4,0-7-3.1-7-7v-15.8c0-8.1,4-14.8,9.2-18.9
					l2.7-2.2C194.6,451.9,196.2,451,198,451 M235.4,441c-4.9,0-8.6,2.3-11.6,4.5l-0.1,0.1l-0.1,0.1l-2.7,2.2
					c-2.3,1.8-4.3,3.9-6.1,6.2c-1.9-7.4-8.9-13.1-16.8-13.1c-4.9,0-8.6,2.3-11.6,4.5l-0.1,0.1l-0.1,0.1l-2.7,2.2
					c-8.2,6.5-12.9,16.2-12.9,26.7v15.8c0,9.5,7.5,17,17,17h11.3c5.3,0,9.9-2.3,13-6c3.1,3.7,7.8,6,13,6h11.3c9.5,0,17-7.5,17-17
					v-8.5c0-5.9-2.1-9.7-4.9-12.2c2.9-3.1,4.4-7.1,4.4-11.5C252.8,448.9,244.8,441,235.4,441L235.4,441z"/>
			</g>
		</g>
		<g>
			<text transform="matrix(0.9762 -7.598437e-02 2.250000e-03 1 267.6142 138.8423)" class="st5 st92 st98">webconsejos</text>
			<g>
				<g>
					<path class="st10" d="M672,93.5c0.9,2.4,2.4,3.5,4.8,3.3c1.4-0.1,1.8-0.3,4.9-2.1c0.4-0.2,0.9-0.4,1.3-0.4
						c1.2-0.1,2.4,1,2.4,2.3c0,2.5-4.4,5.2-9,5.6c-6.4,0.5-10.9-3.6-10.9-9.9c0-6.6,4.4-11.7,10.3-12.2c5.6-0.4,10,3.9,10,9.9
						c0,1.7-0.8,2.5-2.6,2.6L672,93.5z M679.9,88.7c-0.3-1.2-0.5-1.6-0.9-2.2c-0.7-1-1.8-1.5-3.1-1.4c-2,0.2-3.3,1.4-4.2,4.2
						L679.9,88.7z"/>
					<path class="st10" d="M694.5,80.5c1.8-1.5,3.1-2,4.9-2.2c5.2-0.4,9.3,4.1,9.4,10.3c0,6.3-4,11.4-9.3,11.9c-2.2,0.2-3.7-0.4-5-2
						c-0.7,1.6-1.5,2.4-2.8,2.5c-1.8,0.1-3.1-1.1-3.1-3l-0.1-23.7c0-1.5,0-1.9,0.4-2.6c0.4-1,1.5-1.7,2.6-1.8
						c1.1-0.1,2.1,0.5,2.6,1.4c0.4,0.7,0.4,1,0.4,2.5L694.5,80.5z M694.5,89.7c0,3.1,1.8,5.2,4.2,5.1c2.3-0.2,4.1-2.6,4.1-5.7
						c0-3-1.8-5.2-4.1-5C696.3,84.3,694.5,86.7,694.5,89.7z"/>
					<path class="st10" d="M711.3,81.1c0-2.2,1.2-3.7,3.1-3.9c1.4-0.1,2.2,0.5,2.8,1.9c1.8-1.8,3.2-2.5,5.5-2.7
						c2.1-0.2,3.8,0.3,5.2,1.4c1.6,1.3,2.2,2.8,2.2,5.8l0,10.1c0,1.5,0,1.9-0.4,2.6c-0.4,1-1.5,1.7-2.6,1.8
						c-1.1,0.1-2.2-0.5-2.6-1.4c-0.4-0.7-0.4-1-0.4-2.5l0-8.7c0-2.4-1.3-3.8-3.4-3.6c-1.9,0.1-3.4,1.9-3.4,3.9l0,8.9
						c0,1.5,0,1.9-0.4,2.6c-0.4,1-1.5,1.7-2.6,1.8c-1.1,0.1-2.2-0.5-2.6-1.4c-0.4-0.7-0.4-1-0.4-2.5L711.3,81.1z"/>
					<path class="st10" d="M734.3,79.8c0-1.5,0-1.9,0.4-2.6c0.4-1,1.5-1.7,2.6-1.8c1.1-0.1,2.1,0.5,2.6,1.4c0.4,0.7,0.4,1,0.4,2.5
						l0,13.7c0,1.5,0,1.9-0.4,2.6c-0.4,1-1.5,1.7-2.6,1.8c-1.1,0.1-2.2-0.5-2.6-1.4c-0.4-0.7-0.4-1-0.4-2.5L734.3,79.8z M743.7,69.2
						c0-1.4-1.2-2.5-2.8-2.6v0l-0.1,0c-0.2,0-0.4,0-0.5,0c-0.2,0-0.4,0-0.6,0.1l-4.8,0.4c-0.2,0-0.4,0-0.5,0c-2,0.2-3.6,1.6-3.6,3.2
						c0,1.6,1.6,2.8,3.5,2.7c0,0,0.1,0,0.1,0l6.5-0.6C742.6,71.9,743.7,70.6,743.7,69.2z"/>
					<path class="st10" d="M759.1,77.9c0,1.4-1.1,2.8-2.3,2.9c-0.7,0.1-0.7,0.1-2.5-0.6c-0.9-0.4-1.7-0.5-2.3-0.5
						c-1,0.1-1.6,0.5-1.6,1.2c0,0.8,0.3,1,3.2,1.9c2.7,0.9,3.5,1.3,4.6,2.3c0.9,1,1.5,2.2,1.5,3.7c0,4.1-3.2,7.1-7.9,7.5
						c-4.1,0.3-7.7-1.5-7.7-3.9c0-1.4,1.2-2.9,2.5-3c0.7-0.1,0.7-0.1,3.1,0.9c1,0.4,1.8,0.5,2.4,0.5c1-0.1,1.8-0.8,1.8-1.6
						c0-0.7-0.5-1.1-2.3-1.6c-3-0.9-3.8-1.3-4.8-1.9c-1.4-0.9-2.1-2.3-2.1-4.3c0-3.8,3.3-6.9,7.7-7.3
						C755.9,73.9,759.1,75.6,759.1,77.9z"/>
					<path class="st10" d="M769.5,67.3c0,2-1.5,3.7-3.5,3.9c-2,0.2-3.5-1.3-3.5-3.3c0-2,1.6-3.7,3.6-3.8
						C768,63.9,769.5,65.4,769.5,67.3z M763,77.6c0-1.5,0-1.9,0.4-2.6c0.4-1,1.5-1.7,2.6-1.8c1.1-0.1,2.1,0.5,2.6,1.4
						c0.4,0.7,0.4,1,0.4,2.5l0,13.7c0,1.5,0,1.9-0.4,2.6c-0.4,1-1.5,1.7-2.6,1.8c-1.1,0.1-2.2-0.5-2.6-1.4c-0.4-0.7-0.4-1-0.4-2.5
						L763,77.6z"/>
					<path class="st10" d="M773.3,76.2c0-2.1,1.2-3.7,3-3.8c1.2-0.1,1.8,0.3,2.9,1.8c1.7-1.7,3.1-2.4,5.3-2.6c1.5-0.1,3,0.1,4.1,0.7
						c0.6,0.3,1,0.6,1.7,1.5c2.4-2.2,4-3,6.3-3.2c4.2-0.3,7.2,2.5,7.3,6.6l0,10.8c0,1.5,0,1.9-0.4,2.6c-0.4,1-1.5,1.7-2.6,1.8
						c-1.1,0.1-2.2-0.5-2.6-1.4c-0.4-0.7-0.4-1-0.4-2.5l0-9.4c0-1.9-1.2-3.1-3.1-3s-3.1,1.5-3.1,3.4l0,9.4c0,1.5,0,1.9-0.4,2.6
						c-0.4,1-1.5,1.7-2.6,1.8c-1.1,0.1-2.2-0.5-2.6-1.4c-0.4-0.7-0.4-1-0.4-2.5l0-8.8c0-2.4-1.2-3.7-3.1-3.5
						c-1.8,0.1-3.1,1.6-3.1,3.4l0,9.4c0,1.5,0,1.9-0.4,2.6c-0.4,1-1.5,1.7-2.6,1.8c-1.1,0.1-2.2-0.5-2.6-1.4c-0.4-0.7-0.4-1-0.4-2.5
						L773.3,76.2z"/>
					<path class="st10" d="M827,86.7c0,2.2-1.2,3.7-3,3.9c-1.4,0.1-2.4-0.6-3-2.2c-1.5,2-2.7,2.8-4.9,2.9c-2.2,0.2-4.2-0.5-5.9-1.9
						c-2.4-2-3.6-4.8-3.6-8.5c0-3.4,1-6,3.1-8.4c1.8-2,3.9-3.1,6.3-3.3c2.1-0.2,3.4,0.4,5.1,2c0.7-1.7,1.5-2.4,3-2.5
						c1.7-0.1,3,1.2,3,2.9L827,86.7z M812.5,80.5c0,3.2,1.6,5.2,4.2,5.1c2.5-0.2,4.1-2.5,4.1-5.7c0-3.1-1.7-5.2-4.2-5
						C814.1,75.1,812.5,77.4,812.5,80.5z"/>
				</g>
				<g>
					<path class="st5" d="M662.6,82.6c-0.4-0.7-1.1-1.2-1.9-1.3c-0.2,0-0.5-0.1-0.7,0c-0.2,0-0.5,0.1-0.7,0.1
						c-0.8,0.3-1.6,0.9-1.9,1.6c-0.3,0.5-0.3,0.9-0.4,1.5c0,0.3,0,10.8,0,10.8c0,1-0.3,1.5-0.6,1.9c-0.4,0.4-0.9,0.6-1.4,0.7
						c-0.6,0-1.1-0.2-1.5-0.6c-0.3-0.4-0.6-0.8-0.6-1.7l0-10.1l0,0c0-1.2-0.1-1.6-0.4-2.2c-0.4-0.7-1.1-1.2-1.9-1.3
						c-0.2,0-0.5-0.1-0.7,0c-0.2,0-0.5,0.1-0.7,0.1c-0.8,0.3-1.6,0.9-1.9,1.6c-0.3,0.5-0.3,0.9-0.4,1.5c0,0.2,0,0.8,0,0.8l0,10
						c0,1-0.3,1.5-0.6,1.9c-0.4,0.4-0.9,0.6-1.4,0.7c-0.6,0-1.1-0.2-1.5-0.6c-0.3-0.4-0.6-0.8-0.6-1.7l-0.1-9.7c0-1.5,0-1.8-0.4-2.5
						c-0.4-0.7-1.1-1.2-1.9-1.3c-0.2,0-0.5-0.1-0.7,0c-0.2,0-0.5,0.1-0.7,0.1c-0.8,0.3-1.6,0.9-1.9,1.6c-0.3,0.5-0.3,0.9-0.4,1.5
						c0,0.3,0,11,0,11c0,3,1,4.8,2.7,6c1.5,1.1,3.4,1.6,5.2,1.4c1.6-0.1,2.9-0.5,4-1.3l0.5-0.4c0.3-0.2,0.6-0.4,0.8-0.4
						c0.3,0,0.5,0.1,0.8,0.2l0.6,0.3c1.1,0.6,2.5,0.8,4,0.6c1.9-0.1,3.6-0.9,5.1-2.2c1.7-1.5,2.7-3.4,2.7-6.4l0-9.9
						C663,83.6,662.9,83.3,662.6,82.6z"/>
					<g>
						<g>
							<path class="st9" d="M649.8,75.2c-6,0.6-11,0.1-11-1c0-0.4,0.7-0.7,1.7-1.2c4.4-2,6.7-2.6,10.8-2.6c2.9,0,6.2-0.2,8.5,1.1
								c0.6,0.2,0.9,0.4,0.9,0.7C660.7,73.2,655.8,74.6,649.8,75.2z M666.1,71.8c-0.1-2.8-5.1-4.3-16.4-3.3
								c-10.7,1-16.3,3.5-16.3,6.3c0.1,4.3,7.4,5.9,16.5,5C658.9,79,666.1,76.1,666.1,71.8z"/>
						</g>
					</g>
				</g>
			</g>
		</g>
		<g>
			<g>
				<path class="st6" d="M823.4,789.9c-7.5,5.2-14.7,7.8-16.7,8.5l-84.9,32.1c-1.5,0.7-5.9,2.4-11.8,3.4c-2.2,2.1-4.5,4-7.1,5.8
					c-7.5,5.2-14.7,7.8-16.7,8.5l-84.9,32.1c-3.5,1.5-20.1,7.9-36.9,1c-7.8-3.2-18.6-10.7-25-27.8c-6.6-17.6-0.5-34.5,16.9-46.6
					c6.3-4.3,12.9-7.4,17.9-9.3c0.4-1.4,0.8-2.9,1.3-4.6l-1.9-0.2c-66-7.7-113.6-67.7-106.2-133.7c3.1-27.6,15.4-53,35-72.4
					c-3.5-10.6-7.2-22.6-11.4-36.4c-19.2-63.5-26.4-117.1-21.4-159.2c5.3-44.9,22.8-63.2,32.8-70.1c1.7-1.2,3.5-2.3,5.3-3.1
					c10.3-5,24.1-4.9,38.9,0.4c19.7,7.1,40,22.5,60.2,45.9c24.4,28.1,47.9,67.1,70,115.9c7.5,16.6,13.8,31,19.1,43.5
					c16.2,1.6,32.2,6.4,46.5,14.3c58.3,31.9,80.1,105.3,48.5,163.8l-6.1,11.3l-70.5-38.5L723,697l-2.7,1c3.7,1.8,7.2,4.3,10.4,7.7
					c25.4-8.7,43.8-0.6,54,8.5c9.2-2.7,23.8-5.2,36.7,0.1c9.1,3.8,15.9,11,19.6,20.8C849.2,756.5,842.7,776.5,823.4,789.9z
					 M589.3,768.6c2.3-2.4,4.9-4.7,7.8-6.7c0.7-0.5,1.5-1,2.2-1.5c-0.7-6.3,0.1-12.2,2.2-17.6l-1.4,0.5l-6.2-16.5L589.3,768.6z"/>
			</g>
			<g>
				<path class="st9" d="M697.1,664.7c3-3.3,5.5-6.7,7.5-10.4l75.1,41c28.3-52.4,9-117.9-43.4-146.5c-15.7-8.6-32.5-12.8-49.2-13.2
					c-6.2-15.2-13.6-31.9-22-50.5c-67.9-149.8-131.5-166-151.9-156c-22.8,11.2-54.5,70.1-10.1,217.2c4.8,15.9,9.4,30.5,13.8,43.9
					c-20,17.2-33.8,41.7-37,70c-6.6,59.2,35.9,112.7,95,119.6l9.1-81.1c4.4,1.7,9.1,2.9,14.1,3.5l9.3,24.7l30.2-11.4
					c-2,8-1.8,15.2-1.8,15.2s-33.1,7.3-21.9,37c-0.7,0.2-1.3,0.4-2,0.7c-24.2,9.1-26.8,38.9-26.8,38.9s-45.2,11.9-34,41.6
					c13,34.3,45.1,19.5,45.1,19.5L682,836c0,0,13.3-4.2,22-14.3c7.5-0.5,13.1-3.1,13.1-3.1l85.5-32.3c0,0,39.5-12.3,26.6-46.6
					c-10.4-27.4-48.2-10.5-48.2-10.5s-14.3-23.3-48.2-10.5c-2.4,0.9-4.5,2-6.5,3.2c-11.1-23.5-36.1-11.6-36.1-11.6s-3.3-6-9.6-10.8
					l26-9.8L697.1,664.7z"/>
			</g>
			<g>
				<g>
					<g>
						<path class="st76" d="M636.1,730.6c0,0-0.8-28.4,16.6-35c24.4-9.2,37.4,14.6,37.4,14.6s27-12.8,37.4,14.6
							c13,34.3-15.8,42.5-15.8,42.5l-61.6,23.3c0,0-22.9,11.3-35.9-23C603,737.9,636.1,730.6,636.1,730.6z"/>
						<path class="st5" d="M721.4,766.6c-4,2.8-7.6,4-8.5,4.3l-61.4,23.2c-1.4,0.6-9.9,4.1-19.6,0.3c-9-3.6-16.2-12.1-21.2-25.4
							c-3.6-9.5-3.4-18,0.5-25.2c5.3-9.8,16-14.3,21.2-16c0.3-8,2.7-29.5,19-35.7c19.6-7.4,34,4.4,40.2,13.5
							c4.8-1.6,14.1-3.8,23.2-0.1c7.3,3,12.8,9,16.2,18c4.7,12.3,4.8,23,0.4,31.8C728.8,760.5,725,764.2,721.4,766.6z M625,739.6
							c-2.8,1.9-5.4,4.4-7.2,7.7c-2.8,5.2-2.8,11.6,0,19c4.2,11.2,9.9,18.3,16.8,21.1c7.4,3,13.7,0,13.9-0.1l0.3-0.1l61.9-23.4
							c0.1,0,9.6-2.9,14.1-11.9c3.4-6.8,3.1-15.4-0.8-25.7c-2.6-7-6.7-11.6-11.9-13.7c-9.4-3.8-20.2,1.1-20.4,1.2l-3.2,1.5l-1.7-3.1
							c-0.5-0.8-11.8-20.8-32.8-12.9c-14.7,5.6-14.2,31.2-14.2,31.4l0.1,3.1l-3,0.7C636.8,734.3,630.6,735.7,625,739.6z"/>
					</g>
				</g>
				<g>
					<g>
						<path class="st76" d="M706,757.4c0,0,2.6-29.7,26.8-38.9c33.8-12.8,48.2,10.5,48.2,10.5s37.8-16.9,48.2,10.5
							c13,34.3-26.6,46.6-26.6,46.6l-85.5,32.3c0,0-32.2,14.8-45.1-19.5C660.7,769.3,706,757.4,706,757.4z"/>
						<path class="st5" d="M818.3,782.5c-6.9,4.8-13.5,7-14.5,7.3L718.5,822c-1.6,0.7-16,6.7-30,1c-9-3.7-15.7-11.3-20-22.6
							c-3-7.9-2.7-15.4,0.9-22.3c7.3-14.2,26.4-21.3,33.3-23.5c1.3-7.8,6.8-31.1,28.8-39.5c29.2-11,45.4,3.3,50.7,9.5
							c6.4-2.4,22.8-7.4,35.8-1.9c6.9,2.9,11.8,8.1,14.7,15.6c3.9,10.4,3.8,20-0.4,28.6C828.9,773.8,823.5,778.8,818.3,782.5z
							 M686.3,770.6c-4.2,2.9-8.1,6.6-10.3,10.9c-2.6,5-2.7,10.3-0.5,16.2c3.5,9.3,8.8,15.5,15.8,18.4c11.5,4.8,24.1-0.8,24.3-0.9
							l0.2-0.1l85.7-32.4c0.2-0.1,17.6-5.7,24.1-19.1c3.2-6.6,3.3-14.3,0.1-22.6c-2.1-5.6-5.6-9.3-10.5-11.4
							c-13.3-5.5-32.4,2.9-32.6,2.9l-3,1.3l-1.7-2.8c-0.5-0.8-13.3-20.5-43.7-9c-9,3.4-15.8,10.3-20.3,20.6
							c-3.4,7.9-4.1,15-4.1,15.1l-0.2,2.6l-2.5,0.7C706.7,761.1,695.5,764.1,686.3,770.6z"/>
					</g>
				</g>
				<g>
					<g>
						<path class="st76" d="M585.5,807.1c0,0,2.6-29.7,26.8-38.9c33.8-12.8,48.2,10.5,48.2,10.5s37.8-16.9,48.2,10.5
							c13,34.3-26.6,46.6-26.6,46.6l-85.5,32.3c0,0-32.2,14.8-45.1-19.5C540.2,819,585.5,807.1,585.5,807.1z"/>
						<path class="st5" d="M697.8,832.2c-6.9,4.8-13.5,7-14.5,7.3L598,871.7c-1.6,0.7-16,6.7-30,1c-9-3.7-15.7-11.3-20-22.6
							c-3-7.9-2.7-15.4,0.9-22.3c7.3-14.2,26.4-21.3,33.3-23.5c1.3-7.8,6.8-31.1,28.8-39.5c29.2-11,45.4,3.3,50.7,9.5
							c6.4-2.4,22.8-7.4,35.8-1.9c6.9,2.9,11.8,8.1,14.7,15.6c3.9,10.4,3.8,20-0.4,28.6C708.4,823.5,703,828.5,697.8,832.2z
							 M565.8,820.3c-4.2,2.9-8.1,6.6-10.3,10.9c-2.6,5-2.7,10.3-0.5,16.2c3.5,9.3,8.8,15.5,15.8,18.4c11.5,4.8,24.1-0.8,24.3-0.9
							l0.2-0.1l85.7-32.4c0.2-0.1,17.6-5.7,24.1-19.1c3.2-6.6,3.3-14.3,0.1-22.6c-2.1-5.6-5.6-9.3-10.5-11.4
							c-13.3-5.5-32.4,2.9-32.6,2.9l-3,1.3l-1.7-2.8c-0.5-0.8-13.3-20.5-43.7-9c-9,3.4-15.8,10.3-20.3,20.6
							c-3.4,7.9-4.1,15-4.1,15.1l-0.2,2.6l-2.5,0.7C586.2,810.8,575,813.8,565.8,820.3z"/>
					</g>
				</g>
				<g>
					<path class="st9" d="M779.8,695.4c28.3-52.4,9-117.9-43.4-146.5c-52.3-28.6-117.9-9.5-146.7,42.6L779.8,695.4z"/>
					<path class="st5" d="M781,699.7L585.4,592.8l1.6-2.8c29.6-53.5,97.3-73.2,151-43.9c53.7,29.3,73.7,97,44.6,150.8L781,699.7z
						 M594.1,590.3L778.4,691c25.2-50.2,6.1-112.1-43.6-139.3C685.2,524.6,622.8,542,594.1,590.3z"/>
				</g>
				<g>
					<path class="st9" d="M599.3,564.7c-59.2-6.3-112.5,36.3-119.1,95.6c-6.6,59.2,35.9,112.7,95,119.6L599.3,564.7z"/>
					<path class="st5" d="M578,783.4l-3.2-0.4c-60.7-7.1-104.6-62.3-97.8-123.1c6.8-60.8,61.8-104.9,122.7-98.4l3.2,0.3L578,783.4z
						 M528,586c-24.1,16.7-41.2,43.3-44.7,74.6c-6.3,56.2,33.4,107.4,89,115.6l23.4-208.7C570.9,565.7,547.2,572.7,528,586z"/>
				</g>
				<g>
					<path class="st9" d="M503.3,546.4c41,135.8,64.8,177.3,145.8,146.7c82.5-31.2,78.4-70.4,16.1-207.9
						c-67.9-149.8-131.5-166-151.9-156C490.6,340.3,458.9,399.3,503.3,546.4z"/>
					<path class="st5" d="M686.6,678c-9.3,6.4-21.3,12.3-36.4,18c-31,11.7-53,12.9-71.4,3.8c-32.3-15.9-51.8-63.9-78.6-152.5
						l3.1-0.9l-3.1,0.9c-19.7-65.3-26.5-119.5-20.3-161c4.5-30,16.5-52.4,32-60c7.8-3.8,19.3-3.5,31.5,0.8
						c24,8.6,72.1,40.4,124.8,156.7c38.4,84.8,55.5,133.8,42,166.4C705.8,661,698.3,669.9,686.6,678z M511.4,334
						c-21.4,14.8-46.4,74.4-5.1,211.4c26.2,86.9,45.1,133.7,75.3,148.6c16.7,8.2,37.2,7,66.3-4c32.3-12.2,49.1-24.8,56.3-42.2
						c12.6-30.4-4.2-78.2-41.9-161.3c-51.7-114.1-98.1-145.1-121.1-153.3c-15-5.4-23.5-2.6-26.5-1.1
						C513.7,332.6,512.6,333.2,511.4,334z"/>
				</g>
				<g>
					
						<rect x="597.9" y="673.1" transform="matrix(0.9355 -0.3534 0.3534 0.9355 -202.3021 274.579)" class="st9" width="105.6" height="36.3"/>
					<path class="st5" d="M710.6,691.4L605.8,731l-15.1-39.9l104.8-39.6L710.6,691.4z M609.6,722.7l92.8-35.1l-10.6-27.9L599,694.8
						L609.6,722.7z"/>
				</g>
				<g>
					<circle class="st6" cx="595.6" cy="471.4" r="48"/>
					<path class="st5" d="M624.8,513.5c-3.4,2.4-7.2,4.3-11.2,5.9c-12.8,4.8-26.7,4.4-39.2-1.2c-12.5-5.6-22-15.8-26.8-28.6
						c-4.8-12.8-4.4-26.7,1.2-39.2c5.6-12.5,15.8-22,28.6-26.8c26.4-10,56,3.4,66,29.8l0,0c4.8,12.8,4.4,26.7-1.2,39.2
						C638.4,501.1,632.4,508.3,624.8,513.5z M570,434.6c-6.6,4.6-11.8,10.9-15.2,18.3c-4.9,10.9-5.3,23.1-1.1,34.3
						c4.2,11.2,12.6,20.1,23.5,25c10.9,4.9,23.1,5.3,34.3,1.1c11.2-4.2,20.1-12.6,25-23.5c4.9-10.9,5.3-23.1,1.1-34.3
						c-8.7-23.1-34.6-34.8-57.7-26.1C576.3,430.8,573,432.6,570,434.6z"/>
				</g>
				<g>
					<defs>
						<circle id="SVGID_00000101098212996680259210000011975275654908711306_" cx="594.7" cy="466.1" r="50.1"/>
					</defs>
					<clipPath id="SVGID_00000093899484633506855130000004661745983668011680_">
						<use xlink:href="#SVGID_00000101098212996680259210000011975275654908711306_"  style="overflow:visible;"/>
					</clipPath>
					<g style="clip-path:url(#SVGID_00000093899484633506855130000004661745983668011680_);">
						<g>
							<g>
								<g>
									<path class="st6" d="M613,520.4c-1.2-3.3,0.4-7,3.7-8.2s7,0.4,8.2,3.7l1.4,3.7l3.2-1.2c3.3-1.2,7,0.4,8.2,3.7
										c1.2,3.3-0.4,7-3.7,8.2l-8.9,3.4c-2.8,1.1-5.9,0-7.5-2.3c-0.5-0.6-1-1.3-1.3-2.1L613,520.4z"/>
								</g>
								<g>
									<path class="st5" d="M634.3,531.1l-8.9,3.4c-3.1,1.2-6.5,0.1-8.4-2.6c-0.6-0.7-1.1-1.4-1.4-2.3l-3.4-8.9
										c-1.4-3.7,0.5-7.8,4.2-9.2c3.7-1.4,7.8,0.5,9.2,4.2l1.1,3l2.5-0.9c3.7-1.4,7.8,0.5,9.2,4.2
										C639.9,525.6,638,529.7,634.3,531.1z M617,513c-2.9,1.1-4.3,4.3-3.2,7.2l3.4,8.9c0.3,0.7,0.6,1.3,1.1,1.8l0.1,0.1
										c1.5,2.1,4.1,2.9,6.5,2l8.9-3.4c2.9-1.1,4.3-4.3,3.2-7.2s-4.3-4.3-7.2-3.2l-4,1.5l-1.7-4.5
										C623.1,513.3,619.8,511.9,617,513z"/>
								</g>
							</g>
							<g>
								<g>
									<line class="st6" x1="638.3" y1="523.5" x2="617.7" y2="531.3"/>
								</g>
								<g>
									
										<rect x="617" y="526.6" transform="matrix(0.9355 -0.3534 0.3534 0.9355 -145.8719 255.9738)" class="st5" width="22" height="1.6"/>
								</g>
							</g>
							<g>
								<g>
									<line class="st6" x1="626.3" y1="519.7" x2="624.8" y2="524.9"/>
								</g>
								<g>
									
										<rect x="622.8" y="521.5" transform="matrix(0.2827 -0.9592 0.9592 0.2827 -52.281 974.6917)" class="st5" width="5.5" height="1.6"/>
								</g>
							</g>
							<g>
								<g>
									<line class="st6" x1="629.5" y1="519" x2="627.9" y2="524.3"/>
								</g>
								<g>
									
										<rect x="626" y="520.9" transform="matrix(0.2827 -0.9592 0.9592 0.2827 -49.4076 977.2767)" class="st5" width="5.5" height="1.6"/>
								</g>
							</g>
							<g>
								<g>
									<line class="st6" x1="632.6" y1="518.4" x2="631.1" y2="523.7"/>
								</g>
								<g>
									
										<rect x="629.1" y="520.2" transform="matrix(0.2827 -0.9592 0.9592 0.2827 -46.5342 979.8616)" class="st5" width="5.5" height="1.6"/>
								</g>
							</g>
							<g>
								<g>
									<circle class="st6" cx="620" cy="522.8" r="2.7"/>
								</g>
								<g>
									<path class="st5" d="M621.2,526c-1.8,0.7-3.8-0.2-4.4-2c-0.7-1.8,0.2-3.8,2-4.4c1.8-0.7,3.8,0.2,4.4,2
										C623.9,523.3,623,525.3,621.2,526z M619.3,521c-1,0.4-1.4,1.4-1.1,2.4c0.4,1,1.4,1.4,2.4,1.1c1-0.4,1.4-1.4,1.1-2.4
										C621.3,521.2,620.3,520.7,619.3,521z"/>
								</g>
							</g>
							<g>
								<g>
									<g>
										<path class="st6" d="M590.2,529c-1.2-3.3,0.4-7,3.7-8.2c3.3-1.2,7,0.4,8.2,3.7l1.4,3.7l3.2-1.2c3.3-1.2,7,0.4,8.2,3.7
											c1.2,3.3-0.4,7-3.7,8.2l-8.9,3.4c-2.8,1.1-5.9,0-7.5-2.3c-0.5-0.6-1-1.3-1.3-2.1L590.2,529z"/>
									</g>
									<g>
										<path class="st5" d="M611.5,539.7l-8.9,3.4c-3.1,1.2-6.5,0.1-8.4-2.6c-0.6-0.7-1.1-1.4-1.4-2.3l-3.4-8.9
											c-1.4-3.7,0.5-7.8,4.2-9.2c3.7-1.4,7.8,0.5,9.2,4.2l1.1,3l2.5-0.9c3.7-1.4,7.8,0.5,9.2,4.2
											C617.1,534.2,615.2,538.3,611.5,539.7z M594.1,521.6c-2.9,1.1-4.3,4.3-3.2,7.2l3.4,8.9c0.3,0.7,0.6,1.3,1.1,1.8l0.1,0.1
											c1.5,2.1,4.1,2.9,6.5,2l8.9-3.4c2.9-1.1,4.3-4.3,3.2-7.2c-1.1-2.9-4.3-4.3-7.2-3.2l-4,1.5l-1.7-4.5
											C600.2,522,597,520.5,594.1,521.6z"/>
									</g>
								</g>
								<g>
									<g>
										<line class="st6" x1="615.4" y1="532.1" x2="594.8" y2="539.9"/>
									</g>
									<g>
										
											<rect x="594.1" y="535.2" transform="matrix(0.9355 -0.3534 0.3534 0.9355 -150.3932 248.4627)" class="st5" width="22" height="1.6"/>
									</g>
								</g>
								<g>
									<g>
										<line class="st6" x1="603.5" y1="528.3" x2="601.9" y2="533.6"/>
									</g>
									<g>
										
											<rect x="600" y="530.1" transform="matrix(0.2827 -0.9592 0.9592 0.2827 -76.9284 958.9819)" class="st5" width="5.5" height="1.6"/>
									</g>
								</g>
								<g>
									<g>
										<line class="st6" x1="606.6" y1="527.7" x2="605.1" y2="532.9"/>
									</g>
									<g>
										
											<rect x="603.1" y="529.5" transform="matrix(0.2827 -0.9592 0.9592 0.2827 -74.055 961.5668)" class="st5" width="5.5" height="1.6"/>
									</g>
								</g>
								<g>
									<g>
										<line class="st6" x1="609.8" y1="527" x2="608.3" y2="532.3"/>
									</g>
									<g>
										
											<rect x="606.3" y="528.9" transform="matrix(0.2827 -0.9592 0.9592 0.2827 -71.1816 964.1518)" class="st5" width="5.5" height="1.6"/>
									</g>
								</g>
								<g>
									<g>
										<circle class="st6" cx="597.1" cy="531.4" r="2.7"/>
									</g>
									<g>
										<path class="st5" d="M598.4,534.6c-1.8,0.7-3.8-0.2-4.4-2c-0.7-1.8,0.2-3.8,2-4.4s3.8,0.2,4.4,2
											C601,532,600.1,533.9,598.4,534.6z M596.5,529.7c-1,0.4-1.4,1.4-1.1,2.4c0.4,1,1.4,1.4,2.4,1.1c1-0.4,1.4-1.4,1.1-2.4
											C598.5,529.8,597.4,529.3,596.5,529.7z"/>
									</g>
								</g>
							</g>
							<g>
								
									<ellipse transform="matrix(0.9355 -0.3534 0.3534 0.9355 -129.3568 242.2162)" class="st6" cx="598.5" cy="475.3" rx="41.3" ry="36.9"/>
								<path class="st5" d="M622.4,505.9c-3.1,2.1-6.5,4-10.3,5.4c-22.1,8.4-46.2-1-53.7-20.8c-7.5-19.8,4.4-42.8,26.5-51.1
									c10.7-4,22.1-4.1,32.3-0.2c10.2,3.9,17.8,11.4,21.4,21l0,0C644.9,476.6,637.7,495.3,622.4,505.9z M576.5,447.3
									c-14.1,9.8-20.8,26.9-15.1,42c6.9,18.2,29.1,26.7,49.6,19c20.5-7.7,31.5-28.8,24.7-47c-3.3-8.8-10.3-15.6-19.6-19.2
									c-9.4-3.6-20-3.5-30,0.2C582.6,443.6,579.4,445.3,576.5,447.3z"/>
							</g>
							<g>
								<g>
									
										<ellipse transform="matrix(0.9355 -0.3534 0.3534 0.9355 -135.6983 245.6206)" class="st6" cx="604.7" cy="494.4" rx="28.5" ry="22.3"/>
								</g>
								<g>
									<path class="st5" d="M612.9,516c-13.5,5.1-20.3,7.7-24.8,6.2c-4.7-1.5-6.7-6.8-10.7-17.5c-4-10.6-6-16-3.5-20.2
										c2.5-4.1,9.3-6.7,22.8-11.8c13.5-5.1,20.3-7.7,24.8-6.4c4.7,1.3,6.6,6.4,10.4,16.5l0.4,1.1l0.4,1.1
										c3.8,10.1,5.7,15.2,3.1,19.2C633.1,508.3,626.3,510.9,612.9,516z M597.1,474.3c-13.1,5-19.7,7.5-22,11.1
										c-2.1,3.5-0.2,8.6,3.6,18.8c3.8,10.2,5.8,15.3,9.7,16.5c4.1,1.3,10.7-1.2,23.8-6.2c13.2-5,19.8-7.5,22-11
										c2.2-3.4,0.4-8.2-3.3-17.8l-0.4-1.1l-0.4-1.1c-3.6-9.6-5.4-14.4-9.3-15.5C616.9,466.8,610.3,469.3,597.1,474.3z"/>
								</g>
							</g>
							<g>
								<g>
									<path class="st8" d="M609.9,507.7c-27.2,10.3-30,1.6-29.8,2.1c7.4,19.5,7.5,19.4,34,9.4c26.1-9.9,26.7-10.1,19.3-29.6
										C633.2,489.2,636.6,497.6,609.9,507.7z"/>
								</g>
								<g>
									<path class="st5" d="M614.4,519.9c-13.4,5.1-20.2,7.6-24.7,6.4c-4.7-1.3-6.7-6.6-10.3-16.3l0,0c-0.1-0.3,0-0.5,0-0.6
										l0.2-0.5l1.1,0l0.2,0.5c0.2,0.3,4.2,6.8,28.8-2.5c24.5-9.3,23.1-16.9,23-17.2l-0.2-0.7l1.4-0.4l0.3,0.7
										c3.8,10.1,5.5,15.1,2.8,19.1C634.3,512.4,627.7,514.9,614.4,519.9z M581.9,512.3c2.9,7.6,4.7,11.5,8.2,12.4
										c4,1.1,10.6-1.4,23.7-6.3c13-4.9,19.5-7.4,21.8-10.9c2-3,0.9-7.2-1.9-14.9c-0.4,0.9-0.9,1.9-1.9,3
										c-3.6,4.4-10.9,8.7-21.7,12.8c-9.4,3.5-16.9,5.2-22.5,5.1C585,513.5,583.2,513,581.9,512.3z"/>
								</g>
							</g>
							<g>
								<g>
									<line class="st6" x1="624.9" y1="477.1" x2="586.1" y2="491.8"/>
								</g>
								<g>
									
										<rect x="584.8" y="483.6" transform="matrix(0.9355 -0.3534 0.3534 0.9355 -132.1344 245.259)" class="st5" width="41.5" height="1.6"/>
								</g>
							</g>
							<g>
								<g>
									<line class="st6" x1="581.4" y1="493" x2="583.2" y2="497.9"/>
								</g>
								<g>
									
										<rect x="581.5" y="492.8" transform="matrix(0.9355 -0.3534 0.3534 0.9355 -137.526 237.77)" class="st5" width="1.6" height="5.3"/>
								</g>
							</g>
							<g>
								<g>
									<path class="st6" d="M622.6,486.3c0,0-2.4-2.8-5.6-0.9c-3.2,1.9-2.8,4.1-2.8,4.1"/>
								</g>
								<g>
									<path class="st5" d="M622,486.8c-0.1-0.1-2-2.3-4.6-0.8c-2.6,1.5-2.4,3.2-2.4,3.3l-1.6,0.3c0-0.1-0.5-2.8,3.2-4.9
										c3-1.8,5.6,0,6.6,1.1L622,486.8z"/>
								</g>
							</g>
							<g>
								<g>
									<path class="st6" d="M607.1,492.4c0,0-2.4-2.8-5.6-0.9c-3.2,1.9-2.8,4.1-2.8,4.1"/>
								</g>
								<g>
									<path class="st5" d="M606.4,493c-0.1-0.1-2-2.3-4.6-0.8c-2.6,1.5-2.4,3.2-2.4,3.3l-1.6,0.3c0-0.1-0.5-2.8,3.2-4.9
										c3-1.8,5.6,0,6.6,1.1L606.4,493z"/>
								</g>
							</g>
							<g>
								<g>
									<path class="st6" d="M616.7,492.2c0,0,2.3,3.4-1.5,5.4c-3.9,2.2-5.8-1.8-5.8-1.8"/>
								</g>
								<g>
									<path class="st5" d="M614.7,498.7c-1,0.4-2.1,0.4-3,0.1c-2-0.7-3-2.7-3-2.8l1.4-0.7c0,0,0.7,1.5,2.1,1.9
										c0.8,0.3,1.7,0.1,2.6-0.4c0.9-0.5,1.5-1.2,1.7-1.9c0.3-1.2-0.5-2.4-0.5-2.4l1.3-0.9c0,0.1,1.2,1.7,0.7,3.6
										c-0.3,1.2-1.1,2.2-2.5,3C615.3,498.5,615,498.6,614.7,498.7z"/>
								</g>
							</g>
							<g>
								<g>
									<path class="st6" d="M573.1,508.5c2.5-2.5,6.5-2.4,9,0.1l6.7,6.8c2.5,2.5,2.4,6.5-0.1,9c-2.5,2.5-6.5,2.4-9-0.1l-6.7-6.8
										C570.5,514.9,570.6,510.9,573.1,508.5z"/>
								</g>
								<g>
									<path class="st5" d="M586.7,526.5c-0.8,0.3-1.7,0.5-2.6,0.5c-1.9,0-3.7-0.8-5-2.2l-6.7-6.8c-2.8-2.8-2.7-7.4,0.1-10.1
										c1.4-1.3,3.2-2.1,5.1-2c1.9,0,3.7,0.8,5,2.2l6.7,6.8c1.3,1.4,2.1,3.2,2,5.1c0,1.9-0.8,3.7-2.2,5
										C588.5,525.7,587.6,526.2,586.7,526.5z M575.5,507.8c-0.7,0.3-1.4,0.7-1.9,1.2c-1.1,1-1.7,2.4-1.7,3.9c0,1.5,0.5,2.9,1.6,4
										l6.7,6.8c2.1,2.2,5.7,2.2,7.9,0.1c1.1-1,1.7-2.4,1.7-3.9c0-1.5-0.5-2.9-1.6-4l-6.7-6.8C579.9,507.5,577.5,507,575.5,507.8z
										"/>
								</g>
							</g>
							<g>
								<g>
									<circle class="st5" cx="576" cy="483.1" r="10.1"/>
								</g>
							</g>
							<g>
								<g>
									<circle class="st5" cx="602.6" cy="460.6" r="10.1"/>
								</g>
							</g>
							<g>
								<g>
									
										<ellipse transform="matrix(0.9355 -0.3534 0.3534 0.9355 -127.6667 238.6381)" class="st5" cx="589.6" cy="468.9" rx="18.3" ry="13.8"/>
								</g>
							</g>
							<g>
								<g>
									
										<ellipse transform="matrix(0.9355 -0.3534 0.3534 0.9355 -123.7352 245.1695)" class="st5" cx="609.4" cy="461.4" rx="18.3" ry="13.8"/>
								</g>
							</g>
						</g>
						<g>
							
								<rect x="570.5" y="465.4" transform="matrix(-0.3534 -0.9355 0.9355 -0.3534 336.8372 1173.1658)" class="st20" width="6.7" height="9.6"/>
						</g>
						<g>
							
								<rect x="574.5" y="471.4" transform="matrix(-0.3534 -0.9355 0.9355 -0.3534 334.269 1183.5011)" class="st20" width="3.4" height="9.6"/>
						</g>
						<g>
							<g>
								<g>
									
										<ellipse transform="matrix(0.9355 -0.3534 0.3534 0.9355 -129.2211 253.7024)" class="st6" cx="630.1" cy="480.7" rx="8.5" ry="7.2"/>
								</g>
								<g>
									<path class="st5" d="M632.9,488.2c-4.8,1.8-10-0.1-11.5-4.2s1.1-9,5.9-10.8c4.8-1.8,10,0.1,11.5,4.2
										S637.7,486.3,632.9,488.2z M627.8,474.7c-4,1.5-6.2,5.4-5,8.7c1.2,3.3,5.5,4.8,9.5,3.3c4-1.5,6.2-5.4,5-8.7
										C636.1,474.6,631.8,473.2,627.8,474.7z"/>
								</g>
							</g>
							<g>
								<g>
									<path class="st6" d="M631.6,456.2c-2.1-0.2-4,1.4-4.3,3.7c0,0,0,0.1,0,0.1l0,0l-0.7,6.3l-2.3-6l0,0c0,0,0-0.1,0-0.1
										c-0.8-2.1-3.1-3.3-5.1-2.5c-2,0.8-3,3.1-2.1,5.2c0,0,0,0.1,0.1,0.1l0,0l4,10.7l6-2.3l6.6,0.7l1.2-11.4l0,0c0,0,0-0.1,0-0.1
										C635.2,458.4,633.7,456.4,631.6,456.2z"/>
								</g>
								<g>
									<path class="st5" d="M634.5,473.1l-7.2-0.8l-6.6,2.5l-4.6-12.2l0,0c-0.6-2.4,0.6-4.8,2.8-5.6c2.2-0.8,4.7,0.2,5.8,2.4l0,0
										l0.2,0.5c0,0.1,0,0.1,0.1,0.2c0,0,0,0,0,0l0,0.1l1.1,2.8l0.4-3.8l0,0c0.2-1,0.8-2,1.6-2.7c1-0.8,2.2-1.2,3.4-1.1
										c1.2,0.1,2.4,0.8,3.1,1.8c0.6,0.8,1,1.9,1,2.9l0,0l0,0.5c0,0.1,0,0.1,0,0.2c0,0,0,0,0,0l0,0.1L634.5,473.1z M621.7,472.8
										l5.4-2.1l6,0.6l1-9.8l0,0l0.1-0.8c0,0,0-0.1,0-0.1l0,0c0.1-0.9-0.1-1.8-0.7-2.5c-0.5-0.7-1.2-1.1-2-1.2
										c-0.8-0.1-1.6,0.2-2.2,0.7c-0.7,0.6-1.1,1.4-1.2,2.3l0,0c0,0,0,0.1,0,0.1l-0.1,0.8l0,0l-0.9,8.8l-3.2-8.4l0,0l-0.3-0.9
										c-0.7-1.7-2.5-2.6-4.1-2c-1.6,0.6-2.3,2.5-1.7,4.2l0,0.1l0.3,0.8l0,0L621.7,472.8z"/>
								</g>
							</g>
							<g>
								<g>
									<path class="st6" d="M629.2,476c-1.4,1.4-1.2,3.7,0.3,5.2c1.5,1.5,3.8,1.6,5.2,0.2c0,0,0.1-0.1,0.1-0.1l0,0l4.6-4.3
										c2.1-3.8-2.2-7.6-5.5-5.4L629.2,476L629.2,476C629.3,476,629.3,476,629.2,476z"/>
								</g>
								<g>
									<path class="st5" d="M633.9,482.9c-1.6,0.6-3.5,0.2-4.9-1.1c-1.7-1.6-1.9-4.1-0.7-5.8l-0.1-0.1l0.6-0.6l4.7-4.4l0.1,0
										c1.8-1.2,4.1-1,5.7,0.5c1.7,1.6,2,3.9,0.9,5.9l-0.1,0.1l-4.7,4.4c0,0,0,0,0,0c-0.1,0.1-0.2,0.2-0.3,0.3l-0.2,0.2l0,0
										C634.5,482.6,634.2,482.8,633.9,482.9z M629.2,476l0.6,0.6c-1,1.1-0.9,2.9,0.3,4.1c1.2,1.2,3,1.3,4.1,0.2l0.1-0.1l0.6-0.6
										l0.1,0l4-3.7c0.8-1.6,0.2-3.1-0.7-3.9c-0.8-0.8-2.3-1.3-3.7-0.4l-4,3.7l0,0l-0.7,0.6L629.2,476L629.2,476z"/>
								</g>
							</g>
							<g>
								<g>
									<path class="st6" d="M625.3,472.1c-1.6,1.6-1.7,4.2-0.2,5.7c1.5,1.5,4.1,1.4,5.7-0.2c0,0,0.1-0.1,0.1-0.1l0,0l5.4-5.2
										c2.6-4.3-1.7-8.1-5.5-5.4l-5.4,5.2l0,0C625.3,472,625.3,472.1,625.3,472.1z"/>
								</g>
								<g>
									<path class="st5" d="M629.5,479.3c-1.7,0.6-3.6,0.3-4.9-1c-0.9-0.9-1.4-2.1-1.3-3.4c0-1.1,0.4-2.1,1.1-2.9l0,0l0.6-0.6
										l5.5-5.2c2.4-1.7,4.8-1.1,6.2,0.1c1.7,1.6,1.9,4.1,0.5,6.3l-0.1,0.1l-5.6,5.3c0,0,0,0-0.1,0.1c-0.1,0.1-0.2,0.2-0.3,0.3
										l-0.1,0.1l0,0C630.4,478.9,629.9,479.1,629.5,479.3z M625.8,472.7c-0.6,0.6-1,1.5-1,2.3c0,0.8,0.3,1.6,0.9,2.2
										c1.2,1.2,3.2,1.1,4.5-0.2l0.1-0.1l0.6-0.6l0,0l4.8-4.6c1.1-1.9,0.6-3.5-0.3-4.3c-0.8-0.8-2.4-1.2-4.1,0L625.8,472.7
										C625.9,472.6,625.9,472.6,625.8,472.7L625.8,472.7z"/>
								</g>
							</g>
							<g>
								<g>
									<path class="st6" d="M621.6,473.8c-1.9,0-3.5,1.8-3.4,3.9s1.6,3.8,3.5,3.8c0,0,0.1,0,0.1,0l0,0l6.3,0.2
										c4.1-1.2,3.8-6.9-0.1-7.7l-6.3-0.2l0,0C621.7,473.8,621.6,473.8,621.6,473.8z"/>
								</g>
								<g>
									<path class="st5" d="M628.7,482.3c-0.1,0-0.3,0.1-0.4,0.1l-0.1,0l-6.5-0.2c0,0,0,0-0.1,0c-0.1,0-0.3,0-0.4,0l-0.3,0l0,0
										c-2.1-0.3-3.7-2.2-3.7-4.6c0-1.2,0.4-2.4,1.2-3.3c0.6-0.7,1.5-1.2,2.4-1.4l0-0.1l0.8,0l6.4,0.2l0.1,0
										c2.1,0.4,3.6,2.2,3.7,4.4C632,479.7,630.8,481.5,628.7,482.3z M628,480.8c1.7-0.6,2.3-2.1,2.3-3.2c0-1.1-0.7-2.5-2.4-2.9
										l-6.3-0.2c0,0-0.1,0-0.1,0l0,0c-0.7,0-1.4,0.3-1.9,0.9c-0.5,0.6-0.8,1.4-0.8,2.2c0,1.7,1.2,3.1,2.7,3l0.1,0l0.8,0l0,0.1
										L628,480.8z"/>
								</g>
							</g>
						</g>
					</g>
				</g>
				<g>
					<path class="st9" d="M513.7,365.9c0,0-20.5,20.7,5.3,123.6C544.7,592.3,592.9,659,592.9,659"/>
					<path class="st5" d="M590.3,660.9c-0.5-0.7-48.8-68.4-74.4-170.6c-10.8-43-14.9-77.1-12.4-101.5c2-18.6,7.3-24.5,7.9-25.1
						l2.3,2.2l2.3,2.2c-0.2,0.2-18.6,22.1,6.1,120.6c25.3,101,72.9,167.7,73.4,168.4L590.3,660.9z"/>
				</g>
			</g>
			<g>
				<defs>
					<path id="SVGID_00000102517315751739237890000008904919379842455198_" d="M823.4,789.9c-7.5,5.2-14.7,7.8-16.7,8.5l-84.9,32.1
						c-1.5,0.7-5.9,2.4-11.8,3.4c-2.2,2.1-4.5,4-7.1,5.8c-7.5,5.2-14.7,7.8-16.7,8.5l-84.9,32.1c-3.5,1.5-20.1,7.9-36.9,1
						c-7.8-3.2-18.6-10.7-25-27.8c-6.6-17.6-0.5-34.5,16.9-46.6c6.3-4.3,12.9-7.4,17.9-9.3c0.4-1.4,0.8-2.9,1.3-4.6l-1.9-0.2
						c-66-7.7-113.6-67.7-106.2-133.7c3.1-27.6,15.4-53,35-72.4c-3.5-10.6-7.2-22.6-11.4-36.4c-19.2-63.5-26.4-117.1-21.4-159.2
						c5.3-44.9,22.8-63.2,32.8-70.1c1.7-1.2,3.5-2.3,5.3-3.1c10.3-5,24.1-4.9,38.9,0.4c19.7,7.1,40,22.5,60.2,45.9
						c24.4,28.1,47.9,67.1,70,115.9c7.5,16.6,13.8,31,19.1,43.5c16.2,1.6,32.2,6.4,46.5,14.3c58.3,31.9,80.1,105.3,48.5,163.8
						l-6.1,11.3l-70.5-38.5L723,697l-2.7,1c3.7,1.8,7.2,4.3,10.4,7.7c25.4-8.7,43.8-0.6,54,8.5c9.2-2.7,23.8-5.2,36.7,0.1
						c9.1,3.8,15.9,11,19.6,20.8C849.2,756.5,842.7,776.5,823.4,789.9z M589.3,768.6c2.3-2.4,4.9-4.7,7.8-6.7c0.7-0.5,1.5-1,2.2-1.5
						c-0.7-6.3,0.1-12.2,2.2-17.6l-1.4,0.5l-6.2-16.5L589.3,768.6z"/>
				</defs>
				<clipPath id="SVGID_00000036940793520655395690000017346651116771678857_">
					<use xlink:href="#SVGID_00000102517315751739237890000008904919379842455198_"  style="overflow:visible;"/>
				</clipPath>
			</g>
		</g>
	</g>
	<g>
		<defs>
			<rect id="SVGID_00000132061581697604470880000006708928577681568401_" x="-22.3" y="-5" width="941.8" height="941.8"/>
		</defs>
		<clipPath id="SVGID_00000175297496416243658240000003134915410480378277_">
			<use xlink:href="#SVGID_00000132061581697604470880000006708928577681568401_"  style="overflow:visible;"/>
		</clipPath>
		
			<g transform="matrix(1 0 0 1 0 0)" style="opacity:0.24;clip-path:url(#SVGID_00000175297496416243658240000003134915410480378277_);">
			
				<image style="overflow:visible;" width="872" height="872" xlink:href="6F1459415143A8DE.png"  transform="matrix(1.3004 0 0 1.3004 -117.5 -101)">
			</image>
		</g>
	</g>
</g>
<g id="halftone">
	<g class="st73">
		<defs>
			<path id="SVGID_00000067941775245513726200000017350917136920372147_" class="st73" d="M951.5,1037v-51h-203v51h-52v-51H684
				v-57.2c-30.5-2.5-54.5-28.2-54.5-59.3c0-20.4,10.6-39.3,27.5-50.2V736c0-13.2,10.8-24,24-24h49.5c2.2-3.8,5-7.1,8.4-9.9
				c4.1-3.3,8.9-5.7,13.9-7c-0.2-0.5-0.4-1-0.6-1.5c-31.7-8-54.7-36.9-54.7-70.2c0-9.9,2-19.5,5.8-28.5l11-25.7l11,25.7
				c5.1,12,14.9,21.3,26.8,26c0.5-4,0.9-7.8,1.4-11.4c3-25.8,5-42.9,18.4-54.6c12.2-10.6,31-14.4,71.9-14.4
				c38.9,0,58.9,4.5,71.3,16.1c13.1,12.3,15.3,29.8,18.3,54.2c0.4,3.2,0.8,6.6,1.3,10.1c11.9-4.7,21.7-14,26.9-26l11-25.7l11,25.7
				c3.9,9,5.8,18.6,5.8,28.5c0,17.5-6.3,34.4-17.8,47.6c-9.7,11.1-22.6,19-36.7,22.6c-2.7,6.1-6.5,11.3-11.6,15.6
				c1.1,0.9,2.2,1.9,3.2,2.9h92.4c13.2,0,24,10.8,24,24v82.7c17.5,10.7,28.5,29.9,28.5,50.8c0,31.5-24.5,57.3-55.5,59.4V986h-12.5
				v51H951.5z"/>
		</defs>
		<clipPath id="SVGID_00000165953490036285621560000003076375865139562659_">
			<use xlink:href="#SVGID_00000067941775245513726200000017350917136920372147_"  style="overflow:visible;"/>
		</clipPath>
	</g>
</g>
</svg>
