<?xml version="1.0" encoding="utf-8"?>
<!-- Generator: Adobe Illustrator 27.3.1, SVG Export Plug-In . SVG Version: 6.00 Build 0)  -->
<svg version="1.1" xmlns="http://www.w3.org/2000/svg" xmlns:xlink="http://www.w3.org/1999/xlink" x="0px" y="0px"
	 viewBox="0 0 900 900" style="enable-background:new 0 0 900 900;" xml:space="preserve">
<style type="text/css">
	.st0{display:none;}
	.st1{display:inline;opacity:0.28;}
	.st2{fill:none;stroke:#000000;stroke-width:0.75;stroke-miterlimit:10;}
	.st3{fill:none;stroke:#000000;stroke-width:4;stroke-linecap:round;stroke-linejoin:round;stroke-miterlimit:10;}
	.st4{fill:#FCCF72;stroke:#1A2276;stroke-width:6;stroke-miterlimit:10;}
	.st5{fill:#1A2276;}
	.st6{fill:#EBEAD8;}
	.st7{fill:#ED8376;stroke:#E90302;stroke-width:17;stroke-linecap:round;stroke-linejoin:round;stroke-miterlimit:10;}
	.st8{fill:#E90302;}
	.st9{fill:#FCCF72;}
	.st10{fill:#8288A8;}
	.st11{fill:#EBEAD8;stroke:#1A2276;stroke-width:6;stroke-miterlimit:10;}
	.st12{fill:none;stroke:#1A2276;stroke-width:6;stroke-miterlimit:10;}
	.st13{fill:#E90302;stroke:#1A2276;stroke-width:6;stroke-miterlimit:10;}
	.st14{fill:#EBBFAF;}
	
		.st15{clip-path:url(#SVGID_00000121271751401880529900000004206253580563889076_);fill:#FCCF72;stroke:#1A2276;stroke-width:6;stroke-miterlimit:10;}
	
		.st16{clip-path:url(#SVGID_00000032643982861462757530000001560029725820863415_);fill:#FCCF72;stroke:#1A2276;stroke-width:6;stroke-miterlimit:10;}
	
		.st17{clip-path:url(#SVGID_00000166650973021772603800000002087462907221871035_);fill:#FCCF72;stroke:#1A2276;stroke-width:6;stroke-miterlimit:10;}
	
		.st18{clip-path:url(#SVGID_00000139261366757779622160000017138514016863397293_);fill:#FCCF72;stroke:#1A2276;stroke-width:6;stroke-miterlimit:10;}
	
		.st19{clip-path:url(#SVGID_00000085223808139240721550000002761806271700963204_);fill:#FCCF72;stroke:#1A2276;stroke-width:6;stroke-miterlimit:10;}
	.st20{fill:#FFFFFF;}
	
		.st21{clip-path:url(#SVGID_00000097497841492004874340000018222403923403817407_);fill:#FCCF72;stroke:#1A2276;stroke-width:6;stroke-miterlimit:10;}
	.st22{fill:none;stroke:#1A2276;stroke-width:6;stroke-linecap:round;stroke-miterlimit:10;}
	
		.st23{clip-path:url(#SVGID_00000170266107595839532320000012420967880639714946_);fill:#FCCF72;stroke:#1A2276;stroke-width:6;stroke-miterlimit:10;}
	
		.st24{clip-path:url(#SVGID_00000090980397401267340360000009935476240891369917_);fill:#FCCF72;stroke:#1A2276;stroke-width:6;stroke-miterlimit:10;}
	
		.st25{clip-path:url(#SVGID_00000137822973372807915310000007893858572452923057_);fill:#FCCF72;stroke:#1A2276;stroke-width:6;stroke-miterlimit:10;}
	
		.st26{clip-path:url(#SVGID_00000158717695581410394270000017424867598665360049_);fill:#FCCF72;stroke:#1A2276;stroke-width:6;stroke-miterlimit:10;}
	
		.st27{clip-path:url(#SVGID_00000060009136610313616270000000129696441158049429_);fill:#FCCF72;stroke:#1A2276;stroke-width:6;stroke-miterlimit:10;}
	
		.st28{clip-path:url(#SVGID_00000036245666325384576430000013202915626108310403_);fill:#FCCF72;stroke:#1A2276;stroke-width:6;stroke-miterlimit:10;}
	.st29{fill:none;stroke:#000000;stroke-width:4;stroke-miterlimit:10;}
	.st30{fill:#FCCF72;stroke:#000000;stroke-width:4;stroke-miterlimit:10;}
	.st31{fill:none;stroke:#000000;stroke-width:5;stroke-linecap:round;stroke-miterlimit:10;}
	
		.st32{clip-path:url(#SVGID_00000164489650832231199130000002714360196666071681_);fill:#FCCF72;stroke:#1A2276;stroke-width:6;stroke-miterlimit:10;}
	
		.st33{clip-path:url(#SVGID_00000146475937274700184770000003637716993755832764_);fill:#FCCF72;stroke:#1A2276;stroke-width:6;stroke-miterlimit:10;}
	
		.st34{clip-path:url(#SVGID_00000129172347079131329480000001919553754605876390_);fill:#FCCF72;stroke:#1A2276;stroke-width:6;stroke-miterlimit:10;}
	
		.st35{clip-path:url(#SVGID_00000029007947212602872200000003551153622970874516_);fill:#FCCF72;stroke:#1A2276;stroke-width:6;stroke-miterlimit:10;}
	.st36{fill:#E90302;stroke:#EBBFAF;stroke-width:6;stroke-miterlimit:10;}
	.st37{clip-path:url(#SVGID_00000121254135220519352360000016406218427558558131_);fill:#FCCF72;}
	.st38{clip-path:url(#SVGID_00000121254135220519352360000016406218427558558131_);fill:#1A2276;}
	.st39{clip-path:url(#SVGID_00000132776357853778679350000004018808921677356701_);fill:#8288A8;}
	.st40{fill:#020202;}
	.st41{clip-path:url(#SVGID_00000173880513787853939110000010547633001837503652_);}
	.st42{fill:#EBEAD8;stroke:#1A2276;stroke-width:3;stroke-miterlimit:10;}
	.st43{fill:#8288A8;stroke:#8288A8;stroke-miterlimit:10;}
	.st44{fill:#1A2276;stroke:#FCCF72;stroke-width:6;stroke-miterlimit:10;}
	.st45{fill:none;stroke:#EBEAD8;stroke-width:6;stroke-miterlimit:10;}
	.st46{fill:#8288A8;stroke:#1A2276;stroke-width:6;stroke-miterlimit:10;}
	.st47{fill:#FCCF72;stroke:#8288A8;stroke-width:6;stroke-miterlimit:10;}
	.st48{clip-path:url(#SVGID_00000114057443295135773040000003170877982101704615_);}
	.st49{fill:none;}
	.st50{fill:#ED8376;}
	.st51{fill:url(#);}
	.st52{fill:#1A2276;stroke:url(#);stroke-miterlimit:10;}
	.st53{fill:#ED8376;stroke:#E90302;stroke-width:6;stroke-linecap:round;stroke-linejoin:round;stroke-miterlimit:10;}
	.st54{fill:none;stroke:#E90302;stroke-width:6;stroke-linecap:round;stroke-linejoin:round;stroke-miterlimit:10;}
	.st55{fill:none;stroke:#E90302;stroke-width:5;stroke-linecap:round;stroke-linejoin:round;stroke-miterlimit:10;}
	.st56{fill:#FFFFFF;stroke:#000000;stroke-width:6;stroke-miterlimit:10;}
	.st57{fill:#FFFDFD;stroke:#1A2276;stroke-width:7;stroke-miterlimit:10;}
	
		.st58{clip-path:url(#SVGID_00000070081213388371782370000000779075567075770791_);fill:#FCCF72;stroke:#1A2276;stroke-width:6;stroke-miterlimit:10;}
	
		.st59{clip-path:url(#SVGID_00000095335271306280974550000001995292022664742070_);fill:#FCCF72;stroke:#1A2276;stroke-width:6;stroke-miterlimit:10;}
	.st60{fill:none;stroke:#E90302;stroke-width:6;stroke-linecap:round;stroke-miterlimit:10;}
	
		.st61{clip-path:url(#SVGID_00000027605304272106563470000010161652816080017039_);fill:#FCCF72;stroke:#1A2276;stroke-width:6;stroke-miterlimit:10;}
	
		.st62{clip-path:url(#SVGID_00000050629381734208982140000010507476224737065119_);fill:#FCCF72;stroke:#1A2276;stroke-width:6;stroke-miterlimit:10;}
	
		.st63{clip-path:url(#SVGID_00000042729831566830879280000010443192958289263778_);fill:#FCCF72;stroke:#1A2276;stroke-width:6;stroke-miterlimit:10;}
	.st64{fill:none;stroke:#1A2276;stroke-width:7;stroke-miterlimit:10;}
	
		.st65{clip-path:url(#SVGID_00000034808881426342872950000015953565874458412972_);fill:#FCCF72;stroke:#1A2276;stroke-width:6;stroke-miterlimit:10;}
	.st66{clip-path:url(#SVGID_00000022536188829754095640000002104266088150061702_);}
	
		.st67{clip-path:url(#SVGID_00000069380238743831412030000008853404815202668964_);fill:#FCCF72;stroke:#1A2276;stroke-width:6;stroke-miterlimit:10;}
	
		.st68{clip-path:url(#SVGID_00000120556734151724026520000009233772632890368390_);fill:#FCCF72;stroke:#1A2276;stroke-width:6;stroke-miterlimit:10;}
	
		.st69{clip-path:url(#SVGID_00000061430928483191736610000017524127349710335409_);fill:#FCCF72;stroke:#1A2276;stroke-width:6;stroke-miterlimit:10;}
	.st70{clip-path:url(#SVGID_00000165212053340193687720000018426814327903566726_);}
	.st71{clip-path:url(#SVGID_00000003105407280360890460000016660920279722062012_);}
	.st72{clip-path:url(#SVGID_00000002382194541170950890000015509035531891246728_);}
	.st73{opacity:0.5;}
	.st74{clip-path:url(#SVGID_00000048500372843870766900000014205787478718006442_);}
	.st75{clip-path:url(#SVGID_00000083084567324942623080000000927344644358757517_);}
	.st76{fill:#FFFDFD;}
	.st77{clip-path:url(#SVGID_00000011017510085481209510000012395513288897878450_);}
	.st78{opacity:0.8;}
	
		.st79{clip-path:url(#SVGID_00000137120149518566469730000016805427372518831025_);fill:#FCCF72;stroke:#1A2276;stroke-width:6;stroke-miterlimit:10;}
	
		.st80{clip-path:url(#SVGID_00000055707749614025027080000016781441899164864185_);fill:#FCCF72;stroke:#1A2276;stroke-width:6;stroke-miterlimit:10;}
	.st81{clip-path:url(#SVGID_00000141437441380566148260000004156704320773944203_);}
	.st82{clip-path:url(#SVGID_00000080890926224993383110000005730516256715531700_);}
	.st83{clip-path:url(#SVGID_00000008830542203634786450000014679434379419700113_);}
	.st84{clip-path:url(#SVGID_00000055665699389964486070000014260721913932840862_);}
	.st85{clip-path:url(#SVGID_00000039115712910243223780000013600613085711387793_);}
	.st86{fill:none;stroke:#1A2276;stroke-width:19;stroke-miterlimit:10;}
	.st87{clip-path:url(#SVGID_00000161589825620702281080000017665668960409824415_);}
	.st88{fill:none;stroke:#1A2276;stroke-width:10;stroke-miterlimit:10;}
	.st89{clip-path:url(#SVGID_00000020366999250300440870000007755077418686418578_);}
	.st90{clip-path:url(#SVGID_00000119814719609794106520000001987758254565762700_);fill:#FCCF72;}
	.st91{clip-path:url(#SVGID_00000119814719609794106520000001987758254565762700_);fill:#1A2276;}
	.st92{clip-path:url(#SVGID_00000006697614218999831880000003641427199428977323_);}
	.st93{clip-path:url(#SVGID_00000087403738112944946000000005076317410772647347_);}
	.st94{clip-path:url(#SVGID_00000087403738112944946000000005076317410772647347_);fill:none;}
	.st95{clip-path:url(#SVGID_00000093858078525525832570000013142423430831697064_);fill:#8288A8;}
	.st96{clip-path:url(#SVGID_00000093858078525525832570000013142423430831697064_);fill:#FCCF72;}
	.st97{fill:#FFFFFF;stroke:#FFFFFF;stroke-width:6;stroke-miterlimit:10;}
	.st98{fill:none;stroke:#8288A8;stroke-width:6;stroke-miterlimit:10;}
	.st99{font-family:'Aptly-Bold';}
	.st100{font-size:40.1137px;}
	.st101{letter-spacing:4;}
	.st102{font-size:122.4095px;}
	.st103{font-size:28px;}
	.st104{font-family:'Aptly';}
	.st105{font-size:70.872px;}
	.st106{clip-path:url(#SVGID_00000003096756043220975530000017539868649072833947_);}
	.st107{clip-path:url(#SVGID_00000135656831301860530230000013211829715535862950_);}
	.st108{clip-path:url(#SVGID_00000111881777192007408330000017557823373745015225_);}
	.st109{clip-path:url(#SVGID_00000053539254562599733160000007911320646179991220_);}
	.st110{clip-path:url(#SVGID_00000002362648127463161810000014478035966130718868_);}
	.st111{fill:#EBEAD8;stroke:#1A2276;stroke-width:12;stroke-miterlimit:10;}
	.st112{fill:none;stroke:#1A2276;stroke-width:12;stroke-miterlimit:10;}
	.st113{clip-path:url(#SVGID_00000104704825161014012490000002488185332440178055_);}
	.st114{clip-path:url(#SVGID_00000137101973671005441900000001580043527756187071_);}
	.st115{clip-path:url(#SVGID_00000068662868968875304140000003831720407839366285_);}
	.st116{clip-path:url(#SVGID_00000031925910725985336270000014226576768881007028_);}
	.st117{clip-path:url(#SVGID_00000123424539264761760760000008276978803331675033_);}
	.st118{clip-path:url(#SVGID_00000133525121105986772830000007212967644707585181_);fill:#8288A8;}
	.st119{clip-path:url(#SVGID_00000133525121105986772830000007212967644707585181_);fill:#FCCF72;}
	.st120{clip-path:url(#SVGID_00000065791124875792703860000013193020136482590351_);}
	.st121{clip-path:url(#SVGID_00000100378582446133918630000005571628614887851193_);fill:#E90302;}
	.st122{clip-path:url(#SVGID_00000134933284907641388080000002530123800922032806_);fill:none;}
	.st123{clip-path:url(#SVGID_00000008133250205316100390000008515189728931418805_);}
	.st124{clip-path:url(#SVGID_00000172427635865311561200000013614646257935602306_);}
	.st125{clip-path:url(#SVGID_00000152985987872486873870000007412093151033130919_);}
	.st126{clip-path:url(#SVGID_00000090278279107799881790000003693057133811602082_);}
	.st127{clip-path:url(#SVGID_00000053509797081907283530000012884443537969417347_);}
	.st128{clip-path:url(#SVGID_00000012452206083727224650000004657084274746378400_);}
	.st129{clip-path:url(#SVGID_00000045610741692636404910000016409595616138661782_);}
	.st130{clip-path:url(#SVGID_00000003792373092228107910000002722678509432706731_);}
	.st131{clip-path:url(#SVGID_00000069361351926117777270000009191808182884179135_);}
	.st132{clip-path:url(#SVGID_00000142891219401979569310000009850188102990603156_);}
	.st133{clip-path:url(#SVGID_00000156557800312111911840000003054004299387169448_);}
	.st134{clip-path:url(#SVGID_00000079480848636974968920000012319266187348921022_);}
	.st135{clip-path:url(#SVGID_00000173882888041946671710000013109531368560172942_);fill:#EBEAD8;}
	.st136{clip-path:url(#SVGID_00000173882888041946671710000013109531368560172942_);}
	.st137{clip-path:url(#SVGID_00000147919051437994409610000000797319596207419312_);}
	.st138{clip-path:url(#SVGID_00000034085366711522077550000009769474507901381566_);}
	.st139{clip-path:url(#SVGID_00000055700736735905982270000002419637549054137474_);}
	.st140{clip-path:url(#SVGID_00000083071471096804765110000012532969594197884086_);}
	.st141{clip-path:url(#SVGID_00000098937640762458154770000009004731521613041595_);}
	.st142{fill:#ED8376;stroke:#1A2276;stroke-width:6;stroke-miterlimit:10;}
	.st143{fill:url(#);stroke:#1A2276;stroke-width:6;stroke-miterlimit:10;}
	.st144{clip-path:url(#SVGID_00000029747041213782366640000005976702727548681126_);}
	
		.st145{clip-path:url(#SVGID_00000028301491007557894850000001880885319511859117_);fill:#FCCF72;stroke:#1A2276;stroke-width:6;stroke-miterlimit:10;}
	.st146{fill:none;stroke:#FCCF72;stroke-width:6;stroke-linecap:round;stroke-miterlimit:10;}
	.st147{clip-path:url(#SVGID_00000016765032167855246790000014619032228690831754_);}
</style>
<g id="guias" class="st0">
</g>
<g id="Layer_2">
</g>
<g id="Layer_1">
</g>
<g id="web">
	<g>
		<rect x="1.5" class="st6" width="897" height="897"/>
		<g>
			<polygon class="st7" points="225.2,66.4 223.2,97.4 241.5,122.9 220.1,145 218.1,176 187.4,178.8 166,200.9 140.3,183.1 
				109.5,185.9 100.8,155.8 75.1,138 87.5,109.8 78.9,79.7 106.6,66.5 119.1,38.2 149.1,46.2 176.8,33 195.2,58.4 			"/>
			<g>
				<g>
					<path class="st6" d="M146.8,160.9c0-4.7,3.8-8.5,8.5-8.5c4.7,0,8.5,3.8,8.5,8.5v5.3h4.6c4.7,0,8.5,3.8,8.5,8.5
						s-3.8,8.5-8.5,8.5h-12.8c-4,0-7.3-2.7-8.3-6.4c-0.4-1-0.6-2-0.6-3.2V160.9z"/>
					<path class="st5" d="M168.4,184.4h-12.8c-4.4,0-8.2-2.9-9.3-7.2c-0.4-1.1-0.7-2.3-0.7-3.5v-12.8c0-5.3,4.3-9.6,9.6-9.6
						c5.3,0,9.6,4.3,9.6,9.6v4.3h3.5c5.3,0,9.6,4.3,9.6,9.6C178,180.1,173.7,184.4,168.4,184.4z M155.3,153.5
						c-4.1,0-7.4,3.3-7.4,7.4v12.8c0,1,0.2,1.9,0.5,2.8l0,0.1c0.8,3.3,3.8,5.6,7.2,5.6h12.8c4.1,0,7.4-3.3,7.4-7.4
						c0-4.1-3.3-7.4-7.4-7.4h-5.7v-6.4C162.8,156.8,159.4,153.5,155.3,153.5z"/>
				</g>
				<g>
					<line class="st6" x1="176.9" y1="176.7" x2="147.5" y2="176.7"/>
					<rect x="147.5" y="175.7" class="st5" width="29.4" height="2.1"/>
				</g>
				<g>
					<line class="st6" x1="163.8" y1="166.3" x2="159.4" y2="172.1"/>
					
						<rect x="157.9" y="168.1" transform="matrix(0.6034 -0.7974 0.7974 0.6034 -70.8444 195.9745)" class="st5" width="7.3" height="2.1"/>
				</g>
				<g>
					<line class="st6" x1="168.1" y1="167" x2="163.6" y2="172.9"/>
					
						<rect x="162.2" y="168.9" transform="matrix(0.6034 -0.7974 0.7974 0.6034 -69.7222 199.6499)" class="st5" width="7.3" height="2.1"/>
				</g>
				<g>
					<line class="st6" x1="172.3" y1="167.7" x2="167.9" y2="173.6"/>
					
						<rect x="166.4" y="169.6" transform="matrix(0.6034 -0.7974 0.7974 0.6034 -68.5999 203.3253)" class="st5" width="7.3" height="2.1"/>
				</g>
				<g>
					<circle class="st6" cx="154.4" cy="167.2" r="3.5"/>
					<path class="st5" d="M154.4,171.8c-2.5,0-4.6-2.1-4.6-4.6c0-2.5,2.1-4.6,4.6-4.6s4.6,2.1,4.6,4.6
						C159,169.7,157,171.8,154.4,171.8z M154.4,164.7c-1.4,0-2.5,1.1-2.5,2.5s1.1,2.5,2.5,2.5s2.5-1.1,2.5-2.5
						S155.8,164.7,154.4,164.7z"/>
				</g>
				<g>
					<g>
						<path class="st6" d="M114.2,160.9c0-4.7,3.8-8.5,8.5-8.5s8.5,3.8,8.5,8.5v5.3h4.6c4.7,0,8.5,3.8,8.5,8.5s-3.8,8.5-8.5,8.5H123
							c-4,0-7.3-2.7-8.3-6.4c-0.4-1-0.6-2-0.6-3.2V160.9z"/>
						<path class="st5" d="M135.8,184.4H123c-4.4,0-8.2-2.9-9.3-7.2c-0.4-1.1-0.7-2.3-0.7-3.5v-12.8c0-5.3,4.3-9.6,9.6-9.6
							c5.3,0,9.6,4.3,9.6,9.6v4.3h3.5c5.3,0,9.6,4.3,9.6,9.6C145.4,180.1,141.1,184.4,135.8,184.4z M122.7,153.5
							c-4.1,0-7.4,3.3-7.4,7.4v12.8c0,1,0.2,1.9,0.5,2.8l0,0.1c0.8,3.3,3.8,5.6,7.2,5.6h12.8c4.1,0,7.4-3.3,7.4-7.4
							c0-4.1-3.3-7.4-7.4-7.4h-5.7v-6.4C130.1,156.8,126.8,153.5,122.7,153.5z"/>
					</g>
					<g>
						<line class="st6" x1="144.3" y1="176.7" x2="114.9" y2="176.7"/>
						<rect x="114.9" y="175.7" class="st5" width="29.4" height="2.1"/>
					</g>
					<g>
						<line class="st6" x1="131.2" y1="166.3" x2="126.8" y2="172.1"/>
						
							<rect x="125.3" y="168.1" transform="matrix(0.6034 -0.7974 0.7974 0.6034 -83.7853 169.9531)" class="st5" width="7.3" height="2.1"/>
					</g>
					<g>
						<line class="st6" x1="135.5" y1="167" x2="131" y2="172.9"/>
						
							<rect x="129.6" y="168.9" transform="matrix(0.6034 -0.7974 0.7974 0.6034 -82.663 173.6285)" class="st5" width="7.3" height="2.1"/>
					</g>
					<g>
						<line class="st6" x1="139.7" y1="167.7" x2="135.3" y2="173.6"/>
						
							<rect x="133.8" y="169.6" transform="matrix(0.6034 -0.7974 0.7974 0.6034 -81.5408 177.3039)" class="st5" width="7.3" height="2.1"/>
					</g>
					<g>
						<circle class="st6" cx="121.8" cy="167.2" r="3.5"/>
						<path class="st5" d="M121.8,171.8c-2.5,0-4.6-2.1-4.6-4.6c0-2.5,2.1-4.6,4.6-4.6s4.6,2.1,4.6,4.6
							C126.4,169.7,124.3,171.8,121.8,171.8z M121.8,164.7c-1.4,0-2.5,1.1-2.5,2.5s1.1,2.5,2.5,2.5c1.4,0,2.5-1.1,2.5-2.5
							S123.2,164.7,121.8,164.7z"/>
					</g>
				</g>
				<g>
					<ellipse class="st6" cx="148.7" cy="124.4" rx="38.1" ry="29.8"/>
					<path class="st5" d="M148.7,155.3c-19.3,0-29,0-34-3.9c-5.2-4-5.2-11.7-5.2-26.9s0-22.9,5.2-26.9c5.1-3.9,14.7-3.9,34-3.9
						c19.3,0,29,0,34,3.7c5.2,3.8,5.2,11.1,5.2,25.5l0,1.6l0,1.6c0,14.4,0,21.7-5.2,25.5C177.7,155.3,168,155.3,148.7,155.3z
						 M148.7,95.7c-18.8,0-28.2,0-32.7,3.5c-4.4,3.4-4.4,10.7-4.4,25.2s0,21.8,4.4,25.2c4.5,3.5,13.9,3.5,32.7,3.5
						c18.8,0,28.3,0,32.7-3.3c4.3-3.2,4.3-10.1,4.3-23.8l0-1.6l0-1.6c0-13.7,0-20.6-4.3-23.8C177,95.7,167.6,95.7,148.7,95.7z"/>
				</g>
				<g>
					<path class="st8" d="M148.9,143.6c-38.8,0-38.3-12.2-38.3-11.5c0,27.8,0.2,27.8,38.1,27.8c37.3,0,38.1,0,38.1-27.8
						C186.9,131.4,187.1,143.6,148.9,143.6z"/>
					<path class="st5" d="M148.8,161c-19.2,0-28.9,0-33.9-3.7c-5.3-3.8-5.3-11.4-5.3-25.2h0c0-0.5,0.2-0.7,0.3-0.8l0.5-0.5l1.3,0.5
						v0.7c0.1,0.5,2,10.5,37.2,10.5c35.1,0,36.9-10.2,36.9-10.6l0.1-1l2,0.1l0,1c0,14.4-0.2,21.5-5.5,25.2
						C177.3,161,167.8,161,148.8,161z M111.7,136.1c0,10.8,0.5,16.6,4.4,19.4c4.5,3.3,13.9,3.3,32.7,3.3c18.5,0,27.8,0,32.4-3.3
						c4-2.8,4.6-8.5,4.6-19.5c-0.9,0.9-2.1,1.9-3.7,2.9c-6.6,3.8-17.8,5.7-33.1,5.7c-13.4,0-23.6-1.4-30.5-4.3
						C115.1,139,113,137.5,111.7,136.1z"/>
				</g>
				<g>
					<line class="st6" x1="182.2" y1="112.4" x2="126.7" y2="112.4"/>
					<rect x="126.7" y="111.3" class="st5" width="55.5" height="2.1"/>
				</g>
				<g>
					<line class="st6" x1="120.2" y1="111.7" x2="120.2" y2="118.7"/>
					<rect x="119.1" y="111.7" class="st5" width="2.1" height="7.1"/>
				</g>
				<g>
					<path class="st6" d="M174.9,122.8c0,0-1.6-4.6-6.5-3.8c-4.9,0.8-5.5,3.8-5.5,3.8"/>
					<path class="st5" d="M173.9,123.1c-0.1-0.2-1.4-3.8-5.4-3.1c-4,0.7-4.6,2.9-4.6,3l-2.1-0.4c0-0.2,0.7-3.7,6.3-4.7
						c4.6-0.8,7.1,2.6,7.7,4.5L173.9,123.1z"/>
				</g>
				<g>
					<path class="st6" d="M152.6,123.1c0,0-1.6-4.6-6.5-3.8c-4.9,0.8-5.5,3.8-5.5,3.8"/>
					<path class="st5" d="M151.6,123.5c-0.1-0.2-1.4-3.8-5.4-3.1c-4,0.7-4.6,2.9-4.6,3l-2.1-0.4c0-0.2,0.7-3.7,6.3-4.7
						c4.6-0.8,7.1,2.6,7.7,4.5L151.6,123.5z"/>
				</g>
				<g>
					<path class="st6" d="M164.8,127.3c0,0,1.3,5.3-4.4,6.1c-6,0.9-6.4-5.1-6.4-5.1"/>
					<path class="st5" d="M159.1,134.6c-1.5,0-2.8-0.4-3.8-1.3c-2.2-1.8-2.5-4.8-2.5-4.9l2.1-0.2c0,0,0.2,2.2,1.7,3.4
						c0.9,0.7,2,0.9,3.5,0.7c1.4-0.2,2.5-0.8,3-1.6c0.9-1.4,0.5-3.2,0.5-3.2l2.1-0.5c0,0.1,0.6,2.7-0.8,4.9
						c-0.9,1.4-2.4,2.2-4.5,2.5C160,134.6,159.6,134.6,159.1,134.6z"/>
				</g>
				<g>
					<path class="st6" d="M102.5,127.1c4.3-1.9,9.3,0.1,11.2,4.4l5.1,11.7c1.9,4.3-0.1,9.3-4.4,11.2c-4.3,1.9-9.3-0.1-11.2-4.4
						l-5.1-11.7C96.2,134,98.2,129,102.5,127.1z"/>
					<path class="st5" d="M111.1,156.2c-1.2,0-2.4-0.2-3.5-0.7c-2.4-0.9-4.3-2.7-5.3-5.1l-5.1-11.7c-2.1-4.8,0.1-10.5,4.9-12.6
						c2.3-1,4.9-1.1,7.3-0.1c2.4,0.9,4.3,2.7,5.3,5.1l5.1,11.7c1,2.3,1.1,4.9,0.1,7.3c-0.9,2.4-2.7,4.3-5.1,5.3
						C113.7,155.9,112.4,156.2,111.1,156.2z M105.9,127.5c-1,0-2,0.2-3,0.6c-1.8,0.8-3.2,2.3-3.9,4.1c-0.7,1.9-0.7,3.9,0.1,5.7
						l5.1,11.7c1.6,3.8,6,5.5,9.8,3.8c1.8-0.8,3.2-2.3,3.9-4.1c0.7-1.9,0.7-3.9-0.1-5.7l-5.1-11.7
						C111.5,129.1,108.8,127.5,105.9,127.5z"/>
				</g>
				<g>
					<circle class="st5" cx="118.1" cy="96.8" r="13.5"/>
				</g>
				<g>
					<circle class="st5" cx="162.1" cy="81.2" r="13.5"/>
				</g>
				<g>
					<ellipse class="st5" cx="141.9" cy="85.4" rx="24.5" ry="18.4"/>
				</g>
				<g>
					<ellipse class="st5" cx="170.3" cy="85.4" rx="24.5" ry="18.4"/>
				</g>
				<g>
					<g>
						<ellipse class="st6" cx="191.3" cy="115.2" rx="11.4" ry="9.6"/>
						<path class="st5" d="M191.3,125.8c-6.9,0-12.5-4.8-12.5-10.7s5.6-10.7,12.5-10.7c6.9,0,12.5,4.8,12.5,10.7
							S198.1,125.8,191.3,125.8z M191.3,106.6c-5.7,0-10.3,3.8-10.3,8.6c0,4.7,4.6,8.6,10.3,8.6c5.7,0,10.3-3.8,10.3-8.6
							C201.6,110.4,197,106.6,191.3,106.6z"/>
					</g>
					<g>
						<path class="st6" d="M204.8,85.2c-2.5-1.3-5.7-0.1-7.1,2.6c0,0.1-0.1,0.1-0.1,0.2l0,0l-3.8,7.6v-8.5h0c0-0.1,0-0.1,0-0.2
							c0-3.1-2.3-5.5-5.2-5.5s-5.2,2.5-5.2,5.5c0,0.1,0,0.1,0,0.2h0v15.3h8.6l7.9,4l6.9-13.7l0,0c0-0.1,0.1-0.1,0.1-0.2
							C208.3,89.8,207.3,86.5,204.8,85.2z"/>
						<path class="st5" d="M200.4,107.8l-8.6-4.3h-9.4V86h0.1c0.4-3.2,3-5.7,6.2-5.7s5.8,2.5,6.2,5.7h0l0,0.7c0,0.1,0,0.1,0,0.2
							c0,0,0,0,0,0.1l0,0.1v4.1l2.3-4.5l0,0c0.8-1.2,1.9-2.1,3.2-2.6c1.6-0.6,3.3-0.5,4.8,0.2c1.5,0.8,2.6,2.1,3.1,3.7
							c0.4,1.4,0.3,2.8-0.1,4.1l0,0l-0.3,0.6c0,0.1-0.1,0.1-0.1,0.2c0,0,0,0,0,0.1l-0.1,0.1L200.4,107.8z M184.5,101.3h7.8l7.2,3.6
							l5.9-11.7l0,0l0.5-1c0,0,0-0.1,0.1-0.1l0,0c0.5-1.1,0.7-2.3,0.3-3.4c-0.3-1.1-1-2-2-2.4c-1-0.5-2.1-0.5-3.1-0.1
							c-1.1,0.4-2,1.2-2.5,2.3l0,0c0,0,0,0.1,0,0.1l-0.5,1l0,0l-5.3,10.6v-12h0l0-1.3c0-2.5-1.8-4.5-4.1-4.5s-4.1,2-4.1,4.5l0,0.2
							l0,1.1h0V101.3z"/>
					</g>
					<g>
						<path class="st6" d="M192.4,108.9c-2.3,1.1-3.3,4.1-2.1,6.6c1.2,2.6,4.1,3.8,6.4,2.7c0,0,0.1-0.1,0.1-0.1l0,0l7.8-3.2
							c4.4-3.7,0.9-10.5-4.3-9.4l-7.8,3.2l0,0C192.5,108.9,192.5,108.9,192.4,108.9z"/>
						<path class="st5" d="M194.9,119.8c-2.3,0-4.5-1.4-5.6-3.8c-1.3-2.8-0.5-6,1.8-7.6l0-0.1l1-0.4l7.9-3.3l0.1,0
							c2.8-0.6,5.6,0.7,6.9,3.4c1.4,2.7,0.7,5.8-1.7,7.9l-0.1,0.1l-8,3.3c0,0,0,0-0.1,0c-0.2,0.1-0.3,0.1-0.5,0.2l-0.4,0.1l0,0
							C195.9,119.7,195.4,119.8,194.9,119.8z M192.4,108.9l0.4,1c-1.8,0.8-2.5,3.2-1.6,5.2c0.9,2.1,3.2,3.1,5,2.2l0.1-0.1l1-0.5
							l0,0.1l6.7-2.8c1.8-1.7,1.7-3.8,1-5.2c-0.7-1.3-2.2-2.7-4.5-2.3l-6.7,2.8l0,0l-1.1,0.5L192.4,108.9L192.4,108.9z"/>
					</g>
					<g>
						<path class="st6" d="M189.3,102.2c-2.8,1.3-4.1,4.4-2.9,7c1.2,2.6,4.4,3.7,7.2,2.4c0.1,0,0.1-0.1,0.2-0.1l0,0l9.3-3.9
							c5.3-4.2,1.8-10.9-4.3-9.4l-9.3,3.9l0,0C189.4,102.1,189.3,102.1,189.3,102.2z"/>
						<path class="st5" d="M191.2,113.2c-2.4,0-4.7-1.3-5.7-3.5c-0.7-1.5-0.7-3.2-0.1-4.8c0.5-1.3,1.5-2.4,2.7-3.2l0-0.1l1-0.4
							l9.4-3.9c3.8-1,6.5,0.9,7.6,3.1c1.4,2.8,0.4,6-2.4,8.2l-0.1,0.1l-9.4,4c0,0-0.1,0-0.1,0c-0.2,0.1-0.4,0.2-0.6,0.2l-0.3,0.1
							l0,0C192.5,113,191.8,113.2,191.2,113.2z M189.7,103.1c-1.1,0.5-1.9,1.4-2.4,2.4c-0.4,1-0.4,2.2,0,3.1
							c0.9,2.1,3.5,2.9,5.8,1.9l0.1-0.1l1-0.5l0,0.1l8.2-3.4c2.3-1.9,2.4-4,1.7-5.5c-0.7-1.3-2.4-2.7-5.1-2l-9.2,3.9
							C189.8,103.1,189.8,103.1,189.7,103.1L189.7,103.1z"/>
					</g>
					<g>
						<path class="st6" d="M183.9,102.5c-2.4-0.9-5.2,0.6-6.2,3.3s0.2,5.6,2.6,6.4c0.1,0,0.1,0,0.2,0l0,0l7.8,3.2
							c5.7,0.4,8-6.9,3.5-9.7l-7.8-3.2l0,0C184,102.5,184,102.5,183.9,102.5z"/>
						<path class="st5" d="M188.8,116.5c-0.2,0-0.4,0-0.5,0l-0.2,0l-8-3.3c0,0-0.1,0-0.1,0c-0.2-0.1-0.3-0.1-0.5-0.2l-0.3-0.1l0,0
							c-2.4-1.4-3.5-4.5-2.5-7.5c0.6-1.5,1.6-2.8,3-3.5c1.1-0.6,2.4-0.8,3.6-0.6l0-0.1l1,0.4l7.9,3.2l0.1,0c2.4,1.5,3.5,4.5,2.5,7.2
							C194.1,114.8,191.7,116.5,188.8,116.5z M188.6,114.4c2.5,0.1,3.9-1.5,4.4-3c0.5-1.4,0.3-3.5-1.6-4.7l-7.7-3.2c0,0-0.1,0-0.1,0
							l0,0c-0.9-0.3-1.9-0.2-2.8,0.2c-0.9,0.5-1.6,1.3-2,2.4c-0.8,2.1,0.1,4.4,2,5.1l0.1,0l1,0.3l0,0.1L188.6,114.4z"/>
					</g>
				</g>
			</g>
		</g>
		<g>
			<g>
				<polygon class="st8" points="829.1,409.6 71,462.4 71,395.7 829.1,342.8 				"/>
			</g>
			<text transform="matrix(1 -6.972903e-02 0 1 116.3905 442.6202)" class="st6 st99 st100 st101">INCREÍBLE · FANTÁSTICA · APOTEÓSICA</text>
		</g>
		<g>
			<polygon class="st5" points="66,157 834.1,103.4 834.1,330.7 66,384.2 			"/>
			<path class="st6" d="M829.1,108.8V326L71,378.8V161.6L829.1,108.8 M839.1,98.1l-10.7,0.7L70.3,151.7l-9.3,0.6v9.3v217.2v10.7
				l10.7-0.7L829.8,336l9.3-0.6V326V108.8V98.1L839.1,98.1z"/>
		</g>
		<g>
			<text transform="matrix(1 -6.972903e-02 0 1 79.4897 325.7534)" class="st10 st99 st102">estructura seo</text>
			<text transform="matrix(1 -6.972903e-02 0 1 84.4898 318.3351)" class="st5 st99 st102">estructura seo</text>
			<text transform="matrix(1 -6.972903e-02 0 1 91.8816 309.3946)" class="st6 st99 st102">estructura seo</text>
		</g>
		<rect x="91.9" y="514.9" class="st49" width="332.6" height="368.3"/>
		<text transform="matrix(1 0 0 1 91.9229 537.9644)"><tspan x="0" y="0" class="st99 st103">Optimiza la página para SEO.</tspan><tspan x="293.8" y="0" class="st104 st103"> </tspan><tspan x="0" y="33.6" class="st104 st103">Aprende un poco de HTML. Es </tspan><tspan x="0" y="67.2" class="st104 st103">un lenguaje fácil y te permitirá </tspan><tspan x="0" y="100.8" class="st104 st103">decidir mejor la estructura de </tspan><tspan x="0" y="134.4" class="st104 st103">tus páginas para optimizarla </tspan><tspan x="0" y="168" class="st104 st103">para buscadores.</tspan></text>
		<g>
			<g>
				<path class="st5" d="M226,498.4c-6.7,0-12-5.3-12-12v-15.8c0-8.9,4-17.2,11.1-22.8l2.8-2.2c2.4-1.8,5.2-3.5,8.6-3.5
					c6.7,0,12.4,5.6,12.4,12.2c0,3.9-1.7,7.3-4.8,9.7l-2.5,1.9c-0.1,0.1-0.3,0.2-0.4,0.4l0.9,0.5c4.5,2.4,7.3,5.1,7.3,11.3v8.5
					c0,6.7-5.3,12-12,12H226z M188.6,498.4c-6.7,0-12-5.3-12-12v-15.8c0-8.9,4-17.2,11.1-22.8l2.8-2.2c2.4-1.8,5.2-3.5,8.6-3.5
					c6.7,0,12.4,5.6,12.4,12.2c0,3.9-1.7,7.3-4.8,9.7l-2.5,1.9c-0.1,0.1-0.3,0.2-0.4,0.4l0.9,0.5c4.5,2.4,7.3,5.1,7.3,11.3v8.5
					c0,6.7-5.3,12-12,12H188.6z"/>
				<path class="st6" d="M236.4,447c3.8,0,7.4,3.2,7.4,7.2c0,1.8-0.5,4-2.9,5.8l-2.5,2c-2,1.6-3.2,2.7-3.2,4.9
					c0,1.8,1.3,2.7,3.4,3.8l1.1,0.5c3.4,1.8,4.7,3.1,4.7,6.8v8.5c0,4-3.1,7-7,7H226c-4,0-7-3.1-7-7v-15.8c0-8.1,4-14.8,9.2-18.9
					l2.7-2.2C233,447.9,234.6,447,236.4,447 M199,447c3.8,0,7.4,3.2,7.4,7.2c0,1.8-0.5,4-2.9,5.8l-2.5,2c-2,1.6-3.2,2.7-3.2,4.9
					c0,1.8,1.3,2.7,3.4,3.8l1.1,0.5c3.4,1.8,4.7,3.1,4.7,6.8v8.5c0,4-3.1,7-7,7h-11.3c-4,0-7-3.1-7-7v-15.8c0-8.1,4-14.8,9.2-18.9
					l2.7-2.2C195.6,447.9,197.2,447,199,447 M236.4,437c-4.9,0-8.6,2.3-11.6,4.5l-0.1,0.1l-0.1,0.1l-2.7,2.2
					c-2.3,1.8-4.3,3.9-6.1,6.2c-1.9-7.4-8.9-13.1-16.8-13.1c-4.9,0-8.6,2.3-11.6,4.5l-0.1,0.1l-0.1,0.1l-2.7,2.2
					c-8.2,6.5-12.9,16.2-12.9,26.7v15.8c0,9.5,7.5,17,17,17h11.3c5.3,0,9.9-2.3,13-6c3.1,3.7,7.8,6,13,6h11.3c9.5,0,17-7.5,17-17
					v-8.5c0-5.9-2.1-9.7-4.9-12.2c2.9-3.1,4.4-7.1,4.4-11.5C253.8,444.9,245.8,437,236.4,437L236.4,437z"/>
			</g>
		</g>
		<g>
			<text transform="matrix(0.9762 -7.598437e-02 2.250000e-03 1 268.6142 134.8423)" class="st5 st99 st105">webconsejos</text>
			<g>
				<g>
					<path class="st10" d="M673,89.5c0.9,2.4,2.4,3.5,4.8,3.3c1.4-0.1,1.8-0.3,4.9-2.1c0.4-0.2,0.9-0.4,1.3-0.4
						c1.2-0.1,2.4,1,2.4,2.3c0,2.5-4.4,5.2-9,5.6c-6.4,0.5-10.9-3.6-10.9-9.9c0-6.6,4.4-11.7,10.3-12.2c5.6-0.4,10,3.9,10,9.9
						c0,1.7-0.8,2.5-2.6,2.6L673,89.5z M680.9,84.7c-0.3-1.2-0.5-1.6-0.9-2.2c-0.7-1-1.8-1.5-3.1-1.4c-2,0.2-3.3,1.4-4.2,4.2
						L680.9,84.7z"/>
					<path class="st10" d="M695.5,76.5c1.8-1.5,3.1-2,4.9-2.2c5.2-0.4,9.3,4.1,9.4,10.3c0,6.3-4,11.4-9.3,11.9c-2.2,0.2-3.7-0.4-5-2
						c-0.7,1.6-1.5,2.4-2.8,2.5c-1.8,0.1-3.1-1.1-3.1-3l-0.1-23.7c0-1.5,0-1.9,0.4-2.6c0.4-1,1.5-1.7,2.6-1.8
						c1.1-0.1,2.1,0.5,2.6,1.4c0.4,0.7,0.4,1,0.4,2.5L695.5,76.5z M695.5,85.7c0,3.1,1.8,5.2,4.2,5.1c2.3-0.2,4.1-2.6,4.1-5.7
						c0-3-1.8-5.2-4.1-5C697.3,80.3,695.5,82.7,695.5,85.7z"/>
					<path class="st10" d="M712.3,77.1c0-2.2,1.2-3.7,3.1-3.9c1.4-0.1,2.2,0.5,2.8,1.9c1.8-1.8,3.2-2.5,5.5-2.7
						c2.1-0.2,3.8,0.3,5.2,1.4c1.6,1.3,2.2,2.8,2.2,5.8l0,10.1c0,1.5,0,1.9-0.4,2.6c-0.4,1-1.5,1.7-2.6,1.8
						c-1.1,0.1-2.2-0.5-2.6-1.4c-0.4-0.7-0.4-1-0.4-2.5l0-8.7c0-2.4-1.3-3.8-3.4-3.6c-1.9,0.1-3.4,1.9-3.4,3.9l0,8.9
						c0,1.5,0,1.9-0.4,2.6c-0.4,1-1.5,1.7-2.6,1.8c-1.1,0.1-2.2-0.5-2.6-1.4c-0.4-0.7-0.4-1-0.4-2.5L712.3,77.1z"/>
					<path class="st10" d="M735.3,75.8c0-1.5,0-1.9,0.4-2.6c0.4-1,1.5-1.7,2.6-1.8c1.1-0.1,2.1,0.5,2.6,1.4c0.4,0.7,0.4,1,0.4,2.5
						l0,13.7c0,1.5,0,1.9-0.4,2.6c-0.4,1-1.5,1.7-2.6,1.8c-1.1,0.1-2.2-0.5-2.6-1.4c-0.4-0.7-0.4-1-0.4-2.5L735.3,75.8z M744.7,65.2
						c0-1.4-1.2-2.5-2.8-2.6v0l-0.1,0c-0.2,0-0.4,0-0.5,0c-0.2,0-0.4,0-0.6,0.1l-4.8,0.4c-0.2,0-0.4,0-0.5,0c-2,0.2-3.6,1.6-3.6,3.2
						c0,1.6,1.6,2.8,3.5,2.7c0,0,0.1,0,0.1,0l6.5-0.6C743.6,67.9,744.7,66.6,744.7,65.2z"/>
					<path class="st10" d="M760.1,73.9c0,1.4-1.1,2.8-2.3,2.9c-0.7,0.1-0.7,0.1-2.5-0.6c-0.9-0.4-1.7-0.5-2.3-0.5
						c-1,0.1-1.6,0.5-1.6,1.2c0,0.8,0.3,1,3.2,1.9c2.7,0.9,3.5,1.3,4.6,2.3c0.9,1,1.5,2.2,1.5,3.7c0,4.1-3.2,7.1-7.9,7.5
						c-4.1,0.3-7.7-1.5-7.7-3.9c0-1.4,1.2-2.9,2.5-3c0.7-0.1,0.7-0.1,3.1,0.9c1,0.4,1.8,0.5,2.4,0.5c1-0.1,1.8-0.8,1.8-1.6
						c0-0.7-0.5-1.1-2.3-1.6c-3-0.9-3.8-1.3-4.8-1.9c-1.4-0.9-2.1-2.3-2.1-4.3c0-3.8,3.3-6.9,7.7-7.3
						C756.9,69.9,760.1,71.6,760.1,73.9z"/>
					<path class="st10" d="M770.5,63.3c0,2-1.5,3.7-3.5,3.9c-2,0.2-3.5-1.3-3.5-3.3c0-2,1.6-3.7,3.6-3.8
						C769,59.9,770.5,61.4,770.5,63.3z M764,73.6c0-1.5,0-1.9,0.4-2.6c0.4-1,1.5-1.7,2.6-1.8c1.1-0.1,2.1,0.5,2.6,1.4
						c0.4,0.7,0.4,1,0.4,2.5l0,13.7c0,1.5,0,1.9-0.4,2.6c-0.4,1-1.5,1.7-2.6,1.8c-1.1,0.1-2.2-0.5-2.6-1.4c-0.4-0.7-0.4-1-0.4-2.5
						L764,73.6z"/>
					<path class="st10" d="M774.3,72.2c0-2.1,1.2-3.7,3-3.8c1.2-0.1,1.8,0.3,2.9,1.8c1.7-1.7,3.1-2.4,5.3-2.6c1.5-0.1,3,0.1,4.1,0.7
						c0.6,0.3,1,0.6,1.7,1.5c2.4-2.2,4-3,6.3-3.2c4.2-0.3,7.2,2.5,7.3,6.6l0,10.8c0,1.5,0,1.9-0.4,2.6c-0.4,1-1.5,1.7-2.6,1.8
						c-1.1,0.1-2.2-0.5-2.6-1.4c-0.4-0.7-0.4-1-0.4-2.5l0-9.4c0-1.9-1.2-3.1-3.1-3s-3.1,1.5-3.1,3.4l0,9.4c0,1.5,0,1.9-0.4,2.6
						c-0.4,1-1.5,1.7-2.6,1.8c-1.1,0.1-2.2-0.5-2.6-1.4c-0.4-0.7-0.4-1-0.4-2.5l0-8.8c0-2.4-1.2-3.7-3.1-3.5
						c-1.8,0.1-3.1,1.6-3.1,3.4l0,9.4c0,1.5,0,1.9-0.4,2.6c-0.4,1-1.5,1.7-2.6,1.8c-1.1,0.1-2.2-0.5-2.6-1.4c-0.4-0.7-0.4-1-0.4-2.5
						L774.3,72.2z"/>
					<path class="st10" d="M828,82.7c0,2.2-1.2,3.7-3,3.9c-1.4,0.1-2.4-0.6-3-2.2c-1.5,2-2.7,2.8-4.9,2.9c-2.2,0.2-4.2-0.5-5.9-1.9
						c-2.4-2-3.6-4.8-3.6-8.5c0-3.4,1-6,3.1-8.4c1.8-2,3.9-3.1,6.3-3.3c2.1-0.2,3.4,0.4,5.1,2c0.7-1.7,1.5-2.4,3-2.5
						c1.7-0.1,3,1.2,3,2.9L828,82.7z M813.5,76.5c0,3.2,1.6,5.2,4.2,5.1c2.5-0.2,4.1-2.5,4.1-5.7c0-3.1-1.7-5.2-4.2-5
						C815.1,71.1,813.5,73.4,813.5,76.5z"/>
				</g>
				<g>
					<path class="st5" d="M663.6,78.6c-0.4-0.7-1.1-1.2-1.9-1.3c-0.2,0-0.5-0.1-0.7,0c-0.2,0-0.5,0.1-0.7,0.1
						c-0.8,0.3-1.6,0.9-1.9,1.6c-0.3,0.5-0.3,0.9-0.4,1.5c0,0.3,0,10.8,0,10.8c0,1-0.3,1.5-0.6,1.9c-0.4,0.4-0.9,0.6-1.4,0.7
						c-0.6,0-1.1-0.2-1.5-0.6c-0.3-0.4-0.6-0.8-0.6-1.7l0-10.1l0,0c0-1.2-0.1-1.6-0.4-2.2c-0.4-0.7-1.1-1.2-1.9-1.3
						c-0.2,0-0.5-0.1-0.7,0c-0.2,0-0.5,0.1-0.7,0.1c-0.8,0.3-1.6,0.9-1.9,1.6c-0.3,0.5-0.3,0.9-0.4,1.5c0,0.2,0,0.8,0,0.8l0,10
						c0,1-0.3,1.5-0.6,1.9c-0.4,0.4-0.9,0.6-1.4,0.7c-0.6,0-1.1-0.2-1.5-0.6c-0.3-0.4-0.6-0.8-0.6-1.7l-0.1-9.7c0-1.5,0-1.8-0.4-2.5
						c-0.4-0.7-1.1-1.2-1.9-1.3c-0.2,0-0.5-0.1-0.7,0c-0.2,0-0.5,0.1-0.7,0.1c-0.8,0.3-1.6,0.9-1.9,1.6c-0.3,0.5-0.3,0.9-0.4,1.5
						c0,0.3,0,11,0,11c0,3,1,4.8,2.7,6c1.5,1.1,3.4,1.6,5.2,1.4c1.6-0.1,2.9-0.5,4-1.3l0.5-0.4c0.3-0.2,0.6-0.4,0.8-0.4
						c0.3,0,0.5,0.1,0.8,0.2l0.6,0.3c1.1,0.6,2.5,0.8,4,0.6c1.9-0.1,3.6-0.9,5.1-2.2c1.7-1.5,2.7-3.4,2.7-6.4l0-9.9
						C664,79.6,663.9,79.3,663.6,78.6z"/>
					<g>
						<g>
							<path class="st9" d="M650.8,71.2c-6,0.6-11,0.1-11-1c0-0.4,0.7-0.7,1.7-1.2c4.4-2,6.7-2.6,10.8-2.6c2.9,0,6.2-0.2,8.5,1.1
								c0.6,0.2,0.9,0.4,0.9,0.7C661.7,69.2,656.8,70.6,650.8,71.2z M667.1,67.8c-0.1-2.8-5.1-4.3-16.4-3.3
								c-10.7,1-16.3,3.5-16.3,6.3c0.1,4.3,7.4,5.9,16.5,5C659.9,75,667.1,72.1,667.1,67.8z"/>
						</g>
					</g>
				</g>
			</g>
		</g>
		<g>
			<path class="st6" d="M659.3,864.4c-18.3,0-43.3-3.6-77.9-8.6c-60.3-8.7-90.6-13-106.3-28.5c-17.2-17-13.6-41.9-7.1-87.1l1.4-9.5
				c3.5-24.5,6.1-42.6,10.9-55.9c-0.9-6.6-0.3-11-0.3-11.2c3.5-24.4,5.4-37.7,9.8-45.4c-0.1-0.1-0.2-0.2-0.3-0.3
				c-14.9-16.4-16.3-43.7-16.1-57.1c-11.9-8.1-34.5-27.9-34.5-60.5c0-16.7,3.7-40.1,21.2-56.4c4.9-4.5,9.8-7.5,13.8-9.5
				c0.1-3.3,0.5-7.5,1.1-12c2.3-16,7.5-28.4,15.6-36.9c7.8-8.2,18.1-12.5,29.8-12.5c12.7,0,23.6,3.4,32.4,10.1
				c29.9-19.1,66.3-29.6,103.3-29.6c2.4,0,4.8,0,7.2,0.1c7.5-6.9,16.6-10.6,26.4-10.7l0.5,0c11.9,0,24.6,5,37.9,15
				c4.1,3,7.6,6.1,10.2,8.6c6.2-2,15-4.1,25-4.1c15.9,0,29.7,5.2,40.9,15.4c21.6,19.7,26.3,40.1,26.5,53.8c0.1,7.1-1,13.1-2.3,17.5
				c4.4,4.4,10,10.7,14.8,18.5c12.6,20.7,12.4,41.3-0.8,58c-4.4,5.7-9.4,10.3-14.6,13.8c-8,33.6-28.7,64.1-58.7,86.3
				c-11.5,8.5-24,15.6-37.4,21.2c6.1,8.9,4,23.1-0.2,52.7c-0.3,1.8-1,4.2-3.1,6.5c2.1,15.7-0.8,36.3-5.1,65.9
				c-3.4,23.8-5.9,41-9.9,54.5c-4.7,15.6-11.4,25.2-21.7,31.1C683.6,862.2,673.3,864.4,659.3,864.4z"/>
			<path class="st6" d="M835.8,472.1c-6.1-9.9-13.9-17.4-17.3-20.5c1.4-3.4,3.7-10.6,3.6-19.9c-0.1-11.9-4.3-29.8-23.6-47.4
				c-23.5-21.4-54-11.1-62.2-7.7c-2.3-2.4-7-7-13.2-11.7c-11.9-8.9-23.1-13.4-33.2-13.3c-8.9,0.1-16.6,3.7-23.1,10.9
				c-3.6-0.2-7.1-0.3-10.6-0.3c-37.8,0-74.6,11.3-104,31.8c-8-8.2-18.6-12.3-31.7-12.3c-9.5,0-17.4,3.3-23.5,9.8
				c-6.8,7.2-11.3,18-13.3,32.2c-1,7.2-1.1,13.3-1.1,16.5c-3.4,1.2-9.9,3.9-16.4,10c-15.2,14.2-18.4,35-18.4,50.1
				c0,33.1,27.3,51.5,34.7,55.8c-0.5,8.2-1.4,39.3,13.6,55.9c2.1,2.3,4.4,4.2,6.9,5.8c-0.4,0.1-0.9,0.3-1.3,0.5
				c-6.8,3.5-8.5,15.2-13,46.5c0,0.2-0.6,4.5,0.6,10.9c-5,12.5-7.6,30.7-11.3,56.2l-0.7,4.8l-0.7,4.8c-6.3,43.8-9.5,65.8,4.6,79.7
				c13.7,13.5,43,17.7,101.4,26.1c58.4,8.4,87.8,12.6,104.8,2.8c17.4-10,20.8-33.2,27.4-79.3c4.7-32.5,7.7-53.6,4.2-68.3
				c1-0.6,1.7-1.1,2.3-1.5c0.5-0.3,1.5-1.1,1.7-2.6c4.5-31.7,5.8-42.9,0.2-48.2c-4.5-4.2-11.6-2.9-23.3-0.6
				c-17,3.3-45.4,8.8-89.8,2.4c-45.6-6.6-71.4-19.9-86.8-27.9c-1.2-0.6-2.3-1.2-3.3-1.7c0.1,0,0.3,0,0.4,0c9.6,0,18-2,24.9-5.8
				c30.6,23.7,69.8,36.8,110.8,36.8c39.5,0,77.9-12.3,108-34.6c29.4-21.8,49.3-51.9,56.2-84.8c5.6-3.1,10.8-7.6,15.5-13.6
				C846.5,506.4,846.6,489.7,835.8,472.1z"/>
			<circle class="st6" cx="455.2" cy="633.4" r="36"/>
			<circle class="st6" cx="455.2" cy="633.4" r="27.3"/>
			<circle class="st6" cx="457.8" cy="711.4" r="18.6"/>
			<circle class="st6" cx="457.8" cy="711.4" r="10"/>
			<circle class="st6" cx="440.9" cy="679.7" r="21.7"/>
			<circle class="st6" cx="440.9" cy="679.7" r="13"/>
		</g>
		<g>
			<g>
				<path class="st76" d="M814.8,452.4c0,0,17.4-33.3-18.4-66c-25.6-23.3-60.9-6.3-60.9-6.3s-40.9-45.9-67.5-14.6
					c-3.9-0.2-7.9-0.4-11.9-0.4c-39.7,0-76.1,12.3-104.5,32.8c-6.6-7.7-16.5-13.3-31.3-13.3c-38,0-34.9,57.8-34.9,57.8
					s-34.9,7.2-34.9,57.8c0,36.1,34.9,54.2,34.9,54.2s-6.3,65,34.9,65c10.8,0,18.9-2.5,25.1-6.4c29.1,23.2,68,37.4,110.6,37.4
					c81,0,148.3-51.2,161.4-118.4c5.3-2.7,10.7-7,15.8-13.5C857.8,487.1,814.8,452.4,814.8,452.4z"/>
				<path class="st5" d="M656,653.3c-41,0-80.3-13-110.8-36.8c-6.9,3.9-15.3,5.8-24.9,5.8c-9.9,0-18.2-3.5-24.4-10.4
					c-15-16.6-14.1-47.7-13.6-55.9c-7.4-4.4-34.7-22.7-34.7-55.8c0-15,3.2-35.9,18.4-50.1c6.5-6,13-8.8,16.4-10
					c0-3.2,0.1-9.4,1.1-16.5c2-14.2,6.5-25,13.3-32.2c6.2-6.5,14.1-9.8,23.5-9.8c13.1,0,23.7,4.1,31.7,12.3
					c29.4-20.5,66.3-31.8,104-31.8c3.5,0,7,0.1,10.6,0.3c6.5-7.1,14.3-10.8,23.1-10.9c10.1-0.1,21.3,4.4,33.2,13.3
					c6.2,4.7,11,9.3,13.2,11.7c8.2-3.4,38.7-13.7,62.2,7.7c19.3,17.6,23.5,35.5,23.6,47.4c0.1,9.3-2.2,16.5-3.6,19.9
					c3.5,3.1,11.3,10.6,17.3,20.5c10.8,17.6,10.7,34.3-0.2,48.2c-4.7,6-9.9,10.5-15.5,13.6c-6.9,32.9-26.8,63-56.2,84.8
					C733.9,641,695.6,653.3,656,653.3z M545.6,609.1l1.7,1.3c29.7,23.7,68.3,36.8,108.7,36.8c38.2,0,75.3-11.9,104.3-33.4
					c28.6-21.2,47.8-50.5,54.1-82.6l0.3-1.5l1.3-0.7c5.3-2.6,10.2-6.9,14.7-12.6c9.3-11.8,9.3-25.7-0.1-41.1
					c-7.3-12-17.7-20.5-17.8-20.6l-1.9-1.6l1.1-2.2c0.7-1.3,15.8-31.8-17.8-62.3c-23.7-21.6-57.2-6-57.6-5.8l-2.1,1l-1.5-1.7
					c-0.2-0.2-22.3-24.8-43.4-24.5c-7.6,0.1-14,3.3-19.6,9.9l-1,1.2l-1.5-0.1c-3.9-0.2-7.9-0.4-11.7-0.4
					c-37.5,0-73.9,11.4-102.7,32.2l-2.3,1.6l-1.8-2.1c-7-8.1-16.7-12.2-29-12.2c-7.7,0-14.2,2.7-19.1,7.9
					c-14.2,15-12.7,46.3-12.7,46.7l0.1,2.6l-2.6,0.5c-1.3,0.3-32.5,7.5-32.5,54.8c0,33.9,32.9,51.3,33.2,51.5l1.8,0.9l-0.2,2
					c0,0.4-3.3,36.4,11.9,53.2c5.1,5.7,11.7,8.4,19.9,8.4c9.3,0,17.2-2,23.5-6L545.6,609.1z"/>
			</g>
			<g>
				<g>
					<g>
						
							<ellipse transform="matrix(0.1421 -0.9899 0.9899 0.1421 -234.7551 1236.5525)" class="st6" cx="596" cy="753.7" rx="91.2" ry="116.7"/>
					</g>
					<g>
						<path class="st5" d="M582.6,847.2c-58.4-8.4-87.8-12.6-101.4-26.1c-14.1-13.9-10.9-35.9-4.6-79.7l0.7-4.8l0.7-4.8
							c6.3-43.8,9.4-65.8,26.8-75.2c16.9-9.1,46.3-4.9,104.7,3.5c58.4,8.4,87.8,12.6,101.4,26.8c13.9,14.5,10.6,37.7,4,83.8
							c-6.6,46.1-9.9,69.3-27.4,79.3C670.4,859.8,641,855.6,582.6,847.2z M608.5,666.6c-57-8.2-85.6-12.3-100.7-4.2
							c-14.5,7.8-17.5,28.7-23.5,70.4l-0.7,4.8l-0.7,4.8c-6,41.6-9,62.5,2.7,74.1c12.1,12,40.8,16.1,97.8,24.3
							c57,8.2,85.6,12.3,100.7,3.6c14.7-8.4,17.9-30.5,24.2-74.6c6.3-44,9.5-66.1-2.2-78.4C694.1,678.9,665.5,674.8,608.5,666.6z"/>
					</g>
				</g>
				<g>
					<g>
						<path class="st10" d="M703.6,734.7c-2.2,15.6-15.4,13.7-34.1,11c-19.1-2.7-18.7-2.7-16.5-18.3c2.2-15.6,1.9-15.7,21-12.9
							C692.7,717.2,705.8,719.1,703.6,734.7z"/>
					</g>
				</g>
				<g>
					<g>
						<path class="st10" d="M691.5,818.5c-2.2,15.6-15.4,13.7-34.1,11c-19.1-2.7-18.7-2.7-16.5-18.3c2.2-15.6,1.9-15.7,21-12.9
							C680.6,801.1,693.8,802.9,691.5,818.5z"/>
					</g>
				</g>
				<g>
					<g>
						<path class="st10" d="M698.4,777.5c-1.3,9-14.3,10.5-33,7.8c-19.1-2.7-19.8,0.6-17.6-15.1c3-20.9,2.5-15.9,21.6-13.2
							C688.2,759.7,701.9,753.4,698.4,777.5z"/>
					</g>
				</g>
				<g>
					<defs>
						
							<ellipse id="SVGID_00000106852495047002176210000007449153377583830419_" transform="matrix(0.1421 -0.9899 0.9899 0.1421 -236.7534 1238.705)" cx="596.2" cy="755.9" rx="91.2" ry="115.2"/>
					</defs>
					<clipPath id="SVGID_00000026121652284208531090000017651062641798782390_">
						<use xlink:href="#SVGID_00000106852495047002176210000007449153377583830419_"  style="overflow:visible;"/>
					</clipPath>
					<g style="clip-path:url(#SVGID_00000026121652284208531090000017651062641798782390_);">
						<g>
							<path class="st9" d="M574.4,730.9c-88-12.6-82.9-63.8-82.6-65.7c12.1-84.4,4.3-26.3,117.8-10c111.4,16,122.3-41.7,110.2,42.7
								C719.5,699.8,641.2,740.4,574.4,730.9z"/>
						</g>
						<g>
							<path class="st5" d="M573.9,734.1c-92.3-13.2-85.4-68.8-85.3-69.4c4.5-31.3,6.2-43,13-46.5c5.3-2.7,11.4,0.5,21.7,5.8
								c15.4,8,41.1,21.4,86.8,27.9c44.5,6.4,72.9,0.9,89.8-2.4c11.8-2.3,18.9-3.7,23.3,0.6c5.6,5.3,4.3,16.6-0.2,48.2
								c-0.2,1.5-1.3,2.3-1.7,2.6C712.2,707.7,636.6,743.1,573.9,734.1z M506.5,623.8c-0.8-0.1-1.5-0.1-2,0.2
								c-3.8,2-6,16.9-9.5,41.6c-0.1,0.5-5.9,49.7,79.8,62c61.9,8.9,133.4-26.1,141.9-31.5c3.1-21.4,5.4-38.1,2-41.3
								c-2-1.9-8.6-0.7-17.6,1.1c-17.4,3.4-46.4,9-92,2.5c-46.7-6.7-73.1-20.4-88.8-28.6C514.4,626.8,509.5,624.2,506.5,623.8z"/>
						</g>
					</g>
				</g>
				<g>
					<g>
						<circle class="st5" cx="617.7" cy="695.8" r="7.9"/>
					</g>
				</g>
				<g>
					<g>
						<circle class="st5" cx="589.1" cy="691.7" r="7.9"/>
					</g>
				</g>
				<g>
					<g>
						<circle class="st5" cx="560.5" cy="687.6" r="7.9"/>
					</g>
				</g>
				<g>
					<g>
						<g>
							<circle class="st8" cx="507.7" cy="777.1" r="4.2"/>
						</g>
					</g>
					<g>
						<g>
							<circle class="st8" cx="510.9" cy="754.5" r="4.2"/>
						</g>
					</g>
					<g>
						<g>
							<circle class="st8" cx="494.3" cy="763.1" r="4.2"/>
						</g>
					</g>
				</g>
				<g>
					<g>
						<polygon class="st5" points="542.8,678.7 537.4,671.6 530.3,676.9 525,669.8 517.8,675.1 523.2,682.3 516.1,687.6 
							521.4,694.7 528.5,689.4 533.9,696.5 541,691.2 535.6,684.1 						"/>
					</g>
				</g>
				<g>
					<g>
						<g>
							<g>
								<g>
									<circle class="st20" cx="588.5" cy="765.6" r="12.8"/>
								</g>
							</g>
							<g>
								<g>
									<circle class="st5" cx="588.5" cy="765.6" r="8.8"/>
								</g>
							</g>
						</g>
						<g>
							<g>
								<circle class="st20" cx="541.7" cy="758.8" r="12.8"/>
							</g>
						</g>
						<g>
							<g>
								<circle class="st5" cx="541.7" cy="758.8" r="8.8"/>
							</g>
						</g>
					</g>
					<g>
						<g>
							<path class="st5" d="M557.6,804.7c-27.2-3.9-31.7-15.8-32.1-17.2c-0.5-1.7,0.4-3.5,2.1-4.1c1.7-0.5,3.5,0.4,4.1,2.1
								c0.1,0.3,4,9.5,26.8,12.7c23.7,3.4,32.7-4.7,32.8-4.7c1.3-1.2,3.4-1.2,4.6,0.1c1.2,1.3,1.2,3.3-0.1,4.6
								C595.4,798.6,584.8,808.6,557.6,804.7z"/>
						</g>
					</g>
				</g>
				<g>
					<g>
						<g>
							<circle class="st8" cx="617.4" cy="770.6" r="4.2"/>
						</g>
					</g>
					<g>
						<g>
							<circle class="st8" cx="614.2" cy="793.2" r="4.2"/>
						</g>
					</g>
					<g>
						<g>
							<circle class="st8" cx="630.8" cy="784.6" r="4.2"/>
						</g>
					</g>
				</g>
			</g>
			<g>
				<path d="M629.6,407.2l-9.3,4.6l9.3,4.6v3.9l-13.5-6.9v-3.3l13.5-6.9V407.2z"/>
				<path d="M636.6,407.6c1.6-0.9,2.7-1.3,4.2-1.3c1.5,0,3,0.6,4,1.5c1.1,1,1.6,2.3,1.6,4.3v7.5c0,1.1,0,1.4-0.3,1.9
					c-0.3,0.7-1.2,1.2-2,1.2c-0.8,0-1.7-0.5-2-1.2c-0.3-0.5-0.3-0.8-0.3-1.9v-6.2c0-2-1-3.2-2.6-3.2c-1.5,0-2.7,1.2-2.7,2.8v6.5
					c0,1.1,0,1.4-0.3,1.9c-0.3,0.7-1.2,1.2-2,1.2c-0.8,0-1.7-0.5-2-1.2c-0.3-0.5-0.3-0.8-0.3-1.9v-17c0-1.1,0-1.4,0.3-1.9
					c0.3-0.7,1.2-1.2,2-1.2c0.8,0,1.6,0.5,2,1.2c0.3,0.5,0.3,0.8,0.3,1.9V407.6z"/>
				<path d="M650.5,405.9c-1,0-1.2-0.1-1.7-0.3c-0.6-0.3-1.1-1.1-1.1-1.8c0-0.7,0.4-1.5,1.1-1.8c0.5-0.2,0.7-0.3,1.7-0.3h2.7
					c2.2-0.1,3.2,0.8,3.1,3.1v14.9c0,1.1-0.1,1.4-0.3,2c-0.3,0.7-1.2,1.2-2.1,1.2c-0.8,0-1.7-0.5-2.1-1.2c-0.3-0.6-0.3-0.8-0.3-2
					v-13.8H650.5z"/>
				<path d="M659.8,416.5l9.3-4.6l-9.3-4.6v-3.9l13.5,6.9v3.3l-13.5,6.9V416.5z"/>
			</g>
			<g>
				<path d="M510.8,498l-9.3,4.6l9.3,4.6v3.9l-13.5-6.9v-3.3l13.5-6.9V498z"/>
				<path d="M517.8,498.4c1.6-0.9,2.7-1.3,4.2-1.3c1.5,0,3,0.6,4,1.5c1.1,1,1.6,2.3,1.6,4.3v7.5c0,1.1,0,1.4-0.3,1.9
					c-0.3,0.7-1.2,1.2-2,1.2c-0.8,0-1.7-0.5-2-1.2c-0.3-0.5-0.3-0.8-0.3-1.9v-6.2c0-2-1-3.2-2.6-3.2c-1.5,0-2.7,1.2-2.7,2.8v6.5
					c0,1.1,0,1.4-0.3,1.9c-0.3,0.7-1.2,1.2-2,1.2c-0.8,0-1.7-0.5-2-1.2c-0.3-0.5-0.3-0.8-0.3-1.9v-17c0-1.1,0-1.4,0.3-1.9
					c0.3-0.7,1.2-1.2,2-1.2c0.8,0,1.6,0.5,2,1.2c0.3,0.5,0.3,0.8,0.3,1.9V498.4z"/>
				<path d="M541.4,509c1,0,1.2,0,1.7,0.3c0.6,0.3,1.1,1.1,1.1,1.8c0,0.8-0.4,1.5-1,1.8c-0.5,0.2-0.7,0.3-1.7,0.3h-9
					c-1.1,0-1.6-0.2-2.1-0.7c-0.4-0.4-0.6-0.8-0.6-1.3c0-0.7,0.3-1.3,1.3-2.3c1.1-1.1,5.2-5.9,5.9-6.8c1.4-1.8,1.9-2.8,1.9-3.8
					c0-1.2-0.9-2.1-2-2.1c-1.1,0-1.9,0.7-2.3,2.1c-0.4,1.4-0.5,1.7-0.8,2.1c-0.3,0.4-0.8,0.6-1.4,0.6c-1.3,0-2.2-0.9-2.2-2.3
					c0-3.6,3.2-6.8,7-6.8c3.7,0,6.6,2.7,6.6,6.3c0,2.1-0.7,3.8-2.7,6.2c-1.3,1.7-2.7,3.2-4.1,4.6H541.4z"/>
				<path d="M546.2,507.2l9.3-4.6l-9.3-4.6v-3.9l13.5,6.9v3.3l-13.5,6.9V507.2z"/>
			</g>
			<g>
				<path d="M572,532.6l-9.3,4.6l9.3,4.6v3.9l-13.5-6.9v-3.3l13.5-6.9V532.6z"/>
				<path d="M589.2,545.3c0,1.6-0.9,2.7-2.3,2.7c-1.1,0-1.8-0.6-2.3-1.8c-1.2,1.4-2.1,1.9-3.8,1.9c-1.7,0-3.2-0.6-4.5-1.7
					c-1.8-1.6-2.7-3.8-2.7-6.6c0-2.5,0.7-4.4,2.4-6.1c1.4-1.4,3-2.1,4.8-2.1c1.6,0,2.6,0.5,3.9,1.8c0.5-1.2,1.2-1.7,2.3-1.7
					c1.3,0,2.3,1,2.3,2.3V545.3z M578.1,539.9c0,2.4,1.2,4,3.2,4c1.9,0,3.2-1.6,3.2-4c0-2.3-1.3-3.9-3.2-3.9
					C579.4,536,578.1,537.6,578.1,539.9z"/>
				<path d="M591.8,534.4c0-1.6,0.9-2.6,2.3-2.6c1,0,1.8,0.5,2.3,1.6c1.3-1.3,2.1-1.7,3.2-1.7c1.3,0,2.3,1.1,2.3,2.4
					c0,1.1-0.5,1.5-2.3,2.1c-2.5,0.8-3.2,1.5-3.2,3.1v5.8c0,1.1,0,1.4-0.3,1.9c-0.3,0.7-1.2,1.2-2,1.2c-0.8,0-1.7-0.5-2-1.2
					c-0.3-0.5-0.3-0.8-0.3-1.9V534.4z"/>
				<path d="M609.8,545c0,1.1,0,1.4-0.3,1.9c-0.3,0.7-1.2,1.2-2,1.2c-0.8,0-1.7-0.5-2-1.2c-0.3-0.5-0.3-0.8-0.3-1.9v-8.8
					c-1.2,0-1.9-0.2-2.3-0.7c-0.3-0.4-0.5-0.9-0.5-1.4c0-1.1,0.7-1.9,1.8-2c0.3-0.1,0.3-0.1,1.1-0.1v-2.4c0-1.1,0-1.4,0.3-1.9
					c0.3-0.7,1.2-1.2,2-1.2c0.8,0,1.6,0.5,2,1.1c0.3,0.5,0.3,0.8,0.3,1.9v2.4h0.8c1,0,1.3,0,1.7,0.3c0.6,0.3,1,1.1,1,1.8
					c0,0.7-0.4,1.5-1,1.8c-0.5,0.2-0.7,0.3-1.7,0.3h-0.8V545z"/>
				<path d="M619.8,527.6c0,1.5-1.2,2.7-2.7,2.7c-1.5,0-2.7-1.2-2.7-2.7c0-1.5,1.2-2.7,2.7-2.7C618.6,525,619.8,526.2,619.8,527.6z
					 M614.8,534.9c0-1.1,0-1.4,0.3-1.9c0.3-0.7,1.2-1.2,2-1.2c0.8,0,1.6,0.5,2,1.2c0.3,0.5,0.3,0.8,0.3,1.9V545c0,1.1,0,1.4-0.3,1.9
					c-0.3,0.7-1.2,1.2-2,1.2c-0.8,0-1.7-0.5-2-1.2c-0.3-0.5-0.3-0.8-0.3-1.9V534.9z"/>
				<path d="M633.5,532.6c0.8,0.4,1.3,1.2,1.3,2.1c0,1.1-0.8,2.1-1.8,2.1c-0.4,0-0.5,0-1.7-0.5c-0.7-0.2-1.2-0.3-1.7-0.3
					c-2,0-3.4,1.7-3.4,4c0,2.4,1.4,3.9,3.5,3.9c0.6,0,1.2-0.2,1.8-0.4c0.8-0.4,0.9-0.4,1.3-0.4c1.1,0,1.9,0.9,1.9,2.1
					c0,0.6-0.3,1.3-0.9,1.7c-1.1,0.8-2.9,1.3-4.6,1.3c-2.2,0-4.1-0.8-5.6-2.4c-1.5-1.6-2.1-3.3-2.1-5.9c0-2.5,0.8-4.7,2.4-6.1
					c1.5-1.3,3.5-2.1,5.5-2.1C630.9,531.7,632.4,532.1,633.5,532.6z"/>
				<path d="M641.2,545c0,1.1,0,1.4-0.3,1.9c-0.3,0.7-1.2,1.2-2,1.2c-0.8,0-1.7-0.5-2-1.2c-0.3-0.5-0.3-0.8-0.3-1.9v-17
					c0-1.1,0-1.4,0.3-1.9c0.3-0.7,1.2-1.2,2-1.2c0.8,0,1.6,0.5,2,1.1c0.3,0.5,0.3,0.8,0.3,1.9V545z"/>
				<path d="M648,541.4c0.7,1.8,1.8,2.7,3.6,2.7c1.1,0,1.4-0.1,3.8-1.3c0.3-0.1,0.7-0.2,1-0.2c0.9,0,1.8,0.9,1.8,1.9
					c0,1.9-3.3,3.6-6.9,3.6c-4.9,0-8.3-3.3-8.3-8c0-4.9,3.3-8.5,7.9-8.5c4.3,0,7.6,3.5,7.6,7.9c0,1.3-0.6,1.8-2,1.8H648z M654,538.3
					c-0.2-0.9-0.4-1.2-0.7-1.7c-0.5-0.7-1.4-1.2-2.3-1.2c-1.5,0-2.5,0.9-3.2,2.9H654z"/>
				<path d="M660.1,541.9l9.3-4.6l-9.3-4.6v-3.9l13.5,6.9v3.3l-13.5,6.9V541.9z"/>
			</g>
			<g>
				<path d="M665.7,459.8l-9.3,4.6l9.3,4.6v3.9l-13.5-6.9v-3.3l13.5-6.9V459.8z"/>
				<path d="M672.7,460.2c1.6-0.9,2.7-1.3,4.2-1.3c1.5,0,3,0.6,4,1.5c1.1,1,1.6,2.3,1.6,4.3v7.5c0,1.1,0,1.4-0.3,1.9
					c-0.3,0.7-1.2,1.2-2,1.2c-0.8,0-1.7-0.5-2-1.2c-0.3-0.5-0.3-0.8-0.3-1.9V466c0-2-1-3.2-2.6-3.2c-1.5,0-2.7,1.2-2.7,2.8v6.5
					c0,1.1,0,1.4-0.3,1.9c-0.3,0.7-1.2,1.2-2,1.2c-0.8,0-1.7-0.5-2-1.2c-0.3-0.5-0.3-0.8-0.3-1.9v-17c0-1.1,0-1.4,0.3-1.9
					c0.3-0.7,1.2-1.2,2-1.2c0.8,0,1.6,0.5,2,1.2c0.3,0.5,0.3,0.8,0.3,1.9V460.2z"/>
				<path d="M689.3,468.6c0.7,1.8,1.8,2.7,3.6,2.7c1.1,0,1.4-0.1,3.8-1.3c0.3-0.1,0.7-0.2,1-0.2c0.9,0,1.8,0.9,1.8,1.9
					c0,1.9-3.3,3.6-6.9,3.6c-4.9,0-8.3-3.3-8.3-8c0-4.9,3.3-8.5,7.9-8.5c4.3,0,7.6,3.5,7.6,7.9c0,1.3-0.6,1.8-2,1.8H689.3z
					 M695.3,465.5c-0.2-0.9-0.4-1.2-0.7-1.7c-0.5-0.7-1.4-1.2-2.3-1.2c-1.5,0-2.5,0.9-3.2,2.9H695.3z"/>
				<path d="M716.5,472.5c0,1.6-0.9,2.7-2.3,2.7c-1.1,0-1.8-0.6-2.3-1.8c-1.2,1.4-2.1,1.9-3.8,1.9s-3.2-0.6-4.5-1.7
					c-1.8-1.6-2.7-3.8-2.7-6.6c0-2.5,0.7-4.4,2.4-6.1c1.4-1.4,3-2.1,4.8-2.1c1.6,0,2.6,0.5,3.9,1.8c0.5-1.2,1.2-1.7,2.3-1.7
					c1.3,0,2.3,1,2.3,2.3V472.5z M705.4,467.1c0,2.4,1.2,4,3.2,4c1.9,0,3.2-1.6,3.2-4c0-2.3-1.3-3.9-3.2-3.9
					C706.7,463.2,705.4,464.8,705.4,467.1z"/>
				<path d="M729.1,455.2c0-1.1,0-1.4,0.3-1.9c0.3-0.7,1.2-1.2,2-1.2c0.8,0,1.6,0.5,2,1.2c0.3,0.5,0.3,0.8,0.3,1.9v17.4
					c0,1.7-0.8,2.6-2.3,2.6c-1.1,0-1.7-0.5-2.2-1.8c-1,1.3-2.2,1.9-4,1.9c-2.1,0-3.9-1-5.2-2.9c-1.1-1.6-1.7-3.6-1.7-5.5
					c0-2.4,1.1-5,2.8-6.4c1.2-1,2.9-1.7,4.3-1.7c1.4,0,2.5,0.4,3.7,1.4V455.2z M722.9,466.9c0,2.3,1.3,4,3.2,4c1.8,0,3.1-1.7,3.1-4
					c0-2.2-1.3-3.9-3.1-3.9C724.2,463,722.9,464.7,722.9,466.9z"/>
				<path d="M740.5,468.6c0.7,1.8,1.8,2.7,3.6,2.7c1.1,0,1.4-0.1,3.8-1.3c0.3-0.1,0.7-0.2,1-0.2c0.9,0,1.8,0.9,1.8,1.9
					c0,1.9-3.3,3.6-6.9,3.6c-4.9,0-8.3-3.3-8.3-8c0-4.9,3.3-8.5,7.9-8.5c4.3,0,7.6,3.5,7.6,7.9c0,1.3-0.6,1.8-2,1.8H740.5z
					 M746.5,465.5c-0.2-0.9-0.4-1.2-0.7-1.7c-0.5-0.7-1.4-1.2-2.3-1.2c-1.5,0-2.5,0.9-3.2,2.9H746.5z"/>
				<path d="M752.9,461.6c0-1.6,0.9-2.6,2.3-2.6c1,0,1.8,0.5,2.3,1.6c1.3-1.3,2.1-1.7,3.2-1.7c1.3,0,2.3,1.1,2.3,2.4
					c0,1.1-0.5,1.5-2.3,2.1c-2.5,0.8-3.2,1.5-3.2,3.1v5.8c0,1.1,0,1.4-0.3,1.9c-0.3,0.7-1.2,1.2-2,1.2c-0.8,0-1.7-0.5-2-1.2
					c-0.3-0.5-0.3-0.8-0.3-1.9V461.6z"/>
				<path d="M764,469.1l9.3-4.6l-9.3-4.6v-3.9l13.5,6.9v3.3L764,473V469.1z"/>
			</g>
			<g>
				<path d="M706.2,507.1l-9.3,4.6l9.3,4.6v3.9l-13.5-6.9v-3.3l13.5-6.9V507.1z"/>
				<path d="M714.8,519.5c0,1.1,0,1.4-0.3,1.9c-0.3,0.7-1.2,1.2-2,1.2c-0.8,0-1.7-0.5-2-1.2c-0.3-0.5-0.3-0.8-0.3-1.9v-8.8H710
					c-1,0-1.3-0.1-1.7-0.3c-0.6-0.3-1-1.1-1-1.8c0-0.7,0.4-1.5,1-1.8c0.5-0.2,0.7-0.3,1.7-0.3h0.2v-2.1c0-2.9,2-4.8,5-4.8
					c1.7,0,2.7,0.7,2.7,2.1c0,1.2-0.7,1.9-1.8,2c-0.9,0-1.3,0.3-1.3,1.2v1.6h0.8c1,0,1.2,0.1,1.7,0.3c0.6,0.3,1,1.1,1,1.8
					c0,0.7-0.4,1.5-1,1.8c-0.5,0.2-0.7,0.3-1.7,0.3h-0.8V519.5z"/>
				<path d="M731.6,508.7c1.3,1.5,2.1,3.5,2.1,5.7c0,4.7-3.3,8.2-7.6,8.2c-2.1,0-4.2-0.9-5.6-2.5c-1.4-1.5-2.1-3.5-2.1-5.8
					c0-4.6,3.3-8.1,7.7-8.1C728.2,506.2,730.2,507.1,731.6,508.7z M722.9,514.4c0,2.3,1.3,4,3.1,4c1.8,0,3.2-1.7,3.2-4
					c0-2.2-1.4-3.9-3.2-3.9C724.3,510.5,722.9,512.2,722.9,514.4z"/>
				<path d="M748.1,508.7c1.3,1.5,2.1,3.5,2.1,5.7c0,4.7-3.3,8.2-7.6,8.2c-2.1,0-4.2-0.9-5.6-2.5c-1.4-1.5-2.1-3.5-2.1-5.8
					c0-4.6,3.3-8.1,7.7-8.1C744.6,506.2,746.7,507.1,748.1,508.7z M739.3,514.4c0,2.3,1.3,4,3.1,4c1.8,0,3.2-1.7,3.2-4
					c0-2.2-1.4-3.9-3.2-3.9C740.7,510.5,739.3,512.2,739.3,514.4z"/>
				<path d="M757.7,519.5c0,1.1,0,1.4-0.3,1.9c-0.3,0.7-1.2,1.2-2,1.2c-0.8,0-1.7-0.5-2-1.2c-0.3-0.5-0.3-0.8-0.3-1.9v-8.8
					c-1.2,0-1.9-0.2-2.3-0.7c-0.3-0.4-0.5-0.9-0.5-1.4c0-1.1,0.7-1.9,1.8-2c0.3-0.1,0.3-0.1,1.1-0.1v-2.4c0-1.1,0-1.4,0.3-1.9
					c0.3-0.7,1.2-1.2,2-1.2c0.8,0,1.6,0.5,2,1.1c0.3,0.5,0.3,0.8,0.3,1.9v2.4h0.8c1,0,1.3,0,1.7,0.3c0.6,0.3,1,1.1,1,1.8
					c0,0.7-0.4,1.5-1,1.8c-0.5,0.2-0.7,0.3-1.7,0.3h-0.8V519.5z"/>
				<path d="M766.2,515.9c0.7,1.8,1.8,2.7,3.6,2.7c1.1,0,1.4-0.1,3.8-1.3c0.3-0.1,0.7-0.2,1-0.2c0.9,0,1.8,0.9,1.8,1.9
					c0,1.9-3.3,3.6-6.9,3.6c-4.9,0-8.3-3.3-8.3-8c0-4.9,3.3-8.5,7.9-8.5c4.3,0,7.6,3.5,7.6,7.9c0,1.3-0.6,1.8-2,1.8H766.2z
					 M772.3,512.8c-0.2-0.9-0.4-1.2-0.7-1.7c-0.5-0.7-1.4-1.2-2.3-1.2c-1.5,0-2.5,0.9-3.2,2.9H772.3z"/>
				<path d="M778.6,508.9c0-1.6,0.9-2.6,2.3-2.6c1,0,1.8,0.5,2.3,1.6c1.3-1.3,2.1-1.7,3.2-1.7c1.3,0,2.3,1.1,2.3,2.4
					c0,1.1-0.5,1.5-2.3,2.1c-2.5,0.8-3.2,1.5-3.2,3.1v5.8c0,1.1,0,1.4-0.3,1.9c-0.3,0.7-1.2,1.2-2,1.2c-0.8,0-1.7-0.5-2-1.2
					c-0.3-0.5-0.3-0.8-0.3-1.9V508.9z"/>
				<path d="M789.7,516.3l9.3-4.6l-9.3-4.6v-3.9l13.5,6.9v3.3l-13.5,6.9V516.3z"/>
			</g>
			<g>
				<path d="M677.8,580.3l-9.3,4.6l9.3,4.6v3.9l-13.5-6.9v-3.3l13.5-6.9V580.3z"/>
				<path d="M680.2,582.2c0-1.6,0.9-2.7,2.3-2.7c1,0,1.7,0.5,2.1,1.6c1.3-1.2,2.4-1.7,4.2-1.7c1.6,0,2.9,0.5,4,1.4
					c1.2,1.1,1.7,2.2,1.7,4.4v7.5c0,1.1,0,1.4-0.3,1.9c-0.3,0.7-1.2,1.2-2,1.2c-0.8,0-1.7-0.5-2-1.2c-0.3-0.5-0.3-0.8-0.3-1.9v-6.4
					c0-1.8-1-2.9-2.6-2.9c-1.5,0-2.6,1.2-2.6,2.7v6.6c0,1.1,0,1.4-0.3,1.9c-0.3,0.7-1.2,1.2-2,1.2c-0.8,0-1.7-0.5-2-1.2
					c-0.3-0.5-0.3-0.8-0.3-1.9V582.2z"/>
				<path d="M712,593c0,1.6-0.9,2.7-2.3,2.7c-1.1,0-1.8-0.6-2.3-1.8c-1.2,1.4-2.1,1.9-3.8,1.9c-1.7,0-3.2-0.6-4.5-1.7
					c-1.8-1.6-2.7-3.8-2.7-6.6c0-2.5,0.7-4.4,2.4-6.1c1.4-1.4,3-2.1,4.8-2.1c1.6,0,2.6,0.5,3.9,1.8c0.5-1.2,1.2-1.7,2.3-1.7
					c1.3,0,2.3,1,2.3,2.3V593z M700.9,587.6c0,2.4,1.2,4,3.2,4c1.9,0,3.2-1.6,3.2-4c0-2.3-1.3-3.9-3.2-3.9
					C702.2,583.7,700.9,585.2,700.9,587.6z"/>
				<path d="M722.9,581.8c0.6-1.8,1.2-2.4,2.5-2.4c1.3,0,2.4,1.1,2.4,2.3c0,0.5-0.1,0.9-0.4,1.7l-3.9,9.8c-0.8,2-1.4,2.5-2.7,2.5
					c-1.2,0-2.1-0.7-2.7-2.2l-4.1-10.1c-0.3-0.8-0.4-1.2-0.4-1.7c0-1.2,1.1-2.2,2.3-2.2c1.2,0,1.9,0.6,2.5,2.4l2.3,6.9L722.9,581.8z
					"/>
				<path d="M729.3,589.5l9.3-4.6l-9.3-4.6v-3.9l13.5,6.9v3.3l-13.5,6.9V589.5z"/>
			</g>
			<g>
				<path d="M577.9,466.8l-9.3,4.6l9.3,4.6v3.9l-13.5-6.9v-3.3l13.5-6.9V466.8z"/>
				<path d="M584.9,467.2c1.6-0.9,2.7-1.3,4.2-1.3c1.5,0,3,0.6,4,1.5c1.1,1,1.6,2.3,1.6,4.3v7.5c0,1.1,0,1.4-0.3,1.9
					c-0.3,0.7-1.2,1.2-2,1.2c-0.8,0-1.7-0.5-2-1.2c-0.3-0.5-0.3-0.8-0.3-1.9V473c0-2-1-3.2-2.6-3.2c-1.5,0-2.7,1.2-2.7,2.8v6.5
					c0,1.1,0,1.4-0.3,1.9c-0.3,0.7-1.2,1.2-2,1.2c-0.8,0-1.7-0.5-2-1.2c-0.3-0.5-0.3-0.8-0.3-1.9v-17c0-1.1,0-1.4,0.3-1.9
					c0.3-0.7,1.2-1.2,2-1.2c0.8,0,1.6,0.5,2,1.2c0.3,0.5,0.3,0.8,0.3,1.9V467.2z"/>
				<path d="M611.9,475.7c0,3.9-3.1,6.8-7.4,6.8c-1.6,0-3.1-0.4-4.3-1.2c-1.7-1.1-3-3.1-3-4.6c0-1.1,1-2.1,2.2-2.1
					c0.6,0,1.1,0.2,1.5,0.7c0.2,0.2,0.2,0.2,0.8,1.2c0.6,1,1.6,1.6,2.6,1.6c1.6,0,2.7-1.1,2.7-2.7c0-1.4-0.8-2.2-2.6-2.3
					c-1-0.1-1.3-0.2-1.7-0.5c-0.5-0.4-0.7-1-0.7-1.6c0-0.5,0.2-1.1,0.5-1.4c0.3-0.3,0.4-0.3,1.8-0.7c1.3-0.4,2-1.1,2-2.1
					c0-1-0.8-1.7-1.9-1.7c-0.9,0-1.6,0.4-2.5,1.4c-0.8,1-1.3,1.2-2.1,1.2c-1.1,0-2-0.9-2-2.1c0-2.6,3.2-4.9,6.7-4.9
					c3.6,0,6.2,2.4,6.2,5.6c0,1.8-0.6,3-2.3,4.2C610.9,471.8,611.9,473.4,611.9,475.7z"/>
				<path d="M614.3,476l9.3-4.6l-9.3-4.6v-3.9l13.5,6.9v3.3l-13.5,6.9V476z"/>
			</g>
			<g>
				<path d="M734.2,411.3l-9.3,4.6l9.3,4.6v3.9l-13.5-6.9v-3.3l13.5-6.9V411.3z"/>
				<path d="M741.2,411.7c1.6-0.9,2.7-1.3,4.2-1.3c1.5,0,3,0.6,4,1.5c1.1,1,1.6,2.3,1.6,4.3v7.5c0,1.1,0,1.4-0.3,1.9
					c-0.3,0.7-1.2,1.2-2,1.2c-0.8,0-1.7-0.5-2-1.2c-0.3-0.5-0.3-0.8-0.3-1.9v-6.2c0-2-1-3.2-2.6-3.2c-1.5,0-2.7,1.2-2.7,2.8v6.5
					c0,1.1,0,1.4-0.3,1.9c-0.3,0.7-1.2,1.2-2,1.2c-0.8,0-1.7-0.5-2-1.2c-0.3-0.5-0.3-0.8-0.3-1.9v-17c0-1.1,0-1.4,0.3-1.9
					c0.3-0.7,1.2-1.2,2-1.2c0.8,0,1.6,0.5,2,1.2c0.3,0.5,0.3,0.8,0.3,1.9V411.7z"/>
				<path d="M762.2,413.1c3.5,0,6.2,2.9,6.2,6.6c0,4.3-3.2,7.4-7.6,7.4c-4.3,0-7.5-3.1-7.5-7.1c0-3.1,1.3-6.1,4.3-10
					c3-3.8,3.9-4.7,5.1-4.7c1.2,0,2.2,1,2.2,2.1c0,0.5-0.2,1-0.6,1.6c-0.2,0.2-0.2,0.2-1.3,1.5c-0.7,0.7-1.2,1.4-2.4,3
					C761.3,413.1,761.6,413.1,762.2,413.1z M758.2,419.6c0,1.5,1.2,2.7,2.7,2.7c1.5,0,2.7-1.2,2.7-2.7c0-1.5-1.2-2.7-2.7-2.7
					C759.4,417,758.2,418.2,758.2,419.6z"/>
				<path d="M770,420.5l9.3-4.6l-9.3-4.6v-3.9l13.5,6.9v3.3l-13.5,6.9V420.5z"/>
			</g>
			<g>
				<path d="M586.6,593c0,1.6-0.9,2.7-2.3,2.7c-1.1,0-1.8-0.6-2.3-1.8c-1.2,1.4-2.1,1.9-3.8,1.9s-3.2-0.6-4.5-1.7
					c-1.8-1.6-2.7-3.8-2.7-6.6c0-2.5,0.7-4.4,2.4-6.1c1.4-1.4,3-2.1,4.8-2.1c1.6,0,2.6,0.5,3.9,1.8c0.5-1.2,1.2-1.7,2.3-1.7
					c1.3,0,2.3,1,2.3,2.3V593z M575.5,587.6c0,2.4,1.2,4,3.2,4c1.9,0,3.2-1.6,3.2-4c0-2.3-1.3-3.9-3.2-3.9
					C576.8,583.7,575.5,585.2,575.5,587.6z"/>
				<path d="M593.8,592.7c0,1.1,0,1.4-0.3,1.9c-0.3,0.7-1.2,1.2-2,1.2c-0.8,0-1.7-0.5-2-1.2c-0.3-0.5-0.3-0.8-0.3-1.9v-17
					c0-1.1,0-1.4,0.3-1.9c0.3-0.7,1.2-1.2,2-1.2c0.8,0,1.6,0.5,2,1.1c0.3,0.5,0.3,0.8,0.3,1.9V592.7z"/>
				<path d="M602.6,592.7c0,1.1,0,1.4-0.3,1.9c-0.3,0.7-1.2,1.2-2,1.2c-0.8,0-1.7-0.5-2-1.2c-0.3-0.5-0.3-0.8-0.3-1.9v-8.8
					c-1.2,0-1.9-0.2-2.3-0.7c-0.3-0.4-0.5-0.9-0.5-1.4c0-1.1,0.7-1.9,1.8-2c0.3-0.1,0.3-0.1,1.1-0.1v-2.4c0-1.1,0-1.4,0.3-1.9
					c0.3-0.7,1.2-1.2,2-1.2c0.8,0,1.6,0.5,2,1.1c0.3,0.5,0.3,0.8,0.3,1.9v2.4h0.8c1,0,1.3,0,1.7,0.3c0.6,0.3,1,1.1,1,1.8
					c0,0.7-0.4,1.5-1,1.8c-0.5,0.2-0.7,0.3-1.7,0.3h-0.8V592.7z"/>
			</g>
			<g>
				<path d="M520.8,424.4c0-1.6,0.9-2.7,2.3-2.7c0.9,0,1.4,0.3,2.2,1.5c1.3-1.2,2.4-1.6,4-1.6c1.1,0,2.3,0.3,3.1,0.8
					c0.5,0.2,0.7,0.5,1.3,1.2c1.8-1.5,3.1-2,4.8-2c3.2,0,5.5,2.2,5.5,5.3v8c0,1.1,0,1.4-0.3,1.9c-0.3,0.7-1.2,1.2-2,1.2
					c-0.8,0-1.7-0.5-2-1.2c-0.3-0.5-0.3-0.8-0.3-1.9v-7c0-1.4-0.9-2.4-2.3-2.4c-1.4,0-2.4,1-2.4,2.4v7c0,1.1,0,1.4-0.3,1.9
					c-0.3,0.7-1.2,1.2-2,1.2c-0.8,0-1.7-0.5-2-1.2c-0.3-0.5-0.3-0.8-0.3-1.9v-6.5c0-1.8-0.9-2.8-2.4-2.8c-1.4,0-2.4,1-2.4,2.4v7
					c0,1.1,0,1.4-0.3,1.9c-0.3,0.7-1.2,1.2-2,1.2c-0.8,0-1.7-0.5-2-1.2c-0.3-0.5-0.3-0.8-0.3-1.9V424.4z"/>
				<path d="M550.9,431.4c0.7,1.8,1.8,2.7,3.6,2.7c1.1,0,1.4-0.1,3.8-1.3c0.3-0.1,0.7-0.2,1-0.2c0.9,0,1.8,0.9,1.8,1.9
					c0,1.9-3.3,3.6-6.9,3.6c-4.9,0-8.3-3.3-8.3-8c0-4.9,3.3-8.5,7.9-8.5c4.3,0,7.6,3.5,7.6,7.9c0,1.3-0.6,1.8-2,1.8H550.9z
					 M556.9,428.3c-0.2-0.9-0.4-1.2-0.7-1.7c-0.5-0.7-1.4-1.2-2.3-1.2c-1.5,0-2.5,0.9-3.2,2.9H556.9z"/>
				<path d="M568.9,434.9c0,1.1,0,1.4-0.3,1.9c-0.3,0.7-1.2,1.2-2,1.2c-0.8,0-1.7-0.5-2-1.2c-0.3-0.5-0.3-0.8-0.3-1.9v-8.8
					c-1.2,0-1.9-0.2-2.3-0.7c-0.3-0.4-0.5-0.9-0.5-1.4c0-1.1,0.7-1.9,1.8-2c0.3-0.1,0.3-0.1,1.1-0.1v-2.4c0-1.1,0-1.4,0.3-1.9
					c0.3-0.7,1.2-1.2,2-1.2c0.8,0,1.6,0.5,2,1.1c0.3,0.5,0.3,0.8,0.3,1.9v2.4h0.8c1,0,1.3,0,1.7,0.3c0.6,0.3,1,1.1,1,1.8
					c0,0.7-0.4,1.5-1,1.8c-0.5,0.2-0.7,0.3-1.7,0.3h-0.8V434.9z"/>
				<path d="M588.2,435.3c0,1.6-0.9,2.7-2.3,2.7c-1.1,0-1.8-0.6-2.3-1.8c-1.2,1.4-2.1,1.9-3.8,1.9c-1.7,0-3.2-0.6-4.5-1.7
					c-1.8-1.6-2.7-3.8-2.7-6.6c0-2.5,0.7-4.4,2.4-6.1c1.4-1.4,3-2.1,4.8-2.1c1.6,0,2.6,0.5,3.9,1.8c0.5-1.2,1.2-1.7,2.3-1.7
					c1.3,0,2.3,1,2.3,2.3V435.3z M577.2,429.8c0,2.4,1.2,4,3.2,4c1.9,0,3.2-1.6,3.2-4c0-2.3-1.3-3.9-3.2-3.9
					C578.5,425.9,577.2,427.5,577.2,429.8z"/>
			</g>
			<g>
				<circle class="st76" cx="455.2" cy="633.4" r="24.3"/>
				<path class="st5" d="M455.2,660.7c-15.1,0-27.3-12.2-27.3-27.3c0-15.1,12.2-27.3,27.3-27.3c15.1,0,27.3,12.2,27.3,27.3
					C482.5,648.4,470.2,660.7,455.2,660.7z M455.2,612.1c-11.7,0-21.2,9.5-21.2,21.2c0,11.7,9.5,21.2,21.2,21.2
					c11.7,0,21.2-9.5,21.2-21.2C476.4,621.7,466.9,612.1,455.2,612.1z"/>
			</g>
			<g>
				<circle class="st76" cx="457.8" cy="711.4" r="6.9"/>
				<path class="st5" d="M457.8,721.3c-5.5,0-10-4.5-10-10s4.5-10,10-10s10,4.5,10,10S463.3,721.3,457.8,721.3z M457.8,707.5
					c-2.2,0-3.9,1.7-3.9,3.9s1.7,3.9,3.9,3.9s3.9-1.7,3.9-3.9S459.9,707.5,457.8,707.5z"/>
			</g>
			<g>
				<circle class="st76" cx="440.9" cy="679.7" r="10"/>
				<path class="st5" d="M440.9,692.7c-7.2,0-13-5.8-13-13s5.8-13,13-13c7.2,0,13,5.8,13,13S448,692.7,440.9,692.7z M440.9,672.8
					c-3.8,0-6.9,3.1-6.9,6.9s3.1,6.9,6.9,6.9s6.9-3.1,6.9-6.9S444.7,672.8,440.9,672.8z"/>
			</g>
		</g>
	</g>
	<g>
		<defs>
			<rect id="SVGID_00000110458470392670314300000017798764522049538219_" x="1.1" y="0.4" width="897" height="897"/>
		</defs>
		<clipPath id="SVGID_00000051368791114417137060000016409194603513208243_">
			<use xlink:href="#SVGID_00000110458470392670314300000017798764522049538219_"  style="overflow:visible;"/>
		</clipPath>
		<g style="opacity:0.24;clip-path:url(#SVGID_00000051368791114417137060000016409194603513208243_);">
			
				<image style="overflow:visible;" width="872" height="872" xlink:href="7C438D157C4BCE24.png"  transform="matrix(1.2385 0 0 1.2385 -90.5 -102)">
			</image>
		</g>
	</g>
</g>
<g id="halftone">
</g>
</svg>
