<?xml version="1.0" encoding="utf-8"?>
<!-- Generator: Adobe Illustrator 27.3.1, SVG Export Plug-In . SVG Version: 6.00 Build 0)  -->
<svg version="1.1" xmlns="http://www.w3.org/2000/svg" xmlns:xlink="http://www.w3.org/1999/xlink" x="0px" y="0px"
	 viewBox="0 0 100 100" style="enable-background:new 0 0 100 100;" xml:space="preserve">
<style type="text/css">
	.st0{display:none;}
	.st1{display:inline;opacity:0.28;}
	.st2{fill:none;stroke:#000000;stroke-width:0.75;stroke-miterlimit:10;}
	.st3{fill:none;stroke:#000000;stroke-width:4;stroke-linecap:round;stroke-linejoin:round;stroke-miterlimit:10;}
	.st4{fill:#FCCF72;stroke:#1A2276;stroke-width:6;stroke-miterlimit:10;}
	.st5{fill:#1A2276;}
	.st6{fill:#EBEAD8;}
	.st7{fill:#ED8376;stroke:#E90302;stroke-width:17;stroke-linecap:round;stroke-linejoin:round;stroke-miterlimit:10;}
	.st8{fill:#E90302;}
	.st9{fill:#FCCF72;}
	.st10{fill:#8288A8;}
	.st11{fill:#EBEAD8;stroke:#1A2276;stroke-width:6;stroke-miterlimit:10;}
	.st12{fill:none;stroke:#1A2276;stroke-width:6;stroke-miterlimit:10;}
	.st13{fill:#E90302;stroke:#1A2276;stroke-width:6;stroke-miterlimit:10;}
	.st14{fill:#EBBFAF;}
	
		.st15{clip-path:url(#SVGID_00000098905805091772708440000011329512069953636498_);fill:#FCCF72;stroke:#1A2276;stroke-width:6;stroke-miterlimit:10;}
	
		.st16{clip-path:url(#SVGID_00000162340281267364772330000001279352929824600759_);fill:#FCCF72;stroke:#1A2276;stroke-width:6;stroke-miterlimit:10;}
	
		.st17{clip-path:url(#SVGID_00000000181190919934406910000012358036396975560857_);fill:#FCCF72;stroke:#1A2276;stroke-width:6;stroke-miterlimit:10;}
	
		.st18{clip-path:url(#SVGID_00000098933663971724564490000003103091031392740265_);fill:#FCCF72;stroke:#1A2276;stroke-width:6;stroke-miterlimit:10;}
	
		.st19{clip-path:url(#SVGID_00000137849872074675145870000011446106731386587537_);fill:#FCCF72;stroke:#1A2276;stroke-width:6;stroke-miterlimit:10;}
	.st20{fill:#FFFFFF;}
	
		.st21{clip-path:url(#SVGID_00000106144296539342973440000001205781152750782875_);fill:#FCCF72;stroke:#1A2276;stroke-width:6;stroke-miterlimit:10;}
	.st22{fill:none;stroke:#1A2276;stroke-width:6;stroke-linecap:round;stroke-miterlimit:10;}
	
		.st23{clip-path:url(#SVGID_00000088113568838444579660000011119767388377168543_);fill:#FCCF72;stroke:#1A2276;stroke-width:6;stroke-miterlimit:10;}
	
		.st24{clip-path:url(#SVGID_00000042699266452910368610000006129070736049979319_);fill:#FCCF72;stroke:#1A2276;stroke-width:6;stroke-miterlimit:10;}
	
		.st25{clip-path:url(#SVGID_00000182492743590648258290000001902631032771767722_);fill:#FCCF72;stroke:#1A2276;stroke-width:6;stroke-miterlimit:10;}
	
		.st26{clip-path:url(#SVGID_00000089569839998716335280000006196204927443169681_);fill:#FCCF72;stroke:#1A2276;stroke-width:6;stroke-miterlimit:10;}
	
		.st27{clip-path:url(#SVGID_00000120520702796975258060000000467919647142017416_);fill:#FCCF72;stroke:#1A2276;stroke-width:6;stroke-miterlimit:10;}
	
		.st28{clip-path:url(#SVGID_00000122708061333924616030000011655582164248737458_);fill:#FCCF72;stroke:#1A2276;stroke-width:6;stroke-miterlimit:10;}
	.st29{fill:none;stroke:#000000;stroke-width:4;stroke-miterlimit:10;}
	.st30{fill:#FCCF72;stroke:#000000;stroke-width:4;stroke-miterlimit:10;}
	.st31{fill:none;stroke:#000000;stroke-width:5;stroke-linecap:round;stroke-miterlimit:10;}
	
		.st32{clip-path:url(#SVGID_00000016769829577544653130000006226793061243318934_);fill:#FCCF72;stroke:#1A2276;stroke-width:6;stroke-miterlimit:10;}
	
		.st33{clip-path:url(#SVGID_00000054239415268056521240000014079169661457565325_);fill:#FCCF72;stroke:#1A2276;stroke-width:6;stroke-miterlimit:10;}
	
		.st34{clip-path:url(#SVGID_00000021833871836034397260000008142108018569071255_);fill:#FCCF72;stroke:#1A2276;stroke-width:6;stroke-miterlimit:10;}
	
		.st35{clip-path:url(#SVGID_00000055669481659752819140000009353468413748221609_);fill:#FCCF72;stroke:#1A2276;stroke-width:6;stroke-miterlimit:10;}
	.st36{fill:#E90302;stroke:#EBBFAF;stroke-width:6;stroke-miterlimit:10;}
	.st37{clip-path:url(#SVGID_00000165201632604339476550000005684386458542419842_);fill:#FCCF72;}
	.st38{clip-path:url(#SVGID_00000165201632604339476550000005684386458542419842_);fill:#1A2276;}
	.st39{clip-path:url(#SVGID_00000025438162632584124170000005089082245804135312_);fill:#8288A8;}
	.st40{fill:#020202;}
	.st41{clip-path:url(#SVGID_00000091017423650138378450000015811113421618017167_);}
	.st42{fill:#EBEAD8;stroke:#1A2276;stroke-width:3;stroke-miterlimit:10;}
	.st43{fill:#8288A8;stroke:#8288A8;stroke-miterlimit:10;}
	.st44{fill:#1A2276;stroke:#FCCF72;stroke-width:6;stroke-miterlimit:10;}
	.st45{fill:none;stroke:#EBEAD8;stroke-width:6;stroke-miterlimit:10;}
	.st46{fill:#8288A8;stroke:#1A2276;stroke-width:6;stroke-miterlimit:10;}
	.st47{fill:#FCCF72;stroke:#8288A8;stroke-width:6;stroke-miterlimit:10;}
	.st48{clip-path:url(#SVGID_00000128465056131258881040000005117791508263287466_);}
	.st49{fill:none;}
	.st50{fill:#ED8376;}
	.st51{fill:url(#);}
	.st52{fill:#1A2276;stroke:url(#);stroke-miterlimit:10;}
	.st53{fill:#ED8376;stroke:#E90302;stroke-width:6;stroke-linecap:round;stroke-linejoin:round;stroke-miterlimit:10;}
	.st54{fill:none;stroke:#E90302;stroke-width:6;stroke-linecap:round;stroke-linejoin:round;stroke-miterlimit:10;}
	.st55{fill:none;stroke:#E90302;stroke-width:5;stroke-linecap:round;stroke-linejoin:round;stroke-miterlimit:10;}
	.st56{fill:#FFFFFF;stroke:#000000;stroke-width:6;stroke-miterlimit:10;}
	.st57{fill:#FFFDFD;stroke:#1A2276;stroke-width:7;stroke-miterlimit:10;}
	
		.st58{clip-path:url(#SVGID_00000070079000749642807380000017952119717186983045_);fill:#FCCF72;stroke:#1A2276;stroke-width:6;stroke-miterlimit:10;}
	
		.st59{clip-path:url(#SVGID_00000073695636297157884310000000415221803723985054_);fill:#FCCF72;stroke:#1A2276;stroke-width:6;stroke-miterlimit:10;}
	.st60{fill:none;stroke:#E90302;stroke-width:6;stroke-linecap:round;stroke-miterlimit:10;}
	
		.st61{clip-path:url(#SVGID_00000091717994680576411170000004904775500416862105_);fill:#FCCF72;stroke:#1A2276;stroke-width:6;stroke-miterlimit:10;}
	
		.st62{clip-path:url(#SVGID_00000127024531919493625220000015926115894012264626_);fill:#FCCF72;stroke:#1A2276;stroke-width:6;stroke-miterlimit:10;}
	
		.st63{clip-path:url(#SVGID_00000034088151527797716640000002967133964028167808_);fill:#FCCF72;stroke:#1A2276;stroke-width:6;stroke-miterlimit:10;}
	.st64{fill:none;stroke:#1A2276;stroke-width:7;stroke-miterlimit:10;}
	
		.st65{clip-path:url(#SVGID_00000173878095247978768980000017882257713459506103_);fill:#FCCF72;stroke:#1A2276;stroke-width:6;stroke-miterlimit:10;}
	.st66{clip-path:url(#SVGID_00000068677307045846290280000011629565083638631869_);}
	
		.st67{clip-path:url(#SVGID_00000062194357469839219170000013346482229274454964_);fill:#FCCF72;stroke:#1A2276;stroke-width:6;stroke-miterlimit:10;}
	
		.st68{clip-path:url(#SVGID_00000068679689611499592150000001697316255020936108_);fill:#FCCF72;stroke:#1A2276;stroke-width:6;stroke-miterlimit:10;}
	
		.st69{clip-path:url(#SVGID_00000148621900441542699490000010863718822797314476_);fill:#FCCF72;stroke:#1A2276;stroke-width:6;stroke-miterlimit:10;}
	.st70{clip-path:url(#SVGID_00000083048425020434146990000017685480594917996677_);}
	.st71{clip-path:url(#SVGID_00000000920142957993017430000002785440278661855881_);}
	.st72{clip-path:url(#SVGID_00000167368052364206231150000014614597981515421354_);}
	.st73{opacity:0.5;}
	.st74{clip-path:url(#SVGID_00000093875481785103938270000005944089653854749317_);}
	.st75{clip-path:url(#SVGID_00000150102709742014962890000007442822413451355321_);}
	.st76{fill:#FFFDFD;}
	.st77{clip-path:url(#SVGID_00000074429211586809730690000017172250216962237317_);}
	.st78{opacity:0.8;}
	
		.st79{clip-path:url(#SVGID_00000094619711315405147340000010728643141229588364_);fill:#FCCF72;stroke:#1A2276;stroke-width:6;stroke-miterlimit:10;}
	
		.st80{clip-path:url(#SVGID_00000014631823808976546250000015478668290235179942_);fill:#FCCF72;stroke:#1A2276;stroke-width:6;stroke-miterlimit:10;}
	.st81{clip-path:url(#SVGID_00000091710825913877009920000009579336640365611188_);}
	.st82{clip-path:url(#SVGID_00000049911496327107214670000013137469441988488867_);}
	.st83{clip-path:url(#SVGID_00000152968201043759967920000006988804579579150753_);}
	.st84{clip-path:url(#SVGID_00000097478100245572877160000008177634528793373599_);}
	.st85{clip-path:url(#SVGID_00000158002481878164400670000000064010872660615350_);}
	.st86{fill:none;stroke:#1A2276;stroke-width:19;stroke-miterlimit:10;}
	.st87{clip-path:url(#SVGID_00000033367678445146541310000016125423647707875733_);}
	.st88{fill:none;stroke:#1A2276;stroke-width:10;stroke-miterlimit:10;}
	.st89{clip-path:url(#SVGID_00000081639252696968777620000011366951345881116084_);}
	.st90{clip-path:url(#SVGID_00000054988894026312534070000011562388847133270182_);fill:#FCCF72;}
	.st91{clip-path:url(#SVGID_00000054988894026312534070000011562388847133270182_);fill:#1A2276;}
	.st92{clip-path:url(#SVGID_00000109022607229089206960000003957164170414493314_);}
	.st93{clip-path:url(#SVGID_00000047025394878921722520000010662817125268041873_);}
	.st94{clip-path:url(#SVGID_00000047025394878921722520000010662817125268041873_);fill:none;}
	.st95{clip-path:url(#SVGID_00000135667541529278628860000008659521476258515634_);fill:#8288A8;}
	.st96{clip-path:url(#SVGID_00000135667541529278628860000008659521476258515634_);fill:#FCCF72;}
	.st97{fill:#FFFFFF;stroke:#FFFFFF;stroke-width:6;stroke-miterlimit:10;}
	.st98{fill:none;stroke:#8288A8;stroke-width:6;stroke-miterlimit:10;}
	.st99{clip-path:url(#SVGID_00000054253985492058609370000010462790686455863987_);}
	.st100{clip-path:url(#SVGID_00000155838050763379259510000017789650862331790738_);}
	.st101{clip-path:url(#SVGID_00000087387239975798309020000009204748467004733840_);}
	.st102{clip-path:url(#SVGID_00000105395693977136370390000007931332147755752616_);}
	.st103{clip-path:url(#SVGID_00000157292775435489285550000015845526017123694749_);}
	.st104{fill:#EBEAD8;stroke:#1A2276;stroke-width:12;stroke-miterlimit:10;}
	.st105{fill:none;stroke:#1A2276;stroke-width:12;stroke-miterlimit:10;}
	.st106{clip-path:url(#SVGID_00000082329428565854577620000000661467023849265319_);}
	.st107{clip-path:url(#SVGID_00000079458065678144801050000014868492309094807989_);}
	.st108{clip-path:url(#SVGID_00000164475523076914443090000013569609398805667002_);}
	.st109{clip-path:url(#SVGID_00000045585940656635455340000017183630442630448572_);}
	.st110{clip-path:url(#SVGID_00000029010633268247567620000018153730339898736291_);}
	.st111{clip-path:url(#SVGID_00000148624921611962003090000016498500199084210352_);fill:#8288A8;}
	.st112{clip-path:url(#SVGID_00000148624921611962003090000016498500199084210352_);fill:#FCCF72;}
	.st113{clip-path:url(#SVGID_00000143599827111667377060000011356006877320841896_);}
	.st114{clip-path:url(#SVGID_00000028323911265260210600000013344259597236842369_);fill:#E90302;}
	.st115{clip-path:url(#SVGID_00000094582823251503615090000013632124810979503492_);fill:none;}
	.st116{clip-path:url(#SVGID_00000147941291003867147610000000042801971354539427_);}
	.st117{clip-path:url(#SVGID_00000025444623496346466870000010535046877816915890_);}
	.st118{clip-path:url(#SVGID_00000133503793329664748320000008004053310201157523_);}
	.st119{clip-path:url(#SVGID_00000129176446331056468660000018369032619544624029_);}
	.st120{clip-path:url(#SVGID_00000021834355793143828440000008789188286225715856_);}
	.st121{clip-path:url(#SVGID_00000026156674184708081860000017143810013968027270_);}
	.st122{clip-path:url(#SVGID_00000075865879955139483580000010570487342121220773_);}
	.st123{clip-path:url(#SVGID_00000168802254062331991700000000256358508509143723_);}
	.st124{clip-path:url(#SVGID_00000041256129450559229470000012572160090105086879_);}
	.st125{clip-path:url(#SVGID_00000062891282877530594240000002139745451550378635_);}
	.st126{clip-path:url(#SVGID_00000168086871663780417680000012712617463715209118_);}
	.st127{clip-path:url(#SVGID_00000073704808318880978950000015565999536828199593_);}
	.st128{clip-path:url(#SVGID_00000068651360824222881700000006030694704804300442_);fill:#EBEAD8;}
	.st129{clip-path:url(#SVGID_00000068651360824222881700000006030694704804300442_);}
	.st130{clip-path:url(#SVGID_00000098913826751181205490000006477218060615741339_);}
	.st131{clip-path:url(#SVGID_00000014632762563833852960000001944561197550550960_);}
	.st132{clip-path:url(#SVGID_00000057120695654002389760000003409484290897691265_);}
	.st133{clip-path:url(#SVGID_00000166676115699862856710000016524238619246766210_);}
	.st134{clip-path:url(#SVGID_00000001663820925868990080000004153485565698671260_);}
	.st135{fill:#ED8376;stroke:#1A2276;stroke-width:6;stroke-miterlimit:10;}
	.st136{fill:url(#);stroke:#1A2276;stroke-width:6;stroke-miterlimit:10;}
	.st137{clip-path:url(#SVGID_00000077287235273847762570000011001532858939726487_);}
	
		.st138{clip-path:url(#SVGID_00000049206043591172573940000010114651208456118193_);fill:#FCCF72;stroke:#1A2276;stroke-width:6;stroke-miterlimit:10;}
	.st139{fill:none;stroke:#FCCF72;stroke-width:6;stroke-linecap:round;stroke-miterlimit:10;}
	.st140{clip-path:url(#SVGID_00000044894551687662398440000016042890397725336724_);}
</style>
<g id="guias" class="st0">
</g>
<g id="Layer_2">
</g>
<g id="Layer_1">
</g>
<g id="web">
	<g>
		<g>
			<path class="st6" d="M42.6,94.9c-17.1-2.5-25-3.6-29.4-7.9c-4.8-4.8-3.8-11.7-2-24.2l0.4-2.6c1.4-9.6,2.2-15.4,5-19.3
				c2.7-3.8,6.8-5,12.1-5.1L25.8,9.1l13.7,18L54.6,4.7l8.2,25.6l18.9-15.1L70.9,41.7c5.8,1.6,9.8,3.8,11.6,8.5
				c1.8,4.7,0.9,11-0.6,21.4C80,84.8,79,92,73.1,95.4C67.6,98.5,59.7,97.4,42.6,94.9z"/>
		</g>
		<g>
			<polygon class="st9" points="39.6,33.3 53.4,12.8 60.9,36.4 73.2,26.5 64.9,46.9 33,42.6 30.3,20.4 			"/>
			<path class="st5" d="M32.2,43.4L29,17l10.6,14.7l14.2-21l7.7,24.1l14-11.1l-9.8,24.2L32.2,43.4z M31.6,23.7l2.2,18l30.6,4.2
				l6.7-16.6l-10.6,8.5l-7.3-23l-13.5,20L31.6,23.7z"/>
		</g>
		<g>
			
				<ellipse transform="matrix(0.1421 -0.9899 0.9899 0.1421 -25.9146 103.2854)" class="st6" cx="46.6" cy="66.6" rx="25.1" ry="32.1"/>
			<path class="st5" d="M42.9,92.3c-16-2.3-24.1-3.5-27.9-7.2c-3.9-3.8-3-9.9-1.3-21.9l0.2-1.3l0.2-1.3c1.7-12,2.6-18.1,7.4-20.6
				c4.6-2.5,12.7-1.3,28.7,1c16,2.3,24.1,3.5,27.8,7.4c3.8,4,2.9,10.3,1.1,23c-1.8,12.7-2.7,19-7.5,21.8C67,95.7,59,94.6,42.9,92.3z
				 M50.1,42.7c-15.7-2.2-23.5-3.4-27.6-1.2c-4,2.2-4.8,7.9-6.4,19.3l-0.2,1.3l-0.2,1.3c-1.6,11.4-2.5,17.2,0.8,20.4
				c3.3,3.3,11.2,4.4,26.9,6.7c15.6,2.2,23.5,3.4,27.6,1c4-2.3,4.9-8.4,6.6-20.5c1.7-12.1,2.6-18.2-0.6-21.5
				C73.6,46.1,65.7,44.9,50.1,42.7z"/>
		</g>
		<g>
			<path class="st10" d="M76.2,61.4c-0.6,4.3-4.2,3.8-9.4,3c-5.2-0.8-5.1-0.7-4.5-5c0.6-4.3,0.5-4.3,5.8-3.5
				C73.2,56.6,76.8,57.1,76.2,61.4z"/>
		</g>
		<g>
			<path class="st10" d="M72.9,84.4c-0.6,4.3-4.2,3.8-9.4,3c-5.2-0.8-5.1-0.7-4.5-5c0.6-4.3,0.5-4.3,5.8-3.5
				C69.9,79.6,73.5,80.1,72.9,84.4z"/>
		</g>
		<g>
			<path class="st10" d="M74.8,73.1c-0.4,2.5-3.9,2.9-9.1,2.1c-5.2-0.8-5.4,0.2-4.8-4.1c0.8-5.8,0.7-4.4,5.9-3.6
				C71.9,68.3,75.7,66.5,74.8,73.1z"/>
		</g>
		<g>
			<defs>
				
					<ellipse id="SVGID_00000005981485545235058020000008659020838375856295_" transform="matrix(0.1421 -0.9899 0.9899 0.1421 -26.4633 103.8765)" cx="46.7" cy="67.2" rx="25.1" ry="31.6"/>
			</defs>
			<clipPath id="SVGID_00000078733929231588484230000002794821991584794240_">
				<use xlink:href="#SVGID_00000005981485545235058020000008659020838375856295_"  style="overflow:visible;"/>
			</clipPath>
			<g style="clip-path:url(#SVGID_00000078733929231588484230000002794821991584794240_);">
				<path class="st9" d="M40.7,60.3c-24.2-3.5-22.8-17.5-22.7-18c3.3-23.2,1.2-7.2,32.3-2.7C81,43.9,83.9,28.1,80.6,51.3
					C80.5,51.8,59,63,40.7,60.3z"/>
				<path class="st5" d="M40.6,61.2c-25.3-3.6-23.5-18.9-23.4-19.1c1.2-8.6,1.7-11.8,3.6-12.8c1.4-0.7,3.1,0.1,6,1.6
					c4.2,2.2,11.3,5.9,23.8,7.7c12.2,1.8,20,0.2,24.7-0.7c3.2-0.6,5.2-1,6.4,0.2c1.5,1.5,1.2,4.5-0.1,13.2c-0.1,0.4-0.3,0.6-0.5,0.7
					C78.5,54,57.8,63.7,40.6,61.2z M22.1,30.9c-0.2,0-0.4,0-0.6,0.1c-1.1,0.5-1.6,4.6-2.6,11.4c0,0.1-1.6,13.6,21.9,17
					c17,2.4,36.6-7.2,39-8.6c0.8-5.9,1.5-10.5,0.5-11.4c-0.6-0.5-2.3-0.2-4.8,0.3c-4.8,0.9-12.8,2.5-25.3,0.7
					c-12.8-1.8-20.1-5.6-24.4-7.8C24.2,31.7,22.9,31,22.1,30.9z"/>
			</g>
		</g>
		<g>
			<circle class="st5" cx="52.6" cy="50.7" r="2.2"/>
		</g>
		<g>
			<circle class="st5" cx="44.7" cy="49.6" r="2.2"/>
		</g>
		<g>
			<circle class="st5" cx="36.9" cy="48.4" r="2.2"/>
		</g>
		<g>
			<g>
				<circle class="st8" cx="22.4" cy="73" r="1.2"/>
			</g>
			<g>
				<circle class="st8" cx="23.3" cy="66.8" r="1.2"/>
			</g>
			<g>
				<circle class="st8" cx="18.7" cy="69.2" r="1.2"/>
			</g>
		</g>
		<g>
			<polygon class="st5" points="32,46 30.5,44 28.6,45.5 27.1,43.6 25.2,45 26.6,47 24.7,48.4 26.1,50.4 28.1,48.9 29.6,50.9 
				31.5,49.4 30.1,47.5 			"/>
		</g>
		<g>
			<g>
				<g>
					<g>
						<circle class="st20" cx="44.6" cy="69.8" r="3.5"/>
					</g>
					<g>
						<circle class="st5" cx="44.6" cy="69.8" r="2.4"/>
					</g>
				</g>
				<g>
					<circle class="st20" cx="31.7" cy="68" r="3.5"/>
				</g>
				<g>
					<circle class="st5" cx="31.7" cy="68" r="2.4"/>
				</g>
			</g>
			<g>
				<path class="st5" d="M36.1,80.6c-7.5-1.1-8.7-4.3-8.8-4.7c-0.1-0.5,0.1-1,0.6-1.1c0.5-0.1,1,0.1,1.1,0.6c0,0.1,1.1,2.6,7.4,3.5
					c6.5,0.9,9-1.3,9-1.3c0.4-0.3,0.9-0.3,1.3,0c0.3,0.4,0.3,0.9,0,1.3C46.5,78.9,43.6,81.7,36.1,80.6z"/>
			</g>
		</g>
		<g>
			<g>
				<circle class="st8" cx="52.5" cy="71.2" r="1.2"/>
			</g>
			<g>
				<circle class="st8" cx="51.6" cy="77.4" r="1.2"/>
			</g>
			<g>
				<circle class="st8" cx="56.2" cy="75.1" r="1.2"/>
			</g>
		</g>
	</g>
</g>
<g id="halftone">
</g>
</svg>
