<?xml version="1.0" encoding="utf-8"?>
<!-- Generator: Adobe Illustrator 27.3.1, SVG Export Plug-In . SVG Version: 6.00 Build 0)  -->
<svg version="1.1" xmlns="http://www.w3.org/2000/svg" xmlns:xlink="http://www.w3.org/1999/xlink" x="0px" y="0px"
	 viewBox="0 0 900 900" style="enable-background:new 0 0 900 900;" xml:space="preserve">
<style type="text/css">
	.st0{display:none;}
	.st1{display:inline;opacity:0.28;}
	.st2{fill:none;stroke:#000000;stroke-width:0.75;stroke-miterlimit:10;}
	.st3{fill:none;stroke:#000000;stroke-width:4;stroke-linecap:round;stroke-linejoin:round;stroke-miterlimit:10;}
	.st4{fill:#FCCF72;stroke:#1A2276;stroke-width:6;stroke-miterlimit:10;}
	.st5{fill:#1A2276;}
	.st6{fill:#EBEAD8;}
	.st7{fill:#ED8376;stroke:#E90302;stroke-width:17;stroke-linecap:round;stroke-linejoin:round;stroke-miterlimit:10;}
	.st8{fill:#E90302;}
	.st9{fill:#FCCF72;}
	.st10{fill:#8288A8;}
	.st11{fill:#EBEAD8;stroke:#1A2276;stroke-width:6;stroke-miterlimit:10;}
	.st12{fill:none;stroke:#1A2276;stroke-width:6;stroke-miterlimit:10;}
	.st13{fill:#E90302;stroke:#1A2276;stroke-width:6;stroke-miterlimit:10;}
	.st14{fill:#EBBFAF;}
	
		.st15{clip-path:url(#SVGID_00000002370574882793992140000001919934068932674719_);fill:#FCCF72;stroke:#1A2276;stroke-width:6;stroke-miterlimit:10;}
	
		.st16{clip-path:url(#SVGID_00000090264317097900064270000009471190056495033013_);fill:#FCCF72;stroke:#1A2276;stroke-width:6;stroke-miterlimit:10;}
	
		.st17{clip-path:url(#SVGID_00000119797248755146210790000004773497014195954063_);fill:#FCCF72;stroke:#1A2276;stroke-width:6;stroke-miterlimit:10;}
	
		.st18{clip-path:url(#SVGID_00000120551255310072265870000013178067580340474550_);fill:#FCCF72;stroke:#1A2276;stroke-width:6;stroke-miterlimit:10;}
	
		.st19{clip-path:url(#SVGID_00000067211032154027990910000006459129266640019370_);fill:#FCCF72;stroke:#1A2276;stroke-width:6;stroke-miterlimit:10;}
	.st20{fill:#FFFFFF;}
	
		.st21{clip-path:url(#SVGID_00000164514369325846606400000011945661403340563623_);fill:#FCCF72;stroke:#1A2276;stroke-width:6;stroke-miterlimit:10;}
	.st22{fill:none;stroke:#1A2276;stroke-width:6;stroke-linecap:round;stroke-miterlimit:10;}
	
		.st23{clip-path:url(#SVGID_00000180349583269067361510000004258684513069285294_);fill:#FCCF72;stroke:#1A2276;stroke-width:6;stroke-miterlimit:10;}
	
		.st24{clip-path:url(#SVGID_00000046333565967953009230000015057159888540560801_);fill:#FCCF72;stroke:#1A2276;stroke-width:6;stroke-miterlimit:10;}
	
		.st25{clip-path:url(#SVGID_00000183929836425700333270000011594557513821354656_);fill:#FCCF72;stroke:#1A2276;stroke-width:6;stroke-miterlimit:10;}
	
		.st26{clip-path:url(#SVGID_00000124120296580134192160000011822460553301865111_);fill:#FCCF72;stroke:#1A2276;stroke-width:6;stroke-miterlimit:10;}
	
		.st27{clip-path:url(#SVGID_00000022551655509416105740000013717329167071089030_);fill:#FCCF72;stroke:#1A2276;stroke-width:6;stroke-miterlimit:10;}
	
		.st28{clip-path:url(#SVGID_00000049203162587121314370000005678405373392275341_);fill:#FCCF72;stroke:#1A2276;stroke-width:6;stroke-miterlimit:10;}
	.st29{fill:none;stroke:#000000;stroke-width:4;stroke-miterlimit:10;}
	.st30{fill:#FCCF72;stroke:#000000;stroke-width:4;stroke-miterlimit:10;}
	.st31{fill:none;stroke:#000000;stroke-width:5;stroke-linecap:round;stroke-miterlimit:10;}
	
		.st32{clip-path:url(#SVGID_00000103246385029689916510000012045377366906847128_);fill:#FCCF72;stroke:#1A2276;stroke-width:6;stroke-miterlimit:10;}
	
		.st33{clip-path:url(#SVGID_00000027562151674551904500000000086637574846518691_);fill:#FCCF72;stroke:#1A2276;stroke-width:6;stroke-miterlimit:10;}
	
		.st34{clip-path:url(#SVGID_00000059289816662225209490000008603914334403600550_);fill:#FCCF72;stroke:#1A2276;stroke-width:6;stroke-miterlimit:10;}
	
		.st35{clip-path:url(#SVGID_00000131365793178836093850000013954182621606169515_);fill:#FCCF72;stroke:#1A2276;stroke-width:6;stroke-miterlimit:10;}
	.st36{fill:#E90302;stroke:#EBBFAF;stroke-width:6;stroke-miterlimit:10;}
	.st37{clip-path:url(#SVGID_00000174602643536307413040000014322888210261613245_);fill:#FCCF72;}
	.st38{clip-path:url(#SVGID_00000174602643536307413040000014322888210261613245_);fill:#1A2276;}
	.st39{clip-path:url(#SVGID_00000044180077413644985000000013960828695771195777_);fill:#8288A8;}
	.st40{fill:#020202;}
	.st41{clip-path:url(#SVGID_00000026153490868721707890000005162325261337560982_);}
	.st42{fill:#EBEAD8;stroke:#1A2276;stroke-width:3;stroke-miterlimit:10;}
	.st43{fill:#8288A8;stroke:#8288A8;stroke-miterlimit:10;}
	.st44{fill:#1A2276;stroke:#FCCF72;stroke-width:6;stroke-miterlimit:10;}
	.st45{fill:none;stroke:#EBEAD8;stroke-width:6;stroke-miterlimit:10;}
	.st46{fill:#8288A8;stroke:#1A2276;stroke-width:6;stroke-miterlimit:10;}
	.st47{fill:#FCCF72;stroke:#8288A8;stroke-width:6;stroke-miterlimit:10;}
	.st48{clip-path:url(#SVGID_00000099662169871832359890000001497525064541686418_);}
	.st49{fill:none;}
	.st50{fill:#ED8376;}
	.st51{fill:url(#);}
	.st52{fill:#1A2276;stroke:url(#);stroke-miterlimit:10;}
	.st53{fill:#ED8376;stroke:#E90302;stroke-width:6;stroke-linecap:round;stroke-linejoin:round;stroke-miterlimit:10;}
	.st54{fill:none;stroke:#E90302;stroke-width:6;stroke-linecap:round;stroke-linejoin:round;stroke-miterlimit:10;}
	.st55{fill:none;stroke:#E90302;stroke-width:5;stroke-linecap:round;stroke-linejoin:round;stroke-miterlimit:10;}
	.st56{fill:#FFFFFF;stroke:#000000;stroke-width:6;stroke-miterlimit:10;}
	.st57{fill:#FFFDFD;stroke:#1A2276;stroke-width:7;stroke-miterlimit:10;}
	
		.st58{clip-path:url(#SVGID_00000033342339829353655360000013668158434459680900_);fill:#FCCF72;stroke:#1A2276;stroke-width:6;stroke-miterlimit:10;}
	
		.st59{clip-path:url(#SVGID_00000050665182344993801090000017952360787930683306_);fill:#FCCF72;stroke:#1A2276;stroke-width:6;stroke-miterlimit:10;}
	.st60{fill:none;stroke:#E90302;stroke-width:6;stroke-linecap:round;stroke-miterlimit:10;}
	
		.st61{clip-path:url(#SVGID_00000103960156208119345280000012644050931565278900_);fill:#FCCF72;stroke:#1A2276;stroke-width:6;stroke-miterlimit:10;}
	
		.st62{clip-path:url(#SVGID_00000152983306485645254010000006317825635195442844_);fill:#FCCF72;stroke:#1A2276;stroke-width:6;stroke-miterlimit:10;}
	
		.st63{clip-path:url(#SVGID_00000163037190856990495770000009081460221707978627_);fill:#FCCF72;stroke:#1A2276;stroke-width:6;stroke-miterlimit:10;}
	.st64{fill:none;stroke:#1A2276;stroke-width:7;stroke-miterlimit:10;}
	
		.st65{clip-path:url(#SVGID_00000119818097219033870650000010786567485166822042_);fill:#FCCF72;stroke:#1A2276;stroke-width:6;stroke-miterlimit:10;}
	.st66{clip-path:url(#SVGID_00000153678270048845527000000014315454583590077589_);}
	
		.st67{clip-path:url(#SVGID_00000008831656840644210670000010794668480016431234_);fill:#FCCF72;stroke:#1A2276;stroke-width:6;stroke-miterlimit:10;}
	
		.st68{clip-path:url(#SVGID_00000171705960137131702990000001153713301352311991_);fill:#FCCF72;stroke:#1A2276;stroke-width:6;stroke-miterlimit:10;}
	
		.st69{clip-path:url(#SVGID_00000019672589548207691040000005855517506995696571_);fill:#FCCF72;stroke:#1A2276;stroke-width:6;stroke-miterlimit:10;}
	.st70{clip-path:url(#SVGID_00000142867459818555405150000016118870104236839569_);}
	.st71{clip-path:url(#SVGID_00000068675548367847379060000009557610264290330529_);}
	.st72{clip-path:url(#SVGID_00000147931259320895536210000000868768056131750546_);}
	.st73{opacity:0.5;}
	.st74{clip-path:url(#SVGID_00000074432752182481201430000010242411970453010050_);}
	.st75{clip-path:url(#SVGID_00000165912836241437527660000014142580641786789290_);}
	.st76{fill:#FFFDFD;}
	.st77{clip-path:url(#SVGID_00000096057124863044501400000014654131098148997506_);}
	.st78{opacity:0.8;}
	
		.st79{clip-path:url(#SVGID_00000106857375290910069020000009633401741541981845_);fill:#FCCF72;stroke:#1A2276;stroke-width:6;stroke-miterlimit:10;}
	
		.st80{clip-path:url(#SVGID_00000043459609434578942960000009944864761409688456_);fill:#FCCF72;stroke:#1A2276;stroke-width:6;stroke-miterlimit:10;}
	.st81{clip-path:url(#SVGID_00000017503850720131898650000013001166551006807205_);}
	.st82{clip-path:url(#SVGID_00000010298543874572116520000009011725897310859703_);}
	.st83{clip-path:url(#SVGID_00000079484100373908932320000000629370779972302729_);}
	.st84{clip-path:url(#SVGID_00000132060964107702674860000010010856542324284032_);}
	.st85{clip-path:url(#SVGID_00000042725385261503553680000005635627984748542348_);}
	.st86{fill:none;stroke:#1A2276;stroke-width:19;stroke-miterlimit:10;}
	.st87{clip-path:url(#SVGID_00000024699295860572318200000003060931642721670809_);}
	.st88{fill:none;stroke:#1A2276;stroke-width:10;stroke-miterlimit:10;}
	.st89{font-family:'Aptly-Bold';}
	.st90{font-size:40.1137px;}
	.st91{letter-spacing:4;}
	.st92{font-size:122.4095px;}
	.st93{font-family:'AmericanTypewriter-Bold';}
	.st94{font-size:117.9687px;}
	.st95{font-size:28px;}
	.st96{font-family:'Aptly';}
	.st97{font-size:70.872px;}
	.st98{clip-path:url(#SVGID_00000034086580258037706810000014580527834127315076_);}
	.st99{clip-path:url(#SVGID_00000182489671752954490220000010967584222347045045_);fill:#FCCF72;}
	.st100{clip-path:url(#SVGID_00000182489671752954490220000010967584222347045045_);fill:#1A2276;}
	.st101{clip-path:url(#SVGID_00000143581377718338827480000011170932117406238351_);}
	.st102{clip-path:url(#SVGID_00000069388831915099738480000000483286231896527268_);}
	.st103{clip-path:url(#SVGID_00000069388831915099738480000000483286231896527268_);fill:none;}
	.st104{clip-path:url(#SVGID_00000123416230641678617050000012756776223614623889_);fill:#8288A8;}
	.st105{clip-path:url(#SVGID_00000123416230641678617050000012756776223614623889_);fill:#FCCF72;}
	.st106{fill:#FFFFFF;stroke:#FFFFFF;stroke-width:6;stroke-miterlimit:10;}
	.st107{fill:none;stroke:#8288A8;stroke-width:6;stroke-miterlimit:10;}
	.st108{clip-path:url(#SVGID_00000085931814955035401050000001693664538900574901_);}
	.st109{clip-path:url(#SVGID_00000166641397295811350450000010401349373109643957_);}
	.st110{clip-path:url(#SVGID_00000139978486648014659180000002591484161208962711_);}
	.st111{clip-path:url(#SVGID_00000037654361395358984670000004988393556912819120_);}
	.st112{clip-path:url(#SVGID_00000105407661426858628480000010007178289185585041_);}
	.st113{fill:#EBEAD8;stroke:#1A2276;stroke-width:12;stroke-miterlimit:10;}
	.st114{fill:none;stroke:#1A2276;stroke-width:12;stroke-miterlimit:10;}
	.st115{clip-path:url(#SVGID_00000065785802072700979450000003052894291792239254_);}
	.st116{clip-path:url(#SVGID_00000067218818327330393150000010311203378570179518_);}
	.st117{clip-path:url(#SVGID_00000008841215202222671870000009716030455666894527_);}
	.st118{clip-path:url(#SVGID_00000023281065268447678260000008252632624645840306_);}
	.st119{clip-path:url(#SVGID_00000172407307433739787660000007364660183875470244_);}
	.st120{clip-path:url(#SVGID_00000108304525094168410080000017462626264318733493_);fill:#8288A8;}
	.st121{clip-path:url(#SVGID_00000108304525094168410080000017462626264318733493_);fill:#FCCF72;}
	.st122{clip-path:url(#SVGID_00000062155360219928111540000007019345422243634098_);}
	.st123{clip-path:url(#SVGID_00000165931045688968736810000011076927493955395970_);fill:#E90302;}
	.st124{clip-path:url(#SVGID_00000006704599375901055450000002237771330149434249_);fill:none;}
	.st125{clip-path:url(#SVGID_00000068643696701163719750000008168452093358758029_);}
	.st126{clip-path:url(#SVGID_00000126300549296471718470000002942723876132191364_);}
	.st127{clip-path:url(#SVGID_00000023981750631006990920000003084966533027066283_);}
	.st128{clip-path:url(#SVGID_00000114062528014386218640000011755529774175855288_);}
	.st129{clip-path:url(#SVGID_00000056408120319706071560000002358364092158990014_);}
	.st130{clip-path:url(#SVGID_00000160912499019135494940000018172493340908819094_);}
	.st131{clip-path:url(#SVGID_00000045607414301636320930000012375723759224715702_);}
	.st132{clip-path:url(#SVGID_00000181060712902438121900000007969609027775389347_);}
	.st133{clip-path:url(#SVGID_00000000912573552471427990000001698285037131891338_);}
	.st134{clip-path:url(#SVGID_00000060020295747141234460000000122313135031002251_);}
	.st135{clip-path:url(#SVGID_00000144338332449238035290000008237441685452818568_);}
	.st136{clip-path:url(#SVGID_00000034052606171013603740000008179538377492264349_);}
	.st137{clip-path:url(#SVGID_00000007408671133283764530000000620851218432685216_);fill:#EBEAD8;}
	.st138{clip-path:url(#SVGID_00000007408671133283764530000000620851218432685216_);}
	.st139{clip-path:url(#SVGID_00000057844205336967276220000007045113610669778349_);}
	.st140{clip-path:url(#SVGID_00000057846751900765705350000006664798376364977323_);}
	.st141{clip-path:url(#SVGID_00000062914140253478918480000012778108485442488714_);}
	.st142{clip-path:url(#SVGID_00000081633012540601511060000011737519726265810312_);}
	.st143{clip-path:url(#SVGID_00000017498106418151118330000004409124567342394805_);}
	.st144{fill:#ED8376;stroke:#1A2276;stroke-width:6;stroke-miterlimit:10;}
	.st145{fill:url(#);stroke:#1A2276;stroke-width:6;stroke-miterlimit:10;}
	.st146{clip-path:url(#SVGID_00000109008007949375097650000009901351330358700424_);}
	
		.st147{clip-path:url(#SVGID_00000049179656877355112520000017414359353879777165_);fill:#FCCF72;stroke:#1A2276;stroke-width:6;stroke-miterlimit:10;}
	.st148{fill:none;stroke:#FCCF72;stroke-width:6;stroke-linecap:round;stroke-miterlimit:10;}
	.st149{clip-path:url(#SVGID_00000111159267415353201150000004069321928580059036_);}
</style>
<g id="guias" class="st0">
</g>
<g id="Layer_2">
</g>
<g id="Layer_1">
</g>
<g id="web">
	<g>
		<rect x="1.5" y="1" class="st6" width="897" height="897"/>
		<g>
			<polygon class="st7" points="225.2,67.4 223.2,98.4 241.5,123.9 220.1,146 218.1,177 187.4,179.8 166,201.9 140.3,184.1 
				109.5,186.9 100.8,156.8 75.1,139 87.5,110.8 78.9,80.7 106.6,67.5 119.1,39.2 149.1,47.2 176.8,34 195.2,59.4 			"/>
			<g>
				<g>
					<path class="st6" d="M146.8,161.9c0-4.7,3.8-8.5,8.5-8.5c4.7,0,8.5,3.8,8.5,8.5v5.3h4.6c4.7,0,8.5,3.8,8.5,8.5
						s-3.8,8.5-8.5,8.5h-12.8c-4,0-7.3-2.7-8.3-6.4c-0.4-1-0.6-2-0.6-3.2V161.9z"/>
					<path class="st5" d="M168.4,185.4h-12.8c-4.4,0-8.2-2.9-9.3-7.2c-0.4-1.1-0.7-2.3-0.7-3.5v-12.8c0-5.3,4.3-9.6,9.6-9.6
						c5.3,0,9.6,4.3,9.6,9.6v4.3h3.5c5.3,0,9.6,4.3,9.6,9.6C178,181.1,173.7,185.4,168.4,185.4z M155.3,154.5
						c-4.1,0-7.4,3.3-7.4,7.4v12.8c0,1,0.2,1.9,0.5,2.8l0,0.1c0.8,3.3,3.8,5.6,7.2,5.6h12.8c4.1,0,7.4-3.3,7.4-7.4
						c0-4.1-3.3-7.4-7.4-7.4h-5.7v-6.4C162.8,157.8,159.4,154.5,155.3,154.5z"/>
				</g>
				<g>
					<line class="st6" x1="176.9" y1="177.7" x2="147.5" y2="177.7"/>
					<rect x="147.5" y="176.7" class="st5" width="29.4" height="2.1"/>
				</g>
				<g>
					<line class="st6" x1="163.8" y1="167.3" x2="159.4" y2="173.1"/>
					
						<rect x="157.9" y="169.1" transform="matrix(0.6034 -0.7974 0.7974 0.6034 -71.6418 196.371)" class="st5" width="7.3" height="2.1"/>
				</g>
				<g>
					<line class="st6" x1="168.1" y1="168" x2="163.6" y2="173.9"/>
					
						<rect x="162.2" y="169.9" transform="matrix(0.6034 -0.7974 0.7974 0.6034 -70.5196 200.0464)" class="st5" width="7.3" height="2.1"/>
				</g>
				<g>
					<line class="st6" x1="172.3" y1="168.7" x2="167.9" y2="174.6"/>
					
						<rect x="166.4" y="170.6" transform="matrix(0.6034 -0.7974 0.7974 0.6034 -69.3973 203.7218)" class="st5" width="7.3" height="2.1"/>
				</g>
				<g>
					<circle class="st6" cx="154.4" cy="168.2" r="3.5"/>
					<path class="st5" d="M154.4,172.8c-2.5,0-4.6-2.1-4.6-4.6c0-2.5,2.1-4.6,4.6-4.6s4.6,2.1,4.6,4.6
						C159,170.7,157,172.8,154.4,172.8z M154.4,165.7c-1.4,0-2.5,1.1-2.5,2.5s1.1,2.5,2.5,2.5s2.5-1.1,2.5-2.5
						S155.8,165.7,154.4,165.7z"/>
				</g>
				<g>
					<g>
						<path class="st6" d="M114.2,161.9c0-4.7,3.8-8.5,8.5-8.5s8.5,3.8,8.5,8.5v5.3h4.6c4.7,0,8.5,3.8,8.5,8.5s-3.8,8.5-8.5,8.5H123
							c-4,0-7.3-2.7-8.3-6.4c-0.4-1-0.6-2-0.6-3.2V161.9z"/>
						<path class="st5" d="M135.8,185.4H123c-4.4,0-8.2-2.9-9.3-7.2c-0.4-1.1-0.7-2.3-0.7-3.5v-12.8c0-5.3,4.3-9.6,9.6-9.6
							c5.3,0,9.6,4.3,9.6,9.6v4.3h3.5c5.3,0,9.6,4.3,9.6,9.6C145.4,181.1,141.1,185.4,135.8,185.4z M122.7,154.5
							c-4.1,0-7.4,3.3-7.4,7.4v12.8c0,1,0.2,1.9,0.5,2.8l0,0.1c0.8,3.3,3.8,5.6,7.2,5.6h12.8c4.1,0,7.4-3.3,7.4-7.4
							c0-4.1-3.3-7.4-7.4-7.4h-5.7v-6.4C130.1,157.8,126.8,154.5,122.7,154.5z"/>
					</g>
					<g>
						<line class="st6" x1="144.3" y1="177.7" x2="114.9" y2="177.7"/>
						<rect x="114.9" y="176.7" class="st5" width="29.4" height="2.1"/>
					</g>
					<g>
						<line class="st6" x1="131.2" y1="167.3" x2="126.8" y2="173.1"/>
						
							<rect x="125.3" y="169.1" transform="matrix(0.6034 -0.7974 0.7974 0.6034 -84.5827 170.3497)" class="st5" width="7.3" height="2.1"/>
					</g>
					<g>
						<line class="st6" x1="135.5" y1="168" x2="131" y2="173.9"/>
						
							<rect x="129.6" y="169.9" transform="matrix(0.6034 -0.7974 0.7974 0.6034 -83.4605 174.0251)" class="st5" width="7.3" height="2.1"/>
					</g>
					<g>
						<line class="st6" x1="139.7" y1="168.7" x2="135.3" y2="174.6"/>
						
							<rect x="133.8" y="170.6" transform="matrix(0.6034 -0.7974 0.7974 0.6034 -82.3382 177.7005)" class="st5" width="7.3" height="2.1"/>
					</g>
					<g>
						<circle class="st6" cx="121.8" cy="168.2" r="3.5"/>
						<path class="st5" d="M121.8,172.8c-2.5,0-4.6-2.1-4.6-4.6c0-2.5,2.1-4.6,4.6-4.6s4.6,2.1,4.6,4.6
							C126.4,170.7,124.3,172.8,121.8,172.8z M121.8,165.7c-1.4,0-2.5,1.1-2.5,2.5s1.1,2.5,2.5,2.5c1.4,0,2.5-1.1,2.5-2.5
							S123.2,165.7,121.8,165.7z"/>
					</g>
				</g>
				<g>
					<ellipse class="st6" cx="148.7" cy="125.4" rx="38.1" ry="29.8"/>
					<path class="st5" d="M148.7,156.3c-19.3,0-29,0-34-3.9c-5.2-4-5.2-11.7-5.2-26.9s0-22.9,5.2-26.9c5.1-3.9,14.7-3.9,34-3.9
						c19.3,0,29,0,34,3.7c5.2,3.8,5.2,11.1,5.2,25.5l0,1.6l0,1.6c0,14.4,0,21.7-5.2,25.5C177.7,156.3,168,156.3,148.7,156.3z
						 M148.7,96.7c-18.8,0-28.2,0-32.7,3.5c-4.4,3.4-4.4,10.7-4.4,25.2s0,21.8,4.4,25.2c4.5,3.5,13.9,3.5,32.7,3.5
						c18.8,0,28.3,0,32.7-3.3c4.3-3.2,4.3-10.1,4.3-23.8l0-1.6l0-1.6c0-13.7,0-20.6-4.3-23.8C177,96.7,167.6,96.7,148.7,96.7z"/>
				</g>
				<g>
					<path class="st8" d="M148.9,144.6c-38.8,0-38.3-12.2-38.3-11.5c0,27.8,0.2,27.8,38.1,27.8c37.3,0,38.1,0,38.1-27.8
						C186.9,132.4,187.1,144.6,148.9,144.6z"/>
					<path class="st5" d="M148.8,162c-19.2,0-28.9,0-33.9-3.7c-5.3-3.8-5.3-11.4-5.3-25.2h0c0-0.5,0.2-0.7,0.3-0.8l0.5-0.5l1.3,0.5
						v0.7c0.1,0.5,2,10.5,37.2,10.5c35.1,0,36.9-10.2,36.9-10.6l0.1-1l2,0.1l0,1c0,14.4-0.2,21.5-5.5,25.2
						C177.3,162,167.8,162,148.8,162z M111.7,137.1c0,10.8,0.5,16.6,4.4,19.4c4.5,3.3,13.9,3.3,32.7,3.3c18.5,0,27.8,0,32.4-3.3
						c4-2.8,4.6-8.5,4.6-19.5c-0.9,0.9-2.1,1.9-3.7,2.9c-6.6,3.8-17.8,5.7-33.1,5.7c-13.4,0-23.6-1.4-30.5-4.3
						C115.1,140,113,138.5,111.7,137.1z"/>
				</g>
				<g>
					<line class="st6" x1="182.2" y1="113.4" x2="126.7" y2="113.4"/>
					<rect x="126.7" y="112.3" class="st5" width="55.5" height="2.1"/>
				</g>
				<g>
					<line class="st6" x1="120.2" y1="112.7" x2="120.2" y2="119.7"/>
					<rect x="119.1" y="112.7" class="st5" width="2.1" height="7.1"/>
				</g>
				<g>
					<path class="st6" d="M174.9,123.8c0,0-1.6-4.6-6.5-3.8c-4.9,0.8-5.5,3.8-5.5,3.8"/>
					<path class="st5" d="M173.9,124.1c-0.1-0.2-1.4-3.8-5.4-3.1c-4,0.7-4.6,2.9-4.6,3l-2.1-0.4c0-0.2,0.7-3.7,6.3-4.7
						c4.6-0.8,7.1,2.6,7.7,4.5L173.9,124.1z"/>
				</g>
				<g>
					<path class="st6" d="M152.6,124.1c0,0-1.6-4.6-6.5-3.8c-4.9,0.8-5.5,3.8-5.5,3.8"/>
					<path class="st5" d="M151.6,124.5c-0.1-0.2-1.4-3.8-5.4-3.1c-4,0.7-4.6,2.9-4.6,3l-2.1-0.4c0-0.2,0.7-3.7,6.3-4.7
						c4.6-0.8,7.1,2.6,7.7,4.5L151.6,124.5z"/>
				</g>
				<g>
					<path class="st6" d="M164.8,128.3c0,0,1.3,5.3-4.4,6.1c-6,0.9-6.4-5.1-6.4-5.1"/>
					<path class="st5" d="M159.1,135.6c-1.5,0-2.8-0.4-3.8-1.3c-2.2-1.8-2.5-4.8-2.5-4.9l2.1-0.2c0,0,0.2,2.2,1.7,3.4
						c0.9,0.7,2,0.9,3.5,0.7c1.4-0.2,2.5-0.8,3-1.6c0.9-1.4,0.5-3.2,0.5-3.2l2.1-0.5c0,0.1,0.6,2.7-0.8,4.9
						c-0.9,1.4-2.4,2.2-4.5,2.5C160,135.6,159.6,135.6,159.1,135.6z"/>
				</g>
				<g>
					<path class="st6" d="M102.5,128.1c4.3-1.9,9.3,0.1,11.2,4.4l5.1,11.7c1.9,4.3-0.1,9.3-4.4,11.2c-4.3,1.9-9.3-0.1-11.2-4.4
						l-5.1-11.7C96.2,135,98.2,130,102.5,128.1z"/>
					<path class="st5" d="M111.1,157.2c-1.2,0-2.4-0.2-3.5-0.7c-2.4-0.9-4.3-2.7-5.3-5.1l-5.1-11.7c-2.1-4.8,0.1-10.5,4.9-12.6
						c2.3-1,4.9-1.1,7.3-0.1c2.4,0.9,4.3,2.7,5.3,5.1l5.1,11.7c1,2.3,1.1,4.9,0.1,7.3c-0.9,2.4-2.7,4.3-5.1,5.3
						C113.7,156.9,112.4,157.2,111.1,157.2z M105.9,128.5c-1,0-2,0.2-3,0.6c-1.8,0.8-3.2,2.3-3.9,4.1c-0.7,1.9-0.7,3.9,0.1,5.7
						l5.1,11.7c1.6,3.8,6,5.5,9.8,3.8c1.8-0.8,3.2-2.3,3.9-4.1c0.7-1.9,0.7-3.9-0.1-5.7l-5.1-11.7
						C111.5,130.1,108.8,128.5,105.9,128.5z"/>
				</g>
				<g>
					<circle class="st5" cx="118.1" cy="97.8" r="13.5"/>
				</g>
				<g>
					<circle class="st5" cx="162.1" cy="82.2" r="13.5"/>
				</g>
				<g>
					<ellipse class="st5" cx="141.9" cy="86.4" rx="24.5" ry="18.4"/>
				</g>
				<g>
					<ellipse class="st5" cx="170.3" cy="86.4" rx="24.5" ry="18.4"/>
				</g>
				<g>
					<g>
						<ellipse class="st6" cx="191.3" cy="116.2" rx="11.4" ry="9.6"/>
						<path class="st5" d="M191.3,126.8c-6.9,0-12.5-4.8-12.5-10.7s5.6-10.7,12.5-10.7c6.9,0,12.5,4.8,12.5,10.7
							S198.1,126.8,191.3,126.8z M191.3,107.6c-5.7,0-10.3,3.8-10.3,8.6c0,4.7,4.6,8.6,10.3,8.6c5.7,0,10.3-3.8,10.3-8.6
							C201.6,111.4,197,107.6,191.3,107.6z"/>
					</g>
					<g>
						<path class="st6" d="M204.8,86.2c-2.5-1.3-5.7-0.1-7.1,2.6c0,0.1-0.1,0.1-0.1,0.2l0,0l-3.8,7.6v-8.5h0c0-0.1,0-0.1,0-0.2
							c0-3.1-2.3-5.5-5.2-5.5s-5.2,2.5-5.2,5.5c0,0.1,0,0.1,0,0.2h0v15.3h8.6l7.9,4l6.9-13.7l0,0c0-0.1,0.1-0.1,0.1-0.2
							C208.3,90.8,207.3,87.5,204.8,86.2z"/>
						<path class="st5" d="M200.4,108.8l-8.6-4.3h-9.4V87h0.1c0.4-3.2,3-5.7,6.2-5.7s5.8,2.5,6.2,5.7h0l0,0.7c0,0.1,0,0.1,0,0.2
							c0,0,0,0,0,0.1l0,0.1v4.1l2.3-4.5l0,0c0.8-1.2,1.9-2.1,3.2-2.6c1.6-0.6,3.3-0.5,4.8,0.2c1.5,0.8,2.6,2.1,3.1,3.7
							c0.4,1.4,0.3,2.8-0.1,4.1l0,0l-0.3,0.6c0,0.1-0.1,0.1-0.1,0.2c0,0,0,0,0,0.1l-0.1,0.1L200.4,108.8z M184.5,102.3h7.8l7.2,3.6
							l5.9-11.7l0,0l0.5-1c0,0,0-0.1,0.1-0.1l0,0c0.5-1.1,0.7-2.3,0.3-3.4c-0.3-1.1-1-2-2-2.4c-1-0.5-2.1-0.5-3.1-0.1
							c-1.1,0.4-2,1.2-2.5,2.3l0,0c0,0,0,0.1,0,0.1l-0.5,1l0,0l-5.3,10.6v-12h0l0-1.3c0-2.5-1.8-4.5-4.1-4.5s-4.1,2-4.1,4.5l0,0.2
							l0,1.1h0V102.3z"/>
					</g>
					<g>
						<path class="st6" d="M192.4,109.9c-2.3,1.1-3.3,4.1-2.1,6.6c1.2,2.6,4.1,3.8,6.4,2.7c0,0,0.1-0.1,0.1-0.1l0,0l7.8-3.2
							c4.4-3.7,0.9-10.5-4.3-9.4l-7.8,3.2l0,0C192.5,109.9,192.5,109.9,192.4,109.9z"/>
						<path class="st5" d="M194.9,120.8c-2.3,0-4.5-1.4-5.6-3.8c-1.3-2.8-0.5-6,1.8-7.6l0-0.1l1-0.4l7.9-3.3l0.1,0
							c2.8-0.6,5.6,0.7,6.9,3.4c1.4,2.7,0.7,5.8-1.7,7.9l-0.1,0.1l-8,3.3c0,0,0,0-0.1,0c-0.2,0.1-0.3,0.1-0.5,0.2l-0.4,0.1l0,0
							C195.9,120.7,195.4,120.8,194.9,120.8z M192.4,109.9l0.4,1c-1.8,0.8-2.5,3.2-1.6,5.2c0.9,2.1,3.2,3.1,5,2.2l0.1-0.1l1-0.5
							l0,0.1l6.7-2.8c1.8-1.7,1.7-3.8,1-5.2c-0.7-1.3-2.2-2.7-4.5-2.3l-6.7,2.8l0,0l-1.1,0.5L192.4,109.9L192.4,109.9z"/>
					</g>
					<g>
						<path class="st6" d="M189.3,103.2c-2.8,1.3-4.1,4.4-2.9,7c1.2,2.6,4.4,3.7,7.2,2.4c0.1,0,0.1-0.1,0.2-0.1l0,0l9.3-3.9
							c5.3-4.2,1.8-10.9-4.3-9.4l-9.3,3.9l0,0C189.4,103.1,189.3,103.1,189.3,103.2z"/>
						<path class="st5" d="M191.2,114.2c-2.4,0-4.7-1.3-5.7-3.5c-0.7-1.5-0.7-3.2-0.1-4.8c0.5-1.3,1.5-2.4,2.7-3.2l0-0.1l1-0.4
							l9.4-3.9c3.8-1,6.5,0.9,7.6,3.1c1.4,2.8,0.4,6-2.4,8.2l-0.1,0.1l-9.4,4c0,0-0.1,0-0.1,0c-0.2,0.1-0.4,0.2-0.6,0.2l-0.3,0.1
							l0,0C192.5,114,191.8,114.2,191.2,114.2z M189.7,104.1c-1.1,0.5-1.9,1.4-2.4,2.4c-0.4,1-0.4,2.2,0,3.1
							c0.9,2.1,3.5,2.9,5.8,1.9l0.1-0.1l1-0.5l0,0.1l8.2-3.4c2.3-1.9,2.4-4,1.7-5.5c-0.7-1.3-2.4-2.7-5.1-2l-9.2,3.9
							C189.8,104.1,189.8,104.1,189.7,104.1L189.7,104.1z"/>
					</g>
					<g>
						<path class="st6" d="M183.9,103.5c-2.4-0.9-5.2,0.6-6.2,3.3s0.2,5.6,2.6,6.4c0.1,0,0.1,0,0.2,0l0,0l7.8,3.2
							c5.7,0.4,8-6.9,3.5-9.7l-7.8-3.2l0,0C184,103.5,184,103.5,183.9,103.5z"/>
						<path class="st5" d="M188.8,117.5c-0.2,0-0.4,0-0.5,0l-0.2,0l-8-3.3c0,0-0.1,0-0.1,0c-0.2-0.1-0.3-0.1-0.5-0.2l-0.3-0.1l0,0
							c-2.4-1.4-3.5-4.5-2.5-7.5c0.6-1.5,1.6-2.8,3-3.5c1.1-0.6,2.4-0.8,3.6-0.6l0-0.1l1,0.4l7.9,3.2l0.1,0c2.4,1.5,3.5,4.5,2.5,7.2
							C194.1,115.8,191.7,117.5,188.8,117.5z M188.6,115.4c2.5,0.1,3.9-1.5,4.4-3c0.5-1.4,0.3-3.5-1.6-4.7l-7.7-3.2c0,0-0.1,0-0.1,0
							l0,0c-0.9-0.3-1.9-0.2-2.8,0.2c-0.9,0.5-1.6,1.3-2,2.4c-0.8,2.1,0.1,4.4,2,5.1l0.1,0l1,0.3l0,0.1L188.6,115.4z"/>
					</g>
				</g>
			</g>
		</g>
		<g>
			<g>
				<polygon class="st8" points="829.1,410.6 71,463.4 71,396.7 829.1,343.8 				"/>
			</g>
			<text transform="matrix(1 -6.972903e-02 0 1 116.3905 443.6202)" class="st6 st89 st90 st91">INCREÍBLE · FANTÁSTICA · APOTEÓSICA</text>
		</g>
		<g>
			<polygon class="st5" points="66,158 834.1,104.4 834.1,331.7 66,385.2 			"/>
			<path class="st6" d="M829.1,109.8V327L71,379.8V162.6L829.1,109.8 M839.1,99.1l-10.7,0.7L70.3,152.7l-9.3,0.6v9.3v217.2v10.7
				l10.7-0.7L829.8,337l9.3-0.6V327V109.8V99.1L839.1,99.1z"/>
		</g>
		<g>
			<text transform="matrix(1 -6.972903e-02 0 1 198.4897 326.7534)" class="st10 st89 st92">El hosting</text>
			<text transform="matrix(1 -6.972903e-02 0 1 204.4898 320.3351)" class="st5 st89 st92">El hosting</text>
			<text transform="matrix(1 -6.972903e-02 0 1 214.8816 312.3946)" class="st6 st89 st92">el hosting</text>
		</g>
		<g>
			<text transform="matrix(1 0 0 1 412.7881 711.7358)" class="st6 st93 st94">; )</text>
			<path class="st6" d="M376.8,853v-50.5h70.8c-24.8-1.5-40.6-5.3-53-14.5c-24.2-17.9-24.1-47.3-24.1-96.1V682
				c0-48.8,0-78.2,24.1-96.1c21-15.5,16.1-15.5,83.3-15.5c3.5,0,6.8,0,10.1,0c1.2-6.3,3-11.5,5.5-16c4.6-8.2,11.6-14.1,21.4-18.1
				c0.9-0.4,1.9-0.8,2.9-1.1c-1-0.4-2-0.7-2.9-1.1c-28.9-11.9-28.9-37-28.9-71.8c0-34.7,0-59.8,28.9-71.8c23-9.5,62.3-9.5,148.5-9.5
				c92.6,0,132.6,1,156.3,10.7c30,12.3,30,36.8,30,70.6c0,34.8,0,60-30.2,71.9c-1.4,0.6-2.9,1.1-4.5,1.6c1.7,0.5,3.2,1.1,4.7,1.7
				c30,12.3,30,36.8,30,70.6c0,34.8,0,60-30.2,71.9c-1.4,0.6-2.9,1.1-4.5,1.6c1.7,0.5,3.2,1.1,4.7,1.7c30,12.3,30,36.8,30,70.6
				c0,34.8,0,60-30.2,71.9c-6,2.3-13.2,4.1-22.3,5.5v20.8h-66.7v-17.1c-19.1,0.2-41.7,0.2-67.1,0.2c-23,0-43.5,0-61-0.2v17.1h-1.1
				v1.1H376.8z"/>
			<path class="st6" d="M591.2,531.9c19.6,0.4,43.4,0.4,72.2,0.4c31.5,0,57.2,0,78.3-0.4v6.8c-20.9-0.6-46.6-0.7-78.3-0.7
				c-28.8,0-52.6,0-72.2,0.4V531.9z M504.4,803.7c2.7,4.1,6.6,7.4,11.8,10.1h-11.8V803.7z M741.8,684.4c-20.9-0.6-46.6-0.7-78.3-0.7
				c-20.3,0-38.2,0-53.8,0.1c0-2,0-4,0-6c15.6,0.1,33.5,0.1,53.8,0.1c31.5,0,57.2,0,78.3-0.4V684.4z"/>
			<g>
				<g>
					<g>
						<g>
							<rect x="547" y="529.8" class="st10" width="44.3" height="19.3"/>
						</g>
						<g>
							<rect x="741.8" y="529.8" class="st10" width="44.3" height="19.3"/>
						</g>
						<g>
							<path class="st10" d="M836.2,462.2c0,67.6,0,67.6-172.7,67.6c-163.8,0-163.8,0-163.8-67.6s0-67.6,163.8-67.6
								C836.2,394.6,836.2,397.8,836.2,462.2z"/>
							<path class="st5" d="M663.4,532.2c-82.1,0-123.3,0-144.2-8.6c-22-9.1-22-27.7-22-61.4s0-52.3,22-61.4
								c20.9-8.6,62.1-8.6,144.2-8.6c89,0,130.3,0.9,152,9.8c23.1,9.5,23.1,27.5,23.1,60.2c0,33.8,0,52.4-23.1,61.4
								C793.4,532.2,750,532.2,663.4,532.2z M663.4,397c-81.5,0-122.3,0-142.4,8.3c-19,7.8-19,23.2-19,56.9s0,49.1,19,56.9
								c20,8.3,60.9,8.3,142.4,8.3c85.9,0,129.1,0,150.2-8.3c20.1-7.9,20.1-23.2,20.1-56.9c0-31.6,0-47.5-20.1-55.7
								C792.7,397.9,751.8,397,663.4,397z"/>
						</g>
						<g>
							<path class="st5" d="M794.9,506.2c-0.1-8.1-6.7-14.7-14.9-14.7s-14.8,6.6-14.9,14.7h0v21.2h29.8L794.9,506.2L794.9,506.2z"/>
						</g>
						<g>
							<path class="st5" d="M756.3,506.2c-0.1-8.1-6.7-14.7-14.9-14.7c-8.2,0-14.8,6.6-14.9,14.7h0v21.2h29.8L756.3,506.2
								L756.3,506.2z"/>
						</g>
						<g>
							<path class="st5" d="M717.6,506.2c-0.1-8.1-6.7-14.7-14.9-14.7c-8.2,0-14.8,6.6-14.9,14.7h0v21.2h29.8L717.6,506.2
								L717.6,506.2z"/>
						</g>
						<g>
							<path class="st5" d="M679,506.2c-0.1-8.1-6.7-14.7-14.9-14.7c-8.2,0-14.8,6.6-14.9,14.7h0v21.2H679L679,506.2L679,506.2z"/>
						</g>
						<g>
							<path class="st5" d="M640.3,506.2c-0.1-8.1-6.7-14.7-14.9-14.7c-8.2,0-14.8,6.6-14.9,14.7h0v21.2h29.8L640.3,506.2
								L640.3,506.2z"/>
						</g>
						<g>
							<path class="st5" d="M601.7,506.2c-0.1-8.1-6.7-14.7-14.9-14.7c-8.2,0-14.8,6.6-14.9,14.7h0v21.2h29.8L601.7,506.2
								L601.7,506.2z"/>
						</g>
						<g>
							<path class="st5" d="M563.1,506.2c-0.1-8.1-6.7-14.7-14.9-14.7s-14.8,6.6-14.9,14.7h0v21.2h29.8L563.1,506.2L563.1,506.2z"/>
						</g>
						<g>
							<g>
								<path class="st5" d="M805.4,465.4c0,4,0.2-5.6-140.9-5.6c-133.8,0-134,11.3-134,5.6c0-55.2,0-55.2,133.8-55.2
									C805.4,410.2,805.4,412.8,805.4,465.4z"/>
							</g>
							<g>
								<circle class="st9" cx="563.5" cy="436.9" r="6.8"/>
								<path class="st10" d="M563.5,446.1c-5.1,0-9.3-4.2-9.3-9.3c0-5.1,4.2-9.3,9.3-9.3c5.1,0,9.3,4.2,9.3,9.3
									C572.7,442,568.6,446.1,563.5,446.1z M563.5,432.4c-2.4,0-4.4,2-4.4,4.4s2,4.4,4.4,4.4c2.4,0,4.4-2,4.4-4.4
									S565.9,432.4,563.5,432.4z"/>
							</g>
							<g>
								<circle class="st9" cx="589.2" cy="436.9" r="6.8"/>
								<path class="st10" d="M589.2,446.1c-5.1,0-9.3-4.2-9.3-9.3c0-5.1,4.2-9.3,9.3-9.3s9.3,4.2,9.3,9.3
									C598.5,442,594.3,446.1,589.2,446.1z M589.2,432.4c-2.4,0-4.4,2-4.4,4.4s2,4.4,4.4,4.4c2.4,0,4.4-2,4.4-4.4
									S591.7,432.4,589.2,432.4z"/>
							</g>
							<g>
								<circle class="st9" cx="615" cy="436.9" r="6.8"/>
								<path class="st10" d="M615,446.1c-5.1,0-9.3-4.2-9.3-9.3c0-5.1,4.2-9.3,9.3-9.3s9.3,4.2,9.3,9.3
									C624.3,442,620.1,446.1,615,446.1z M615,432.4c-2.4,0-4.4,2-4.4,4.4s2,4.4,4.4,4.4s4.4-2,4.4-4.4S617.4,432.4,615,432.4z"/>
							</g>
							<g>
								<circle class="st9" cx="640.8" cy="436.9" r="6.8"/>
								<path class="st10" d="M640.8,446.1c-5.1,0-9.3-4.2-9.3-9.3c0-5.1,4.2-9.3,9.3-9.3s9.3,4.2,9.3,9.3
									C650,442,645.9,446.1,640.8,446.1z M640.8,432.4c-2.4,0-4.4,2-4.4,4.4s2,4.4,4.4,4.4c2.4,0,4.4-2,4.4-4.4
									S643.2,432.4,640.8,432.4z"/>
							</g>
						</g>
						<g>
							<rect x="685.4" y="428.4" class="st10" width="39.4" height="16.1"/>
						</g>
						<g>
							<rect x="736.9" y="428.4" class="st10" width="39.4" height="16.1"/>
						</g>
					</g>
					<g>
						<g>
							<rect x="547" y="675.6" class="st10" width="44.3" height="19.3"/>
						</g>
						<g>
							<rect x="741.8" y="675.6" class="st10" width="44.3" height="19.3"/>
						</g>
						<g>
							<path class="st10" d="M836.2,608c0,67.6,0,67.6-172.7,67.6c-163.8,0-163.8,0-163.8-67.6s0-67.6,163.8-67.6
								C836.2,540.4,836.2,543.6,836.2,608z"/>
							<path class="st5" d="M663.4,678c-82.1,0-123.3,0-144.2-8.6c-22-9.1-22-27.7-22-61.4s0-52.3,22-61.4
								c20.9-8.6,62.1-8.6,144.2-8.6c89,0,130.3,0.9,152,9.8c23.1,9.5,23.1,27.5,23.1,60.2c0,33.8,0,52.4-23.1,61.4
								C793.4,678,750,678,663.4,678z M663.4,542.8c-81.5,0-122.3,0-142.4,8.3c-19,7.8-19,23.2-19,56.9s0,49.1,19,56.9
								c20,8.3,60.9,8.3,142.4,8.3c85.9,0,129.1,0,150.2-8.3c20.1-7.9,20.1-23.2,20.1-56.9c0-31.6,0-47.5-20.1-55.7
								C792.7,543.7,751.8,542.8,663.4,542.8z"/>
						</g>
						<g>
							<path class="st5" d="M794.9,652c-0.1-8.1-6.7-14.7-14.9-14.7s-14.8,6.6-14.9,14.7h0v21.2h29.8L794.9,652L794.9,652z"/>
						</g>
						<g>
							<path class="st5" d="M756.3,652c-0.1-8.1-6.7-14.7-14.9-14.7c-8.2,0-14.8,6.6-14.9,14.7h0v21.2h29.8L756.3,652L756.3,652z"/>
						</g>
						<g>
							<path class="st5" d="M717.6,652c-0.1-8.1-6.7-14.7-14.9-14.7c-8.2,0-14.8,6.6-14.9,14.7h0v21.2h29.8L717.6,652L717.6,652z"/>
						</g>
						<g>
							<path class="st5" d="M679,652c-0.1-8.1-6.7-14.7-14.9-14.7c-8.2,0-14.8,6.6-14.9,14.7h0v21.2H679L679,652L679,652z"/>
						</g>
						<g>
							<path class="st5" d="M640.3,652c-0.1-8.1-6.7-14.7-14.9-14.7c-8.2,0-14.8,6.6-14.9,14.7h0v21.2h29.8L640.3,652L640.3,652z"/>
						</g>
						<g>
							<path class="st5" d="M601.7,652c-0.1-8.1-6.7-14.7-14.9-14.7c-8.2,0-14.8,6.6-14.9,14.7h0v21.2h29.8L601.7,652L601.7,652z"/>
						</g>
						<g>
							<path class="st5" d="M563.1,652c-0.1-8.1-6.7-14.7-14.9-14.7s-14.8,6.6-14.9,14.7h0v21.2h29.8L563.1,652L563.1,652z"/>
						</g>
						<g>
							<g>
								<path class="st5" d="M805.4,611.2c0,4,0.2-5.6-140.9-5.6c-133.8,0-134,11.3-134,5.6c0-55.2,0-55.2,133.8-55.2
									C805.4,555.9,805.4,558.6,805.4,611.2z"/>
							</g>
							<g>
								<circle class="st9" cx="563.5" cy="582.6" r="6.8"/>
								<path class="st10" d="M563.5,591.9c-5.1,0-9.3-4.2-9.3-9.3s4.2-9.3,9.3-9.3c5.1,0,9.3,4.2,9.3,9.3S568.6,591.9,563.5,591.9z
									 M563.5,578.2c-2.4,0-4.4,2-4.4,4.4c0,2.4,2,4.4,4.4,4.4c2.4,0,4.4-2,4.4-4.4C567.9,580.2,565.9,578.2,563.5,578.2z"/>
							</g>
							<g>
								<circle class="st9" cx="589.2" cy="582.6" r="6.8"/>
								<path class="st10" d="M589.2,591.9c-5.1,0-9.3-4.2-9.3-9.3s4.2-9.3,9.3-9.3s9.3,4.2,9.3,9.3S594.3,591.9,589.2,591.9z
									 M589.2,578.2c-2.4,0-4.4,2-4.4,4.4c0,2.4,2,4.4,4.4,4.4c2.4,0,4.4-2,4.4-4.4C593.7,580.2,591.7,578.2,589.2,578.2z"/>
							</g>
							<g>
								<circle class="st9" cx="615" cy="582.6" r="6.8"/>
								<path class="st10" d="M615,591.9c-5.1,0-9.3-4.2-9.3-9.3s4.2-9.3,9.3-9.3s9.3,4.2,9.3,9.3S620.1,591.9,615,591.9z
									 M615,578.2c-2.4,0-4.4,2-4.4,4.4c0,2.4,2,4.4,4.4,4.4s4.4-2,4.4-4.4C619.4,580.2,617.4,578.2,615,578.2z"/>
							</g>
							<g>
								<circle class="st9" cx="640.8" cy="582.6" r="6.8"/>
								<path class="st10" d="M640.8,591.9c-5.1,0-9.3-4.2-9.3-9.3s4.2-9.3,9.3-9.3s9.3,4.2,9.3,9.3S645.9,591.9,640.8,591.9z
									 M640.8,578.2c-2.4,0-4.4,2-4.4,4.4c0,2.4,2,4.4,4.4,4.4c2.4,0,4.4-2,4.4-4.4C645.2,580.2,643.2,578.2,640.8,578.2z"/>
							</g>
						</g>
						<g>
							<rect x="685.4" y="574.2" class="st10" width="39.4" height="16.1"/>
						</g>
						<g>
							<rect x="736.9" y="574.2" class="st10" width="39.4" height="16.1"/>
						</g>
					</g>
					<g>
						<g>
							<rect x="547" y="821.3" class="st10" width="44.3" height="19.3"/>
						</g>
						<g>
							<rect x="741.8" y="821.3" class="st10" width="44.3" height="19.3"/>
						</g>
						<g>
							<path class="st10" d="M836.2,753.7c0,67.6,0,67.6-172.7,67.6c-163.8,0-163.8,0-163.8-67.6s0-67.6,163.8-67.6
								C836.2,686.1,836.2,689.3,836.2,753.7z"/>
							<path class="st5" d="M663.4,823.8c-82.1,0-123.3,0-144.2-8.6c-22-9.1-22-27.7-22-61.4s0-52.3,22-61.4
								c20.9-8.6,62.1-8.6,144.2-8.6c89,0,130.3,0.9,152,9.8c23.1,9.5,23.1,27.5,23.1,60.2c0,33.8,0,52.4-23.1,61.4
								C793.4,823.8,750,823.8,663.4,823.8z M663.4,688.5c-81.5,0-122.3,0-142.4,8.3c-19,7.8-19,23.2-19,56.9s0,49.1,19,56.9
								c20,8.3,60.9,8.3,142.4,8.3c85.9,0,129.1,0,150.2-8.3c20.1-7.9,20.1-23.2,20.1-56.9c0-31.6,0-47.5-20.1-55.7
								C792.7,689.4,751.8,688.5,663.4,688.5z"/>
						</g>
						<g>
							<path class="st5" d="M794.9,797.7c-0.1-8.1-6.7-14.7-14.9-14.7s-14.8,6.6-14.9,14.7h0v21.2h29.8L794.9,797.7L794.9,797.7z"/>
						</g>
						<g>
							<path class="st5" d="M756.3,797.7c-0.1-8.1-6.7-14.7-14.9-14.7c-8.2,0-14.8,6.6-14.9,14.7h0v21.2h29.8L756.3,797.7
								L756.3,797.7z"/>
						</g>
						<g>
							<path class="st5" d="M717.6,797.7c-0.1-8.1-6.7-14.7-14.9-14.7c-8.2,0-14.8,6.6-14.9,14.7h0v21.2h29.8L717.6,797.7
								L717.6,797.7z"/>
						</g>
						<g>
							<path class="st5" d="M679,797.7c-0.1-8.1-6.7-14.7-14.9-14.7c-8.2,0-14.8,6.6-14.9,14.7h0v21.2H679L679,797.7L679,797.7z"/>
						</g>
						<g>
							<path class="st5" d="M640.3,797.7c-0.1-8.1-6.7-14.7-14.9-14.7c-8.2,0-14.8,6.6-14.9,14.7h0v21.2h29.8L640.3,797.7
								L640.3,797.7z"/>
						</g>
						<g>
							<path class="st5" d="M601.7,797.7c-0.1-8.1-6.7-14.7-14.9-14.7c-8.2,0-14.8,6.6-14.9,14.7h0v21.2h29.8L601.7,797.7
								L601.7,797.7z"/>
						</g>
						<g>
							<path class="st5" d="M563.1,797.7c-0.1-8.1-6.7-14.7-14.9-14.7s-14.8,6.6-14.9,14.7h0v21.2h29.8L563.1,797.7L563.1,797.7z"/>
						</g>
						<g>
							<g>
								<path class="st5" d="M805.4,756.9c0,4,0.2-5.6-140.9-5.6c-133.8,0-134,11.3-134,5.6c0-55.2,0-55.2,133.8-55.2
									C805.4,701.7,805.4,704.3,805.4,756.9z"/>
							</g>
							<g>
								<circle class="st9" cx="563.5" cy="728.4" r="6.8"/>
								<path class="st10" d="M563.5,737.6c-5.1,0-9.3-4.2-9.3-9.3s4.2-9.3,9.3-9.3c5.1,0,9.3,4.2,9.3,9.3S568.6,737.6,563.5,737.6z
									 M563.5,723.9c-2.4,0-4.4,2-4.4,4.4c0,2.4,2,4.4,4.4,4.4c2.4,0,4.4-2,4.4-4.4C567.9,725.9,565.9,723.9,563.5,723.9z"/>
							</g>
							<g>
								<circle class="st9" cx="589.2" cy="728.4" r="6.8"/>
								<path class="st10" d="M589.2,737.6c-5.1,0-9.3-4.2-9.3-9.3s4.2-9.3,9.3-9.3s9.3,4.2,9.3,9.3S594.3,737.6,589.2,737.6z
									 M589.2,723.9c-2.4,0-4.4,2-4.4,4.4c0,2.4,2,4.4,4.4,4.4c2.4,0,4.4-2,4.4-4.4C593.7,725.9,591.7,723.9,589.2,723.9z"/>
							</g>
							<g>
								<circle class="st9" cx="615" cy="728.4" r="6.8"/>
								<path class="st10" d="M615,737.6c-5.1,0-9.3-4.2-9.3-9.3s4.2-9.3,9.3-9.3s9.3,4.2,9.3,9.3S620.1,737.6,615,737.6z
									 M615,723.9c-2.4,0-4.4,2-4.4,4.4c0,2.4,2,4.4,4.4,4.4s4.4-2,4.4-4.4C619.4,725.9,617.4,723.9,615,723.9z"/>
							</g>
							<g>
								<circle class="st9" cx="640.8" cy="728.4" r="6.8"/>
								<path class="st10" d="M640.8,737.6c-5.1,0-9.3-4.2-9.3-9.3s4.2-9.3,9.3-9.3s9.3,4.2,9.3,9.3S645.9,737.6,640.8,737.6z
									 M640.8,723.9c-2.4,0-4.4,2-4.4,4.4c0,2.4,2,4.4,4.4,4.4c2.4,0,4.4-2,4.4-4.4C645.2,725.9,643.2,723.9,640.8,723.9z"/>
							</g>
						</g>
						<g>
							<rect x="685.4" y="719.9" class="st10" width="39.4" height="16.1"/>
						</g>
						<g>
							<rect x="736.9" y="719.9" class="st10" width="39.4" height="16.1"/>
						</g>
					</g>
				</g>
				<g>
					<path class="st4" d="M516.2,788.7c-64.6,0-94.1,0-112.2-13.4c-19.6-14.5-19.6-40.3-19.6-87.1v-9.9c0-46.8,0-72.6,19.6-87.1
						c18-13.4,47.5-13.4,112.2-13.4c64.7,0,94.3,0,112.4,14.1c19.4,15.1,19.4,40.6,19.4,91.2s0,76.1-19.4,91.2
						C610.4,788.7,580.9,788.7,516.2,788.7z"/>
					<ellipse class="st44" cx="516.2" cy="683.4" rx="120.5" ry="94.2"/>
				</g>
				<rect x="476.5" y="788.8" class="st4" width="66.2" height="21.3"/>
				<rect x="390.8" y="810.1" class="st4" width="237.7" height="28"/>
				<text transform="matrix(1 0 0 1 451.0586 708.0908)" class="st6 st93 st94">; )</text>
			</g>
		</g>
		<rect x="91.9" y="515.9" class="st49" width="273.6" height="368.3"/>
		<text transform="matrix(1 0 0 1 91.9229 538.9648)"><tspan x="0" y="0" class="st89 st95">Contrata un hosting (de </tspan><tspan x="0" y="33.6" class="st89 st95">pago).</tspan><tspan x="66.2" y="33.6" class="st96 st95"> Donde tenga aloja</tspan><tspan x="260.2" y="33.6" class="st96 st95">-</tspan><tspan x="0" y="67.2" class="st96 st95">da tu web es otro factor </tspan><tspan x="0" y="100.8" class="st96 st95">determinante para fa</tspan><tspan x="224.2" y="100.8" class="st96 st95">-</tspan><tspan x="0" y="134.4" class="st96 st95">vorecer la velocidad de </tspan><tspan x="0" y="168" class="st96 st95">tu sitio, la escalabilidad y </tspan><tspan x="0" y="201.6" class="st96 st95">la solución de problemas </tspan><tspan x="0" y="235.2" class="st96 st95">técnicos que puedan </tspan><tspan x="0" y="268.8" class="st96 st95">surgir. Elige uno que </tspan><tspan x="0" y="302.4" class="st96 st95">tenga buen servicio al </tspan><tspan x="0" y="336" class="st96 st95">cliente.</tspan></text>
		<g>
			<g>
				<path class="st5" d="M226,499.4c-6.7,0-12-5.3-12-12v-15.8c0-8.9,4-17.2,11.1-22.8l2.8-2.2c2.4-1.8,5.2-3.5,8.6-3.5
					c6.7,0,12.4,5.6,12.4,12.2c0,3.9-1.7,7.3-4.8,9.7l-2.4,1.9c-0.1,0.1-0.3,0.2-0.5,0.4l0.9,0.5c4.5,2.4,7.3,5.1,7.3,11.3v8.5
					c0,6.7-5.3,12-12,12H226z M188.6,499.4c-6.7,0-12-5.3-12-12v-15.8c0-8.9,4-17.2,11.1-22.8l2.8-2.2c2.4-1.8,5.2-3.5,8.6-3.5
					c6.7,0,12.4,5.6,12.4,12.2c0,3.9-1.7,7.3-4.8,9.7l-2.5,1.9c-0.1,0.1-0.3,0.2-0.4,0.4l0.9,0.5c4.5,2.4,7.3,5.1,7.3,11.3v8.5
					c0,6.7-5.3,12-12,12H188.6z"/>
				<path class="st6" d="M236.4,448c3.8,0,7.4,3.2,7.4,7.2c0,1.8-0.5,4-2.9,5.8l-2.5,2c-2,1.6-3.2,2.7-3.2,4.9
					c0,1.8,1.3,2.7,3.4,3.8l1.1,0.5c3.4,1.8,4.7,3.1,4.7,6.8v8.5c0,4-3.1,7-7,7H226c-4,0-7-3.1-7-7v-15.8c0-8.1,4-14.8,9.2-18.9
					l2.7-2.2C233,448.9,234.6,448,236.4,448 M199,448c3.8,0,7.4,3.2,7.4,7.2c0,1.8-0.5,4-2.9,5.8l-2.5,2c-2,1.6-3.2,2.7-3.2,4.9
					c0,1.8,1.3,2.7,3.4,3.8l1.1,0.5c3.4,1.8,4.7,3.1,4.7,6.8v8.5c0,4-3.1,7-7,7h-11.3c-4,0-7-3.1-7-7v-15.8c0-8.1,4-14.8,9.2-18.9
					l2.7-2.2C195.6,448.9,197.2,448,199,448 M236.4,438c-4.9,0-8.6,2.3-11.6,4.5l-0.1,0.1l-0.1,0.1l-2.7,2.2
					c-2.3,1.8-4.3,3.9-6.1,6.2c-1.9-7.4-8.9-13.1-16.8-13.1c-4.9,0-8.6,2.3-11.6,4.5l-0.1,0.1l-0.1,0.1l-2.7,2.2
					c-8.2,6.5-12.9,16.2-12.9,26.7v15.8c0,9.5,7.5,17,17,17h11.3c5.3,0,9.9-2.3,13-6c3.1,3.7,7.8,6,13,6h11.3c9.5,0,17-7.5,17-17
					v-8.5c0-5.9-2.1-9.7-4.9-12.2c2.9-3.1,4.4-7.1,4.4-11.5C253.8,445.9,245.8,438,236.4,438L236.4,438z"/>
			</g>
		</g>
		<g>
			<text transform="matrix(0.9762 -7.598437e-02 2.250000e-03 1 268.6141 135.8318)" class="st5 st89 st97">webconsejos</text>
			<g>
				<g>
					<path class="st10" d="M673,90.5c0.9,2.4,2.4,3.5,4.8,3.3c1.4-0.1,1.8-0.3,4.9-2.1c0.4-0.2,0.9-0.4,1.3-0.4
						c1.2-0.1,2.4,1,2.4,2.3c0,2.5-4.4,5.2-9,5.6c-6.4,0.5-10.9-3.6-10.9-9.9c0-6.6,4.4-11.7,10.3-12.2c5.6-0.4,10,3.9,10,9.9
						c0,1.7-0.8,2.5-2.6,2.6L673,90.5z M680.9,85.7c-0.3-1.2-0.5-1.6-0.9-2.2c-0.7-1-1.8-1.5-3.1-1.4c-2,0.2-3.3,1.4-4.2,4.2
						L680.9,85.7z"/>
					<path class="st10" d="M695.5,77.5c1.8-1.5,3.1-2,4.9-2.2c5.2-0.4,9.3,4.1,9.4,10.3c0,6.3-4,11.4-9.3,11.9c-2.2,0.2-3.7-0.4-5-2
						c-0.7,1.6-1.5,2.4-2.8,2.5c-1.8,0.1-3.1-1.1-3.1-3l-0.1-23.7c0-1.5,0-1.9,0.4-2.6c0.4-1,1.5-1.7,2.6-1.8
						c1.1-0.1,2.1,0.5,2.6,1.4c0.4,0.7,0.4,1,0.4,2.5L695.5,77.5z M695.5,86.7c0,3.1,1.8,5.2,4.2,5.1c2.3-0.2,4.1-2.6,4.1-5.7
						c0-3-1.8-5.2-4.1-5C697.3,81.3,695.5,83.7,695.5,86.7z"/>
					<path class="st10" d="M712.3,78.1c0-2.2,1.2-3.7,3.1-3.9c1.4-0.1,2.2,0.5,2.8,1.9c1.8-1.8,3.2-2.5,5.5-2.7
						c2.1-0.2,3.8,0.3,5.2,1.4c1.6,1.3,2.2,2.8,2.2,5.8l0,10.1c0,1.5,0,1.9-0.4,2.6c-0.4,1-1.5,1.7-2.6,1.8
						c-1.1,0.1-2.2-0.5-2.6-1.4c-0.4-0.7-0.4-1-0.4-2.5l0-8.7c0-2.4-1.3-3.8-3.4-3.6c-1.9,0.1-3.4,1.9-3.4,3.9l0,8.9
						c0,1.5,0,1.9-0.4,2.6c-0.4,1-1.5,1.7-2.6,1.8c-1.1,0.1-2.2-0.5-2.6-1.4c-0.4-0.7-0.4-1-0.4-2.5L712.3,78.1z"/>
					<path class="st10" d="M735.3,76.8c0-1.5,0-1.9,0.4-2.6c0.4-1,1.5-1.7,2.6-1.8c1.1-0.1,2.1,0.5,2.6,1.4c0.4,0.7,0.4,1,0.4,2.5
						l0,13.7c0,1.5,0,1.9-0.4,2.6c-0.4,1-1.5,1.7-2.6,1.8c-1.1,0.1-2.2-0.5-2.6-1.4c-0.4-0.7-0.4-1-0.4-2.5L735.3,76.8z M744.7,66.2
						c0-1.4-1.2-2.5-2.8-2.6v0l-0.1,0c-0.2,0-0.4,0-0.5,0c-0.2,0-0.4,0-0.6,0.1l-4.8,0.4c-0.2,0-0.4,0-0.5,0c-2,0.2-3.6,1.6-3.6,3.2
						c0,1.6,1.6,2.8,3.5,2.7c0,0,0.1,0,0.1,0l6.5-0.6C743.6,68.9,744.7,67.6,744.7,66.2z"/>
					<path class="st10" d="M760.1,74.9c0,1.4-1.1,2.8-2.3,2.9c-0.7,0.1-0.7,0.1-2.5-0.6c-0.9-0.4-1.7-0.5-2.3-0.5
						c-1,0.1-1.6,0.5-1.6,1.2c0,0.8,0.3,1,3.2,1.9c2.7,0.9,3.5,1.3,4.6,2.3c0.9,1,1.5,2.2,1.5,3.7c0,4.1-3.2,7.1-7.9,7.5
						c-4.1,0.3-7.7-1.5-7.7-3.9c0-1.4,1.2-2.9,2.5-3c0.7-0.1,0.7-0.1,3.1,0.9c1,0.4,1.8,0.5,2.4,0.5c1-0.1,1.8-0.8,1.8-1.6
						c0-0.7-0.5-1.1-2.3-1.6c-3-0.9-3.8-1.3-4.8-1.9c-1.4-0.9-2.1-2.3-2.1-4.3c0-3.8,3.3-6.9,7.7-7.3
						C756.9,70.9,760.1,72.6,760.1,74.9z"/>
					<path class="st10" d="M770.5,64.3c0,2-1.5,3.7-3.5,3.9c-2,0.2-3.5-1.3-3.5-3.3c0-2,1.6-3.7,3.6-3.8
						C769,60.9,770.5,62.4,770.5,64.3z M764,74.6c0-1.5,0-1.9,0.4-2.6c0.4-1,1.5-1.7,2.6-1.8c1.1-0.1,2.1,0.5,2.6,1.4
						c0.4,0.7,0.4,1,0.4,2.5l0,13.7c0,1.5,0,1.9-0.4,2.6c-0.4,1-1.5,1.7-2.6,1.8c-1.1,0.1-2.2-0.5-2.6-1.4c-0.4-0.7-0.4-1-0.4-2.5
						L764,74.6z"/>
					<path class="st10" d="M774.3,73.2c0-2.1,1.2-3.7,3-3.8c1.2-0.1,1.8,0.3,2.9,1.8c1.7-1.7,3.1-2.4,5.3-2.6c1.5-0.1,3,0.1,4.1,0.7
						c0.6,0.3,1,0.6,1.7,1.5c2.4-2.2,4-3,6.3-3.2c4.2-0.3,7.2,2.5,7.3,6.6l0,10.8c0,1.5,0,1.9-0.4,2.6c-0.4,1-1.5,1.7-2.6,1.8
						c-1.1,0.1-2.2-0.5-2.6-1.4c-0.4-0.7-0.4-1-0.4-2.5l0-9.4c0-1.9-1.2-3.1-3.1-3s-3.1,1.5-3.1,3.4l0,9.4c0,1.5,0,1.9-0.4,2.6
						c-0.4,1-1.5,1.7-2.6,1.8c-1.1,0.1-2.2-0.5-2.6-1.4c-0.4-0.7-0.4-1-0.4-2.5l0-8.8c0-2.4-1.2-3.7-3.1-3.5
						c-1.8,0.1-3.1,1.6-3.1,3.4l0,9.4c0,1.5,0,1.9-0.4,2.6c-0.4,1-1.5,1.7-2.6,1.8c-1.1,0.1-2.2-0.5-2.6-1.4c-0.4-0.7-0.4-1-0.4-2.5
						L774.3,73.2z"/>
					<path class="st10" d="M828,83.7c0,2.2-1.2,3.7-3,3.9c-1.4,0.1-2.4-0.6-3-2.2c-1.5,2-2.7,2.8-4.9,2.9c-2.2,0.2-4.2-0.5-5.9-1.9
						c-2.4-2-3.6-4.8-3.6-8.5c0-3.4,1-6,3.1-8.4c1.8-2,3.9-3.1,6.3-3.3c2.1-0.2,3.4,0.4,5.1,2c0.7-1.7,1.5-2.4,3-2.5
						c1.7-0.1,3,1.2,3,2.9L828,83.7z M813.5,77.5c0,3.2,1.6,5.2,4.2,5.1c2.5-0.2,4.1-2.5,4.1-5.7c0-3.1-1.7-5.2-4.2-5
						C815.1,72.1,813.5,74.4,813.5,77.5z"/>
				</g>
				<g>
					<path class="st5" d="M663.6,79.6c-0.4-0.7-1.1-1.2-1.9-1.3c-0.2,0-0.5-0.1-0.7,0c-0.2,0-0.5,0.1-0.7,0.1
						c-0.8,0.3-1.6,0.9-1.9,1.6c-0.3,0.5-0.3,0.9-0.4,1.5c0,0.3,0,10.8,0,10.8c0,1-0.3,1.5-0.6,1.9c-0.4,0.4-0.9,0.6-1.4,0.7
						c-0.6,0-1.1-0.2-1.5-0.6c-0.3-0.4-0.6-0.8-0.6-1.7l0-10.1l0,0c0-1.2-0.1-1.6-0.4-2.2c-0.4-0.7-1.1-1.2-1.9-1.3
						c-0.2,0-0.5-0.1-0.7,0c-0.2,0-0.5,0.1-0.7,0.1c-0.8,0.3-1.6,0.9-1.9,1.6c-0.3,0.5-0.3,0.9-0.4,1.5c0,0.2,0,0.8,0,0.8l0,10
						c0,1-0.3,1.5-0.6,1.9c-0.4,0.4-0.9,0.6-1.4,0.7c-0.6,0-1.1-0.2-1.5-0.6c-0.3-0.4-0.6-0.8-0.6-1.7l-0.1-9.7c0-1.5,0-1.8-0.4-2.5
						c-0.4-0.7-1.1-1.2-1.9-1.3c-0.2,0-0.5-0.1-0.7,0c-0.2,0-0.5,0.1-0.7,0.1c-0.8,0.3-1.6,0.9-1.9,1.6c-0.3,0.5-0.3,0.9-0.4,1.5
						c0,0.3,0,11,0,11c0,3,1,4.8,2.7,6c1.5,1.1,3.4,1.6,5.2,1.4c1.6-0.1,2.9-0.5,4-1.3l0.5-0.4c0.3-0.2,0.6-0.4,0.8-0.4
						c0.3,0,0.5,0.1,0.8,0.2l0.6,0.3c1.1,0.6,2.5,0.8,4,0.6c1.9-0.1,3.6-0.9,5.1-2.2c1.7-1.5,2.7-3.4,2.7-6.4l0-9.9
						C664,80.6,663.9,80.3,663.6,79.6z"/>
					<g>
						<g>
							<path class="st9" d="M650.8,72.2c-6,0.6-11,0.1-11-1c0-0.4,0.7-0.7,1.7-1.2c4.4-2,6.7-2.6,10.8-2.6c2.9,0,6.2-0.2,8.5,1.1
								c0.6,0.2,0.9,0.4,0.9,0.7C661.7,70.2,656.8,71.6,650.8,72.2z M667.1,68.8c-0.1-2.8-5.1-4.3-16.4-3.3
								c-10.7,1-16.3,3.5-16.3,6.3c0.1,4.3,7.4,5.9,16.5,5C659.9,76,667.1,73.1,667.1,68.8z"/>
						</g>
					</g>
				</g>
			</g>
		</g>
	</g>
	<g>
		<defs>
			<rect id="SVGID_00000083768197009268063100000004071530567972810889_" x="-15.1" y="-14" width="930.6" height="930.6"/>
		</defs>
		<clipPath id="SVGID_00000080187493504473659630000015451172794722884481_">
			<use xlink:href="#SVGID_00000083768197009268063100000004071530567972810889_"  style="overflow:visible;"/>
		</clipPath>
		<g style="opacity:0.24;clip-path:url(#SVGID_00000080187493504473659630000015451172794722884481_);">
			
				<image style="overflow:visible;" width="872" height="872" xlink:href="240F242C1E0B35F1.png"  transform="matrix(1.2849 0 0 1.2849 -73.5 -103)">
			</image>
		</g>
	</g>
</g>
<g id="halftone">
</g>
</svg>
