<?xml version="1.0" encoding="utf-8"?>
<!-- Generator: Adobe Illustrator 27.3.1, SVG Export Plug-In . SVG Version: 6.00 Build 0)  -->
<svg version="1.1" xmlns="http://www.w3.org/2000/svg" xmlns:xlink="http://www.w3.org/1999/xlink" x="0px" y="0px"
	 viewBox="0 0 900 900" style="enable-background:new 0 0 900 900;" xml:space="preserve">
<style type="text/css">
	.st0{display:none;}
	.st1{display:inline;opacity:0.28;}
	.st2{fill:none;stroke:#000000;stroke-width:0.75;stroke-miterlimit:10;}
	.st3{fill:none;stroke:#000000;stroke-width:4;stroke-linecap:round;stroke-linejoin:round;stroke-miterlimit:10;}
	.st4{fill:#FCCF72;stroke:#1A2276;stroke-width:6;stroke-miterlimit:10;}
	.st5{fill:#1A2276;}
	.st6{fill:#EBEAD8;}
	.st7{fill:#ED8376;stroke:#E90302;stroke-width:17;stroke-linecap:round;stroke-linejoin:round;stroke-miterlimit:10;}
	.st8{fill:#E90302;}
	.st9{fill:#FCCF72;}
	.st10{fill:#8288A8;}
	.st11{fill:#EBEAD8;stroke:#1A2276;stroke-width:6;stroke-miterlimit:10;}
	.st12{fill:none;stroke:#1A2276;stroke-width:6;stroke-miterlimit:10;}
	.st13{fill:#E90302;stroke:#1A2276;stroke-width:6;stroke-miterlimit:10;}
	.st14{fill:#EBBFAF;}
	
		.st15{clip-path:url(#SVGID_00000073709752081575340720000007998931104772718263_);fill:#FCCF72;stroke:#1A2276;stroke-width:6;stroke-miterlimit:10;}
	
		.st16{clip-path:url(#SVGID_00000084500176559167995720000014890750439403642506_);fill:#FCCF72;stroke:#1A2276;stroke-width:6;stroke-miterlimit:10;}
	
		.st17{clip-path:url(#SVGID_00000015326706632682265760000002860553629223418772_);fill:#FCCF72;stroke:#1A2276;stroke-width:6;stroke-miterlimit:10;}
	
		.st18{clip-path:url(#SVGID_00000054227493553029894300000012207386876786851770_);fill:#FCCF72;stroke:#1A2276;stroke-width:6;stroke-miterlimit:10;}
	
		.st19{clip-path:url(#SVGID_00000062155279256439523890000008779060717018808744_);fill:#FCCF72;stroke:#1A2276;stroke-width:6;stroke-miterlimit:10;}
	.st20{fill:#FFFFFF;}
	
		.st21{clip-path:url(#SVGID_00000024719878276699220450000000016567538875678908_);fill:#FCCF72;stroke:#1A2276;stroke-width:6;stroke-miterlimit:10;}
	.st22{fill:none;stroke:#1A2276;stroke-width:6;stroke-linecap:round;stroke-miterlimit:10;}
	
		.st23{clip-path:url(#SVGID_00000032617734468934297340000014948899624625692577_);fill:#FCCF72;stroke:#1A2276;stroke-width:6;stroke-miterlimit:10;}
	
		.st24{clip-path:url(#SVGID_00000178176514601891735230000017378307307708769921_);fill:#FCCF72;stroke:#1A2276;stroke-width:6;stroke-miterlimit:10;}
	
		.st25{clip-path:url(#SVGID_00000060026855871303307380000001338176661085570190_);fill:#FCCF72;stroke:#1A2276;stroke-width:6;stroke-miterlimit:10;}
	
		.st26{clip-path:url(#SVGID_00000070107035413320946180000007460938373989567928_);fill:#FCCF72;stroke:#1A2276;stroke-width:6;stroke-miterlimit:10;}
	
		.st27{clip-path:url(#SVGID_00000155854062593937150570000009105461376424828039_);fill:#FCCF72;stroke:#1A2276;stroke-width:6;stroke-miterlimit:10;}
	
		.st28{clip-path:url(#SVGID_00000096771990611260325710000014102235272992046223_);fill:#FCCF72;stroke:#1A2276;stroke-width:6;stroke-miterlimit:10;}
	.st29{fill:none;stroke:#000000;stroke-width:4;stroke-miterlimit:10;}
	.st30{fill:#FCCF72;stroke:#000000;stroke-width:4;stroke-miterlimit:10;}
	.st31{fill:none;stroke:#000000;stroke-width:5;stroke-linecap:round;stroke-miterlimit:10;}
	
		.st32{clip-path:url(#SVGID_00000008850011143527882740000010072927004375868802_);fill:#FCCF72;stroke:#1A2276;stroke-width:6;stroke-miterlimit:10;}
	
		.st33{clip-path:url(#SVGID_00000179645508986157258690000005166846925078592934_);fill:#FCCF72;stroke:#1A2276;stroke-width:6;stroke-miterlimit:10;}
	
		.st34{clip-path:url(#SVGID_00000139276635895343855440000010716123869228672928_);fill:#FCCF72;stroke:#1A2276;stroke-width:6;stroke-miterlimit:10;}
	
		.st35{clip-path:url(#SVGID_00000096041805994176244850000003683464438683610244_);fill:#FCCF72;stroke:#1A2276;stroke-width:6;stroke-miterlimit:10;}
	.st36{fill:#E90302;stroke:#EBBFAF;stroke-width:6;stroke-miterlimit:10;}
	.st37{clip-path:url(#SVGID_00000114772265279199376900000007582445331141448616_);fill:#FCCF72;}
	.st38{clip-path:url(#SVGID_00000114772265279199376900000007582445331141448616_);fill:#1A2276;}
	.st39{clip-path:url(#SVGID_00000111164829459469242550000003824606039363716513_);fill:#8288A8;}
	.st40{fill:#020202;}
	.st41{clip-path:url(#SVGID_00000060750613941838992460000009604877001753554305_);}
	.st42{fill:#EBEAD8;stroke:#1A2276;stroke-width:3;stroke-miterlimit:10;}
	.st43{fill:#8288A8;stroke:#8288A8;stroke-miterlimit:10;}
	.st44{font-family:'Aptly-Bold';}
	.st45{font-size:40.1137px;}
	.st46{letter-spacing:4;}
	.st47{font-size:122.4095px;}
	.st48{fill:#1A2276;stroke:#FCCF72;stroke-width:6;stroke-miterlimit:10;}
	.st49{fill:none;stroke:#EBEAD8;stroke-width:6;stroke-miterlimit:10;}
	.st50{fill:#8288A8;stroke:#1A2276;stroke-width:6;stroke-miterlimit:10;}
	.st51{fill:#FCCF72;stroke:#8288A8;stroke-width:6;stroke-miterlimit:10;}
	.st52{clip-path:url(#SVGID_00000141431106418116990320000009754959891501829512_);}
	.st53{fill:none;}
	.st54{fill:#ED8376;}
	.st55{fill:url(#);}
	.st56{fill:#1A2276;stroke:url(#);stroke-miterlimit:10;}
	.st57{fill:#ED8376;stroke:#E90302;stroke-width:6;stroke-linecap:round;stroke-linejoin:round;stroke-miterlimit:10;}
	.st58{fill:none;stroke:#E90302;stroke-width:6;stroke-linecap:round;stroke-linejoin:round;stroke-miterlimit:10;}
	.st59{fill:none;stroke:#E90302;stroke-width:5;stroke-linecap:round;stroke-linejoin:round;stroke-miterlimit:10;}
	.st60{fill:#FFFFFF;stroke:#000000;stroke-width:6;stroke-miterlimit:10;}
	.st61{fill:#FFFDFD;stroke:#1A2276;stroke-width:7;stroke-miterlimit:10;}
	
		.st62{clip-path:url(#SVGID_00000173883315914810974220000008460465535252614544_);fill:#FCCF72;stroke:#1A2276;stroke-width:6;stroke-miterlimit:10;}
	
		.st63{clip-path:url(#SVGID_00000156579324379606731800000008382912436155536520_);fill:#FCCF72;stroke:#1A2276;stroke-width:6;stroke-miterlimit:10;}
	.st64{fill:none;stroke:#E90302;stroke-width:6;stroke-linecap:round;stroke-miterlimit:10;}
	
		.st65{clip-path:url(#SVGID_00000132785824875225414060000015566412870533623485_);fill:#FCCF72;stroke:#1A2276;stroke-width:6;stroke-miterlimit:10;}
	
		.st66{clip-path:url(#SVGID_00000093173904869422558070000016182906074959507840_);fill:#FCCF72;stroke:#1A2276;stroke-width:6;stroke-miterlimit:10;}
	
		.st67{clip-path:url(#SVGID_00000025417548815607224400000010638920517076264365_);fill:#FCCF72;stroke:#1A2276;stroke-width:6;stroke-miterlimit:10;}
	.st68{fill:none;stroke:#1A2276;stroke-width:7;stroke-miterlimit:10;}
	
		.st69{clip-path:url(#SVGID_00000165936783058969323600000017029886365463125922_);fill:#FCCF72;stroke:#1A2276;stroke-width:6;stroke-miterlimit:10;}
	.st70{clip-path:url(#SVGID_00000157300142530582742500000014325754479707917489_);}
	
		.st71{clip-path:url(#SVGID_00000113334073973582357660000015946119506725646988_);fill:#FCCF72;stroke:#1A2276;stroke-width:6;stroke-miterlimit:10;}
	
		.st72{clip-path:url(#SVGID_00000003078373099736037470000007840400648894118567_);fill:#FCCF72;stroke:#1A2276;stroke-width:6;stroke-miterlimit:10;}
	
		.st73{clip-path:url(#SVGID_00000036940152884657635150000017888243045686004413_);fill:#FCCF72;stroke:#1A2276;stroke-width:6;stroke-miterlimit:10;}
	.st74{clip-path:url(#SVGID_00000025412545748358012720000016485733413290655108_);}
	.st75{clip-path:url(#SVGID_00000011717832379112257330000007007881163924507818_);}
	.st76{clip-path:url(#SVGID_00000047764459106840338420000017675673686486855298_);}
	.st77{opacity:0.5;}
	.st78{clip-path:url(#SVGID_00000101078044395288833870000011123272068030728328_);}
	.st79{clip-path:url(#SVGID_00000165201805289314475950000007873985925889857461_);}
	.st80{fill:#FFFDFD;}
	.st81{clip-path:url(#SVGID_00000060737952670640891350000014981995620373832844_);}
	.st82{opacity:0.8;}
	
		.st83{clip-path:url(#SVGID_00000164474581829574009290000010366833733716397979_);fill:#FCCF72;stroke:#1A2276;stroke-width:6;stroke-miterlimit:10;}
	
		.st84{clip-path:url(#SVGID_00000000936412441326213500000003728995865563377037_);fill:#FCCF72;stroke:#1A2276;stroke-width:6;stroke-miterlimit:10;}
	.st85{clip-path:url(#SVGID_00000102520329995197965390000012052238543563072942_);}
	.st86{clip-path:url(#SVGID_00000029005161159549537410000010582676455147140789_);}
	.st87{clip-path:url(#SVGID_00000007393307944974827970000002772051435699356344_);}
	.st88{clip-path:url(#SVGID_00000067953103347328162410000009733034328837311911_);}
	.st89{clip-path:url(#SVGID_00000070797674082874380910000008037647127985142666_);}
	.st90{fill:none;stroke:#1A2276;stroke-width:19;stroke-miterlimit:10;}
	.st91{clip-path:url(#SVGID_00000062872133893249771260000014568725543662980781_);}
	.st92{fill:none;stroke:#1A2276;stroke-width:10;stroke-miterlimit:10;}
	.st93{clip-path:url(#SVGID_00000054259256325567826290000000010401714672311990_);}
	.st94{clip-path:url(#SVGID_00000177473322894568963040000010846226163039111852_);fill:#FCCF72;}
	.st95{clip-path:url(#SVGID_00000177473322894568963040000010846226163039111852_);fill:#1A2276;}
	.st96{clip-path:url(#SVGID_00000177468563497319115920000003764137239232605612_);}
	.st97{clip-path:url(#SVGID_00000161601197178116928920000007767047832286864565_);}
	.st98{clip-path:url(#SVGID_00000161601197178116928920000007767047832286864565_);fill:none;}
	.st99{clip-path:url(#SVGID_00000151528592300790997940000017211627989804779160_);fill:#8288A8;}
	.st100{clip-path:url(#SVGID_00000151528592300790997940000017211627989804779160_);fill:#FCCF72;}
	.st101{fill:#FFFFFF;stroke:#FFFFFF;stroke-width:6;stroke-miterlimit:10;}
	.st102{fill:none;stroke:#8288A8;stroke-width:6;stroke-miterlimit:10;}
	.st103{clip-path:url(#SVGID_00000121959150134829003040000001195169760721495477_);}
	.st104{clip-path:url(#SVGID_00000025440092421818614690000006599094182586301868_);}
	.st105{clip-path:url(#SVGID_00000096041118797832372590000004198742155524695426_);}
	.st106{clip-path:url(#SVGID_00000044135998322725915530000013245303334494367625_);}
	.st107{font-size:36px;}
	.st108{clip-path:url(#SVGID_00000033342205365615750120000003002590239679120265_);}
	.st109{fill:#EBEAD8;stroke:#1A2276;stroke-width:12;stroke-miterlimit:10;}
	.st110{fill:none;stroke:#1A2276;stroke-width:12;stroke-miterlimit:10;}
	.st111{clip-path:url(#SVGID_00000000900965406188233650000009813548671447012505_);}
	.st112{clip-path:url(#SVGID_00000021114610259308137820000008616674267834229930_);}
	.st113{clip-path:url(#SVGID_00000119103744983121964640000000244238503357894557_);}
	.st114{clip-path:url(#SVGID_00000039855465985833217050000012934613060789158018_);}
	.st115{clip-path:url(#SVGID_00000022561074399403488690000009463667901144961181_);}
	.st116{clip-path:url(#SVGID_00000150101982064227443020000011622275935844737714_);fill:#8288A8;}
	.st117{clip-path:url(#SVGID_00000150101982064227443020000011622275935844737714_);fill:#FCCF72;}
	.st118{clip-path:url(#SVGID_00000168836967873223398610000005882325815238618259_);}
	.st119{clip-path:url(#SVGID_00000101788096682848849490000008257225131843529918_);fill:#E90302;}
	.st120{clip-path:url(#SVGID_00000083769620700627028990000002626685215605145755_);fill:none;}
	.st121{clip-path:url(#SVGID_00000039128143002954955830000016294737207664926859_);}
	.st122{clip-path:url(#SVGID_00000000217023096394800420000012644638155248283276_);}
	.st123{clip-path:url(#SVGID_00000112630401473713717170000000139032434865439661_);}
	.st124{clip-path:url(#SVGID_00000173136106905845250620000016319006043871522715_);}
	.st125{clip-path:url(#SVGID_00000130617141148367701320000006788080531115317429_);}
	.st126{clip-path:url(#SVGID_00000102528231785037610680000017662722051837069968_);}
	.st127{clip-path:url(#SVGID_00000125571137991427608720000009368836910084144275_);}
	.st128{clip-path:url(#SVGID_00000154395553059473504490000014912917056118723485_);}
	.st129{clip-path:url(#SVGID_00000129202467238763049480000010319973992075350716_);}
	.st130{clip-path:url(#SVGID_00000003094805817976108220000000302304848163108791_);}
	.st131{clip-path:url(#SVGID_00000059281782701712974330000018168197732660517297_);}
	.st132{clip-path:url(#SVGID_00000170238798794966987060000002075270898234009735_);}
	.st133{clip-path:url(#SVGID_00000181051408175331601930000001557862631129938354_);fill:#EBEAD8;}
	.st134{clip-path:url(#SVGID_00000181051408175331601930000001557862631129938354_);}
	.st135{clip-path:url(#SVGID_00000167355402867418719370000015208269780826628274_);}
	.st136{clip-path:url(#SVGID_00000148650666609937874140000001667032557589595835_);}
	.st137{clip-path:url(#SVGID_00000031891609296475993300000014776308377082537617_);}
	.st138{clip-path:url(#SVGID_00000124141458817658784800000000891680260224314754_);}
	.st139{clip-path:url(#SVGID_00000150096217986955453150000017476733212951368359_);}
	.st140{fill:#ED8376;stroke:#1A2276;stroke-width:6;stroke-miterlimit:10;}
	.st141{fill:url(#);stroke:#1A2276;stroke-width:6;stroke-miterlimit:10;}
	.st142{clip-path:url(#SVGID_00000161624856215651733320000000565302008960041390_);}
	
		.st143{clip-path:url(#SVGID_00000160886565221824068130000002574957285086345862_);fill:#FCCF72;stroke:#1A2276;stroke-width:6;stroke-miterlimit:10;}
	.st144{fill:none;stroke:#FCCF72;stroke-width:6;stroke-linecap:round;stroke-miterlimit:10;}
	.st145{clip-path:url(#SVGID_00000039117258333885276640000004074899431958644144_);}
</style>
<g id="guias" class="st0">
</g>
<g id="Layer_2">
</g>
<g id="Layer_1">
	<rect x="1.5" y="1" class="st6" width="897" height="897"/>
	<g>
		<polygon class="st7" points="225.2,67.4 223.2,98.4 241.5,123.9 220.1,146 218.1,177 187.4,179.8 166,201.9 140.3,184.1 
			109.5,186.9 100.8,156.8 75.1,139 87.5,110.8 78.9,80.7 106.6,67.5 119.1,39.2 149.1,47.2 176.8,34 195.2,59.4 		"/>
		<g>
			<g>
				<path class="st6" d="M146.8,161.9c0-4.7,3.8-8.5,8.5-8.5c4.7,0,8.5,3.8,8.5,8.5v5.3h4.6c4.7,0,8.5,3.8,8.5,8.5s-3.8,8.5-8.5,8.5
					h-12.8c-4,0-7.3-2.7-8.3-6.4c-0.4-1-0.6-2-0.6-3.2V161.9z"/>
				<path class="st5" d="M168.4,185.4h-12.8c-4.4,0-8.2-2.9-9.3-7.2c-0.4-1.1-0.7-2.3-0.7-3.5v-12.8c0-5.3,4.3-9.6,9.6-9.6
					c5.3,0,9.6,4.3,9.6,9.6v4.3h3.5c5.3,0,9.6,4.3,9.6,9.6C178,181.1,173.7,185.4,168.4,185.4z M155.3,154.5c-4.1,0-7.4,3.3-7.4,7.4
					v12.8c0,1,0.2,1.9,0.5,2.8l0,0.1c0.8,3.3,3.8,5.6,7.2,5.6h12.8c4.1,0,7.4-3.3,7.4-7.4c0-4.1-3.3-7.4-7.4-7.4h-5.7v-6.4
					C162.8,157.8,159.4,154.5,155.3,154.5z"/>
			</g>
			<g>
				<line class="st6" x1="176.9" y1="177.7" x2="147.5" y2="177.7"/>
				<rect x="147.5" y="176.7" class="st5" width="29.4" height="2.1"/>
			</g>
			<g>
				<line class="st6" x1="163.8" y1="167.3" x2="159.4" y2="173.1"/>
				
					<rect x="157.9" y="169.1" transform="matrix(0.6034 -0.7974 0.7974 0.6034 -71.6418 196.371)" class="st5" width="7.3" height="2.1"/>
			</g>
			<g>
				<line class="st6" x1="168.1" y1="168" x2="163.6" y2="173.9"/>
				
					<rect x="162.2" y="169.9" transform="matrix(0.6034 -0.7974 0.7974 0.6034 -70.5196 200.0464)" class="st5" width="7.3" height="2.1"/>
			</g>
			<g>
				<line class="st6" x1="172.3" y1="168.7" x2="167.9" y2="174.6"/>
				
					<rect x="166.4" y="170.6" transform="matrix(0.6034 -0.7974 0.7974 0.6034 -69.3973 203.7218)" class="st5" width="7.3" height="2.1"/>
			</g>
			<g>
				<circle class="st6" cx="154.4" cy="168.2" r="3.5"/>
				<path class="st5" d="M154.4,172.8c-2.5,0-4.6-2.1-4.6-4.6c0-2.5,2.1-4.6,4.6-4.6s4.6,2.1,4.6,4.6
					C159,170.7,157,172.8,154.4,172.8z M154.4,165.7c-1.4,0-2.5,1.1-2.5,2.5s1.1,2.5,2.5,2.5s2.5-1.1,2.5-2.5
					S155.8,165.7,154.4,165.7z"/>
			</g>
			<g>
				<g>
					<path class="st6" d="M114.2,161.9c0-4.7,3.8-8.5,8.5-8.5s8.5,3.8,8.5,8.5v5.3h4.6c4.7,0,8.5,3.8,8.5,8.5s-3.8,8.5-8.5,8.5H123
						c-4,0-7.3-2.7-8.3-6.4c-0.4-1-0.6-2-0.6-3.2V161.9z"/>
					<path class="st5" d="M135.8,185.4H123c-4.4,0-8.2-2.9-9.3-7.2c-0.4-1.1-0.7-2.3-0.7-3.5v-12.8c0-5.3,4.3-9.6,9.6-9.6
						c5.3,0,9.6,4.3,9.6,9.6v4.3h3.5c5.3,0,9.6,4.3,9.6,9.6C145.4,181.1,141.1,185.4,135.8,185.4z M122.7,154.5
						c-4.1,0-7.4,3.3-7.4,7.4v12.8c0,1,0.2,1.9,0.5,2.8l0,0.1c0.8,3.3,3.8,5.6,7.2,5.6h12.8c4.1,0,7.4-3.3,7.4-7.4
						c0-4.1-3.3-7.4-7.4-7.4h-5.7v-6.4C130.1,157.8,126.8,154.5,122.7,154.5z"/>
				</g>
				<g>
					<line class="st6" x1="144.3" y1="177.7" x2="114.9" y2="177.7"/>
					<rect x="114.9" y="176.7" class="st5" width="29.4" height="2.1"/>
				</g>
				<g>
					<line class="st6" x1="131.2" y1="167.3" x2="126.8" y2="173.1"/>
					
						<rect x="125.3" y="169.1" transform="matrix(0.6034 -0.7974 0.7974 0.6034 -84.5827 170.3497)" class="st5" width="7.3" height="2.1"/>
				</g>
				<g>
					<line class="st6" x1="135.5" y1="168" x2="131" y2="173.9"/>
					
						<rect x="129.6" y="169.9" transform="matrix(0.6034 -0.7974 0.7974 0.6034 -83.4605 174.0251)" class="st5" width="7.3" height="2.1"/>
				</g>
				<g>
					<line class="st6" x1="139.7" y1="168.7" x2="135.3" y2="174.6"/>
					
						<rect x="133.8" y="170.6" transform="matrix(0.6034 -0.7974 0.7974 0.6034 -82.3382 177.7005)" class="st5" width="7.3" height="2.1"/>
				</g>
				<g>
					<circle class="st6" cx="121.8" cy="168.2" r="3.5"/>
					<path class="st5" d="M121.8,172.8c-2.5,0-4.6-2.1-4.6-4.6c0-2.5,2.1-4.6,4.6-4.6s4.6,2.1,4.6,4.6
						C126.4,170.7,124.3,172.8,121.8,172.8z M121.8,165.7c-1.4,0-2.5,1.1-2.5,2.5s1.1,2.5,2.5,2.5c1.4,0,2.5-1.1,2.5-2.5
						S123.2,165.7,121.8,165.7z"/>
				</g>
			</g>
			<g>
				<ellipse class="st6" cx="148.7" cy="125.4" rx="38.1" ry="29.8"/>
				<path class="st5" d="M148.7,156.3c-19.3,0-29,0-34-3.9c-5.2-4-5.2-11.7-5.2-26.9s0-22.9,5.2-26.9c5.1-3.9,14.7-3.9,34-3.9
					c19.3,0,29,0,34,3.7c5.2,3.8,5.2,11.1,5.2,25.5l0,1.6l0,1.6c0,14.4,0,21.7-5.2,25.5C177.7,156.3,168,156.3,148.7,156.3z
					 M148.7,96.7c-18.8,0-28.2,0-32.7,3.5c-4.4,3.4-4.4,10.7-4.4,25.2s0,21.8,4.4,25.2c4.5,3.5,13.9,3.5,32.7,3.5
					c18.8,0,28.3,0,32.7-3.3c4.3-3.2,4.3-10.1,4.3-23.8l0-1.6l0-1.6c0-13.7,0-20.6-4.3-23.8C177,96.7,167.6,96.7,148.7,96.7z"/>
			</g>
			<g>
				<path class="st8" d="M148.9,144.6c-38.8,0-38.3-12.2-38.3-11.5c0,27.8,0.2,27.8,38.1,27.8c37.3,0,38.1,0,38.1-27.8
					C186.9,132.4,187.1,144.6,148.9,144.6z"/>
				<path class="st5" d="M148.8,162c-19.2,0-28.9,0-33.9-3.7c-5.3-3.8-5.3-11.4-5.3-25.2h0c0-0.5,0.2-0.7,0.3-0.8l0.5-0.5l1.3,0.5
					v0.7c0.1,0.5,2,10.5,37.2,10.5c35.1,0,36.9-10.2,36.9-10.6l0.1-1l2,0.1l0,1c0,14.4-0.2,21.5-5.5,25.2
					C177.3,162,167.8,162,148.8,162z M111.7,137.1c0,10.8,0.5,16.6,4.4,19.4c4.5,3.3,13.9,3.3,32.7,3.3c18.5,0,27.8,0,32.4-3.3
					c4-2.8,4.6-8.5,4.6-19.5c-0.9,0.9-2.1,1.9-3.7,2.9c-6.6,3.8-17.8,5.7-33.1,5.7c-13.4,0-23.6-1.4-30.5-4.3
					C115.1,140,113,138.5,111.7,137.1z"/>
			</g>
			<g>
				<line class="st6" x1="182.2" y1="113.4" x2="126.7" y2="113.4"/>
				<rect x="126.7" y="112.3" class="st5" width="55.5" height="2.1"/>
			</g>
			<g>
				<line class="st6" x1="120.2" y1="112.7" x2="120.2" y2="119.7"/>
				<rect x="119.1" y="112.7" class="st5" width="2.1" height="7.1"/>
			</g>
			<g>
				<path class="st6" d="M174.9,123.8c0,0-1.6-4.6-6.5-3.8c-4.9,0.8-5.5,3.8-5.5,3.8"/>
				<path class="st5" d="M173.9,124.1c-0.1-0.2-1.4-3.8-5.4-3.1c-4,0.7-4.6,2.9-4.6,3l-2.1-0.4c0-0.2,0.7-3.7,6.3-4.7
					c4.6-0.8,7.1,2.6,7.7,4.5L173.9,124.1z"/>
			</g>
			<g>
				<path class="st6" d="M152.6,124.1c0,0-1.6-4.6-6.5-3.8c-4.9,0.8-5.5,3.8-5.5,3.8"/>
				<path class="st5" d="M151.6,124.5c-0.1-0.2-1.4-3.8-5.4-3.1c-4,0.7-4.6,2.9-4.6,3l-2.1-0.4c0-0.2,0.7-3.7,6.3-4.7
					c4.6-0.8,7.1,2.6,7.7,4.5L151.6,124.5z"/>
			</g>
			<g>
				<path class="st6" d="M164.8,128.3c0,0,1.3,5.3-4.4,6.1c-6,0.9-6.4-5.1-6.4-5.1"/>
				<path class="st5" d="M159.1,135.6c-1.5,0-2.8-0.4-3.8-1.3c-2.2-1.8-2.5-4.8-2.5-4.9l2.1-0.2c0,0,0.2,2.2,1.7,3.4
					c0.9,0.7,2,0.9,3.5,0.7c1.4-0.2,2.5-0.8,3-1.6c0.9-1.4,0.5-3.2,0.5-3.2l2.1-0.5c0,0.1,0.6,2.7-0.8,4.9c-0.9,1.4-2.4,2.2-4.5,2.5
					C160,135.6,159.6,135.6,159.1,135.6z"/>
			</g>
			<g>
				<path class="st6" d="M102.5,128.1c4.3-1.9,9.3,0.1,11.2,4.4l5.1,11.7c1.9,4.3-0.1,9.3-4.4,11.2c-4.3,1.9-9.3-0.1-11.2-4.4
					l-5.1-11.7C96.2,135,98.2,130,102.5,128.1z"/>
				<path class="st5" d="M111.1,157.2c-1.2,0-2.4-0.2-3.5-0.7c-2.4-0.9-4.3-2.7-5.3-5.1l-5.1-11.7c-2.1-4.8,0.1-10.5,4.9-12.6
					c2.3-1,4.9-1.1,7.3-0.1c2.4,0.9,4.3,2.7,5.3,5.1l5.1,11.7c1,2.3,1.1,4.9,0.1,7.3c-0.9,2.4-2.7,4.3-5.1,5.3
					C113.7,156.9,112.4,157.2,111.1,157.2z M105.9,128.5c-1,0-2,0.2-3,0.6c-1.8,0.8-3.2,2.3-3.9,4.1c-0.7,1.9-0.7,3.9,0.1,5.7
					l5.1,11.7c1.6,3.8,6,5.5,9.8,3.8c1.8-0.8,3.2-2.3,3.9-4.1c0.7-1.9,0.7-3.9-0.1-5.7l-5.1-11.7
					C111.5,130.1,108.8,128.5,105.9,128.5z"/>
			</g>
			<g>
				<circle class="st5" cx="118.1" cy="97.8" r="13.5"/>
			</g>
			<g>
				<circle class="st5" cx="162.1" cy="82.2" r="13.5"/>
			</g>
			<g>
				<ellipse class="st5" cx="141.9" cy="86.4" rx="24.5" ry="18.4"/>
			</g>
			<g>
				<ellipse class="st5" cx="170.3" cy="86.4" rx="24.5" ry="18.4"/>
			</g>
			<g>
				<g>
					<ellipse class="st6" cx="191.3" cy="116.2" rx="11.4" ry="9.6"/>
					<path class="st5" d="M191.3,126.8c-6.9,0-12.5-4.8-12.5-10.7s5.6-10.7,12.5-10.7c6.9,0,12.5,4.8,12.5,10.7
						S198.1,126.8,191.3,126.8z M191.3,107.6c-5.7,0-10.3,3.8-10.3,8.6c0,4.7,4.6,8.6,10.3,8.6c5.7,0,10.3-3.8,10.3-8.6
						C201.6,111.4,197,107.6,191.3,107.6z"/>
				</g>
				<g>
					<path class="st6" d="M204.8,86.2c-2.5-1.3-5.7-0.1-7.1,2.6c0,0.1-0.1,0.1-0.1,0.2l0,0l-3.8,7.6v-8.5h0c0-0.1,0-0.1,0-0.2
						c0-3.1-2.3-5.5-5.2-5.5s-5.2,2.5-5.2,5.5c0,0.1,0,0.1,0,0.2h0v15.3h8.6l7.9,4l6.9-13.7l0,0c0-0.1,0.1-0.1,0.1-0.2
						C208.3,90.8,207.3,87.5,204.8,86.2z"/>
					<path class="st5" d="M200.4,108.8l-8.6-4.3h-9.4V87h0.1c0.4-3.2,3-5.7,6.2-5.7s5.8,2.5,6.2,5.7h0l0,0.7c0,0.1,0,0.1,0,0.2
						c0,0,0,0,0,0.1l0,0.1v4.1l2.3-4.5l0,0c0.8-1.2,1.9-2.1,3.2-2.6c1.6-0.6,3.3-0.5,4.8,0.2c1.5,0.8,2.6,2.1,3.1,3.7
						c0.4,1.4,0.3,2.8-0.1,4.1l0,0l-0.3,0.6c0,0.1-0.1,0.1-0.1,0.2c0,0,0,0,0,0.1l-0.1,0.1L200.4,108.8z M184.5,102.3h7.8l7.2,3.6
						l5.9-11.7l0,0l0.5-1c0,0,0-0.1,0.1-0.1l0,0c0.5-1.1,0.7-2.3,0.3-3.4c-0.3-1.1-1-2-2-2.4c-1-0.5-2.1-0.5-3.1-0.1
						c-1.1,0.4-2,1.2-2.5,2.3l0,0c0,0,0,0.1,0,0.1l-0.5,1l0,0l-5.3,10.6v-12h0l0-1.3c0-2.5-1.8-4.5-4.1-4.5s-4.1,2-4.1,4.5l0,0.2
						l0,1.1h0V102.3z"/>
				</g>
				<g>
					<path class="st6" d="M192.4,109.9c-2.3,1.1-3.3,4.1-2.1,6.6c1.2,2.6,4.1,3.8,6.4,2.7c0,0,0.1-0.1,0.1-0.1l0,0l7.8-3.2
						c4.4-3.7,0.9-10.5-4.3-9.4l-7.8,3.2l0,0C192.5,109.9,192.5,109.9,192.4,109.9z"/>
					<path class="st5" d="M194.9,120.8c-2.3,0-4.5-1.4-5.6-3.8c-1.3-2.8-0.5-6,1.8-7.6l0-0.1l1-0.4l7.9-3.3l0.1,0
						c2.8-0.6,5.6,0.7,6.9,3.4c1.4,2.7,0.7,5.8-1.7,7.9l-0.1,0.1l-8,3.3c0,0,0,0-0.1,0c-0.2,0.1-0.3,0.1-0.5,0.2l-0.4,0.1l0,0
						C195.9,120.7,195.4,120.8,194.9,120.8z M192.4,109.9l0.4,1c-1.8,0.8-2.5,3.2-1.6,5.2c0.9,2.1,3.2,3.1,5,2.2l0.1-0.1l1-0.5
						l0,0.1l6.7-2.8c1.8-1.7,1.7-3.8,1-5.2c-0.7-1.3-2.2-2.7-4.5-2.3l-6.7,2.8l0,0l-1.1,0.5L192.4,109.9L192.4,109.9z"/>
				</g>
				<g>
					<path class="st6" d="M189.3,103.2c-2.8,1.3-4.1,4.4-2.9,7c1.2,2.6,4.4,3.7,7.2,2.4c0.1,0,0.1-0.1,0.2-0.1l0,0l9.3-3.9
						c5.3-4.2,1.8-10.9-4.3-9.4l-9.3,3.9l0,0C189.4,103.1,189.3,103.1,189.3,103.2z"/>
					<path class="st5" d="M191.2,114.2c-2.4,0-4.7-1.3-5.7-3.5c-0.7-1.5-0.7-3.2-0.1-4.8c0.5-1.3,1.5-2.4,2.7-3.2l0-0.1l1-0.4
						l9.4-3.9c3.8-1,6.5,0.9,7.6,3.1c1.4,2.8,0.4,6-2.4,8.2l-0.1,0.1l-9.4,4c0,0-0.1,0-0.1,0c-0.2,0.1-0.4,0.2-0.6,0.2l-0.3,0.1l0,0
						C192.5,114,191.8,114.2,191.2,114.2z M189.7,104.1c-1.1,0.5-1.9,1.4-2.4,2.4c-0.4,1-0.4,2.2,0,3.1c0.9,2.1,3.5,2.9,5.8,1.9
						l0.1-0.1l1-0.5l0,0.1l8.2-3.4c2.3-1.9,2.4-4,1.7-5.5c-0.7-1.3-2.4-2.7-5.1-2l-9.2,3.9C189.8,104.1,189.8,104.1,189.7,104.1
						L189.7,104.1z"/>
				</g>
				<g>
					<path class="st6" d="M183.9,103.5c-2.4-0.9-5.2,0.6-6.2,3.3s0.2,5.6,2.6,6.4c0.1,0,0.1,0,0.2,0l0,0l7.8,3.2
						c5.7,0.4,8-6.9,3.5-9.7l-7.8-3.2l0,0C184,103.5,184,103.5,183.9,103.5z"/>
					<path class="st5" d="M188.8,117.5c-0.2,0-0.4,0-0.5,0l-0.2,0l-8-3.3c0,0-0.1,0-0.1,0c-0.2-0.1-0.3-0.1-0.5-0.2l-0.3-0.1l0,0
						c-2.4-1.4-3.5-4.5-2.5-7.5c0.6-1.5,1.6-2.8,3-3.5c1.1-0.6,2.4-0.8,3.6-0.6l0-0.1l1,0.4l7.9,3.2l0.1,0c2.4,1.5,3.5,4.5,2.5,7.2
						C194.1,115.8,191.7,117.5,188.8,117.5z M188.6,115.4c2.5,0.1,3.9-1.5,4.4-3c0.5-1.4,0.3-3.5-1.6-4.7l-7.7-3.2c0,0-0.1,0-0.1,0
						l0,0c-0.9-0.3-1.9-0.2-2.8,0.2c-0.9,0.5-1.6,1.3-2,2.4c-0.8,2.1,0.1,4.4,2,5.1l0.1,0l1,0.3l0,0.1L188.6,115.4z"/>
				</g>
			</g>
		</g>
	</g>
	<g>
		<g>
			<polygon class="st8" points="829.1,410.6 71,463.4 71,396.7 829.1,343.8 			"/>
		</g>
		<text transform="matrix(1 -6.972903e-02 0 1 116.3905 443.6202)" class="st6 st44 st45 st46">INCREÍBLE · FANTÁSTICA · APOTEÓSICA</text>
	</g>
	<g>
		<g>
			<polygon class="st5" points="66,158 834.1,104.4 834.1,331.7 66,385.2 			"/>
			<path class="st6" d="M829.1,109.8V327L71,379.8V162.6L829.1,109.8 M839.1,99.1l-10.7,0.7L70.3,152.7l-9.3,0.6v9.3v217.2v10.7
				l10.7-0.7L829.8,337l9.3-0.6V327V109.8V99.1L839.1,99.1z"/>
		</g>
		<g>
			<text transform="matrix(1 -6.972903e-02 0 1 135.4897 326.7534)" class="st10 st44 st47">weconnsejos</text>
			<text transform="matrix(1 -6.972903e-02 0 1 141.4898 318.3351)" class="st5 st44 st47">webconsejos</text>
			<text transform="matrix(1 -6.972903e-02 0 1 151.8816 310.3946)" class="st6 st44 st47">webconsejos</text>
		</g>
	</g>
</g>
<g id="web">
	<g>
		<text transform="matrix(0.9762 -7.598437e-02 2.250000e-03 1 696.2312 104.8202)" class="st5 st44 st107">presenta</text>
		<g>
			<g>
				<path class="st10" d="M346.8,108.7c2,5.2,5.2,7.5,10.3,7.1c3.1-0.2,3.9-0.6,10.7-4.5c0.8-0.4,1.8-0.8,2.8-0.9
					c2.6-0.2,5.2,2.2,5.2,5c0,5.4-9.4,11.2-19.4,12c-13.8,1.1-23.5-7.8-23.6-21.3c0-14.1,9.4-25.2,22.1-26.2
					c12.1-0.9,21.5,8.4,21.5,21.3c0,3.7-1.7,5.4-5.6,5.7L346.8,108.7z M363.7,98.3c-0.6-2.5-1.1-3.5-1.9-4.7c-1.5-2.1-4-3.1-6.6-2.9
					c-4.3,0.3-7.1,3.1-9,9L363.7,98.3z"/>
				<path class="st10" d="M395.2,80.6c3.9-3.2,6.6-4.4,10.5-4.7c11.1-0.9,20.1,8.9,20.1,22.1c0,13.6-8.6,24.6-19.9,25.5
					c-4.8,0.4-8-0.9-10.8-4.4c-1.4,3.5-3.2,5.2-6.1,5.4c-4,0.3-6.7-2.4-6.7-6.5L382.3,67c0-3.2,0.1-4,0.9-5.6c1-2.1,3.3-3.6,5.6-3.8
					c2.3-0.2,4.6,1,5.6,2.9c0.8,1.5,0.9,2.2,0.9,5.4L395.2,80.6z M395.2,100.4c0,6.7,3.8,11.3,9,10.9c5-0.4,8.8-5.7,8.8-12.2
					c0-6.4-3.8-11.1-8.8-10.7C399.1,88.8,395.2,94,395.2,100.4z"/>
				<path class="st10" d="M431.5,81.9c0-4.7,2.6-8,6.6-8.3c2.9-0.2,4.8,1,6,4.1c3.8-3.9,6.9-5.4,11.9-5.8c4.5-0.3,8.3,0.7,11.3,3.1
					c3.4,2.9,4.7,6.1,4.7,12.4l0,21.8c0,3.2-0.1,4-0.9,5.6c-1,2.1-3.3,3.6-5.5,3.8c-2.4,0.2-4.7-1-5.6-2.9c-0.8-1.5-0.9-2.2-0.9-5.4
					l0-18.6c0-5.2-2.8-8.2-7.2-7.9c-4.1,0.3-7.3,4-7.3,8.4l0,19.2c0,3.2-0.1,4-0.9,5.6c-1,2.1-3.3,3.6-5.5,3.8
					c-2.4,0.2-4.7-1-5.6-2.9c-0.8-1.5-0.9-2.2-0.9-5.4L431.5,81.9z"/>
				<path class="st10" d="M480.9,79.2c0-3.2,0.1-4,0.9-5.6c1-2.1,3.3-3.6,5.6-3.8c2.3-0.2,4.6,1,5.6,2.9c0.8,1.5,0.9,2.2,0.9,5.4
					l0.1,29.4c0,3.2-0.1,4-0.9,5.6c-1,2.1-3.3,3.6-5.5,3.8c-2.4,0.2-4.7-1-5.6-2.9c-0.8-1.5-0.9-2.2-0.9-5.4L480.9,79.2z
					 M501.2,56.3c0-3-2.6-5.4-6-5.7l0,0l-0.3,0c-0.4,0-0.8,0-1.2,0c-0.4,0-0.8,0.1-1.2,0.2l-10.3,0.8c-0.4,0-0.8,0-1.2,0
					c-4.2,0.3-7.7,3.4-7.7,6.9c0,3.5,3.4,6.1,7.6,5.8c0.1,0,0.2,0,0.3,0l13.9-1.2C498.7,62.1,501.2,59.4,501.2,56.3z"/>
				<path class="st10" d="M534.3,75c0,3-2.4,6-5,6.2c-1.4,0.1-1.5,0.1-5.5-1.4c-1.9-0.8-3.6-1.1-4.9-1c-2.1,0.2-3.4,1.2-3.4,2.6
					c0,1.7,0.7,2.1,6.8,4.1c5.7,1.9,7.6,2.8,9.9,5c2,2.1,3.2,4.8,3.2,8.1c0,8.8-6.9,15.4-17.1,16.2c-8.8,0.7-16.6-3.2-16.6-8.3
					c0-3.1,2.6-6.2,5.4-6.4c1.5-0.1,1.5-0.1,6.7,1.8c2.1,0.8,3.8,1.2,5.2,1c2.1-0.2,3.8-1.7,3.8-3.4c0-1.5-1-2.3-4.9-3.5
					c-6.4-1.9-8.2-2.7-10.4-4.2c-3.1-2-4.4-4.9-4.4-9.2c0-8.2,7.1-14.9,16.6-15.7C527.4,66.4,534.3,70.1,534.3,75z"/>
				<path class="st10" d="M556.8,52.3c0,4.3-3.3,8-7.5,8.4c-4.2,0.3-7.6-2.8-7.6-7.2c0-4.3,3.4-8,7.6-8.3
					C553.4,44.9,556.8,48.1,556.8,52.3z M542.7,74.4c0-3.2,0.1-4,0.9-5.6c1-2.1,3.3-3.6,5.6-3.8c2.3-0.2,4.6,1,5.6,2.9
					c0.8,1.5,0.9,2.2,0.9,5.4l0.1,29.4c0,3.2-0.1,4-0.9,5.6c-1,2.1-3.3,3.6-5.5,3.8c-2.4,0.2-4.7-1-5.6-2.9
					c-0.8-1.5-0.9-2.2-0.9-5.4L542.7,74.4z"/>
				<path class="st10" d="M564.8,71.5c0-4.6,2.5-7.9,6.4-8.2c2.6-0.2,4,0.6,6.3,3.9c3.6-3.6,6.8-5.1,11.4-5.5
					c3.2-0.2,6.4,0.3,8.8,1.6c1.3,0.6,2.1,1.4,3.6,3.2c5.2-4.7,8.6-6.5,13.6-6.8c9-0.7,15.6,5.3,15.6,14.2l0.1,23.2
					c0,3.2-0.1,4-0.9,5.6c-1,2.1-3.3,3.6-5.5,3.8c-2.4,0.2-4.7-1-5.6-2.9c-0.8-1.5-0.9-2.2-0.9-5.4l0-20.2c0-4.1-2.7-6.7-6.6-6.4
					s-6.8,3.3-6.8,7.4l0,20.2c0,3.2-0.1,4-0.9,5.6c-1,2.1-3.3,3.6-5.5,3.8c-2.4,0.2-4.7-1-5.6-2.9c-0.8-1.5-0.9-2.2-0.9-5.4l0-18.9
					c0-5.2-2.5-7.9-6.7-7.6c-3.9,0.3-6.7,3.4-6.7,7.4l0,20.2c0,3.2-0.1,4-0.9,5.6c-1,2.1-3.3,3.6-5.5,3.8c-2.4,0.2-4.7-1-5.6-2.9
					c-0.8-1.5-0.9-2.2-0.9-5.4L564.8,71.5z"/>
				<path class="st10" d="M680.5,94c0,4.7-2.6,8.1-6.5,8.4c-3.1,0.2-5.2-1.3-6.5-4.7c-3.3,4.4-5.9,6-10.6,6.3
					c-4.8,0.4-9.1-1-12.8-4.1c-5.1-4.2-7.7-10.3-7.7-18.4c0-7.3,2.1-13,6.7-18.1c3.9-4.3,8.4-6.7,13.5-7.1c4.6-0.4,7.3,0.8,11,4.4
					c1.4-3.6,3.3-5.2,6.4-5.5c3.6-0.3,6.4,2.5,6.4,6.3L680.5,94z M649.3,80.6c0,7,3.5,11.3,9,10.9c5.3-0.4,8.9-5.4,8.9-12.2
					c0-6.8-3.6-11.1-9-10.7C652.9,69.1,649.3,74,649.3,80.6z"/>
			</g>
			<g>
				<path class="st5" d="M326.4,85.2c-0.8-1.5-2.3-2.5-4.1-2.8c-0.5-0.1-1-0.1-1.5-0.1c-0.5,0-1,0.2-1.5,0.3
					c-1.8,0.6-3.3,1.9-4.1,3.5c-0.5,1.1-0.8,1.9-0.8,3.3c0,0.6,0,23.3,0,23.3c0,2.1-0.6,3.2-1.4,4.1c-0.8,0.8-2,1.4-3.1,1.5
					c-1.3,0.1-2.4-0.4-3.3-1.2c-0.7-0.8-1.2-1.8-1.2-3.6l0-21.7l0,0c0-2.7-0.2-3.4-0.9-4.8c-0.8-1.5-2.3-2.5-4.1-2.8
					c-0.5-0.1-1-0.1-1.5-0.1c-0.5,0-1,0.2-1.5,0.3c-1.8,0.6-3.3,1.9-4.1,3.5c-0.5,1.1-0.8,1.9-0.8,3.3c0,0.5-0.1,1.7-0.1,1.7l0,21.6
					c0,2.1-0.6,3.2-1.4,4.1c-0.8,0.8-2,1.4-3.1,1.5c-1.3,0.1-2.4-0.4-3.3-1.2c-0.7-0.8-1.2-1.8-1.2-3.7l-0.1-20.9
					c0-3.3-0.1-4-0.9-5.5c-0.8-1.5-2.3-2.5-4.1-2.8c-0.5-0.1-1-0.1-1.5-0.1c-0.5,0-1,0.2-1.5,0.3c-1.8,0.6-3.3,1.9-4.1,3.5
					c-0.5,1.1-0.8,1.9-0.8,3.3c0,0.6,0.1,23.7,0.1,23.7c0,6.4,2.1,10.3,5.7,12.9c3.3,2.3,7.4,3.4,11.2,3.1c3.4-0.3,6.3-1.1,8.7-2.7
					l1.1-0.8c0.7-0.5,1.3-0.8,1.8-0.8c0.7-0.1,1.1,0.2,1.8,0.5l1.2,0.7c2.4,1.3,5.3,1.7,8.7,1.4c4-0.3,7.8-1.9,10.9-4.8
					c3.7-3.2,5.8-7.4,5.8-13.8l0-21.4C327.3,87.4,327.2,86.7,326.4,85.2z"/>
				<g>
					<g>
						<path class="st9" d="M298.8,69.3c-13,1.2-23.6,0.2-23.6-2.1c0-0.8,1.4-1.6,3.7-2.7c9.5-4.3,14.3-5.6,23.2-5.5
							c6.3,0.1,13.3-0.4,18.4,2.3c1.2,0.4,1.8,0.9,1.9,1.5C322.3,65,311.8,68.1,298.8,69.3z M333.9,61.9c-0.1-6-10.9-9.4-35.4-7.1
							c-23,2.1-35.1,7.6-35,13.7c0.2,9.3,16,12.6,35.4,10.8C318.4,77.5,334.1,71.2,333.9,61.9z"/>
					</g>
				</g>
			</g>
		</g>
	</g>
	<g>
		<defs>
			<rect id="SVGID_00000143606117649123188740000008694314697905410216_" x="-21.1" y="-16" width="944.6" height="944.6"/>
		</defs>
		<clipPath id="SVGID_00000110463094397975509730000006495896066658538631_">
			<use xlink:href="#SVGID_00000143606117649123188740000008694314697905410216_"  style="overflow:visible;"/>
		</clipPath>
		<g style="opacity:0.24;clip-path:url(#SVGID_00000110463094397975509730000006495896066658538631_);">
			
				<image style="overflow:visible;" width="872" height="872" xlink:href="E9439AA379C6412F.png"  transform="matrix(1.3042 0 0 1.3042 -153.5 -1053)">
			</image>
		</g>
	</g>
	<g>
		<g>
			<path class="st6" d="M396.5,850.5c-103-14.8-150.1-21.5-176.4-47.6c-29-28.7-23.1-70.1-12.2-145.3l2.2-15.7
				c8.3-57.7,13.3-92.6,30-115.9c16.5-23,41-30.2,72.4-30.5l-16.6-161l82.1,107.9l90.7-134.3l49.2,154l113.9-90.8l-64.8,159.3
				c35.1,9.4,59,23.1,69.7,51c10.8,28.4,5.4,66.2-3.6,128.8c-11.3,78.7-17.5,122.1-53.1,142.5C546.8,872.1,499.7,865.3,396.5,850.5z
				"/>
		</g>
		<g>
			<polygon class="st9" points="378.4,480.2 461.6,357.1 506.8,498.6 580.7,439.6 530.9,562.1 339.1,535.9 322.7,402.6 			"/>
			<path class="st5" d="M334.2,540.6l-19.4-158.3l63.5,88.4l85-125.9l46.2,144.7l83.9-66.9l-59.1,145.3L334.2,540.6z M330.6,422.8
				l13.3,108.3l183.6,25l40.5-99.5l-64,51l-44.2-138.4l-81.3,120.3L330.6,422.8z"/>
		</g>
		<g>
			
				<ellipse transform="matrix(0.1421 -0.9899 0.9899 0.1421 -312.208 1000.2411)" class="st6" cx="420.9" cy="680.2" rx="150.5" ry="192.6"/>
			<path class="st5" d="M398.8,834.6c-96.4-13.8-144.8-20.8-167.4-43.1c-23.2-23-18-59.2-7.6-131.5l1.1-7.9l1.1-7.9
				c10.3-72.3,15.5-108.5,44.3-124c27.9-15.1,76.3-8.1,172.7,5.7c96.4,13.8,144.8,20.8,167.3,44.2c23,23.9,17.5,62.2,6.6,138.3
				c-10.9,76.1-16.4,114.3-45.2,130.9C543.6,855.4,495.2,848.4,398.8,834.6z M441.6,536.6c-94.1-13.5-141.3-20.3-166.1-6.9
				c-24,12.9-28.9,47.4-38.7,116.1l-1.1,7.9l-1.1,7.9c-9.9,68.7-14.9,103.2,4.5,122.3c20,19.8,67.3,26.6,161.3,40.1
				c94,13.5,141.2,20.3,166.1,6c24.2-13.9,29.5-50.4,39.9-123.1c10.4-72.7,15.7-109.2-3.7-129.3
				C582.8,556.8,535.6,550.1,441.6,536.6z"/>
		</g>
		<g>
			<path class="st10" d="M598.4,648.9c-3.7,25.7-25.3,22.6-56.3,18.2c-31.5-4.5-30.9-4.4-27.2-30.2c3.7-25.7,3.1-25.8,34.6-21.3
				C580.5,620,602.1,623.1,598.4,648.9z"/>
		</g>
		<g>
			<path class="st10" d="M578.5,787.2c-3.7,25.7-25.3,22.6-56.3,18.2c-31.5-4.5-30.9-4.4-27.2-30.2c3.7-25.7,3.1-25.8,34.6-21.3
				C560.6,758.4,582.2,761.5,578.5,787.2z"/>
		</g>
		<g>
			<path class="st10" d="M590,719.5c-2.1,14.8-23.6,17.3-54.5,12.9c-31.5-4.5-32.7,0.9-29-24.9c5-34.6,4.2-26.3,35.7-21.7
				C573.1,690.2,595.7,679.7,590,719.5z"/>
		</g>
		<g>
			<defs>
				
					<ellipse id="SVGID_00000087413292638969749820000002526658450665418650_" transform="matrix(0.1421 -0.9899 0.9899 0.1421 -315.5053 1003.793)" cx="421.3" cy="683.9" rx="150.5" ry="190"/>
			</defs>
			<clipPath id="SVGID_00000151542064667321416010000014850086222015995309_">
				<use xlink:href="#SVGID_00000087413292638969749820000002526658450665418650_"  style="overflow:visible;"/>
			</clipPath>
			<g style="clip-path:url(#SVGID_00000151542064667321416010000014850086222015995309_);">
				<path class="st9" d="M385.2,642.5C240,621.7,248.5,537.3,249,534.1c19.9-139.2,7-43.3,194.3-16.5
					c183.9,26.4,201.7-68.8,181.8,70.5C624.7,591.3,495.5,658.4,385.2,642.5z"/>
				<path class="st5" d="M384.5,647.8c-152.3-21.9-141-113.6-140.8-114.5c7.4-51.6,10.2-70.9,21.4-76.7c8.7-4.5,18.9,0.8,35.8,9.6
					c25.4,13.2,67.9,35.2,143.2,46.1c73.4,10.5,120.2,1.4,148.2-4c19.4-3.8,31.1-6.1,38.5,0.9c9.3,8.8,7.2,27.3-0.3,79.6
					c-0.3,2.4-2.1,3.7-2.8,4.3C612.7,604.3,488,662.7,384.5,647.8z M273.3,465.9c-1.4-0.2-2.5-0.1-3.3,0.3
					c-6.3,3.3-9.9,27.9-15.7,68.7c-0.1,0.8-9.7,82,131.7,102.3c102.1,14.7,220.1-43.1,234.1-51.9c5-35.2,8.9-62.9,3.3-68.2
					c-3.3-3.2-14.1-1.1-29,1.8c-28.7,5.6-76.6,14.9-151.8,4.1c-77.1-11.1-120.6-33.7-146.6-47.2
					C286.3,470.8,278.2,466.6,273.3,465.9z"/>
			</g>
		</g>
		<g>
			<circle class="st5" cx="456.7" cy="584.7" r="13.1"/>
		</g>
		<g>
			<circle class="st5" cx="409.5" cy="578" r="13.1"/>
		</g>
		<g>
			<circle class="st5" cx="362.4" cy="571.2" r="13.1"/>
		</g>
		<g>
			<g>
				<circle class="st8" cx="275.2" cy="718.8" r="6.9"/>
			</g>
			<g>
				<circle class="st8" cx="280.5" cy="681.5" r="6.9"/>
			</g>
			<g>
				<circle class="st8" cx="253.1" cy="695.7" r="6.9"/>
			</g>
		</g>
		<g>
			<polygon class="st5" points="333.1,556.5 324.3,544.7 312.5,553.5 303.7,541.8 292,550.6 300.8,562.3 289,571.1 297.8,582.9 
				309.6,574.1 318.4,585.9 330.2,577.1 321.3,565.3 			"/>
		</g>
		<g>
			<g>
				<g>
					<g>
						<circle class="st20" cx="408.6" cy="699.8" r="21.1"/>
					</g>
					<g>
						<circle class="st5" cx="408.6" cy="699.8" r="14.5"/>
					</g>
				</g>
				<g>
					<circle class="st20" cx="331.4" cy="688.7" r="21.1"/>
				</g>
				<g>
					<circle class="st5" cx="331.4" cy="688.7" r="14.5"/>
				</g>
			</g>
			<g>
				<path class="st5" d="M357.6,764.4c-44.8-6.4-52.2-26.1-52.9-28.3c-0.9-2.8,0.7-5.9,3.5-6.7c2.8-0.9,5.8,0.6,6.7,3.4
					c0.2,0.5,6.7,15.6,44.2,21c39.1,5.6,53.9-7.7,54.1-7.8c2.2-2,5.5-1.9,7.6,0.2c2,2.1,2,5.5-0.1,7.5
					C420,754.4,402.5,770.8,357.6,764.4z"/>
			</g>
		</g>
		<g>
			<g>
				<circle class="st8" cx="456.3" cy="708.1" r="6.9"/>
			</g>
			<g>
				<circle class="st8" cx="451" cy="745.4" r="6.9"/>
			</g>
			<g>
				<circle class="st8" cx="478.3" cy="731.2" r="6.9"/>
			</g>
		</g>
	</g>
</g>
<g id="halftone">
	
		<image style="overflow:visible;opacity:0.18;" width="872" height="872" xlink:href="E9439AA379C6412D.png"  transform="matrix(1.3042 0 0 1.3042 884.5 -132)">
	</image>
</g>
</svg>
